<?xml version="1.0" encoding="utf-8"?>
<COLLADA xmlns="http://www.collada.org/2005/11/COLLADASchema" version="1.4.1" xmlns:xsi="http://www.w3.org/2001/XMLSchema-instance">
  <asset>
    <contributor>
      <author>Blender User</author>
      <authoring_tool>Blender 4.0.2 commit date:2023-12-05, commit time:07:41, hash:9be62e85b727</authoring_tool>
    </contributor>
    <created>2024-01-25T17:06:28</created>
    <modified>2024-01-25T17:06:28</modified>
    <unit name="meter" meter="1"/>
    <up_axis>Z_UP</up_axis>
  </asset>
  <library_images/>
  <library_geometries>
    <geometry id="shape0-mesh" name="shape0">
      <mesh>
        <source id="shape0-mesh-positions">
          <float_array id="shape0-mesh-positions-array" count="99">0 0 10 0 200 10 0 0 0 0 200 0 200 0 10 200 0 0 200 200 10 200 200 0 100 105 10 97.5 104.33 10 95.6699 102.5 10 102.5 104.33 10 104.33 102.5 10 105 100 10 104.33 97.5 10 102.5 95.6699 10 100 95 10 97.5 95.6699 10 95.6699 97.5 10 95 100 10 95.6699 102.5 110 97.5 104.33 110 100 105 110 102.5 104.33 110 104.33 102.5 110 105 100 110 104.33 97.5 110 102.5 95.6699 110 100 95 110 97.5 95.6699 110 95.6699 97.5 110 95 100 110 100 100 110</float_array>
          <technique_common>
            <accessor source="#shape0-mesh-positions-array" count="33" stride="3">
              <param name="X" type="float"/>
              <param name="Y" type="float"/>
              <param name="Z" type="float"/>
            </accessor>
          </technique_common>
        </source>
        <source id="shape0-mesh-normals">
          <float_array id="shape0-mesh-normals-array" count="93">-1 0 0 0 -1 0 1 0 0 0 1 0 0 0 1 0 0 1 0 0 1 0 0 1 0 0 -1 -0.9659211 0.2588366 0 -0.7070906 0.707123 0 -0.7070831 0.7071306 0 -0.2588669 0.965913 0 0.2588669 0.965913 0 0.7071095 0.7071042 0 0.7071057 0.7071079 0 0.9659136 0.2588648 0 0.9659117 0.2588719 0 0.9659117 -0.2588719 0 0.9659136 -0.2588648 0 0.7071263 -0.7070873 0 0.7071301 -0.7070835 0 0.2588284 -0.9659234 0 -0.2588284 -0.9659234 0 -0.7071037 -0.7071099 0 -0.7071112 -0.7071024 0 -0.9659211 -0.2588366 0 -0.965925 -0.2588226 0 -0.965925 0.2588226 0 -2.44141e-6 0 1 2.44141e-6 0 1</float_array>
          <technique_common>
            <accessor source="#shape0-mesh-normals-array" count="31" stride="3">
              <param name="X" type="float"/>
              <param name="Y" type="float"/>
              <param name="Z" type="float"/>
            </accessor>
          </technique_common>
        </source>
        <vertices id="shape0-mesh-vertices">
          <input semantic="POSITION" source="#shape0-mesh-positions"/>
        </vertices>
        <triangles count="62">
          <input semantic="VERTEX" source="#shape0-mesh-vertices" offset="0"/>
          <input semantic="NORMAL" source="#shape0-mesh-normals" offset="1"/>
          <p>0 0 1 0 2 0 2 0 1 0 3 0 4 1 0 1 5 1 5 1 0 1 2 1 6 2 4 2 7 2 7 2 4 2 5 2 1 3 6 3 3 3 3 3 6 3 7 3 8 4 6 4 9 4 9 4 6 4 1 4 9 4 1 4 10 4 8 4 11 4 6 4 6 5 11 5 12 5 6 4 12 4 4 4 4 4 12 4 13 4 4 4 13 4 14 4 14 4 15 4 4 4 4 6 15 6 16 6 4 4 16 4 0 4 16 4 17 4 0 4 0 7 17 7 18 7 0 4 18 4 1 4 1 4 18 4 19 4 1 4 19 4 10 4 7 8 5 8 3 8 3 8 5 8 2 8 19 9 20 9 10 9 10 10 20 10 21 10 10 11 21 11 9 11 9 12 21 12 22 12 9 12 22 12 8 12 8 13 22 13 23 13 8 13 23 13 11 13 11 14 23 14 24 14 11 15 24 15 12 15 12 16 24 16 25 16 12 17 25 17 13 17 13 18 25 18 26 18 13 19 26 19 14 19 14 20 26 20 27 20 14 21 27 21 15 21 15 22 27 22 28 22 15 22 28 22 16 22 16 23 28 23 29 23 16 23 29 23 17 23 17 24 29 24 30 24 17 25 30 25 18 25 18 26 30 26 31 26 18 27 31 27 19 27 19 28 31 28 20 28 27 4 26 4 32 4 32 4 26 4 25 4 32 4 25 4 24 4 30 4 29 4 32 4 32 29 29 29 28 29 32 30 28 30 27 30 21 4 20 4 32 4 32 4 20 4 31 4 32 4 31 4 30 4 24 4 23 4 32 4 32 29 23 29 22 29 32 30 22 30 21 30</p>
        </triangles>
      </mesh>
    </geometry>
  </library_geometries>
  <library_visual_scenes>
    <visual_scene id="Scene" name="Scene">
      <node id="node" name="node" type="NODE">
        <matrix sid="transform">0.001 0 0 0 0 0.001 0 0 0 0 0.001 0 0 0 0 1</matrix>
        <instance_geometry url="#shape0-mesh" name="node"/>
      </node>
    </visual_scene>
  </library_visual_scenes>
  <scene>
    <instance_visual_scene url="#Scene"/>
  </scene>
</COLLADA>