<?xml version="1.0" encoding="utf-8"?>
<COLLADA xmlns="http://www.collada.org/2005/11/COLLADASchema" version="1.4.1" xmlns:xsi="http://www.w3.org/2001/XMLSchema-instance">
  <asset>
    <contributor>
      <author>Blender User</author>
      <authoring_tool>Blender 4.3.2 commit date:2024-12-16, commit time:21:10, hash:32f5fdce0a0a</authoring_tool>
    </contributor>
    <created>2024-12-19T15:58:02</created>
    <modified>2024-12-19T15:58:02</modified>
    <unit name="meter" meter="1"/>
    <up_axis>Z_UP</up_axis>
  </asset>
  <library_effects>
    <effect id="BLACK_001-effect">
      <profile_COMMON>
        <technique sid="common">
          <lambert>
            <emission>
              <color sid="emission">0 0 0 1</color>
            </emission>
            <diffuse>
              <color sid="diffuse">0.1087898 0.1087898 0.1087898 1</color>
            </diffuse>
            <index_of_refraction>
              <float sid="ior">1.5</float>
            </index_of_refraction>
          </lambert>
        </technique>
      </profile_COMMON>
    </effect>
  </library_effects>
  <library_images/>
  <library_materials>
    <material id="BLACK_001-material" name="BLACK.001">
      <instance_effect url="#BLACK_001-effect"/>
    </material>
  </library_materials>
  <library_geometries>
    <geometry id="shape0_003-mesh" name="shape0.003">
      <mesh>
        <source id="shape0_003-mesh-positions">
          <float_array id="shape0_003-mesh-positions-array" count="2172">29.8919 2.544201 5 -29.8919 2.544201 5 30 3.8147e-6 5 -30 3.8147e-6 5 29.8919 -2.544197 5 -29.8919 -2.544197 5 29.5685 -5.069996 5 -29.5685 -5.069996 5 29.03201 -7.559296 5 -29.032 -7.559296 5 28.28631 -9.994198 5 -28.2863 -9.994198 5 27.3369 -12.35699 5 -27.3369 -12.35699 5 26.1904 -14.6308 5 -26.1904 -14.6308 5 24.85531 -16.7992 5 -24.8553 -16.7992 5 23.3411 -18.8466 5 -23.3411 -18.8466 5 21.6587 -20.7582 5 -21.6587 -20.7582 5 19.8202 -22.5202 5 -19.8202 -22.5202 5 17.83901 -24.1199 5 -17.83899 -24.1199 5 15.7292 -25.5459 5 -15.7292 -25.5459 5 13.5061 -26.7878 5 -13.5061 -26.7878 5 11.1857 -27.8367 5 -11.1857 -27.8367 5 8.784704 -28.685 5 -8.7847 -28.685 5 6.320404 -29.3267 5 -6.320396 -29.3267 5 3.810501 -29.757 5 -3.810497 -29.757 5 1.273201 -29.973 5 -1.273197 -29.973 5 -29.5685 5.070003 5 29.5685 5.070003 5 -29.032 7.559303 5 29.03201 7.559303 5 -28.2863 9.994202 5 28.28631 9.994202 5 -27.3369 12.35701 5 27.3369 12.35701 5 -26.1904 14.6309 5 26.1904 14.6309 5 -24.8553 16.79921 5 24.85531 16.79921 5 -23.3411 18.8466 5 23.3411 18.8466 5 -21.6587 20.75821 5 21.6587 20.75821 5 -19.8202 22.5202 5 19.8202 22.5202 5 -17.83899 24.1199 5 17.83901 24.1199 5 -15.7292 25.5459 5 15.7292 25.5459 5 -13.5061 26.7878 5 13.5061 26.7878 5 -11.1857 27.8367 5 11.1857 27.8367 5 -8.7847 28.68501 5 8.784704 28.68501 5 -6.320396 29.3267 5 6.320404 29.3267 5 -3.810497 29.75702 5 3.810501 29.75702 5 -1.273197 29.97301 5 1.273201 29.97301 5 -41.60464 51.33 25 -41.60464 51.33 15 -41.5 50 25 -41.5 50 15 -41.60464 48.6703 25 -41.60464 48.6703 15 -41.91601 47.3734 25 -41.91601 47.3734 15 -42.42644 46.1411 25 -42.42644 46.1411 15 -43.12335 45.0038 25 -43.12335 45.0038 15 -43.98958 43.9896 25 -43.98958 43.9896 15 -45.00382 43.1234 25 -45.00382 43.1234 15 -46.14107 42.4264 25 -46.14107 42.4264 15 -47.37335 41.91601 25 -47.37335 41.91601 15 -48.67031 41.6047 25 -48.67031 41.6047 15 -50 41.5 25 -50 41.5 15 -51.32968 41.6047 25 -51.32968 41.6047 15 -52.62664 41.91601 25 -52.62664 41.91601 15 -53.85892 42.4264 25 -53.85892 42.4264 15 -54.99617 43.1234 25 -54.99617 43.1234 15 -56.01041 43.9896 25 -56.01041 43.9896 15 -56.87664 45.0038 25 -56.87664 45.0038 15 -57.57355 46.1411 25 -57.57355 46.1411 15 -58.08398 47.3734 25 -58.08398 47.3734 15 -58.39535 48.6703 25 -58.39535 48.6703 15 -58.5 50 25 -58.5 50 15 -58.39535 51.33 25 -58.39535 51.33 15 -58.08398 52.62701 25 -58.08398 52.62701 15 -57.57355 53.859 25 -57.57355 53.859 15 -56.87664 54.996 25 -56.87664 54.996 15 -56.01041 56.01 25 -56.01041 56.01 15 -54.99617 56.87701 25 -54.99617 56.87701 15 -53.85892 57.57401 25 -53.85892 57.57401 15 -52.62664 58.08401 25 -52.62664 58.08401 15 -51.32968 58.39501 25 -51.32968 58.39501 15 -50 58.5 25 -50 58.5 15 -48.67031 58.39501 25 -48.67031 58.39501 15 -47.37335 58.08401 25 -47.37335 58.08401 15 -46.14107 57.57401 25 -46.14107 57.57401 15 -45.00382 56.87701 25 -45.00382 56.87701 15 -43.98958 56.01 25 -43.98958 56.01 15 -43.12335 54.996 25 -43.12335 54.996 15 -42.42644 53.859 25 -42.42644 53.859 15 -41.91601 52.62701 25 -41.91601 52.62701 15 58.39501 51.33 25 58.39501 51.33 15 58.5 50 25 58.5 50 15 58.39501 48.6703 25 58.39501 48.6703 15 58.08401 47.3734 25 58.08401 47.3734 15 57.57401 46.1411 25 57.57401 46.1411 15 56.87701 45.0038 25 56.87701 45.0038 15 56.01 43.9896 25 56.01 43.9896 15 54.996 43.1234 25 54.996 43.1234 15 53.859 42.4264 25 53.859 42.4264 15 52.62701 41.91601 25 52.62701 41.91601 15 51.33 41.6047 25 51.33 41.6047 15 50 41.5 25 50 41.5 15 48.6703 41.6047 25 48.6703 41.6047 15 47.3734 41.91601 25 47.3734 41.91601 15 46.1411 42.4264 25 46.1411 42.4264 15 45.0038 43.1234 25 45.0038 43.1234 15 43.9896 43.9896 25 43.9896 43.9896 15 43.1234 45.0038 25 43.1234 45.0038 15 42.4264 46.1411 25 42.4264 46.1411 15 41.91601 47.3734 25 41.91601 47.3734 15 41.6047 48.6703 25 41.6047 48.6703 15 41.5 50 25 41.5 50 15 41.6047 51.33 25 41.6047 51.33 15 41.91601 52.62701 25 41.91601 52.62701 15 42.4264 53.859 25 42.4264 53.859 15 43.1234 54.996 25 43.1234 54.996 15 43.9896 56.01 25 43.9896 56.01 15 45.0038 56.87701 25 45.0038 56.87701 15 46.1411 57.57401 25 46.1411 57.57401 15 47.3734 58.08401 25 47.3734 58.08401 15 48.6703 58.39501 25 48.6703 58.39501 15 50 58.5 25 50 58.5 15 51.33 58.39501 25 51.33 58.39501 15 52.62701 58.08401 25 52.62701 58.08401 15 53.859 57.57401 25 53.859 57.57401 15 54.996 56.87701 25 54.996 56.87701 15 56.01 56.01 25 56.01 56.01 15 56.87701 54.996 25 56.87701 54.996 15 57.57401 53.859 25 57.57401 53.859 15 58.08401 52.62701 25 58.08401 52.62701 15 29.8919 -2.544197 25 30 3.8147e-6 25 29.8919 2.544201 25 29.5685 5.070003 25 29.03201 7.559303 25 28.28631 9.994202 25 27.3369 12.35701 25 26.1904 14.6309 25 24.85531 16.79921 25 23.3411 18.8466 25 21.6587 20.75821 25 19.8202 22.5202 25 17.83901 24.1199 25 15.7292 25.5459 25 13.5061 26.7878 25 11.1857 27.8367 25 8.784704 28.68501 25 6.320404 29.3267 25 3.810501 29.75702 25 1.273201 29.97301 25 -1.273197 29.97301 25 -3.810497 29.75702 25 -6.320396 29.3267 25 -8.7847 28.68501 25 -11.1857 27.8367 25 -13.5061 26.7878 25 -15.7292 25.5459 25 -17.83899 24.1199 25 -19.8202 22.5202 25 -21.6587 20.75821 25 -23.3411 18.8466 25 -24.8553 16.79921 25 -26.1904 14.6309 25 -27.3369 12.35701 25 -28.2863 9.994202 25 -29.032 7.559303 25 -29.5685 5.070003 25 -29.8919 2.544201 25 -30 3.8147e-6 25 -29.8919 -2.544197 25 -29.5685 -5.069996 25 -29.032 -7.559296 25 -28.2863 -9.994198 25 -27.3369 -12.35699 25 -26.1904 -14.6308 25 -24.8553 -16.7992 25 -23.3411 -18.8466 25 -21.6587 -20.7582 25 -19.8202 -22.5202 25 -17.83899 -24.1199 25 -15.7292 -25.5459 25 -13.5061 -26.7878 25 -11.1857 -27.8367 25 -8.7847 -28.685 25 -6.320396 -29.3267 25 -3.810497 -29.757 25 -1.273197 -29.973 25 1.273201 -29.973 25 3.810501 -29.757 25 6.320404 -29.3267 25 8.784704 -28.685 25 11.1857 -27.8367 25 13.5061 -26.7878 25 15.7292 -25.5459 25 17.83901 -24.1199 25 19.8202 -22.5202 25 21.6587 -20.7582 25 23.3411 -18.8466 25 24.85531 -16.7992 25 26.1904 -14.6308 25 27.3369 -12.35699 25 28.28631 -9.994198 25 29.03201 -7.559296 25 29.5685 -5.069996 25 -41.60464 -48.67031 25 -41.60464 -48.67031 15 -41.5 -50 25 -41.5 -50 15 -41.60464 -51.32968 25 -41.60464 -51.32968 15 -41.91601 -52.62664 25 -41.91601 -52.62664 15 -42.42644 -53.85892 25 -42.42644 -53.85892 15 -43.12335 -54.99617 25 -43.12335 -54.99617 15 -43.98958 -56.01041 25 -43.98958 -56.01041 15 -45.00382 -56.87664 25 -45.00382 -56.87664 15 -46.14107 -57.57355 25 -46.14107 -57.57355 15 -47.37335 -58.08398 25 -47.37335 -58.08398 15 -48.67031 -58.39535 25 -48.67031 -58.39535 15 -50 -58.5 25 -50 -58.5 15 -51.32968 -58.39535 25 -51.32968 -58.39535 15 -52.62664 -58.08398 25 -52.62664 -58.08398 15 -53.85892 -57.57355 25 -53.85892 -57.57355 15 -54.99617 -56.87664 25 -54.99617 -56.87664 15 -56.01041 -56.01041 25 -56.01041 -56.01041 15 -56.87664 -54.99617 25 -56.87664 -54.99617 15 -57.57355 -53.85892 25 -57.57355 -53.85892 15 -58.08398 -52.62664 25 -58.08398 -52.62664 15 -58.39535 -51.32968 25 -58.39535 -51.32968 15 -58.5 -50 25 -58.5 -50 15 -58.39535 -48.67031 25 -58.39535 -48.67031 15 -58.08398 -47.37335 25 -58.08398 -47.37335 15 -57.57355 -46.14107 25 -57.57355 -46.14107 15 -56.87664 -45.00382 25 -56.87664 -45.00382 15 -56.01041 -43.98958 25 -56.01041 -43.98958 15 -54.99617 -43.12335 25 -54.99617 -43.12335 15 -53.85892 -42.42644 25 -53.85892 -42.42644 15 -52.62664 -41.91601 25 -52.62664 -41.91601 15 -51.32968 -41.60464 25 -51.32968 -41.60464 15 -50 -41.5 25 -50 -41.5 15 -48.67031 -41.60464 25 -48.67031 -41.60464 15 -47.37335 -41.91601 25 -47.37335 -41.91601 15 -46.14107 -42.42644 25 -46.14107 -42.42644 15 -45.00382 -43.12335 25 -45.00382 -43.12335 15 -43.98958 -43.98958 25 -43.98958 -43.98958 15 -43.12335 -45.00382 25 -43.12335 -45.00382 15 -42.42644 -46.14107 25 -42.42644 -46.14107 15 -41.91601 -47.37335 25 -41.91601 -47.37335 15 58.39501 -48.67031 25 58.39501 -48.67031 15 58.5 -50 25 58.5 -50 15 58.39501 -51.32968 25 58.39501 -51.32968 15 58.08401 -52.62664 25 58.08401 -52.62664 15 57.57401 -53.85892 25 57.57401 -53.85892 15 56.87701 -54.99617 25 56.87701 -54.99617 15 56.01 -56.01041 25 56.01 -56.01041 15 54.996 -56.87664 25 54.996 -56.87664 15 53.859 -57.57355 25 53.859 -57.57355 15 52.62701 -58.08398 25 52.62701 -58.08398 15 51.33 -58.39535 25 51.33 -58.39535 15 50 -58.5 25 50 -58.5 15 48.6703 -58.39535 25 48.6703 -58.39535 15 47.3734 -58.08398 25 47.3734 -58.08398 15 46.1411 -57.57355 25 46.1411 -57.57355 15 45.0038 -56.87664 25 45.0038 -56.87664 15 43.9896 -56.01041 25 43.9896 -56.01041 15 43.1234 -54.99617 25 43.1234 -54.99617 15 42.4264 -53.85892 25 42.4264 -53.85892 15 41.91601 -52.62664 25 41.91601 -52.62664 15 41.6047 -51.32968 25 41.6047 -51.32968 15 41.5 -50 25 41.5 -50 15 41.6047 -48.67031 25 41.6047 -48.67031 15 41.91601 -47.37335 25 41.91601 -47.37335 15 42.4264 -46.14107 25 42.4264 -46.14107 15 43.1234 -45.00382 25 43.1234 -45.00382 15 43.9896 -43.98958 25 43.9896 -43.98958 15 45.0038 -43.12335 25 45.0038 -43.12335 15 46.1411 -42.42644 25 46.1411 -42.42644 15 47.3734 -41.91601 25 47.3734 -41.91601 15 48.6703 -41.60464 25 48.6703 -41.60464 15 50 -41.5 25 50 -41.5 15 51.33 -41.60464 25 51.33 -41.60464 15 52.62701 -41.91601 25 52.62701 -41.91601 15 53.859 -42.42644 25 53.859 -42.42644 15 54.996 -43.12335 25 54.996 -43.12335 15 56.01 -43.98958 25 56.01 -43.98958 15 56.87701 -45.00382 25 56.87701 -45.00382 15 57.57401 -46.14107 25 57.57401 -46.14107 15 58.08401 -47.37335 25 58.08401 -47.37335 15 60 -60 25 -60 -60 25 60 60 25 -60 60 25 54.97401 -49.49415 15 54.97401 -50.50584 15 54.77101 -51.49681 15 54.372 -52.4265 15 53.79401 -53.25685 15 53.06101 -53.95388 15 52.20201 -54.48902 15 51.25301 -54.84038 15 50.25301 -54.99357 15 49.2429 -54.94234 15 48.2635 -54.68875 15 47.3552 -54.24322 15 46.5552 -53.62395 15 45.8962 -52.85633 15 45.4052 -51.97177 15 45.1023 -51.00648 15 45 -50 15 45.1023 -48.99351 15 45.4052 -48.02822 15 45.8962 -47.14366 15 46.5552 -46.37604 15 47.3552 -45.75677 15 48.2635 -45.31124 15 49.2429 -45.05765 15 50.25301 -45.00642 15 51.25301 -45.15961 15 52.20201 -45.51097 15 53.06101 -46.04611 15 53.79401 -46.74314 15 54.372 -47.57349 15 54.77101 -48.50318 15 -54.89764 -48.99351 15 -55 -50 15 -54.59479 -48.02822 15 -54.10382 -47.14366 15 -53.44482 -46.37604 15 -52.64482 -45.75677 15 -51.73653 -45.31124 15 -50.75713 -45.05765 15 -49.74675 -45.00642 15 -48.74673 -45.15961 15 -47.79803 -45.51097 15 -46.93946 -46.04611 15 -46.20621 -46.74314 15 -45.62826 -47.57349 15 -45.2293 -48.50318 15 -45.02565 -49.49415 15 -45.02565 -50.50584 15 -45.2293 -51.49681 15 -45.62826 -52.4265 15 -46.20621 -53.25685 15 -46.93946 -53.95388 15 -47.79803 -54.48902 15 -48.74673 -54.84038 15 -49.74675 -54.99357 15 -50.75713 -54.94234 15 -51.73653 -54.68875 15 -52.64482 -54.24322 15 -53.44482 -53.62395 15 -54.10382 -52.85633 15 -54.59479 -51.97177 15 -54.89764 -51.00648 15 45.1023 51.00601 15 45 50 15 45.4052 51.97201 15 45.8962 52.85601 15 46.5552 53.62401 15 47.3552 54.24301 15 48.2635 54.68901 15 49.2429 54.942 15 50.25301 54.99401 15 51.25301 54.84 15 52.20201 54.48901 15 53.06101 53.95401 15 53.79401 53.25701 15 54.372 52.427 15 54.77101 51.497 15 54.97401 50.50601 15 54.97401 49.4942 15 54.77101 48.5032 15 54.372 47.5735 15 53.79401 46.7431 15 53.06101 46.0461 15 52.20201 45.511 15 51.25301 45.1596 15 50.25301 45.0064 15 49.2429 45.0577 15 48.2635 45.3112 15 47.3552 45.7568 15 46.5552 46.37601 15 45.8962 47.1437 15 45.4052 48.0282 15 45.1023 48.9935 15 -54.89764 48.9935 15 -54.89764 48.9935 0 -55 50 15 -55 50 0 -54.89764 51.00601 15 -54.89764 51.00601 0 -54.59479 51.97201 15 -54.59479 51.97201 0 -54.10382 52.85601 15 -54.10382 52.85601 0 -53.44482 53.62401 15 -53.44482 53.62401 0 -52.64482 54.24301 15 -52.64482 54.24301 0 -51.73653 54.68901 15 -51.73653 54.68901 0 -50.75713 54.942 15 -50.75713 54.942 0 -49.74675 54.99401 15 -49.74675 54.99401 0 -48.74673 54.84 15 -48.74673 54.84 0 -47.79803 54.48901 15 -47.79803 54.48901 0 -46.93946 53.95401 15 -46.93946 53.95401 0 -46.20621 53.25701 15 -46.20621 53.25701 0 -45.62826 52.427 15 -45.62826 52.427 0 -45.2293 51.497 15 -45.2293 51.497 0 -45.02565 50.50601 15 -45.02565 50.50601 0 -45.02565 49.4942 15 -45.02565 49.4942 0 -45.2293 48.5032 15 -45.2293 48.5032 0 -45.62826 47.5735 15 -45.62826 47.5735 0 -46.20621 46.7431 15 -46.20621 46.7431 0 -46.93946 46.0461 15 -46.93946 46.0461 0 -47.79803 45.511 15 -47.79803 45.511 0 -48.74673 45.1596 15 -48.74673 45.1596 0 -49.74675 45.0064 15 -49.74675 45.0064 0 -50.75713 45.0577 15 -50.75713 45.0577 0 -51.73653 45.3112 15 -51.73653 45.3112 0 -52.64482 45.7568 15 -52.64482 45.7568 0 -53.44482 46.37601 15 -53.44482 46.37601 0 -54.10382 47.1437 15 -54.10382 47.1437 0 -54.59479 48.0282 15 -54.59479 48.0282 0 45.1023 -51.00648 0 45 -50 0 45.1023 -48.99351 0 45.4052 -48.02822 0 45.8962 -47.14366 0 46.5552 -46.37604 0 47.3552 -45.75677 0 48.2635 -45.31124 0 49.2429 -45.05765 0 50.25301 -45.00642 0 51.25301 -45.15961 0 52.20201 -45.51097 0 53.06101 -46.04611 0 53.79401 -46.74314 0 54.372 -47.57349 0 54.77101 -48.50318 0 54.97401 -49.49415 0 54.97401 -50.50584 0 54.77101 -51.49681 0 54.372 -52.4265 0 53.79401 -53.25685 0 53.06101 -53.95388 0 52.20201 -54.48902 0 51.25301 -54.84038 0 50.25301 -54.99357 0 49.2429 -54.94234 0 48.2635 -54.68875 0 47.3552 -54.24322 0 46.5552 -53.62395 0 45.8962 -52.85633 0 45.4052 -51.97177 0 -54.89764 -51.00648 0 -55 -50 0 -54.89764 -48.99351 0 -54.59479 -48.02822 0 -54.10382 -47.14366 0 -53.44482 -46.37604 0 -52.64482 -45.75677 0 -51.73653 -45.31124 0 -50.75713 -45.05765 0 -49.74675 -45.00642 0 -48.74673 -45.15961 0 -47.79803 -45.51097 0 -46.93946 -46.04611 0 -46.20621 -46.74314 0 -45.62826 -47.57349 0 -45.2293 -48.50318 0 -45.02565 -49.49415 0 -45.02565 -50.50584 0 -45.2293 -51.49681 0 -45.62826 -52.4265 0 -46.20621 -53.25685 0 -46.93946 -53.95388 0 -47.79803 -54.48902 0 -48.74673 -54.84038 0 -49.74675 -54.99357 0 -50.75713 -54.94234 0 -51.73653 -54.68875 0 -52.64482 -54.24322 0 -53.44482 -53.62395 0 -54.10382 -52.85633 0 -54.59479 -51.97177 0 45.1023 48.9935 0 45 50 0 45.1023 51.00601 0 45.4052 51.97201 0 45.8962 52.85601 0 46.5552 53.62401 0 47.3552 54.24301 0 48.2635 54.68901 0 49.2429 54.942 0 50.25301 54.99401 0 51.25301 54.84 0 52.20201 54.48901 0 53.06101 53.95401 0 53.79401 53.25701 0 54.372 52.427 0 54.77101 51.497 0 54.97401 50.50601 0 54.97401 49.4942 0 54.77101 48.5032 0 54.372 47.5735 0 53.79401 46.7431 0 53.06101 46.0461 0 52.20201 45.511 0 51.25301 45.1596 0 50.25301 45.0064 0 49.2429 45.0577 0 48.2635 45.3112 0 47.3552 45.7568 0 46.5552 46.37601 0 45.8962 47.1437 0 45.4052 48.0282 0 -60 60 0 -60 -60 0 60 60 0 60 -60 0</float_array>
          <technique_common>
            <accessor source="#shape0_003-mesh-positions-array" count="724" stride="3">
              <param name="X" type="float"/>
              <param name="Y" type="float"/>
              <param name="Z" type="float"/>
            </accessor>
          </technique_common>
        </source>
        <source id="shape0_003-mesh-normals">
          <float_array id="shape0_003-mesh-normals-array" count="2283">0 0 1 -0.9969195 -0.07843345 0 -0.9969181 0.07845085 0 -0.972369 0.2334498 0 -0.9723668 0.2334584 0 -0.9238823 0.3826767 0 -0.9238807 0.3826806 0 -0.8526468 0.5224878 0 -0.8526509 0.5224812 0 -0.760399 0.6494562 0 -0.6494295 0.7604219 0 -0.5225482 0.8526098 0 -0.3826602 0.9238893 0 -0.2334018 0.9723804 0 -0.2334008 0.9723806 0 -0.07849597 0.9969145 0 -0.07849526 0.9969145 0 0.07849633 0.9969145 0 0.07849705 0.9969144 0 0.2334008 0.9723806 0 0.2333987 0.9723812 0 0.3826617 0.9238886 0 0.5225462 0.8526111 0 0.5225502 0.8526085 0 0.6494272 0.7604238 0 0.7603968 0.6494589 0 0.7604013 0.6494536 0 0.852653 0.5224779 0 0.8526489 0.5224846 0 0.9238823 0.3826767 0 0.9238792 0.3826845 0 0.972369 0.2334498 0 0.9723668 0.2334584 0 0.9969174 0.07845997 0 0.9969187 -0.07844251 0 0.9723714 -0.2334396 0 0.9723734 -0.2334309 0 0.9238452 -0.3827665 0 0.9238484 -0.3827586 0 0.8525879 -0.5225839 0 0.852592 -0.5225772 0 0.7603362 -0.6495299 0 0.7603317 -0.6495352 0 0.6497793 -0.760123 0 0.5225502 -0.8526085 0 0.5225462 -0.8526111 0 0.3824102 -0.9239926 0 0.2331797 -0.9724338 0 0.2331817 -0.9724332 0 0.07871592 -0.9968972 0 0.0787152 -0.9968972 0 -0.07871413 -0.9968973 0 -0.07871484 -0.9968972 0 -0.2331817 -0.9724332 0 -0.2331828 -0.972433 0 -0.3824086 -0.9239934 0 -0.5225482 -0.8526098 0 -0.6497815 -0.7601211 0 -0.7603338 -0.6495325 0 -0.85259 -0.5225806 0 -0.8525859 -0.5225872 0 -0.9238469 -0.3827626 0 -0.9238484 -0.3827586 0 -0.9723714 -0.2334396 0 -0.9723734 -0.2334309 0 -0.9968987 -0.07869714 0 -0.9968972 0.0787146 0 -0.9724312 0.2331901 0 -0.9239956 0.3824033 0 -0.8526203 0.5225311 0 -0.8526163 0.5225377 0 -0.7601121 0.6497921 0 -0.7601076 0.6497974 0 -0.760419 0.649433 0 -0.760419 0.649433 0 -0.6495176 0.7603466 0 -0.6495221 0.7603427 0 -0.5226318 0.8525586 0 -0.3827362 0.9238578 0 -0.2333925 0.9723826 0 -0.07847803 0.9969159 0 -0.07847732 0.9969159 0 0.07849526 0.9969145 0 0.2334112 0.9723781 0 0.2334101 0.9723784 0 0.3826553 0.9238913 0 0.5225319 0.8526198 0 0.649443 0.7604104 0 0.7604081 0.6494457 0 0.7604126 0.6494404 0 0.8526203 0.5225311 0 0.8526183 0.5225344 0 0.9238921 0.3826533 0 0.9723772 0.2334151 0 0.9723793 0.2334065 0 0.9969144 0.07849633 0 0.9969158 -0.07847887 0 0.9723839 -0.2333877 0 0.9723817 -0.2333963 0 0.9238582 -0.3827352 0 0.8525573 -0.5226338 0 0.8525594 -0.5226305 0 0.7603475 -0.6495167 0 0.760343 -0.649522 0 0.6497951 -0.7601094 0 0.6494307 -0.7604209 0 0.6494307 -0.7604209 1.58682e-7 0.6494307 -0.7604209 0 0.5225319 -0.8526198 0 0.3829352 -0.9237752 0 0.3828467 -0.9238119 0 0.3829352 -0.9237752 0 0.3828467 -0.9238119 0 0.3829352 -0.9237752 0 0.3829352 -0.9237752 0 0.2331911 -0.972431 0 0.2331921 -0.9724308 0 0.07871413 -0.9968973 0 0.07837957 -0.9969236 0 0.07837957 -0.9969236 3.99178e-7 0.07837957 -0.9969236 0 -0.07869613 -0.9968987 0 -0.07821899 -0.9969362 0 -0.07821899 -0.9969362 0 -0.07821899 -0.9969362 0 -0.2331734 -0.9724352 0 -0.3824846 -0.9239619 0 -0.5226318 -0.8525586 0 -0.6498742 -0.7600418 0 -0.6498696 -0.7600457 0 -0.7600423 -0.6498736 0 -0.7603583 -0.649504 0 -0.7600468 -0.6498683 0 -0.8525553 -0.5226371 0 -0.8525594 -0.5226305 0 -0.923668 -0.3831937 0 -0.9236313 -0.3832823 0 -0.923668 -0.3831937 -1.00329e-6 -0.9236129 -0.3833265 0 -0.923668 -0.3831937 0 -0.923668 -0.3831937 0 -0.9724357 -0.2331713 0 -0.9990987 0.04245018 0 -0.9990986 -0.04245024 0 -0.9919022 -0.1270044 0 -0.9919028 -0.1269997 0 -0.9775552 -0.2106799 0 -0.9775547 -0.2106822 0 -0.9561648 -0.2928291 0 -0.9561641 -0.2928313 0 -0.9278946 -0.3728429 0 -0.9278954 -0.3728408 0 -0.8929209 -0.4502136 0 -0.8929219 -0.4502119 0 -0.8515279 -0.5243095 0 -0.8515273 -0.5243103 0 -0.8040033 -0.5946249 0 -0.8040027 -0.5946257 0 -0.7506783 -0.660668 0 -0.7506777 -0.6606686 0 -0.6919243 -0.72197 0 -0.6919249 -0.7219694 0 -0.6282206 -0.7780352 0 -0.5599789 -0.8285069 0 -0.4876956 -0.8730139 0 -0.4876967 -0.8730133 0 -0.4119049 -0.9112268 0 -0.3331342 -0.9428795 0 -0.3331345 -0.9428794 0 -0.2519919 -0.9677294 0 -0.1689828 -0.9856191 0 -0.08481913 -0.9963964 0 0 -1 0 0.08481919 -0.9963964 0 0.08481919 -0.9963964 0 0.168983 -0.985619 0 0.2519916 -0.9677295 0 0.2519915 -0.9677295 0 0.333134 -0.9428795 0 0.3331338 -0.9428796 0 0.4119049 -0.9112268 0 0.4876967 -0.8730133 0 0.4876956 -0.8730139 0 0.5599828 -0.8285043 0 0.6282171 -0.7780381 0 0.628216 -0.7780391 0 0.6919249 -0.7219694 0 0.6919243 -0.72197 0 0.7506777 -0.6606686 0 0.7506783 -0.660668 0 0.804005 -0.5946226 0 0.8040044 -0.5946233 0 0.8515257 -0.524313 0 0.8515263 -0.524312 0 0.8929219 -0.4502118 0 0.8929209 -0.4502137 0 0.9278963 -0.3728387 0 0.927897 -0.3728367 0 0.9561641 -0.2928313 0 0.9561641 -0.2928313 0 0.9775542 -0.2106845 0 0.9919028 -0.1269997 0 0.9919022 -0.1270044 0 0.9990986 -0.04245024 0 0.9990987 0.04245018 0 0.9919022 0.1270046 0 0.9919028 0.1269999 0 0.9775542 0.2106844 0 0.9775542 0.2106844 0 0.9561643 0.292831 0 0.9561643 0.292831 0 0.9278962 0.3728389 0 0.9278954 0.3728409 0 0.8929145 0.4502264 0 0.8929155 0.4502243 0 0.851536 0.5242962 0 0.8515355 0.5242971 0 0.8040058 0.5946215 0 0.8040063 0.5946207 0 0.7506767 0.6606698 0 0.750676 0.6606705 0 0.6919264 0.7219682 0 0.691927 0.7219675 0 0.628216 0.7780391 0 0.6282171 0.7780381 0 0.5599828 0.8285043 0 0.4876956 0.8730139 0 0.4876967 0.8730133 0 0.4119049 0.9112268 0 0.3331311 0.9428806 0 0.3331313 0.9428805 0 0.2519943 0.9677288 0 0.2519944 0.9677288 0 0.1689765 0.9856202 0 0.08482289 0.9963961 0 0.08482289 0.9963961 0 0 1 0 -0.08482289 0.9963961 0 -0.1689762 0.9856202 0 -0.2519947 0.9677286 0 -0.3331319 0.9428802 0 -0.3331316 0.9428805 0 -0.4119049 0.9112268 0 -0.4876967 0.8730133 0 -0.4876956 0.8730139 0 -0.5599789 0.8285069 0 -0.6282206 0.7780352 0 -0.691927 0.7219676 0 -0.6919264 0.7219681 0 -0.750676 0.6606705 0 -0.7506766 0.6606699 0 -0.8040041 0.5946239 0 -0.8040047 0.5946231 0 -0.8515371 0.5242944 0 -0.8515376 0.5242936 0 -0.8929155 0.4502245 0 -0.8929146 0.4502263 0 -0.9278945 0.372843 0 -0.9278936 0.372845 0 -0.9561643 0.292831 0 -0.956165 0.2928288 0 -0.9775546 0.2106821 0 -0.9775551 0.2106798 0 -0.9919028 0.1269999 0 -0.9919022 0.1270046 0 -0.996918 -0.07845133 0 -0.996918 0.07845222 0 -0.9723714 0.2334393 0 -0.9723693 0.233448 0 -0.9238799 0.3826828 0 -0.9238783 0.3826867 0 -0.8526374 0.5225031 0 -0.8526415 0.5224965 0 -0.7604111 0.6494421 0 -0.6494427 0.7604106 0 -0.5224983 0.8526404 0 -0.3826845 0.9238791 0 -0.2334451 0.97237 0 -0.233444 0.9723703 0 -0.07846188 0.9969171 0 -0.07846111 0.9969172 0 0.07846224 0.9969171 0 0.07846295 0.9969171 0 0.233444 0.9723703 0 0.233442 0.9723708 0 0.3826861 0.9238784 0 0.5224962 0.8526416 0 0.5225003 0.8526391 0 0.6494405 0.7604125 0 0.7604088 0.6494447 0 0.7604134 0.6494395 0 0.8526435 0.5224931 0 0.8526394 0.5224998 0 0.9238799 0.3826828 0 0.9238766 0.3826906 0 0.9723714 0.2334393 0 0.9723693 0.233448 0 0.9969173 0.07846128 0 0.9969173 -0.07846039 0 0.9723691 -0.2334486 0 0.9723713 -0.23344 0 0.9238771 -0.3826896 0 0.9238802 -0.3826818 0 0.8526387 -0.5225011 0 0.8526428 -0.5224944 0 0.7604134 -0.6494395 0 0.7604088 -0.6494447 0 0.6494405 -0.7604125 0 0.5225024 -0.8526378 0 0.5224984 -0.8526404 0 0.3826861 -0.9238784 0 0.233442 -0.9723708 0 0.233444 -0.9723703 0 0.07845157 -0.996918 0 0.07845085 -0.996918 0 -0.07844978 -0.9969181 0 -0.0784505 -0.996918 0 -0.233444 -0.9723703 0 -0.2334451 -0.97237 0 -0.3826845 -0.9238791 0 -0.5225004 -0.8526391 0 -0.6494427 -0.7604106 0 -0.7604111 -0.6494421 0 -0.8526408 -0.5224978 0 -0.8526367 -0.5225044 0 -0.9238786 -0.3826857 0 -0.9238802 -0.3826818 0 -0.9723691 -0.2334486 0 -0.9723713 -0.23344 0 -0.9969499 -0.07804602 0 -0.9969499 -0.07804602 0 -0.9969499 -0.07804602 0 -0.9968972 -0.07871508 0 -0.9968971 0.07871598 0 -0.9969423 0.07814246 0 -0.9969422 0.07814246 0 -0.9969422 0.07814246 0 -0.9724338 0.2331798 0 -0.9722993 0.2337391 0 -0.9722993 0.2337391 5.95156e-7 -0.9722993 0.2337391 0 -0.9239931 0.3824093 0 -0.8526109 0.5225464 0 -0.8526068 0.522553 0 -0.7604355 0.6494135 0 -0.7604355 0.6494135 0 -0.7604355 0.6494135 0 -0.7601196 0.6497833 0 -0.6495309 0.7603353 0 -0.6495354 0.7603315 0 -0.5225819 0.8525891 0 -0.3827606 0.9238477 0 -0.2334358 0.9723723 0 -0.07844394 0.9969186 0 -0.07844322 0.9969187 0 0.07846111 0.9969172 0 0.2334545 0.9723678 0 0.2334534 0.9723681 0 0.3826797 0.9238811 0 0.522482 0.8526504 0 0.6494563 0.760399 0 0.7604202 0.6494315 0 0.7604247 0.6494262 0 0.8526109 0.5225464 0 0.8526089 0.5225497 0 0.9238895 0.3826593 0 0.9723798 0.2334048 0 0.9723818 0.2333961 0 0.9969144 0.0784977 0 0.9969145 -0.07849681 0 0.9723816 -0.2333967 0 0.9723796 -0.2334054 0 0.92389 -0.3826584 0 0.8526081 -0.522551 0 0.8526101 -0.5225476 0 0.7604247 -0.6494262 0 0.7604202 -0.6494315 0 0.6494563 -0.760399 0 0.5224841 -0.8526491 0 0.3826797 -0.9238811 0 0.2334534 -0.9723681 0 0.2334545 -0.9723678 0 0.07844978 -0.9969181 0 -0.0784319 -0.9969196 0 -0.07843261 -0.9969195 0 -0.2334358 -0.9723723 0 -0.3827606 -0.9238477 0 -0.522584 -0.8525879 0 -0.6495354 -0.7603315 0 -0.6495309 -0.7603353 0 -0.7601196 -0.6497833 0 -0.7604355 -0.6494135 0 -0.7604355 -0.6494135 0 -0.7604355 -0.6494135 0 -0.8526061 -0.5225543 0 -0.8526101 -0.5225476 0 -0.9239935 -0.3824083 0 -0.9724335 -0.2331804 0 3.23065e-5 0 1 -2.506e-6 0 1 -1.59675e-6 0 1 1.01646e-6 0 1 -2.03404e-6 0 1 -1.75654e-6 0 1 1.29737e-6 0 1 1.65412e-6 0 1 -2.94098e-6 0 1 1.58814e-6 0 1 1.84868e-7 0 1 -5.3691e-7 0 1 -1.05829e-6 0 1 1.50619e-6 0 1 -5.27253e-7 0 1 -5.28463e-7 0 1 -1.49189e-6 0 1 5.30923e-7 0 1 5.3346e-7 0 1 -1.9651e-6 0 1 1.4817e-6 0 1 -2.51644e-6 0 1 1.45384e-6 0 1 -1.11316e-6 0 1 1.15508e-6 0 1 -1.50296e-6 0 1 -4.13506e-7 0 1 -1.86971e-6 0 1 8.26991e-7 0 1 1.50291e-6 0 1 1.15511e-6 0 1 -1.11312e-6 0 1 -1.45389e-6 0 1 1.48216e-6 0 1 -7.19001e-7 0 1 1.07182e-6 0 1 -1.48407e-6 0 1 1.95606e-6 0 1 -5.30932e-7 0 1 1.4092e-6 0 1 1.76388e-7 0 1 -8.94845e-7 0 1 2.40269e-6 0 1 -7.84226e-7 0 1 1.94667e-6 0 1 -1.94672e-6 0 1 7.84251e-7 0 1 -2.40262e-6 0 1 8.94875e-7 0 1 -1.76383e-7 0 1 -1.40926e-6 0 1 1.49188e-6 0 1 5.30922e-7 0 1 -1.95602e-6 0 1 1.48407e-6 0 1 -1.07185e-6 0 1 7.1901e-7 0 1 -1.48216e-6 0 1 1.45384e-6 0 1 1.11313e-6 0 1 -1.15541e-6 0 1 -1.50297e-6 0 1 -8.26735e-7 0 1 -1.86971e-6 0 1 4.13377e-7 0 1 1.50302e-6 0 1 -1.15537e-6 0 1 1.11317e-6 0 1 -1.45379e-6 0 1 2.51648e-6 0 1 -1.4817e-6 0 1 1.96515e-6 0 1 -5.33449e-7 0 1 -5.30913e-7 0 1 5.28487e-7 0 1 5.27244e-7 0 1 -1.50619e-6 0 1 1.05826e-6 0 1 5.36928e-7 0 1 -1.84862e-7 0 1 -1.58814e-6 0 1 2.94109e-6 0 1 -1.65413e-6 0 1 -1.29739e-6 0 1 1.75654e-6 0 1 -1.63383e-6 0 1 5.21679e-6 0 1 -6.40125e-6 0 1 1.27095e-6 0 1 -5.33768e-6 0 1 1.03749e-5 0 1 -4.57883e-6 0 1 9.57675e-6 0 1 -1.26761e-6 0 1 -1.01694e-6 0 1 1.59583e-6 0 1 2.5088e-6 0 1 2.53576e-6 0 1 2.41432e-5 0 1 -1.61101e-5 0 1 4.57497e-6 0 1 5.33839e-6 0 1 -1.2721e-6 0 1 6.40703e-6 0 1 -5.21554e-6 0 1 1.63346e-6 0 1 -2.423e-5 0 1 1.08393e-6 0 1 -2.03308e-6 0 1 1.01655e-6 0 1 2.16787e-6 0 1 1.24584e-6 0 1 -2.16787e-6 0 1 -1.01703e-6 0 1 2.03291e-6 0 1 -1.08384e-6 0 1 0.9948685 0.101177 0 0.9948635 -0.101226 0 0.9542058 -0.2991508 0 0.9542036 -0.2991582 0 0.8742186 -0.4855328 0 0.8742151 -0.4855389 0 0.7585358 -0.6516315 0 0.7585982 -0.6515588 0 0.7585358 -0.6516315 0 0.7585942 -0.6515635 0 0.7585943 -0.6515635 0 0.7585943 -0.6515635 0 0.6119535 -0.7908937 0 0.6119497 -0.7908968 0 0.4403337 -0.8978343 0 0.4403337 -0.8978343 0 0.4403337 -0.8978343 0 0.4399893 -0.8980031 0 0.4403337 -0.8978343 2.07943e-7 0.4403337 -0.8978343 0 0.2506625 -0.9680746 0 0.2506625 -0.9680746 0 0.2506625 -0.9680746 0 0.2504304 -0.9681347 0 0.2504304 -0.9681347 0 0.2504304 -0.9681347 0 0.05054146 -0.9987221 0 0.05054146 -0.9987221 0 0.05054146 -0.9987221 0 0.05049401 -0.9987245 0 0.05049401 -0.9987245 2.55675e-7 0.05049395 -0.9987245 0 -0.1514506 -0.9884649 0 -0.1514506 -0.9884649 0 -0.1514506 -0.9884649 -2.18414e-7 -0.15221 -0.9883482 0 -0.346982 -0.9378718 0 -0.3469846 -0.9378709 0 -0.5288569 -0.8487111 0 -0.6889641 -0.7247956 0 -0.6889681 -0.7247918 0 -0.8206461 -0.5714368 0 -0.8206499 -0.5714314 0 -0.9190066 -0.3942422 0 -0.9190038 -0.394249 0 -0.9795316 -0.2012904 0 -1 0 0 -0.9795318 0.2012897 0 -0.918958 0.3943555 0 -0.9189609 0.3943487 0 -0.8207767 0.5712493 0 -0.820773 0.5712547 0 -0.6889661 0.7247936 0 -0.6889621 0.7247974 0 -0.5289275 0.8486671 0 -0.3473427 0.9377382 0 -0.3473402 0.9377393 0 -0.1514328 0.9884676 0 -0.1514316 0.9884678 0 0.05070787 0.9987136 0 0.05070745 0.9987136 0 0.2505756 0.968097 0 0.440445 0.8977797 0 0.6120794 0.7907964 0 0.6120833 0.7907934 0 0.7587786 0.6513488 0 0.7587825 0.6513441 0 0.8743307 0.4853308 0 0.874334 0.4853247 0 0.9541419 0.2993552 0 0.9541441 0.2993478 0 0.994874 0.1011236 0 0.9948747 0.1011157 0 0.9948748 -0.1011141 0 0.9948741 -0.1011221 0 0.9541293 -0.299395 0 0.8743347 -0.4853237 0 0.8743311 -0.4853298 0 0.7587482 -0.6513841 0 0.612121 -0.7907642 0 0.6121249 -0.7907612 0 0.4403807 -0.8978112 0 0.4403839 -0.8978096 0 0.2506589 -0.9680755 0 0.05064904 -0.9987165 0 0.05064988 -0.9987165 0 -0.1514241 -0.9884689 0 -0.3472087 -0.937788 0 -0.3472061 -0.9377889 0 -0.528766 -0.8487677 0 -0.6890985 -0.7246678 0 -0.688751 -0.724998 0 -0.6891025 -0.724664 0 -0.8207393 -0.571303 0 -0.8207432 -0.5712976 0 -0.918944 -0.3943882 0 -0.9189381 -0.3944017 0 -0.9795885 -0.2010138 0 -0.9795885 -0.2010138 0 -0.9795885 -0.2010138 0 -0.9794727 -0.2015773 0 -0.9794727 -0.2015773 0 -0.9794727 -0.2015773 0 -0.9794822 0.2015311 0 -0.9794822 0.2015311 0 -0.9794822 0.2015311 0 -0.9796557 0.2006858 0 -0.9189388 0.3944004 0 -0.9189445 0.3943868 0 -0.8207418 0.5712993 0 -0.820738 0.5713047 0 -0.6891044 0.7246621 0 -0.688753 0.7249962 0 -0.6891004 0.7246659 0 -0.5287634 0.8487694 0 -0.3472094 0.9377877 0 -0.347212 0.9377868 0 -0.1514241 0.9884689 0 0.05065363 0.9987164 0 0.0506528 0.9987164 0 0.2506589 0.9680755 0 0.4403839 0.8978096 0 0.4403807 0.8978112 0 0.6121249 0.7907612 0 0.612121 0.7907642 0 0.7587482 0.6513841 0 0.8743311 0.4853298 0 0.8743347 0.4853237 0 0.9541293 0.299395 0 0.9948682 0.1011793 0 0.9948683 -0.1011778 0 0.9541431 -0.299351 0 0.9541408 -0.2993584 0 0.8743482 -0.4852991 0 0.8743449 -0.4853052 0 0.7587521 -0.6513795 0 0.6121171 -0.7907671 0 0.4403903 -0.8978065 0 0.2506569 -0.9680761 0 0.05063605 -0.9987173 0 0.05063641 -0.9987171 0 -0.1514205 -0.9884694 0 -0.1514217 -0.9884693 0 -0.3473004 -0.937754 0 -0.347303 -0.937753 0 -0.5289574 -0.8486485 0 -0.6889779 -0.7247824 0 -0.688982 -0.7247785 0 -0.8207582 -0.5712759 0 -0.8207619 -0.5712705 0 -0.9189586 -0.3943542 0 -0.9189557 -0.394361 0 -0.9795307 -0.2012949 0 -0.9795306 0.2012956 0 -0.9189562 0.3943596 0 -0.9189591 0.3943528 0 -0.8207607 0.5712723 0 -0.820757 0.5712777 0 -0.6889839 0.7247767 0 -0.6889799 0.7247805 0 -0.5289546 0.8486501 0 -0.3473063 0.9377518 0 -0.3473037 0.9377527 0 -0.1514217 0.9884693 0 -0.1514205 0.9884694 0 0.05064016 0.998717 0 0.0506398 0.998717 0 0.2506569 0.9680761 0 0.4403903 0.8978065 0 0.6121171 0.7907671 0 0.7587521 0.6513795 0 0.8743449 0.4853052 0 0.8743482 0.4852991 0 0.9541408 0.2993584 0 0.9541431 0.299351 0 0.9948742 0.1011213 0 0.994875 0.1011134 0 0.99487 -0.1011623 0 0.9948692 -0.1011703 0 0.9541921 -0.2991948 0 0.8744376 -0.4851382 0 0.8744375 -0.4851382 0 0.8744376 -0.4851382 0 0.8745271 -0.4849767 0 0.8745272 -0.4849767 0 0.8745272 -0.4849767 0 0.7589066 -0.6511997 0 0.6124123 -0.7905386 0 0.6124881 -0.7904798 0 0.6124881 -0.7904798 0 0.4407544 -0.8976277 0 0.4407576 -0.8976262 0 0.25085 -0.9680261 0 0.2505716 -0.9680982 0 0.25085 -0.9680261 0 0.2501075 -0.9682182 0 0.05093765 -0.9987019 0 0.05093765 -0.9987019 0 0.05093765 -0.9987019 0 0.05065125 -0.9987165 0 0.05065125 -0.9987165 0 0.05065125 -0.9987165 0 -0.1513595 -0.9884788 0 -0.1513595 -0.9884788 0 -0.1513595 -0.9884788 0 -0.1513595 -0.9884788 0 -0.1513595 -0.9884788 0 -0.1513595 -0.9884788 0 -0.3468904 -0.9379057 0 -0.3472051 -0.9377893 0 -0.3468878 -0.9379067 0 -0.5286656 -0.8488303 0 -0.6890846 -0.724681 0 -0.6890886 -0.7246772 0 -0.8206273 -0.5714639 0 -0.820631 -0.5714585 0 -0.9189921 -0.3942762 0 -0.9189862 -0.3942897 0 -0.9795411 -0.2012441 0 -0.9795411 -0.2012441 0 -0.9795411 -0.2012441 0 -0.9796568 -0.2006806 0 -0.9796569 0.2006798 0 -0.979522 0.2013373 0 -0.9795221 0.2013373 1.84232e-7 -0.9795221 0.2013373 0 -0.9189405 0.3943963 0 -0.9189463 0.3943827 0 -0.8207579 0.5712764 0 -0.8207541 0.5712818 0 -0.6890866 0.7246791 0 -0.6890826 0.7246828 0 -0.5287362 0.8487864 0 -0.3472459 0.9377743 0 -0.3472484 0.9377732 0 -0.1514352 0.9884672 0 0.05072134 0.9987129 0 0.05072051 0.998713 0 0.2505776 0.9680966 0 0.4404386 0.8977828 0 0.4404355 0.8977844 0 0.6120871 0.7907903 0 0.8743169 0.4853554 0 0.8743205 0.4853492 0 0.9541303 0.2993918 0 1 0 0 0 0 -1</float_array>
          <technique_common>
            <accessor source="#shape0_003-mesh-normals-array" count="761" stride="3">
              <param name="X" type="float"/>
              <param name="Y" type="float"/>
              <param name="Z" type="float"/>
            </accessor>
          </technique_common>
        </source>
        <vertices id="shape0_003-mesh-vertices">
          <input semantic="POSITION" source="#shape0_003-mesh-positions"/>
        </vertices>
        <triangles material="BLACK_001-material" count="1460">
          <input semantic="VERTEX" source="#shape0_003-mesh-vertices" offset="0"/>
          <input semantic="NORMAL" source="#shape0_003-mesh-normals" offset="1"/>
          <p>0 0 1 0 2 0 2 0 1 0 3 0 2 0 3 0 4 0 4 0 3 0 5 0 4 0 5 0 6 0 6 0 5 0 7 0 6 0 7 0 8 0 8 0 7 0 9 0 8 0 9 0 10 0 10 0 9 0 11 0 10 0 11 0 12 0 12 0 11 0 13 0 12 0 13 0 14 0 14 0 13 0 15 0 14 0 15 0 16 0 16 0 15 0 17 0 16 0 17 0 18 0 18 0 17 0 19 0 18 0 19 0 20 0 20 0 19 0 21 0 20 0 21 0 22 0 22 0 21 0 23 0 22 0 23 0 24 0 24 0 23 0 25 0 24 0 25 0 26 0 26 0 25 0 27 0 26 0 27 0 28 0 28 0 27 0 29 0 28 0 29 0 30 0 30 0 29 0 31 0 30 0 31 0 32 0 32 0 31 0 33 0 32 0 33 0 34 0 34 0 33 0 35 0 34 0 35 0 36 0 36 0 35 0 37 0 36 0 37 0 38 0 38 0 37 0 39 0 1 0 0 0 40 0 40 0 0 0 41 0 40 0 41 0 42 0 42 0 41 0 43 0 42 0 43 0 44 0 44 0 43 0 45 0 44 0 45 0 46 0 46 0 45 0 47 0 46 0 47 0 48 0 48 0 47 0 49 0 48 0 49 0 50 0 50 0 49 0 51 0 50 0 51 0 52 0 52 0 51 0 53 0 52 0 53 0 54 0 54 0 53 0 55 0 54 0 55 0 56 0 56 0 55 0 57 0 56 0 57 0 58 0 58 0 57 0 59 0 58 0 59 0 60 0 60 0 59 0 61 0 60 0 61 0 62 0 62 0 61 0 63 0 62 0 63 0 64 0 64 0 63 0 65 0 64 0 65 0 66 0 66 0 65 0 67 0 66 0 67 0 68 0 68 0 67 0 69 0 68 0 69 0 70 0 70 0 69 0 71 0 70 0 71 0 72 0 72 0 71 0 73 0 74 1 75 1 76 1 76 1 75 1 77 1 76 2 77 2 78 2 78 2 77 2 79 2 78 3 79 3 80 3 80 4 79 4 81 4 80 5 81 5 82 5 82 6 81 6 83 6 82 7 83 7 84 7 84 8 83 8 85 8 84 9 85 9 86 9 86 9 85 9 87 9 86 10 87 10 88 10 88 10 87 10 89 10 88 11 89 11 90 11 90 11 89 11 91 11 90 12 91 12 92 12 92 12 91 12 93 12 92 13 93 13 94 13 94 14 93 14 95 14 94 15 95 15 96 15 96 16 95 16 97 16 96 17 97 17 98 17 98 18 97 18 99 18 98 19 99 19 100 19 100 20 99 20 101 20 100 21 101 21 102 21 102 21 101 21 103 21 102 22 103 22 104 22 104 23 103 23 105 23 104 24 105 24 106 24 106 24 105 24 107 24 106 25 107 25 108 25 108 26 107 26 109 26 108 27 109 27 110 27 110 28 109 28 111 28 110 29 111 29 112 29 112 30 111 30 113 30 112 31 113 31 114 31 114 32 113 32 115 32 114 33 115 33 116 33 116 33 115 33 117 33 116 34 117 34 118 34 118 34 117 34 119 34 118 35 119 35 120 35 120 36 119 36 121 36 120 37 121 37 122 37 122 38 121 38 123 38 122 39 123 39 124 39 124 40 123 40 125 40 124 41 125 41 126 41 126 42 125 42 127 42 126 43 127 43 128 43 128 43 127 43 129 43 128 44 129 44 130 44 130 45 129 45 131 45 130 46 131 46 132 46 132 46 131 46 133 46 132 47 133 47 134 47 134 48 133 48 135 48 134 49 135 49 136 49 136 50 135 50 137 50 136 51 137 51 138 51 138 52 137 52 139 52 138 53 139 53 140 53 140 54 139 54 141 54 140 55 141 55 142 55 142 55 141 55 143 55 142 56 143 56 144 56 144 56 143 56 145 56 144 57 145 57 146 57 146 57 145 57 147 57 146 58 147 58 148 58 148 58 147 58 149 58 148 59 149 59 150 59 150 60 149 60 151 60 150 61 151 61 152 61 152 62 151 62 153 62 152 63 153 63 74 63 74 64 153 64 75 64 154 65 155 65 156 65 156 65 155 65 157 65 156 66 157 66 158 66 158 66 157 66 159 66 158 67 159 67 160 67 160 67 159 67 161 67 160 68 161 68 162 68 162 68 161 68 163 68 162 69 163 69 164 69 164 70 163 70 165 70 164 71 165 71 166 71 166 72 165 73 167 74 166 75 167 75 168 75 168 76 167 76 169 76 168 77 169 77 170 77 170 77 169 77 171 77 170 78 171 78 172 78 172 78 171 78 173 78 172 79 173 79 174 79 174 79 173 79 175 79 174 80 175 80 176 80 176 81 175 81 177 81 176 82 177 82 178 82 178 82 177 82 179 82 178 83 179 83 180 83 180 84 179 84 181 84 180 85 181 85 182 85 182 85 181 85 183 85 182 86 183 86 184 86 184 86 183 86 185 86 184 87 185 87 186 87 186 87 185 87 187 87 186 88 187 88 188 88 188 89 187 89 189 89 188 90 189 90 190 90 190 91 189 91 191 91 190 92 191 92 192 92 192 92 191 92 193 92 192 93 193 93 194 93 194 94 193 94 195 94 194 95 195 95 196 95 196 95 195 95 197 95 196 96 197 96 198 96 198 96 197 96 199 96 198 97 199 97 200 97 200 98 199 98 201 98 200 99 201 99 202 99 202 99 201 99 203 99 202 100 203 100 204 100 204 101 203 101 205 101 204 102 205 102 206 102 206 103 205 103 207 103 206 104 207 104 208 104 208 105 207 106 209 107 208 108 209 108 210 108 210 108 209 108 211 108 210 109 211 110 212 111 212 112 211 113 213 114 212 115 213 115 214 115 214 116 213 116 215 116 214 117 215 117 216 117 216 118 215 119 217 120 216 121 217 121 218 121 218 122 217 123 219 124 218 125 219 125 220 125 220 125 219 125 221 125 220 126 221 126 222 126 222 126 221 126 223 126 222 127 223 127 224 127 224 127 223 127 225 127 224 128 225 128 226 128 226 129 225 129 227 129 226 130 227 130 228 130 228 131 227 132 229 132 228 133 229 133 230 133 230 134 229 134 231 134 230 135 231 136 232 137 232 138 231 139 233 140 232 141 233 141 154 141 154 141 233 141 155 141 4 142 234 142 2 142 2 142 234 142 235 142 2 143 235 143 0 143 0 143 235 143 236 143 0 144 236 144 41 144 41 145 236 145 237 145 41 146 237 146 43 146 43 147 237 147 238 147 43 148 238 148 45 148 45 149 238 149 239 149 45 150 239 150 47 150 47 151 239 151 240 151 47 152 240 152 49 152 49 153 240 153 241 153 49 154 241 154 51 154 51 155 241 155 242 155 51 156 242 156 53 156 53 157 242 157 243 157 53 158 243 158 55 158 55 159 243 159 244 159 55 160 244 160 57 160 57 161 244 161 245 161 57 162 245 162 59 162 59 162 245 162 246 162 59 163 246 163 61 163 61 163 246 163 247 163 61 164 247 164 63 164 63 165 247 165 248 165 63 166 248 166 65 166 65 166 248 166 249 166 65 167 249 167 67 167 67 168 249 168 250 168 67 169 250 169 69 169 69 169 250 169 251 169 69 170 251 170 71 170 71 170 251 170 252 170 71 171 252 171 73 171 73 171 252 171 253 171 73 172 253 172 72 172 72 172 253 172 254 172 72 173 254 173 70 173 70 174 254 174 255 174 70 175 255 175 68 175 68 175 255 175 256 175 68 176 256 176 66 176 66 177 256 177 257 177 66 178 257 178 64 178 64 179 257 179 258 179 64 180 258 180 62 180 62 180 258 180 259 180 62 181 259 181 60 181 60 182 259 182 260 182 60 183 260 183 58 183 58 183 260 183 261 183 58 184 261 184 56 184 56 185 261 185 262 185 56 186 262 186 54 186 54 187 262 187 263 187 54 188 263 188 52 188 52 189 263 189 264 189 52 190 264 190 50 190 50 191 264 191 265 191 50 192 265 192 48 192 48 193 265 193 266 193 48 194 266 194 46 194 46 195 266 195 267 195 46 196 267 196 44 196 44 197 267 197 268 197 44 198 268 198 42 198 42 199 268 199 269 199 42 200 269 200 40 200 40 200 269 200 270 200 40 201 270 201 1 201 1 202 270 202 271 202 1 203 271 203 3 203 3 203 271 203 272 203 3 204 272 204 5 204 5 204 272 204 273 204 5 205 273 205 7 205 7 206 273 206 274 206 7 207 274 207 9 207 9 208 274 208 275 208 9 209 275 209 11 209 11 210 275 210 276 210 11 211 276 211 13 211 13 212 276 212 277 212 13 213 277 213 15 213 15 214 277 214 278 214 15 215 278 215 17 215 17 216 278 216 279 216 17 217 279 217 19 217 19 218 279 218 280 218 19 219 280 219 21 219 21 220 280 220 281 220 21 221 281 221 23 221 23 222 281 222 282 222 23 223 282 223 25 223 25 224 282 224 283 224 25 225 283 225 27 225 27 225 283 225 284 225 27 226 284 226 29 226 29 227 284 227 285 227 29 228 285 228 31 228 31 228 285 228 286 228 31 229 286 229 33 229 33 230 286 230 287 230 33 231 287 231 35 231 35 232 287 232 288 232 35 233 288 233 37 233 37 233 288 233 289 233 37 234 289 234 39 234 39 235 289 235 290 235 39 236 290 236 38 236 38 236 290 236 291 236 38 237 291 237 36 237 36 237 291 237 292 237 36 238 292 238 34 238 34 238 292 238 293 238 34 239 293 239 32 239 32 239 293 239 294 239 32 240 294 240 30 240 30 241 294 241 295 241 30 242 295 242 28 242 28 242 295 242 296 242 28 243 296 243 26 243 26 244 296 244 297 244 26 245 297 245 24 245 24 245 297 245 298 245 24 246 298 246 22 246 22 246 298 246 299 246 22 247 299 247 20 247 20 248 299 248 300 248 20 249 300 249 18 249 18 250 300 250 301 250 18 251 301 251 16 251 16 252 301 252 302 252 16 253 302 253 14 253 14 254 302 254 303 254 14 255 303 255 12 255 12 256 303 256 304 256 12 257 304 257 10 257 10 258 304 258 305 258 10 259 305 259 8 259 8 260 305 260 306 260 8 261 306 261 6 261 6 262 306 262 307 262 6 263 307 263 4 263 4 264 307 264 234 264 308 265 309 265 310 265 310 265 309 265 311 265 310 266 311 266 312 266 312 266 311 266 313 266 312 267 313 267 314 267 314 268 313 268 315 268 314 269 315 269 316 269 316 270 315 270 317 270 316 271 317 271 318 271 318 272 317 272 319 272 318 273 319 273 320 273 320 273 319 273 321 273 320 274 321 274 322 274 322 274 321 274 323 274 322 275 323 275 324 275 324 275 323 275 325 275 324 276 325 276 326 276 326 276 325 276 327 276 326 277 327 277 328 277 328 278 327 278 329 278 328 279 329 279 330 279 330 280 329 280 331 280 330 281 331 281 332 281 332 282 331 282 333 282 332 283 333 283 334 283 334 284 333 284 335 284 334 285 335 285 336 285 336 285 335 285 337 285 336 286 337 286 338 286 338 287 337 287 339 287 338 288 339 288 340 288 340 288 339 288 341 288 340 289 341 289 342 289 342 290 341 290 343 290 342 291 343 291 344 291 344 292 343 292 345 292 344 293 345 293 346 293 346 294 345 294 347 294 346 295 347 295 348 295 348 296 347 296 349 296 348 297 349 297 350 297 350 297 349 297 351 297 350 298 351 298 352 298 352 298 351 298 353 298 352 299 353 299 354 299 354 300 353 300 355 300 354 301 355 301 356 301 356 302 355 302 357 302 356 303 357 303 358 303 358 304 357 304 359 304 358 305 359 305 360 305 360 306 359 306 361 306 360 307 361 307 362 307 362 307 361 307 363 307 362 308 363 308 364 308 364 309 363 309 365 309 364 310 365 310 366 310 366 310 365 310 367 310 366 311 367 311 368 311 368 312 367 312 369 312 368 313 369 313 370 313 370 314 369 314 371 314 370 315 371 315 372 315 372 316 371 316 373 316 372 317 373 317 374 317 374 318 373 318 375 318 374 319 375 319 376 319 376 319 375 319 377 319 376 320 377 320 378 320 378 320 377 320 379 320 378 321 379 321 380 321 380 321 379 321 381 321 380 322 381 322 382 322 382 322 381 322 383 322 382 323 383 323 384 323 384 324 383 324 385 324 384 325 385 325 386 325 386 326 385 326 387 326 386 327 387 327 308 327 308 328 387 328 309 328 388 329 389 330 390 331 390 332 389 332 391 332 390 333 391 333 392 333 392 334 391 335 393 336 392 337 393 337 394 337 394 338 393 339 395 340 394 341 395 341 396 341 396 341 395 341 397 341 396 342 397 342 398 342 398 343 397 343 399 343 398 344 399 345 400 346 400 347 399 347 401 347 400 348 401 348 402 348 402 349 401 349 403 349 402 350 403 350 404 350 404 350 403 350 405 350 404 351 405 351 406 351 406 351 405 351 407 351 406 352 407 352 408 352 408 352 407 352 409 352 408 353 409 353 410 353 410 354 409 354 411 354 410 355 411 355 412 355 412 355 411 355 413 355 412 356 413 356 414 356 414 357 413 357 415 357 414 358 415 358 416 358 416 358 415 358 417 358 416 359 417 359 418 359 418 359 417 359 419 359 418 360 419 360 420 360 420 360 419 360 421 360 420 361 421 361 422 361 422 362 421 362 423 362 422 363 423 363 424 363 424 364 423 364 425 364 424 365 425 365 426 365 426 365 425 365 427 365 426 366 427 366 428 366 428 367 427 367 429 367 428 368 429 368 430 368 430 368 429 368 431 368 430 369 431 369 432 369 432 369 431 369 433 369 432 370 433 370 434 370 434 371 433 371 435 371 434 372 435 372 436 372 436 372 435 372 437 372 436 373 437 373 438 373 438 374 437 374 439 374 438 375 439 375 440 375 440 376 439 376 441 376 440 377 441 377 442 377 442 377 441 377 443 377 442 378 443 378 444 378 444 378 443 378 445 378 444 379 445 379 446 379 446 379 445 379 447 379 446 380 447 380 448 380 448 381 447 381 449 381 448 382 449 382 450 382 450 382 449 382 451 382 450 383 451 383 452 383 452 384 451 384 453 384 452 385 453 385 454 385 454 385 453 385 455 385 454 386 455 386 456 386 456 386 455 386 457 386 456 387 457 387 458 387 458 387 457 387 459 387 458 388 459 388 460 388 460 389 459 389 461 389 460 390 461 390 462 390 462 391 461 392 463 393 462 394 463 394 464 394 464 395 463 395 465 395 464 396 465 396 466 396 466 396 465 396 467 396 466 397 467 397 388 397 388 397 467 397 389 397 388 398 390 398 468 398 468 399 390 399 392 399 468 400 392 400 394 400 394 0 396 0 468 0 468 0 396 0 398 0 468 401 398 401 400 401 400 402 402 402 468 402 468 0 402 0 404 0 468 0 404 0 406 0 406 0 408 0 468 0 468 0 408 0 410 0 468 0 410 0 412 0 414 0 326 0 412 0 412 0 326 0 328 0 412 0 328 0 468 0 468 0 328 0 469 0 469 0 328 0 330 0 469 0 330 0 332 0 326 0 414 0 324 0 324 0 414 0 416 0 324 0 416 0 322 0 322 0 416 0 418 0 322 0 418 0 320 0 320 0 418 0 420 0 320 0 420 0 318 0 318 0 420 0 422 0 318 0 422 0 316 0 316 0 422 0 424 0 316 0 424 0 290 0 290 0 424 0 291 0 291 403 424 403 292 403 292 404 424 404 426 404 292 405 426 405 293 405 293 406 426 406 428 406 293 407 428 407 294 407 294 408 428 408 430 408 294 0 430 0 295 0 295 409 430 409 432 409 295 0 432 0 296 0 296 410 432 410 434 410 296 411 434 411 297 411 297 412 434 412 436 412 297 0 436 0 298 0 298 413 436 413 438 413 298 414 438 414 299 414 299 415 438 415 440 415 299 0 440 0 300 0 300 416 440 416 442 416 300 0 442 0 301 0 301 417 442 417 444 417 301 418 444 418 302 418 302 419 444 419 446 419 302 0 446 0 303 0 303 420 446 420 448 420 303 0 448 0 304 0 304 421 448 421 450 421 304 0 450 0 305 0 305 422 450 422 452 422 305 0 452 0 306 0 306 0 452 0 307 0 307 423 452 423 454 423 307 0 454 0 234 0 234 424 454 424 456 424 234 0 456 0 235 0 235 0 456 0 170 0 235 425 170 425 236 425 236 426 170 426 172 426 236 0 172 0 237 0 237 427 172 427 174 427 237 0 174 0 238 0 238 0 174 0 239 0 239 428 174 428 176 428 239 0 176 0 240 0 240 429 176 429 178 429 240 0 178 0 241 0 241 430 178 430 180 430 241 431 180 431 242 431 242 432 180 432 182 432 242 0 182 0 243 0 243 433 182 433 184 433 243 434 184 434 244 434 244 435 184 435 186 435 244 0 186 0 245 0 245 436 186 436 188 436 245 414 188 414 246 414 246 437 188 437 190 437 246 0 190 0 247 0 247 0 190 0 192 0 247 0 192 0 248 0 248 438 192 438 194 438 248 0 194 0 249 0 249 439 194 439 196 439 249 0 196 0 250 0 250 440 196 440 198 440 250 0 198 0 251 0 251 441 198 441 200 441 251 0 200 0 252 0 252 442 200 442 202 442 252 0 202 0 253 0 253 0 202 0 150 0 253 0 150 0 254 0 254 0 150 0 255 0 255 443 150 443 152 443 255 0 152 0 256 0 256 444 152 444 74 444 256 0 74 0 257 0 257 445 74 445 76 445 257 0 76 0 258 0 258 446 76 446 78 446 258 0 78 0 259 0 259 447 78 447 80 447 259 0 80 0 260 0 260 0 80 0 82 0 260 0 82 0 261 0 261 448 82 448 84 448 261 449 84 449 262 449 262 450 84 450 86 450 262 0 86 0 263 0 263 451 86 451 88 451 263 452 88 452 264 452 264 453 88 453 90 453 264 0 90 0 265 0 265 454 90 454 92 454 265 455 92 455 266 455 266 456 92 456 94 456 266 0 94 0 267 0 267 457 94 457 96 457 267 0 96 0 268 0 268 458 96 458 98 458 268 0 98 0 269 0 269 0 98 0 270 0 270 459 98 459 100 459 270 0 100 0 271 0 271 460 100 460 102 460 271 0 102 0 272 0 272 0 102 0 364 0 272 461 364 461 273 461 273 462 364 462 366 462 273 0 366 0 274 0 274 463 366 463 368 463 274 0 368 0 275 0 275 0 368 0 276 0 276 464 368 464 370 464 276 0 370 0 277 0 277 465 370 465 372 465 277 0 372 0 278 0 278 466 372 466 374 466 278 0 374 0 279 0 279 467 374 467 376 467 279 468 376 468 280 468 280 469 376 469 378 469 280 0 378 0 281 0 281 470 378 470 380 470 281 0 380 0 282 0 282 471 380 471 382 471 282 449 382 449 283 449 283 472 382 472 384 472 283 0 384 0 284 0 284 473 384 473 386 473 284 474 386 474 285 474 285 475 386 475 308 475 285 0 308 0 286 0 286 476 308 476 310 476 286 0 310 0 287 0 287 477 310 477 312 477 287 478 312 478 288 478 288 479 312 479 314 479 288 480 314 480 289 480 289 481 314 481 316 481 289 482 316 482 290 482 170 0 456 0 168 0 168 483 456 483 458 483 168 0 458 0 166 0 166 484 458 484 460 484 166 485 460 485 164 485 164 486 460 486 462 486 164 0 462 0 162 0 162 487 462 487 464 487 162 488 464 488 160 488 160 489 464 489 466 489 160 0 466 0 158 0 158 490 466 490 388 490 158 0 388 0 470 0 470 491 388 491 468 491 332 0 334 0 469 0 469 0 334 0 336 0 469 0 336 0 338 0 338 0 340 0 469 0 469 492 340 492 342 492 469 0 342 0 344 0 344 0 346 0 469 0 469 493 346 493 348 493 469 494 348 494 350 494 350 0 352 0 469 0 469 495 352 495 471 495 471 0 352 0 114 0 471 496 114 496 116 496 352 497 354 497 114 497 114 0 354 0 112 0 112 498 354 498 356 498 112 0 356 0 110 0 110 499 356 499 358 499 110 0 358 0 108 0 108 500 358 500 360 500 108 501 360 501 106 501 106 502 360 502 362 502 106 0 362 0 104 0 104 503 362 503 364 503 104 0 364 0 102 0 154 0 156 0 470 0 470 504 156 504 158 504 150 0 202 0 148 0 148 0 202 0 204 0 148 0 204 0 146 0 146 0 204 0 206 0 146 0 206 0 144 0 144 0 206 0 208 0 144 0 208 0 142 0 142 0 208 0 210 0 142 0 210 0 140 0 140 0 210 0 212 0 140 0 212 0 138 0 138 0 212 0 214 0 138 0 214 0 471 0 471 0 214 0 470 0 470 0 214 0 216 0 470 0 216 0 218 0 218 0 220 0 470 0 470 0 220 0 222 0 470 505 222 505 224 505 224 506 226 506 470 506 470 507 226 507 228 507 470 508 228 508 230 508 230 0 232 0 470 0 470 0 232 0 154 0 116 0 118 0 471 0 471 0 118 0 120 0 471 509 120 509 122 509 122 510 124 510 471 510 471 511 124 511 126 511 471 512 126 512 128 512 128 513 130 513 471 513 471 0 130 0 132 0 471 0 132 0 134 0 134 0 136 0 471 0 471 0 136 0 138 0 389 0 472 0 391 0 391 0 472 0 473 0 391 0 473 0 393 0 393 0 473 0 474 0 393 0 474 0 395 0 395 0 474 0 397 0 397 0 474 0 475 0 397 0 475 0 399 0 399 0 475 0 476 0 399 0 476 0 401 0 401 0 476 0 477 0 401 0 477 0 403 0 403 0 477 0 478 0 403 0 478 0 405 0 405 0 478 0 407 0 407 0 478 0 479 0 407 0 479 0 409 0 409 0 479 0 480 0 409 0 480 0 411 0 411 0 480 0 481 0 411 0 481 0 413 0 413 0 481 0 415 0 415 0 481 0 482 0 415 0 482 0 417 0 417 0 482 0 483 0 417 0 483 0 419 0 419 0 483 0 484 0 419 0 484 0 421 0 421 0 484 0 485 0 421 0 485 0 423 0 423 0 485 0 425 0 425 0 485 0 486 0 425 0 486 0 427 0 427 0 486 0 487 0 427 0 487 0 429 0 429 0 487 0 488 0 429 0 488 0 431 0 431 0 488 0 433 0 433 0 488 0 489 0 433 0 489 0 435 0 435 0 489 0 490 0 435 0 490 0 437 0 437 0 490 0 491 0 437 0 491 0 439 0 439 0 491 0 441 0 441 0 491 0 492 0 441 0 492 0 443 0 443 0 492 0 493 0 443 0 493 0 445 0 445 0 493 0 494 0 445 0 494 0 447 0 447 0 494 0 495 0 447 0 495 0 449 0 449 0 495 0 451 0 451 0 495 0 496 0 451 0 496 0 453 0 453 0 496 0 497 0 453 0 497 0 455 0 455 0 497 0 498 0 455 0 498 0 457 0 457 0 498 0 459 0 459 0 498 0 499 0 459 0 499 0 461 0 461 0 499 0 500 0 461 0 500 0 463 0 463 0 500 0 501 0 463 0 501 0 465 0 465 0 501 0 502 0 465 0 502 0 467 0 467 0 502 0 389 0 389 0 502 0 472 0 503 0 353 0 504 0 504 0 353 0 351 0 504 0 351 0 349 0 353 0 503 0 355 0 355 0 503 0 505 0 355 0 505 0 357 0 357 0 505 0 506 0 357 0 506 0 359 0 359 0 506 0 361 0 361 0 506 0 507 0 361 0 507 0 363 0 363 0 507 0 508 0 363 0 508 0 365 0 365 0 508 0 509 0 365 0 509 0 367 0 367 0 509 0 510 0 367 0 510 0 369 0 369 0 510 0 371 0 371 0 510 0 511 0 371 0 511 0 373 0 373 0 511 0 512 0 373 0 512 0 375 0 375 0 512 0 513 0 375 0 513 0 377 0 377 0 513 0 379 0 379 0 513 0 514 0 379 0 514 0 381 0 381 0 514 0 515 0 381 0 515 0 383 0 383 0 515 0 516 0 383 0 516 0 385 0 385 0 516 0 517 0 385 0 517 0 387 0 387 0 517 0 309 0 309 0 517 0 518 0 309 0 518 0 311 0 311 0 518 0 519 0 311 0 519 0 313 0 313 0 519 0 520 0 313 0 520 0 315 0 315 0 520 0 317 0 317 0 520 0 521 0 317 0 521 0 319 0 319 0 521 0 522 0 319 0 522 0 321 0 321 0 522 0 523 0 321 0 523 0 323 0 323 0 523 0 524 0 323 0 524 0 325 0 325 0 524 0 327 0 327 0 524 0 525 0 327 0 525 0 329 0 329 0 525 0 526 0 329 0 526 0 331 0 331 0 526 0 527 0 331 0 527 0 333 0 333 0 527 0 335 0 335 0 527 0 528 0 335 0 528 0 337 0 337 0 528 0 529 0 337 0 529 0 339 0 339 0 529 0 530 0 339 0 530 0 341 0 341 0 530 0 531 0 341 0 531 0 343 0 343 0 531 0 345 0 345 0 531 0 532 0 345 0 532 0 347 0 347 0 532 0 533 0 347 0 533 0 349 0 349 0 533 0 504 0 534 0 199 0 535 0 535 0 199 0 197 0 535 0 197 0 195 0 199 0 534 0 201 0 201 0 534 0 536 0 201 0 536 0 203 0 203 0 536 0 537 0 203 0 537 0 205 0 205 0 537 0 207 0 207 0 537 0 538 0 207 0 538 0 209 0 209 0 538 0 539 0 209 0 539 0 211 0 211 0 539 0 540 0 211 0 540 0 213 0 213 0 540 0 541 0 213 0 541 0 215 0 215 0 541 0 217 0 217 0 541 0 542 0 217 0 542 0 219 0 219 0 542 0 543 0 219 0 543 0 221 0 221 0 543 0 544 0 221 0 544 0 223 0 223 0 544 0 225 0 225 0 544 0 545 0 225 0 545 0 227 0 227 0 545 0 546 0 227 0 546 0 229 0 229 0 546 0 547 0 229 0 547 0 231 0 231 0 547 0 548 0 231 0 548 0 233 0 233 0 548 0 155 0 155 0 548 0 549 0 155 0 549 0 157 0 157 0 549 0 550 0 157 0 550 0 159 0 159 0 550 0 551 0 159 0 551 0 161 0 161 0 551 0 163 0 163 0 551 0 552 0 163 0 552 0 165 0 165 0 552 0 553 0 165 0 553 0 167 0 167 0 553 0 554 0 167 0 554 0 169 0 169 0 554 0 555 0 169 0 555 0 171 0 171 0 555 0 173 0 173 0 555 0 556 0 173 0 556 0 175 0 175 0 556 0 557 0 175 0 557 0 177 0 177 0 557 0 558 0 177 0 558 0 179 0 179 0 558 0 181 0 181 0 558 0 559 0 181 0 559 0 183 0 183 0 559 0 560 0 183 0 560 0 185 0 185 0 560 0 561 0 185 0 561 0 187 0 187 0 561 0 562 0 187 0 562 0 189 0 189 0 562 0 191 0 191 0 562 0 563 0 191 0 563 0 193 0 193 0 563 0 564 0 193 0 564 0 195 0 195 0 564 0 535 0 565 514 566 514 567 514 567 514 566 514 568 514 567 515 568 515 569 515 569 515 568 515 570 515 569 516 570 516 571 516 571 517 570 517 572 517 571 518 572 518 573 518 573 519 572 519 574 519 573 520 574 521 575 522 575 523 574 524 576 525 575 526 576 526 577 526 577 527 576 527 578 527 577 528 578 529 579 530 579 531 578 532 580 533 579 534 580 535 581 536 581 537 580 538 582 539 581 540 582 541 583 542 583 543 582 544 584 545 583 546 584 547 585 548 585 549 584 549 586 549 585 550 586 550 587 550 587 551 586 551 588 551 587 552 588 552 589 552 589 552 588 552 590 552 589 553 590 553 591 553 591 554 590 554 592 554 591 555 592 555 593 555 593 556 592 556 594 556 593 557 594 557 595 557 595 558 594 558 596 558 595 559 596 559 597 559 597 559 596 559 598 559 597 560 598 560 599 560 599 560 598 560 600 560 599 561 600 561 601 561 601 561 600 561 602 561 601 562 602 562 603 562 603 563 602 563 604 563 603 564 604 564 605 564 605 565 604 565 606 565 605 566 606 566 607 566 607 567 606 567 608 567 607 568 608 568 609 568 609 568 608 568 610 568 609 569 610 569 611 569 611 570 610 570 612 570 611 571 612 571 613 571 613 572 612 572 614 572 613 573 614 573 615 573 615 574 614 574 616 574 615 575 616 575 617 575 617 575 616 575 618 575 617 576 618 576 619 576 619 576 618 576 620 576 619 577 620 577 621 577 621 578 620 578 622 578 621 579 622 579 623 579 623 580 622 580 624 580 623 581 624 581 625 581 625 582 624 582 626 582 625 583 626 583 565 583 565 584 626 584 566 584 487 585 627 585 488 585 488 586 627 586 628 586 488 587 628 587 489 587 489 588 628 588 629 588 489 589 629 589 490 589 490 589 629 589 630 589 490 590 630 590 491 590 491 591 630 591 631 591 491 592 631 592 492 592 492 592 631 592 632 592 492 593 632 593 493 593 493 594 632 594 633 594 493 595 633 595 494 595 494 596 633 596 634 596 494 597 634 597 495 597 495 597 634 597 635 597 495 598 635 598 496 598 496 599 635 599 636 599 496 600 636 600 497 600 497 600 636 600 637 600 497 601 637 601 498 601 498 602 637 602 638 602 498 603 638 603 499 603 499 603 638 603 639 603 499 604 639 605 500 604 500 606 639 606 640 606 500 607 640 607 501 607 501 608 640 608 641 608 501 609 641 609 502 609 502 610 641 610 642 610 502 611 642 612 472 613 472 614 642 615 643 616 472 560 643 560 473 560 473 560 643 560 644 560 473 617 644 618 474 619 474 620 644 620 645 620 474 621 645 621 475 621 475 622 645 622 646 622 475 623 646 623 476 623 476 624 646 624 647 624 476 625 647 625 477 625 477 626 647 627 648 627 477 628 648 628 478 628 478 628 648 628 649 628 478 629 649 629 479 629 479 630 649 630 650 630 479 631 650 631 480 631 480 631 650 631 651 631 480 632 651 632 481 632 481 633 651 633 652 633 481 634 652 634 482 634 482 634 652 634 653 634 482 635 653 635 483 635 483 636 653 636 654 636 483 637 654 637 484 637 484 638 654 638 655 638 484 639 655 639 485 639 485 639 655 639 656 639 485 640 656 640 486 640 486 641 656 641 657 641 486 642 657 642 487 642 487 642 657 642 627 642 533 643 658 643 504 643 504 643 658 643 659 643 504 644 659 644 503 644 503 644 659 644 660 644 503 645 660 645 505 645 505 646 660 646 661 646 505 647 661 647 506 647 506 648 661 648 662 648 506 649 662 649 507 649 507 592 662 592 663 592 507 593 663 593 508 593 508 650 663 650 664 650 508 651 664 651 509 651 509 651 664 651 665 651 509 652 665 652 510 652 510 652 665 652 666 652 510 653 666 653 511 653 511 654 666 654 667 654 511 655 667 655 512 655 512 656 667 656 668 656 512 657 668 657 513 657 513 658 668 658 669 658 513 659 669 659 514 659 514 659 669 659 670 659 514 660 670 660 515 660 515 661 670 661 671 661 515 662 671 662 516 662 516 663 671 663 672 663 516 664 672 664 517 664 517 665 672 665 673 665 517 666 673 666 518 666 518 666 673 666 674 666 518 560 674 560 519 560 519 560 674 560 675 560 519 667 675 667 520 667 520 667 675 667 676 667 520 668 676 668 521 668 521 669 676 669 677 669 521 670 677 670 522 670 522 671 677 671 678 671 522 672 678 672 523 672 523 673 678 673 679 673 523 674 679 674 524 674 524 674 679 674 680 674 524 675 680 675 525 675 525 676 680 676 681 676 525 677 681 677 526 677 526 678 681 678 682 678 526 679 682 679 527 679 527 680 682 680 683 680 527 681 683 681 528 681 528 681 683 681 684 681 528 682 684 682 529 682 529 682 684 682 685 682 529 683 685 683 530 683 530 638 685 638 686 638 530 639 686 639 531 639 531 684 686 684 687 684 531 685 687 685 532 685 532 686 687 686 688 686 532 687 688 687 533 687 533 688 688 688 658 688 564 689 689 689 535 689 535 690 689 690 690 690 535 691 690 691 534 691 534 692 690 692 691 692 534 693 691 693 536 693 536 693 691 693 692 693 536 694 692 695 537 696 537 697 692 698 693 699 537 700 693 700 538 700 538 700 693 700 694 700 538 526 694 526 539 526 539 701 694 702 695 703 539 704 695 704 540 704 540 705 695 705 696 705 540 706 696 707 541 708 541 709 696 709 697 709 541 710 697 711 542 712 542 713 697 714 698 715 542 716 698 717 543 718 543 719 698 720 699 721 543 722 699 723 544 722 544 724 699 724 700 724 544 725 700 725 545 725 545 725 700 725 701 725 545 726 701 726 546 726 546 727 701 727 702 727 546 728 702 728 547 728 547 729 702 729 703 729 547 730 703 730 548 730 548 731 703 731 704 731 548 732 704 733 549 734 549 735 704 735 705 735 549 560 705 560 550 560 550 560 705 560 706 560 550 736 706 736 551 736 551 737 706 738 707 739 551 740 707 740 552 740 552 741 707 741 708 741 552 742 708 742 553 742 553 743 708 743 709 743 553 744 709 744 554 744 554 745 709 745 710 745 554 746 710 746 555 746 555 746 710 746 711 746 555 747 711 747 556 747 556 748 711 748 712 748 556 749 712 749 557 749 557 749 712 749 713 749 557 750 713 750 558 750 558 751 713 751 714 751 558 752 714 752 559 752 559 752 714 752 715 752 559 753 715 753 560 753 560 754 715 754 716 754 560 755 716 755 561 755 561 578 716 578 717 578 561 579 717 579 562 579 562 579 717 579 718 579 562 756 718 756 563 756 563 757 718 757 719 757 563 758 719 758 564 758 564 758 719 758 689 758 720 560 721 560 471 560 471 560 721 560 469 560 722 236 720 236 470 236 470 236 720 236 471 236 723 759 722 759 468 759 468 759 722 759 470 759 721 172 723 172 469 172 469 172 723 172 468 172 75 0 597 0 77 0 77 0 597 0 599 0 77 0 599 0 79 0 79 0 599 0 601 0 79 0 601 0 81 0 81 0 601 0 83 0 83 0 601 0 603 0 83 0 603 0 85 0 85 0 603 0 605 0 85 0 605 0 87 0 87 0 605 0 607 0 87 0 607 0 89 0 89 0 607 0 609 0 89 0 609 0 91 0 91 0 609 0 93 0 93 0 609 0 611 0 93 0 611 0 95 0 95 0 611 0 613 0 95 0 613 0 97 0 97 0 613 0 615 0 97 0 615 0 99 0 99 0 615 0 101 0 101 0 615 0 617 0 101 0 617 0 103 0 103 0 617 0 619 0 103 0 619 0 105 0 105 0 619 0 621 0 105 0 621 0 107 0 107 0 621 0 623 0 107 0 623 0 109 0 109 0 623 0 111 0 111 0 623 0 625 0 111 0 625 0 113 0 113 0 625 0 565 0 113 0 565 0 115 0 115 0 565 0 567 0 115 0 567 0 117 0 117 0 567 0 119 0 119 0 567 0 569 0 119 0 569 0 121 0 121 0 569 0 571 0 121 0 571 0 123 0 123 0 571 0 573 0 123 0 573 0 125 0 125 0 573 0 127 0 127 0 573 0 575 0 127 0 575 0 129 0 129 0 575 0 577 0 129 0 577 0 131 0 131 0 577 0 579 0 131 0 579 0 133 0 133 0 579 0 581 0 133 0 581 0 135 0 135 0 581 0 137 0 137 0 581 0 583 0 137 0 583 0 139 0 139 0 583 0 585 0 139 0 585 0 141 0 141 0 585 0 587 0 141 0 587 0 143 0 143 0 587 0 145 0 145 0 587 0 589 0 145 0 589 0 147 0 147 0 589 0 591 0 147 0 591 0 149 0 149 0 591 0 593 0 149 0 593 0 151 0 151 0 593 0 595 0 151 0 595 0 153 0 153 0 595 0 75 0 75 0 595 0 597 0 689 760 600 760 690 760 690 760 600 760 598 760 690 760 598 760 691 760 691 760 598 760 596 760 691 760 596 760 692 760 692 760 596 760 594 760 692 760 594 760 693 760 693 760 594 760 592 760 693 760 592 760 694 760 694 760 592 760 590 760 694 760 590 760 695 760 695 760 590 760 588 760 695 760 588 760 696 760 696 760 588 760 720 760 696 760 720 760 722 760 600 760 689 760 602 760 602 760 689 760 719 760 602 760 719 760 604 760 604 760 719 760 718 760 604 760 718 760 606 760 606 760 718 760 717 760 606 760 717 760 671 760 671 760 717 760 632 760 671 760 632 760 631 760 717 760 716 760 632 760 632 760 716 760 633 760 633 760 716 760 715 760 633 760 715 760 634 760 634 760 715 760 714 760 634 760 714 760 635 760 635 760 714 760 713 760 635 760 713 760 636 760 636 760 713 760 637 760 637 760 713 760 712 760 637 760 712 760 638 760 638 760 712 760 711 760 638 760 711 760 639 760 639 760 711 760 710 760 639 760 710 760 640 760 640 760 710 760 709 760 640 760 709 760 641 760 641 760 709 760 708 760 641 760 708 760 707 760 706 760 722 760 707 760 707 760 722 760 723 760 707 760 723 760 642 760 642 760 723 760 643 760 643 760 723 760 644 760 644 760 723 760 645 760 645 760 723 760 646 760 646 760 723 760 647 760 647 760 723 760 648 760 648 760 723 760 649 760 649 760 723 760 650 760 650 760 723 760 651 760 651 760 723 760 652 760 652 760 723 760 653 760 653 760 723 760 721 760 653 760 721 760 680 760 680 760 721 760 681 760 681 760 721 760 682 760 682 760 721 760 683 760 683 760 721 760 684 760 684 760 721 760 685 760 685 760 721 760 686 760 686 760 721 760 687 760 687 760 721 760 688 760 688 760 721 760 658 760 658 760 721 760 659 760 659 760 721 760 660 760 660 760 721 760 661 760 661 760 721 760 626 760 661 760 626 760 624 760 706 760 705 760 722 760 722 760 705 760 704 760 722 760 704 760 703 760 703 760 702 760 722 760 722 760 702 760 701 760 722 760 701 760 700 760 700 760 699 760 722 760 722 760 699 760 698 760 722 760 698 760 697 760 697 760 696 760 722 760 653 760 680 760 654 760 654 760 680 760 679 760 654 760 679 760 655 760 655 760 679 760 678 760 655 760 678 760 656 760 656 760 678 760 677 760 656 760 677 760 657 760 657 760 677 760 676 760 657 760 676 760 627 760 627 760 676 760 675 760 627 760 675 760 628 760 628 760 675 760 674 760 628 760 674 760 629 760 629 760 674 760 673 760 629 760 673 760 630 760 630 760 673 760 672 760 630 760 672 760 631 760 631 760 672 760 671 760 606 760 671 760 608 760 608 760 671 760 670 760 608 760 670 760 610 760 610 760 670 760 669 760 610 760 669 760 612 760 612 760 669 760 668 760 612 760 668 760 614 760 614 760 668 760 667 760 614 760 667 760 666 760 614 760 666 760 616 760 616 760 666 760 665 760 616 760 665 760 618 760 618 760 665 760 664 760 618 760 664 760 620 760 620 760 664 760 663 760 620 760 663 760 622 760 622 760 663 760 662 760 622 760 662 760 624 760 624 760 662 760 661 760 642 760 641 760 707 760 570 760 568 760 720 760 720 760 568 760 566 760 720 760 566 760 626 760 588 760 586 760 720 760 720 760 586 760 584 760 720 760 584 760 582 760 582 760 580 760 720 760 720 760 580 760 578 760 720 760 578 760 576 760 576 760 574 760 720 760 720 760 574 760 572 760 720 760 572 760 570 760 721 760 720 760 626 760</p>
        </triangles>
      </mesh>
    </geometry>
  </library_geometries>
  <library_visual_scenes>
    <visual_scene id="Scene" name="Scene">
      <node id="node" name="node" type="NODE">
        <matrix sid="transform">0.001 0 0 0.225 0 0.001 0 0.18 0 0 0.001 0.844 0 0 0 1</matrix>
        <instance_geometry url="#shape0_003-mesh" name="node">
          <bind_material>
            <technique_common>
              <instance_material symbol="BLACK_001-material" target="#BLACK_001-material"/>
            </technique_common>
          </bind_material>
        </instance_geometry>
      </node>
    </visual_scene>
  </library_visual_scenes>
  <scene>
    <instance_visual_scene url="#Scene"/>
  </scene>
</COLLADA>