<?xml version="1.0" encoding="utf-8"?>
<COLLADA xmlns="http://www.collada.org/2005/11/COLLADASchema" version="1.4.1" xmlns:xsi="http://www.w3.org/2001/XMLSchema-instance">
  <asset>
    <contributor>
      <author>Blender User</author>
      <authoring_tool>Blender 4.3.2 commit date:2024-12-16, commit time:21:10, hash:32f5fdce0a0a</authoring_tool>
    </contributor>
    <created>2025-02-05T10:44:22</created>
    <modified>2025-02-05T10:44:22</modified>
    <unit name="meter" meter="1"/>
    <up_axis>Z_UP</up_axis>
  </asset>
  <library_effects>
    <effect id="ID2-effect">
      <profile_COMMON>
        <technique sid="common">
          <lambert>
            <emission>
              <color sid="emission">0 0 0 1</color>
            </emission>
            <diffuse>
              <color sid="diffuse">0.1568628 0.1568628 0.1568628 1</color>
            </diffuse>
            <index_of_refraction>
              <float sid="ior">1.5</float>
            </index_of_refraction>
          </lambert>
        </technique>
      </profile_COMMON>
    </effect>
  </library_effects>
  <library_images/>
  <library_materials>
    <material id="ID2-material" name="ID2">
      <instance_effect url="#ID2-effect"/>
    </material>
  </library_materials>
  <library_geometries>
    <geometry id="shape0-mesh" name="shape0">
      <mesh>
        <source id="shape0-mesh-positions">
          <float_array id="shape0-mesh-positions-array" count="612">-2.773627 8.338227 -99.21142 -2.773627 17.67923 -110.6614 -2.773627 24.62924 -96.49121 -2.773627 34.84424 -106.5413 -2.773627 40.25023 -91.13134 -2.773627 51.15423 -99.79125 -2.773627 54.77524 -83.27124 -2.773627 66.20624 -90.56127 -2.773627 67.80825 -73.12133 -2.773627 79.63024 -79.10131 -2.773627 78.99423 -60.97142 -2.773627 91.09424 -65.68139 -2.773627 88.02724 -47.14134 -2.773627 100.3182 -50.62133 -2.773627 94.66225 -32.02123 -2.773627 107.0742 -34.31127 -2.773627 98.71625 -16.01122 -2.773627 111.1952 -17.15111 -2.773627 100.0802 0.4487416 -2.773627 112.5802 0.4487416 -2.773627 98.71625 16.9087 -2.773627 111.1952 18.04884 -2.773627 94.66225 32.91871 -2.773627 107.0742 35.20875 -2.773627 88.02724 48.03858 -2.773627 100.3182 51.51881 -2.773627 78.99423 61.86866 -2.773627 91.09424 66.57862 -2.773627 67.80825 74.01881 -2.773627 79.63024 79.99879 -2.773627 54.77524 84.16871 -2.773627 66.20624 91.45875 -2.773627 40.25023 92.02857 -2.773627 51.15423 100.6887 -2.773627 24.62924 97.38868 -2.773627 34.84424 107.4387 -2.773627 8.338227 100.1087 -2.773627 17.67923 111.5586 -2.773627 -8.177765 100.1087 -2.773627 0.08023071 112.9487 -2.773627 -17.51868 111.5586 -2.773627 -24.46837 97.38868 -2.773627 -34.68417 107.4387 -2.773627 -40.08926 92.02857 -2.773627 -50.99367 100.6887 -2.773627 -54.61456 84.16871 -2.773627 -66.04557 91.45875 -2.773627 -67.64798 74.01881 -2.773627 -79.46927 79.99879 -2.773627 -78.83386 61.86866 -2.773627 -90.93418 66.57862 -2.773627 -87.86717 48.03858 -2.773627 -100.158 51.51881 -2.773627 -94.50147 32.91871 -2.773627 -106.9136 35.20875 -2.773627 -98.55588 16.9087 -2.773627 -111.0347 18.04884 -2.773627 -99.91977 0.4487416 -2.773627 -112.4198 0.4487416 -2.773627 -98.55588 -16.01122 -2.773627 -111.0347 -17.15111 -2.773627 -94.50147 -32.02123 -2.773627 -106.9136 -34.31127 -2.773627 -87.86717 -47.14134 -2.773627 -100.158 -50.62133 -2.773627 -78.83386 -60.97142 -2.773627 -90.93418 -65.68139 -2.773627 -67.64798 -73.12133 -2.773627 -79.46927 -79.10131 -2.773627 -54.61456 -83.27124 -2.773627 -66.04557 -90.56127 -2.773627 -40.08926 -91.13134 -2.773627 -50.99367 -99.79125 -2.773627 -24.46837 -96.49121 -2.773627 -34.68417 -106.5413 -2.773627 -8.177765 -99.21142 -2.773627 -17.51868 -110.6614 -2.773627 0.08023071 -112.0513 -17.77363 8.338227 -99.21142 -17.77363 0.08023071 -112.0513 -17.77363 -8.177765 -99.21142 -17.77363 -17.51868 -110.6614 -17.77363 -24.46837 -96.49121 -17.77363 -34.68417 -106.5413 -17.77363 -40.08926 -91.13134 -17.77363 -50.99367 -99.79125 -17.77363 -54.61456 -83.27124 -17.77363 -66.04557 -90.56127 -17.77363 -67.64798 -73.12133 -17.77363 -79.46927 -79.10131 -17.77363 -78.83386 -60.97142 -17.77363 -90.93418 -65.68139 -17.77363 -87.86717 -47.14134 -17.77363 -100.158 -50.62133 -17.77363 -94.50147 -32.02123 -17.77363 -106.9136 -34.31127 -17.77363 -98.55588 -16.01122 -17.77363 -111.0347 -17.15111 -17.77363 -99.91977 0.4487416 -17.77363 -112.4198 0.4487416 -17.77363 -98.55588 16.9087 -17.77363 -111.0347 18.04884 -17.77363 -94.50147 32.91871 -17.77363 -106.9136 35.20875 -17.77363 -87.86717 48.03858 -17.77363 -100.158 51.51881 -17.77363 -78.83386 61.86866 -17.77363 -90.93418 66.57862 -17.77363 -67.64798 74.01881 -17.77363 -79.46927 79.99879 -17.77363 -54.61456 84.16871 -17.77363 -66.04557 91.45875 -17.77363 -40.08926 92.02857 -17.77363 -50.99367 100.6887 -17.77363 -24.46837 97.38868 -17.77363 -34.68417 107.4387 -17.77363 -8.177765 100.1087 -17.77363 -17.51868 111.5586 -17.77363 0.08023071 112.9487 -17.77363 8.338227 100.1087 -17.77363 17.67923 111.5586 -17.77363 24.62924 97.38868 -17.77363 34.84424 107.4387 -17.77363 40.25023 92.02857 -17.77363 51.15423 100.6887 -17.77363 54.77524 84.16871 -17.77363 66.20624 91.45875 -17.77363 67.80825 74.01881 -17.77363 79.63024 79.99879 -17.77363 78.99423 61.86866 -17.77363 91.09424 66.57862 -17.77363 88.02724 48.03858 -17.77363 100.3182 51.51881 -17.77363 94.66225 32.91871 -17.77363 107.0742 35.20875 -17.77363 98.71625 16.9087 -17.77363 111.1952 18.04884 -17.77363 100.0802 0.4487416 -17.77363 112.5802 0.4487416 -17.77363 98.71625 -16.01122 -17.77363 111.1952 -17.15111 -17.77363 94.66225 -32.02123 -17.77363 107.0742 -34.31127 -17.77363 88.02724 -47.14134 -17.77363 100.3182 -50.62133 -17.77363 78.99423 -60.97142 -17.77363 91.09424 -65.68139 -17.77363 67.80825 -73.12133 -17.77363 79.63024 -79.10131 -17.77363 54.77524 -83.27124 -17.77363 66.20624 -90.56127 -17.77363 40.25023 -91.13134 -17.77363 51.15423 -99.79125 -17.77363 24.62924 -96.49121 -17.77363 34.84424 -106.5413 -17.77363 17.67923 -110.6614 6.156426 412.5793 3.388683 -22.70356 412.6202 -2.351307 5.016412 412.5382 9.128674 -23.84358 412.5793 3.388683 1.766412 412.5033 13.98878 -8.843574 412.4723 18.38868 -3.103583 412.4803 17.24879 -14.58356 412.6773 -10.47142 -19.45356 412.6543 -7.221425 -8.843574 412.6853 -11.61132 -3.103583 412.6773 -10.47142 1.766412 412.6543 -7.221425 5.016412 412.6202 -2.351307 -22.70356 412.5382 9.128674 -19.45356 412.5033 13.98878 -14.58356 412.4803 17.24879 -19.45356 112.5112 11.85865 -22.70356 112.5452 6.98878 -23.84358 112.5862 1.24879 -14.58356 112.6852 -12.61132 -8.843574 112.6932 -13.75121 6.156426 112.5862 1.24879 1.766412 112.5112 11.85865 5.016412 112.5452 6.98878 -22.70356 112.6272 -4.4912 -19.45356 112.6623 -9.361317 -3.103583 112.6852 -12.61132 1.766412 112.6623 -9.361317 5.016412 112.6272 -4.4912 -14.58356 112.4882 15.10865 -8.843574 112.4793 16.24879 -3.103583 112.4882 15.10865 -2.773627 -19.11807 -112.1914 -2.773627 20.88124 -111.9014 -17.77363 -19.11807 -112.1914 -17.77363 20.88124 -111.9014 -17.77363 21.09424 -141.9013 -2.773627 21.09424 -141.9013 -17.77363 -18.90448 -142.1914 -2.773627 -18.90448 -142.1914 -2.773627 19.27824 113.0886 -2.773627 -20.72047 112.7986 -17.77363 19.27824 113.0886 -17.77363 -20.72047 112.7986 -2.773627 19.06523 143.0886 -17.77363 19.06523 143.0886 -2.773627 -20.93408 142.7986 -17.77363 -20.93408 142.7986</float_array>
          <technique_common>
            <accessor source="#shape0-mesh-positions-array" count="204" stride="3">
              <param name="X" type="float"/>
              <param name="Y" type="float"/>
              <param name="Z" type="float"/>
            </accessor>
          </technique_common>
        </source>
        <source id="shape0-mesh-normals">
          <float_array id="shape0-mesh-normals-array" count="1032">1 0 0 1 0 0 1 0 0 1 0 0 1 0 0 1 0 0 1 0 0 1 0 0 1 0 0 1 0 0 1 0 0 1 0 0 1 0 0 1 0 0 1 0 0 1 0 0 1 0 0 1 0 0 1 0 0 1 0 0 1 0 0 1 0 0 -1 0 0 -1 0 0 -1 1.43994e-7 0 -1 0 0 -1 2.88586e-7 0 -1 -2.89927e-7 0 -1 1.41034e-7 0 -1 -2.81011e-7 0 -1 -1.50434e-7 0 -1 0 0 -1 1.32111e-7 0 -1 0 0 -1 0 0 -1 0 0 -1 0 0 -1 0 0 -1 2.88248e-7 0 -1 0 0 -1 -2.88592e-7 0 -1 -2.81007e-7 0 -1 2.92132e-7 0 -1 1.50433e-7 0 -1 0 0 -1 0 0 -1 0 0 -1 -1.59351e-7 0 -1 0 0 0 0.9969182 0.07844984 0 0.996918 0.07845073 0 0.9723537 0.2335131 0 0.9723537 0.2335131 0 0.9238764 0.3826911 0 0.9238767 0.3826903 0 0.8525072 0.5227156 0 0.8525072 0.5227156 0 0.8525072 0.5227156 0 0.8525076 0.5227149 0 0.8525076 0.5227149 -2.98692e-7 0.8525076 0.5227149 0 0.760347 0.6495172 0 0.7603476 0.6495166 0 0.649277 0.7605522 0 0.6492774 0.7605518 0 0.5227499 0.8524862 0 0.3824018 0.9239962 0 0.382402 0.9239961 0 0.2333874 0.9723839 0 0.2333875 0.9723839 0 0.07874423 0.9968948 0 0.07874423 0.9968948 0 -0.07874464 0.9968948 0 -0.07874464 0.9968948 0 -0.2333812 0.9723854 0 -0.2333812 0.9723854 0 -0.3824119 0.923992 0 -0.382412 0.923992 0 -0.5227525 0.8524846 0 -0.6492854 0.760545 0 -0.6492856 0.7605447 0 -0.7603219 0.6495465 0 -0.760322 0.6495465 0 -0.8527629 0.5222982 0 -0.8527626 0.5222988 0 -0.9238836 0.3826738 0 -0.9238833 0.3826746 0 -0.9723529 0.2335166 0 -0.9723527 0.2335175 0 -0.9969178 0.07845348 0 -0.9969178 0.07845443 0 -0.9965841 0.0825845 0 -0.9965842 0.08258354 0 -0.9694044 0.2454695 0 -0.9694046 0.2454685 0 -0.915713 0.4018331 0 -0.9157129 0.4018331 0 -0.8372395 0.5468364 0 -0.8372395 0.5468364 0 -0.7356874 0.6773212 0 -0.7356873 0.6773215 0 -0.6144354 0.7889673 0 -0.6144353 0.7889673 0 -0.4759271 0.8794847 0 -0.4759271 0.8794848 0 -0.3245463 0.9458699 0 -0.3245462 0.9458699 0 -0.1646962 0.9863443 0 -0.1646962 0.9863444 0 0 1 0 0.1647002 0.9863438 0 0.1647002 0.9863437 0 0.324548 0.9458693 0 0.324548 0.9458693 0 0.4759197 0.8794888 0 0.4759196 0.8794888 0 0.6144234 0.7889765 0 0.6140449 0.7892712 0 0.6140449 0.7892712 0 0.6140449 0.7892712 0 0.7356907 0.6773177 0 0.7356904 0.677318 0 0.8372314 0.5468488 0 0.8372309 0.5468496 0 0.9157289 0.4017967 0 0.9157289 0.4017968 0 0.9693985 0.2454926 0 0.9693986 0.2454926 0 0.9965846 0.08257859 0 0.9965847 0.08257764 0 0.9965847 -0.08257764 0 0.9965846 -0.08257865 0 0.9693985 -0.2454926 0 0.9693986 -0.2454926 0 0.9157266 -0.4018022 0 0.8372309 -0.5468495 0 0.8372314 -0.5468489 0 0.735697 -0.6773108 0 0.7356972 -0.6773107 0 0.6140449 -0.7892711 0 0.6140449 -0.7892712 0 0.6140449 -0.7892711 0 0.6141586 -0.7891827 0 0.6141586 -0.7891827 0 0.6141586 -0.7891827 0 0.4759083 -0.879495 0 0.4759082 -0.879495 0 0.3245612 -0.9458647 0 0.3245611 -0.9458647 0 0.1646859 -0.9863461 0 0.1646859 -0.9863461 0 0 -1 0 -0.1646818 -0.9863468 0 -0.1646818 -0.9863469 0 -0.3245595 -0.9458653 0 -0.3245595 -0.9458654 0 -0.4759157 -0.8794909 0 -0.4759157 -0.879491 0 -0.6144354 -0.7889673 0 -0.6144353 -0.7889673 0 -0.7356938 -0.6773144 0 -0.7356939 -0.6773141 0 -0.8372395 -0.5468364 0 -0.8372395 -0.5468364 0 -0.9157106 -0.4018386 0 -0.9694046 -0.2454685 0 -0.9694043 -0.2454695 0 -0.9965842 -0.08258354 0 -0.9965841 -0.0825845 0 -0.9969177 -0.0784555 0 -0.9969177 -0.07845455 0 -0.9723534 -0.2335144 0 -0.9723536 -0.2335135 0 -0.9238833 -0.3826746 0 -0.9238836 -0.3826737 0 -0.8527664 -0.5222925 0 -0.8527669 -0.5222918 0 -0.7603161 -0.6495533 0 -0.7603161 -0.6495532 0 -0.6492856 -0.7605447 0 -0.6492854 -0.760545 0 -0.5227525 -0.8524846 0 -0.3824119 -0.923992 0 -0.382412 -0.923992 0 -0.2333942 -0.9723822 0 -0.2333943 -0.9723822 0 -0.07873088 -0.996896 0 -0.07873094 -0.996896 0 0.07873046 -0.9968959 0 0.07873052 -0.9968959 0 0.2334005 -0.9723807 0 0.2334005 -0.9723808 0 0.382402 -0.9239961 0 0.3824018 -0.9239962 0 0.5227499 -0.8524862 0 0.6492774 -0.7605518 0 0.649277 -0.7605522 0 0.7603417 -0.6495235 0 0.7603412 -0.6495239 0 0.852762 -0.5223 0 0.8527616 -0.5223005 0 0.9238768 -0.3826903 0 0.9238765 -0.3826911 0 0.9723545 -0.2335101 0 0.9723544 -0.23351 0 0.996918 -0.07845181 0 0.9969181 -0.07845091 -2.03454e-6 0.9999745 0.007145404 2.03448e-6 0.9999747 0.007129788 -8.84159e-6 0.9999743 0.007189512 1.24177e-5 0.9999748 0.007104456 1.85809e-5 0.999975 0.00707972 -3.99108e-5 0.9999758 0.00695759 -1.85809e-5 0.999975 0.00707972 9.38373e-6 0.9999752 0.007052719 0 0.9999757 0.00698769 0 0.9999745 0.007143914 1.07145e-4 0.9999746 0.007129788 2.5218e-5 0.9999749 0.007104456 -6.09524e-5 0.9999741 0.007188916 -1.24177e-5 0.9999747 0.007123053 2.04343e-5 -0.9999746 -0.007126867 2.04349e-5 -0.9999746 -0.007126867 2.04391e-5 -0.9999746 -0.007126867 -1.96544e-5 -0.9999748 -0.007113575 4.74765e-5 -0.9999732 -0.007328867 4.74522e-5 -0.9999732 -0.007328867 4.74813e-5 -0.9999732 -0.007328867 0 -0.9999745 -0.00714308 0 -0.9999746 -0.007139682 7.81435e-6 -0.9999743 -0.00718224 -2.24878e-5 -0.9999748 -0.007112085 2.93949e-5 -0.9999744 -0.00716108 8.11065e-5 -0.9999741 -0.007199287 -9.49477e-5 -0.9999747 -0.007122039 -5.45363e-5 -0.9999753 -0.007032871 -5.45859e-5 -0.9999753 -0.007032871 -5.45174e-5 -0.9999753 -0.007032871 -1.09798e-4 -0.9999754 -0.007024586 1.24248e-4 -0.9999738 -0.007252871 2.93194e-6 -0.9999751 -0.007072329 -0.9808432 -0.001389503 0.1947945 -0.9807778 -0.001389384 0.1951236 -0.9807777 -0.001389384 0.1951236 -0.9807777 -0.001389384 0.1951236 -0.8315209 -0.003956973 0.5554795 -0.8315209 -0.003962218 0.5554795 -0.8315209 -0.003956973 0.5554795 -0.8314588 -0.003957271 0.5555725 -0.8314588 -0.003957211 0.5555725 -0.8314588 -0.003957271 0.5555725 -0.5555025 -0.005919039 0.8314938 -0.5555025 -0.005919039 0.8314938 -0.5555025 -0.005919039 0.8314938 -0.5557277 -0.005923032 0.8313434 -0.5557277 -0.005923032 0.8313434 -0.5557277 -0.005923032 0.8313434 -0.1951594 -0.006980419 0.9807468 -0.1951594 -0.006980419 0.9807467 -0.1951594 -0.006980419 0.9807468 -0.1947886 -0.006996273 0.9808204 0.19483 -0.006996214 0.9808121 0.1952592 -0.006981313 0.9807268 0.1952592 -0.006981313 0.9807268 0.1952592 -0.006981313 0.9807268 0.5553832 -0.005926191 0.8315734 0.5553832 -0.005926132 0.8315734 0.5553832 -0.005926191 0.8315734 0.5555683 -0.005921661 0.8314499 0.5555683 -0.005921542 0.8314498 0.5555683 -0.005921661 0.8314498 0.8314676 -0.003956377 0.5555592 0.8314676 -0.003956377 0.5555592 0.8314676 -0.003956437 0.5555592 0.8315388 -0.00395298 0.5554527 0.8315388 -0.00395298 0.5554527 0.8315388 -0.003953039 0.5554527 0.9808432 -0.001389443 0.1947946 0.9807778 -0.001389265 0.1951236 0.9807778 -0.001389324 0.1951236 0.9807777 -0.001391828 0.1951235 0.9807777 0.001389443 -0.1951236 0.9807777 0.001391828 -0.1951236 0.9807777 0.001389384 -0.1951236 0.9807777 0.001389145 -0.1951236 0.9807777 0.001389145 -0.1951236 0.9807777 0.001389145 -0.1951236 0.8314274 0.003955662 -0.5556193 0.8314274 0.003963291 -0.5556193 0.8314274 0.003955662 -0.5556193 0.8314805 0.00395739 -0.55554 0.8314805 0.00395739 -0.55554 0.8314805 0.003957271 -0.55554 0.5555829 0.005921602 -0.8314401 0.5555829 0.005921602 -0.8314401 0.5555829 0.005921661 -0.8314401 0.5551041 0.005933046 -0.8317598 0.1952588 0.006980538 -0.9807269 0.1952588 0.006980478 -0.9807269 0.1952588 0.006980478 -0.9807269 0.1951174 0.006981551 -0.980755 0.1951174 0.006981551 -0.980755 0.1951174 0.006981551 -0.980755 -0.1951177 0.00698316 -0.980755 -0.1951177 0.00698316 -0.980755 -0.1951177 0.00698316 -0.980755 -0.1953525 0.006976127 -0.9807083 -0.1953526 0.006976068 -0.9807084 -0.1953526 0.006976068 -0.9807084 -0.5555826 0.005921602 -0.8314403 -0.5555826 0.005921602 -0.8314403 -0.5555825 0.005921661 -0.8314403 -0.5551043 0.005933046 -0.8317597 -0.8314807 0.003956735 -0.5555396 -0.8314807 0.003956735 -0.5555396 -0.8314807 0.003956675 -0.5555396 -0.8314272 0.003956735 -0.5556197 -0.8314272 0.003956615 -0.5556197 -0.8314272 0.003963172 -0.5556197 -0.9807778 0.001389384 -0.1951236 -0.9807778 0.001389384 -0.1951236 -0.9807777 0.001389384 -0.1951236 -0.9807777 0.001389443 -0.1951236 -0.9807778 0.001389443 -0.1951237 -0.9807778 0.001391828 -0.1951237 0 -0.007250905 0.9999738 0 -0.007250905 0.9999738 0 0.007250964 -0.9999738 0 0.00691545 -0.9999762 0 0.00691545 -0.9999762 0 0.00691545 -0.9999762 0 0.9999749 0.007099688 0 0.9999749 0.007099807 0 -0.9999747 -0.007119596 0 -0.9999747 -0.007119476 0 0.007250964 -0.9999738 0 0.007250964 -0.9999738 0 -0.00691533 0.9999762 0 -0.00691533 0.9999762 0 -0.00691533 0.9999762 0 0.9999748 0.007100224 0 0.9999749 0.007100224 0 -0.9999747 -0.007120013 0 -0.9999747 -0.007120132</float_array>
          <technique_common>
            <accessor source="#shape0-mesh-normals-array" count="344" stride="3">
              <param name="X" type="float"/>
              <param name="Y" type="float"/>
              <param name="Z" type="float"/>
            </accessor>
          </technique_common>
        </source>
        <vertices id="shape0-mesh-vertices">
          <input semantic="POSITION" source="#shape0-mesh-positions"/>
        </vertices>
        <triangles material="ID2-material" count="396">
          <input semantic="VERTEX" source="#shape0-mesh-vertices" offset="0"/>
          <input semantic="NORMAL" source="#shape0-mesh-normals" offset="1"/>
          <p>0 0 1 0 2 0 2 1 1 1 3 1 2 0 3 0 4 0 4 2 3 2 5 2 4 0 5 0 6 0 6 3 5 3 7 3 6 4 7 4 8 4 8 5 7 5 9 5 8 6 9 6 10 6 10 0 9 0 11 0 10 0 11 0 12 0 12 0 11 0 13 0 12 0 13 0 14 0 14 0 13 0 15 0 14 0 15 0 16 0 16 0 15 0 17 0 16 0 17 0 18 0 18 0 17 0 19 0 18 0 19 0 20 0 20 0 19 0 21 0 20 0 21 0 22 0 22 0 21 0 23 0 22 0 23 0 24 0 24 7 23 7 25 7 24 8 25 8 26 8 26 0 25 0 27 0 26 0 27 0 28 0 28 0 27 0 29 0 28 0 29 0 30 0 30 0 29 0 31 0 30 9 31 9 32 9 32 10 31 10 33 10 32 0 33 0 34 0 34 0 33 0 35 0 34 0 35 0 36 0 36 0 35 0 37 0 36 0 37 0 38 0 37 0 39 0 38 0 38 11 39 11 40 11 38 0 40 0 41 0 41 0 40 0 42 0 41 0 42 0 43 0 43 0 42 0 44 0 43 0 44 0 45 0 45 12 44 12 46 12 45 13 46 13 47 13 47 14 46 14 48 14 47 15 48 15 49 15 49 16 48 16 50 16 49 0 50 0 51 0 51 0 50 0 52 0 51 17 52 17 53 17 53 0 52 0 54 0 53 0 54 0 55 0 55 0 54 0 56 0 55 0 56 0 57 0 57 0 56 0 58 0 57 0 58 0 59 0 59 0 58 0 60 0 59 0 60 0 61 0 61 0 60 0 62 0 61 0 62 0 63 0 63 0 62 0 64 0 63 0 64 0 65 0 65 0 64 0 66 0 65 0 66 0 67 0 67 0 66 0 68 0 67 0 68 0 69 0 69 0 68 0 70 0 69 18 70 18 71 18 71 19 70 19 72 19 71 0 72 0 73 0 73 0 72 0 74 0 73 0 74 0 75 0 75 0 74 0 76 0 75 0 76 0 0 0 0 20 76 20 77 20 0 21 77 21 1 21 78 22 79 22 80 22 80 23 79 23 81 23 80 24 81 24 82 24 82 22 81 22 83 22 82 22 83 22 84 22 84 25 83 25 85 25 84 26 85 26 86 26 86 22 85 22 87 22 86 22 87 22 88 22 88 22 87 22 89 22 88 27 89 27 90 27 90 28 89 28 91 28 90 22 91 22 92 22 92 29 91 29 93 29 92 22 93 22 94 22 94 22 93 22 95 22 94 22 95 22 96 22 96 22 95 22 97 22 96 22 97 22 98 22 98 22 97 22 99 22 98 22 99 22 100 22 100 22 99 22 101 22 100 22 101 22 102 22 102 22 101 22 103 22 102 30 103 30 104 30 104 22 103 22 105 22 104 22 105 22 106 22 106 22 105 22 107 22 106 22 107 22 108 22 108 22 107 22 109 22 108 22 109 22 110 22 110 22 109 22 111 22 110 31 111 31 112 31 112 32 111 32 113 32 112 33 113 33 114 33 114 34 113 34 115 34 114 22 115 22 116 22 115 22 117 22 116 22 116 35 117 35 118 35 116 22 118 22 119 22 119 36 118 36 120 36 119 22 120 22 121 22 121 37 120 37 122 37 121 38 122 38 123 38 123 39 122 39 124 39 123 40 124 40 125 40 125 22 124 22 126 22 125 22 126 22 127 22 127 22 126 22 128 22 127 22 128 22 129 22 129 22 128 22 130 22 129 22 130 22 131 22 131 41 130 41 132 41 131 42 132 42 133 42 133 22 132 22 134 22 133 22 134 22 135 22 135 22 134 22 136 22 135 22 136 22 137 22 137 22 136 22 138 22 137 22 138 22 139 22 139 22 138 22 140 22 139 22 140 22 141 22 141 22 140 22 142 22 141 43 142 43 143 43 143 22 142 22 144 22 143 22 144 22 145 22 145 22 144 22 146 22 145 22 146 22 147 22 147 22 146 22 148 22 147 22 148 22 149 22 149 22 148 22 150 22 149 44 150 44 151 44 151 22 150 22 152 22 151 45 152 45 153 45 153 46 152 46 154 46 153 47 154 47 78 47 78 22 154 22 155 22 78 48 155 48 79 48 19 49 138 49 136 49 19 50 136 50 21 50 21 51 136 51 134 51 21 52 134 52 23 52 23 53 134 53 132 53 23 54 132 54 25 54 25 55 132 56 130 57 25 58 130 59 27 60 27 61 130 61 128 61 27 62 128 62 29 62 29 63 128 63 126 63 29 64 126 64 31 64 31 65 126 65 124 65 31 65 124 65 33 65 33 66 124 66 122 66 33 67 122 67 35 67 35 68 122 68 120 68 35 69 120 69 37 69 37 70 120 70 118 70 37 71 118 71 39 71 39 72 118 72 117 72 39 73 117 73 40 73 40 74 117 74 115 74 40 75 115 75 42 75 42 76 115 76 113 76 42 77 113 77 44 77 44 78 113 78 111 78 44 78 111 78 46 78 46 79 111 79 109 79 46 80 109 80 48 80 48 81 109 81 107 81 48 82 107 82 50 82 50 83 107 83 105 83 50 84 105 84 52 84 52 85 105 85 103 85 52 86 103 86 54 86 54 87 103 87 101 87 54 88 101 88 56 88 56 89 101 89 99 89 56 90 99 90 58 90 18 91 137 91 16 91 16 92 137 92 139 92 16 93 139 93 14 93 14 94 139 94 141 94 14 95 141 95 12 95 12 96 141 96 143 96 12 97 143 97 10 97 10 98 143 98 145 98 10 99 145 99 8 99 8 100 145 100 147 100 8 101 147 101 6 101 6 102 147 102 149 102 6 103 149 103 4 103 4 104 149 104 151 104 4 105 151 105 2 105 2 106 151 106 153 106 2 107 153 107 0 107 0 108 153 108 78 108 0 109 78 109 75 109 75 109 78 109 80 109 75 110 80 110 73 110 73 111 80 111 82 111 73 112 82 112 71 112 71 113 82 113 84 113 71 114 84 114 69 114 69 115 84 115 86 115 69 116 86 116 67 116 67 117 86 118 88 119 67 120 88 120 65 120 65 121 88 121 90 121 65 122 90 122 63 122 63 123 90 123 92 123 63 124 92 124 61 124 61 125 92 125 94 125 61 126 94 126 59 126 59 127 94 127 96 127 59 128 96 128 57 128 57 129 96 129 98 129 57 130 98 130 55 130 55 131 98 131 100 131 55 132 100 132 53 132 53 133 100 133 102 133 53 134 102 134 51 134 51 134 102 134 104 134 51 135 104 135 49 135 49 136 104 136 106 136 49 137 106 137 47 137 47 138 106 138 108 138 47 139 108 140 45 141 45 142 108 143 110 144 45 145 110 145 43 145 43 146 110 146 112 146 43 147 112 147 41 147 41 148 112 148 114 148 41 149 114 149 38 149 38 150 114 150 116 150 38 151 116 151 36 151 36 151 116 151 119 151 36 152 119 152 34 152 34 153 119 153 121 153 34 154 121 154 32 154 32 155 121 155 123 155 32 156 123 156 30 156 30 157 123 157 125 157 30 158 125 158 28 158 28 159 125 159 127 159 28 160 127 160 26 160 26 161 127 161 129 161 26 162 129 162 24 162 24 163 129 163 131 163 24 164 131 164 22 164 22 164 131 164 133 164 22 165 133 165 20 165 20 166 133 166 135 166 20 167 135 167 18 167 18 168 135 168 137 168 58 169 99 169 97 169 58 170 97 170 60 170 60 171 97 171 95 171 60 172 95 172 62 172 62 173 95 173 93 173 62 174 93 174 64 174 64 175 93 175 91 175 64 176 91 176 66 176 66 177 91 177 89 177 66 178 89 178 68 178 68 179 89 179 87 179 68 180 87 180 70 180 70 181 87 181 85 181 70 181 85 181 72 181 72 182 85 182 83 182 72 183 83 183 74 183 74 184 83 184 81 184 74 185 81 185 76 185 76 186 81 186 79 186 76 187 79 187 77 187 77 188 79 188 155 188 77 189 155 189 1 189 1 190 155 190 154 190 1 191 154 191 3 191 3 192 154 192 152 192 3 193 152 193 5 193 5 194 152 194 150 194 5 194 150 194 7 194 7 195 150 195 148 195 7 196 148 196 9 196 9 197 148 197 146 197 9 198 146 198 11 198 11 199 146 199 144 199 11 200 144 200 13 200 13 201 144 201 142 201 13 202 142 202 15 202 15 203 142 203 140 203 15 204 140 204 17 204 17 205 140 205 138 205 17 206 138 206 19 206 156 207 157 207 158 207 158 208 157 208 159 208 158 209 159 209 160 209 161 210 162 210 160 210 163 211 164 211 165 211 165 212 164 212 157 212 166 213 165 213 167 213 167 214 165 214 157 214 167 215 157 215 168 215 168 216 157 216 156 216 159 217 169 217 170 217 160 218 159 218 161 218 161 219 159 219 170 219 161 220 170 220 171 220 172 221 173 222 174 223 175 224 176 224 177 224 178 225 174 226 179 227 179 228 174 228 180 228 179 229 180 229 177 229 177 230 180 230 181 230 177 231 181 231 175 231 176 232 182 232 177 232 177 233 182 233 183 233 177 234 183 234 184 234 185 235 172 236 186 237 186 238 172 238 174 238 186 239 174 239 187 239 187 240 174 240 178 240 159 241 174 241 173 241 159 242 173 243 169 244 169 245 173 246 172 247 169 248 172 249 170 250 170 251 172 252 185 253 170 254 185 255 171 256 171 257 185 258 186 259 171 260 186 260 161 260 161 261 186 261 187 261 161 262 187 263 162 264 162 265 187 266 178 267 162 268 178 269 160 270 160 271 178 272 179 273 160 274 179 275 158 276 158 277 179 277 177 277 158 278 177 279 156 280 156 281 177 282 184 283 156 284 184 285 168 286 168 287 184 288 183 289 168 290 183 291 167 292 167 293 183 294 182 295 167 296 182 296 166 296 166 297 182 298 176 299 166 300 176 301 165 302 165 303 176 304 175 305 165 306 175 307 163 308 163 309 175 310 181 311 163 312 181 312 164 312 164 313 181 314 180 315 164 316 180 317 157 318 157 319 180 320 174 321 157 322 174 323 159 324 188 325 189 325 190 325 190 326 189 326 191 326 192 327 193 327 194 327 194 328 193 329 195 330 190 22 191 22 194 22 194 22 191 22 192 22 191 331 189 331 192 331 192 332 189 332 193 332 189 0 188 0 193 0 193 0 188 0 195 0 188 333 190 333 195 333 195 334 190 334 194 334 196 335 197 335 198 335 198 336 197 336 199 336 200 337 201 338 202 339 202 326 201 326 203 326 198 22 199 22 201 22 201 22 199 22 203 22 196 340 198 340 200 340 200 341 198 341 201 341 197 0 196 0 202 0 202 0 196 0 200 0 199 342 197 342 203 342 203 343 197 343 202 343</p>
        </triangles>
      </mesh>
    </geometry>
  </library_geometries>
  <library_visual_scenes>
    <visual_scene id="Scene" name="Scene">
      <node id="node" name="node" type="NODE">
        <matrix sid="transform">0.001 0 0 -9.31323e-10 0 0.001 0 0 0 0 0.001 1.49012e-8 0 0 0 1</matrix>
        <instance_geometry url="#shape0-mesh" name="node">
          <bind_material>
            <technique_common>
              <instance_material symbol="ID2-material" target="#ID2-material"/>
            </technique_common>
          </bind_material>
        </instance_geometry>
      </node>
    </visual_scene>
  </library_visual_scenes>
  <scene>
    <instance_visual_scene url="#Scene"/>
  </scene>
</COLLADA>