<?xml version="1.0" encoding="utf-8"?>
<COLLADA xmlns="http://www.collada.org/2005/11/COLLADASchema" version="1.4.1" xmlns:xsi="http://www.w3.org/2001/XMLSchema-instance">
  <asset>
    <contributor>
      <author>Blender User</author>
      <authoring_tool>Blender 4.3.2 commit date:2024-12-16, commit time:21:10, hash:32f5fdce0a0a</authoring_tool>
    </contributor>
    <created>2025-01-15T12:28:23</created>
    <modified>2025-01-15T12:28:23</modified>
    <unit name="meter" meter="1"/>
    <up_axis>Z_UP</up_axis>
  </asset>
  <library_effects>
    <effect id="BLUE_001-effect">
      <profile_COMMON>
        <technique sid="common">
          <lambert>
            <emission>
              <color sid="emission">0 0 0 1</color>
            </emission>
            <diffuse>
              <color sid="diffuse">0 0 1 1</color>
            </diffuse>
            <index_of_refraction>
              <float sid="ior">1.5</float>
            </index_of_refraction>
          </lambert>
        </technique>
      </profile_COMMON>
    </effect>
  </library_effects>
  <library_images/>
  <library_materials>
    <material id="BLUE_001-material" name="BLUE.001">
      <instance_effect url="#BLUE_001-effect"/>
    </material>
  </library_materials>
  <library_geometries>
    <geometry id="shape0_003-mesh" name="shape0.003">
      <mesh>
        <source id="shape0_003-mesh-positions">
          <float_array id="shape0_003-mesh-positions-array" count="234">1.228298 40.4359 9.471424 0 40.4359 9.548725 0 -19.5641 9.548725 -1.228271 -19.5641 9.471424 -1.228271 40.4359 9.471424 -3.607621 40.4359 8.860525 -3.607621 -19.5641 8.860525 -5.760301 40.4359 7.677122 -5.760301 -19.5641 7.677122 -7.551031 40.4359 5.995522 -7.551031 -19.5641 5.995522 -8.867306 40.4359 3.921323 -8.867306 -19.5641 3.921323 -9.626418 40.4359 1.585023 -9.626418 -19.5641 1.585023 -9.780665 40.4359 -0.8666275 -9.780665 -19.5641 -0.8666275 -9.320357 40.4359 -3.279647 -9.320357 -19.5641 -3.279647 -8.274413 40.4359 -5.502377 -8.274413 -19.5641 -5.502377 -6.708561 40.4359 -7.395167 -6.708561 -19.5641 -7.395167 -4.721191 40.4359 -8.839089 -4.721191 -19.5641 -8.839089 -2.437161 40.4359 -9.743392 -2.437161 -19.5641 -9.743392 0 40.4359 -10.05128 0 -19.5641 -10.05128 2.437199 40.4359 -9.743392 2.437199 -19.5641 -9.743392 4.721198 40.4359 -8.839089 4.721198 -19.5641 -8.839089 6.708599 40.4359 -7.395167 6.708599 -19.5641 -7.395167 8.274399 40.4359 -5.502377 8.274399 -19.5641 -5.502377 9.3204 40.4359 -3.279647 9.3204 -19.5641 -3.279647 9.780699 40.4359 -0.8666275 9.780699 -19.5641 -0.8666275 9.626399 40.4359 1.585023 9.626399 -19.5641 1.585023 8.8673 40.4359 3.921323 8.8673 -19.5641 3.921323 7.551001 40.4359 5.995522 7.551001 -19.5641 5.995522 5.760299 40.4359 7.677122 5.760299 -19.5641 7.677122 3.607598 40.4359 8.860525 3.607598 -19.5641 8.860525 1.228298 -19.5641 9.471424 1.732099 40.4359 -1.251276 1.999999 40.4359 -0.2512758 -1 40.4359 -1.983326 0 40.4359 -2.251277 0.9999991 40.4359 -1.983326 1.732099 40.4359 0.7487232 0.9999991 40.4359 1.480823 0 40.4359 1.748723 -1 40.4359 1.480823 -1.73205 40.4359 0.7487232 -2.000001 40.4359 -0.2512758 -1.73205 40.4359 -1.251276 0 -19.5641 -0.2512758 0.9999991 42.4359 -1.983326 1.732099 42.4359 -1.251276 1.999999 42.4359 -0.2512758 1.732099 42.4359 0.7487232 0.9999991 42.4359 1.480823 0 42.4359 1.748723 -1 42.4359 1.480823 -1.73205 42.4359 0.7487232 -2.000001 42.4359 -0.2512758 -1.73205 42.4359 -1.251276 -1 42.4359 -1.983326 0 42.4359 -2.251277 0 42.4359 -0.2512758</float_array>
          <technique_common>
            <accessor source="#shape0_003-mesh-positions-array" count="78" stride="3">
              <param name="X" type="float"/>
              <param name="Y" type="float"/>
              <param name="Z" type="float"/>
            </accessor>
          </technique_common>
        </source>
        <source id="shape0_003-mesh-normals">
          <float_array id="shape0_003-mesh-normals-array" count="312">0.06280916 0 0.9980256 -0.06281054 0 0.9980255 -0.2486844 0 0.9685846 -0.4817395 0 0.8763145 -0.4817405 0 0.876314 -0.6845455 0 0.7289701 -0.6845455 0 0.7289702 -0.8443375 0 0.5358118 -0.9510564 0 0.3090175 -0.9510564 0 0.3090176 -0.9980267 0 0.06279152 -0.9980267 0 0.06279152 -0.9822872 0 -0.1873813 -0.9822873 0 -0.1873813 -0.9048261 0 -0.4257815 -0.7705134 0 -0.6374238 -0.5877885 0 -0.8090146 -0.5877888 0 -0.8090144 -0.3681223 0 -0.9297775 -0.3681209 0 -0.9297779 -0.1253352 0 -0.9921145 -0.1253343 0 -0.9921146 0.1253324 0 -0.9921149 0.1253332 0 -0.9921148 0.3681252 0 -0.9297763 0.3681266 0 -0.9297758 0.5877828 0 -0.8090188 0.5877825 0 -0.809019 0.7705236 0 -0.6374114 0.7705237 0 -0.6374114 0.9048173 0 -0.4258003 0.982288 0 -0.1873779 0.982288 0 -0.1873779 0.9980254 0 0.0628128 0.9980254 0 0.06281274 0.9510577 0 0.3090134 0.9510577 0 0.3090133 0.8443332 0 0.5358186 0.6845512 0 0.7289648 0.4817368 0 0.876316 0.4817359 0 0.8763166 0.2486893 0 0.9685834 0 1 -4.45658e-6 0 1 -1.87336e-6 0 1 0 0 1 4.00712e-7 0 1 -8.03167e-7 0 1 8.02096e-7 0 1 7.51818e-6 0 1 -2.21077e-6 0 1 1.40112e-6 0 1 -3.76704e-6 0 1 -3.99899e-7 0 1 1.88887e-6 0 1 8.04274e-7 0 1 7.98862e-7 0 1 -8.0428e-7 0 1 -7.99792e-7 0 1 2.60209e-6 0 1 -6.02938e-7 0 1 8.03177e-7 0 1 -3.74877e-6 0 1 -4.00705e-7 0 1 -8.03588e-7 0 -1 0 0 -1 6.38873e-7 0 -1 -3.19432e-7 0 -1 3.19441e-7 0 -1 -1.59717e-7 0 -1 -1.59712e-7 0 -1 -7.98575e-7 0 -1 3.19432e-7 0 -1 -3.19429e-7 0 -1 -9.58301e-7 0 -1 4.7915e-7 0 -1 3.19433e-7 0 -1 5.39051e-7 0 -1 3.19435e-7 0 -1 -6.38867e-7 0.2588216 0 -0.9659252 0.7070829 0 -0.7071308 0.7070819 0 -0.7071317 0.9659376 0 -0.2587751 0.9659379 0 -0.2587743 0.9659376 0 0.2587754 0.9659378 0 0.2587745 0.7071071 0 0.7071065 0.7071061 0 0.7071075 0.2587747 0 0.9659377 0.2587756 0 0.9659375 -0.2587747 0 0.9659377 -0.707131 0 0.7070826 -0.7071311 0 0.7070826 -0.9659253 0 0.2588209 -0.9659254 0 -0.2588207 -0.7071068 0 -0.7071068 -0.2588207 0 -0.9659254 0.2588207 0 -0.9659254 0 1 -3.81454e-6 0 1 7.62941e-6 0 1 -9.53674e-7 0 1 9.53675e-7 0 1 1.90735e-6 0 1 -1.90735e-6</float_array>
          <technique_common>
            <accessor source="#shape0_003-mesh-normals-array" count="104" stride="3">
              <param name="X" type="float"/>
              <param name="Y" type="float"/>
              <param name="Z" type="float"/>
            </accessor>
          </technique_common>
        </source>
        <vertices id="shape0_003-mesh-vertices">
          <input semantic="POSITION" source="#shape0_003-mesh-positions"/>
        </vertices>
        <triangles material="BLUE_001-material" count="152">
          <input semantic="VERTEX" source="#shape0_003-mesh-vertices" offset="0"/>
          <input semantic="NORMAL" source="#shape0_003-mesh-normals" offset="1"/>
          <p>0 0 1 0 2 0 2 1 1 1 3 1 1 1 4 1 3 1 3 2 4 2 5 2 3 2 5 2 6 2 6 3 5 3 7 3 6 4 7 4 8 4 8 5 7 5 9 5 8 6 9 6 10 6 10 7 9 7 11 7 10 7 11 7 12 7 12 8 11 8 13 8 12 9 13 9 14 9 14 10 13 10 15 10 14 11 15 11 16 11 16 12 15 12 17 12 16 13 17 13 18 13 18 14 17 14 19 14 18 14 19 14 20 14 20 15 19 15 21 15 20 15 21 15 22 15 22 16 21 16 23 16 22 17 23 17 24 17 24 18 23 18 25 18 24 19 25 19 26 19 26 20 25 20 27 20 26 21 27 21 28 21 28 22 27 22 29 22 28 23 29 23 30 23 30 24 29 24 31 24 30 25 31 25 32 25 32 26 31 26 33 26 32 27 33 27 34 27 34 28 33 28 35 28 34 29 35 29 36 29 36 30 35 30 37 30 36 30 37 30 38 30 38 31 37 31 39 31 38 32 39 32 40 32 40 33 39 33 41 33 40 34 41 34 42 34 42 35 41 35 43 35 42 36 43 36 44 36 44 37 43 37 45 37 44 37 45 37 46 37 46 38 45 38 47 38 46 38 47 38 48 38 48 39 47 39 49 39 48 40 49 40 50 40 50 41 49 41 0 41 50 41 0 41 51 41 51 0 0 0 2 0 37 42 52 42 53 42 54 43 55 43 25 43 56 44 29 44 55 44 55 44 29 44 27 44 55 44 27 44 25 44 37 44 35 44 52 44 52 45 35 45 33 45 52 44 33 44 56 44 56 46 33 46 31 46 56 47 31 47 29 47 57 48 41 48 53 48 53 49 41 49 39 49 53 50 39 50 37 50 58 51 45 51 57 51 57 44 45 44 43 44 57 52 43 52 41 52 1 44 0 44 59 44 59 44 0 44 49 44 59 53 49 53 58 53 58 54 49 54 47 54 58 55 47 55 45 55 60 44 5 44 59 44 59 44 5 44 4 44 59 44 4 44 1 44 61 44 9 44 60 44 60 44 9 44 7 44 60 56 7 56 5 56 62 44 13 44 61 44 61 57 13 57 11 57 61 44 11 44 9 44 63 44 17 44 62 44 62 58 17 58 15 58 62 59 15 59 13 59 25 44 23 44 54 44 54 60 23 60 21 60 54 61 21 61 63 61 63 62 21 62 19 62 63 63 19 63 17 63 2 64 3 64 64 64 2 64 64 64 51 64 46 65 48 65 64 65 64 66 48 66 50 66 64 67 50 67 51 67 40 64 42 64 64 64 64 68 42 68 44 68 64 69 44 69 46 69 34 64 36 64 64 64 64 70 36 70 38 70 64 71 38 71 40 71 28 64 30 64 64 64 64 64 30 64 32 64 64 72 32 72 34 72 22 64 24 64 64 64 64 64 24 64 26 64 64 64 26 64 28 64 16 64 18 64 64 64 64 73 18 73 20 73 64 74 20 74 22 74 10 64 12 64 64 64 64 75 12 75 14 75 64 76 14 76 16 76 3 64 6 64 64 64 64 77 6 77 8 77 64 78 8 78 10 78 55 79 65 79 56 79 56 80 65 80 66 80 56 81 66 81 52 81 52 82 66 82 67 82 52 83 67 83 53 83 53 84 67 84 68 84 53 85 68 85 57 85 57 86 68 86 69 86 57 87 69 87 58 87 58 88 69 88 70 88 58 89 70 89 59 89 59 90 70 90 71 90 59 90 71 90 60 90 60 91 71 91 72 91 60 92 72 92 61 92 61 93 72 93 73 93 61 93 73 93 62 93 62 94 73 94 74 94 62 94 74 94 63 94 63 95 74 95 75 95 63 95 75 95 54 95 54 96 75 96 76 96 54 96 76 96 55 96 55 97 76 97 65 97 72 98 71 98 77 98 77 44 71 44 70 44 77 44 70 44 69 44 75 99 74 99 77 99 77 100 74 100 73 100 77 101 73 101 72 101 66 44 65 44 77 44 77 44 65 44 76 44 77 44 76 44 75 44 69 44 68 44 77 44 77 102 68 102 67 102 77 103 67 103 66 103</p>
        </triangles>
      </mesh>
    </geometry>
  </library_geometries>
  <library_visual_scenes>
    <visual_scene id="Scene" name="Scene">
      <node id="node" name="node" type="NODE">
        <matrix sid="transform">0.001 0 0 0 0 -4.37114e-11 -0.001 0 0 0.001 -4.37114e-11 0 0 0 0 1</matrix>
        <instance_geometry url="#shape0_003-mesh" name="node">
          <bind_material>
            <technique_common>
              <instance_material symbol="BLUE_001-material" target="#BLUE_001-material"/>
            </technique_common>
          </bind_material>
        </instance_geometry>
      </node>
    </visual_scene>
  </library_visual_scenes>
  <scene>
    <instance_visual_scene url="#Scene"/>
  </scene>
</COLLADA>