<?xml version="1.0" encoding="utf-8"?>
<COLLADA xmlns="http://www.collada.org/2005/11/COLLADASchema" version="1.4.1" xmlns:xsi="http://www.w3.org/2001/XMLSchema-instance">
  <asset>
    <contributor>
      <author>Blender User</author>
      <authoring_tool>Blender 4.3.2 commit date:2024-12-16, commit time:21:10, hash:32f5fdce0a0a</authoring_tool>
    </contributor>
    <created>2024-12-20T15:07:44</created>
    <modified>2024-12-20T15:07:44</modified>
    <unit name="meter" meter="1"/>
    <up_axis>Z_UP</up_axis>
  </asset>
  <library_effects>
    <effect id="Material_002-effect">
      <profile_COMMON>
        <technique sid="common">
          <lambert>
            <emission>
              <color sid="emission">0 0 0 1</color>
            </emission>
            <diffuse>
              <color sid="diffuse">0.02037806 0.02037806 0.02037806 1</color>
            </diffuse>
            <index_of_refraction>
              <float sid="ior">1.45</float>
            </index_of_refraction>
          </lambert>
        </technique>
      </profile_COMMON>
    </effect>
  </library_effects>
  <library_images/>
  <library_materials>
    <material id="Material_002-material" name="Material.002">
      <instance_effect url="#Material_002-effect"/>
    </material>
  </library_materials>
  <library_geometries>
    <geometry id="shape0_005-mesh" name="shape0.005">
      <mesh>
        <source id="shape0_005-mesh-positions">
          <float_array id="shape0_005-mesh-positions-array" count="2184">10 9.750006 10 10 9.750006 -10 -5 9.750006 10 -5 9.750006 -10 10 -10.24999 10 -5 -10.24999 10 10 -10.24999 -10 -5 -10.24999 -10 30 -23.5 -22 30 -23.5 -24 30 23.00001 -22 30 23.00001 -24 30 -23.5 1 30 -23.5 -0.9999998 30 23.00001 1 30 23.00001 -0.9999998 30 -23.5 24 30 -23.5 22 30 23.00001 24 30 23.00001 22 30 -23.5 50 30 -23.5 45 30 23.00001 50 30 23.00001 45 10 23.00001 -50 10 -23.5 -50 10 -23.5 50 10 23.00001 50 30 23.00001 -50 30 23.00001 -45 30 -23.5 -50 30 -23.5 -45 28.781 23.00001 -21.929 28.781 23.00001 -24.071 27.5785 23.00001 -21.717 27.5785 23.00001 -24.283 26.4088 23.00001 -21.3668 26.4088 23.00001 -24.6332 25.2876 23.00001 -20.8831 25.2876 23.00001 -25.1169 24.2302 23.00001 -20.2726 24.2302 23.00001 -25.7274 23.2507 23.00001 -19.5435 23.2507 23.00001 -26.4565 22.3626 23.00001 -18.7055 22.3626 23.00001 -27.2945 21.5777 23.00001 -17.7702 21.5777 23.00001 -28.2298 20.8 23.00001 -23 20.727 23.00001 -23.7413 20.9067 23.00001 -29.25 20.5107 23.00001 -24.4542 20.1596 23.00001 -25.1112 20.3587 23.00001 -30.3412 19.68701 23.00001 -25.687 19.94111 23.00001 -31.4886 19.11117 23.00001 -26.1596 19.65952 23.00001 -32.6767 18.4542 23.00001 -26.5107 19.51776 23.00001 -33.8895 17.74134 23.00001 -26.727 19.51776 23.00001 -35.1105 17 23.00001 -26.8 16.25866 23.00001 -26.727 19.65952 23.00001 -36.3233 15.5458 23.00001 -26.5107 14.88883 23.00001 -26.1596 14.31299 23.00001 -25.687 13.84042 23.00001 -25.1112 13.48926 23.00001 -24.4542 13.27302 23.00001 -23.7413 13.2 23.00001 -23 13.2 23.00001 2.02654e-7 13.27302 23.00001 -22.2587 13.27302 23.00001 -0.7413023 13.48926 23.00001 -21.5458 13.48926 23.00001 -1.454201 13.84042 23.00001 -20.8888 13.84042 23.00001 -2.111202 14.31299 23.00001 -20.313 14.31299 23.00001 -2.686996 14.88883 23.00001 -19.8404 14.88883 23.00001 -3.159599 15.5458 23.00001 -19.4893 15.5458 23.00001 -3.5107 16.25866 23.00001 -19.273 16.25866 23.00001 -3.726997 17 23.00001 -19.2 17 23.00001 -3.799999 17.74134 23.00001 -19.273 17.74134 23.00001 -3.726997 19.51776 23.00001 -12.1105 19.51776 23.00001 -10.8895 18.4542 23.00001 -3.5107 19.65952 23.00001 -9.676701 19.11117 23.00001 -3.159599 19.94111 23.00001 -8.488602 19.68701 23.00001 -2.686996 20.3587 23.00001 -7.341202 20.1596 23.00001 -2.111202 20.9067 23.00001 -6.25 20.5107 23.00001 -1.454201 20.727 23.00001 -0.7413023 19.94111 23.00001 -37.5114 20.3587 23.00001 -38.6588 20.9067 23.00001 -39.75 21.5777 23.00001 -40.77017 22.3626 23.00001 -41.70554 23.2507 23.00001 -42.54347 24.2302 23.00001 -43.27262 25.2876 23.00001 -43.88314 26.4088 23.00001 -44.36677 27.5785 23.00001 -44.71697 28.781 23.00001 -44.929 13.2 23.00001 23 13.27302 23.00001 0.7412989 13.27302 23.00001 22.2587 13.48926 23.00001 1.454197 13.48926 23.00001 21.5458 13.84042 23.00001 2.111199 13.84042 23.00001 20.8888 14.31299 23.00001 2.687004 14.31299 23.00001 20.313 14.88883 23.00001 3.1596 14.88883 23.00001 19.8404 15.5458 23.00001 3.5107 15.5458 23.00001 19.4893 16.25866 23.00001 3.727001 16.25866 23.00001 19.273 17 23.00001 3.799999 17 23.00001 19.20001 17.74134 23.00001 3.727001 17.74134 23.00001 19.273 19.51776 23.00001 10.8895 19.51776 23.00001 12.1105 18.4542 23.00001 19.4893 19.65952 23.00001 13.3233 19.11117 23.00001 19.8404 19.94111 23.00001 14.5114 19.68701 23.00001 20.313 20.3587 23.00001 15.6588 20.1596 23.00001 20.8888 20.9067 23.00001 16.75 20.5107 23.00001 21.5458 20.727 23.00001 22.2587 24.2302 23.00001 43.2726 23.2507 23.00001 42.54349 22.3626 23.00001 41.7055 28.781 23.00001 44.929 27.5785 23.00001 44.717 26.4088 23.00001 44.3668 25.2876 23.00001 43.88309 21.5777 23.00001 40.77019 20.9067 23.00001 39.75 20.3587 23.00001 38.6588 19.94111 23.00001 37.5114 19.65952 23.00001 36.32329 15.5458 23.00001 26.5107 16.25866 23.00001 26.72701 19.51776 23.00001 35.1105 17 23.00001 26.8 17.74134 23.00001 26.72701 19.51776 23.00001 33.88949 18.4542 23.00001 26.5107 19.65952 23.00001 32.6767 19.11117 23.00001 26.1596 19.94111 23.00001 31.4886 19.68701 23.00001 25.687 20.3587 23.00001 30.3412 20.1596 23.00001 25.1112 20.9067 23.00001 29.25 20.5107 23.00001 24.4542 20.727 23.00001 23.7413 21.5777 23.00001 28.2298 20.8 23.00001 23 21.5777 23.00001 17.7702 22.3626 23.00001 18.7055 22.3626 23.00001 27.2945 23.2507 23.00001 19.5435 23.2507 23.00001 26.4565 24.2302 23.00001 20.2726 24.2302 23.00001 25.7274 25.2876 23.00001 20.8831 25.2876 23.00001 25.1169 26.4088 23.00001 21.3668 26.4088 23.00001 24.6332 27.5785 23.00001 21.717 27.5785 23.00001 24.28301 28.781 23.00001 21.929 28.781 23.00001 24.07101 18.4542 23.00001 3.5107 19.65952 23.00001 9.676697 19.11117 23.00001 3.1596 19.94111 23.00001 8.488598 19.68701 23.00001 2.687004 20.3587 23.00001 7.341198 20.1596 23.00001 2.111199 20.9067 23.00001 6.25 20.5107 23.00001 1.454197 20.727 23.00001 0.7412989 21.5777 23.00001 5.229797 20.8 23.00001 2.02654e-7 21.5777 23.00001 -5.229801 22.3626 23.00001 -4.294502 22.3626 23.00001 4.294498 23.2507 23.00001 -3.456501 23.2507 23.00001 3.456497 24.2302 23.00001 -2.727401 24.2302 23.00001 2.727398 25.2876 23.00001 -2.116901 25.2876 23.00001 2.116898 26.4088 23.00001 -1.633201 26.4088 23.00001 1.633198 27.5785 23.00001 -1.282997 27.5785 23.00001 1.283001 28.781 23.00001 -1.070999 28.781 23.00001 1.071003 18.4542 23.00001 -19.4893 19.65952 23.00001 -13.3233 19.11117 23.00001 -19.8404 19.94111 23.00001 -14.5114 19.68701 23.00001 -20.313 20.3587 23.00001 -15.6588 20.1596 23.00001 -20.8888 20.9067 23.00001 -16.75 20.5107 23.00001 -21.5458 20.727 23.00001 -22.2587 14.88883 23.00001 26.1596 14.31299 23.00001 25.687 13.84042 23.00001 25.1112 13.48926 23.00001 24.4542 13.27302 23.00001 23.7413 28.781 -23.5 -44.929 27.5785 -23.5 -44.71697 26.4088 -23.5 -44.36677 25.2876 -23.5 -43.88314 24.2302 -23.5 -43.27262 23.2507 -23.5 -42.54347 22.3626 -23.5 -41.70554 21.5777 -23.5 -40.77017 20.9067 -23.5 -39.75 20.3587 -23.5 -38.6588 19.94111 -23.5 -37.5114 19.65952 -23.5 -36.3233 15.5458 -23.5 -26.5107 16.25866 -23.5 -26.727 19.51776 -23.5 -35.1105 17 -23.5 -26.8 17.74134 -23.5 -26.727 19.51776 -23.5 -33.8895 18.4542 -23.5 -26.5107 19.65952 -23.5 -32.6767 19.11117 -23.5 -26.1596 19.94111 -23.5 -31.4886 19.68701 -23.5 -25.687 20.3587 -23.5 -30.3412 20.1596 -23.5 -25.1112 20.9067 -23.5 -29.25 20.5107 -23.5 -24.4542 20.727 -23.5 -23.7413 21.5777 -23.5 -28.2298 20.8 -23.5 -23 21.5777 -23.5 -17.7702 20.727 -23.5 -22.2587 20.9067 -23.5 -16.75 20.5107 -23.5 -21.5458 20.1596 -23.5 -20.8888 20.3587 -23.5 -15.6588 19.68701 -23.5 -20.313 19.94111 -23.5 -14.5114 19.11117 -23.5 -19.8404 19.65952 -23.5 -13.3233 18.4542 -23.5 -19.4893 19.51776 -23.5 -12.1105 17.74134 -23.5 -19.273 19.51776 -23.5 -10.8895 17.74134 -23.5 -3.726997 18.4542 -23.5 -3.5107 19.65952 -23.5 -9.676701 19.11117 -23.5 -3.159599 19.94111 -23.5 -8.488602 19.68701 -23.5 -2.686996 20.3587 -23.5 -7.341202 20.1596 -23.5 -2.111202 20.9067 -23.5 -6.25 20.5107 -23.5 -1.454201 20.727 -23.5 -0.7413023 21.5777 -23.5 -5.229801 20.8 -23.5 2.02654e-7 21.5777 -23.5 5.229797 20.727 -23.5 0.7412989 20.9067 -23.5 6.25 20.5107 -23.5 1.454197 20.1596 -23.5 2.111199 20.3587 -23.5 7.341198 19.68701 -23.5 2.687004 19.94111 -23.5 8.488598 19.11117 -23.5 3.1596 19.65952 -23.5 9.676697 18.4542 -23.5 3.5107 19.51776 -23.5 10.8895 17.74134 -23.5 3.727001 19.51776 -23.5 12.1105 17.74134 -23.5 19.273 18.4542 -23.5 19.4893 19.65952 -23.5 13.3233 19.11117 -23.5 19.8404 19.94111 -23.5 14.5114 19.68701 -23.5 20.313 20.3587 -23.5 15.6588 20.1596 -23.5 20.8888 20.9067 -23.5 16.75 20.5107 -23.5 21.5458 20.727 -23.5 22.2587 21.5777 -23.5 17.7702 20.8 -23.5 23 21.5777 -23.5 28.2298 20.727 -23.5 23.7413 20.9067 -23.5 29.25 20.5107 -23.5 24.4542 20.1596 -23.5 25.1112 20.3587 -23.5 30.3412 19.68701 -23.5 25.687 19.94111 -23.5 31.4886 19.11117 -23.5 26.1596 19.65952 -23.5 32.6767 18.4542 -23.5 26.5107 19.51776 -23.5 33.88949 17.74134 -23.5 26.72701 19.51776 -23.5 35.1105 17 -23.5 26.8 16.25866 -23.5 26.72701 19.65952 -23.5 36.32329 15.5458 -23.5 26.5107 14.88883 -23.5 26.1596 14.31299 -23.5 25.687 13.84042 -23.5 25.1112 13.48926 -23.5 24.4542 13.27302 -23.5 23.7413 13.2 -23.5 23 13.2 -23.5 2.02654e-7 13.27302 -23.5 22.2587 13.27302 -23.5 0.7412989 13.48926 -23.5 21.5458 13.48926 -23.5 1.454197 13.84042 -23.5 20.8888 13.84042 -23.5 2.111199 14.31299 -23.5 20.313 14.31299 -23.5 2.687004 14.88883 -23.5 19.8404 14.88883 -23.5 3.1596 15.5458 -23.5 19.4893 15.5458 -23.5 3.5107 16.25866 -23.5 19.273 16.25866 -23.5 3.727001 17 -23.5 19.20001 17 -23.5 3.799999 22.3626 -23.5 -18.7055 22.3626 -23.5 -27.2945 23.2507 -23.5 -19.5435 23.2507 -23.5 -26.4565 24.2302 -23.5 -20.2726 24.2302 -23.5 -25.7274 25.2876 -23.5 -20.8831 25.2876 -23.5 -25.1169 26.4088 -23.5 -21.3668 26.4088 -23.5 -24.6332 27.5785 -23.5 -21.717 27.5785 -23.5 -24.283 28.781 -23.5 -21.929 28.781 -23.5 -24.071 22.3626 -23.5 4.294498 22.3626 -23.5 -4.294502 23.2507 -23.5 3.456497 23.2507 -23.5 -3.456501 24.2302 -23.5 2.727398 24.2302 -23.5 -2.727401 25.2876 -23.5 2.116898 25.2876 -23.5 -2.116901 26.4088 -23.5 1.633198 26.4088 -23.5 -1.633201 27.5785 -23.5 1.283001 27.5785 -23.5 -1.282997 28.781 -23.5 1.071003 28.781 -23.5 -1.070999 22.3626 -23.5 27.2945 22.3626 -23.5 18.7055 23.2507 -23.5 26.4565 23.2507 -23.5 19.5435 24.2302 -23.5 25.7274 24.2302 -23.5 20.2726 25.2876 -23.5 25.1169 25.2876 -23.5 20.8831 26.4088 -23.5 24.6332 26.4088 -23.5 21.3668 27.5785 -23.5 24.28301 27.5785 -23.5 21.717 28.781 -23.5 24.07101 28.781 -23.5 21.929 19.94111 -23.5 37.5114 20.3587 -23.5 38.6588 20.9067 -23.5 39.75 21.5777 -23.5 40.77019 22.3626 -23.5 41.7055 23.2507 -23.5 42.54349 24.2302 -23.5 43.2726 25.2876 -23.5 43.88309 26.4088 -23.5 44.3668 27.5785 -23.5 44.717 28.781 -23.5 44.929 13.2 -23.5 -23 13.27302 -23.5 -0.7413023 13.27302 -23.5 -22.2587 13.48926 -23.5 -1.454201 13.48926 -23.5 -21.5458 13.84042 -23.5 -2.111202 13.84042 -23.5 -20.8888 14.31299 -23.5 -2.686996 14.31299 -23.5 -20.313 14.88883 -23.5 -3.159599 14.88883 -23.5 -19.8404 15.5458 -23.5 -3.5107 15.5458 -23.5 -19.4893 16.25866 -23.5 -3.726997 16.25866 -23.5 -19.273 17 -23.5 -3.799999 17 -23.5 -19.2 14.88883 -23.5 -26.1596 14.31299 -23.5 -25.687 13.84042 -23.5 -25.1112 13.48926 -23.5 -24.4542 13.27302 -23.5 -23.7413 28.781 -0.2499942 44.929 27.5785 -0.2499942 44.717 26.4088 -0.2499942 44.3668 25.2876 -0.2499942 43.88309 24.2302 -0.2499942 43.2726 23.2507 -0.2499942 42.54349 22.3626 -0.2499942 41.7055 21.5777 -0.2499942 40.77019 20.9067 -0.2499942 39.75 20.3587 -0.2499942 38.6588 19.94111 -0.2499942 37.5114 19.65952 -0.2499942 36.32329 19.51776 -0.2499942 35.1105 19.51776 -0.2499942 33.88949 19.65952 -0.2499942 32.6767 19.94111 -0.2499942 31.4886 20.3587 -0.2499942 30.3412 20.9067 -0.2499942 29.25 21.5777 -0.2499942 28.2298 22.3626 -0.2499942 27.2945 23.2507 -0.2499942 26.4565 24.2302 -0.2499942 25.7274 25.2876 -0.2499942 25.1169 26.4088 -0.2499942 24.6332 27.5785 -0.2499942 24.28301 28.781 -0.2499942 24.07101 28.781 -0.2499942 21.929 27.5785 -0.2499942 21.717 26.4088 -0.2499942 21.3668 25.2876 -0.2499942 20.8831 24.2302 -0.2499942 20.2726 23.2507 -0.2499942 19.5435 22.3626 -0.2499942 18.7055 21.5777 -0.2499942 17.7702 20.9067 -0.2499942 16.75 20.3587 -0.2499942 15.6588 19.94111 -0.2499942 14.5114 19.65952 -0.2499942 13.3233 19.51776 -0.2499942 12.1105 19.51776 -0.2499942 10.8895 19.65952 -0.2499942 9.676697 19.94111 -0.2499942 8.488598 20.3587 -0.2499942 7.341198 20.9067 -0.2499942 6.25 21.5777 -0.2499942 5.229797 22.3626 -0.2499942 4.294498 23.2507 -0.2499942 3.456497 24.2302 -0.2499942 2.727398 25.2876 -0.2499942 2.116898 26.4088 -0.2499942 1.633198 27.5785 -0.2499942 1.283001 28.781 -0.2499942 1.071003 28.781 -0.2499942 -1.070999 27.5785 -0.2499942 -1.282997 26.4088 -0.2499942 -1.633201 25.2876 -0.2499942 -2.116901 24.2302 -0.2499942 -2.727401 23.2507 -0.2499942 -3.456501 22.3626 -0.2499942 -4.294502 21.5777 -0.2499942 -5.229801 20.9067 -0.2499942 -6.25 20.3587 -0.2499942 -7.341202 19.94111 -0.2499942 -8.488602 19.65952 -0.2499942 -9.676701 19.51776 -0.2499942 -10.8895 19.51776 -0.2499942 -12.1105 19.65952 -0.2499942 -13.3233 19.94111 -0.2499942 -14.5114 20.3587 -0.2499942 -15.6588 20.9067 -0.2499942 -16.75 21.5777 -0.2499942 -17.7702 22.3626 -0.2499942 -18.7055 23.2507 -0.2499942 -19.5435 24.2302 -0.2499942 -20.2726 25.2876 -0.2499942 -20.8831 26.4088 -0.2499942 -21.3668 27.5785 -0.2499942 -21.717 28.781 -0.2499942 -21.929 28.781 -0.2499942 -24.071 27.5785 -0.2499942 -24.283 26.4088 -0.2499942 -24.6332 25.2876 -0.2499942 -25.1169 24.2302 -0.2499942 -25.7274 23.2507 -0.2499942 -26.4565 22.3626 -0.2499942 -27.2945 21.5777 -0.2499942 -28.2298 20.9067 -0.2499942 -29.25 20.3587 -0.2499942 -30.3412 19.94111 -0.2499942 -31.4886 19.65952 -0.2499942 -32.6767 19.51776 -0.2499942 -33.8895 19.51776 -0.2499942 -35.1105 19.65952 -0.2499942 -36.3233 19.94111 -0.2499942 -37.5114 20.3587 -0.2499942 -38.6588 20.9067 -0.2499942 -39.75 21.5777 -0.2499942 -40.77017 22.3626 -0.2499942 -41.70554 23.2507 -0.2499942 -42.54347 24.2302 -0.2499942 -43.27262 25.2876 -0.2499942 -43.88314 26.4088 -0.2499942 -44.36677 27.5785 -0.2499942 -44.71697 28.781 -0.2499942 -44.929 16.25866 25.80001 -19.273 17 25.80001 -19.2 17.74134 25.80001 -19.273 18.4542 25.80001 -19.4893 19.11117 25.80001 -19.8404 19.68701 25.80001 -20.313 20.1596 25.80001 -20.8888 20.5107 25.80001 -21.5458 20.727 25.80001 -22.2587 20.8 25.80001 -23 20.727 25.80001 -23.7413 20.5107 25.80001 -24.4542 20.1596 25.80001 -25.1112 19.68701 25.80001 -25.687 19.11117 25.80001 -26.1596 18.4542 25.80001 -26.5107 17.74134 25.80001 -26.727 17 25.80001 -26.8 16.25866 25.80001 -26.727 15.5458 25.80001 -26.5107 14.88883 25.80001 -26.1596 14.31299 25.80001 -25.687 13.84042 25.80001 -25.1112 13.48926 25.80001 -24.4542 13.27302 25.80001 -23.7413 13.2 25.80001 -23 13.27302 25.80001 -22.2587 13.48926 25.80001 -21.5458 13.84042 25.80001 -20.8888 14.31299 25.80001 -20.313 14.88883 25.80001 -19.8404 15.5458 25.80001 -19.4893 16.25866 25.80001 3.727001 17 25.80001 3.799999 17.74134 25.80001 3.727001 18.4542 25.80001 3.5107 19.11117 25.80001 3.1596 19.68701 25.80001 2.687004 20.1596 25.80001 2.111199 20.5107 25.80001 1.454197 20.727 25.80001 0.7412989 20.8 25.80001 2.02654e-7 20.727 25.80001 -0.7413023 20.5107 25.80001 -1.454201 20.1596 25.80001 -2.111202 19.68701 25.80001 -2.686996 19.11117 25.80001 -3.159599 18.4542 25.80001 -3.5107 17.74134 25.80001 -3.726997 17 25.80001 -3.799999 16.25866 25.80001 -3.726997 15.5458 25.80001 -3.5107 14.88883 25.80001 -3.159599 14.31299 25.80001 -2.686996 13.84042 25.80001 -2.111202 13.48926 25.80001 -1.454201 13.27302 25.80001 -0.7413023 13.2 25.80001 2.02654e-7 13.27302 25.80001 0.7412989 13.48926 25.80001 1.454197 13.84042 25.80001 2.111199 14.31299 25.80001 2.687004 14.88883 25.80001 3.1596 15.5458 25.80001 3.5107 16.25866 25.80001 26.72701 17 25.80001 26.8 17.74134 25.80001 26.72701 18.4542 25.80001 26.5107 19.11117 25.80001 26.1596 19.68701 25.80001 25.687 20.1596 25.80001 25.1112 20.5107 25.80001 24.4542 20.727 25.80001 23.7413 20.8 25.80001 23 20.727 25.80001 22.2587 20.5107 25.80001 21.5458 20.1596 25.80001 20.8888 19.68701 25.80001 20.313 19.11117 25.80001 19.8404 18.4542 25.80001 19.4893 17.74134 25.80001 19.273 17 25.80001 19.20001 16.25866 25.80001 19.273 15.5458 25.80001 19.4893 14.88883 25.80001 19.8404 14.31299 25.80001 20.313 13.84042 25.80001 20.8888 13.48926 25.80001 21.5458 13.27302 25.80001 22.2587 13.2 25.80001 23 13.27302 25.80001 23.7413 13.48926 25.80001 24.4542 13.84042 25.80001 25.1112 14.31299 25.80001 25.687 14.88883 25.80001 26.1596 15.5458 25.80001 26.5107 16.25866 -26.29999 -26.727 17 -26.29999 -26.8 17.74134 -26.29999 -26.727 18.4542 -26.29999 -26.5107 19.11117 -26.29999 -26.1596 19.68701 -26.29999 -25.687 20.1596 -26.29999 -25.1112 20.5107 -26.29999 -24.4542 20.727 -26.29999 -23.7413 20.8 -26.29999 -23 20.727 -26.29999 -22.2587 20.5107 -26.29999 -21.5458 20.1596 -26.29999 -20.8888 19.68701 -26.29999 -20.313 19.11117 -26.29999 -19.8404 18.4542 -26.29999 -19.4893 17.74134 -26.29999 -19.273 17 -26.29999 -19.2 16.25866 -26.29999 -19.273 15.5458 -26.29999 -19.4893 14.88883 -26.29999 -19.8404 14.31299 -26.29999 -20.313 13.84042 -26.29999 -20.8888 13.48926 -26.29999 -21.5458 13.27302 -26.29999 -22.2587 13.2 -26.29999 -23 13.27302 -26.29999 -23.7413 13.48926 -26.29999 -24.4542 13.84042 -26.29999 -25.1112 14.31299 -26.29999 -25.687 14.88883 -26.29999 -26.1596 15.5458 -26.29999 -26.5107 16.25866 -26.29999 -3.726997 17 -26.29999 -3.799999 17.74134 -26.29999 -3.726997 18.4542 -26.29999 -3.5107 19.11117 -26.29999 -3.159599 19.68701 -26.29999 -2.686996 20.1596 -26.29999 -2.111202 20.5107 -26.29999 -1.454201 20.727 -26.29999 -0.7413023 20.8 -26.29999 2.02654e-7 20.727 -26.29999 0.7412989 20.5107 -26.29999 1.454197 20.1596 -26.29999 2.111199 19.68701 -26.29999 2.687004 19.11117 -26.29999 3.1596 18.4542 -26.29999 3.5107 17.74134 -26.29999 3.727001 17 -26.29999 3.799999 16.25866 -26.29999 3.727001 15.5458 -26.29999 3.5107 14.88883 -26.29999 3.1596 14.31299 -26.29999 2.687004 13.84042 -26.29999 2.111199 13.48926 -26.29999 1.454197 13.27302 -26.29999 0.7412989 13.2 -26.29999 2.02654e-7 13.27302 -26.29999 -0.7413023 13.48926 -26.29999 -1.454201 13.84042 -26.29999 -2.111202 14.31299 -26.29999 -2.686996 14.88883 -26.29999 -3.159599 15.5458 -26.29999 -3.5107 16.25866 -26.29999 19.273 17 -26.29999 19.20001 17.74134 -26.29999 19.273 18.4542 -26.29999 19.4893 19.11117 -26.29999 19.8404 19.68701 -26.29999 20.313 20.1596 -26.29999 20.8888 20.5107 -26.29999 21.5458 20.727 -26.29999 22.2587 20.8 -26.29999 23 20.727 -26.29999 23.7413 20.5107 -26.29999 24.4542 20.1596 -26.29999 25.1112 19.68701 -26.29999 25.687 19.11117 -26.29999 26.1596 18.4542 -26.29999 26.5107 17.74134 -26.29999 26.72701 17 -26.29999 26.8 16.25866 -26.29999 26.72701 15.5458 -26.29999 26.5107 14.88883 -26.29999 26.1596 14.31299 -26.29999 25.687 13.84042 -26.29999 25.1112 13.48926 -26.29999 24.4542 13.27302 -26.29999 23.7413 13.2 -26.29999 23 13.27302 -26.29999 22.2587 13.48926 -26.29999 21.5458 13.84042 -26.29999 20.8888 14.31299 -26.29999 20.313 14.88883 -26.29999 19.8404 15.5458 -26.29999 19.4893</float_array>
          <technique_common>
            <accessor source="#shape0_005-mesh-positions-array" count="728" stride="3">
              <param name="X" type="float"/>
              <param name="Y" type="float"/>
              <param name="Z" type="float"/>
            </accessor>
          </technique_common>
        </source>
        <source id="shape0_005-mesh-normals">
          <float_array id="shape0_005-mesh-normals-array" count="1548">0 1 0 0 0 1 0 -1 0 0 0 -1 -1 0 0 1 0 0 0 1 3.98083e-6 0 1 -4.91626e-7 0 1 7.02719e-7 0 1 3.83521e-7 0 1 -1.02068e-6 0 1 -1.89753e-6 0 1 -2.0204e-7 0 1 -1.63309e-6 0 1 4.26312e-7 0 1 -5.51114e-7 0 1 -7.22672e-7 0 1 0 0 1 9.79893e-7 0 1 -2.11061e-7 0 1 -1.29127e-6 0 1 3.18695e-6 0 1 8.33055e-7 0 1 4.26311e-7 0 1 -7.22669e-7 0 1 -2.2486e-7 0 1 1.29121e-6 0 1 7.15503e-7 0 1 -3.18679e-6 0 1 -6.35616e-7 0 1 -9.79891e-7 0 1 -3.11095e-7 0 1 0 0 1 -2.49933e-6 0 1 1.89755e-6 0 1 -1.27643e-6 0 1 1.02068e-6 0 1 -4.26311e-7 0 1 -3.83523e-7 0 1 2.75557e-7 0 1 -7.02719e-7 0 1 7.22677e-7 0 1 4.91625e-7 0 1 -3.98083e-6 0 1 -4.91628e-7 0 1 1.02068e-6 0 1 -3.83524e-7 0 1 4.91627e-7 0 1 3.98077e-6 0 1 -4.91628e-7 0 1 -3.83521e-7 0 1 -3.98077e-6 0 1 0 0 1 -4.09506e-7 0 1 3.57113e-7 0 1 6.58664e-7 0 -1 -6.53268e-7 0 -1 -7.15493e-7 0 -1 3.33222e-6 0 -1 -2.12463e-6 0 -1 -2.47336e-6 0 -1 1.07606e-6 0 -1 -2.43657e-6 0 -1 1.85091e-6 0 -1 4.35533e-7 0 -1 -2.49931e-6 0 -1 2.58755e-6 0 -1 -1.20248e-6 0 -1 6.9483e-7 0 -1 2.04136e-7 0 -1 -4.26313e-7 0 -1 3.83521e-7 0 -1 -2.75557e-7 0 -1 -7.02719e-7 0 -1 7.22669e-7 0 -1 7.02719e-7 0 -1 -3.83521e-7 0 -1 8.52622e-7 0 -1 -2.04136e-7 0 -1 -1.38966e-6 0 -1 -3.83524e-7 0 -1 -2.04136e-7 0 -1 6.94834e-7 0 -1 -4.26311e-7 0 -1 -3.83523e-7 0 -1 1.20248e-6 0 -1 -2.58757e-6 0 -1 -1.09202e-6 0 -1 -3.51286e-6 0 -1 3.44254e-7 0 -1 -1.85091e-6 0 -1 3.38995e-6 0 -1 -1.47749e-6 0 -1 -1.076e-6 0 -1 3.59776e-6 0 -1 2.12453e-6 0 -1 -2.49932e-6 0 -1 1.43101e-6 0 -1 6.53262e-7 0 -1 -3.56765e-7 0 -1 8.19014e-7 0 -1 -5.95185e-7 0 -1 1.75645e-6 0.05814188 0 -0.9983084 0.05815041 0 -0.9983079 0.1736201 0 -0.9848127 0.1736201 0 -0.9848127 0.2868127 0 -0.9579868 0.2868206 0 -0.9579843 0.3961241 0 -0.918197 0.3961241 0 -0.918197 0.5000053 0 -0.8660224 0.5000053 0 -0.8660224 0.5971023 0 -0.8021652 0.5970995 0 -0.8021672 0.6862938 0 -0.7273245 0.6862915 0 -0.7273267 0.7660105 0 -0.6428282 0.7660087 0 -0.6428303 0.8354861 0 -0.5495117 0.8354848 0 -0.5495137 0.8936402 0 -0.4487844 0.8936392 0 -0.4487861 0.9397004 0 -0.3419988 0.9396999 0 -0.3420001 0.9730442 0 -0.2306187 0.9730442 0 -0.2306188 0.993238 0 -0.1160964 0.9932381 0 -0.1160959 0.9932381 0 0.1160959 0.993238 0 0.1160964 0.9730439 0 0.2306197 0.9730437 0 0.2306207 0.9396999 0 0.3420002 0.9397004 0 0.3419988 0.8936393 0 0.4487861 0.8936402 0 0.4487844 0.8354874 0 0.5495097 0.7660087 0 0.6428303 0.7660105 0 0.6428282 0.6862915 0 0.7273266 0.6862915 0 0.7273267 0.5970995 0 0.8021672 0.5970967 0 0.8021693 0.5000085 0 0.8660205 0.5000085 0 0.8660206 0.3961206 0 0.9181987 0.3961205 0 0.9181987 0.2868127 0 0.9579868 0.1736201 0 0.9848127 0.1736201 0 0.9848127 0.05815041 0 0.9983079 0.2868127 0 0.9579867 0.2868127 0 0.9579868 0.3961206 0 0.9181986 0.8936402 0 0.4487844 0.8936393 0 0.4487861 0.9397004 0 0.3419988 0.9396999 0 0.3420002 0.9730437 0 0.2306207 0.973044 0 0.2306197 0.993238 0 0.1160964 0.993238 0 0.1160959 0.9932381 0 -0.1160959 0.993238 0 -0.1160964 0.9730442 0 -0.2306187 0.9396999 0 -0.3420002 0.9397004 0 -0.3419988 0.8936393 0 -0.4487861 0.8936401 0 -0.4487843 0.6862915 0 -0.7273266 0.6862937 0 -0.7273246 0.3961241 0 -0.9181969 0.2868206 0 -0.9579844 0.2868127 0 -0.9579868 0.05814611 0 -0.9983082 0.05814397 0 -0.9983082 0.2868186 0 -0.9579849 0.2868167 0 -0.9579856 0.3961259 0 -0.9181962 0.5000037 0 -0.8660234 0.5000036 0 -0.8660233 0.6862927 0 -0.7273256 0.7660096 0 -0.6428292 0.8354855 0 -0.5495127 0.8936397 0 -0.4487852 0.8936402 0 -0.4487844 0.9397003 0 -0.3419995 0.9730439 0 -0.2306197 0.9730439 0 -0.2306197 0.993238 0 -0.1160961 0.9932381 0 0.1160958 0.9932381 0 0.1160958 0.973044 0 0.2306195 0.9397001 0 0.3419998 0.9397003 0 0.3419995 0.893639 0 0.4487864 0.8936392 0 0.4487861 0.8354871 0 0.5495103 0.7660082 0 0.6428308 0.686294 0 0.7273242 0.6862937 0 0.7273246 0.5970999 0 0.8021669 0.5971 0 0.8021669 0.5000063 0 0.8660219 0.5000065 0 0.8660218 0.3961219 0 0.918198 0.3961221 0 0.9181979 0.2868122 0 0.9579869 0.2868123 0 0.9579868 0.1736199 0 0.9848128 0.05814826 0 0.998308 0.05814844 0 0.998308 0.2868124 0 0.9579868 0.2868122 0 0.9579868 0.3961221 0 0.9181979 0.3961219 0 0.918198 0.6862938 0 0.7273245 0.686294 0 0.7273243 0.893639 0 0.4487864 0.9397001 0 0.3419995 0.9397001 0 0.3419999 0.973044 0 0.2306195 0.9932381 0 0.1160958 0.993238 0 -0.1160961 0.993238 0 -0.1160959 0.973044 0 -0.2306197 0.9397001 0 -0.3419995 0.9396999 0 -0.3420002 0.8936397 0 -0.4487851 0.6862926 0 -0.7273256 0.396126 0 -0.9181963 0.2868167 0 -0.9579855 0.2868186 0 -0.9579849 0.05814522 0 -0.9983082 0.05814546 0 -0.9983082 0.1736199 0 -0.9848127 0.2868179 0 -0.9579852 0.2868181 0 -0.9579851 0.3961216 0 -0.9181981 0.3961221 0 -0.9181979 0.5000063 0 -0.8660219 0.5000065 0 -0.8660218 0.5970999 0 -0.8021669 0.6862944 0 -0.727324 0.7660082 0 -0.6428308 0.7660084 0 -0.6428306 0.8354864 0 -0.5495112 0.8936399 0 -0.4487848 0.8936397 0 -0.4487853 0.9397001 0 -0.3419998 0.973044 0 -0.2306195 0.993238 0 0.1160961 0.9932381 0 0.1160959 0.9730441 0 0.2306193 0.9730442 0 0.2306188 0.9396999 0 0.3420001 0.7660079 0 0.6428313 0.5971009 0 0.8021662 0.5000069 0 0.8660215 0.5000053 0 0.8660224 0.3961223 0 0.9181978 0.3961223 0 0.9181978 0.2868147 0 0.9579862 0.1736221 0 0.9848124 0.05814611 0 0.9983082 0.2868146 0 0.9579861 0.3961223 0 0.9181978 0.9397002 0 0.3419995 0.9730442 0 0.2306187 0.9730441 0 0.2306192 0.993238 0 0.1160961 0.993238 0 -0.1160961 0.973044 0 -0.2306194 0.9397001 0 -0.3419998 0.9397002 0 -0.3419995 0.8936399 0 -0.4487847 0.6862943 0 -0.727324 0.3961221 0 -0.9181979 0.3961217 0 -0.9181981 0.2868182 0 -0.9579851 0.2868179 0 -0.9579852 0.993238 0 -0.1160964 0.9730439 0 0.2306197 0.8936384 0 0.4487878 0.8354796 0 0.5495216 0.8354783 0 0.5495235 0.7660318 0 0.6428027 0.7660335 0 0.6428006 0.6862619 0 0.7273545 0.6862619 0 0.7273546 0.5971271 0 0.8021466 0.59713 0 0.8021446 0.5000182 0 0.8660149 0.5000182 0 0.866015 0.3960697 0 0.9182204 0.3960806 0 0.9182158 0.1736451 0 0.9848084 0.1736451 0 0.9848083 0.05814188 0 0.9983084 0.3960806 0 0.9182158 0.3960698 0 0.9182205 0.8936384 0 0.4487878 0.9397004 0 0.3419988 0.9730442 0 0.2306187 0.993238 0 0.1160964 0.2868127 0 -0.9579867 0.2868166 0 -0.9579855 -0.09799212 0 0.9951872 -0.09799957 0 0.9951865 0.09799939 0 0.9951866 0.0979923 0 0.9951872 0.290356 0 0.9569187 0.2903588 0 0.9569178 0.4713357 0 0.8819539 0.4713365 0 0.8819535 0.6344053 0 0.7730007 0.6344075 0 0.7729989 0.7729833 0 0.6344264 0.7729863 0 0.6344228 0.8819609 0 0.4713227 0.8819628 0 0.4713189 0.9569238 0 0.2903394 0.9569234 0 0.2903404 0.9951865 0 0.09799951 0.9951865 0 0.09799939 0.9951866 0 -0.09799838 0.9951866 0 -0.09799903 0.9569238 0 -0.2903394 0.9569231 0 -0.2903414 0.8819617 0 -0.4713211 0.8819621 0 -0.4713204 0.7729833 0 -0.6344264 0.7729803 0 -0.63443 0.6344118 0 -0.7729953 0.4713357 0 -0.8819539 0.4713365 0 -0.8819535 0.2903527 0 -0.9569198 0.2903521 0 -0.9569199 0.09799939 0 -0.9951866 0.0979923 0 -0.9951872 -0.09799212 0 -0.9951872 -0.09799957 0 -0.9951865 -0.2903527 0 -0.9569198 -0.2903521 0 -0.9569199 -0.4713357 0 -0.8819539 -0.4713365 0 -0.8819535 -0.6344118 0 -0.7729953 -0.7729929 0 -0.6344147 -0.7729958 0 -0.6344111 -0.881929 0 -0.4713823 -0.956946 0 -0.2902665 -0.9569465 0 -0.2902644 -0.9951837 0 -0.09802824 -0.9951837 0 -0.09802752 -0.9951837 0 0.0980286 -0.9569463 0 0.2902655 -0.9569465 0 0.2902644 -0.8819299 0 0.4713808 -0.8819282 0 0.4713838 -0.7729988 0 0.6344076 -0.7729958 0 0.6344111 -0.6344075 0 0.7729989 -0.6344053 0 0.7730007 -0.4713357 0 0.8819539 -0.4713365 0 0.8819535 -0.2903593 0 0.9569177 -0.2903555 0 0.9569189 -0.09799301 0 0.9951871 -0.09799408 0 0.9951871 0.09799396 0 0.9951871 0.09799319 0 0.9951871 0.2903552 0 0.956919 0.2903546 0 0.9569191 0.4713379 0 0.8819528 0.4713379 0 0.8819528 0.6344058 0 0.7730002 0.7729855 0 0.6344237 0.7729857 0 0.6344235 0.8819621 0 0.4713204 0.8819627 0 0.4713195 0.9569234 0 0.2903408 0.9569234 0 0.2903407 0.9951866 0 0.09799921 0.9951865 0 0.09799909 0.9951866 0 -0.09799873 0.9951866 0 -0.09799861 0.9569234 0 -0.2903407 0.9569234 0 -0.2903406 0.8819621 0 -0.4713204 0.8819625 0 -0.4713197 0.7729794 0 -0.6344311 0.7729792 0 -0.6344314 0.4713372 0 -0.8819532 0.4713379 0 -0.8819528 0.290351 0 -0.9569203 0.2903496 0 -0.9569207 0.09799844 0 -0.9951866 0.09799957 0 -0.9951865 -0.09799939 0 -0.9951866 -0.09799861 0 -0.9951866 -0.2903501 0 -0.9569206 -0.2903504 0 -0.9569205 -0.4713372 0 -0.8819532 -0.4713379 0 -0.8819528 -0.7729918 0 -0.6344161 -0.7729921 0 -0.6344159 -0.8819294 0 -0.4713816 -0.9569461 0 -0.2902657 -0.9569461 0 -0.2902657 -0.9951838 0 -0.09802782 -0.9951837 0 -0.09802782 -0.9951837 0 0.09802836 -0.9951837 0 0.0980283 -0.9569461 0 0.2902657 -0.956946 0 0.2902659 -0.8819295 0 0.4713813 -0.8819294 0 0.4713816 -0.7729982 0 0.6344082 -0.772998 0 0.6344084 -0.6344058 0 0.7730002 -0.4713372 0 0.8819532 -0.4713386 0 0.8819524 -0.2903552 0 0.956919 -0.2903546 0 0.9569191 -0.0979923 0 0.9951872 0.09799212 0 0.9951872 0.2903661 0 0.9569157 0.2903655 0 0.9569159 0.4713301 0 0.8819569 0.6344031 0 0.7730025 0.8819602 0 0.4713242 0.8819621 0 0.4713204 0.9569244 0 0.2903374 0.9951865 0 0.09799987 0.9951866 0 0.09799903 0.9951866 0 -0.09799915 0.9951866 0 -0.09799867 0.9569234 0 -0.2903404 0.8819609 0 -0.4713227 0.8819613 0 -0.471322 0.7729818 0 -0.6344283 0.4713414 0 -0.8819509 0.4713422 0 -0.8819505 0.2903459 0 -0.9569218 0.2903454 0 -0.956922 0.09799575 0 -0.9951869 -0.09799593 0 -0.9951868 -0.2903459 0 -0.9569218 -0.2903454 0 -0.956922 -0.4713414 0 -0.8819509 -0.4713422 0 -0.8819505 -0.7729944 0 -0.634413 -0.8819282 0 -0.4713838 -0.9569463 0 -0.2902655 -0.9951837 0 -0.09802788 -0.9951837 0 0.09802824 -0.9951836 0 0.09802895 -0.9569472 0 0.2902624 -0.881929 0 0.4713823 -0.8819274 0 0.4713853 -0.6344031 0 0.7730025 -0.4713308 0 0.8819565 -0.2903661 0 0.9569157 -0.2903655 0 0.9569159 -0.0979923 0 -0.9951872 0.4713361 0 -0.8819537 0.6344123 0 -0.772995 0.7729799 0 -0.6344305 0.9569237 0 -0.2903398 0.9569237 0 0.2903398 0.8819613 0 0.471322 0.7729858 0 0.6344234 0.6344057 0 0.7730003 0.4713361 0 0.8819537 0.09799957 0 0.9951865 -0.4713361 0 0.8819537 -0.6344079 0 0.7729985 -0.7729954 0 0.6344117 -0.9951836 0 0.09802865 -0.9951837 0 -0.09802836 -0.7729954 0 -0.6344117 -0.6344123 0 -0.772995 -0.4713361 0 -0.8819537 0.09799861 0 -0.9951866 0.4713376 0 -0.881953 0.7729789 0 -0.634432 0.9569233 0 -0.2903411 0.9951866 0 -0.09799873 0.9951865 0 0.09799921 0.9569233 0 0.2903412 0.8819625 0 0.4713197 0.7729852 0 0.6344241 0.4713382 0 0.8819525 0.09799408 0 0.9951871 -0.09799319 0 0.9951871 -0.4713376 0 0.881953 -0.6344062 0 0.7729998 -0.7729976 0 0.634409 -0.9951837 0 0.09802842 -0.9951838 0 -0.09802794 -0.7729916 0 -0.6344164 -0.4713376 0 -0.881953 0.09799593 0 -0.9951868 0.4713418 0 -0.8819507 0.9569233 0 -0.2903408 0.9951866 0 -0.09799879 0.9951866 0 0.09799915 0.8819605 0 0.4713235 0.6344035 0 0.773002 0.4713305 0 0.8819568 -0.7729983 0 0.6344081 -0.9951837 0 0.09802836 -0.9951837 0 -0.098028 -0.7729939 0 -0.6344135 -0.4713418 0 -0.8819507</float_array>
          <technique_common>
            <accessor source="#shape0_005-mesh-normals-array" count="516" stride="3">
              <param name="X" type="float"/>
              <param name="Y" type="float"/>
              <param name="Z" type="float"/>
            </accessor>
          </technique_common>
        </source>
        <vertices id="shape0_005-mesh-vertices">
          <input semantic="POSITION" source="#shape0_005-mesh-positions"/>
        </vertices>
        <triangles material="Material_002-material" count="1452">
          <input semantic="VERTEX" source="#shape0_005-mesh-vertices" offset="0"/>
          <input semantic="NORMAL" source="#shape0_005-mesh-normals" offset="1"/>
          <p>0 0 1 0 2 0 2 0 1 0 3 0 4 1 0 1 5 1 5 1 0 1 2 1 6 2 4 2 7 2 7 2 4 2 5 2 1 3 6 3 3 3 3 3 6 3 7 3 7 4 5 4 3 4 3 4 5 4 2 4 8 5 9 5 10 5 10 5 9 5 11 5 12 5 13 5 14 5 14 5 13 5 15 5 16 5 17 5 18 5 18 5 17 5 19 5 20 5 21 5 22 5 22 5 21 5 23 5 0 4 24 4 1 4 1 4 24 4 25 4 1 4 25 4 6 4 6 4 25 4 26 4 6 4 26 4 4 4 4 4 26 4 0 4 0 4 26 4 27 4 0 4 27 4 24 4 26 1 20 1 27 1 27 1 20 1 22 1 28 5 29 5 30 5 30 5 29 5 31 5 30 3 25 3 28 3 28 3 25 3 24 3 10 0 11 0 32 0 32 0 11 0 33 0 32 0 33 0 34 0 34 0 33 0 35 0 34 0 35 0 36 0 36 0 35 0 37 0 36 0 37 0 38 0 38 0 37 0 39 0 38 0 39 0 40 0 40 0 39 0 41 0 40 0 41 0 42 0 42 0 41 0 43 0 42 0 43 0 44 0 44 0 43 0 45 0 44 0 45 0 46 0 46 0 45 0 47 0 46 0 47 0 48 0 48 6 47 6 49 6 49 7 47 7 50 7 49 0 50 0 51 0 51 0 50 0 52 0 52 0 50 0 53 0 52 0 53 0 54 0 54 8 53 8 55 8 54 0 55 0 56 0 56 9 55 9 57 9 56 0 57 0 58 0 58 10 57 10 59 10 58 0 59 0 60 0 60 0 59 0 61 0 60 0 61 0 62 0 62 0 61 0 63 0 63 11 61 11 64 11 63 0 64 0 65 0 65 12 64 12 24 12 65 0 24 0 66 0 66 0 24 0 67 0 67 0 24 0 68 0 68 0 24 0 69 0 69 0 24 0 70 0 70 0 24 0 71 0 71 0 24 0 72 0 71 0 72 0 73 0 73 0 72 0 74 0 73 0 74 0 75 0 75 0 74 0 76 0 75 0 76 0 77 0 77 0 76 0 78 0 77 0 78 0 79 0 79 0 78 0 80 0 79 0 80 0 81 0 81 0 80 0 82 0 81 0 82 0 83 0 83 0 82 0 84 0 83 0 84 0 85 0 85 0 84 0 86 0 85 0 86 0 87 0 87 0 86 0 88 0 87 0 88 0 89 0 89 0 88 0 90 0 89 0 90 0 91 0 91 0 90 0 92 0 92 0 90 0 93 0 92 13 93 13 94 13 94 14 93 14 95 14 94 0 95 0 96 0 96 15 95 15 97 15 96 0 97 0 98 0 98 0 97 0 99 0 98 0 99 0 100 0 100 0 99 0 101 0 100 16 101 16 102 16 64 0 103 0 24 0 24 17 103 17 104 17 24 18 104 18 105 18 105 0 106 0 24 0 24 19 106 19 107 19 24 20 107 20 108 20 108 0 109 0 24 0 24 0 109 0 28 0 28 21 109 21 110 21 28 22 110 22 111 22 111 0 112 0 28 0 28 0 112 0 113 0 28 0 113 0 29 0 24 0 27 0 72 0 72 0 27 0 114 0 72 0 114 0 115 0 115 0 114 0 116 0 115 0 116 0 117 0 117 0 116 0 118 0 117 0 118 0 119 0 119 0 118 0 120 0 119 0 120 0 121 0 121 0 120 0 122 0 121 0 122 0 123 0 123 0 122 0 124 0 123 0 124 0 125 0 125 0 124 0 126 0 125 0 126 0 127 0 127 0 126 0 128 0 127 0 128 0 129 0 129 0 128 0 130 0 129 0 130 0 131 0 131 0 130 0 132 0 131 0 132 0 133 0 133 0 132 0 134 0 134 0 132 0 135 0 134 13 135 13 136 13 136 23 135 23 137 23 136 0 137 0 138 0 138 15 137 15 139 15 138 0 139 0 140 0 140 0 139 0 141 0 140 0 141 0 142 0 142 0 141 0 143 0 142 24 143 24 144 24 22 0 145 0 27 0 27 25 145 25 146 25 27 26 146 26 147 26 23 0 148 0 22 0 22 0 148 0 149 0 22 27 149 27 150 27 150 0 151 0 22 0 22 28 151 28 145 28 147 0 152 0 27 0 27 29 152 29 153 29 27 30 153 30 154 30 154 0 155 0 27 0 27 31 155 31 156 31 27 32 156 32 157 32 157 33 156 33 158 33 158 34 156 34 159 34 158 35 159 35 160 35 160 0 159 0 161 0 161 0 159 0 162 0 161 0 162 0 163 0 163 36 162 36 164 36 163 37 164 37 165 37 165 38 164 38 166 38 165 39 166 39 167 39 167 40 166 40 168 40 167 0 168 0 169 0 169 0 168 0 170 0 169 0 170 0 171 0 171 41 170 41 172 41 172 42 170 42 173 42 172 43 173 43 174 43 174 0 173 0 175 0 174 6 175 6 144 6 144 44 175 44 142 44 175 0 173 0 176 0 176 0 173 0 177 0 176 0 177 0 178 0 178 0 177 0 179 0 178 0 179 0 180 0 180 0 179 0 181 0 180 0 181 0 182 0 182 0 181 0 183 0 182 0 183 0 184 0 184 0 183 0 185 0 184 0 185 0 186 0 186 0 185 0 187 0 186 0 187 0 188 0 188 0 187 0 189 0 188 0 189 0 19 0 19 0 189 0 18 0 131 0 133 0 190 0 190 45 133 45 191 45 190 37 191 37 192 37 192 46 191 46 193 46 192 39 193 39 194 39 194 40 193 40 195 40 194 0 195 0 196 0 196 0 195 0 197 0 196 0 197 0 198 0 198 41 197 41 199 41 199 47 197 47 200 47 199 43 200 43 201 43 201 0 200 0 202 0 201 48 202 48 102 48 102 49 202 49 100 49 202 0 200 0 203 0 203 0 200 0 204 0 203 0 204 0 205 0 205 0 204 0 206 0 205 0 206 0 207 0 207 0 206 0 208 0 207 0 208 0 209 0 209 0 208 0 210 0 209 0 210 0 211 0 211 0 210 0 212 0 211 0 212 0 213 0 213 0 212 0 214 0 213 0 214 0 215 0 215 0 214 0 216 0 215 0 216 0 15 0 15 0 216 0 14 0 89 0 91 0 217 0 217 36 91 36 218 36 217 37 218 37 219 37 219 50 218 50 220 50 219 39 220 39 221 39 221 40 220 40 222 40 221 0 222 0 223 0 223 0 222 0 224 0 223 0 224 0 225 0 225 41 224 41 226 41 226 47 224 47 46 47 226 51 46 51 48 51 157 0 227 0 27 0 27 52 227 52 228 52 27 53 228 53 229 53 229 0 230 0 27 0 27 54 230 54 231 54 27 55 231 55 114 55 31 2 232 2 30 2 30 56 232 56 233 56 30 57 233 57 234 57 234 58 235 58 30 58 30 59 235 59 236 59 30 2 236 2 25 2 25 60 236 60 237 60 25 61 237 61 238 61 238 2 239 2 25 2 25 62 239 62 240 62 25 63 240 63 241 63 241 2 242 2 25 2 25 64 242 64 243 64 25 2 243 2 244 2 244 65 243 65 245 65 245 66 243 66 246 66 245 2 246 2 247 2 247 67 246 67 248 67 248 2 246 2 249 2 248 68 249 68 250 68 250 69 249 69 251 69 250 70 251 70 252 70 252 71 251 71 253 71 252 72 253 72 254 72 254 73 253 73 255 73 254 2 255 2 256 2 256 2 255 2 257 2 256 2 257 2 258 2 258 74 257 74 259 74 259 2 257 2 260 2 259 2 260 2 261 2 261 2 260 2 262 2 261 2 262 2 263 2 263 2 262 2 264 2 263 2 264 2 265 2 265 2 264 2 266 2 266 2 264 2 267 2 266 2 267 2 268 2 268 75 267 75 269 75 268 2 269 2 270 2 270 76 269 76 271 76 270 77 271 77 272 77 272 78 271 78 273 78 272 79 273 79 274 79 274 2 273 2 275 2 274 2 275 2 276 2 276 68 275 68 277 68 277 69 275 69 278 69 277 70 278 70 279 70 279 71 278 71 280 71 279 72 280 72 281 72 281 73 280 73 282 73 281 2 282 2 283 2 283 2 282 2 284 2 283 2 284 2 285 2 285 74 284 74 286 74 286 2 284 2 287 2 286 2 287 2 288 2 288 2 287 2 289 2 288 2 289 2 290 2 290 2 289 2 291 2 290 2 291 2 292 2 292 2 291 2 293 2 293 2 291 2 294 2 293 2 294 2 295 2 295 75 294 75 296 75 295 2 296 2 297 2 297 80 296 80 298 80 297 77 298 77 299 77 299 81 298 81 300 81 299 79 300 79 301 79 301 2 300 2 302 2 301 2 302 2 303 2 303 82 302 82 304 82 304 69 302 69 305 69 304 83 305 83 306 83 306 71 305 71 307 71 306 72 307 72 308 72 308 73 307 73 309 73 308 2 309 2 310 2 310 2 309 2 311 2 310 2 311 2 312 2 312 74 311 74 313 74 313 2 311 2 314 2 313 2 314 2 315 2 315 2 314 2 316 2 315 2 316 2 317 2 317 2 316 2 318 2 317 2 318 2 319 2 319 2 318 2 320 2 320 2 318 2 321 2 320 2 321 2 322 2 322 75 321 75 323 75 322 2 323 2 324 2 324 84 323 84 325 84 324 77 325 77 326 77 326 78 325 78 327 78 326 79 327 79 328 79 328 2 327 2 329 2 328 85 329 85 330 85 330 2 329 2 331 2 331 86 329 86 332 86 331 2 332 2 333 2 333 2 332 2 26 2 333 2 26 2 334 2 334 2 26 2 335 2 335 87 26 87 336 87 336 2 26 2 337 2 337 2 26 2 338 2 338 88 26 88 339 88 339 2 26 2 340 2 339 2 340 2 341 2 341 2 340 2 342 2 341 2 342 2 343 2 343 2 342 2 344 2 343 2 344 2 345 2 345 2 344 2 346 2 345 2 346 2 347 2 347 2 346 2 348 2 347 2 348 2 349 2 349 2 348 2 350 2 349 2 350 2 351 2 351 2 350 2 352 2 351 2 352 2 353 2 353 2 352 2 354 2 353 2 354 2 355 2 355 2 354 2 356 2 355 2 356 2 303 2 303 2 356 2 301 2 262 2 260 2 357 2 357 2 260 2 358 2 357 2 358 2 359 2 359 2 358 2 360 2 359 2 360 2 361 2 361 2 360 2 362 2 361 2 362 2 363 2 363 2 362 2 364 2 363 2 364 2 365 2 365 2 364 2 366 2 365 2 366 2 367 2 367 2 366 2 368 2 367 2 368 2 369 2 369 2 368 2 370 2 369 2 370 2 8 2 8 2 370 2 9 2 289 2 287 2 371 2 371 2 287 2 372 2 371 2 372 2 373 2 373 2 372 2 374 2 373 2 374 2 375 2 375 2 374 2 376 2 375 2 376 2 377 2 377 2 376 2 378 2 377 2 378 2 379 2 379 2 378 2 380 2 379 2 380 2 381 2 381 2 380 2 382 2 381 2 382 2 383 2 383 2 382 2 384 2 383 2 384 2 12 2 12 2 384 2 13 2 316 2 314 2 385 2 385 2 314 2 386 2 385 2 386 2 387 2 387 2 386 2 388 2 387 2 388 2 389 2 389 2 388 2 390 2 389 2 390 2 391 2 391 2 390 2 392 2 391 2 392 2 393 2 393 2 392 2 394 2 393 2 394 2 395 2 395 2 394 2 396 2 395 2 396 2 397 2 397 2 396 2 398 2 397 2 398 2 16 2 16 2 398 2 17 2 332 2 399 2 26 2 26 89 399 89 400 89 26 90 400 90 401 90 401 91 402 91 26 91 26 92 402 92 403 92 26 93 403 93 404 93 404 94 405 94 26 94 26 2 405 2 20 2 20 95 405 95 406 95 20 96 406 96 407 96 407 97 408 97 20 97 20 98 408 98 409 98 20 2 409 2 21 2 26 2 25 2 340 2 340 2 25 2 410 2 340 2 410 2 411 2 411 2 410 2 412 2 411 2 412 2 413 2 413 2 412 2 414 2 413 2 414 2 415 2 415 2 414 2 416 2 415 2 416 2 417 2 417 2 416 2 418 2 417 2 418 2 419 2 419 2 418 2 420 2 419 2 420 2 421 2 421 2 420 2 422 2 421 2 422 2 423 2 423 2 422 2 424 2 423 2 424 2 425 2 425 2 424 2 426 2 425 2 426 2 276 2 276 2 426 2 274 2 244 2 427 2 25 2 25 99 427 99 428 99 25 100 428 100 429 100 429 2 430 2 25 2 25 101 430 101 431 101 25 102 431 102 410 102 23 103 21 103 432 103 432 104 21 104 409 104 432 105 409 105 433 105 433 106 409 106 408 106 433 107 408 107 434 107 434 108 408 108 407 108 434 109 407 109 435 109 435 110 407 110 406 110 435 111 406 111 436 111 436 112 406 112 405 112 436 113 405 113 437 113 437 114 405 114 404 114 437 115 404 115 438 115 438 116 404 116 403 116 438 117 403 117 439 117 439 118 403 118 402 118 439 119 402 119 440 119 440 120 402 120 401 120 440 121 401 121 441 121 441 122 401 122 400 122 441 123 400 123 442 123 442 124 400 124 399 124 442 125 399 125 443 125 443 126 399 126 332 126 443 127 332 127 444 127 444 128 332 128 329 128 444 5 329 5 445 5 445 5 329 5 327 5 445 129 327 129 446 129 446 130 327 130 325 130 446 131 325 131 447 131 447 132 325 132 323 132 447 133 323 133 448 133 448 134 323 134 321 134 448 135 321 135 449 135 449 136 321 136 318 136 449 137 318 137 450 137 450 137 318 137 316 137 450 138 316 138 451 138 451 139 316 139 385 139 451 140 385 140 452 140 452 141 385 141 387 141 452 142 387 142 453 142 453 143 387 143 389 143 453 144 389 144 454 144 454 145 389 145 391 145 454 146 391 146 455 146 455 147 391 147 393 147 455 148 393 148 456 148 456 148 393 148 395 148 456 149 395 149 457 149 457 150 395 150 397 150 457 151 397 151 16 151 16 151 18 151 457 151 457 151 18 151 189 151 457 150 189 150 456 150 456 149 189 149 187 149 456 152 187 152 455 152 455 153 187 153 185 153 455 146 185 146 454 146 454 154 185 154 183 154 454 145 183 145 453 145 453 144 183 144 181 144 453 143 181 143 452 143 452 142 181 142 179 142 452 140 179 140 451 140 451 141 179 141 177 141 451 139 177 139 450 139 450 138 177 138 173 138 450 137 173 137 449 137 449 137 173 137 170 137 449 155 170 155 448 155 448 156 170 156 168 156 448 157 168 157 447 157 447 158 168 158 166 158 447 159 166 159 446 159 446 160 166 160 164 160 446 161 164 161 445 161 445 162 164 162 162 162 445 5 162 5 444 5 444 5 162 5 159 5 444 163 159 163 443 163 443 164 159 164 156 164 443 125 156 125 442 125 442 165 156 165 155 165 442 166 155 166 441 166 441 167 155 167 154 167 441 168 154 168 440 168 440 169 154 169 153 169 440 120 153 120 439 120 439 119 153 119 152 119 439 118 152 118 438 118 438 117 152 117 147 117 438 170 147 170 437 170 437 171 147 171 146 171 437 114 146 114 436 114 436 113 146 113 145 113 436 112 145 112 435 112 435 111 145 111 151 111 435 109 151 109 434 109 434 172 151 172 150 172 434 173 150 173 433 173 433 174 150 174 149 174 433 106 149 106 432 106 432 105 149 105 148 105 432 104 148 104 23 104 19 175 17 175 458 175 458 176 17 176 398 176 458 105 398 105 459 105 459 106 398 106 396 106 459 177 396 177 460 177 460 178 396 178 394 178 460 179 394 179 461 179 461 110 394 110 392 110 461 180 392 180 462 180 462 181 392 181 390 181 462 113 390 113 463 113 463 113 390 113 388 113 463 182 388 182 464 182 464 116 388 116 386 116 464 183 386 183 465 183 465 183 386 183 314 183 465 184 314 184 466 184 466 184 314 184 311 184 466 185 311 185 467 185 467 186 311 186 309 186 467 166 309 166 468 166 468 187 309 187 307 187 468 188 307 188 469 188 469 189 307 189 305 189 469 163 305 163 470 163 470 190 305 190 302 190 470 5 302 5 471 5 471 5 302 5 300 5 471 191 300 191 472 191 472 192 300 192 298 192 472 131 298 131 473 131 473 193 298 193 296 193 473 194 296 194 474 194 474 195 296 195 294 195 474 196 294 196 475 196 475 197 294 197 291 197 475 137 291 137 476 137 476 198 291 198 289 198 476 199 289 199 477 199 477 199 289 199 371 199 477 200 371 200 478 200 478 201 371 201 373 201 478 202 373 202 479 202 479 203 373 203 375 203 479 204 375 204 480 204 480 205 375 205 377 205 480 206 377 206 481 206 481 207 377 207 379 207 481 208 379 208 482 208 482 209 379 209 381 209 482 149 381 149 483 149 483 210 381 210 383 210 483 211 383 211 12 211 12 212 14 212 483 212 483 211 14 211 216 211 483 210 216 210 482 210 482 149 216 149 214 149 482 213 214 213 481 213 481 214 214 214 212 214 481 215 212 215 480 215 480 216 212 216 210 216 480 205 210 205 479 205 479 204 210 204 208 204 479 203 208 203 478 203 478 202 208 202 206 202 478 217 206 217 477 217 477 218 206 218 204 218 477 199 204 199 476 199 476 199 204 199 200 199 476 198 200 198 475 198 475 137 200 137 197 137 475 135 197 135 474 135 474 219 197 219 195 219 474 220 195 220 473 220 473 221 195 221 193 221 473 222 193 222 472 222 472 160 193 160 191 160 472 191 191 191 471 191 471 223 191 223 133 223 471 5 133 5 470 5 470 5 133 5 134 5 470 224 134 224 469 224 469 225 134 225 136 225 469 188 136 188 468 188 468 226 136 226 138 226 468 227 138 227 467 227 467 228 138 228 140 228 467 121 140 121 466 121 466 229 140 229 142 229 466 184 142 184 465 184 465 184 142 184 175 184 465 183 175 183 464 183 464 183 175 183 176 183 464 170 176 170 463 170 463 230 176 230 178 230 463 113 178 113 462 113 462 113 178 113 180 113 462 181 180 181 461 181 461 180 180 180 182 180 461 109 182 109 460 109 460 231 182 231 184 231 460 232 184 232 459 232 459 233 184 233 186 233 459 106 186 106 458 106 458 105 186 105 188 105 458 176 188 176 19 176 15 234 13 234 484 234 484 235 13 235 384 235 484 236 384 236 485 236 485 106 384 106 382 106 485 237 382 237 486 237 486 238 382 238 380 238 486 239 380 239 487 239 487 240 380 240 378 240 487 241 378 241 488 241 488 242 378 242 376 242 488 243 376 243 489 243 489 243 376 243 374 243 489 244 374 244 490 244 490 171 374 171 372 171 490 245 372 245 491 245 491 246 372 246 287 246 491 119 287 119 492 119 492 247 287 247 284 247 492 248 284 248 493 248 493 249 284 249 282 249 493 227 282 227 494 227 494 250 282 250 280 250 494 251 280 251 495 251 495 189 280 189 278 189 495 224 278 224 496 224 496 190 278 190 275 190 496 5 275 5 497 5 497 5 275 5 273 5 497 252 273 252 498 252 498 253 273 253 271 253 498 254 271 254 499 254 499 255 271 255 269 255 499 220 269 220 500 220 500 256 269 256 267 256 500 135 267 135 501 135 501 197 267 197 264 197 501 137 264 137 502 137 502 137 264 137 262 137 502 257 262 257 503 257 503 138 262 138 357 138 503 140 357 140 504 140 504 201 357 201 359 201 504 258 359 258 505 258 505 142 359 142 361 142 505 259 361 259 506 259 506 260 361 260 363 260 506 261 363 261 507 261 507 262 363 262 365 262 507 263 365 263 508 263 508 148 365 148 367 148 508 149 367 149 509 149 509 264 367 264 369 264 509 211 369 211 8 211 8 265 10 265 509 265 509 211 10 211 32 211 509 264 32 264 508 264 508 149 32 149 34 149 508 152 34 152 507 152 507 266 34 266 36 266 507 261 36 261 506 261 506 267 36 267 38 267 506 260 38 260 505 260 505 259 38 259 40 259 505 142 40 142 504 142 504 258 40 258 42 258 504 217 42 217 503 217 503 141 42 141 44 141 503 138 44 138 502 138 502 257 44 257 46 257 502 137 46 137 501 137 501 137 46 137 224 137 501 135 224 135 500 135 500 156 224 156 222 156 500 133 222 133 499 133 499 268 222 268 220 268 499 269 220 269 498 269 498 270 220 270 218 270 498 129 218 129 497 129 497 271 218 271 91 271 497 5 91 5 496 5 496 5 91 5 92 5 496 224 92 224 495 224 495 272 92 272 94 272 495 188 94 188 494 188 494 273 94 273 96 273 494 274 96 274 493 274 493 275 96 275 98 275 493 185 98 185 492 185 492 276 98 276 100 276 492 247 100 247 491 247 491 119 100 119 202 119 491 246 202 246 490 246 490 245 202 245 203 245 490 115 203 115 489 115 489 277 203 277 205 277 489 243 205 243 488 243 488 243 205 243 207 243 488 242 207 242 487 242 487 241 207 241 209 241 487 278 209 278 486 278 486 279 209 279 211 279 486 280 211 280 485 280 485 281 211 281 213 281 485 106 213 106 484 106 484 236 213 236 215 236 484 235 215 235 15 235 11 175 9 175 510 175 510 175 9 175 370 175 510 105 370 105 511 105 511 106 370 106 368 106 511 178 368 178 512 178 512 107 368 107 366 107 512 109 366 109 513 109 513 110 366 110 364 110 513 111 364 111 514 111 514 112 364 112 362 112 514 114 362 114 515 114 515 113 362 113 360 113 515 170 360 170 516 170 516 171 360 171 358 171 516 118 358 118 517 118 517 117 358 117 260 117 517 119 260 119 518 119 518 119 260 119 257 119 518 121 257 121 519 121 519 122 257 122 255 122 519 166 255 166 520 166 520 124 255 124 253 124 520 188 253 188 521 188 521 126 253 126 251 126 521 163 251 163 522 163 522 282 251 282 249 282 522 5 249 5 523 5 523 5 249 5 246 5 523 161 246 161 524 161 524 253 246 253 243 253 524 269 243 269 525 269 525 283 243 283 242 283 525 157 242 157 526 157 526 256 242 256 241 256 526 284 241 284 527 284 527 136 241 136 240 136 527 285 240 285 528 285 528 286 240 286 239 286 528 287 239 287 529 287 529 288 239 288 238 288 529 289 238 289 530 289 530 290 238 290 237 290 530 291 237 291 531 291 531 292 237 292 236 292 531 293 236 293 532 293 532 294 236 294 235 294 532 295 235 295 533 295 533 296 235 296 234 296 533 148 234 148 534 148 534 148 234 148 233 148 534 297 233 297 535 297 535 298 233 298 232 298 535 151 232 151 31 151 31 299 29 299 535 299 535 151 29 151 113 151 535 298 113 298 534 298 534 297 113 297 112 297 534 152 112 152 533 152 533 153 112 153 111 153 533 300 111 300 532 300 532 301 111 301 110 301 532 294 110 294 531 294 531 293 110 293 109 293 531 292 109 292 530 292 530 291 109 291 108 291 530 289 108 289 529 289 529 290 108 290 107 290 529 288 107 288 528 288 528 287 107 287 106 287 528 286 106 286 527 286 527 285 106 285 105 285 527 155 105 155 526 155 526 302 105 302 104 302 526 133 104 133 525 133 525 303 104 303 103 303 525 131 103 131 524 131 524 304 103 304 64 304 524 129 64 129 523 129 523 305 64 305 61 305 523 5 61 5 522 5 522 5 61 5 59 5 522 127 59 127 521 127 521 225 59 225 57 225 521 125 57 125 520 125 520 226 57 226 55 226 520 166 55 166 519 166 519 228 55 228 53 228 519 168 53 168 518 168 518 169 53 169 50 169 518 119 50 119 517 119 517 119 50 119 47 119 517 117 47 117 516 117 516 118 47 118 45 118 516 115 45 115 515 115 515 116 45 116 43 116 515 113 43 113 514 113 514 114 43 114 41 114 514 112 41 112 513 112 513 111 41 111 39 111 513 109 39 109 512 109 512 172 39 172 37 172 512 306 37 306 511 306 511 307 37 307 35 307 511 106 35 106 510 106 510 105 35 105 33 105 510 175 33 175 11 175 536 308 85 308 537 308 537 309 85 309 87 309 537 310 87 310 538 310 538 311 87 311 89 311 538 312 89 312 539 312 539 313 89 313 217 313 539 314 217 314 540 314 540 315 217 315 219 315 540 316 219 316 541 316 541 317 219 317 221 317 541 318 221 318 542 318 542 319 221 319 223 319 542 320 223 320 543 320 543 321 223 321 225 321 543 322 225 322 544 322 544 323 225 323 226 323 544 324 226 324 545 324 545 325 226 325 48 325 545 326 48 326 546 326 546 327 48 327 49 327 546 328 49 328 547 328 547 329 49 329 51 329 547 330 51 330 548 330 548 331 51 331 52 331 548 332 52 332 549 332 549 333 52 333 54 333 549 334 54 334 550 334 550 334 54 334 56 334 550 335 56 335 551 335 551 336 56 336 58 336 551 337 58 337 552 337 552 338 58 338 60 338 552 339 60 339 553 339 553 340 60 340 62 340 553 341 62 341 554 341 554 342 62 342 63 342 554 343 63 343 555 343 555 344 63 344 65 344 555 345 65 345 556 345 556 346 65 346 66 346 556 347 66 347 557 347 557 347 66 347 67 347 557 348 67 348 558 348 558 349 67 349 68 349 558 350 68 350 559 350 559 350 68 350 69 350 559 351 69 351 560 351 560 352 69 352 70 352 560 353 70 353 561 353 561 354 70 354 71 354 561 355 71 355 562 355 562 355 71 355 73 355 562 356 73 356 563 356 563 357 73 357 75 357 563 358 75 358 564 358 564 359 75 359 77 359 564 360 77 360 565 360 565 361 77 361 79 361 565 362 79 362 566 362 566 363 79 363 81 363 566 364 81 364 567 364 567 365 81 365 83 365 567 366 83 366 536 366 536 367 83 367 85 367 538 0 552 0 537 0 537 0 552 0 553 0 537 0 553 0 536 0 536 0 553 0 554 0 536 0 554 0 567 0 567 0 554 0 555 0 567 0 555 0 566 0 566 0 555 0 556 0 566 0 556 0 565 0 565 0 556 0 557 0 565 0 557 0 564 0 564 0 557 0 558 0 564 0 558 0 563 0 563 0 558 0 559 0 563 0 559 0 562 0 562 0 559 0 560 0 562 0 560 0 561 0 552 0 538 0 551 0 551 0 538 0 539 0 551 0 539 0 550 0 550 0 539 0 540 0 550 0 540 0 549 0 549 0 540 0 541 0 549 0 541 0 548 0 548 0 541 0 542 0 548 0 542 0 547 0 547 0 542 0 543 0 547 0 543 0 546 0 546 0 543 0 544 0 546 0 544 0 545 0 568 368 127 368 569 368 569 369 127 369 129 369 569 370 129 370 570 370 570 371 129 371 131 371 570 372 131 372 571 372 571 373 131 373 190 373 571 374 190 374 572 374 572 375 190 375 192 375 572 316 192 316 573 316 573 376 192 376 194 376 573 377 194 377 574 377 574 378 194 378 196 378 574 379 196 379 575 379 575 380 196 380 198 380 575 381 198 381 576 381 576 382 198 382 199 382 576 383 199 383 577 383 577 384 199 384 201 384 577 385 201 385 578 385 578 386 201 386 102 386 578 387 102 387 579 387 579 388 102 388 101 388 579 389 101 389 580 389 580 390 101 390 99 390 580 391 99 391 581 391 581 392 99 392 97 392 581 334 97 334 582 334 582 334 97 334 95 334 582 393 95 393 583 393 583 394 95 394 93 394 583 395 93 395 584 395 584 396 93 396 90 396 584 397 90 397 585 397 585 398 90 398 88 398 585 399 88 399 586 399 586 400 88 400 86 400 586 401 86 401 587 401 587 402 86 402 84 402 587 403 84 403 588 403 588 404 84 404 82 404 588 347 82 347 589 347 589 347 82 347 80 347 589 405 80 405 590 405 590 406 80 406 78 406 590 407 78 407 591 407 591 407 78 407 76 407 591 408 76 408 592 408 592 409 76 409 74 409 592 410 74 410 593 410 593 411 74 411 72 411 593 412 72 412 594 412 594 413 72 413 115 413 594 414 115 414 595 414 595 415 115 415 117 415 595 416 117 416 596 416 596 417 117 417 119 417 596 418 119 418 597 418 597 419 119 419 121 419 597 420 121 420 598 420 598 363 121 363 123 363 598 421 123 421 599 421 599 422 123 422 125 422 599 423 125 423 568 423 568 424 125 424 127 424 570 0 584 0 569 0 569 0 584 0 585 0 569 0 585 0 568 0 568 0 585 0 586 0 568 0 586 0 599 0 599 0 586 0 587 0 599 0 587 0 598 0 598 0 587 0 588 0 598 0 588 0 597 0 597 0 588 0 589 0 597 0 589 0 596 0 596 0 589 0 590 0 596 0 590 0 595 0 595 0 590 0 591 0 595 0 591 0 594 0 594 0 591 0 592 0 594 0 592 0 593 0 584 0 570 0 583 0 583 0 570 0 571 0 583 0 571 0 582 0 582 0 571 0 572 0 582 0 572 0 581 0 581 0 572 0 573 0 581 0 573 0 580 0 580 0 573 0 574 0 580 0 574 0 579 0 579 0 574 0 575 0 579 0 575 0 578 0 578 0 575 0 576 0 578 0 576 0 577 0 600 308 158 308 601 308 601 425 158 425 160 425 601 426 160 426 602 426 602 311 160 311 161 311 602 427 161 427 603 427 603 428 161 428 163 428 603 429 163 429 604 429 604 315 163 315 165 315 604 430 165 430 605 430 605 317 165 317 167 317 605 319 167 319 606 319 606 319 167 319 169 319 606 431 169 431 607 431 607 432 169 432 171 432 607 322 171 322 608 322 608 433 171 433 172 433 608 434 172 434 609 434 609 435 172 435 174 435 609 436 174 436 610 436 610 437 174 437 144 437 610 438 144 438 611 438 611 438 144 438 143 438 611 439 143 439 612 439 612 440 143 440 141 440 612 441 141 441 613 441 613 333 141 333 139 333 613 334 139 334 614 334 614 334 139 334 137 334 614 442 137 442 615 442 615 443 137 443 135 443 615 444 135 444 616 444 616 445 135 445 132 445 616 446 132 446 617 446 617 340 132 340 130 340 617 341 130 341 618 341 618 447 130 447 128 447 618 448 128 448 619 448 619 449 128 449 126 449 619 450 126 450 620 450 620 451 126 451 124 451 620 347 124 347 621 347 621 347 124 347 122 347 621 348 122 348 622 348 622 452 122 452 120 452 622 453 120 453 623 453 623 453 120 453 118 453 623 454 118 454 624 454 624 454 118 454 116 454 624 455 116 455 625 455 625 353 116 353 114 353 625 456 114 456 626 456 626 457 114 457 231 457 626 458 231 458 627 458 627 357 231 357 230 357 627 459 230 459 628 459 628 460 230 460 229 460 628 360 229 360 629 360 629 360 229 360 228 360 629 362 228 362 630 362 630 461 228 461 227 461 630 364 227 364 631 364 631 462 227 462 157 462 631 463 157 463 600 463 600 464 157 464 158 464 602 0 616 0 601 0 601 0 616 0 617 0 601 0 617 0 600 0 600 0 617 0 618 0 600 0 618 0 631 0 631 0 618 0 619 0 631 0 619 0 630 0 630 0 619 0 620 0 630 0 620 0 629 0 629 0 620 0 621 0 629 0 621 0 628 0 628 0 621 0 622 0 628 0 622 0 627 0 627 0 622 0 623 0 627 0 623 0 626 0 626 0 623 0 624 0 626 0 624 0 625 0 616 0 602 0 615 0 615 0 602 0 603 0 615 0 603 0 614 0 614 0 603 0 604 0 614 0 604 0 613 0 613 0 604 0 605 0 613 0 605 0 612 0 612 0 605 0 606 0 612 0 606 0 611 0 611 0 606 0 607 0 611 0 607 0 610 0 610 0 607 0 608 0 610 0 608 0 609 0 632 342 245 342 633 342 633 465 245 465 247 465 633 340 247 340 634 340 634 398 247 398 248 398 634 338 248 338 635 338 635 337 248 337 250 337 635 336 250 336 636 336 636 466 250 466 252 466 636 334 252 334 637 334 637 467 252 467 254 467 637 468 254 468 638 468 638 332 254 332 256 332 638 331 256 331 639 331 639 331 256 331 258 331 639 329 258 329 640 329 640 469 258 469 259 469 640 436 259 436 641 436 641 326 259 326 261 326 641 324 261 324 642 324 642 324 261 324 263 324 642 323 263 323 643 323 643 470 263 470 265 470 643 321 265 321 644 321 644 471 265 471 266 471 644 472 266 472 645 472 645 318 266 318 268 318 645 317 268 317 646 317 646 473 268 473 270 473 646 315 270 315 647 315 647 474 270 474 272 474 647 313 272 313 648 313 648 312 272 312 274 312 648 311 274 311 649 311 649 475 274 475 426 475 649 309 426 309 650 309 650 425 426 425 424 425 650 367 424 367 651 367 651 366 424 366 422 366 651 365 422 365 652 365 652 476 422 476 420 476 652 363 420 363 653 363 653 477 420 477 418 477 653 478 418 478 654 478 654 360 418 360 416 360 654 359 416 359 655 359 655 358 416 358 414 358 655 357 414 357 656 357 656 356 414 356 412 356 656 355 412 355 657 355 657 479 412 479 410 479 657 354 410 354 658 354 658 480 410 480 431 480 658 352 431 352 659 352 659 351 431 351 430 351 659 350 430 350 660 350 660 350 430 350 429 350 660 481 429 481 661 481 661 348 429 348 428 348 661 347 428 347 662 347 662 482 428 482 427 482 662 346 427 346 663 346 663 483 427 483 244 483 663 344 244 344 632 344 632 343 244 343 245 343 634 2 648 2 633 2 633 2 648 2 649 2 633 2 649 2 632 2 632 2 649 2 650 2 632 2 650 2 663 2 663 2 650 2 651 2 663 2 651 2 662 2 662 2 651 2 652 2 662 2 652 2 661 2 661 2 652 2 653 2 661 2 653 2 660 2 660 2 653 2 654 2 660 2 654 2 659 2 659 2 654 2 655 2 659 2 655 2 658 2 658 2 655 2 656 2 658 2 656 2 657 2 648 2 634 2 647 2 647 2 634 2 635 2 647 2 635 2 646 2 646 2 635 2 636 2 646 2 636 2 645 2 645 2 636 2 637 2 645 2 637 2 644 2 644 2 637 2 638 2 644 2 638 2 643 2 643 2 638 2 639 2 643 2 639 2 642 2 642 2 639 2 640 2 642 2 640 2 641 2 664 400 423 400 665 400 665 342 423 342 425 342 665 398 425 398 666 398 666 484 425 484 276 484 666 396 276 396 667 396 667 395 276 395 277 395 667 394 277 394 668 394 668 485 277 485 279 485 668 334 279 334 669 334 669 467 279 467 281 467 669 486 281 486 670 486 670 391 281 391 283 391 670 390 283 390 671 390 671 390 283 390 285 390 671 388 285 388 672 388 672 487 285 487 286 487 672 488 286 488 673 488 673 385 286 385 288 385 673 489 288 489 674 489 674 383 288 383 290 383 674 382 290 382 675 382 675 490 290 490 292 490 675 380 292 380 676 380 676 491 292 491 293 491 676 492 293 492 677 492 677 377 293 377 295 377 677 376 295 376 678 376 678 473 295 473 297 473 678 375 297 375 679 375 679 493 297 493 299 493 679 373 299 373 680 373 680 372 299 372 301 372 680 371 301 371 681 371 681 494 301 494 356 494 681 369 356 369 682 369 682 495 356 495 354 495 682 424 354 424 683 424 683 423 354 423 352 423 683 422 352 422 684 422 684 496 352 496 350 496 684 363 350 363 685 363 685 497 350 497 348 497 685 498 348 498 686 498 686 418 348 418 346 418 686 417 346 417 687 417 687 416 346 416 344 416 687 415 344 415 688 415 688 414 344 414 342 414 688 413 342 413 689 413 689 499 342 499 340 499 689 411 340 411 690 411 690 500 340 500 411 500 690 409 411 409 691 409 691 408 411 408 413 408 691 407 413 407 692 407 692 407 413 407 415 407 692 501 415 501 693 501 693 405 415 405 417 405 693 347 417 347 694 347 694 482 417 482 419 482 694 404 419 404 695 404 695 502 419 502 421 502 695 402 421 402 664 402 664 401 421 401 423 401 666 2 680 2 665 2 665 2 680 2 681 2 665 2 681 2 664 2 664 2 681 2 682 2 664 2 682 2 695 2 695 2 682 2 683 2 695 2 683 2 694 2 694 2 683 2 684 2 694 2 684 2 693 2 693 2 684 2 685 2 693 2 685 2 692 2 692 2 685 2 686 2 692 2 686 2 691 2 691 2 686 2 687 2 691 2 687 2 690 2 690 2 687 2 688 2 690 2 688 2 689 2 680 2 666 2 679 2 679 2 666 2 667 2 679 2 667 2 678 2 678 2 667 2 668 2 678 2 668 2 677 2 677 2 668 2 669 2 677 2 669 2 676 2 676 2 669 2 670 2 676 2 670 2 675 2 675 2 670 2 671 2 675 2 671 2 674 2 674 2 671 2 672 2 674 2 672 2 673 2 696 447 353 447 697 447 697 465 353 465 355 465 697 340 355 340 698 340 698 503 355 503 303 503 698 445 303 445 699 445 699 444 303 444 304 444 699 443 304 443 700 443 700 504 304 504 306 504 700 334 306 334 701 334 701 467 306 467 308 467 701 468 308 468 702 468 702 441 308 441 310 441 702 440 310 440 703 440 703 440 310 440 312 440 703 438 312 438 704 438 704 505 312 505 313 505 704 506 313 506 705 506 705 436 313 436 315 436 705 507 315 507 706 507 706 434 315 434 317 434 706 433 317 433 707 433 707 470 317 470 319 470 707 432 319 432 708 432 708 508 319 508 320 508 708 472 320 472 709 472 709 319 320 319 322 319 709 317 322 317 710 317 710 509 322 509 324 509 710 315 324 315 711 315 711 510 324 510 326 510 711 428 326 428 712 428 712 427 326 427 328 427 712 311 328 311 713 311 713 311 328 311 330 311 713 425 330 425 714 425 714 425 330 425 331 425 714 464 331 464 715 464 715 463 331 463 333 463 715 462 333 462 716 462 716 476 333 476 334 476 716 461 334 461 717 461 717 477 334 477 335 477 717 511 335 511 718 511 718 360 335 360 336 360 718 460 336 460 719 460 719 459 336 459 337 459 719 357 337 357 720 357 720 458 337 458 338 458 720 457 338 457 721 457 721 512 338 512 339 512 721 353 339 353 722 353 722 513 339 513 341 513 722 454 341 454 723 454 723 454 341 454 343 454 723 453 343 453 724 453 724 453 343 453 345 453 724 514 345 514 725 514 725 348 345 348 347 348 725 347 347 347 726 347 726 482 347 482 349 482 726 451 349 451 727 451 727 515 349 515 351 515 727 449 351 449 696 449 696 448 351 448 353 448 698 2 712 2 697 2 697 2 712 2 713 2 697 2 713 2 696 2 696 2 713 2 714 2 696 2 714 2 727 2 727 2 714 2 715 2 727 2 715 2 726 2 726 2 715 2 716 2 726 2 716 2 725 2 725 2 716 2 717 2 725 2 717 2 724 2 724 2 717 2 718 2 724 2 718 2 723 2 723 2 718 2 719 2 723 2 719 2 722 2 722 2 719 2 720 2 722 2 720 2 721 2 712 2 698 2 711 2 711 2 698 2 699 2 711 2 699 2 710 2 710 2 699 2 700 2 710 2 700 2 709 2 709 2 700 2 701 2 709 2 701 2 708 2 708 2 701 2 702 2 708 2 702 2 707 2 707 2 702 2 703 2 707 2 703 2 706 2 706 2 703 2 704 2 706 2 704 2 705 2</p>
        </triangles>
      </mesh>
    </geometry>
  </library_geometries>
  <library_visual_scenes>
    <visual_scene id="Scene" name="Scene">
      <node id="node" name="node" type="NODE">
        <matrix sid="transform">0.001 0 0 0 0 0.001 0 0 0 0 0.001 0 0 0 0 1</matrix>
        <instance_geometry url="#shape0_005-mesh" name="node">
          <bind_material>
            <technique_common>
              <instance_material symbol="Material_002-material" target="#Material_002-material"/>
            </technique_common>
          </bind_material>
        </instance_geometry>
      </node>
    </visual_scene>
  </library_visual_scenes>
  <scene>
    <instance_visual_scene url="#Scene"/>
  </scene>
</COLLADA>