<?xml version="1.0" encoding="utf-8"?>
<COLLADA xmlns="http://www.collada.org/2005/11/COLLADASchema" version="1.4.1" xmlns:xsi="http://www.w3.org/2001/XMLSchema-instance">
  <asset>
    <contributor>
      <author>Blender User</author>
      <authoring_tool>Blender 4.3.0 commit date:2024-11-19, commit time:08:52, hash:2b18cad88b13</authoring_tool>
    </contributor>
    <created>2024-11-29T14:43:58</created>
    <modified>2024-11-29T14:43:58</modified>
    <unit name="meter" meter="1"/>
    <up_axis>Z_UP</up_axis>
  </asset>
  <library_effects>
    <effect id="DBCase-effect">
      <profile_COMMON>
        <technique sid="common">
          <lambert>
            <emission>
              <color sid="emission">0 0 0 1</color>
            </emission>
            <diffuse>
              <color sid="diffuse">0.05 0.05 0.05 1</color>
            </diffuse>
            <index_of_refraction>
              <float sid="ior">1.5</float>
            </index_of_refraction>
          </lambert>
        </technique>
      </profile_COMMON>
    </effect>
  </library_effects>
  <library_images/>
  <library_materials>
    <material id="DBCase-material" name="DBCase">
      <instance_effect url="#DBCase-effect"/>
    </material>
  </library_materials>
  <library_geometries>
    <geometry id="shape0_003-mesh" name="shape0.003">
      <mesh>
        <source id="shape0_003-mesh-positions">
          <float_array id="shape0_003-mesh-positions-array" count="3822">0 10 37.75 0 10 0 0 0 0 0 0 25.5 0 0 32 0 10 50 0 0 44.25 0 0 55.75 0 10 62.25 0 0 100 0 10 100 0 0 74.5 0 0 68 6.29377 10 100 7.29377 0 100 14.9425 0 100 29.9425 10 100 24.9425 0 100 32.58 10 100 32.58 0 100 57.5 10 100 57.5 0 100 82.5 10 100 82.5 0 100 107.5 10 100 107.5 0 100 133.5 10 100 140 0 100 140 10 100 140 10 62.25 140 0 74.5 140 0 68 140 10 50 140 0 55.75 140 0 44.25 140 10 37.75 140 0 0 140 10 0 140 0 25.5 140 0 32 133.5 10 0 140 10 0 107.5 10 0 107.5 0 0 82.5 10 0 82.5 0 0 57.5 10 0 57.5 0 0 32.58 10 0 32.58 0 0 29.9425 10 0 24.9425 0 0 6.29377 10 0 7.29377 0 0 14.9425 0 0 5 10 69.5359 7 10 69 6.29377 10 62.25 104.239 10 46.1732 105 10 50 107.5 10 50 10.6462 10 34.6732 9 10 30.4641 7 10 31 9 10 23.5359 10.4641 10 25 10.7612 10 19.3268 7 10 23 10.7612 10 11.6732 12.9289 10 8.42893 10.4641 10 29 10 10 15.5 29.2388 10 19.3268 27.0711 10 22.5711 29.9425 10 37.75 20 10 25.5 11 10 27 16.1732 10 24.7388 12.9289 10 22.5711 16.1732 10 6.2612 20 10 5.5 23.8268 10 6.2612 27.0711 10 8.42893 12.8139 10 31.4289 16.0581 10 29.2612 19.885 10 28.5 23.8268 10 24.7388 57.5 10 62.25 52.0711 10 57.0711 48.8268 10 59.2388 32.58 10 62.25 45 10 60 41.1732 10 59.2388 37.9289 10 57.0711 35.7612 10 53.8268 32.58 10 50 35 10 50 32.58 10 37.75 35.7612 10 46.1732 37.9289 10 42.9289 48.8268 10 40.7612 57.5 10 37.75 45 10 40 41.1732 10 40.7612 52.0711 10 42.9289 54.2388 10 46.1732 57.5 10 50 55 10 50 54.2388 10 53.8268 29.3987 10 80.6732 30.1599 10 84.5 29.9425 10 62.25 7 10 77 10.1599 10 84.5 9 10 76.4641 10.4641 10 75 10.4641 10 71 12.5165 10 68.5711 9 10 69.5359 10.3487 10 65.3268 16.3331 10 75.2612 11 10 73 13.0889 10 77.4289 10.9211 10 80.6732 29.3987 10 88.3268 27.231 10 91.5711 23.4144 10 70.7388 19.5875 10 71.5 20.1599 10 74.5 15.7607 10 70.7388 13.0889 10 91.5711 10.9211 10 88.3268 23.9868 10 93.7388 20.1599 10 94.5 16.3331 10 93.7388 9.58754 10 61.5 10.3487 10 57.6732 12.5165 10 54.4289 10.4641 10 52 15.7607 10 52.2612 26.6586 10 54.4289 29.9425 10 50 23.4144 10 52.2612 19.5875 10 51.5 28.8263 10 57.6732 29.5875 10 61.5 28.8263 10 65.3268 26.6586 10 68.5711 27.231 10 77.4289 23.9868 10 75.2612 10.6462 10 42.3268 9.88497 10 38.5 6.29377 10 37.75 26.956 10 45.5711 23.7118 10 47.7388 19.885 10 48.5 23.7118 10 29.2612 26.956 10 31.4289 29.1238 10 34.6732 29.885 10 38.5 29.1238 10 42.3268 11 10 50 10.4641 10 48 107.5 10 62.25 104.239 10 53.8268 102.071 10 57.0711 98.8268 10 59.2388 95 10 60 82.5 10 62.25 91.1732 10 59.2388 87.9289 10 57.0711 85.7612 10 53.8268 82.5 10 50 85 10 50 82.5 10 37.75 85.7612 10 46.1732 87.9289 10 42.9289 91.1732 10 40.7612 95 10 40 107.5 10 37.75 98.8268 10 40.7612 102.071 10 42.9289 133.5 10 37.75 130 10 38.5 129.239 10 42.3268 127.071 10 45.5711 129.536 10 48 123.827 10 47.7388 129 10 50 120 10 48.5 116.173 10 47.7388 112.929 10 45.5711 110.761 10 42.3268 129.239 10 34.6732 130 10 15.5 129 10 27 129.536 10 25 133 10 31 131 10 30.4641 127.071 10 31.4289 129.536 10 29 123.827 10 29.2612 112.929 10 22.5711 110.761 10 19.3268 110 10 15.5 110.761 10 11.6732 112.929 10 8.42893 110 10 38.5 110.761 10 34.6732 112.929 10 31.4289 116.173 10 29.2612 123.827 10 6.2612 120 10 5.5 116.173 10 6.2612 129.239 10 19.3268 127.071 10 22.5711 123.827 10 24.7388 120 10 28.5 120 10 25.5 116.173 10 24.7388 127.071 10 8.42893 129.239 10 11.6732 120 10 74.5 131 10 76.4641 129.536 10 75 129.239 10 65.3268 127.071 10 68.5711 129.536 10 71 129 10 73 123.827 10 70.7388 120 10 71.5 133.5 10 62.25 130 10 61.5 123.827 10 75.2612 127.071 10 77.4289 133 10 77 129.239 10 80.6732 130 10 84.5 129.239 10 88.3268 127.071 10 91.5711 123.827 10 93.7388 120 10 94.5 116.173 10 93.7388 112.929 10 91.5711 110.761 10 88.3268 110 10 84.5 110.761 10 80.6732 112.929 10 77.4289 116.173 10 75.2612 116.173 10 70.7388 129.239 10 57.6732 112.929 10 68.5711 110.761 10 65.3268 110 10 61.5 110.761 10 57.6732 112.929 10 54.4289 129.536 10 52 120 10 51.5 116.173 10 52.2612 77.0711 10 45.5711 73.8268 10 47.7388 70 10 48.5 66.1732 10 47.7388 60.7612 10 34.6732 62.9289 10 45.5711 60.7612 10 42.3268 60 10 38.5 66.1732 10 29.2612 70 10 28.5 70 10 25.5 73.8268 10 24.7388 73.8268 10 29.2612 77.0711 10 31.4289 77.0711 10 22.5711 79.2388 10 34.6732 80 10 38.5 79.2388 10 42.3268 66.1732 10 24.7388 62.9289 10 22.5711 62.9289 10 31.4289 60.7612 10 19.3268 60 10 15.5 60.7612 10 11.6732 62.9289 10 8.42893 66.1732 10 6.2612 70 10 5.5 73.8268 10 6.2612 77.0711 10 8.42893 79.2388 10 11.6732 80 10 15.5 79.2388 10 19.3268 60.7612 10 65.3268 60 10 61.5 62.9289 10 91.5711 60.7612 10 88.3268 60 10 84.5 62.9289 10 77.4289 66.1732 10 75.2612 62.9289 10 68.5711 66.1732 10 70.7388 80 10 61.5 79.2388 10 65.3268 73.8268 10 70.7388 77.0711 10 77.4289 77.0711 10 68.5711 79.2388 10 80.6732 70 10 71.5 70 10 74.5 73.8268 10 75.2612 80 10 84.5 79.2388 10 88.3268 77.0711 10 91.5711 73.8268 10 93.7388 70 10 94.5 66.1732 10 93.7388 60.7612 10 57.6732 62.9289 10 54.4289 79.2388 10 57.6732 77.0711 10 54.4289 66.1732 10 52.2612 70 10 51.5 73.8268 10 52.2612 5 10 30.4641 3.5359 10 29 3 10 27 5 10 23.5359 3.5359 10 25 131 10 69.5359 133 10 69 135 10 69.5359 136.464 10 71 137 10 73 136.464 10 75 135 10 76.4641 123.827 10 52.2612 127.071 10 54.4289 131 10 53.4641 133 10 54 135 10 53.4641 131 10 46.5359 133 10 46 135 10 46.5359 136.464 10 48 137 10 50 136.464 10 52 131 10 23.5359 133 10 23 135 10 23.5359 136.464 10 25 137 10 27 136.464 10 29 135 10 30.4641 5 10 76.4641 3.5359 10 75 3 10 73 3.5359 10 71 16.0581 10 47.7388 12.8139 10 45.5711 9 10 46.5359 7 10 46 5 10 46.5359 9 10 53.4641 7 10 54 5 10 53.4641 3.5359 10 52 3 10 50 3.5359 10 48 91.1732 10 83.7388 87.9289 10 81.5711 85.7612 10 78.3268 85 10 74.5 85.7612 10 70.6732 87.9289 10 67.4289 91.1732 10 65.2612 95 10 64.5 98.8268 10 65.2612 102.071 10 67.4289 104.239 10 78.3268 105 10 74.5 104.239 10 70.6732 102.071 10 81.5711 98.8268 10 83.7388 95 10 84.5 87.9289 10 32.5711 85.7612 10 29.3268 85 10 25.5 85.7612 10 21.6732 87.9289 10 18.4289 91.1732 10 16.2612 95 10 15.5 98.8268 10 16.2612 102.071 10 18.4289 104.239 10 21.6732 105 10 25.5 104.239 10 29.3268 102.071 10 32.5711 98.8268 10 34.7388 95 10 35.5 91.1732 10 34.7388 41.1732 10 83.7388 37.9289 10 81.5711 37.9289 10 67.4289 41.1732 10 65.2612 35.7612 10 78.3268 35 10 74.5 35.7612 10 70.6732 45 10 64.5 48.8268 10 65.2612 52.0711 10 67.4289 54.2388 10 70.6732 55 10 74.5 54.2388 10 78.3268 52.0711 10 81.5711 48.8268 10 83.7388 45 10 84.5 60.7612 10 80.6732 37.9289 10 32.5711 35.7612 10 29.3268 35.7612 10 21.6732 37.9289 10 18.4289 35 10 25.5 30 10 15.5 29.2388 10 11.6732 52.0711 10 32.5711 48.8268 10 34.7388 45 10 35.5 41.1732 10 34.7388 41.1732 10 16.2612 45 10 15.5 48.8268 10 16.2612 52.0711 10 18.4289 54.2388 10 21.6732 55 10 25.5 54.2388 10 29.3268 7.29377 0 44.25 40.6699 0 72 40 0 74.5 32.58 0 74.5 15 0 15.5 15.6699 0 18 14.9425 0 25.5 17.5 0 19.8301 24.9425 0 25.5 20 0 20.5 22.5 0 19.8301 24.3301 0 13 22.5 0 11.1699 20 0 10.5 17.5 0 11.1699 15.6699 0 13 24.3301 0 18 25 0 15.5 32.58 0 25.5 25.1599 0 84.5 24.9425 0 74.5 24.4901 0 82 22.6599 0 88.8301 24.4901 0 87 15.8298 0 82 15.1599 0 84.5 14.9425 0 74.5 22.6599 0 80.1699 20.1599 0 79.5 17.6599 0 80.1699 15.8298 0 87 17.6599 0 88.8301 20.1599 0 89.5 57.5 0 25.5 57.5 0 32 49.3301 0 28 40 0 25.5 40.6699 0 28 32.58 0 32 42.5 0 29.8301 45 0 30.5 47.5 0 29.8301 50 0 25.5 49.3301 0 23 47.5 0 21.1699 45 0 20.5 42.5 0 21.1699 40.6699 0 23 14.885 0 38.5 14.9425 0 44.25 15.5548 0 41 24.9425 0 44.25 24.2151 0 41 24.885 0 38.5 24.2151 0 36 24.9425 0 32 17.385 0 42.8301 19.885 0 43.5 22.385 0 42.8301 22.385 0 34.1699 19.885 0 33.5 14.9425 0 32 17.385 0 34.1699 15.5548 0 36 107.5 0 25.5 107.5 0 32 99.3301 0 28 90.6699 0 28 92.5 0 29.8301 82.5 0 32 95 0 30.5 97.5 0 29.8301 90 0 25.5 82.5 0 25.5 90.6699 0 23 92.5 0 21.1699 100 0 25.5 99.3301 0 23 97.5 0 21.1699 95 0 20.5 17.0875 0 65.8301 19.5875 0 66.5 14.9425 0 68 24.9425 0 68 22.0875 0 65.8301 23.9177 0 64 24.5875 0 61.5 24.9425 0 55.75 23.9177 0 59 22.0875 0 57.1699 19.5875 0 56.5 14.9425 0 55.75 17.0875 0 57.1699 15.2574 0 59 7.29377 0 55.75 14.5875 0 61.5 15.2574 0 64 7.29377 0 68 40.6699 0 77 42.5 0 78.8301 45 0 79.5 47.5 0 78.8301 49.3301 0 72 57.5 0 68 50 0 74.5 57.5 0 74.5 49.3301 0 77 47.5 0 70.1699 45 0 69.5 32.58 0 68 42.5 0 70.1699 92.5 0 78.8301 95 0 79.5 97.5 0 78.8301 99.3301 0 77 107.5 0 74.5 100 0 74.5 107.5 0 68 99.3301 0 72 97.5 0 70.1699 95 0 69.5 82.5 0 68 92.5 0 70.1699 90.6699 0 72 82.5 0 74.5 90 0 74.5 90.6699 0 77 7.29377 0 32 7.29377 0 74.5 7.29377 0 25.5 40.6699 0 47.5 40 0 50 32.58 0 44.25 32.58 0 55.75 40.6699 0 52.5 49.3301 0 52.5 50 0 50 57.5 0 55.75 42.5 0 54.3301 45 0 55 47.5 0 54.3301 49.3301 0 47.5 57.5 0 44.25 47.5 0 45.6699 45 0 45 42.5 0 45.6699 72.5 0 88.8301 74.3301 0 87 70 0 79.5 67.5 0 80.1699 65.6699 0 82 74.3301 0 82 72.5 0 80.1699 75 0 84.5 65 0 84.5 65.6699 0 87 67.5 0 88.8301 70 0 89.5 65.6699 0 59 65 0 61.5 65.6699 0 64 67.5 0 65.8301 70 0 66.5 72.5 0 65.8301 74.3301 0 64 75 0 61.5 74.3301 0 59 82.5 0 55.75 72.5 0 57.1699 70 0 56.5 67.5 0 57.1699 67.5 0 34.1699 65.6699 0 36 74.3301 0 36 72.5 0 34.1699 70 0 33.5 65 0 38.5 65.6699 0 41 67.5 0 42.8301 70 0 43.5 82.5 0 44.25 72.5 0 42.8301 74.3301 0 41 75 0 38.5 67.5 0 11.1699 70 0 10.5 72.5 0 11.1699 65.6699 0 13 65 0 15.5 65.6699 0 18 67.5 0 19.8301 70 0 20.5 72.5 0 19.8301 74.3301 0 18 75 0 15.5 74.3301 0 13 90.6699 0 47.5 90 0 50 90.6699 0 52.5 97.5 0 54.3301 107.5 0 55.75 95 0 55 92.5 0 54.3301 99.3301 0 47.5 107.5 0 44.25 100 0 50 99.3301 0 52.5 97.5 0 45.6699 95 0 45 92.5 0 45.6699 120 0 79.5 117.5 0 80.1699 124.33 0 82 122.5 0 80.1699 124.33 0 87 125 0 84.5 115.67 0 87 115 0 84.5 115.67 0 82 117.5 0 88.8301 120 0 89.5 122.5 0 88.8301 120 0 56.5 117.5 0 57.1699 115.67 0 59 115 0 61.5 115.67 0 64 117.5 0 65.8301 120 0 66.5 124.33 0 59 122.5 0 57.1699 122.5 0 65.8301 124.33 0 64 125 0 61.5 115.67 0 36 117.5 0 34.1699 120 0 33.5 120 0 43.5 122.5 0 42.8301 115 0 38.5 115.67 0 41 117.5 0 42.8301 124.33 0 41 125 0 38.5 124.33 0 36 122.5 0 34.1699 117.5 0 11.1699 115.67 0 13 115 0 15.5 115.67 0 18 117.5 0 19.8301 120 0 20.5 122.5 0 19.8301 124.33 0 18 125 0 15.5 124.33 0 13 122.5 0 11.1699 120 0 10.5 20 3 25.5 23.8268 3 24.7388 27.0711 3 22.5711 29.2388 3 19.3268 30 3 15.5 29.2388 3 11.6732 27.0711 3 8.42893 23.8268 3 6.2612 20 3 5.5 16.1732 3 6.2612 12.9289 3 8.42893 10.7612 3 11.6732 10 3 15.5 10.7612 3 19.3268 12.9289 3 22.5711 16.1732 3 24.7388 22.5 3 19.8301 24.3301 3 18 25 3 15.5 24.3301 3 13 15.6699 3 18 17.5 3 19.8301 20 3 20.5 22.5 3 11.1699 20 3 10.5 17.5 3 11.1699 15.6699 3 13 15 3 15.5 120 3 94.5 123.827 3 93.7388 127.071 3 91.5711 129.239 3 88.3268 130 3 84.5 129.239 3 80.6732 127.071 3 77.4289 123.827 3 75.2612 120 3 74.5 116.173 3 75.2612 112.929 3 77.4289 110.761 3 80.6732 110 3 84.5 110.761 3 88.3268 112.929 3 91.5711 116.173 3 93.7388 115.67 3 87 117.5 3 88.8301 120 3 89.5 122.5 3 88.8301 117.5 3 80.1699 115.67 3 82 115 3 84.5 124.33 3 82 122.5 3 80.1699 120 3 79.5 124.33 3 87 125 3 84.5 95 3 35.5 98.8268 3 34.7388 102.071 3 32.5711 104.239 3 29.3268 105 3 25.5 104.239 3 21.6732 102.071 3 18.4289 98.8268 3 16.2612 95 3 15.5 91.1732 3 16.2612 87.9289 3 18.4289 85.7612 3 21.6732 85 3 25.5 85.7612 3 29.3268 87.9289 3 32.5711 91.1732 3 34.7388 90.6699 3 28 92.5 3 29.8301 95 3 30.5 97.5 3 29.8301 99.3301 3 23 97.5 3 21.1699 95 3 20.5 92.5 3 21.1699 90.6699 3 23 90 3 25.5 99.3301 3 28 100 3 25.5 70 3 25.5 73.8268 3 24.7388 77.0711 3 22.5711 79.2388 3 19.3268 80 3 15.5 79.2388 3 11.6732 77.0711 3 8.42893 73.8268 3 6.2612 70 3 5.5 66.1732 3 6.2612 62.9289 3 8.42893 60.7612 3 11.6732 60 3 15.5 60.7612 3 19.3268 62.9289 3 22.5711 66.1732 3 24.7388 65.6699 3 18 67.5 3 19.8301 70 3 20.5 72.5 3 19.8301 74.3301 3 18 75 3 15.5 74.3301 3 13 67.5 3 11.1699 65.6699 3 13 65 3 15.5 72.5 3 11.1699 70 3 10.5 45 3 60 48.8268 3 59.2388 52.0711 3 57.0711 54.2388 3 53.8268 55 3 50 54.2388 3 46.1732 52.0711 3 42.9289 48.8268 3 40.7612 45 3 40 41.1732 3 40.7612 37.9289 3 42.9289 35.7612 3 46.1732 35 3 50 35.7612 3 53.8268 37.9289 3 57.0711 41.1732 3 59.2388 40.6699 3 52.5 42.5 3 54.3301 45 3 55 47.5 3 54.3301 42.5 3 45.6699 40.6699 3 47.5 40 3 50 49.3301 3 47.5 47.5 3 45.6699 45 3 45 49.3301 3 52.5 50 3 50 20.1599 3 94.5 23.9868 3 93.7388 27.231 3 91.5711 29.3987 3 88.3268 30.1599 3 84.5 29.3987 3 80.6732 27.231 3 77.4289 23.9868 3 75.2612 20.1599 3 74.5 16.3331 3 75.2612 13.0889 3 77.4289 10.9211 3 80.6732 10.1599 3 84.5 10.9211 3 88.3268 13.0889 3 91.5711 16.3331 3 93.7388 24.4901 3 82 22.6599 3 80.1699 20.1599 3 79.5 17.6599 3 80.1699 22.6599 3 88.8301 24.4901 3 87 25.1599 3 84.5 15.8298 3 82 15.1599 3 84.5 15.8298 3 87 17.6599 3 88.8301 20.1599 3 89.5 19.5875 3 71.5 23.4144 3 70.7388 26.6586 3 68.5711 28.8263 3 65.3268 29.5875 3 61.5 28.8263 3 57.6732 26.6586 3 54.4289 23.4144 3 52.2612 19.5875 3 51.5 15.7607 3 52.2612 12.5165 3 54.4289 10.3487 3 57.6732 9.58754 3 61.5 10.3487 3 65.3268 12.5165 3 68.5711 15.7607 3 70.7388 15.2574 3 64 17.0875 3 65.8301 19.5875 3 66.5 22.0875 3 65.8301 17.0875 3 57.1699 15.2574 3 59 14.5875 3 61.5 23.9177 3 59 22.0875 3 57.1699 19.5875 3 56.5 23.9177 3 64 24.5875 3 61.5 45 3 84.5 48.8268 3 83.7388 52.0711 3 81.5711 54.2388 3 78.3268 55 3 74.5 54.2388 3 70.6732 52.0711 3 67.4289 48.8268 3 65.2612 45 3 64.5 41.1732 3 65.2612 37.9289 3 67.4289 35.7612 3 70.6732 35 3 74.5 35.7612 3 78.3268 37.9289 3 81.5711 41.1732 3 83.7388 42.5 3 70.1699 40.6699 3 72 40 3 74.5 40.6699 3 77 47.5 3 78.8301 49.3301 3 77 50 3 74.5 49.3301 3 72 42.5 3 78.8301 45 3 79.5 47.5 3 70.1699 45 3 69.5 19.885 3 48.5 23.7118 3 47.7388 26.956 3 45.5711 29.1238 3 42.3268 29.885 3 38.5 29.1238 3 34.6732 26.956 3 31.4289 23.7118 3 29.2612 19.885 3 28.5 16.0581 3 29.2612 12.8139 3 31.4289 10.6462 3 34.6732 9.88497 3 38.5 10.6462 3 42.3268 12.8139 3 45.5711 16.0581 3 47.7388 17.385 3 34.1699 15.5548 3 36 14.885 3 38.5 15.5548 3 41 22.385 3 42.8301 24.2151 3 41 24.885 3 38.5 24.2151 3 36 17.385 3 42.8301 19.885 3 43.5 22.385 3 34.1699 19.885 3 33.5 45 3 35.5 48.8268 3 34.7388 52.0711 3 32.5711 54.2388 3 29.3268 55 3 25.5 54.2388 3 21.6732 52.0711 3 18.4289 48.8268 3 16.2612 45 3 15.5 41.1732 3 16.2612 37.9289 3 18.4289 35.7612 3 21.6732 35 3 25.5 35.7612 3 29.3268 37.9289 3 32.5711 41.1732 3 34.7388 40.6699 3 28 42.5 3 29.8301 45 3 30.5 47.5 3 29.8301 49.3301 3 28 50 3 25.5 49.3301 3 23 42.5 3 21.1699 40.6699 3 23 40 3 25.5 47.5 3 21.1699 45 3 20.5 95 3 60 98.8268 3 59.2388 102.071 3 57.0711 104.239 3 53.8268 105 3 50 104.239 3 46.1732 102.071 3 42.9289 98.8268 3 40.7612 95 3 40 91.1732 3 40.7612 87.9289 3 42.9289 85.7612 3 46.1732 85 3 50 85.7612 3 53.8268 87.9289 3 57.0711 91.1732 3 59.2388 90.6699 3 52.5 92.5 3 54.3301 95 3 55 97.5 3 54.3301 92.5 3 45.6699 90.6699 3 47.5 90 3 50 99.3301 3 47.5 97.5 3 45.6699 95 3 45 99.3301 3 52.5 100 3 50 120 3 25.5 123.827 3 24.7388 127.071 3 22.5711 129.239 3 19.3268 130 3 15.5 129.239 3 11.6732 127.071 3 8.42893 123.827 3 6.2612 120 3 5.5 116.173 3 6.2612 112.929 3 8.42893 110.761 3 11.6732 110 3 15.5 110.761 3 19.3268 112.929 3 22.5711 116.173 3 24.7388 115.67 3 18 117.5 3 19.8301 120 3 20.5 122.5 3 19.8301 124.33 3 18 125 3 15.5 124.33 3 13 122.5 3 11.1699 120 3 10.5 117.5 3 11.1699 115.67 3 13 115 3 15.5 120 3 48.5 123.827 3 47.7388 127.071 3 45.5711 129.239 3 42.3268 130 3 38.5 129.239 3 34.6732 127.071 3 31.4289 123.827 3 29.2612 120 3 28.5 116.173 3 29.2612 112.929 3 31.4289 110.761 3 34.6732 110 3 38.5 110.761 3 42.3268 112.929 3 45.5711 116.173 3 47.7388 115.67 3 41 117.5 3 42.8301 120 3 43.5 122.5 3 42.8301 117.5 3 34.1699 115.67 3 36 115 3 38.5 124.33 3 36 122.5 3 34.1699 120 3 33.5 124.33 3 41 125 3 38.5 120 3 71.5 123.827 3 70.7388 127.071 3 68.5711 129.239 3 65.3268 130 3 61.5 129.239 3 57.6732 127.071 3 54.4289 123.827 3 52.2612 120 3 51.5 116.173 3 52.2612 112.929 3 54.4289 110.761 3 57.6732 110 3 61.5 110.761 3 65.3268 112.929 3 68.5711 116.173 3 70.7388 117.5 3 57.1699 115.67 3 59 115 3 61.5 115.67 3 64 124.33 3 59 122.5 3 57.1699 120 3 56.5 122.5 3 65.8301 124.33 3 64 125 3 61.5 117.5 3 65.8301 120 3 66.5 70 3 48.5 73.8268 3 47.7388 77.0711 3 45.5711 79.2388 3 42.3268 80 3 38.5 79.2388 3 34.6732 77.0711 3 31.4289 73.8268 3 29.2612 70 3 28.5 66.1732 3 29.2612 62.9289 3 31.4289 60.7612 3 34.6732 60 3 38.5 60.7612 3 42.3268 62.9289 3 45.5711 66.1732 3 47.7388 65.6699 3 41 67.5 3 42.8301 70 3 43.5 72.5 3 42.8301 74.3301 3 36 72.5 3 34.1699 70 3 33.5 67.5 3 34.1699 65.6699 3 36 65 3 38.5 74.3301 3 41 75 3 38.5 95 3 84.5 98.8268 3 83.7388 102.071 3 81.5711 104.239 3 78.3268 105 3 74.5 104.239 3 70.6732 102.071 3 67.4289 98.8268 3 65.2612 95 3 64.5 91.1732 3 65.2612 87.9289 3 67.4289 85.7612 3 70.6732 85 3 74.5 85.7612 3 78.3268 87.9289 3 81.5711 91.1732 3 83.7388 92.5 3 70.1699 90.6699 3 72 90 3 74.5 90.6699 3 77 99.3301 3 72 97.5 3 70.1699 95 3 69.5 97.5 3 78.8301 99.3301 3 77 100 3 74.5 92.5 3 78.8301 95 3 79.5 70 3 71.5 73.8268 3 70.7388 77.0711 3 68.5711 79.2388 3 65.3268 80 3 61.5 79.2388 3 57.6732 77.0711 3 54.4289 73.8268 3 52.2612 70 3 51.5 66.1732 3 52.2612 62.9289 3 54.4289 60.7612 3 57.6732 60 3 61.5 60.7612 3 65.3268 62.9289 3 68.5711 66.1732 3 70.7388 67.5 3 57.1699 65.6699 3 59 65 3 61.5 65.6699 3 64 74.3301 3 59 72.5 3 57.1699 70 3 56.5 72.5 3 65.8301 74.3301 3 64 75 3 61.5 67.5 3 65.8301 70 3 66.5 70 3 94.5 73.8268 3 93.7388 77.0711 3 91.5711 79.2388 3 88.3268 80 3 84.5 79.2388 3 80.6732 77.0711 3 77.4289 73.8268 3 75.2612 70 3 74.5 66.1732 3 75.2612 62.9289 3 77.4289 60.7612 3 80.6732 60 3 84.5 60.7612 3 88.3268 62.9289 3 91.5711 66.1732 3 93.7388 65.6699 3 87 67.5 3 88.8301 70 3 89.5 72.5 3 88.8301 67.5 3 80.1699 65.6699 3 82 65 3 84.5 74.3301 3 82 72.5 3 80.1699 70 3 79.5 74.3301 3 87 75 3 84.5 7 7 31 9 7 30.4641 10.4641 7 29 11 7 27 10.4641 7 25 9 7 23.5359 7 7 23 5 7 23.5359 3.5359 7 25 3 7 27 3.5359 7 29 5 7 30.4641 7 7 27 133 7 77 135 7 76.4641 136.464 7 75 137 7 73 136.464 7 71 135 7 69.5359 133 7 69 131 7 69.5359 129.536 7 71 129 7 73 129.536 7 75 131 7 76.4641 133 7 73 133 7 54 135 7 53.4641 136.464 7 52 137 7 50 136.464 7 48 135 7 46.5359 133 7 46 131 7 46.5359 129.536 7 48 129 7 50 129.536 7 52 131 7 53.4641 133 7 50 133 7 31 135 7 30.4641 136.464 7 29 137 7 27 136.464 7 25 135 7 23.5359 133 7 23 131 7 23.5359 129.536 7 25 129 7 27 129.536 7 29 131 7 30.4641 133 7 27 7 7 77 9 7 76.4641 10.4641 7 75 11 7 73 10.4641 7 71 9 7 69.5359 7 7 69 5 7 69.5359 3.5359 7 71 3 7 73 3.5359 7 75 5 7 76.4641 7 7 73 7 7 54 9 7 53.4641 10.4641 7 52 11 7 50 10.4641 7 48 9 7 46.5359 7 7 46 5 7 46.5359 3.5359 7 48 3 7 50 3.5359 7 52 5 7 53.4641 7 7 50</float_array>
          <technique_common>
            <accessor source="#shape0_003-mesh-positions-array" count="1274" stride="3">
              <param name="X" type="float"/>
              <param name="Y" type="float"/>
              <param name="Z" type="float"/>
            </accessor>
          </technique_common>
        </source>
        <source id="shape0_003-mesh-normals">
          <float_array id="shape0_003-mesh-normals-array" count="1434">-1 0 0 0 0 1 1 0 0 0 0 -1 0 1 0 0 1 -3.65663e-7 0 1 -2.66616e-7 0 1 2.82569e-7 0 1 5.73184e-7 0 1 -8.48708e-7 0 1 3.03275e-6 0 1 -6.18825e-7 0 1 2.83848e-7 0 1 2.41419e-7 0 1 -1.81329e-7 0 1 6.18826e-7 0 1 -3.03275e-6 0 1 1.79355e-6 0 1 5.37021e-7 0 1 -8.2152e-7 0 1 -4.24143e-7 0 1 2.43265e-7 0 1 1.82611e-7 0 1 -1.86362e-7 0 1 0 0 1 -1.82611e-7 0 1 1.39771e-7 0 1 -2.43265e-7 0 1 1.45108e-6 0 1 4.24143e-7 0 1 -1.88997e-7 0 1 4.76837e-7 0 1 -2.27702e-7 0 1 1.88997e-7 0 1 -2.72138e-7 0 1 2.72138e-7 0 1 3.06025e-7 0 1 0 0 -1 0 -0.1950908 0 -0.9807852 -0.1950908 0 -0.9807853 -0.5555579 0 -0.8314779 -0.5555571 0 -0.8314784 -0.831478 0 -0.5555577 -0.8314784 0 -0.5555573 -0.9807852 0 -0.1950907 -0.9807852 0 -0.195091 -0.9807852 0 0.1950907 -0.9807853 0 0.1950908 -0.8314757 0 0.5555611 -0.8314758 0 0.555561 -0.5555627 0 0.8314747 -0.5555625 0 0.8314748 -0.1950908 0 0.9807852 -0.1950908 0 0.9807853 0.1950907 0 0.9807852 0.5555627 0 0.8314747 0.555563 0 0.8314744 0.8314758 0 0.555561 0.8314757 0 0.5555611 0.9807853 0 0.1950908 0.9807852 0 0.1950907 0.9807852 0 -0.195091 0.9807852 0 -0.1950907 0.8314784 0 -0.5555573 0.831478 0 -0.5555577 0.5555573 0 -0.8314782 0.5555582 0 -0.8314778 0.1950907 0 -0.9807852 0 1 0 -0.1950798 0 -0.9807874 -0.5555939 0 -0.8314538 -0.8314431 0 -0.5556101 -0.8314403 0 -0.5556142 -0.9807956 0 -0.1950381 -0.9807959 0 0.1950373 -0.9807956 0 0.1950381 -0.8314403 0 0.5556142 -0.8314417 0 0.5556122 -0.5555939 0 0.8314538 -0.1950798 0 0.9807874 0.1950801 0 0.9807873 0.5555948 0 0.8314532 0.8314417 0 0.5556122 0.8314403 0 0.5556142 0.9807949 0 0.1950419 0.9807952 0 0.1950411 0.9807949 0 -0.1950419 0.8314403 0 -0.5556142 0.8314431 0 -0.5556101 0.5555948 0 -0.8314532 0.1950801 0 -0.9807873 -0.195091 0 -0.9807852 -0.5555688 0 -0.8314707 -0.8314425 0 -0.5556108 -0.9807953 0 -0.1950401 -0.9807953 0 0.1950401 -0.9807954 0 0.1950398 -0.8314429 0 0.5556103 -0.8314422 0 0.5556113 -0.555568 0 0.8314712 -0.5555688 0 0.8314707 -0.195091 0 0.9807852 0.1950906 0 0.9807853 0.5555579 0 0.8314779 0.5555571 0 0.8314784 0.8314783 0 0.5555573 0.831479 0 0.5555562 0.9807853 0 0.1950907 0.9807853 0 -0.1950908 0.8314787 0 -0.5555567 0.5555579 0 -0.8314779 0.1950906 0 -0.9807853 -0.8314778 0 -0.5555582 -0.8314782 0 -0.5555576 -0.8314756 0 0.5555615 -0.8314757 0 0.5555614 0.555563 0 0.8314745 0.5555632 0 0.8314744 0.8314761 0 0.5555607 0.831476 0 0.5555608 0.8314786 0 -0.555557 0.8314782 0 -0.5555574 0.5555576 0 -0.8314781 0.5555583 0 -0.8314776 -0.1950899 0 -0.9807854 -0.195092 0 -0.980785 -0.5555587 0 -0.8314774 -0.9807853 0 -0.1950908 -0.8314784 0 0.5555571 -0.8314778 0 0.5555582 -0.5555571 0 0.8314784 -0.195092 0 0.980785 -0.1950899 0 0.9807854 0.1950897 0 0.9807855 0.1950919 0 0.9807851 0.8314782 0 0.5555574 0.831479 0 0.5555564 0.5555587 0 -0.8314774 0.5555571 0 -0.8314784 0.1950919 0 -0.9807851 0.1950897 0 -0.9807855 -0.1950848 0 -0.9807865 -0.5555704 0 -0.8314695 -0.8314796 0 -0.5555554 -0.8314768 0 -0.5555595 -0.9807854 0 0.19509 -0.8314768 0 0.5555595 -0.8314782 0 0.5555574 -0.5555704 0 0.8314695 -0.1950848 0 0.9807865 0.1950898 0 0.9807854 0.1950898 0 0.9807855 0.5555706 0 0.8314694 0.5555707 0 0.8314694 0.8314661 0 0.5555756 0.8314648 0 0.5555776 0.9807854 0 0.19509 0.8314647 0 -0.5555776 0.8314676 0 -0.5555734 0.5555706 0 -0.8314694 0.5555707 0 -0.8314694 0.1950898 0 -0.9807854 0.1950898 0 -0.9807855 0 1 0 -0.195087 0 -0.980786 -0.5555691 0 -0.8314704 -0.5555707 0 -0.8314694 -0.8314787 0 -0.5555567 -0.8314773 0 -0.5555588 -0.8314787 0 0.5555567 -0.831478 0 0.5555577 -0.5555691 0 0.8314704 -0.5555691 0 0.8314704 -0.195087 0 0.980786 0.1950898 0 0.9807855 0.1950919 0 0.9807851 0.5555691 0 0.8314704 0.5555691 0 0.8314704 0.8314669 0 0.5555745 0.9807872 0 0.1950809 0.9807872 0 -0.1950809 0.8314654 0 -0.5555766 0.8314669 0 -0.5555745 0.5555691 0 -0.8314704 0.1950919 0 -0.9807851 0.1950897 0 -0.9807854 0 1 0 -0.8314791 0 -0.5555561 -0.8314764 0 -0.5555602 -0.9807851 0 0.1950913 -0.8314771 0 0.5555592 -0.5555587 0 0.8314774 0.5555587 0 0.8314774 0.8314776 0 0.5555585 0.9807851 0 0.1950913 0.8314768 0 -0.5555595 0.8314796 0 -0.5555554 -0.1950898 0 -0.9807854 -0.1950919 0 -0.9807851 -0.5555689 0 -0.8314706 -0.8314665 0 -0.555575 -0.9807851 0 -0.1950918 -0.9807851 0 0.1950918 -0.9807851 0 0.1950916 -0.8314669 0 0.5555745 -0.8314661 0 0.5555755 -0.5555689 0 0.8314706 -0.5555697 0 0.8314701 0.1950859 0 0.9807862 0.5555698 0 0.8314699 0.8314777 0 0.5555583 0.8314784 0 0.5555573 0.9807838 0 0.1950982 0.9807838 0 0.1950984 0.9807838 0 -0.1950984 0.195087 0 -0.980786 0.1950848 0 -0.9807865 -0.9807853 0 0.1950907 -0.8314782 0 0.5555576 -0.8314775 0 0.5555586 -0.5555579 0 0.8314779 0.8314779 0 0.555558 0.8314786 0 0.555557 -0.555568 0 -0.8314712 -0.5555695 0 -0.8314702 -0.8314433 0 0.5556098 -0.8314425 0 0.5556108 0.1950895 0 0.9807855 0.1950917 0 0.9807851 0.8314787 0 0.5555567 0.8314794 0 0.5555557 0.1950917 0 -0.9807851 0.1950895 0 -0.9807855 -0.1950808 0 -0.9807872 -0.5555931 0 -0.8314543 -0.5555924 0 -0.8314549 -0.8314417 0 -0.5556122 -0.8314421 0 -0.5556117 -0.9807957 0 -0.195038 -0.9807957 0 -0.1950383 -0.9807957 0 0.195038 -0.8314394 0 0.5556156 -0.8314396 0 0.5556154 -0.555598 0 0.8314511 -0.5555978 0 0.8314513 -0.1950808 0 0.9807872 0.1950812 0 0.9807872 0.5555987 0 0.8314507 0.5555989 0 0.8314505 0.8314396 0 0.5556154 0.8314394 0 0.5556156 0.980795 0 0.1950418 0.980795 0 -0.1950421 0.980795 0 -0.1950418 0.8314421 0 -0.5556117 0.8314417 0 -0.5556122 0.5555933 0 -0.8314542 0.555594 0 -0.8314538 0.1950812 0 -0.9807872 -0.1950819 0 -0.980787 -0.9807957 0 0.1950379 -0.8314421 0 0.5556117 -0.8314414 0 0.5556127 -0.5555924 0 0.8314549 -0.5555931 0 0.8314543 0.555594 0 0.8314538 0.5555933 0 0.8314542 0.8314414 0 0.5556127 0.8314421 0 0.5556117 0.980795 0 0.1950417 0.1950823 0 -0.9807869 -0.8314423 0 -0.5556111 -0.831441 0 -0.5556132 -0.8314423 0 0.5556111 -0.1950819 0 0.980787 0.1950823 0 0.9807869 0.8314423 0 0.5556111 0.831441 0 -0.5556132 0.8314423 0 -0.5556111 0.5555583 0 0.8314776 0.5555576 0 0.8314781 0.5555591 0 -0.8314771 -0.831444 0 -0.5556088 -0.8314412 0 -0.5556129 -0.9807955 0 0.1950392 -0.9807952 0 0.1950405 -0.8314418 0 0.5556119 -0.5555695 0 0.8314702 0.8314779 0 0.5555577 0.8314774 0 -0.5555588 0.8314801 0 -0.5555547 -0.8314784 0 -0.5555571 -0.8314771 0 -0.5555592 0.8314776 0 -0.5555585 0.831479 0 -0.5555564 -0.8314764 0 0.5555602 0.5555591 0 0.8314771 0.8314768 0 0.5555595 -0.258822 0 -0.965925 -0.2588367 0 -0.9659212 -0.7071024 0 -0.7071112 -0.7071102 0 -0.7071034 -0.9659234 0 -0.2588284 -0.9659234 0 0.2588284 -0.7071083 0 0.7071053 -0.7071043 0 0.7071093 -0.258833 0 0.9659221 -0.2588257 0 0.9659242 0.2588257 0 0.9659242 0.258833 0 0.9659221 0.7071043 0 0.7071093 0.7071083 0 0.7071053 0.9659234 0 0.2588284 0.9659234 0 -0.2588284 0.7071102 0 -0.7071034 0.7071024 0 -0.7071112 0.2588367 0 -0.9659212 0.258822 0 -0.965925 -0.2588257 0 -0.9659242 -0.258833 0 -0.9659221 -0.7071043 0 -0.7071093 -0.7071083 0 -0.7071053 -0.7071063 0 0.7071073 -0.2588294 0 0.9659231 0.2588294 0 0.9659231 0.7071063 0 0.7071073 0.7071083 0 -0.7071053 0.7071043 0 -0.7071093 0.258833 0 -0.9659221 0.2588257 0 -0.9659242 -0.2588294 0 -0.9659231 -0.7071073 0 -0.7071063 -0.7071053 0 -0.7071083 -0.7071073 0 0.7071063 -0.2588275 0 0.9659236 0.2588275 0 0.9659236 0.7071073 0 0.7071063 0.7071053 0 -0.7071083 0.7071073 0 -0.7071063 0.2588294 0 -0.9659231 -0.707125 0 -0.7070886 -0.707129 0 -0.7070847 -0.9659131 0 -0.2588669 -0.9659131 0 0.2588669 -0.7071269 0 0.7070866 0.7071255 0 0.7070882 0.9659138 0 0.2588642 0.9659138 0 -0.2588642 0.7071274 0 -0.7070862 0.7071235 0 -0.7070901 -0.7071279 0 -0.7070857 -0.707126 0 -0.7070876 -0.7071279 0 0.7070857 0.7071265 0 0.7070872 0.7071245 0 -0.7070891 0.7071265 0 -0.7070872 -0.2588284 0 -0.9659234 -0.2588303 0 -0.9659228 -0.7071265 0 -0.7070872 -0.7071274 0 -0.7070862 -0.7071274 0 0.7070862 -0.2588284 0 0.9659234 0.2588284 0 0.9659234 0.707126 0 0.7070876 0.707126 0 -0.7070876 0.707125 0 -0.7070886 0.2588303 0 -0.9659228 0.2588284 0 -0.9659234 -0.7071063 0 -0.7071073 0.7071063 0 -0.7071073 -0.7071071 0 -0.7071065 -0.965923 0 -0.2588298 -0.965923 0 0.2588298 -0.7071071 0 0.7071065 -0.707108 0 0.7071056 -0.7071077 0 -0.7071059 -0.7071057 0 -0.7071079 -0.9659231 0 -0.2588291 -0.9659231 0 0.2588291 -0.7071067 0 0.7071069 -0.7071077 0 0.7071059 0.7070881 0 0.7071255 0.7070872 0 0.7071264 0.9659331 0 0.2587924 0.9659331 0 -0.2587924 0.7070862 0 -0.7071275 0.7070881 0 -0.7071255 -0.7071051 0 -0.7071085 -0.707109 0 -0.7071046 -0.707109 0 0.7071046 -0.7071051 0 0.7071085 -0.7070852 0 -0.7071284 -0.7070891 0 -0.7071245 -0.965933 0 -0.2587927 -0.965933 0 0.2587927 -0.7070872 0 0.7071264 0.7071065 0 0.7071071 0.9659233 0 0.2588288 0.9659233 0 -0.2588288 0.7071085 0 -0.7071052 0.7071046 0 -0.7071091 -0.7070832 0 -0.7071304 -0.7070911 0 -0.7071225 -0.7070891 0 0.7071245 -0.7070852 0 0.7071284 0.7071048 0 0.7071089 0.7071087 0 0.707105 0.7071107 0 -0.707103 0.7071027 0 -0.7071108 -0.7071058 0 -0.7071078 -0.7071068 0 -0.7071068 -0.7071068 0 0.7071068 0.7071068 0 0.7071068 0.7071068 0 -0.7071068 0.7071058 0 -0.7071078 -0.7071231 0 -0.7070906 -0.7071309 0 -0.7070827 -0.707129 0 0.7070847 -0.707125 0 0.7070886 0.7071235 0 0.7070901 0.7071274 0 0.7070862 0.7071294 0 -0.7070842 0.7071215 0 -0.7070921 -0.7071062 0 -0.7071074 -0.7071072 0 -0.7071065 -0.7071072 0 0.7071065 0.707107 0 0.7071066 0.707107 0 -0.7071066 0.707106 0 -0.7071076 -0.2588192 0 -0.9659258 -0.7071071 0 -0.7071065 -0.9659257 0 -0.2588198 -0.9659257 0 0.2588198 -0.7071071 0 0.7071065 -0.2588192 0 0.9659258 0.2588192 0 0.9659258 0.7071071 0 0.7071065 0.9659257 0 0.2588198 0.9659257 0 0.2588197 0.9659257 0 -0.2588198 0.9659257 0 -0.2588197 0.7071071 0 -0.7071065 0.2588192 0 -0.9659258 0 1 0 0 1 0 -0.2588239 0 -0.9659246 -0.7071301 0 -0.7070835 -0.7071277 0 -0.7070859 -0.9659141 0 -0.2588628 -0.9659141 0 0.2588628 -0.7071326 0 0.707081 -0.7071277 0 0.7070859 -0.2588239 0 0.9659246 -0.2588147 0 0.965927 0.2588147 0 0.965927 0.2588239 0 0.9659246 0.7071314 0 0.7070823 0.7071363 0 0.7070773 0.9659123 0 0.2588697 0.9659123 0 -0.2588697 0.7071314 0 -0.7070823 0.7071338 0 -0.7070798 0.2588239 0 -0.9659246 -0.2588147 0 -0.965927 -0.7071326 0 -0.707081 0.7071363 0 -0.7070773 0.2588147 0 -0.965927 -0.7071301 0 0.7070835 0.7071338 0 0.7070798 -0.7071046 0 -0.7071089 -0.7071096 0 0.707104 -0.7071046 0 0.7071089 0.7071046 0 0.7071089 0.7071096 0 0.707104 0.7071046 0 -0.7071089 -0.7071096 0 -0.707104 0.7071096 0 -0.707104</float_array>
          <technique_common>
            <accessor source="#shape0_003-mesh-normals-array" count="478" stride="3">
              <param name="X" type="float"/>
              <param name="Y" type="float"/>
              <param name="Z" type="float"/>
            </accessor>
          </technique_common>
        </source>
        <vertices id="shape0_003-mesh-vertices">
          <input semantic="POSITION" source="#shape0_003-mesh-positions"/>
        </vertices>
        <triangles material="DBCase-material" count="2614">
          <input semantic="VERTEX" source="#shape0_003-mesh-vertices" offset="0"/>
          <input semantic="NORMAL" source="#shape0_003-mesh-normals" offset="1"/>
          <p>0 0 1 0 2 0 2 0 3 0 0 0 0 0 3 0 4 0 0 0 4 0 5 0 4 0 6 0 5 0 5 0 6 0 7 0 5 0 7 0 8 0 9 0 10 0 11 0 11 0 10 0 8 0 11 0 8 0 12 0 12 0 8 0 7 0 13 1 10 1 9 1 9 1 14 1 13 1 13 1 14 1 15 1 13 1 15 1 16 1 16 1 15 1 17 1 16 1 17 1 18 1 18 1 17 1 19 1 18 1 19 1 20 1 20 1 19 1 21 1 20 1 21 1 22 1 22 1 21 1 23 1 22 1 23 1 24 1 24 1 23 1 25 1 24 1 25 1 26 1 26 1 25 1 27 1 26 1 27 1 28 1 29 2 28 2 27 2 27 2 30 2 29 2 29 2 30 2 31 2 29 2 31 2 32 2 31 2 33 2 32 2 32 2 33 2 34 2 32 2 34 2 35 2 36 2 37 2 38 2 38 2 37 2 35 2 38 2 35 2 39 2 39 2 35 2 34 2 40 3 41 3 36 3 40 3 36 3 42 3 42 3 36 3 43 3 42 3 43 3 44 3 44 3 43 3 45 3 44 3 45 3 46 3 46 3 45 3 47 3 46 3 47 3 48 3 48 3 47 3 49 3 48 3 49 3 50 3 50 3 49 3 51 3 50 3 51 3 52 3 2 3 1 3 53 3 53 3 1 3 52 3 53 3 52 3 54 3 54 3 52 3 51 3 55 4 56 4 57 4 58 4 59 4 60 4 61 4 62 4 63 4 64 4 65 4 66 4 64 4 66 4 67 4 68 4 69 4 52 4 62 4 61 4 70 4 68 4 52 4 71 4 72 4 73 4 74 4 70 4 75 4 76 4 76 4 75 4 77 4 76 4 77 4 65 4 65 4 77 4 78 4 65 4 78 4 66 4 69 5 79 5 52 5 52 4 79 4 80 4 52 4 80 4 50 4 50 6 80 6 81 6 50 4 81 4 82 4 61 4 83 4 70 4 70 4 83 4 84 4 70 4 84 4 75 4 75 4 84 4 85 4 75 4 85 4 86 4 87 4 88 4 89 4 90 4 91 4 92 4 92 4 93 4 90 4 90 4 93 4 94 4 90 4 94 4 95 4 95 4 94 4 96 4 95 4 96 4 97 4 97 4 96 4 98 4 97 4 98 4 99 4 100 4 101 4 102 4 102 4 101 4 97 4 102 4 97 4 103 4 103 4 97 4 99 4 100 4 104 4 101 4 101 4 104 4 105 4 101 4 105 4 106 4 106 4 105 4 107 4 106 4 107 4 87 4 87 4 107 4 108 4 87 4 108 4 88 4 109 4 110 4 111 4 112 4 113 4 114 4 114 4 113 4 115 4 116 4 117 4 118 4 118 7 117 7 119 7 118 4 119 4 56 4 120 4 121 4 122 4 122 4 121 4 115 4 122 4 115 4 123 4 123 4 115 4 113 4 110 4 124 4 16 4 16 4 124 4 125 4 126 4 127 4 128 4 120 4 128 4 121 4 121 8 128 8 127 8 121 9 127 9 116 9 116 10 127 10 129 10 116 11 129 11 117 11 13 12 130 12 131 12 125 4 132 4 16 4 16 4 132 4 133 4 16 4 133 4 13 4 13 13 133 13 134 13 13 14 134 14 130 14 56 4 119 4 57 4 57 4 119 4 135 4 57 4 135 4 136 4 136 4 137 4 138 4 138 15 137 15 139 15 140 4 141 4 142 4 142 4 141 4 143 4 140 4 144 4 141 4 141 4 144 4 145 4 141 4 145 4 111 4 111 4 145 4 146 4 111 4 146 4 109 4 109 4 146 4 147 4 109 4 147 4 148 4 148 4 147 4 126 4 148 4 126 4 149 4 149 4 126 4 128 4 150 4 151 4 152 4 153 4 154 4 141 4 141 4 154 4 155 4 85 4 156 4 86 4 86 4 156 4 157 4 86 4 157 4 73 4 73 4 157 4 158 4 73 4 158 4 74 4 74 4 158 4 159 4 74 4 159 4 141 4 141 4 159 4 160 4 141 4 160 4 153 4 139 16 143 16 138 16 138 17 143 17 141 17 138 4 141 4 161 4 161 18 141 18 155 18 161 19 155 19 162 19 60 4 59 4 163 4 163 4 59 4 164 4 163 4 164 4 165 4 165 4 166 4 163 4 163 4 166 4 167 4 163 4 167 4 168 4 168 4 167 4 169 4 169 4 170 4 168 4 168 4 170 4 171 4 168 4 171 4 172 4 172 4 171 4 173 4 172 4 173 4 174 4 174 4 173 4 175 4 174 4 175 4 176 4 176 4 177 4 174 4 174 4 177 4 178 4 174 4 178 4 179 4 179 4 178 4 180 4 179 4 180 4 181 4 182 4 183 4 184 4 184 4 185 4 186 4 186 4 185 4 187 4 186 4 187 4 188 4 188 4 187 4 189 4 188 4 189 4 60 4 60 4 189 4 190 4 60 4 190 4 191 4 191 4 192 4 60 4 60 4 192 4 179 4 60 4 179 4 58 4 58 4 179 4 181 4 183 4 182 4 193 4 194 4 195 4 196 4 182 4 197 4 193 4 193 4 197 4 198 4 193 4 198 4 199 4 198 4 200 4 199 4 199 4 200 4 195 4 199 4 195 4 201 4 202 4 203 4 179 4 179 4 203 4 204 4 179 4 204 4 42 4 42 4 204 4 205 4 42 4 205 4 206 4 192 4 207 4 179 4 179 4 207 4 208 4 179 4 208 4 202 4 202 4 208 4 209 4 202 4 209 4 210 4 211 4 40 4 212 4 212 4 40 4 42 4 212 4 42 4 213 4 213 4 42 4 206 4 194 4 214 4 195 4 195 4 214 4 215 4 195 4 215 4 201 4 201 4 215 4 216 4 201 4 216 4 217 4 217 4 216 4 218 4 217 4 218 4 210 4 210 4 218 4 219 4 210 4 219 4 202 4 211 4 220 4 40 4 40 4 220 4 221 4 40 4 221 4 194 4 222 4 223 4 224 4 225 4 226 4 227 4 227 4 226 4 228 4 228 4 226 4 229 4 228 4 229 4 230 4 231 4 232 4 225 4 222 4 233 4 223 4 223 4 233 4 234 4 223 4 234 4 235 4 234 4 236 4 235 4 235 4 236 4 237 4 235 4 237 4 26 4 26 4 237 4 238 4 26 4 238 4 239 4 239 4 240 4 26 4 26 4 240 4 241 4 26 4 241 4 24 4 24 4 241 4 242 4 24 4 242 4 243 4 243 4 244 4 24 4 24 4 244 4 245 4 24 4 245 4 163 4 163 4 245 4 246 4 163 4 246 4 247 4 224 4 228 4 222 4 222 4 228 4 230 4 222 4 230 4 248 4 248 4 230 4 249 4 248 4 249 4 247 4 232 4 231 4 250 4 249 4 251 4 247 4 247 4 251 4 252 4 247 4 252 4 163 4 163 4 252 4 253 4 163 4 253 4 60 4 60 4 253 4 254 4 60 4 254 4 255 4 256 4 188 4 257 4 257 4 188 4 60 4 257 4 60 4 258 4 258 4 60 4 255 4 259 4 260 4 172 4 172 4 260 4 261 4 172 4 261 4 106 4 106 4 261 4 262 4 263 4 46 4 101 4 262 4 264 4 106 4 106 4 264 4 265 4 106 4 265 4 101 4 101 4 265 4 266 4 101 4 266 4 263 4 267 4 268 4 269 4 269 4 268 4 270 4 268 4 271 4 270 4 270 4 271 4 272 4 270 4 272 4 273 4 273 4 272 4 274 4 273 4 274 4 174 4 174 4 274 4 275 4 174 4 275 4 172 4 172 4 275 4 276 4 172 4 276 4 259 4 269 4 277 4 267 4 267 4 277 4 278 4 267 4 278 4 279 4 279 4 278 4 280 4 279 4 280 4 263 4 263 4 280 4 281 4 263 4 281 4 46 4 46 4 281 4 282 4 46 4 282 4 283 4 283 4 284 4 46 4 46 4 284 4 285 4 46 4 285 4 44 4 44 4 285 4 286 4 44 4 286 4 287 4 287 4 288 4 44 4 44 4 288 4 289 4 44 4 289 4 174 4 174 4 289 4 290 4 174 4 290 4 273 4 291 4 292 4 87 4 293 4 294 4 20 4 20 4 294 4 295 4 296 4 297 4 298 4 298 4 297 4 299 4 168 4 300 4 301 4 302 4 303 4 304 4 304 4 303 4 305 4 304 4 305 4 301 4 299 4 297 4 306 4 306 4 297 4 307 4 306 4 307 4 302 4 302 4 307 4 308 4 302 4 308 4 303 4 301 4 305 4 168 4 168 4 305 4 309 4 168 4 309 4 22 4 22 4 309 4 310 4 22 4 310 4 311 4 311 4 312 4 22 4 22 4 312 4 313 4 22 4 313 4 20 4 20 4 313 4 314 4 20 4 314 4 293 4 87 4 292 4 106 4 106 4 292 4 315 4 106 4 315 4 316 4 300 4 168 4 317 4 317 4 168 4 172 4 317 4 172 4 318 4 316 4 319 4 106 4 106 4 319 4 320 4 106 4 320 4 172 4 172 4 320 4 321 4 172 4 321 4 318 4 151 4 61 4 152 4 152 4 61 4 63 4 152 4 63 4 0 4 0 4 63 4 322 4 322 20 323 20 0 20 0 21 323 21 324 21 0 4 324 4 1 4 66 4 71 4 67 4 67 4 71 4 52 4 67 4 52 4 325 4 325 4 52 4 1 4 325 22 1 22 326 22 326 23 1 23 324 23 227 4 327 4 225 4 225 4 327 4 328 4 225 4 328 4 231 4 231 4 328 4 329 4 231 4 329 4 29 4 329 4 330 4 29 4 29 4 330 4 331 4 29 4 331 4 28 4 28 4 331 4 332 4 28 4 332 4 26 4 26 4 332 4 333 4 26 4 333 4 235 4 257 4 334 4 256 4 256 4 334 4 335 4 256 4 335 4 336 4 336 4 335 4 250 4 336 4 250 4 337 4 337 4 250 4 231 4 337 4 231 4 338 4 338 4 231 4 29 4 186 4 339 4 184 4 184 4 339 4 340 4 184 4 340 4 182 4 182 4 340 4 35 4 340 4 341 4 35 4 35 4 341 4 342 4 35 4 342 4 32 4 32 4 342 4 343 4 32 4 343 4 29 4 29 4 343 4 344 4 29 4 344 4 338 4 196 4 345 4 194 4 194 4 345 4 346 4 194 4 346 4 40 4 40 4 346 4 347 4 40 4 347 4 41 4 347 4 348 4 41 4 41 4 348 4 349 4 41 4 349 4 35 4 35 4 349 4 350 4 35 4 350 4 182 4 182 4 350 4 351 4 182 4 351 4 197 4 131 4 113 4 13 4 13 24 113 24 112 24 13 4 112 4 10 4 10 4 112 4 352 4 352 25 353 25 10 25 10 26 353 26 354 26 10 4 354 4 8 4 8 27 354 27 355 27 155 28 356 28 162 28 162 4 356 4 357 4 162 4 357 4 358 4 358 4 357 4 150 4 358 4 150 4 359 4 359 4 150 4 152 4 359 4 152 4 360 4 360 4 152 4 0 4 138 4 361 4 136 4 136 4 361 4 362 4 136 4 362 4 57 4 57 4 362 4 8 4 57 4 8 4 55 4 55 29 8 29 355 29 362 4 363 4 8 4 8 30 363 30 364 30 8 4 364 4 5 4 5 31 364 31 365 31 5 4 365 4 0 4 0 32 365 32 366 32 0 33 366 33 360 33 22 4 367 4 368 4 368 4 369 4 22 4 22 4 369 4 370 4 22 4 370 4 168 4 168 4 370 4 371 4 168 4 371 4 372 4 372 4 373 4 168 4 168 4 373 4 374 4 168 4 374 4 163 4 163 4 374 4 375 4 163 4 375 4 376 4 377 4 24 4 378 4 378 4 24 4 163 4 378 4 163 4 379 4 379 4 163 4 376 4 377 4 380 4 24 4 24 4 380 4 381 4 24 4 381 4 22 4 22 4 381 4 382 4 22 4 382 4 367 4 383 4 384 4 174 4 174 4 384 4 385 4 174 4 385 4 44 4 44 4 385 4 386 4 44 4 386 4 387 4 387 4 388 4 44 4 44 4 388 4 389 4 44 4 389 4 42 4 42 4 389 4 390 4 42 4 390 4 391 4 391 4 392 4 42 4 42 4 392 4 393 4 42 4 393 4 179 4 179 4 393 4 394 4 179 4 394 4 395 4 395 4 396 4 179 4 179 4 396 4 397 4 179 4 397 4 174 4 174 4 397 4 398 4 174 4 398 4 383 4 18 4 399 4 400 4 401 4 402 4 90 4 400 4 403 4 18 4 18 4 403 4 404 4 18 4 404 4 90 4 90 4 404 4 405 4 90 4 405 4 401 4 402 4 406 4 90 4 90 34 406 34 87 34 90 35 87 35 91 35 91 4 87 4 89 4 406 4 407 4 87 4 87 4 407 4 408 4 87 4 408 4 409 4 410 4 411 4 20 4 411 4 412 4 20 4 20 4 412 4 413 4 20 4 413 4 18 4 18 36 413 36 414 36 18 4 414 4 399 4 409 4 410 4 87 4 87 4 410 4 20 4 87 4 20 4 291 4 291 4 20 4 295 4 291 4 295 4 298 4 298 4 295 4 415 4 298 4 415 4 296 4 416 4 417 4 97 4 418 4 419 4 48 4 418 4 48 4 420 4 417 4 420 4 97 4 97 4 420 4 48 4 97 4 48 4 421 4 421 4 48 4 50 4 421 4 50 4 422 4 422 4 50 4 82 4 423 4 424 4 101 4 101 4 424 4 425 4 101 35 425 35 97 35 97 4 425 4 426 4 97 4 426 4 416 4 419 4 427 4 48 4 48 4 427 4 428 4 48 37 428 37 46 37 46 4 428 4 429 4 46 4 429 4 430 4 430 4 431 4 46 4 46 4 431 4 432 4 46 4 432 4 101 4 101 4 432 4 433 4 101 4 433 4 423 4 16 4 18 4 110 4 110 4 18 4 90 4 110 4 90 4 111 4 111 4 90 4 95 4 111 4 95 4 141 4 141 4 95 4 97 4 141 4 97 4 74 4 74 4 97 4 421 4 74 4 421 4 72 4 7 38 6 38 434 38 435 38 436 38 437 38 438 38 439 38 440 38 440 38 439 38 441 38 440 38 441 38 442 38 442 38 441 38 443 38 442 38 443 38 444 38 445 38 446 38 51 38 51 38 446 38 447 38 51 38 447 38 54 38 447 38 448 38 54 38 54 38 448 38 449 38 54 38 449 38 438 38 444 38 450 38 442 38 442 38 450 38 451 38 442 38 451 38 452 38 437 38 453 38 454 38 454 38 453 38 455 38 17 38 456 38 457 38 458 38 459 38 460 38 455 38 461 38 454 38 454 38 461 38 462 38 454 38 462 38 460 38 460 38 462 38 463 38 460 38 463 38 458 38 459 38 464 38 15 38 15 38 464 38 465 38 15 38 465 38 17 38 17 38 465 38 466 38 17 38 466 38 456 38 467 38 468 38 469 38 470 38 471 38 472 38 471 38 473 38 472 38 472 38 473 38 474 38 472 38 474 38 468 38 468 38 474 38 475 38 468 38 475 38 469 38 476 38 477 38 47 38 47 38 477 38 478 38 47 38 478 38 49 38 478 38 479 38 49 38 49 38 479 38 480 38 49 38 480 38 481 38 445 38 51 38 451 38 451 38 51 38 49 38 451 38 49 38 452 38 452 38 49 38 481 38 452 38 481 38 470 38 434 38 482 38 483 38 483 38 482 38 484 38 485 38 486 38 487 38 487 38 488 38 489 38 484 38 490 38 483 38 483 38 490 38 491 38 483 38 491 38 485 38 485 38 491 38 492 38 485 38 492 38 486 38 488 38 493 38 489 38 489 38 493 38 494 38 489 38 494 38 495 38 495 38 494 38 496 38 495 38 496 38 497 38 498 38 499 38 500 38 501 38 502 38 503 38 503 38 502 38 504 38 503 38 504 38 499 38 499 38 504 38 505 38 499 38 505 38 500 38 501 38 503 38 506 38 506 38 503 38 507 38 506 38 507 38 508 38 508 38 507 38 45 38 508 38 45 38 509 38 510 38 511 38 43 38 43 38 511 38 512 38 43 38 512 38 45 38 45 38 512 38 513 38 45 38 513 38 509 38 514 38 515 38 516 38 516 38 515 38 517 38 515 38 518 38 517 38 517 38 518 38 519 38 517 38 519 38 520 38 521 38 520 38 522 38 522 38 523 38 521 38 521 38 523 38 524 38 521 38 524 38 525 38 524 38 526 38 525 38 525 38 526 38 527 38 525 38 527 38 528 38 528 38 527 38 529 38 514 38 516 38 530 38 530 38 516 38 531 38 530 38 531 38 529 38 457 38 453 38 17 38 17 38 453 38 437 38 17 38 437 38 19 38 19 38 437 38 436 38 19 38 436 38 532 38 532 38 533 38 19 38 19 38 533 38 534 38 19 38 534 38 21 38 21 38 534 38 535 38 536 38 537 38 538 38 538 38 537 38 539 38 538 38 539 38 540 38 536 38 541 38 537 38 537 38 541 38 542 38 537 38 542 38 543 38 543 38 542 38 544 38 543 38 544 38 435 38 23 38 545 38 546 38 23 38 546 38 25 38 546 38 547 38 25 38 25 38 547 38 548 38 25 38 548 38 549 38 549 38 548 38 550 38 549 38 550 38 551 38 551 38 550 38 552 38 552 38 553 38 551 38 551 38 553 38 554 38 551 38 554 38 555 38 554 38 556 38 555 38 555 38 556 38 557 38 555 38 557 38 558 38 558 38 557 38 559 38 558 38 559 38 23 38 23 38 559 38 560 38 23 38 560 38 545 38 529 38 531 38 528 38 528 38 531 38 12 38 528 38 12 38 7 38 497 38 482 38 495 38 495 38 482 38 434 38 495 38 434 38 561 38 561 38 434 38 6 38 561 38 6 38 4 38 459 38 15 38 460 38 460 38 15 38 14 38 460 38 14 38 562 38 562 38 14 38 9 38 562 38 9 38 11 38 438 38 440 38 54 38 54 38 440 38 563 38 54 38 563 38 53 38 53 38 563 38 3 38 53 38 3 38 2 38 435 38 437 38 543 38 543 38 437 38 454 38 543 38 454 38 517 38 517 38 454 38 460 38 517 38 460 38 516 38 516 38 460 38 562 38 516 38 562 38 531 38 531 38 562 38 11 38 531 38 11 38 12 38 470 38 472 38 452 38 452 38 472 38 489 38 452 38 489 38 442 38 442 38 489 38 495 38 442 38 495 38 440 38 440 38 495 38 561 38 440 38 561 38 563 38 563 38 561 38 4 38 563 38 4 38 3 38 564 38 565 38 566 38 7 38 434 38 528 38 528 38 434 38 483 38 528 38 483 38 525 38 525 38 483 38 485 38 525 38 485 38 521 38 521 38 485 38 566 38 521 38 566 38 567 38 567 38 566 38 565 38 567 38 565 38 568 38 569 38 570 38 571 38 568 38 572 38 567 38 567 38 572 38 573 38 567 38 573 38 571 38 571 38 573 38 574 38 571 38 574 38 569 38 570 38 575 38 576 38 575 38 577 38 576 38 576 38 577 38 578 38 576 38 578 38 566 38 566 38 578 38 579 38 566 38 579 38 564 38 23 38 580 38 581 38 582 38 583 38 539 38 539 38 583 38 584 38 558 38 585 38 586 38 23 38 581 38 558 38 558 38 581 38 587 38 558 38 587 38 585 38 584 38 588 38 539 38 539 38 588 38 21 38 539 38 21 38 540 38 540 38 21 38 535 38 588 38 589 38 21 38 21 38 589 38 590 38 21 38 590 38 23 38 23 38 590 38 591 38 23 38 591 38 580 38 571 38 592 38 593 38 537 38 594 38 595 38 520 38 521 38 517 38 517 38 521 38 567 38 517 38 567 38 543 38 543 38 567 38 571 38 543 38 571 38 537 38 537 38 571 38 593 38 537 38 593 38 594 38 596 38 597 38 555 38 555 38 597 38 598 38 586 38 582 38 558 38 558 38 582 38 539 38 558 38 539 38 555 38 555 38 539 38 537 38 555 38 537 38 596 38 596 38 537 38 595 38 599 38 600 38 601 38 599 38 601 38 598 38 600 38 602 38 601 38 601 38 602 38 603 38 601 38 603 38 571 38 571 38 603 38 604 38 571 38 604 38 592 38 605 38 606 38 468 38 503 38 607 38 608 38 605 38 468 38 609 38 610 38 611 38 576 38 487 38 489 38 485 38 485 38 489 38 472 38 485 38 472 38 566 38 566 38 472 38 468 38 566 38 468 38 576 38 576 38 468 38 606 38 576 38 606 38 610 38 611 38 612 38 576 38 576 38 612 38 613 38 576 38 613 38 614 38 613 38 615 38 614 38 614 38 615 38 616 38 614 38 616 38 617 38 618 38 47 38 619 38 619 38 47 38 45 38 619 38 45 38 620 38 618 38 621 38 47 38 47 38 621 38 467 38 47 38 467 38 476 38 476 38 467 38 469 38 621 38 622 38 467 38 467 38 622 38 623 38 467 38 623 38 624 38 507 38 625 38 626 38 626 38 627 38 507 38 507 38 627 38 628 38 507 38 628 38 45 38 45 38 628 38 629 38 45 38 629 38 620 38 608 38 609 38 503 38 503 38 609 38 468 38 503 38 468 38 507 38 507 38 468 38 467 38 507 38 467 38 625 38 625 38 467 38 624 38 614 38 630 38 631 38 570 38 576 38 571 38 571 38 576 38 614 38 571 38 614 38 601 38 601 38 614 38 631 38 601 38 631 38 632 38 633 38 634 38 635 38 635 38 634 38 601 38 635 38 601 38 636 38 636 38 601 38 632 38 637 38 638 38 639 38 639 38 638 38 634 38 639 38 634 38 640 38 640 38 634 38 633 38 637 38 641 38 638 38 638 38 641 38 642 38 638 38 642 38 614 38 614 38 642 38 643 38 614 38 643 38 630 38 549 38 644 38 645 38 30 38 646 38 647 38 27 38 648 38 30 38 30 38 648 38 649 38 30 38 649 38 646 38 650 38 25 38 651 38 651 38 25 38 549 38 651 38 549 38 652 38 652 38 549 38 645 38 650 38 653 38 25 38 25 38 653 38 654 38 25 38 654 38 27 38 27 38 654 38 655 38 27 38 655 38 648 38 656 38 657 38 634 38 634 38 657 38 658 38 634 38 658 38 659 38 551 38 660 38 661 38 598 38 601 38 555 38 555 38 601 38 634 38 555 38 634 38 551 38 551 38 634 38 659 38 551 38 659 38 660 38 661 38 662 38 551 38 551 38 662 38 31 38 551 38 31 38 549 38 549 38 31 38 30 38 549 38 30 38 644 38 644 38 30 38 647 38 33 38 663 38 664 38 662 38 665 38 31 38 31 38 665 38 666 38 31 38 666 38 33 38 33 38 666 38 667 38 33 38 667 38 663 38 668 38 499 38 669 38 669 38 499 38 670 38 668 38 638 38 499 38 499 38 638 38 614 38 499 38 614 38 503 38 503 38 614 38 617 38 503 38 617 38 607 38 671 38 672 38 34 38 668 38 673 38 638 38 638 38 673 38 674 38 638 38 674 38 675 38 675 38 671 38 638 38 638 38 671 38 34 38 638 38 34 38 634 38 634 38 34 38 33 38 634 38 33 38 656 38 656 38 33 38 664 38 672 38 676 38 34 38 34 38 676 38 677 38 34 38 677 38 39 38 39 38 677 38 678 38 39 38 678 38 679 38 680 38 681 38 43 38 43 38 681 38 498 38 43 38 498 38 510 38 510 38 498 38 500 38 681 38 682 38 498 38 498 38 682 38 683 38 498 38 683 38 684 38 685 38 686 38 38 38 686 38 687 38 38 38 38 38 687 38 688 38 38 38 688 38 36 38 688 38 689 38 36 38 36 38 689 38 690 38 36 38 690 38 43 38 43 38 690 38 691 38 43 38 691 38 680 38 684 38 685 38 498 38 498 38 685 38 38 38 498 38 38 38 499 38 499 38 38 38 39 38 499 38 39 38 670 38 670 38 39 38 679 38 692 39 75 39 693 39 693 40 75 40 86 40 693 41 86 41 694 41 694 42 86 42 73 42 694 43 73 43 695 43 695 44 73 44 72 44 695 45 72 45 696 45 696 46 72 46 421 46 696 47 421 47 697 47 697 48 421 48 422 48 697 49 422 49 698 49 698 50 422 50 82 50 698 51 82 51 699 51 699 52 82 52 81 52 699 53 81 53 700 53 700 54 81 54 80 54 700 55 80 55 701 55 701 55 80 55 79 55 701 56 79 56 702 56 702 57 79 57 69 57 702 58 69 58 703 58 703 59 69 59 68 59 703 60 68 60 704 60 704 61 68 61 71 61 704 62 71 62 705 62 705 63 71 63 66 63 705 64 66 64 706 64 706 65 66 65 78 65 706 66 78 66 707 66 707 67 78 67 77 67 707 68 77 68 692 68 692 68 77 68 75 68 708 4 694 4 709 4 709 4 694 4 695 4 709 4 695 4 710 4 710 4 695 4 696 4 710 4 696 4 711 4 712 4 706 4 713 4 713 4 706 4 707 4 713 4 707 4 714 4 714 4 707 4 692 4 714 4 692 4 708 4 708 4 692 4 693 4 708 4 693 4 694 4 696 4 697 4 711 4 711 4 697 4 698 4 711 4 698 4 715 4 715 4 698 4 699 4 715 4 699 4 716 4 716 4 699 4 700 4 716 4 700 4 717 4 700 4 701 4 717 4 717 4 701 4 702 4 717 4 702 4 718 4 718 4 702 4 703 4 718 4 703 4 719 4 719 4 703 4 704 4 719 4 704 4 712 4 712 69 704 69 705 69 712 4 705 4 706 4 720 70 241 70 721 70 721 70 241 70 240 70 721 71 240 71 722 71 722 71 240 71 239 71 722 72 239 72 723 72 723 73 239 73 238 73 723 74 238 74 724 74 724 74 238 74 237 74 724 75 237 75 725 75 725 76 237 76 236 76 725 77 236 77 726 77 726 78 236 78 234 78 726 79 234 79 727 79 727 79 234 79 233 79 727 80 233 80 728 80 728 80 233 80 222 80 728 81 222 81 729 81 729 81 222 81 248 81 729 82 248 82 730 82 730 82 248 82 247 82 730 83 247 83 731 83 731 84 247 84 246 84 731 85 246 85 732 85 732 86 246 86 245 86 732 87 245 87 733 87 733 87 245 87 244 87 733 88 244 88 734 88 734 89 244 89 243 89 734 90 243 90 735 90 735 90 243 90 242 90 735 91 242 91 720 91 720 91 242 91 241 91 736 4 734 4 737 4 737 4 734 4 735 4 737 4 735 4 738 4 738 4 735 4 720 4 738 4 720 4 739 4 740 4 730 4 741 4 741 4 730 4 731 4 741 4 731 4 742 4 742 4 731 4 732 4 742 4 732 4 736 4 736 4 732 4 733 4 736 4 733 4 734 4 743 4 726 4 744 4 744 4 726 4 727 4 744 4 727 4 745 4 745 4 727 4 728 4 745 4 728 4 740 4 740 4 728 4 729 4 740 4 729 4 730 4 720 4 721 4 739 4 739 4 721 4 722 4 739 4 722 4 746 4 746 4 722 4 723 4 746 4 723 4 747 4 747 4 723 4 724 4 747 4 724 4 743 4 743 4 724 4 725 4 743 4 725 4 726 4 748 92 397 92 749 92 749 92 397 92 396 92 749 93 396 93 750 93 750 93 396 93 395 93 750 94 395 94 751 94 751 94 395 94 394 94 751 95 394 95 752 95 752 95 394 95 393 95 752 96 393 96 753 96 753 97 393 97 392 97 753 98 392 98 754 98 754 99 392 99 391 99 754 100 391 100 755 100 755 101 391 101 390 101 755 102 390 102 756 102 756 102 390 102 389 102 756 103 389 103 757 103 757 103 389 103 388 103 757 104 388 104 758 104 758 105 388 105 387 105 758 106 387 106 759 106 759 107 387 107 386 107 759 108 386 108 760 108 760 60 386 60 385 60 760 109 385 109 761 109 761 109 385 109 384 109 761 110 384 110 762 110 762 110 384 110 383 110 762 111 383 111 763 111 763 111 383 111 398 111 763 112 398 112 748 112 748 112 398 112 397 112 764 4 762 4 765 4 765 4 762 4 763 4 765 4 763 4 766 4 766 4 763 4 748 4 766 4 748 4 767 4 768 4 754 4 769 4 769 4 754 4 755 4 769 4 755 4 770 4 770 4 755 4 756 4 770 4 756 4 771 4 756 4 757 4 771 4 771 4 757 4 758 4 771 4 758 4 772 4 772 4 758 4 759 4 772 4 759 4 773 4 773 4 759 4 760 4 773 4 760 4 764 4 764 4 760 4 761 4 764 4 761 4 762 4 748 4 749 4 767 4 767 4 749 4 750 4 767 4 750 4 774 4 774 4 750 4 751 4 774 4 751 4 775 4 775 4 751 4 752 4 775 4 752 4 768 4 768 4 752 4 753 4 768 4 753 4 754 4 776 92 269 92 777 92 777 92 269 92 270 92 777 41 270 41 778 41 778 42 270 42 273 42 778 113 273 113 779 113 779 114 273 114 290 114 779 45 290 45 780 45 780 46 290 46 289 46 780 47 289 47 781 47 781 48 289 48 288 48 781 115 288 115 782 115 782 116 288 116 287 116 782 51 287 51 783 51 783 52 287 52 286 52 783 102 286 102 784 102 784 102 286 102 285 102 784 103 285 103 785 103 785 103 285 103 284 103 785 117 284 117 786 117 786 118 284 118 283 118 786 119 283 119 787 119 787 120 283 120 282 120 787 60 282 60 788 60 788 61 282 61 281 61 788 62 281 62 789 62 789 63 281 63 280 63 789 121 280 121 790 121 790 122 280 122 278 122 790 123 278 123 791 123 791 124 278 124 277 124 791 112 277 112 776 112 776 112 277 112 269 112 792 4 790 4 793 4 793 4 790 4 791 4 793 4 791 4 794 4 794 4 791 4 776 4 794 4 776 4 795 4 776 4 777 4 795 4 795 4 777 4 778 4 795 4 778 4 796 4 796 4 778 4 779 4 796 4 779 4 797 4 797 4 779 4 780 4 797 4 780 4 798 4 799 4 786 4 800 4 800 4 786 4 787 4 800 4 787 4 801 4 801 4 787 4 788 4 801 4 788 4 792 4 792 4 788 4 789 4 792 4 789 4 790 4 780 4 781 4 798 4 798 4 781 4 782 4 798 4 782 4 802 4 802 4 782 4 783 4 802 4 783 4 803 4 803 4 783 4 784 4 803 4 784 4 799 4 799 4 784 4 785 4 799 4 785 4 786 4 804 125 91 125 805 125 805 126 91 126 89 126 805 42 89 42 806 42 806 127 89 127 88 127 806 113 88 113 807 113 807 113 88 113 108 113 807 128 108 128 808 128 808 128 108 128 107 128 808 48 107 48 809 48 809 48 107 48 105 48 809 129 105 129 810 129 810 130 105 130 104 130 810 131 104 131 811 131 811 131 104 131 100 131 811 132 100 132 812 132 812 133 100 133 102 133 812 134 102 134 813 134 813 135 102 135 103 135 813 105 103 105 814 105 814 105 103 105 99 105 814 136 99 136 815 136 815 137 99 137 98 137 815 60 98 60 816 60 816 60 98 60 96 60 816 109 96 109 817 109 817 109 96 109 94 109 817 122 94 122 818 122 818 122 94 122 93 122 818 138 93 138 819 138 819 139 93 139 92 139 819 140 92 140 804 140 804 141 92 141 91 141 820 4 818 4 821 4 821 4 818 4 819 4 821 4 819 4 822 4 822 4 819 4 804 4 822 4 804 4 823 4 824 4 814 4 825 4 825 4 814 4 815 4 825 4 815 4 826 4 826 4 815 4 816 4 826 4 816 4 820 4 820 4 816 4 817 4 820 4 817 4 818 4 827 4 810 4 828 4 828 4 810 4 811 4 828 4 811 4 829 4 829 4 811 4 812 4 829 4 812 4 824 4 824 4 812 4 813 4 824 4 813 4 814 4 804 4 805 4 823 4 823 4 805 4 806 4 823 4 806 4 830 4 830 4 806 4 807 4 830 4 807 4 831 4 831 4 807 4 808 4 831 4 808 4 827 4 827 4 808 4 809 4 827 4 809 4 810 4 832 142 133 142 833 142 833 142 133 142 132 142 833 143 132 143 834 143 834 143 132 143 125 143 834 144 125 144 835 144 835 145 125 145 124 145 835 128 124 128 836 128 836 128 124 128 110 128 836 146 110 146 837 146 837 48 110 48 109 48 837 147 109 147 838 147 838 148 109 148 148 148 838 149 148 149 839 149 839 149 148 149 149 149 839 150 149 150 840 150 840 150 149 150 128 150 840 151 128 151 841 151 841 152 128 152 120 152 841 153 120 153 842 153 842 154 120 154 122 154 842 155 122 155 843 155 843 156 122 156 123 156 843 60 123 60 844 60 844 157 123 157 113 157 844 109 113 109 845 109 845 109 113 109 131 109 845 158 131 158 846 158 846 159 131 159 130 159 846 160 130 160 847 160 847 161 130 161 134 161 847 162 134 162 832 162 832 163 134 163 133 163 848 4 838 4 849 4 849 4 838 4 839 4 849 4 839 4 850 4 850 4 839 4 840 4 850 4 840 4 851 4 852 4 834 4 853 4 853 4 834 4 835 4 853 4 835 4 854 4 854 4 835 4 836 4 854 4 836 4 848 4 848 4 836 4 837 4 848 4 837 4 838 4 840 4 841 4 851 4 851 4 841 4 842 4 851 4 842 4 855 4 855 4 842 4 843 4 855 4 843 4 856 4 856 4 843 4 844 4 856 4 844 4 857 4 844 164 845 164 857 164 857 4 845 4 846 4 857 4 846 4 858 4 858 4 846 4 847 4 858 4 847 4 859 4 859 4 847 4 832 4 859 4 832 4 852 4 852 4 832 4 833 4 852 4 833 4 834 4 860 142 127 142 861 142 861 165 127 165 126 165 861 166 126 166 862 166 862 167 126 167 147 167 862 168 147 168 863 168 863 169 147 169 146 169 863 128 146 128 864 128 864 128 146 128 145 128 864 48 145 48 865 48 865 48 145 48 144 48 865 170 144 170 866 170 866 171 144 171 140 171 866 172 140 172 867 172 867 173 140 173 142 173 867 174 142 174 868 174 868 150 142 150 143 150 868 175 143 175 869 175 869 176 143 176 139 176 869 177 139 177 870 177 870 178 139 178 137 178 870 155 137 155 871 155 871 179 137 179 136 179 871 180 136 180 872 180 872 180 136 180 135 180 872 181 135 181 873 181 873 181 135 181 119 181 873 182 119 182 874 182 874 183 119 183 117 183 874 160 117 160 875 160 875 184 117 184 129 184 875 185 129 185 860 185 860 186 129 186 127 186 876 4 874 4 877 4 877 4 874 4 875 4 877 4 875 4 878 4 878 4 875 4 860 4 878 4 860 4 879 4 880 4 870 4 881 4 881 4 870 4 871 4 881 4 871 4 882 4 882 4 871 4 872 4 882 4 872 4 876 4 876 187 872 187 873 187 876 4 873 4 874 4 883 4 866 4 884 4 884 4 866 4 867 4 884 4 867 4 885 4 885 4 867 4 868 4 885 4 868 4 880 4 880 4 868 4 869 4 880 4 869 4 870 4 860 4 861 4 879 4 879 4 861 4 862 4 879 4 862 4 886 4 886 4 862 4 863 4 886 4 863 4 887 4 887 4 863 4 864 4 887 4 864 4 883 4 883 4 864 4 865 4 883 4 865 4 866 4 888 125 414 125 889 125 889 125 414 125 413 125 889 127 413 127 890 127 890 127 413 127 412 127 890 188 412 188 891 188 891 189 412 189 411 189 891 128 411 128 892 128 892 128 411 128 410 128 892 146 410 146 893 146 893 190 410 190 409 190 893 130 409 130 894 130 894 191 409 191 408 191 894 192 408 192 895 192 895 131 408 131 407 131 895 132 407 132 896 132 896 133 407 133 406 133 896 134 406 134 897 134 897 135 406 135 402 135 897 105 402 105 898 105 898 193 402 193 401 193 898 194 401 194 899 194 899 136 401 136 405 136 899 195 405 195 900 195 900 157 405 157 404 157 900 109 404 109 901 109 901 109 404 109 403 109 901 196 403 196 902 196 902 197 403 197 400 197 902 138 400 138 903 138 903 138 400 138 399 138 903 141 399 141 888 141 888 141 399 141 414 141 904 4 898 4 905 4 905 4 898 4 899 4 905 4 899 4 906 4 906 4 899 4 900 4 906 4 900 4 907 4 908 4 890 4 909 4 909 4 890 4 891 4 909 4 891 4 910 4 910 4 891 4 892 4 910 4 892 4 911 4 900 4 901 4 907 4 907 4 901 4 902 4 907 4 902 4 912 4 912 4 902 4 903 4 912 4 903 4 913 4 913 4 903 4 888 4 913 4 888 4 908 4 908 4 888 4 889 4 908 4 889 4 890 4 892 4 893 4 911 4 911 4 893 4 894 4 911 4 894 4 914 4 914 4 894 4 895 4 914 4 895 4 915 4 915 4 895 4 896 4 915 4 896 4 904 4 904 4 896 4 897 4 904 4 897 4 898 4 916 198 155 198 917 198 917 199 155 199 154 199 917 200 154 200 918 200 918 143 154 143 153 143 918 201 153 201 919 201 919 201 153 201 160 201 919 202 160 202 920 202 920 202 160 202 159 202 920 203 159 203 921 203 921 204 159 204 158 204 921 205 158 205 922 205 922 206 158 206 157 206 922 207 157 207 923 207 923 208 157 208 156 208 923 53 156 53 924 53 924 54 156 54 85 54 924 209 85 209 925 209 925 209 85 209 84 209 925 210 84 210 926 210 926 178 84 178 83 178 926 211 83 211 927 211 927 212 83 212 61 212 927 213 61 213 928 213 928 214 61 214 151 214 928 215 151 215 929 215 929 215 151 215 150 215 929 65 150 65 930 65 930 65 150 65 357 65 930 160 357 160 931 160 931 184 357 184 356 184 931 216 356 216 916 216 916 217 356 217 155 217 932 4 926 4 933 4 933 4 926 4 927 4 933 4 927 4 934 4 934 4 927 4 928 4 934 4 928 4 935 4 936 4 918 4 937 4 937 4 918 4 919 4 937 4 919 4 938 4 938 4 919 4 920 4 938 4 920 4 939 4 928 4 929 4 935 4 935 4 929 4 930 4 935 4 930 4 940 4 940 4 930 4 931 4 940 4 931 4 941 4 941 4 931 4 916 4 941 4 916 4 936 4 936 4 916 4 917 4 936 4 917 4 918 4 920 4 921 4 939 4 939 4 921 4 922 4 939 4 922 4 942 4 942 4 922 4 923 4 942 4 923 4 943 4 943 4 923 4 924 4 943 4 924 4 932 4 932 4 924 4 925 4 932 4 925 4 926 4 944 92 425 92 945 92 945 92 425 92 424 92 945 41 424 41 946 41 946 41 424 41 423 41 946 113 423 113 947 113 947 113 423 113 433 113 947 128 433 128 948 128 948 128 433 128 432 128 948 48 432 48 949 48 949 218 432 218 431 218 949 219 431 219 950 219 950 220 431 220 430 220 950 131 430 131 951 131 951 221 430 221 429 221 951 102 429 102 952 102 952 102 429 102 428 102 952 55 428 55 953 55 953 55 428 55 427 55 953 104 427 104 954 104 954 105 427 105 419 105 954 222 419 222 955 222 955 223 419 223 418 223 955 108 418 108 956 108 956 60 418 60 420 60 956 109 420 109 957 109 957 109 420 109 417 109 957 122 417 122 958 122 958 122 417 122 416 122 958 111 416 111 959 111 959 111 416 111 426 111 959 68 426 68 944 68 944 68 426 68 425 68 960 4 958 4 961 4 961 4 958 4 959 4 961 4 959 4 962 4 962 4 959 4 944 4 962 4 944 4 963 4 944 4 945 4 963 4 963 4 945 4 946 4 963 4 946 4 964 4 964 4 946 4 947 4 964 4 947 4 965 4 965 4 947 4 948 4 965 4 948 4 966 4 967 4 954 4 968 4 968 4 954 4 955 4 968 4 955 4 969 4 969 4 955 4 956 4 969 4 956 4 960 4 960 4 956 4 957 4 960 4 957 4 958 4 948 4 949 4 966 4 966 4 949 4 950 4 966 4 950 4 970 4 970 4 950 4 951 4 970 4 951 4 971 4 971 4 951 4 952 4 971 4 952 4 967 4 967 4 952 4 953 4 967 4 953 4 954 4 972 125 167 125 973 125 973 126 167 126 166 126 973 224 166 224 974 224 974 225 166 225 165 225 974 94 165 94 975 94 975 94 165 94 164 94 975 95 164 95 976 95 976 95 164 95 59 95 976 96 59 96 977 96 977 96 59 96 58 96 977 226 58 226 978 226 978 227 58 227 181 227 978 100 181 100 979 100 979 100 181 100 180 100 979 132 180 132 980 132 980 133 180 133 178 133 980 228 178 228 981 228 981 229 178 229 177 229 981 105 177 105 982 105 982 105 177 105 176 105 982 230 176 230 983 230 983 231 176 231 175 231 983 60 175 60 984 60 984 60 175 60 173 60 984 109 173 109 985 109 985 109 173 109 171 109 985 110 171 110 986 110 986 110 171 110 170 110 986 138 170 138 987 138 987 139 170 139 169 139 987 232 169 232 972 232 972 233 169 233 167 233 988 4 986 4 989 4 989 4 986 4 987 4 989 4 987 4 990 4 990 4 987 4 972 4 990 4 972 4 991 4 992 4 982 4 993 4 993 4 982 4 983 4 993 4 983 4 994 4 994 4 983 4 984 4 994 4 984 4 988 4 988 4 984 4 985 4 988 4 985 4 986 4 995 4 978 4 996 4 996 4 978 4 979 4 996 4 979 4 997 4 997 4 979 4 980 4 997 4 980 4 992 4 992 4 980 4 981 4 992 4 981 4 982 4 972 4 973 4 991 4 991 4 973 4 974 4 991 4 974 4 998 4 998 4 974 4 975 4 998 4 975 4 999 4 999 4 975 4 976 4 999 4 976 4 995 4 995 4 976 4 977 4 995 4 977 4 978 4 1000 234 218 234 1001 234 1001 234 218 234 216 234 1001 235 216 235 1002 235 1002 236 216 236 215 236 1002 237 215 237 1003 237 1003 238 215 238 214 238 1003 239 214 239 1004 239 1004 240 214 240 194 240 1004 241 194 241 1005 241 1005 76 194 76 221 76 1005 242 221 242 1006 242 1006 243 221 243 220 243 1006 244 220 244 1007 244 1007 245 220 245 211 245 1007 246 211 246 1008 246 1008 246 211 246 212 246 1008 247 212 247 1009 247 1009 247 212 247 213 247 1009 248 213 248 1010 248 1010 249 213 249 206 249 1010 250 206 250 1011 250 1011 251 206 251 205 251 1011 85 205 85 1012 85 1012 252 205 252 204 252 1012 253 204 253 1013 253 1013 254 204 254 203 254 1013 255 203 255 1014 255 1014 256 203 256 202 256 1014 257 202 257 1015 257 1015 258 202 258 219 258 1015 259 219 259 1000 259 1000 259 219 259 218 259 1016 4 1014 4 1017 4 1017 4 1014 4 1015 4 1017 4 1015 4 1018 4 1018 4 1015 4 1000 4 1018 4 1000 4 1019 4 1000 4 1001 4 1019 4 1019 4 1001 4 1002 4 1019 4 1002 4 1020 4 1020 4 1002 4 1003 4 1020 4 1003 4 1021 4 1021 4 1003 4 1004 4 1021 4 1004 4 1022 4 1004 4 1005 4 1022 4 1022 4 1005 4 1006 4 1022 4 1006 4 1023 4 1023 4 1006 4 1007 4 1023 4 1007 4 1024 4 1024 4 1007 4 1008 4 1024 4 1008 4 1025 4 1008 4 1009 4 1025 4 1025 4 1009 4 1010 4 1025 4 1010 4 1026 4 1026 4 1010 4 1011 4 1026 4 1011 4 1027 4 1027 4 1011 4 1012 4 1027 4 1012 4 1016 4 1016 4 1012 4 1013 4 1016 4 1013 4 1014 4 1028 70 189 70 1029 70 1029 260 189 260 187 260 1029 236 187 236 1030 236 1030 71 187 71 185 71 1030 237 185 237 1031 237 1031 237 185 237 184 237 1031 74 184 74 1032 74 1032 74 184 74 183 74 1032 76 183 76 1033 76 1033 261 183 261 193 261 1033 262 193 262 1034 262 1034 263 193 263 199 263 1034 264 199 264 1035 264 1035 265 199 265 201 265 1035 246 201 246 1036 246 1036 246 201 246 217 246 1036 247 217 247 1037 247 1037 247 217 247 210 247 1037 266 210 266 1038 266 1038 267 210 267 209 267 1038 268 209 268 1039 268 1039 269 209 269 208 269 1039 270 208 270 1040 270 1040 85 208 85 207 85 1040 87 207 87 1041 87 1041 87 207 87 192 87 1041 256 192 256 1042 256 1042 256 192 256 191 256 1042 90 191 90 1043 90 1043 257 191 257 190 257 1043 271 190 271 1028 271 1028 91 190 91 189 91 1044 4 1042 4 1045 4 1045 4 1042 4 1043 4 1045 4 1043 4 1046 4 1046 4 1043 4 1028 4 1046 4 1028 4 1047 4 1048 4 1038 4 1049 4 1049 4 1038 4 1039 4 1049 4 1039 4 1050 4 1050 4 1039 4 1040 4 1050 4 1040 4 1044 4 1044 4 1040 4 1041 4 1044 4 1041 4 1042 4 1051 4 1034 4 1052 4 1052 4 1034 4 1035 4 1052 4 1035 4 1053 4 1053 4 1035 4 1036 4 1053 4 1036 4 1048 4 1048 4 1036 4 1037 4 1048 4 1037 4 1038 4 1028 4 1029 4 1047 4 1047 4 1029 4 1030 4 1047 4 1030 4 1054 4 1054 4 1030 4 1031 4 1054 4 1031 4 1055 4 1055 4 1031 4 1032 4 1055 4 1032 4 1051 4 1051 4 1032 4 1033 4 1051 4 1033 4 1034 4 1056 70 230 70 1057 70 1057 260 230 260 229 260 1057 236 229 236 1058 236 1058 71 229 71 226 71 1058 272 226 272 1059 272 1059 273 226 273 225 273 1059 74 225 74 1060 74 1060 74 225 74 232 74 1060 76 232 76 1061 76 1061 76 232 76 250 76 1061 274 250 274 1062 274 1062 78 250 78 335 78 1062 264 335 264 1063 264 1063 264 335 264 334 264 1063 275 334 275 1064 275 1064 80 334 80 257 80 1064 81 257 81 1065 81 1065 276 257 276 258 276 1065 267 258 267 1066 267 1066 267 258 267 255 267 1066 83 255 83 1067 83 1067 277 255 277 254 277 1067 85 254 85 1068 85 1068 85 254 85 253 85 1068 87 253 87 1069 87 1069 87 253 87 252 87 1069 278 252 278 1070 278 1070 279 252 279 251 279 1070 90 251 90 1071 90 1071 257 251 257 249 257 1071 271 249 271 1056 271 1056 91 249 91 230 91 1072 4 1066 4 1073 4 1073 4 1066 4 1067 4 1073 4 1067 4 1074 4 1074 4 1067 4 1068 4 1074 4 1068 4 1075 4 1076 4 1062 4 1077 4 1077 4 1062 4 1063 4 1077 4 1063 4 1078 4 1078 4 1063 4 1064 4 1078 4 1064 4 1072 4 1072 4 1064 4 1065 4 1072 4 1065 4 1066 4 1079 4 1058 4 1080 4 1080 4 1058 4 1059 4 1080 4 1059 4 1081 4 1081 4 1059 4 1060 4 1081 4 1060 4 1076 4 1076 4 1060 4 1061 4 1076 4 1061 4 1062 4 1068 4 1069 4 1075 4 1075 4 1069 4 1070 4 1075 4 1070 4 1082 4 1082 4 1070 4 1071 4 1082 4 1071 4 1083 4 1083 4 1071 4 1056 4 1083 4 1056 4 1079 4 1079 4 1056 4 1057 4 1079 4 1057 4 1058 4 1084 125 261 125 1085 125 1085 126 261 126 260 126 1085 42 260 42 1086 42 1086 127 260 127 259 127 1086 113 259 113 1087 113 1087 113 259 113 276 113 1087 128 276 128 1088 128 1088 128 276 128 275 128 1088 48 275 48 1089 48 1089 218 275 218 274 218 1089 219 274 219 1090 219 1090 220 274 220 272 220 1090 131 272 131 1091 131 1091 221 272 221 271 221 1091 102 271 102 1092 102 1092 102 271 102 268 102 1092 103 268 103 1093 103 1093 103 268 103 267 103 1093 280 267 280 1094 280 1094 281 267 281 279 281 1094 222 279 222 1095 222 1095 223 279 223 263 223 1095 108 263 108 1096 108 1096 60 263 60 266 60 1096 109 266 109 1097 109 1097 109 266 109 265 109 1097 122 265 122 1098 122 1098 122 265 122 264 122 1098 282 264 282 1099 282 1099 123 264 123 262 123 1099 232 262 232 1084 232 1084 233 262 233 261 233 1100 4 1098 4 1101 4 1101 4 1098 4 1099 4 1101 4 1099 4 1102 4 1102 4 1099 4 1084 4 1102 4 1084 4 1103 4 1104 4 1090 4 1105 4 1105 4 1090 4 1091 4 1105 4 1091 4 1106 4 1106 4 1091 4 1092 4 1106 4 1092 4 1107 4 1092 4 1093 4 1107 4 1107 4 1093 4 1094 4 1107 4 1094 4 1108 4 1108 4 1094 4 1095 4 1108 4 1095 4 1109 4 1109 4 1095 4 1096 4 1109 4 1096 4 1100 4 1100 4 1096 4 1097 4 1100 4 1097 4 1098 4 1084 4 1085 4 1103 4 1103 4 1085 4 1086 4 1103 4 1086 4 1110 4 1110 4 1086 4 1087 4 1110 4 1087 4 1111 4 1111 4 1087 4 1088 4 1111 4 1088 4 1104 4 1104 4 1088 4 1089 4 1104 4 1089 4 1090 4 1112 125 382 125 1113 125 1113 125 382 125 381 125 1113 225 381 225 1114 225 1114 225 381 225 380 225 1114 283 380 283 1115 283 1115 284 380 284 377 284 1115 95 377 95 1116 95 1116 95 377 95 378 95 1116 285 378 285 1117 285 1117 286 378 286 379 286 1117 227 379 227 1118 227 1118 287 379 287 376 287 1118 288 376 288 1119 288 1119 100 376 100 375 100 1119 132 375 132 1120 132 1120 133 375 133 374 133 1120 228 374 228 1121 228 1121 229 374 229 373 229 1121 105 373 105 1122 105 1122 193 373 193 372 193 1122 289 372 289 1123 289 1123 230 372 230 371 230 1123 195 371 195 1124 195 1124 157 371 157 370 157 1124 109 370 109 1125 109 1125 109 370 109 369 109 1125 290 369 290 1126 290 1126 291 369 291 368 291 1126 138 368 138 1127 138 1127 138 368 138 367 138 1127 233 367 233 1112 233 1112 233 367 233 382 233 1128 4 1122 4 1129 4 1129 4 1122 4 1123 4 1129 4 1123 4 1130 4 1130 4 1123 4 1124 4 1130 4 1124 4 1131 4 1132 4 1118 4 1133 4 1133 4 1118 4 1119 4 1133 4 1119 4 1134 4 1134 4 1119 4 1120 4 1134 4 1120 4 1128 4 1128 4 1120 4 1121 4 1128 4 1121 4 1122 4 1135 4 1114 4 1136 4 1136 4 1114 4 1115 4 1136 4 1115 4 1137 4 1137 4 1115 4 1116 4 1137 4 1116 4 1132 4 1132 4 1116 4 1117 4 1132 4 1117 4 1118 4 1124 4 1125 4 1131 4 1131 4 1125 4 1126 4 1131 4 1126 4 1138 4 1138 4 1126 4 1127 4 1138 4 1127 4 1139 4 1139 4 1127 4 1112 4 1139 4 1112 4 1135 4 1135 4 1112 4 1113 4 1135 4 1113 4 1114 4 1140 125 306 125 1141 125 1141 126 306 126 302 126 1141 42 302 42 1142 42 1142 127 302 127 304 127 1142 292 304 292 1143 292 1143 293 304 293 301 293 1143 128 301 128 1144 128 1144 128 301 128 300 128 1144 48 300 48 1145 48 1145 48 300 48 317 48 1145 129 317 129 1146 129 1146 130 317 130 318 130 1146 131 318 131 1147 131 1147 131 318 131 321 131 1147 132 321 132 1148 132 1148 133 321 133 320 133 1148 228 320 228 1149 228 1149 229 320 229 319 229 1149 281 319 281 1150 281 1150 281 319 281 316 281 1150 136 316 136 1151 136 1151 137 316 137 315 137 1151 60 315 60 1152 60 1152 60 315 60 292 60 1152 109 292 109 1153 109 1153 109 292 109 291 109 1153 294 291 294 1154 294 1154 295 291 295 298 295 1154 282 298 282 1155 282 1155 123 298 123 299 123 1155 232 299 232 1140 232 1140 233 299 233 306 233 1156 4 1150 4 1157 4 1157 4 1150 4 1151 4 1157 4 1151 4 1158 4 1158 4 1151 4 1152 4 1158 4 1152 4 1159 4 1160 4 1146 4 1161 4 1161 4 1146 4 1147 4 1161 4 1147 4 1162 4 1162 4 1147 4 1148 4 1162 4 1148 4 1156 4 1156 4 1148 4 1149 4 1156 4 1149 4 1150 4 1163 4 1142 4 1164 4 1164 4 1142 4 1143 4 1164 4 1143 4 1165 4 1165 4 1143 4 1144 4 1165 4 1144 4 1160 4 1160 4 1144 4 1145 4 1160 4 1145 4 1146 4 1152 4 1153 4 1159 4 1159 4 1153 4 1154 4 1159 4 1154 4 1166 4 1166 4 1154 4 1155 4 1166 4 1155 4 1167 4 1167 4 1155 4 1140 4 1167 4 1140 4 1163 4 1163 4 1140 4 1141 4 1163 4 1141 4 1142 4 1168 125 313 125 1169 125 1169 125 313 125 312 125 1169 127 312 127 1170 127 1170 127 312 127 311 127 1170 188 311 188 1171 188 1171 189 311 189 310 189 1171 128 310 128 1172 128 1172 128 310 128 309 128 1172 146 309 146 1173 146 1173 48 309 48 305 48 1173 296 305 296 1174 296 1174 130 305 130 303 130 1174 192 303 192 1175 192 1175 192 303 192 308 192 1175 133 308 133 1176 133 1176 133 308 133 307 133 1176 228 307 228 1177 228 1177 228 307 228 297 228 1177 297 297 297 1178 297 1178 297 297 297 296 297 1178 136 296 136 1179 136 1179 298 296 298 415 298 1179 60 415 60 1180 60 1180 157 415 157 295 157 1180 109 295 109 1181 109 1181 109 295 109 294 109 1181 196 294 196 1182 196 1182 197 294 197 293 197 1182 282 293 282 1183 282 1183 282 293 282 314 282 1183 233 314 233 1168 233 1168 233 314 233 313 233 1184 4 1182 4 1185 4 1185 4 1182 4 1183 4 1185 4 1183 4 1186 4 1186 4 1183 4 1168 4 1186 4 1168 4 1187 4 1188 4 1178 4 1189 4 1189 4 1178 4 1179 4 1189 4 1179 4 1190 4 1190 4 1179 4 1180 4 1190 4 1180 4 1184 4 1184 4 1180 4 1181 4 1184 4 1181 4 1182 4 1191 4 1174 4 1192 4 1192 4 1174 4 1175 4 1192 4 1175 4 1193 4 1193 4 1175 4 1176 4 1193 4 1176 4 1188 4 1188 4 1176 4 1177 4 1188 4 1177 4 1178 4 1168 4 1169 4 1187 4 1187 4 1169 4 1170 4 1187 4 1170 4 1194 4 1194 4 1170 4 1171 4 1194 4 1171 4 1195 4 1195 4 1171 4 1172 4 1195 4 1172 4 1191 4 1191 4 1172 4 1173 4 1191 4 1173 4 1174 4 591 299 1186 299 580 299 580 300 1186 300 1187 300 580 301 1187 301 581 301 581 302 1187 302 1194 302 581 303 1194 303 587 303 587 303 1194 303 1195 303 587 304 1195 304 585 304 585 304 1195 304 1191 304 585 305 1191 305 586 305 586 306 1191 306 1192 306 586 307 1192 307 582 307 582 308 1192 308 1193 308 582 309 1193 309 583 309 583 310 1193 310 1188 310 583 311 1188 311 584 311 584 312 1188 312 1189 312 584 313 1189 313 588 313 588 313 1189 313 1190 313 588 314 1190 314 589 314 589 314 1190 314 1184 314 589 315 1184 315 590 315 590 316 1184 316 1185 316 590 317 1185 317 591 317 591 318 1185 318 1186 318 596 319 1167 319 597 319 597 320 1167 320 1163 320 597 321 1163 321 598 321 598 322 1163 322 1164 322 598 303 1164 303 599 303 599 303 1164 303 1165 303 599 304 1165 304 600 304 600 304 1165 304 1160 304 600 323 1160 323 602 323 602 323 1160 323 1161 323 602 324 1161 324 603 324 603 324 1161 324 1162 324 603 325 1162 325 604 325 604 325 1162 325 1156 325 604 326 1156 326 592 326 592 326 1156 326 1157 326 592 313 1157 313 593 313 593 313 1157 313 1158 313 593 314 1158 314 594 314 594 314 1158 314 1159 314 594 327 1159 327 595 327 595 328 1159 328 1166 328 595 329 1166 329 596 329 596 330 1166 330 1167 330 546 319 1139 319 547 319 547 320 1139 320 1135 320 547 321 1135 321 548 321 548 322 1135 322 1136 322 548 303 1136 303 550 303 550 303 1136 303 1137 303 550 304 1137 304 552 304 552 304 1137 304 1132 304 552 305 1132 305 553 305 553 306 1132 306 1133 306 553 307 1133 307 554 307 554 308 1133 308 1134 308 554 309 1134 309 556 309 556 310 1134 310 1128 310 556 311 1128 311 557 311 557 312 1128 312 1129 312 557 313 1129 313 559 313 559 313 1129 313 1130 313 559 314 1130 314 560 314 560 314 1130 314 1131 314 560 327 1131 327 545 327 545 328 1131 328 1138 328 545 329 1138 329 546 329 546 330 1138 330 1139 330 613 331 1102 331 615 331 615 331 1102 331 1103 331 615 332 1103 332 616 332 616 333 1103 333 1110 333 616 303 1110 303 617 303 617 303 1110 303 1111 303 617 304 1111 304 607 304 607 304 1111 304 1104 304 607 323 1104 323 608 323 608 334 1104 334 1105 334 608 335 1105 335 609 335 609 324 1105 324 1106 324 609 325 1106 325 605 325 605 336 1106 336 1107 336 605 337 1107 337 606 337 606 326 1107 326 1108 326 606 313 1108 313 610 313 610 313 1108 313 1109 313 610 314 1109 314 611 314 611 314 1109 314 1100 314 611 338 1100 338 612 338 612 339 1100 339 1101 339 612 340 1101 340 613 340 613 340 1101 340 1102 340 662 319 1083 319 665 319 665 320 1083 320 1079 320 665 341 1079 341 666 341 666 342 1079 342 1080 342 666 343 1080 343 667 343 667 343 1080 343 1081 343 667 344 1081 344 663 344 663 344 1081 344 1076 344 663 345 1076 345 664 345 664 345 1076 345 1077 345 664 324 1077 324 656 324 656 324 1077 324 1078 324 656 325 1078 325 657 325 657 325 1078 325 1072 325 657 346 1072 346 658 346 658 346 1072 346 1073 346 658 347 1073 347 659 347 659 347 1073 347 1074 347 659 348 1074 348 660 348 660 348 1074 348 1075 348 660 349 1075 349 661 349 661 350 1075 350 1082 350 661 329 1082 329 662 329 662 330 1082 330 1083 330 671 331 1046 331 672 331 672 331 1046 331 1047 331 672 351 1047 351 676 351 676 352 1047 352 1054 352 676 343 1054 343 677 343 677 343 1054 343 1055 343 677 344 1055 344 678 344 678 344 1055 344 1051 344 678 345 1051 345 679 345 679 353 1051 353 1052 353 679 335 1052 335 670 335 670 324 1052 324 1053 324 670 325 1053 325 669 325 669 336 1053 336 1048 336 669 354 1048 354 668 354 668 346 1048 346 1049 346 668 347 1049 347 673 347 673 347 1049 347 1050 347 673 348 1050 348 674 348 674 348 1050 348 1044 348 674 355 1044 355 675 355 675 356 1044 356 1045 356 675 340 1045 340 671 340 671 340 1045 340 1046 340 685 357 1018 357 686 357 686 358 1018 358 1019 358 686 359 1019 359 687 359 687 360 1019 360 1020 360 687 343 1020 343 688 343 688 343 1020 343 1021 343 688 344 1021 344 689 344 689 344 1021 344 1022 344 689 361 1022 361 690 361 690 345 1022 345 1023 345 690 324 1023 324 691 324 691 362 1023 362 1024 362 691 363 1024 363 680 363 680 325 1024 325 1025 325 680 346 1025 346 681 346 681 364 1025 364 1026 364 681 347 1026 347 682 347 682 347 1026 347 1027 347 682 348 1027 348 683 348 683 348 1027 348 1016 348 683 365 1016 365 684 365 684 366 1016 366 1017 366 684 367 1017 367 685 367 685 368 1017 368 1018 368 635 331 990 331 633 331 633 331 990 331 991 331 633 369 991 369 640 369 640 369 991 369 998 369 640 303 998 303 639 303 639 303 998 303 999 303 639 304 999 304 637 304 637 304 999 304 995 304 637 323 995 323 641 323 641 323 995 323 996 323 641 324 996 324 642 324 642 324 996 324 997 324 642 325 997 325 643 325 643 325 997 325 992 325 643 326 992 326 630 326 630 326 992 326 993 326 630 313 993 313 631 313 631 313 993 313 994 313 631 314 994 314 632 314 632 314 994 314 988 314 632 370 988 370 636 370 636 370 988 370 989 370 636 340 989 340 635 340 635 340 989 340 990 340 474 331 962 331 475 331 475 331 962 331 963 331 475 371 963 371 469 371 469 371 963 371 964 371 469 372 964 372 476 372 476 372 964 372 965 372 476 373 965 373 477 373 477 373 965 373 966 373 477 374 966 374 478 374 478 375 966 375 970 375 478 362 970 362 479 362 479 362 970 362 971 362 479 363 971 363 480 363 480 363 971 363 967 363 480 337 967 337 481 337 481 326 967 326 968 326 481 313 968 313 470 313 470 313 968 313 969 313 470 314 969 314 471 314 471 314 969 314 960 314 471 370 960 370 473 370 473 370 960 370 961 370 473 340 961 340 474 340 474 340 961 340 962 340 491 331 941 331 492 331 492 331 941 331 936 331 492 376 936 376 486 376 486 377 936 377 937 377 486 378 937 378 487 378 487 378 937 378 938 378 487 379 938 379 488 379 488 379 938 379 939 379 488 380 939 380 493 380 493 381 939 381 942 381 493 335 942 335 494 335 494 324 942 324 943 324 494 325 943 325 496 325 496 336 943 336 932 336 496 382 932 382 497 382 497 383 932 383 933 383 497 384 933 384 482 384 482 384 933 384 934 384 482 385 934 385 484 385 484 385 934 385 935 385 484 386 935 386 490 386 490 387 935 387 940 387 490 340 940 340 491 340 491 340 940 340 941 340 534 319 913 319 535 319 535 320 913 320 908 320 535 388 908 388 540 388 540 389 908 389 909 389 540 372 909 372 538 372 538 372 909 372 910 372 538 373 910 373 536 373 536 373 910 373 911 373 536 390 911 390 541 390 541 391 911 391 914 391 541 307 914 307 542 307 542 308 914 308 915 308 542 309 915 309 544 309 544 310 915 310 904 310 544 311 904 311 435 311 435 312 904 312 905 312 435 313 905 313 436 313 436 313 905 313 906 313 436 314 906 314 532 314 532 314 906 314 907 314 532 327 907 327 533 327 533 328 907 328 912 328 533 329 912 329 534 329 534 330 912 330 913 330 515 319 878 319 518 319 518 320 878 320 879 320 518 392 879 392 519 392 519 393 879 393 886 393 519 394 886 394 520 394 520 394 886 394 887 394 520 395 887 395 522 395 522 395 887 395 883 395 522 396 883 396 523 396 523 396 883 396 884 396 523 324 884 324 524 324 524 324 884 324 885 324 524 325 885 325 526 325 526 325 885 325 880 325 526 397 880 397 527 397 527 397 880 397 881 397 527 398 881 398 529 398 529 398 881 398 882 398 529 399 882 399 530 399 530 399 882 399 876 399 530 400 876 400 514 400 514 401 876 401 877 401 514 329 877 329 515 329 515 330 877 330 878 330 466 299 859 299 456 299 456 300 859 300 852 300 456 402 852 402 457 402 457 403 852 403 853 403 457 394 853 394 453 394 453 394 853 394 854 394 453 395 854 395 455 395 455 395 854 395 848 395 455 404 848 404 461 404 461 405 848 405 849 405 461 307 849 307 462 307 462 308 849 308 850 308 462 309 850 309 463 309 463 310 850 310 851 310 463 406 851 406 458 406 458 407 851 407 855 407 458 398 855 398 459 398 459 398 855 398 856 398 459 399 856 399 464 399 464 399 856 399 857 399 464 408 857 408 465 408 465 409 857 409 858 409 465 317 858 317 466 317 466 318 858 318 859 318 573 331 822 331 574 331 574 331 822 331 823 331 574 371 823 371 569 371 569 371 823 371 830 371 569 372 830 372 570 372 570 372 830 372 831 372 570 373 831 373 575 373 575 373 831 373 827 373 575 374 827 374 577 374 577 374 827 374 828 374 577 324 828 324 578 324 578 324 828 324 829 324 578 325 829 325 579 325 579 325 829 325 824 325 579 326 824 326 564 326 564 326 824 326 825 326 564 313 825 313 565 313 565 313 825 313 826 313 565 314 826 314 568 314 568 314 826 314 820 314 568 370 820 370 572 370 572 370 820 370 821 370 572 340 821 340 573 340 573 340 821 340 822 340 625 357 794 357 626 357 626 358 794 358 795 358 626 410 795 410 627 410 627 411 795 411 796 411 627 303 796 303 628 303 628 303 796 303 797 303 628 304 797 304 629 304 629 304 797 304 798 304 629 412 798 412 620 412 620 323 798 323 802 323 620 324 802 324 619 324 619 362 802 362 803 362 619 363 803 363 618 363 618 325 803 325 799 325 618 326 799 326 621 326 621 413 799 413 800 413 621 313 800 313 622 313 622 313 800 313 801 313 622 314 801 314 623 314 623 314 801 314 792 314 623 414 792 414 624 414 624 415 792 415 793 415 624 367 793 367 625 367 625 368 793 368 794 368 504 331 766 331 505 331 505 331 766 331 767 331 505 369 767 369 500 369 500 369 767 369 774 369 500 303 774 303 510 303 510 303 774 303 775 303 510 304 775 304 511 304 511 304 775 304 768 304 511 323 768 323 512 323 512 334 768 334 769 334 512 362 769 362 513 362 513 362 769 362 770 362 513 363 770 363 509 363 509 363 770 363 771 363 509 337 771 337 508 337 508 326 771 326 772 326 508 313 772 313 506 313 506 313 772 313 773 313 506 314 773 314 501 314 501 314 773 314 764 314 501 370 764 370 502 370 502 370 764 370 765 370 502 340 765 340 504 340 504 340 765 340 766 340 654 299 738 299 655 299 655 300 738 300 739 300 655 416 739 416 648 416 648 417 739 417 746 417 648 343 746 343 649 343 649 343 746 343 747 343 649 344 747 344 646 344 646 344 747 344 743 344 646 418 743 418 647 418 647 419 743 419 744 419 647 307 744 307 644 307 644 308 744 308 745 308 644 309 745 309 645 309 645 310 745 310 740 310 645 420 740 420 652 420 652 421 740 421 741 421 652 347 741 347 651 347 651 347 741 347 742 347 651 348 742 348 650 348 650 348 742 348 736 348 650 422 736 422 653 422 653 423 736 423 737 423 653 317 737 317 654 317 654 318 737 318 738 318 443 357 714 357 444 357 444 358 714 358 708 358 444 424 708 424 450 424 450 425 708 425 709 425 450 378 709 378 451 378 451 378 709 378 710 378 451 379 710 379 445 379 445 379 710 379 711 379 445 426 711 426 446 426 446 380 711 380 715 380 446 324 715 324 447 324 447 362 715 362 716 362 447 363 716 363 448 363 448 325 716 325 717 325 448 397 717 397 449 397 449 427 717 427 718 427 449 398 718 398 438 398 438 398 718 398 719 398 438 399 719 399 439 399 439 399 719 399 712 399 439 428 712 428 441 428 441 429 712 429 713 429 441 367 713 367 443 367 443 368 713 368 714 368 1196 430 63 430 1197 430 1197 430 63 430 62 430 1197 431 62 431 1198 431 1198 431 62 431 70 431 1198 432 70 432 1199 432 1199 432 70 432 76 432 1199 433 76 433 1200 433 1200 433 76 433 65 433 1200 434 65 434 1201 434 1201 434 65 434 64 434 1201 435 64 435 1202 435 1202 435 64 435 67 435 1202 436 67 436 1203 436 1203 436 67 436 325 436 1203 437 325 437 1204 437 1204 437 325 437 326 437 1204 438 326 438 1205 438 1205 439 326 439 324 439 1205 440 324 440 1206 440 1206 441 324 441 323 441 1206 442 323 442 1207 442 1207 442 323 442 322 442 1207 443 322 443 1196 443 1196 443 322 443 63 443 1206 4 1207 4 1208 4 1208 4 1207 4 1196 4 1208 4 1196 4 1197 4 1203 4 1204 4 1208 4 1208 444 1204 444 1205 444 1208 445 1205 445 1206 445 1200 4 1201 4 1208 4 1208 4 1201 4 1202 4 1208 4 1202 4 1203 4 1197 4 1198 4 1208 4 1208 4 1198 4 1199 4 1208 4 1199 4 1200 4 1209 446 235 446 1210 446 1210 430 235 430 333 430 1210 447 333 447 1211 447 1211 448 333 448 332 448 1211 449 332 449 1212 449 1212 449 332 449 331 449 1212 450 331 450 1213 450 1213 450 331 450 330 450 1213 451 330 451 1214 451 1214 452 330 452 329 452 1214 453 329 453 1215 453 1215 454 329 454 328 454 1215 455 328 455 1216 455 1216 456 328 456 327 456 1216 457 327 457 1217 457 1217 458 327 458 227 458 1217 459 227 459 1218 459 1218 459 227 459 228 459 1218 460 228 460 1219 460 1219 460 228 460 224 460 1219 461 224 461 1220 461 1220 462 224 462 223 462 1220 443 223 443 1209 443 1209 463 223 463 235 463 1219 4 1220 4 1221 4 1221 4 1220 4 1209 4 1221 4 1209 4 1210 4 1216 4 1217 4 1221 4 1221 4 1217 4 1218 4 1221 4 1218 4 1219 4 1213 4 1214 4 1221 4 1221 4 1214 4 1215 4 1221 4 1215 4 1216 4 1210 4 1211 4 1221 4 1221 4 1211 4 1212 4 1221 4 1212 4 1213 4 1222 446 337 446 1223 446 1223 464 337 464 338 464 1223 465 338 465 1224 465 1224 448 338 448 344 448 1224 449 344 449 1225 449 1225 449 344 449 343 449 1225 450 343 450 1226 450 1226 450 343 450 342 450 1226 452 342 452 1227 452 1227 451 342 451 341 451 1227 454 341 454 1228 454 1228 453 341 453 340 453 1228 456 340 456 1229 456 1229 455 340 455 339 455 1229 458 339 458 1230 458 1230 457 339 457 186 457 1230 459 186 459 1231 459 1231 459 186 459 188 459 1231 460 188 460 1232 460 1232 460 188 460 256 460 1232 461 256 461 1233 461 1233 466 256 466 336 466 1233 467 336 467 1222 467 1222 463 336 463 337 463 1232 4 1233 4 1234 4 1234 4 1233 4 1222 4 1234 4 1222 4 1223 4 1229 4 1230 4 1234 4 1234 4 1230 4 1231 4 1234 4 1231 4 1232 4 1226 4 1227 4 1234 4 1234 4 1227 4 1228 4 1234 4 1228 4 1229 4 1223 4 1224 4 1234 4 1234 4 1224 4 1225 4 1234 4 1225 4 1226 4 1235 430 197 430 1236 430 1236 430 197 430 351 430 1236 447 351 447 1237 447 1237 447 351 447 350 447 1237 449 350 449 1238 449 1238 449 350 449 349 449 1238 450 349 450 1239 450 1239 450 349 450 348 450 1239 468 348 468 1240 468 1240 468 348 468 347 468 1240 435 347 435 1241 435 1241 435 347 435 346 435 1241 436 346 436 1242 436 1242 436 346 436 345 436 1242 469 345 469 1243 469 1243 469 345 469 196 469 1243 459 196 459 1244 459 1244 459 196 459 195 459 1244 460 195 460 1245 460 1245 460 195 460 200 460 1245 462 200 462 1246 462 1246 462 200 462 198 462 1246 443 198 443 1235 443 1235 443 198 443 197 443 1245 4 1246 4 1247 4 1247 4 1246 4 1235 4 1247 4 1235 4 1236 4 1242 4 1243 4 1247 4 1247 4 1243 4 1244 4 1247 4 1244 4 1245 4 1239 4 1240 4 1247 4 1247 4 1240 4 1241 4 1247 4 1241 4 1242 4 1236 4 1237 4 1247 4 1247 4 1237 4 1238 4 1247 4 1238 4 1239 4 1248 446 112 446 1249 446 1249 430 112 430 114 430 1249 431 114 431 1250 431 1250 470 114 470 115 470 1250 432 115 432 1251 432 1251 432 115 432 121 432 1251 433 121 433 1252 433 1252 433 121 433 116 433 1252 471 116 471 1253 471 1253 472 116 472 118 472 1253 453 118 453 1254 453 1254 454 118 454 56 454 1254 455 56 455 1255 455 1255 456 56 456 55 456 1255 473 55 473 1256 473 1256 474 55 474 355 474 1256 438 355 438 1257 438 1257 439 355 439 354 439 1257 440 354 440 1258 440 1258 441 354 441 353 441 1258 475 353 475 1259 475 1259 442 353 442 352 442 1259 443 352 443 1248 443 1248 463 352 463 112 463 1258 4 1259 4 1260 4 1260 4 1259 4 1248 4 1260 4 1248 4 1249 4 1255 4 1256 4 1260 4 1260 444 1256 444 1257 444 1260 445 1257 445 1258 445 1252 4 1253 4 1260 4 1260 4 1253 4 1254 4 1260 4 1254 4 1255 4 1249 4 1250 4 1260 4 1260 4 1250 4 1251 4 1260 4 1251 4 1252 4 1261 446 362 446 1262 446 1262 464 362 464 361 464 1262 476 361 476 1263 476 1263 470 361 470 138 470 1263 432 138 432 1264 432 1264 432 138 432 161 432 1264 433 161 433 1265 433 1265 433 161 433 162 433 1265 472 162 472 1266 472 1266 471 162 471 358 471 1266 454 358 454 1267 454 1267 453 358 453 359 453 1267 456 359 456 1268 456 1268 455 359 455 360 455 1268 474 360 474 1269 474 1269 473 360 473 366 473 1269 438 366 438 1270 438 1270 439 366 439 365 439 1270 440 365 440 1271 440 1271 441 365 441 364 441 1271 475 364 475 1272 475 1272 477 364 477 363 477 1272 467 363 467 1261 467 1261 463 363 463 362 463 1271 4 1272 4 1273 4 1273 4 1272 4 1261 4 1273 4 1261 4 1262 4 1268 4 1269 4 1273 4 1273 444 1269 444 1270 444 1273 445 1270 445 1271 445 1265 4 1266 4 1273 4 1273 4 1266 4 1267 4 1273 4 1267 4 1268 4 1262 4 1263 4 1273 4 1273 4 1263 4 1264 4 1273 4 1264 4 1265 4</p>
        </triangles>
      </mesh>
    </geometry>
  </library_geometries>
  <library_visual_scenes>
    <visual_scene id="Scene" name="Scene">
      <node id="node" name="node" type="NODE">
        <matrix sid="transform">-4.37114e-11 -7.54979e-11 0.001 -0.326 0.001 0 4.37114e-11 0.5785 0 0.001 7.54979e-11 0.86 0 0 0 1</matrix>
        <instance_geometry url="#shape0_003-mesh" name="node">
          <bind_material>
            <technique_common>
              <instance_material symbol="DBCase-material" target="#DBCase-material"/>
            </technique_common>
          </bind_material>
        </instance_geometry>
      </node>
    </visual_scene>
  </library_visual_scenes>
  <scene>
    <instance_visual_scene url="#Scene"/>
  </scene>
</COLLADA>