<?xml version="1.0" encoding="utf-8"?>
<COLLADA xmlns="http://www.collada.org/2005/11/COLLADASchema" version="1.4.1" xmlns:xsi="http://www.w3.org/2001/XMLSchema-instance">
  <asset>
    <contributor>
      <author>Blender User</author>
      <authoring_tool>Blender 4.3.0 commit date:2024-11-19, commit time:08:52, hash:2b18cad88b13</authoring_tool>
    </contributor>
    <created>2024-11-29T14:56:34</created>
    <modified>2024-11-29T14:56:34</modified>
    <unit name="meter" meter="1"/>
    <up_axis>Z_UP</up_axis>
  </asset>
  <library_effects>
    <effect id="Base_Colour_001-effect">
      <profile_COMMON>
        <technique sid="common">
          <lambert>
            <emission>
              <color sid="emission">0 0 0 1</color>
            </emission>
            <diffuse>
              <color sid="diffuse">0.09850398 0.09850398 0.09850398 1</color>
            </diffuse>
            <reflectivity>
              <float sid="specular">0.5</float>
            </reflectivity>
            <index_of_refraction>
              <float sid="ior">1.5</float>
            </index_of_refraction>
          </lambert>
        </technique>
      </profile_COMMON>
    </effect>
    <effect id="Base_Colour-effect">
      <profile_COMMON>
        <technique sid="common">
          <lambert>
            <emission>
              <color sid="emission">0 0 0 1</color>
            </emission>
            <diffuse>
              <color sid="diffuse">0.09850398 0.09850398 0.09850398 1</color>
            </diffuse>
            <reflectivity>
              <float sid="specular">0.5</float>
            </reflectivity>
            <index_of_refraction>
              <float sid="ior">1.5</float>
            </index_of_refraction>
          </lambert>
        </technique>
      </profile_COMMON>
    </effect>
  </library_effects>
  <library_images/>
  <library_materials>
    <material id="Base_Colour_001-material" name="Base Colour.001">
      <instance_effect url="#Base_Colour_001-effect"/>
    </material>
    <material id="Base_Colour-material" name="Base Colour">
      <instance_effect url="#Base_Colour-effect"/>
    </material>
  </library_materials>
  <library_geometries>
    <geometry id="shape0_002-mesh" name="shape0.002">
      <mesh>
        <source id="shape0_002-mesh-positions">
          <float_array id="shape0_002-mesh-positions-array" count="126">0 100 0 100 100 0 0 0 0 100 0 0 0 0 15 100 0 15 45 10 15 10 10 15 10 45 15 0 100 15 55 90 15 45 90 15 45 55 15 90 45 15 90 10 15 55 10 15 55 45 15 45 45 15 100 100 15 90 90 15 90 55 15 55 55 15 10 55 15 10 90 15 0 0 0 0 0 15 55 90 3 55 55 3 90 90 3 10 55 3 45 55 3 10 90 3 90 45 3 55 45 3 90 10 3 45 45 3 10 45 3 45 10 3 10 10 3 55 10 3 45 90 3 90 55 3</float_array>
          <technique_common>
            <accessor source="#shape0_002-mesh-positions-array" count="42" stride="3">
              <param name="X" type="float"/>
              <param name="Y" type="float"/>
              <param name="Z" type="float"/>
            </accessor>
          </technique_common>
        </source>
        <source id="shape0_002-mesh-normals">
          <float_array id="shape0_002-mesh-normals-array" count="18">0 0 -1 0 0 1 0 -1 0 1 0 0 0 1 0 -1 0 0</float_array>
          <technique_common>
            <accessor source="#shape0_002-mesh-normals-array" count="6" stride="3">
              <param name="X" type="float"/>
              <param name="Y" type="float"/>
              <param name="Z" type="float"/>
            </accessor>
          </technique_common>
        </source>
        <vertices id="shape0_002-mesh-vertices">
          <input semantic="POSITION" source="#shape0_002-mesh-positions"/>
        </vertices>
        <triangles material="Base_Colour_001-material" count="76">
          <input semantic="VERTEX" source="#shape0_002-mesh-vertices" offset="0"/>
          <input semantic="NORMAL" source="#shape0_002-mesh-normals" offset="1"/>
          <p>0 0 1 0 2 0 2 0 1 0 3 0 4 1 5 1 6 1 6 1 7 1 4 1 4 1 7 1 8 1 4 1 8 1 9 1 10 1 11 1 12 1 13 1 14 1 5 1 5 1 14 1 15 1 5 1 15 1 6 1 6 1 15 1 16 1 6 1 16 1 17 1 18 1 19 1 20 1 5 1 18 1 13 1 13 1 18 1 20 1 13 1 20 1 16 1 16 1 20 1 21 1 16 1 21 1 17 1 21 1 10 1 17 1 17 1 10 1 12 1 17 1 12 1 8 1 8 1 12 1 22 1 8 1 22 1 9 1 22 1 23 1 9 1 9 1 23 1 11 1 9 1 11 1 18 1 18 1 11 1 10 1 18 1 10 1 19 1 5 2 4 2 3 2 3 2 4 2 24 2 18 3 5 3 1 3 1 3 5 3 3 3 9 4 18 4 0 4 0 4 18 4 1 4 25 5 9 5 24 5 24 5 9 5 0 5 22 4 12 4 29 4 29 4 12 4 30 4 23 3 22 3 31 3 31 3 22 3 29 3 12 5 11 5 30 5 30 5 11 5 40 5 11 2 23 2 40 2 40 2 23 2 31 2 40 1 31 1 30 1 30 1 31 1 29 1 10 3 21 3 26 3 26 3 21 3 27 3 19 2 10 2 28 2 28 2 10 2 26 2 21 4 20 4 27 4 27 4 20 4 41 4 20 5 19 5 41 5 41 5 19 5 28 5 41 1 28 1 27 1 27 1 28 1 26 1 17 2 8 2 35 2 35 2 8 2 36 2 6 5 17 5 37 5 37 5 17 5 35 5 8 3 7 3 36 3 36 3 7 3 38 3 7 4 6 4 38 4 38 4 6 4 37 4 38 1 37 1 36 1 36 1 37 1 35 1 13 2 16 2 32 2 32 2 16 2 33 2 14 5 13 5 34 5 34 5 13 5 32 5 16 3 15 3 33 3 33 3 15 3 39 3 15 4 14 4 39 4 39 4 14 4 34 4 39 1 34 1 33 1 33 1 34 1 32 1</p>
        </triangles>
      </mesh>
    </geometry>
    <geometry id="shape0_026-mesh" name="shape0.026">
      <mesh>
        <source id="shape0_026-mesh-positions">
          <float_array id="shape0_026-mesh-positions-array" count="126">0 100 0 100 100 0 0 0 0 100 0 0 0 0 15 100 0 15 45 10 15 10 10 15 10 45 15 0 100 15 55 90 15 45 90 15 45 55 15 90 45 15 90 10 15 55 10 15 55 45 15 45 45 15 100 100 15 90 90 15 90 55 15 55 55 15 10 55 15 10 90 15 0 0 0 0 0 15 55 90 3 55 55 3 90 90 3 10 55 3 45 55 3 10 90 3 90 45 3 55 45 3 90 10 3 45 45 3 10 45 3 45 10 3 10 10 3 55 10 3 45 90 3 90 55 3</float_array>
          <technique_common>
            <accessor source="#shape0_026-mesh-positions-array" count="42" stride="3">
              <param name="X" type="float"/>
              <param name="Y" type="float"/>
              <param name="Z" type="float"/>
            </accessor>
          </technique_common>
        </source>
        <source id="shape0_026-mesh-normals">
          <float_array id="shape0_026-mesh-normals-array" count="18">0 0 -1 0 0 1 0 -1 0 1 0 0 0 1 0 -1 0 0</float_array>
          <technique_common>
            <accessor source="#shape0_026-mesh-normals-array" count="6" stride="3">
              <param name="X" type="float"/>
              <param name="Y" type="float"/>
              <param name="Z" type="float"/>
            </accessor>
          </technique_common>
        </source>
        <vertices id="shape0_026-mesh-vertices">
          <input semantic="POSITION" source="#shape0_026-mesh-positions"/>
        </vertices>
        <triangles material="Base_Colour-material" count="76">
          <input semantic="VERTEX" source="#shape0_026-mesh-vertices" offset="0"/>
          <input semantic="NORMAL" source="#shape0_026-mesh-normals" offset="1"/>
          <p>0 0 1 0 2 0 2 0 1 0 3 0 4 1 5 1 6 1 6 1 7 1 4 1 4 1 7 1 8 1 4 1 8 1 9 1 10 1 11 1 12 1 13 1 14 1 5 1 5 1 14 1 15 1 5 1 15 1 6 1 6 1 15 1 16 1 6 1 16 1 17 1 18 1 19 1 20 1 5 1 18 1 13 1 13 1 18 1 20 1 13 1 20 1 16 1 16 1 20 1 21 1 16 1 21 1 17 1 21 1 10 1 17 1 17 1 10 1 12 1 17 1 12 1 8 1 8 1 12 1 22 1 8 1 22 1 9 1 22 1 23 1 9 1 9 1 23 1 11 1 9 1 11 1 18 1 18 1 11 1 10 1 18 1 10 1 19 1 5 2 4 2 3 2 3 2 4 2 24 2 18 3 5 3 1 3 1 3 5 3 3 3 9 4 18 4 0 4 0 4 18 4 1 4 25 5 9 5 24 5 24 5 9 5 0 5 22 4 12 4 29 4 29 4 12 4 30 4 23 3 22 3 31 3 31 3 22 3 29 3 12 5 11 5 30 5 30 5 11 5 40 5 11 2 23 2 40 2 40 2 23 2 31 2 40 1 31 1 30 1 30 1 31 1 29 1 10 3 21 3 26 3 26 3 21 3 27 3 19 2 10 2 28 2 28 2 10 2 26 2 21 4 20 4 27 4 27 4 20 4 41 4 20 5 19 5 41 5 41 5 19 5 28 5 41 1 28 1 27 1 27 1 28 1 26 1 17 2 8 2 35 2 35 2 8 2 36 2 6 5 17 5 37 5 37 5 17 5 35 5 8 3 7 3 36 3 36 3 7 3 38 3 7 4 6 4 38 4 38 4 6 4 37 4 38 1 37 1 36 1 36 1 37 1 35 1 13 2 16 2 32 2 32 2 16 2 33 2 14 5 13 5 34 5 34 5 13 5 32 5 16 3 15 3 33 3 33 3 15 3 39 3 15 4 14 4 39 4 39 4 14 4 34 4 39 1 34 1 33 1 33 1 34 1 32 1</p>
        </triangles>
      </mesh>
    </geometry>
  </library_geometries>
  <library_visual_scenes>
    <visual_scene id="Scene" name="Scene">
      <node id="node_002" name="node.002" type="NODE">
        <matrix sid="transform">1.94707e-10 -0.001 0 -0.185 0.001 1.94707e-10 0 0.29 0 0 0.001 0.844 0 0 0 1</matrix>
        <instance_geometry url="#shape0_002-mesh" name="node.002">
          <bind_material>
            <technique_common>
              <instance_material symbol="Base_Colour_001-material" target="#Base_Colour_001-material"/>
            </technique_common>
          </bind_material>
        </instance_geometry>
      </node>
      <node id="node_001" name="node.001" type="NODE">
        <matrix sid="transform">1.94707e-10 -0.001 0 0.285 0.001 1.94707e-10 0 0.29 0 0 0.001 0.844 0 0 0 1</matrix>
        <instance_geometry url="#shape0_026-mesh" name="node.001">
          <bind_material>
            <technique_common>
              <instance_material symbol="Base_Colour-material" target="#Base_Colour-material"/>
            </technique_common>
          </bind_material>
        </instance_geometry>
      </node>
    </visual_scene>
  </library_visual_scenes>
  <scene>
    <instance_visual_scene url="#Scene"/>
  </scene>
</COLLADA>