<?xml version="1.0" encoding="utf-8"?>
<COLLADA xmlns="http://www.collada.org/2005/11/COLLADASchema" version="1.4.1" xmlns:xsi="http://www.w3.org/2001/XMLSchema-instance">
  <asset>
    <contributor>
      <author>Blender User</author>
      <authoring_tool>Blender 4.0.2 commit date:2023-12-05, commit time:07:41, hash:9be62e85b727</authoring_tool>
    </contributor>
    <created>2024-02-07T16:20:51</created>
    <modified>2024-02-07T16:20:51</modified>
    <unit name="meter" meter="1"/>
    <up_axis>Z_UP</up_axis>
  </asset>
  <library_effects>
    <effect id="Black-effect">
      <profile_COMMON>
        <technique sid="common">
          <lambert>
            <emission>
              <color sid="emission">0 0 0 1</color>
            </emission>
            <diffuse>
              <color sid="diffuse">0.004208692 0.004208692 0.004208692 1</color>
            </diffuse>
            <reflectivity>
              <float sid="specular">0.5</float>
            </reflectivity>
          </lambert>
        </technique>
      </profile_COMMON>
    </effect>
  </library_effects>
  <library_images/>
  <library_materials>
    <material id="Black-material" name="Black">
      <instance_effect url="#Black-effect"/>
    </material>
  </library_materials>
  <library_geometries>
    <geometry id="shape0_006-mesh" name="shape0.006">
      <mesh>
        <source id="shape0_006-mesh-positions">
          <float_array id="shape0_006-mesh-positions-array" count="1971">-0.02316147 0.01167905 -0.01848298 -0.02199995 0.01101285 -0.01824045 -0.02199995 0.01306498 -0.01260232 -0.02316147 0.01373118 -0.01284486 -0.02408879 0.01261478 -0.01882356 -0.02408879 0.01466697 -0.0131855 -0.02471333 0.01375102 -0.0192371 -0.02471333 0.01580309 -0.01359891 -0.02498865 0.01500326 -0.01969283 -0.02498865 0.01705545 -0.01405471 -0.02489447 0.01627898 -0.02015709 -0.02489447 0.01833105 -0.01451903 -0.02443778 0.01748359 -0.02059561 -0.02443778 0.01953566 -0.01495742 -0.02365237 0.0185278 -0.02097558 -0.02365237 0.02057999 -0.01533752 -0.02259629 0.01933437 -0.02126926 -0.02259629 0.0213865 -0.01563113 -0.02134799 0.01984339 -0.02145457 -0.02134799 0.0218957 -0.01581645 -0.01999998 0.02206969 -0.01587975 -0.01999998 0.0200175 -0.02151799 -0.02199995 0.005766212 -0.009945809 -0.02199995 0.005766212 -0.01633083 0.01999998 0.0200175 -0.02151799 0.01999998 0.02206969 -0.01587975 -0.02104353 0.006170392 -0.016478 -0.01349991 0.01249992 -0.01878178 -0.001499891 0.01249992 -0.01878178 -0.001798987 0.01236987 -0.01873439 -0.003011882 0.01213169 -0.01864773 -0.01981157 0.0171929 -0.02048987 -0.01907289 0.01706039 -0.02044165 -0.004195392 0.01177483 -0.01851785 0.001499891 0.01249992 -0.01878178 0.01349991 0.01249992 -0.01878178 0.002307057 0.01228529 -0.01870352 0.004195392 0.01177483 -0.01851785 -0.0169999 0.01437938 -0.0194658 -0.01709425 0.01508045 -0.01972097 -0.01349991 0.01531898 -0.01980787 -0.02056205 0.01714849 -0.02047359 -0.01709425 0.01367825 -0.01921069 -0.02127718 0.01693016 -0.02039426 0.01349991 0.01531898 -0.01980787 0.01808768 0.01655149 -0.0202564 0.01757293 0.01603639 -0.02006888 -0.01737099 0.01302129 -0.0189715 0.01721066 0.01541709 -0.01984351 0.01702368 0.01473259 -0.01959437 0.01702368 0.01402598 -0.01933711 0.02218687 0.0163092 -0.02016818 0.02365237 0.0185278 -0.02097558 0.02443778 0.01748359 -0.02059561 0.02160739 0.01675957 -0.02033209 -0.02191221 0.01655149 -0.0202564 -0.01781302 0.01244956 -0.01876348 0.02259629 0.01933437 -0.02126926 0.02104353 0.006170392 -0.016478 0.02199995 0.01101285 -0.01824045 0.02199995 0.005766212 -0.01633083 0.0226289 0.01573747 -0.01996016 0.02489447 0.01627898 -0.02015709 -0.0183925 0.01199913 -0.01859945 0.0200349 0.006417036 -0.0165677 0.02092695 0.01706039 -0.02044165 0.02018839 0.01156586 -0.01844179 0.02134799 0.01984339 -0.02145457 -0.02242708 0.01603639 -0.02006888 0.0229057 0.01508045 -0.01972097 0.02498865 0.01500326 -0.01969283 0.01721066 0.01334148 -0.01908802 0.01757293 0.01272237 -0.01886266 0.01808768 0.01220721 -0.01867508 0.02018839 0.0171929 -0.02048987 0.01899999 0.006499946 -0.01659798 0.01872265 0.0118286 -0.0185374 0.01943778 0.01161015 -0.01845782 0.023 0.01437938 -0.0194658 0.02471333 0.01375102 -0.0192371 0.001499891 0.01531898 -0.01980787 0.01943778 0.01714849 -0.02047359 -0.02278923 0.01541709 -0.01984351 0.0229057 0.01367825 -0.01921069 0.02408879 0.01261478 -0.01882356 -0.001499891 0.01531898 -0.01980787 0.01872265 0.01693016 -0.02039426 3.62279e-4 0.0124948 -0.01877987 0.0226289 0.01302129 -0.0189715 -0.02297621 0.01473259 -0.01959437 -0.02297621 0.01402598 -0.01933711 0.02316147 0.01167905 -0.01848298 0.02218687 0.01244956 -0.01876348 -0.02191221 0.01220721 -0.01867508 -0.02127718 0.0118286 -0.0185374 -0.02056205 0.01161015 -0.01845782 -0.01981157 0.01156586 -0.01844179 -0.02278923 0.01334148 -0.01908802 -0.02242708 0.01272237 -0.01886266 0.02160739 0.01199913 -0.01859945 -0.01899999 0.006499946 -0.01659798 -0.01907289 0.01169818 -0.01848989 -0.01781302 0.0163092 -0.02016818 0.02092695 0.01169818 -0.01848989 -0.0200349 0.006417036 -0.0165677 -0.0183925 0.01675957 -0.02033209 -0.01737099 0.01573747 -0.01996016 -0.02127718 0.01898229 -0.01475608 -0.02191221 0.01860356 -0.01461821 -0.004195392 0.01177483 -0.01213276 -0.01737099 0.01507329 -0.01333338 -0.01781302 0.01450169 -0.0131253 -0.02242708 0.0180884 -0.01443076 0.02199995 0.005766212 -0.009945809 0.02199995 0.01306498 -0.01260232 0.02104353 0.006170392 -0.01009297 0.02443778 0.01953566 -0.01495742 0.02365237 0.02057999 -0.01533752 0.02218687 0.01836127 -0.01453006 -0.02278923 0.01746922 -0.01420533 0.0200349 0.006417036 -0.01018261 0.02259629 0.0213865 -0.01563113 0.02160739 0.0188117 -0.01469391 0.02018839 0.01361799 -0.01280367 0.0226289 0.0177896 -0.01432198 0.02489447 0.01833105 -0.01451903 0.01899999 0.006499946 -0.01021283 0.01808768 0.01425933 -0.01303702 0.01757293 0.0147745 -0.0132246 0.01872265 0.01388067 -0.01289921 0.02134799 0.0218957 -0.01581645 0.02092695 0.01911252 -0.0148034 0.01943778 0.01366233 -0.0128197 0.004195392 0.01177483 -0.01213276 0.01702368 0.01678472 -0.01395618 0.01721066 0.01746922 -0.01420533 0.0229057 0.01713258 -0.01408278 0.01702368 0.01607817 -0.01369905 0.02498865 0.01705545 -0.01405471 0.01721066 0.01539367 -0.0134499 0.02018839 0.0192449 -0.01485162 0.003011882 0.01213169 -0.0122627 -0.02297621 0.01678472 -0.01395618 0.01757293 0.0180884 -0.01443076 0.023 0.01643145 -0.01382768 0.001798987 0.01236987 -0.0123493 -0.02297621 0.01607817 -0.01369905 0.02471333 0.01580309 -0.01359891 0.01943778 0.01920056 -0.01483553 -0.02127718 0.01388067 -0.01289921 -0.02191221 0.01425933 -0.01303702 -0.02056205 0.01366233 -0.0128197 -3.62285e-4 0.0124948 -0.01239472 -0.01981157 0.01361799 -0.01280367 0.0229057 0.01573038 -0.01357245 -0.02278923 0.01539367 -0.0134499 -0.02242708 0.0147745 -0.0132246 0.02408879 0.01466697 -0.0131855 0.01872265 0.01898229 -0.01475608 -0.01907289 0.01375037 -0.01285177 -0.01899999 0.006499946 -0.01021283 -0.002307057 0.01228529 -0.01231855 -0.0183925 0.01405119 -0.01296132 0.0226289 0.01507329 -0.01333338 -0.0200349 0.006417036 -0.01018261 0.01808768 0.01860356 -0.01461821 -0.01781302 0.01836127 -0.01453006 -0.0183925 0.0188117 -0.01469391 -0.02104353 0.006170392 -0.01009297 -0.01737099 0.0177896 -0.01432198 0.02316147 0.01373118 -0.01284486 0.02218687 0.01450169 -0.0131253 -0.01907289 0.01911252 -0.0148034 -0.01709425 0.01713258 -0.01408278 0.02160739 0.01405119 -0.01296132 -0.01981157 0.0192449 -0.01485162 -0.0169999 0.01643145 -0.01382768 -0.02056205 0.01920056 -0.01483553 0.02092695 0.01375037 -0.01285177 -0.01709425 0.01573038 -0.01357245 -0.0198484 0.006444275 0 -0.01899999 0.006499946 0 -0.02068227 0.006278455 0 -0.02329516 0.00487864 -0.0160079 -0.02148747 0.006005108 0 -0.02224993 0.005629122 0 -0.0229569 0.005156755 0 -0.0235961 0.004596114 0 -0.02433967 0.003706336 -0.01558119 -0.02415668 0.003956854 0 -0.02462917 0.003249943 0 -0.0250808 0.002296388 -0.01506799 -0.02500516 0.002487421 0 -0.02527838 0.001682221 0 -0.02545779 7.38937e-4 -0.01450109 -0.02544432 8.48426e-4 0 -0.02549993 0 0 -0.0254417 -8.68697e-4 -0.01391589 -0.02544432 -8.48412e-4 0 -0.02527838 -0.001682221 0 -0.02508968 -0.002272665 -0.0134049 -0.02500516 -0.002487421 0 -0.0245139 -0.003441751 -0.01297932 -0.02462917 -0.003249943 0 -0.02415668 -0.003956854 0 -0.0237165 -0.004472494 -0.01260423 -0.0235961 -0.004596114 0 -0.02291208 -0.005190849 -0.01234275 -0.0229569 -0.005156755 0 -0.02199995 -0.005766212 -0.005748271 -0.02199995 -0.005766212 -0.0121333 -0.02224993 -0.005629122 0 -0.02148747 -0.006005108 0 -0.02104353 -0.006170392 -0.005601227 -0.02068227 -0.006278455 0 -0.0200349 -0.006417036 -0.005511403 -0.0198484 -0.006444275 0 -0.01899999 -0.006499946 -0.005481243 -0.01899999 -0.006499946 0 -0.02125781 -0.001975238 -0.01351308 -0.02072465 -0.002454638 -0.0133388 -0.02166217 -0.001383066 -0.01372873 -0.02104353 -0.006170392 -0.01198619 -0.02009296 -0.002793729 -0.0132153 -0.0219143 -7.11866e-4 -0.01397299 -0.0200349 -0.006417036 -0.01189649 -0.01946991 -0.002962887 -0.01315367 -0.01899999 -0.006499946 -0.01186639 -0.01888978 -0.002997875 -0.01314091 -0.02199995 0 -0.01423209 -0.0183137 -0.002920389 -0.0131691 -0.01776337 -0.00273329 -0.01323723 -0.01725953 -0.002443492 -0.01334273 -0.0168209 -0.002061963 -0.01348149 -0.02023655 0.00273329 -0.01522696 -0.02074033 0.002443492 -0.01512151 -0.02117896 0.002061963 -0.0149827 -0.02153569 0.001603066 -0.01481562 -0.02179723 0.00108397 -0.01462668 -0.02194887 5.51432e-4 -0.01443278 -0.01968628 0.002920389 -0.01529502 -0.0191102 0.002997875 -0.0153234 -0.01674205 0.001975238 -0.01495105 -0.01727515 0.002454638 -0.01512557 -0.01790696 0.002793729 -0.01524895 -0.01852995 0.002962887 -0.01531052 0.001499891 -0.01240962 -0.009715378 -0.001499891 -0.01240962 -0.009715378 0.001499891 -0.01099222 -0.01023119 -0.001499891 -0.01099222 -0.01023119 -0.006391823 -0.01099222 -0.01023119 -0.004887521 -0.005011141 -0.01240819 -0.003831923 -0.005857944 -0.0121001 -0.005760431 -0.003976941 -0.0127846 -0.002633154 -0.00648576 -0.01187139 -0.01646429 -0.001603066 -0.01364862 -0.006418049 -0.002794206 -0.01321506 -0.001335918 -0.006871283 -0.01173108 -0.01620262 -0.00108397 -0.01383751 -0.006835818 -0.001506984 -0.01368349 -0.01605105 -5.51432e-4 -0.01403141 1.1149e-5 -0.006999969 -0.01168429 -0.01599997 0 -0.01423209 -0.006998062 -1.63594e-4 -0.01417255 0.001357853 -0.006866931 -0.01173269 -0.01608568 7.11866e-4 -0.01449126 -0.006898701 0.001186013 -0.01466369 -0.01633775 0.001383066 -0.01473551 0.006391823 -0.01099222 -0.01023119 0.002653837 -0.006477355 -0.01187449 -0.00654155 0.002491295 -0.01513886 0.003850579 -0.005845665 -0.01210445 -0.00594002 0.003703415 -0.01557999 0.004903495 -0.004995465 -0.01241379 -0.005116343 0.004777193 -0.015971 0.005773067 -0.003958642 -0.01279121 -0.001655519 0.006801307 -0.01670759 -0.002933323 0.006355643 -0.01654547 -0.004101455 0.005672395 -0.0162968 -3.15962e-4 0.006992757 -0.01677739 0.01899999 -0.006499946 -0.01186639 0.001035392 0.00692296 -0.01675188 0.01689827 -0.00214076 -0.01345288 0.00642693 -0.002773821 -0.01322251 0.01735055 -0.002505779 -0.01332002 0.01652485 -0.001695275 -0.01361507 0.01786476 -0.002776861 -0.0132215 0.006840527 -0.001485288 -0.0136916 0.01624447 -0.001186132 -0.01380038 0.01842159 -0.002943634 -0.0131607 0.002348244 0.0065943 -0.01663219 0.006960034 -7.46926e-4 -0.0139603 0.01606738 -6.32541e-4 -0.01400178 0.01900005 -0.002999961 -0.01314026 0.0200349 -0.006417036 -0.01189649 0.01600039 -5.5156e-5 -0.01421207 0.006999969 0 -0.01423209 0.01957857 -0.002943575 -0.0131607 0.02104353 -0.006170392 -0.01198619 0.01604616 5.24299e-4 -0.01442295 0.006800889 0.001657426 -0.01483529 0.005581796 0.004224002 -0.0157696 0.004664719 0.005219221 -0.01613169 0.003573179 0.006019175 -0.01642292 0.02199995 -0.005766212 -0.0121333 0.0201354 -0.002776741 -0.0132215 0.01620262 0.00108397 -0.01462668 0.02064955 -0.002505779 -0.01332002 0.01646429 0.001603066 -0.01481562 0.006290256 0.00307101 -0.01534998 0.02110177 -0.002140522 -0.01345288 0.0168209 0.002061963 -0.0149827 0.02147519 -0.001695036 -0.01361519 0.02175557 -0.001186013 -0.0138005 0.0219326 -6.32373e-4 -0.0140019 0.02198302 -3.17978e-4 -0.01411628 0.01946991 0.002962887 -0.01531052 0.01888978 0.002997875 -0.0153234 0.0183137 0.002920389 -0.01529502 0.01776337 0.00273329 -0.01522696 0.01725953 0.002443492 -0.01512151 0.02009296 0.002793729 -0.01524895 0.02199995 0 -0.01423209 0.0219143 7.11866e-4 -0.01449126 0.02166217 0.001383066 -0.01473551 0.02125781 0.001975238 -0.01495105 0.02072465 0.002454638 -0.01512557 -0.001499891 0.01386809 -0.01502299 -0.001499891 0.01668715 -0.01604902 -0.01349991 0.01386809 -0.01502299 -0.01349991 0.01668715 -0.01604902 0.001499891 0.01668715 -0.01604902 0.001499891 0.01386809 -0.01502299 0.01349991 0.01668715 -0.01604902 0.01349991 0.01386809 -0.01502299 -0.004195392 0.01177483 0 0.004195392 0.01177483 0 0.002827525 0.01217591 0 0.001423001 0.01241862 0 0 0.01249992 0 -0.001423001 0.01241862 0 -0.002827525 0.01217591 0 0.01899999 0.006499946 0 0.0198484 0.006444275 0 0.02068227 0.006278455 0 0.0198484 -0.006444275 0 0.01899999 -0.006499946 -0.005481243 0.0200349 -0.006417036 -0.005511403 0.01899999 -0.006499946 0 0.02068227 -0.006278455 0 0.02104353 -0.006170392 -0.005601227 0.02148747 -0.006005108 0 0.02199995 -0.005766212 -0.005748271 0.02329516 -0.00487864 -0.01245641 0.02224993 -0.005629122 0 0.0229569 -0.005156755 0 0.0235961 -0.004596114 0 0.02433967 -0.003706336 -0.01288312 0.02415668 -0.003956854 0 0.02462917 -0.003249943 0 0.0250808 -0.002296388 -0.01339626 0.02500516 -0.002487421 0 0.02527838 -0.001682221 0 0.02545779 -7.38937e-4 -0.01396316 0.02544432 -8.48419e-4 0 0.02549993 0 0 0.0254417 8.68697e-4 -0.01454836 0.02544432 8.48419e-4 0 0.02527838 0.001682221 0 0.02508968 0.002272665 -0.01505935 0.02500516 0.002487421 0 0.02462917 0.003249943 0 0.0245139 0.003441751 -0.0154848 0.02415668 0.003956854 0 0.0237165 0.004472494 -0.01586008 0.0235961 0.004596114 0 0.02291208 0.005190849 -0.0161215 0.0229569 0.005156755 0 0.02224993 0.005629122 0 0.02148747 0.006005108 0 -0.02091223 -0.002311468 0 -0.02142709 -0.001763284 0 -0.02178925 -0.001104295 0 -0.02197629 -3.76e-4 0 0.02118682 -0.002053618 0 -0.02197629 3.76e-4 0 -0.005760848 0.003976345 0 -0.005239546 0.004641771 0 -0.006198108 0.003252983 0 -0.01681303 0.002053618 0 -0.01739239 0.002532899 0 -0.0180729 0.002853155 0 -0.01881158 0.00299406 0 -0.01956206 0.002946794 0 0.02060747 -0.002532899 0 0.02162879 -0.001445174 0 0.01992708 -0.002853155 0 0.02190572 -7.4607e-4 0 -0.02178925 0.001104295 0 -0.02027726 0.002714455 0 0.0191884 -0.00299406 0 0.02199995 0 0 -0.02142709 0.001763284 0 0.01843786 -0.002946794 0 -0.02091223 0.002311468 0 0.02190572 7.4607e-4 0 0.01772266 -0.002714455 0 0.02162879 0.001445174 0 0.01708763 -0.002311468 0 0.02118682 0.002053618 0 0.02060747 0.002532899 0 0.01992708 0.002853155 0 0.0191884 0.00299406 0 0.01843786 0.002946794 0 0.01772266 0.002714455 0 0.01708763 0.002311468 0 0.004195392 -0.01177483 0 0.005239546 -0.004641771 0 0.004641771 -0.005239546 0 0.005760848 -0.003976345 0 0.003976345 -0.005760848 0 0.006198108 -0.003252983 0 0.01657295 -0.001763284 0 0.003252983 -0.006198108 0 0.01621067 -0.001104295 0 0.006545007 -0.002482116 0 0.002482116 -0.006545007 0 0.006796479 -0.001675128 0 0.002827525 -0.01217591 0 0.001675128 -0.006796479 0 0.01602369 -3.76e-4 0 0.006948888 -8.43757e-4 0 8.43757e-4 -0.006948888 0 0.001423001 -0.01241862 0 0.006999969 0 0 0.01602369 3.76e-4 0 0 -0.006999969 0 -0.001423001 -0.01241862 0 0 -0.01249992 0 0.006948888 8.43757e-4 0 0.01621067 0.001104295 0 -8.43757e-4 -0.006948888 0 -0.002827525 -0.01217591 0 0.006796479 0.001675128 0 -0.001675128 -0.006796479 0 -0.004195392 -0.01177483 0 0.006545007 0.002482116 0 0.01657295 0.001763284 0 -0.002482116 -0.006545007 0 0.006198108 0.003252983 0 -0.003252983 -0.006198108 0 0.005760848 0.003976345 0 -0.003976345 -0.005760848 0 0.005239546 0.004641771 0 -0.004641771 -0.005239546 0 -0.005239546 -0.004641771 0 0.004641771 0.005239546 0 0.003976345 0.005760848 0 0.003252983 0.006198108 0 0.002482116 0.006545007 0 0.001675128 0.006796479 0 8.43757e-4 0.006948888 0 0 0.006999969 0 -0.005760848 -0.003976345 0 -0.006198108 -0.003252983 0 -8.43757e-4 0.006948888 0 -0.006545007 -0.002482116 0 -0.01681303 -0.002053618 0 -0.01739239 -0.002532899 0 -0.006796479 -0.001675128 0 -0.01637107 -0.001445174 0 -0.001675128 0.006796479 0 -0.0180729 -0.002853155 0 -0.006948888 -8.43757e-4 0 -0.0160942 -7.4607e-4 0 -0.01881158 -0.00299406 0 -0.002482116 0.006545007 0 -0.003252983 0.006198108 0 -0.003976345 0.005760848 0 -0.004641771 0.005239546 0 -0.01599997 0 0 -0.006999969 0 0 -0.006948888 8.43757e-4 0 -0.01956206 -0.002946794 0 -0.006796479 0.001675128 0 -0.0160942 7.4607e-4 0 -0.02027726 -0.002714455 0 -0.01637107 0.001445174 0 -0.006545007 0.002482116 0 -0.004195392 -0.01177483 -0.003561317 -0.001798987 -0.01236987 -0.003344774 -0.003011882 -0.01213169 -0.003431499 -0.01737099 -0.0178157 -0.001362562 0.02259629 -0.020473 -3.95529e-4 0.02092695 -0.01913875 -8.81139e-4 0.02134811 -0.0209822 -2.10215e-4 -0.01709425 -0.0171588 -0.001601696 0.02018839 -0.01927125 -8.32944e-4 -0.02127718 -0.01390689 -0.002785325 -0.02199995 -0.01215142 -0.003424227 -0.02316147 -0.01281768 -0.003181815 -0.02191221 -0.01428556 -0.002647519 -0.01781302 -0.01838743 -0.001154482 -0.02242708 -0.0148006 -0.002460062 0.02199995 -0.01215142 -0.003424227 0.01999998 -0.02115619 -1.46879e-4 0.01808768 -0.01862978 -0.001066327 0.01757293 -0.01811468 -0.001253843 0.01872265 -0.01900839 -9.28573e-4 0.01943778 -0.01922678 -8.49094e-4 -0.02408879 -0.01375359 -0.002841114 0.01757293 -0.0148006 -0.002460062 0.004195392 -0.01177483 -0.003561317 -0.02278923 -0.01541996 -0.002234697 0.01721066 -0.01541996 -0.002234697 0.01702368 -0.0161044 -0.00198549 0.01702368 -0.01681107 -0.001728296 0.01721066 -0.01749545 -0.001479208 0.02408879 -0.01375359 -0.002841114 0.02316147 -0.01281768 -0.003181815 0.02218687 -0.01452779 -0.002559304 0.002307057 -0.01228529 -0.00337553 0.02160739 -0.01407748 -0.002723217 3.62279e-4 -0.0124948 -0.003299295 0.0226289 -0.01509952 -0.002351284 0.02471321 -0.01488959 -0.002427577 -0.02471333 -0.01488959 -0.002427577 -0.02297621 -0.0161044 -0.00198549 0.02092695 -0.0137766 -0.00283277 0.0229057 -0.0157566 -0.00211215 0.02498865 -0.01614195 -0.0019719 0.02018839 -0.01364409 -0.00288099 0.023 -0.01645761 -0.001856923 0.02489447 -0.0174176 -0.00150758 0.01943778 -0.01368856 -0.002864778 -0.01781302 -0.01452779 -0.002559304 -0.02498865 -0.01614195 -0.001971781 -0.02297621 -0.01681107 -0.001728296 0.0229057 -0.0171588 -0.001601696 -0.01999998 -0.02115619 -1.46879e-4 0.02443778 -0.0186221 -0.001069068 -0.0183925 -0.01407748 -0.002723217 0.01872265 -0.01390689 -0.002785325 -0.01981157 -0.01927125 -8.32944e-4 -0.02056205 -0.01922678 -8.49094e-4 -0.01907289 -0.01913875 -8.81139e-4 -0.0183925 -0.01883792 -9.90649e-4 -0.01737099 -0.01509952 -0.002351284 -0.02489447 -0.0174176 -0.00150758 0.0226289 -0.0178157 -0.001362562 -0.02278923 -0.01749545 -0.001479208 -0.01907289 -0.0137766 -0.00283277 -0.02134799 -0.0209822 -2.10213e-4 0.01808768 -0.01428556 -0.002647519 -0.02127718 -0.01900839 -9.28573e-4 -0.01709425 -0.0157566 -0.00211215 0.02365237 -0.01966649 -6.89095e-4 -0.02242708 -0.01811468 -0.001253843 -0.02443778 -0.0186221 -0.001069068 0.02218687 -0.01838743 -0.001154482 -0.01981157 -0.01364409 -0.00288099 -0.02191221 -0.01862978 -0.001066327 -0.02259629 -0.020473 -3.95525e-4 -0.02365237 -0.01966649 -6.89089e-4 0.02160739 -0.01883792 -9.90649e-4 -0.0169999 -0.01645761 -0.001856923 -0.02056205 -0.01368856 -0.002864778 -0.02199995 -0.01420348 -0.009062469 -0.0169999 -0.01850986 -0.007495105 -0.01709425 -0.01780879 -0.007750213 -0.01349991 -0.01663047 -0.008179128 -0.01349991 -0.02038913 -0.006811082 0.02134811 -0.02303427 -0.005848348 0.02092695 -0.021191 -0.006519258 0.02259629 -0.02252519 -0.006033599 -0.01907289 -0.0158286 -0.008470952 0.02018839 -0.02132338 -0.006471097 -0.01981157 -0.01569622 -0.008519113 -0.02056205 -0.01574069 -0.008503019 -0.01709425 -0.01921087 -0.007239878 -0.02127718 -0.01595908 -0.008423507 0.02199995 -0.01420348 -0.009062469 -0.01737099 -0.01986789 -0.007000744 -0.02316147 -0.0148698 -0.008819937 -0.02191221 -0.01633769 -0.008285701 0.01349991 -0.01663047 -0.008179128 0.01872265 -0.01595908 -0.008423507 0.01808768 -0.01633769 -0.008285701 -0.01781302 -0.02043968 -0.006792724 0.01757293 -0.01685279 -0.008098185 0.01721066 -0.01747202 -0.007872819 0.01702368 -0.0181564 -0.007623612 0.02218687 -0.0165801 -0.008197486 0.02316147 -0.0148698 -0.008819937 0.02408879 -0.01580566 -0.008479356 -0.02242708 -0.01685279 -0.008098185 0.008499979 -0.01099222 -0.01023119 0.02160739 -0.01612955 -0.008361458 -0.0183925 -0.02088999 -0.006628692 0.01999998 -0.02320826 -0.005784988 0.01808768 -0.02068191 -0.006704509 0.01872265 -0.02106058 -0.006566703 0.01943778 -0.02127891 -0.00648725 0.0226289 -0.01715177 -0.007989406 0.02471321 -0.01694178 -0.008065819 -0.02408879 -0.01580566 -0.008479356 0.01349991 -0.02038913 -0.006811082 -0.02278923 -0.01747202 -0.007872819 0.01702368 -0.0188632 -0.007366538 0.01721066 -0.01954758 -0.00711739 0.01757293 -0.02016687 -0.006892025 0.02092695 -0.0158286 -0.008470952 0.0229057 -0.01780879 -0.007750213 0.02498865 -0.01819401 -0.007610023 0.02018839 -0.01569622 -0.008519113 -0.02471333 -0.01694178 -0.008065819 0.023 -0.01850986 -0.007495105 -0.02297621 -0.0181564 -0.007623612 0.02489447 -0.01946973 -0.007145643 0.001499891 -0.02038913 -0.006811082 0.01943778 -0.01574069 -0.008503019 0.0229057 -0.01921087 -0.007239878 -0.001499891 -0.02038913 -0.006811082 0.02443778 -0.02067428 -0.006707251 -0.008499979 -0.01099222 -0.01023119 0.0226289 -0.01986789 -0.007000744 -0.02498865 -0.01819401 -0.007610023 -0.02297621 -0.0188632 -0.007366538 0.02365237 -0.02171856 -0.006327152 -0.01999998 -0.02320826 -0.005784988 0.02218687 -0.02043968 -0.006792724 -0.02056205 -0.02127891 -0.00648725 -0.01981157 -0.02132338 -0.006471097 -0.01907289 -0.021191 -0.006519258 -0.02489447 -0.01946973 -0.007145643 0.02160739 -0.02088999 -0.006628692 -0.02278923 -0.01954758 -0.00711739 -0.02134799 -0.02303427 -0.005848348 -0.0183925 -0.01612955 -0.008361458 -0.01781302 -0.0165801 -0.008197486 -0.02127718 -0.02106058 -0.006566703 -0.01737099 -0.01715177 -0.007989406 -0.02443778 -0.02067428 -0.006707251 -0.02242708 -0.02016687 -0.006892025 -0.02259629 -0.02252519 -0.006033599 -0.02191221 -0.02068191 -0.006704509 -0.02365237 -0.02171856 -0.006327152 0.001499891 -0.009624183 -0.006472468 0.008499979 -0.009624183 -0.006472468 0.001499891 -0.01902115 -0.003052294 -0.001499891 -0.01902115 -0.003052294 -0.001499891 -0.009624183 -0.006472468 -0.008499979 -0.009624183 -0.006472468 0.01349991 -0.0152623 -0.00442034 0.01349991 -0.01902115 -0.003052294 -0.01349991 -0.01902115 -0.003052294 -0.01349991 -0.0152623 -0.00442034</float_array>
          <technique_common>
            <accessor source="#shape0_006-mesh-positions-array" count="657" stride="3">
              <param name="X" type="float"/>
              <param name="Y" type="float"/>
              <param name="Z" type="float"/>
            </accessor>
          </technique_common>
        </source>
        <source id="shape0_006-mesh-normals">
          <float_array id="shape0_006-mesh-normals-array" count="3459">-0.5209972 -0.8020809 0.2919386 -0.5209893 -0.8020862 0.2919383 -0.7318202 -0.6403972 0.2330896 -0.7318143 -0.6404035 0.2330909 -0.888472 -0.4312545 0.1569619 -0.8884821 -0.431235 0.1569588 -0.9793285 -0.1900771 0.06918567 -0.9793245 -0.1900967 0.0691877 -0.997602 0.06503808 -0.02367156 -0.9976024 0.06503367 -0.02367097 -0.9420047 0.315362 -0.1147785 -0.9420085 0.3153508 -0.1147776 -0.8166465 0.5423292 -0.197402 -0.8166088 0.5423847 -0.1974055 -0.6307138 0.7292148 -0.2654167 -0.6307422 0.72919 -0.2654173 -0.3981794 0.8619801 -0.3137571 -0.1360651 0.9309459 -0.33886 -0.3981199 0.8620091 -0.3137528 -0.1361366 0.9309419 -0.3388422 -1 0 0 0 0.9396908 -0.3420252 0 0.9396905 -0.3420261 -2.18021e-5 -0.3420143 -0.9396948 0 -0.3419146 -0.9397311 0 -0.3419146 -0.939731 0 -0.3419147 -0.9397311 5.80514e-6 -0.3417636 -0.939786 1.32662e-5 -0.3420354 -0.9396871 -9.0002e-6 -0.3421477 -0.9396463 0 -0.342281 -0.9395977 -7.26393e-6 -0.3419629 -0.9397135 -1.68082e-5 -0.3420225 -0.9396918 -1.31661e-5 -0.3420304 -0.9396889 -4.88553e-5 -0.3420429 -0.9396844 -6.74661e-5 -0.3420357 -0.9396871 4.93739e-5 -0.3419309 -0.9397252 -2.14086e-5 -0.3420078 -0.9396972 1.00977e-4 -0.3420084 -0.9396969 1.61535e-5 -0.3420438 -0.939684 3.65811e-5 -0.3421165 -0.9396576 -1.78082e-5 -0.342109 -0.9396603 7.55598e-7 -0.3419215 -0.9397286 4.067e-6 -0.3420964 -0.939665 1.44163e-5 -0.3420382 -0.9396861 -3.96932e-5 -0.3419807 -0.939707 -4.55451e-5 -0.3420215 -0.9396922 6.3257e-5 -0.3420392 -0.9396857 -4.64396e-5 -0.3420234 -0.9396916 1.04927e-5 -0.3419222 -0.9397283 4.47171e-5 -0.3420225 -0.9396918 2.18021e-5 -0.3420143 -0.9396948 -5.48947e-5 -0.341953 -0.9397171 5.05356e-5 -0.3420498 -0.9396818 1.44043e-5 -0.342229 -0.9396166 -5.34143e-6 -0.3420075 -0.9396973 -6.67146e-6 -0.342004 -0.9396985 2.90564e-5 -0.3420233 -0.9396916 1.39027e-5 -0.3420192 -0.939693 2.02933e-5 -0.3419711 -0.9397106 -2.0157e-5 -0.3420659 -0.939676 1.82396e-5 -0.3420305 -0.9396889 5.63339e-5 -0.3420676 -0.9396754 -6.45047e-6 -0.3419787 -0.9397077 -1.26742e-5 -0.3419651 -0.9397128 1.90466e-5 -0.3420932 -0.939666 1.69959e-5 -0.3420616 -0.9396775 1.29541e-5 -0.3420184 -0.9396933 5.05998e-5 -0.3420327 -0.9396881 2.19628e-5 -0.3419975 -0.9397009 4.35194e-5 -0.342023 -0.9396917 -1.21477e-4 -0.3420171 -0.9396938 1.86862e-5 -0.3420104 -0.9396963 0 -0.3420426 -0.9396845 -3.99074e-5 -0.3420072 -0.9396975 -8.52892e-6 -0.3420215 -0.9396921 0 -0.3420238 -0.9396914 -6.74597e-5 -0.3420385 -0.939686 2.11583e-6 -0.3419214 -0.9397286 -1.55235e-5 -0.3420622 -0.9396774 -2.05747e-6 -0.342017 -0.9396938 5.27657e-5 -0.3420321 -0.9396883 4.74624e-5 -0.3419305 -0.9397253 0 -0.3420258 -0.9396907 1.1341e-4 -0.342072 -0.9396737 0 -0.3420378 -0.9396863 -1.71992e-5 -0.342348 -0.9395733 -1.70547e-5 -0.3420307 -0.9396888 -2.8709e-5 -0.3421088 -0.9396604 1.0419e-5 -0.3420307 -0.9396889 1.19688e-6 -0.3420946 -0.9396656 -2.34765e-5 -0.3419772 -0.9397083 -5.55611e-5 -0.3420042 -0.9396984 9.08989e-6 -0.342252 -0.9396082 8.7373e-6 -0.3420405 -0.9396853 8.35517e-6 -0.3420382 -0.9396861 5.8835e-6 -0.3420083 -0.9396969 9.51952e-5 -0.3419774 -0.9397082 -9.71586e-5 -0.3419854 -0.9397053 -2.30578e-6 -0.34206 -0.9396781 -3.33886e-5 -0.3419882 -0.9397043 -4.66741e-5 -0.3419722 -0.9397101 2.56099e-5 -0.3420884 -0.9396678 -5.40528e-5 -0.3421484 -0.939646 2.39006e-6 -0.3420076 -0.9396973 0 -0.3420236 -0.9396914 7.09557e-5 -0.3420169 -0.9396938 5.67506e-5 -0.3419969 -0.9397011 1.91095e-5 -0.3419851 -0.9397055 -3.03683e-5 -0.3420374 -0.9396864 2.1432e-6 -0.342017 -0.9396939 -1.20161e-5 -0.3420058 -0.9396979 3.1637e-5 -0.3420107 -0.939696 4.01051e-5 -0.3420103 -0.9396963 -2.66978e-5 -0.3420564 -0.9396795 3.89798e-5 -0.342011 -0.939696 -4.37755e-5 -0.3420206 -0.9396925 1.17504e-4 -0.341982 -0.9397066 -2.45411e-5 -0.3420213 -0.9396923 1.34845e-5 -0.3419079 -0.9397336 5.34143e-6 -0.3420075 -0.9396973 -3.15616e-5 -0.3420473 -0.9396828 2.6368e-5 -0.3420242 -0.9396913 -1.05615e-5 -0.3420926 -0.9396662 -2.32182e-5 0.3419788 0.9397078 -8.55589e-7 0.3420386 0.939686 1.21747e-5 0.3420074 0.9396973 2.59161e-5 0.3420422 0.9396847 -7.05245e-5 0.342027 0.9396902 -6.26676e-6 0.3420113 0.9396958 -1.66327e-5 0.3419888 0.9397041 -1.03153e-5 0.3420379 0.9396862 6.46636e-5 0.3420113 0.9396959 -2.72192e-5 0.3420513 0.9396814 -4.16587e-6 0.3420277 0.9396899 2.81126e-5 0.3419941 0.9397021 -1.32511e-5 0.3420277 0.9396899 2.52685e-5 0.3419908 0.9397034 -3.8465e-5 0.3420289 0.9396895 -7.76122e-5 0.3420135 0.9396951 5.07395e-5 0.342023 0.9396917 5.37544e-5 0.3420186 0.9396933 -8.12375e-5 0.3420179 0.9396935 9.12435e-5 0.3420109 0.939696 3.3357e-5 0.3420305 0.9396889 4.34108e-6 0.3420225 0.9396918 -3.48646e-6 0.3420353 0.9396871 1.2519e-5 0.3420307 0.9396888 -1.50854e-6 0.3420266 0.9396903 2.58036e-6 0.3420476 0.9396826 2.13987e-5 0.3419685 0.9397115 4.37819e-6 0.3420233 0.9396916 1.62999e-5 0.3420079 0.9396971 -4.94273e-6 0.3420468 0.939683 -3.48369e-5 0.3420952 0.9396654 -3.59072e-6 0.3420359 0.9396869 -9.97031e-6 0.342039 0.9396858 -4.5338e-5 0.3420301 0.939689 -5.5914e-6 0.3420174 0.9396937 0 0.341983 0.9397062 7.26754e-6 0.3420032 0.9396988 -1.11403e-5 0.3420271 0.9396901 -1.47441e-5 0.3420233 0.9396915 1.53459e-5 0.3419831 0.9397062 -8.35191e-5 0.3419995 0.9397002 3.02268e-5 0.3419969 0.9397011 -6.45759e-5 0.3420723 0.9396737 2.00072e-5 0.3419831 0.9397062 7.34264e-5 0.3417865 0.9397776 -1.59345e-6 0.3419719 0.9397102 1.49171e-5 0.3420916 0.9396667 6.66775e-6 0.341964 0.9397131 -2.08087e-5 0.3420105 0.9396961 2.07458e-5 0.3419617 0.939714 -1.30053e-5 0.3420011 0.9396997 -2.27244e-5 0.3420362 0.9396868 1.02775e-4 0.3419681 0.9397116 -3.54774e-5 0.3420454 0.9396835 -1.07042e-4 0.3420124 0.9396955 -9.62339e-6 0.3420013 0.9396995 1.40744e-4 0.342015 0.9396945 0 0.3420197 0.9396929 -4.66729e-5 0.3420271 0.9396901 -4.26554e-6 0.3420221 0.9396919 -7.97464e-6 0.3419364 0.9397231 3.86267e-5 0.3420271 0.9396902 3.49841e-6 0.3420273 0.9396901 -6.01926e-5 0.3420282 0.9396897 -1.08244e-5 0.3420004 0.9396998 7.05046e-5 0.3420412 0.939685 -6.46636e-5 0.3420105 0.9396962 5.29345e-6 0.342035 0.9396873 2.35347e-5 0.342036 0.9396869 5.53295e-6 0.3420377 0.9396862 1.04721e-5 0.3420286 0.9396896 7.05245e-5 0.342027 0.9396902 3.15613e-5 0.3420301 0.939689 1.62604e-4 0.341921 0.9397287 2.44471e-7 0.342027 0.9396901 -2.02697e-5 0.3419953 0.9397017 -5.30625e-5 0.3420025 0.9396992 -2.20206e-5 0.3419805 0.9397071 -1.09331e-5 0.3420397 0.9396855 -1.45088e-5 0.3419886 0.9397042 -8.3527e-5 0.3419996 0.9397001 1.05034e-4 0.3420799 0.9396709 2.37798e-5 0.3420898 0.9396673 8.79441e-5 0.3420162 0.9396941 -5.2123e-5 0.3420119 0.9396957 -2.73286e-5 0.341943 0.9397208 -6.82318e-5 0.34184 0.9397582 2.98892e-5 0.3420504 0.9396816 -0.0798881 0.9968032 -0.001208543 -0.06540805 0.9978586 0 -0.2376931 0.9713385 -0.001896262 -0.1950368 0.9807955 9.43845e-4 -0.5653046 0.8248823 0 -0.3895034 0.9210228 -0.002052605 -0.3214583 0.9469228 0.001363933 -0.4423012 0.8968658 0.001247942 -0.5567752 0.830659 -0.00266844 -0.555557 0.8314747 -0.00250101 -0.747047 0.6647673 -0.002316653 -0.6593596 0.7518274 8.68394e-4 -0.7518587 0.6593219 -0.001775979 -0.8855873 0.4644645 -0.002849459 -0.8314443 0.5556077 8.26203e-4 -0.8968912 0.44225 -0.001104474 -0.972185 0.2341923 -0.003206968 -0.94694 0.3214099 6.78709e-4 -0.9807682 0.1951757 -5.62576e-4 -0.9999301 -0.01131033 -0.003482222 -0.9978588 0.06540483 4.33111e-4 -0.9978584 -0.06541091 -9.67212e-5 -0.9697211 -0.2441977 -0.002900004 -0.9807698 -0.1951685 9.57239e-5 -0.8969181 -0.4421944 -0.00142908 -0.9469403 -0.3214089 8.21344e-4 -0.8968921 -0.4422474 -0.001424312 -0.8314443 -0.5556076 8.32415e-4 -0.7904959 -0.6124622 -0.00255078 -0.7518606 -0.6593219 7.15497e-4 -0.6658449 -0.7460896 -9.57181e-4 -0.6593592 -0.7518281 -3.20767e-4 -0.5355491 -0.8445041 3.85406e-4 -0.5335569 -0.8457642 0 -0.555551 -0.8314713 -0.004327297 -0.4423019 -0.8968638 0.002159297 -0.388759 -0.9213323 -0.003630638 -0.3213957 -0.9469419 0.0024634 -0.2372448 -0.9714438 -0.003437697 -0.1951032 -0.9807813 0.001746416 -0.07978796 -0.9968094 -0.002236366 -0.06540799 -0.9978587 0 0.1360649 0.9309515 -0.3388447 0.3981794 0.8619801 -0.3137571 0.1361368 0.9309363 -0.3388575 0.6307138 0.7292148 -0.2654167 0.3981199 0.8620091 -0.3137528 0.6307419 0.7291902 -0.2654174 0.8166469 0.5423337 -0.1973881 0.9420047 0.315362 -0.1147785 0.8166084 0.5423803 -0.1974194 0.9420086 0.3153507 -0.1147776 0.9976021 0.06503701 -0.02367258 0.9976023 0.06503474 -0.02366995 0.9793277 -0.1900817 0.06918203 0.9793251 -0.1900922 0.06919133 0.8884714 -0.4312541 0.1569675 0.7318202 -0.6403972 0.2330896 0.8884842 -0.4312326 0.1569535 0.7318141 -0.6404036 0.2330909 0.5209891 -0.8020856 0.2919406 0.5209972 -0.8020818 0.2919363 -2.14276e-4 -0.3419745 -0.9397093 2.18409e-4 -0.3420525 -0.9396808 1.89214e-6 -0.3420383 -0.939686 6.02604e-5 -0.3420694 -0.9396747 -1.54007e-4 -0.3420237 -0.9396913 -9.43514e-6 -0.3420172 -0.9396937 -6.79619e-5 -0.3420096 -0.9396965 8.02021e-5 -0.3420548 -0.93968 -5.42373e-5 -0.3420056 -0.9396979 -2.76875e-5 -0.3420231 -0.9396916 1.82936e-5 -0.3420097 -0.9396965 -2.43661e-5 -0.3420011 -0.9396995 -6.10786e-5 -0.3419947 -0.9397019 2.812e-4 -0.3421188 -0.9396567 1.27416e-4 -0.3419615 -0.939714 -5.64532e-5 -0.3420185 -0.9396933 -8.05248e-6 -0.342009 -0.9396968 -2.05616e-4 -0.3420315 -0.9396885 6.6894e-5 -0.3420207 -0.9396924 2.32132e-4 -0.3420235 -0.9396915 6.69528e-6 -0.3420282 -0.9396897 -1.72667e-5 -0.342032 -0.9396884 -1.87563e-4 -0.342043 -0.9396843 1.04087e-5 -0.3420253 -0.9396908 -3.97735e-5 -0.3420085 -0.9396969 8.22734e-5 -0.3420003 -0.9396999 -1.24884e-4 -0.3420746 -0.9396728 9.33511e-5 -0.342016 -0.9396942 1.37691e-4 -0.3420132 -0.9396952 0 -0.3420094 -0.9396966 0 -0.3420088 -0.9396967 -4.91126e-5 -0.3420149 -0.9396945 -4.64108e-5 -0.3420165 -0.939694 4.86837e-6 -0.3420202 -0.9396926 1.28378e-7 -0.3419994 -0.9397003 0 -0.3420168 -0.9396938 6.8591e-5 -0.3420672 -0.9396756 -1.5615e-5 -0.342199 -0.9396276 -1.15666e-6 -0.3420066 -0.9396976 1.05866e-5 -0.3420144 -0.9396948 8.93685e-6 -0.3419522 -0.9397174 2.70617e-6 -0.3420827 -0.9396699 9.45097e-6 -0.3420041 -0.9396985 0 -0.3420238 -0.9396913 -3.28203e-5 -0.3420131 -0.9396953 6.35967e-6 -0.3419995 -0.9397002 7.96956e-6 -0.3420347 -0.9396874 8.04903e-7 -0.3420235 -0.9396914 9.48087e-6 -0.3420329 -0.939688 9.38153e-6 -0.3420334 -0.9396879 5.90126e-6 -0.3420103 -0.9396963 0 -0.3420244 -0.9396911 -4.43012e-6 -0.3420239 -0.9396913 -1.91475e-6 -0.3419477 -0.939719 9.38033e-6 -0.3420388 -0.9396859 1.10069e-5 -0.3420164 -0.9396941 1.70159e-6 -0.3420159 -0.9396942 4.27497e-6 -0.3420313 -0.9396886 3.08973e-5 -0.3420079 -0.9396971 -1.42376e-5 -0.3421087 -0.9396604 -2.57993e-5 -0.3420201 -0.9396927 -6.92449e-7 -0.3420104 -0.9396963 1.64375e-5 -0.3420096 -0.9396965 3.80235e-6 -0.3420125 -0.9396955 1.96065e-5 -0.3420122 -0.9396956 -4.64305e-5 -0.3420388 -0.9396858 6.04331e-5 -0.3420144 -0.9396948 -4.20068e-5 -0.3420167 -0.9396939 -5.38236e-6 -0.3420188 -0.9396931 6.03052e-5 -0.3420147 -0.9396947 -5.50133e-6 -0.3420077 -0.9396972 -3.39785e-6 -0.3420094 -0.9396966 7.26876e-6 -0.3420661 -0.939676 -3.61932e-5 -0.3420257 -0.9396907 2.44126e-6 -0.3419941 -0.9397021 -1.42547e-4 -0.3420636 -0.9396769 1.16151e-5 -0.3420513 -0.9396813 4.39594e-6 -0.3420131 -0.9396953 3.28932e-5 -0.3420154 -0.9396944 2.017e-5 -0.3420187 -0.9396933 2.27747e-5 -0.3420187 -0.9396932 9.10588e-6 -0.341974 -0.9397095 8.45092e-6 -0.3419718 -0.9397102 2.99185e-5 -0.3420156 -0.9396943 6.79495e-5 -0.3420153 -0.9396944 1.10354e-5 -0.342133 -0.9396516 5.0835e-7 -0.3420107 -0.9396961 7.66393e-6 -0.3420333 -0.9396878 1.32358e-5 -0.3420314 -0.9396885 4.91381e-7 -0.3419857 -0.9397052 1.35859e-6 -0.341993 -0.9397025 -7.15156e-5 -0.3420284 -0.9396896 4.23546e-5 -0.3420217 -0.9396921 -4.24528e-5 -0.3420137 -0.9396951 -2.43835e-5 -0.3420192 -0.939693 -1.89262e-6 -0.3420407 -0.9396852 -2.36565e-5 -0.3420468 -0.939683 -3.51299e-6 -0.3420261 -0.9396905 9.79204e-5 -0.3419869 -0.9397048 -9.83234e-6 -0.3421181 -0.939657 -9.27795e-6 -0.3420851 -0.939669 1.02509e-4 -0.3419875 -0.9397046 1.97516e-6 -0.3420144 -0.9396947 -2.21206e-4 -0.3420558 -0.9396796 -3.33697e-5 -0.3420323 -0.9396882 2.4931e-4 -0.3420202 -0.9396926 4.23333e-4 -0.3420194 -0.9396928 4.2333e-4 -0.3420194 -0.9396928 4.23324e-4 -0.3420194 -0.9396928 1.39725e-6 -0.3420222 -0.939692 1.37705e-4 -0.3420125 -0.9396954 -1.93998e-4 -0.3420041 -0.9396985 3.71288e-6 -0.3420363 -0.9396868 2.22095e-4 -0.3420993 -0.9396638 -1.1034e-4 -0.3419813 -0.9397068 -5.60311e-6 -0.3419994 -0.9397002 -2.22509e-6 -0.3420175 -0.9396937 4.1591e-5 -0.3420247 -0.939691 8.1523e-5 -0.3420555 -0.9396798 -1.22657e-5 -0.3420168 -0.9396939 1.38439e-4 -0.3419986 -0.9397005 5.13357e-5 -0.3420192 -0.9396929 -9.70723e-5 -0.3420081 -0.939697 4.31419e-5 -0.3420301 -0.939689 -6.77103e-5 -0.3419927 -0.9397027 9.69724e-6 -0.3420403 -0.9396854 2.3761e-4 -0.3420189 -0.939693 2.37477e-4 -0.3420192 -0.9396929 2.3775e-4 -0.3420194 -0.9396929 1 0 0 -0.187299 0.9230618 -0.3359702 -0.1873262 0.9230579 -0.3359656 -0.4258613 0.850223 -0.3094563 -0.4258399 0.8502336 -0.3094566 -0.6374101 0.7240574 -0.2635325 -0.9921062 -0.117838 0.04288935 -0.9297935 -0.3458832 0.1258926 -0.6374253 0.7240446 -0.263531 -0.9921079 -0.1178255 0.0428853 -0.8089947 0.5523663 -0.201045 -0.8090143 -0.5523409 0.2010355 -0.8090136 0.5523438 -0.2010309 -0.9297894 -0.3458935 0.1258943 -0.9297865 0.3459015 -0.1258943 -0.9297832 0.3459086 -0.1258995 -0.808999 -0.5523619 0.2010403 -0.9921073 0.11783 -0.04288631 -0.9921067 0.1178352 -0.04288733 -0.6373865 -0.7240747 0.2635421 -0.4257979 -0.8502509 0.3094669 -0.6374142 -0.7240547 0.2635299 -0.425794 -0.8502531 0.3094659 -0.187439 -0.9230417 0.3359476 -0.1873529 -0.9230533 0.3359639 0.06287372 -0.9378339 0.3413423 0.3089424 -0.8937242 0.3252872 0.06280356 -0.9378418 0.3413333 0.3089203 -0.8937308 0.32529 0.5358117 -0.7934188 0.2887772 0.5358479 -0.7933964 0.2887721 0.7289438 -0.6432893 0.2341361 0.7289393 -0.6432958 0.2341329 0.8763356 -0.4526514 0.1647509 0.8763223 -0.4526753 0.1647555 0.9685998 -0.233631 0.08503544 0.9686002 -0.2336302 0.08503437 1 1.41109e-6 0 1 -6.45067e-6 0 0.9685971 0.2336416 -0.08503824 0.9685981 0.2336368 -0.08503872 0.8763226 0.4526727 -0.1647614 0.8763259 0.4526671 -0.164759 0.7289487 0.6432816 -0.2341424 0.7289437 0.6432878 -0.2341409 0.535762 0.7934451 -0.2887976 0.535836 0.7934055 -0.2887693 0.3089334 0.8937288 -0.3252831 0.3091303 0.8936594 -0.3252866 0.06266695 0.9378383 -0.3413683 0.06280189 0.9378367 -0.3413479 -1 0 0 -1 0 0 0 0.9396908 -0.3420253 0 0.939691 -0.3420248 1 -1.51582e-7 0 0 -0.939691 0.3420247 -0.1873286 0.9230563 -0.3359689 -0.1873558 0.9230524 -0.3359647 -0.4258047 0.8502485 -0.3094639 -0.425786 0.8502569 -0.3094667 -0.6374086 0.7240589 -0.2635319 -0.992116 -0.117765 0.0428636 -0.9297664 -0.3459473 0.1259171 -0.6374256 0.7240443 -0.2635311 -0.9921168 -0.1177606 0.04285937 -0.808994 0.5523673 -0.2010449 -0.8090165 0.5523393 -0.2010316 -0.9297626 -0.3459566 0.1259185 -0.9297592 0.3459662 -0.1259183 -0.9297539 0.3459783 -0.1259236 -0.8089996 -0.5523608 0.2010404 -0.9921168 0.1177601 -0.0428605 -0.9921163 0.1177636 -0.04286146 -0.637385 -0.7240762 0.2635415 -0.4257424 -0.8502755 0.3094754 -0.6374135 -0.7240554 0.2635296 -0.4257398 -0.8502768 0.3094757 -0.1874687 -0.923036 0.3359463 -0.1873817 -0.9230483 0.3359614 0.06286746 -0.9378347 0.3413408 0.3089415 -0.8937248 0.3252862 0.06279772 -0.9378421 0.3413338 0.3089216 -0.8937299 0.3252915 0.5358448 -0.7934002 0.2887676 0.5358847 -0.7933741 0.2887649 0.7290198 -0.6432145 0.2341053 0.729023 -0.643211 0.2341049 0.8762688 -0.4527653 0.1647926 0.8762569 -0.4527866 0.1647973 0.9685992 -0.2336338 0.08503538 0.9686009 -0.2336272 0.08503443 1 -1.61267e-6 0 0.9685977 0.2336385 -0.0850383 0.9685977 0.2336387 -0.08503866 0.8762555 0.4527874 -0.164803 0.8762606 0.4527784 -0.1648007 0.7290261 0.6432048 -0.2341123 0.7290272 0.6432035 -0.2341127 0.5357964 0.7934251 -0.2887887 0.5358732 0.7933828 -0.2887623 0.3089348 0.8937277 -0.3252847 0.3091295 0.8936601 -0.3252857 0.06266093 0.937839 -0.3413675 0.06279587 0.9378371 -0.3413478 1 0 0 1 0 0 -1 6.06327e-7 0 -1 -1.51582e-7 0 0 0.9396908 -0.3420253 0 0.939691 -0.3420248 -0.3356359 0.9419919 0 -0.3356359 0.9419918 0 0.2886574 0.9574325 0 0.1927375 0.9812502 -6.45655e-4 0.2813805 0.959596 7.65299e-4 0.05775141 0.9983286 -0.002187013 0.170275 0.9853957 0.001290321 0.05703949 0.9983698 -0.002084732 -0.1072283 0.9942297 -0.00307089 -0.05703717 0.9983713 0.00124979 -0.2611533 0.9652943 -0.002468705 -0.170282 0.9853942 0.001549363 -0.2813806 0.9595963 0 0.3356359 0.9419919 0 0.3356359 0.9419918 0 0.0798881 0.9968032 -0.001208543 0.1951037 0.9807822 9.45277e-4 0.06540805 0.9978586 0 0.07978785 -0.9968094 -0.002236306 0.06540799 -0.9978587 0 0.2372448 -0.9714438 -0.003437697 0.1951032 -0.9807813 0.001746475 0.388759 -0.9213323 -0.003630638 0.3213957 -0.9469419 0.0024634 0.5653063 -0.8248811 0 0.4423019 -0.8968638 0.002159237 0.5525208 -0.8334913 -0.003607988 0.555551 -0.8314713 -0.004327237 0.7460978 -0.66583 -0.002930104 0.6593583 -0.7518281 0.001115918 0.7518562 -0.6593238 -0.002147912 0.8846546 -0.466235 -0.003362536 0.8314447 -0.5556067 9.99228e-4 0.8968898 -0.4422523 -0.001242339 0.9716265 -0.2364949 -0.003493309 0.9469405 -0.3214082 7.63406e-4 0.980768 -0.1951767 -5.84136e-4 0.9999555 0.008776426 -0.003482282 0.9978587 -0.06540501 4.49825e-4 0.9978585 0.0654093 -9.25491e-5 0.9701994 0.2422938 -0.002662122 0.9807693 0.1951708 9.14709e-5 0.9469405 0.3214081 7.31113e-4 0.8972983 0.4414231 -0.001207053 0.8968932 0.4422456 -0.001272976 0.8314425 0.5556103 6.97727e-4 0.791314 0.6114067 -0.002084076 0.7518618 0.6593207 5.68619e-4 0.6661553 0.7458127 -7.56181e-4 0.5335552 0.8457653 0 0.6593587 0.7518284 -2.45582e-4 0.5349952 0.8448551 2.97364e-4 0.555557 0.8314747 -0.00250101 0.4423012 0.8968658 0.001248002 0.3895034 0.9210228 -0.002052605 0.3213959 0.946944 0.001367092 0.2376926 0.9713386 -0.001890599 0 0 1 -0.3356359 -0.9419918 0 -0.3356359 -0.9419918 0 1.35893e-5 0.341997 0.939701 -4.90421e-6 0.3420376 0.9396864 -6.62534e-6 0.3420014 0.9396995 -1.13503e-5 0.342051 0.9396814 -3.52761e-5 0.3419958 0.9397015 3.56034e-6 0.3420026 0.939699 5.35242e-5 0.3420794 0.9396711 1.5953e-5 0.3419901 0.9397035 -3.42068e-5 0.3420099 0.9396964 1.45554e-5 0.342024 0.9396913 -5.99888e-6 0.34202 0.9396927 3.81218e-5 0.3420325 0.9396882 6.09007e-6 0.3420211 0.9396924 3.29464e-4 0.3422307 0.9396159 -3.08307e-5 0.3419985 0.9397006 1.00279e-5 0.342017 0.9396938 1.81666e-5 0.3420207 0.9396925 -4.73619e-6 0.3420217 0.939692 -2.48923e-6 0.3420172 0.9396938 -3.27689e-5 0.3419827 0.9397063 -1.40302e-5 0.3419718 0.9397103 1.28332e-5 0.3420554 0.9396798 -6.78792e-6 0.3420057 0.9396979 3.14032e-5 0.3420917 0.9396666 2.0527e-6 0.3420196 0.9396929 -1.37379e-5 0.341992 0.9397029 7.52514e-6 0.3420188 0.9396932 3.91917e-6 0.3420358 0.939687 -1.06425e-5 0.3419975 0.9397009 9.56356e-6 0.3420168 0.9396939 8.07026e-6 0.3420051 0.9396981 -8.39347e-6 0.3420035 0.9396987 -2.71879e-5 0.3420411 0.9396851 4.1593e-5 0.3420334 0.9396878 4.6471e-5 0.3420488 0.9396822 2.15345e-5 0.3420155 0.9396944 -2.08019e-5 0.3419828 0.9397062 -1.63944e-5 0.3419746 0.9397093 -1.20966e-5 0.3420362 0.9396869 1.29049e-5 0.3421174 0.9396572 3.0892e-5 0.3420178 0.9396935 -1.39717e-5 0.3420383 0.939686 2.18617e-6 0.3420165 0.9396939 1.99209e-5 0.3420139 0.9396949 3.58135e-7 0.3420165 0.9396941 2.01049e-5 0.3420073 0.9396973 1.56625e-5 0.3419921 0.9397029 1.62005e-5 0.3419902 0.9397035 -2.89383e-6 0.3420248 0.939691 2.41403e-5 0.3420485 0.9396823 8.30362e-6 0.3420162 0.9396941 -4.43901e-5 0.3420125 0.9396955 1.81683e-5 0.3420181 0.9396934 0 0.342019 0.9396931 -4.10946e-5 0.3420245 0.9396911 7.40338e-5 0.3419808 0.939707 4.98407e-6 0.3420038 0.9396986 -2.64357e-4 0.3421757 0.9396359 1.09213e-5 0.3419811 0.9397069 1.49845e-5 0.3420405 0.9396852 -2.38195e-5 0.3420779 0.9396717 2.3373e-5 0.3420189 0.9396931 -5.80439e-6 0.3420137 0.9396951 1.01111e-4 0.3420082 0.939697 7.03688e-6 0.3420091 0.9396967 7.94179e-6 0.3419936 0.9397023 -1.89742e-5 0.3419725 0.93971 1.00185e-5 0.3420029 0.9396989 -2.51249e-5 0.3420482 0.9396824 1.69015e-5 0.3419898 0.9397038 -1.52367e-5 0.3420186 0.9396932 -1.07618e-5 0.3420267 0.9396904 1.11964e-5 0.3420085 0.9396969 -4.83225e-5 0.3420269 0.9396902 2.70424e-5 0.3419723 0.93971 1.74888e-5 0.341977 0.9397084 -4.0789e-5 0.3419331 0.9397244 -1.09476e-5 0.3420261 0.9396905 -3.32128e-5 0.3421108 0.9396597 -3.81218e-5 0.3420325 0.9396882 6.00984e-6 0.3420342 0.9396875 5.99888e-6 0.34202 0.9396927 -1.45554e-5 0.342024 0.9396913 -3.85578e-6 0.3420181 0.9396935 -1.19344e-5 0.3420074 0.9396973 3.76538e-5 0.3420512 0.9396814 1.66453e-5 0.3419905 0.9397034 -3.50731e-5 0.3419889 0.939704 -1 -3.56927e-7 0 -1 -2.7012e-7 0 -7.24255e-6 -0.3420373 -0.9396864 -4.62211e-6 -0.3420252 -0.9396909 -7.31903e-6 -0.342014 -0.9396949 1.80626e-5 -0.3420452 -0.9396835 -5.25372e-5 -0.3419995 -0.9397001 9.05741e-5 -0.3420475 -0.9396827 -4.41979e-5 -0.3420271 -0.9396901 -2.2618e-6 -0.3420307 -0.9396888 -6.71911e-6 -0.3420335 -0.9396879 5.7903e-5 -0.3420191 -0.9396931 -2.92947e-5 -0.3420276 -0.93969 -1.65394e-5 -0.3420246 -0.9396911 5.08913e-5 -0.3419855 -0.9397053 6.33722e-6 -0.34204 -0.9396854 1.84882e-6 -0.342056 -0.9396796 -1.06459e-5 -0.3420147 -0.9396947 -1.5284e-5 -0.3420096 -0.9396965 -4.6148e-5 -0.3420192 -0.939693 -2.4059e-5 -0.3420217 -0.9396921 3.84412e-5 -0.3420425 -0.9396845 3.24842e-6 -0.3420177 -0.9396936 2.59861e-6 -0.3420168 -0.9396939 -1.08735e-5 -0.3420292 -0.9396893 3.98898e-6 -0.3420264 -0.9396904 2.68371e-5 -0.3420211 -0.9396923 1.17567e-5 -0.3420163 -0.9396941 -9.37838e-6 -0.3420143 -0.9396948 -6.79577e-5 -0.3420008 -0.9396998 -4.41517e-5 -0.3420956 -0.9396652 8.42422e-5 -0.3419405 -0.9397217 -1.4294e-5 -0.342042 -0.9396848 -3.02341e-5 -0.3420284 -0.9396896 6.79577e-5 -0.3420008 -0.9396998 5.72335e-6 -0.3419907 -0.9397034 9.37838e-6 -0.3420143 -0.9396948 -1.17567e-5 -0.3420163 -0.9396941 -6.78114e-6 -0.3420218 -0.939692 -8.51559e-6 -0.3420201 -0.9396927 -1.66706e-6 -0.3420235 -0.9396914 -1.65304e-6 -0.3420286 -0.9396896 3.84725e-6 -0.3420053 -0.9396981 2.3177e-6 -0.3420779 -0.9396716 8.53697e-6 -0.341975 -0.9397091 -1.80628e-5 -0.342079 -0.9396712 -5.47399e-6 -0.3420059 -0.9396979 -3.66505e-5 -0.342041 -0.9396851 -4.85601e-6 -0.3420223 -0.9396919 -9.56216e-6 -0.3420028 -0.939699 8.55114e-6 -0.3420216 -0.9396922 5.41599e-6 -0.3421185 -0.9396569 -2.9132e-6 -0.3420276 -0.93969 -5.9319e-5 -0.34206 -0.9396781 -1.53518e-5 -0.3420491 -0.9396822 -1.77169e-5 -0.3420494 -0.9396821 8.89102e-6 -0.3420314 -0.9396886 5.97806e-6 -0.3420289 -0.9396895 2.43588e-5 -0.3420226 -0.9396917 0 -0.3420318 -0.9396885 1.30346e-5 -0.342017 -0.9396939 4.36915e-5 -0.3419929 -0.9397026 -6.79531e-5 -0.3419033 -0.9397352 1.90137e-5 -0.3420817 -0.9396702 -8.86533e-6 -0.341974 -0.9397095 -2.12454e-6 -0.342077 -0.939672 1.54967e-6 -0.3420279 -0.9396899 -2.87126e-5 -0.3420161 -0.9396941 8.19711e-6 -0.3420192 -0.939693 6.88455e-6 -0.3420153 -0.9396944 -2.67417e-5 -0.3420176 -0.9396936 -9.50656e-6 -0.3420324 -0.9396882 9.00296e-6 -0.3420178 -0.9396935 -2.53497e-5 -0.3420792 -0.9396711 8.86273e-6 -0.342019 -0.939693 0 -0.3420192 -0.939693 0 -0.3420306 -0.9396889 9.54721e-6 -0.3420217 -0.9396921 -1.00437e-4 -0.3418915 -0.9397395 -1.00413e-4 -0.3418915 -0.9397395 -1.00428e-4 -0.3418915 -0.9397395 -6.02494e-6 -0.3420455 -0.9396834 0 -0.3420193 -0.9396929 1.10497e-6 -0.3419998 -0.9397001 0 -0.342032 -0.9396883 -3.05935e-5 -0.3420215 -0.9396922 8.47491e-6 -0.3419928 -0.9397027 1.90698e-5 -0.3420236 -0.9396914 1.68264e-5 -0.3419029 -0.9397354 -1.42315e-5 -0.3420369 -0.9396865 0 -0.3420303 -0.9396889 4.85601e-6 -0.3420223 -0.9396919 -6.65107e-6 -0.3420166 -0.939694 2.55815e-5 -0.3420217 -0.9396922 -1.53533e-5 -0.342047 -0.939683 3.40633e-5 -0.3420527 -0.9396809 8.90955e-5 -0.3420796 -0.939671 -2.73027e-5 -0.3420206 -0.9396925 -3.17199e-5 -0.3420777 -0.9396718 -3.5954e-6 -0.3420858 -0.9396688 1.91208e-5 -0.3420401 -0.9396855 8.76393e-7 -0.3420236 -0.9396914 5.33016e-6 -0.3419847 -0.9397056 7.44822e-6 -0.3419916 -0.9397031 -4.26717e-5 -0.342015 -0.9396945 4.91872e-6 -0.3420314 -0.9396886 2.99096e-7 -0.3420007 -0.9396998 -3.00576e-5 -0.3420257 -0.9396906 -1.73442e-5 -0.3419777 -0.9397081 3.75723e-5 -0.3419744 -0.9397093 1.64105e-5 -0.3420168 -0.9396939 2.8619e-6 -0.342017 -0.9396938 1.01637e-5 -0.3420125 -0.9396954 2.22367e-6 -0.3420453 -0.9396836 -1.7789e-5 -0.3420022 -0.9396992 2.09179e-5 -0.3420588 -0.9396786 0 -0.3420308 -0.9396889 0 -0.3420336 -0.9396877 0 -0.9396901 0.3420273 0 -0.9396898 0.342028 0 -0.9396901 0.3420271 1 0 0 1 0 0 -1 0 0 -1 0 0 0.535791 0.844349 -0.001743793 0.4661419 0.8847096 8.34033e-4 -0.9928259 -0.1195688 -3.02133e-4 -0.9361663 -0.3515575 2.78795e-4 -0.9921269 -0.1252375 0 -0.8259589 -0.5637302 5.10578e-4 -0.9297295 -0.3682428 -5.48795e-4 0.3090373 0.9510492 -0.001167535 0.287017 0.9579256 -1.24905e-4 0.0968101 0.995303 1.19226e-4 -0.6687122 -0.7435211 7.22744e-4 -0.8090472 -0.5877433 -7.60225e-4 -0.4731647 -0.8809736 8.95969e-4 -0.09687203 0.9952965 9.41613e-4 0.06277334 0.998027 -0.001347959 -0.6374287 -0.7705089 -9.48654e-4 -0.2621207 -0.9650348 9.05685e-4 -0.4258138 -0.9048103 -0.001109421 -0.2869055 0.9579584 0.001011669 -0.1873734 0.9822872 -0.001791298 -0.06021535 -0.998185 9.21125e-4 -0.1873737 -0.9822877 -0.001449704 0.133336 -0.9910707 6.28582e-4 0.06277328 -0.9980267 -0.001475572 -0.4662591 0.8846483 3.32062e-4 -0.6283517 0.7779294 -3.97777e-4 -0.425812 0.9048106 -0.001483857 0.321941 -0.9467597 -3.10374e-4 0.4986695 -0.8667922 2.6102e-4 0.3090344 -0.9510505 -8.66748e-4 0.5357935 -0.8443481 -0.001277744 0.6563885 -0.7544226 8.77918e-4 -0.7662506 0.6425416 6.94185e-4 -0.6374292 0.7705085 -9.47976e-4 0.728995 -0.6845173 -0.001578748 0.7897034 -0.6134883 8.42339e-4 0.8763088 -0.4817484 -0.001217305 -0.8757755 0.4827177 0.001025259 0.8930228 -0.4500114 1.37569e-4 0.9630419 -0.2693518 -1.51712e-4 -0.8090459 0.5877433 -0.00165528 0.9685918 -0.2486543 -0.001047611 0.996923 -0.07838493 7.4721e-4 -0.9524227 0.3047797 6.49866e-4 -0.9873889 0.1583124 -6.06429e-4 -0.9297274 0.3682451 -0.001620233 0.9999988 0 -0.001635849 -0.9985963 0.05296891 0 0.9933055 0.1155133 9.82919e-4 -0.9921253 0.1252394 -0.001635372 0.9685916 0.2486528 -0.001533448 0.9523981 0.3048569 5.26085e-4 0.8760699 0.4821837 -7.11669e-4 0.876307 0.4817528 -6.8742e-4 0.7662824 0.6425039 5.04986e-4 0.7289924 0.68452 -0.001575291 0.6279159 0.7782806 0.001037955 0.9981764 -0.06035989 8.3107e-4 0.9926815 0.1207399 0.002354323 0.9981765 0.06035989 -5.62399e-4 -0.6166998 0.7871981 8.87717e-4 -0.6278867 0.7783022 0.002064347 -0.993009 -0.1179883 0.003435015 0.9836107 0.1803047 -6.07937e-4 -0.9981767 -0.06035995 0 -0.7071061 0.7071069 -0.001004934 -0.7657834 0.6430942 0.002407252 0.9509615 0.3093038 0.001835584 -0.9836109 -0.1803043 -7.65658e-5 0.9547188 0.2975083 9.15201e-4 0.8736201 0.486603 0.002357065 0.9119173 0.410373 -9.26549e-4 -0.7871988 0.6166994 1.04386e-4 -0.9547193 -0.2975081 7.23477e-5 -0.9408223 -0.3388904 0.00261259 -0.9119175 -0.4103735 -6.09467e-4 0.8557654 0.5173642 3.8083e-6 0.7637205 0.6455426 0.002453386 -0.8557651 0.5173647 -9.90902e-5 -0.8557642 -0.5173652 9.96024e-4 0.7871981 0.6167002 -3.07178e-6 -0.8522288 -0.5231673 0.001460194 -0.8751535 0.4838395 0.002394616 -0.7871983 -0.6166996 -7.47064e-4 0.6254104 0.7802936 0.001979768 -0.7357242 -0.6772784 0.00197494 0.7071061 0.707107 -9.85092e-4 -0.9119168 0.4103741 -9.04032e-4 -0.7071064 -0.7071073 -1.12385e-4 -0.9519525 0.3062409 0.001750469 -0.6167001 -0.7871983 1.16819e-4 -0.5914861 -0.8063131 0.001834452 0.6166994 0.7871981 0.001043856 -0.9547187 0.2975081 0.001054883 0.5173651 0.8557645 -6.91904e-4 0.4635479 0.8860676 0.002735018 -0.9836108 0.1803043 -6.63619e-4 -0.5173647 -0.8557648 -7.63195e-4 -0.4252042 -0.9050962 0.001571118 -0.9871473 0.1598131 3.24524e-4 -0.4103734 -0.9119173 6.01859e-4 -0.9981766 0.06036013 -3.74062e-4 -0.9985739 0.05338889 0 0.4103733 0.9119175 -6.68034e-4 -0.297508 -0.9547193 -4.33832e-4 0.297508 0.9547188 9.81055e-4 -0.2429832 -0.9700286 0.001958727 0.2846343 0.9586338 0.002122402 -0.180305 -0.9836106 -5.37407e-4 -0.06035977 -0.9981764 8.57769e-4 -0.05164855 -0.9986644 0.001398444 0.1803049 0.9836103 -0.001053333 0.09500372 0.9954736 0.002604126 0.06035977 -0.9981765 -7.11145e-4 0.1415716 -0.9899262 0.001865208 0.1803051 -0.9836108 -7.26425e-5 0.2975082 -0.9547194 7.3353e-5 0.3295236 -0.9441456 0.001819372 0.06035977 0.9981767 5.76448e-5 0.4103735 -0.9119173 -7.54254e-4 0.5051278 -0.8630432 0.001541793 -0.09817105 0.9951661 0.002649903 -0.06035977 0.9981767 -5.76448e-5 0.5173648 -0.8557647 6.69871e-4 0.6166998 -0.7871984 -4.6459e-4 0.6618897 -0.7495986 0.002032399 -0.1803048 0.9836103 -0.001029729 -0.2876729 0.9577267 0.002029657 0.7071064 -0.7071071 -5.41004e-4 0.7871981 -0.6166997 8.43411e-4 0.7937144 -0.6082888 0.001528143 0.8557644 -0.5173652 -7.78226e-4 0.8960431 -0.4439625 0.002011239 -0.2975078 0.9547187 0.001138329 0.9119176 -0.4103733 -3.89816e-5 -0.4103736 0.9119173 -7.37174e-4 -0.4663726 0.8845842 0.002731382 0.9547194 -0.2975081 3.8798e-5 0.9647332 -0.2632217 0.002055704 0.9973481 -0.07275819 0.001715183 -0.5173646 0.8557649 -6.25253e-4 0.9836105 -0.1803045 -8.41933e-4 0.4728301 0.8811528 0.001304388 0.5357602 0.8443688 -0.001522839 -0.9928162 -0.1196488 -3.0537e-4 -0.9361912 -0.3514912 2.75364e-4 0.2619775 0.9650738 6.53403e-4 -0.9921079 -0.1253874 0 0.309037 0.9510491 -0.001399457 -0.8259589 -0.5637302 5.10681e-4 -0.9297809 -0.3681133 -5.49333e-4 0.06020945 0.9981856 -6.5255e-4 -0.1332809 0.9910783 5.0095e-4 -0.6687957 -0.7434459 7.197e-4 0.06277853 0.9980272 -7.81493e-4 -0.8090152 -0.5877874 -7.62551e-4 -0.4730933 -0.881012 8.92988e-4 -0.6374664 -0.7704777 -9.54087e-4 -0.3218567 0.9467878 0.001047194 -0.1873736 0.9822874 -0.001593232 -0.2621207 -0.9650348 9.04653e-4 -0.4257805 -0.9048259 -0.001110672 -0.06020832 -0.9981855 9.20978e-4 -0.1873746 -0.9822875 -0.001450479 -0.4984996 0.8668897 8.48959e-4 -0.4257782 0.904826 -0.001762747 0.133336 -0.9910707 6.28045e-4 0.06277835 -0.9980264 -0.001475691 0.3219692 -0.9467502 -3.10273e-4 -0.6562457 0.7545474 -8.72831e-5 0.4986354 -0.8668118 2.609e-4 -0.7895439 0.6136941 7.83371e-5 0.3090359 -0.9510501 -8.67978e-4 -0.6374663 0.7704775 -0.001181244 0.6564313 -0.7543855 8.78715e-4 -0.8928782 0.4502977 8.89015e-4 0.5357611 -0.8443687 -0.001278221 -0.8090148 0.5877871 -0.001274168 0.7289512 -0.6845639 -0.001574635 0.7896577 -0.6135472 8.46631e-4 -0.961701 0.2740994 8.40686e-4 -0.9297777 0.3681175 -0.001705467 -0.9957368 0.0922411 0 -0.992107 0.1253879 -0.001315832 0.876375 -0.481628 -0.001215517 0.8930311 -0.4499951 1.34363e-4 0.96179 -0.2737884 -1.483e-4 0.9685732 -0.2487258 -0.001183152 0.9957621 -0.09196484 7.74052e-4 0.9999986 0 -0.001662373 0.9927718 0.1200088 0.001519918 0.9685732 0.2487227 -0.001681566 0.9359499 0.35213 0.001514792 0.8763732 0.4816297 -0.001665592 0.825618 0.5642277 0.001491427 0.7289506 0.6845645 -0.001606106 0.6683207 0.7438719 0.001420021 0 -0.3420305 -0.9396889 0 -0.3420308 -0.9396888 1 -3.56927e-7 0 0.3356359 -0.9419918 0 0.3356359 -0.9419918 0 -0.2886574 -0.9574325 0 -0.192533 -0.9812878 -0.002318739 -0.2813795 -0.9595927 0.00273478 -0.05753415 -0.9983107 -0.008099377 -0.1702733 -0.9853854 0.00476396 -0.05703783 -0.9983413 -0.007830917 0.1066625 -0.9942305 -0.01135468 0.05703663 -0.9983611 0.004694938 0.260107 -0.9655393 -0.008839905 0.1702795 -0.9853797 0.005654156 0.2813805 -0.9595963 0 -0.1360806 -0.9309532 0.3388335 -0.1360732 -0.9309547 0.3388327 -0.3981901 -0.8619793 0.3137462 -0.3981189 -0.8620144 0.3137395 -0.6307081 -0.7292221 0.2654098 -0.6307561 -0.7291804 0.2654104 -0.8166449 -0.5423326 0.1973997 -0.8166215 -0.5423669 0.1974021 -0.9419973 -0.3153797 0.1147901 -0.9420005 -0.3153708 0.1147888 -0.9976027 -0.06502997 0.02367019 -0.9976022 -0.06503641 0.02367001 -0.9793282 0.1900796 -0.06918317 -0.979328 0.1900802 -0.06918334 -0.8884568 0.431283 -0.1569696 -0.8884667 0.4312633 -0.156968 -0.7318592 0.6403566 -0.2330789 -0.7318155 0.6404058 -0.2330807 -0.5209923 0.8020882 -0.2919273 -0.5210587 0.8020442 -0.29193 0 -0.9396945 0.3420151 0 -0.9396944 0.3420155 0.5210592 0.8020497 -0.2919138 0.5209925 0.802082 -0.2919439 0.7318592 0.6403566 -0.2330789 0.7318155 0.6404058 -0.2330807 0.8884928 0.4312161 -0.1569502 0.9793099 0.1901625 -0.06921291 0.8885024 0.4312002 -0.1569401 0.9793109 0.1901571 -0.06921273 0.9976024 -0.06503289 0.02367019 0.9976024 -0.06503289 0.02366989 0.9419972 -0.3153793 0.114792 0.9420006 -0.3153713 0.1147869 0.816643 -0.5423384 0.1973915 0.8166224 -0.5423623 0.1974108 0.6307085 -0.7292169 0.2654233 0.3982225 -0.861966 0.3137411 0.6307568 -0.7291845 0.2653976 0.3981512 -0.8620011 0.3137353 0.1360617 -0.9309558 0.3388342 0.1360691 -0.930955 0.3388333 -0.1874884 0.9230281 -0.3359575 -0.1873265 0.9230511 -0.3359844 -0.425868 0.850213 -0.3094744 -0.4256924 0.8502986 -0.3094806 -0.6374541 0.7240238 -0.2635184 -0.9921066 -0.1178352 0.04288953 -0.6373847 0.724074 -0.2635484 -0.8090261 0.5523236 -0.2010362 -0.9921055 -0.1178436 0.04289215 -0.8090242 0.5523264 -0.2010359 -0.9297888 -0.3458935 0.125899 -0.9297998 -0.3458681 0.1258872 -0.9297783 0.345919 -0.1259067 -0.9298011 0.3458662 -0.1258828 -0.9921044 0.1178527 -0.04289108 -0.808999 -0.552356 0.2010562 -0.6375212 -0.7239643 0.2635197 -0.8090233 -0.552327 0.201038 -0.9921081 0.1178237 -0.04288697 -0.4258078 -0.8502497 0.3094568 -0.6373691 -0.7240913 0.2635383 -0.4257978 -0.8502544 0.3094573 -0.1873275 -0.9230566 0.3359687 0.06281852 -0.9378355 0.3413479 -0.1874382 -0.9230417 0.335948 0.06284391 -0.9378354 0.3413436 0.309057 -0.8936881 0.3252774 0.5357376 -0.7934613 0.2887988 0.3090355 -0.8936949 0.3252793 0.5357621 -0.7934461 0.2887946 0.7289407 -0.6432907 0.2341424 0.8763571 -0.452614 0.1647393 0.7289231 -0.6433104 0.234143 0.9685893 -0.2336698 0.08504813 0.8763609 -0.4526072 0.1647374 0.9685942 -0.2336524 0.08503997 1 6.04701e-7 0 0.9685902 0.2336661 -0.08504796 0.9685897 0.2336681 -0.08504813 0.8763567 0.4526153 -0.1647374 0.8763412 0.4526396 -0.164753 0.7289402 0.6432898 -0.2341461 0.7289575 0.6432752 -0.2341327 0.5357444 0.7934563 -0.2887994 0.5357392 0.7934603 -0.288798 0.3090331 0.8936954 -0.3252801 0.3090451 0.8936918 -0.3252788 0.06284362 0.9378347 -0.3413453 0.06284266 0.9378352 -0.3413446 -0.1875165 0.9230239 -0.3359534 -0.1873573 0.9230445 -0.3359856 -0.4256331 0.8503178 -0.3095096 -0.4258126 0.8502458 -0.3094604 -0.6373893 0.7240731 -0.2635397 -0.9921152 -0.1177717 0.04286366 -0.6374537 0.7240204 -0.2635287 -0.9921162 -0.1177629 0.04286634 -0.8090218 0.5523301 -0.2010352 -0.9297606 -0.3459604 0.1259232 -0.8090273 0.5523216 -0.2010366 -0.9297735 -0.3459301 0.1259115 -0.929749 0.345989 -0.1259305 -0.929772 0.345936 -0.1259069 -0.8089975 -0.5523582 0.2010558 -0.8090252 -0.5523239 0.2010384 -0.992115 0.1177725 -0.04286754 -0.992118 0.1177501 -0.04285883 -0.6373723 -0.7240881 0.2635396 -0.425751 -0.8502757 0.309463 -0.425741 -0.8502794 0.3094668 -0.1873565 -0.9230514 0.3359668 0.06281268 -0.9378357 0.3413485 -0.1874675 -0.9230363 0.3359462 0.06283825 -0.9378355 0.3413445 0.3090588 -0.8936868 0.3252793 0.3090345 -0.8936956 0.3252781 0.5357713 -0.7934427 0.288787 0.7290215 -0.6432107 0.2341108 0.5357933 -0.7934278 0.288787 0.7290077 -0.6432239 0.2341172 0.8762915 -0.4527258 0.1647807 0.9685901 -0.2336667 0.08504819 0.8762926 -0.4527242 0.1647791 0.9685941 -0.2336531 0.08503997 1 3.22491e-6 0 1 -8.06267e-7 0 0.9685904 0.2336658 -0.08504801 0.968589 0.2336711 -0.08504807 0.87629 0.4527292 -0.1647791 0.876273 0.4527568 -0.1647942 0.7290191 0.643211 -0.234117 0.7290422 0.6431893 -0.2341046 0.5357756 0.7934389 -0.2887891 0.5357763 0.7934379 -0.2887911 0.309046 0.8936906 -0.325281 0.3090324 0.8936964 -0.3252781 0.062837 0.937835 -0.3413459 0.06283783 0.9378348 -0.3413464 -0.7682237 -0.6015722 0.2189599 -0.7682229 -0.6015724 0.2189614 -1 -2.27379e-7 0 -1 4.54744e-7 0 0 0.939696 -0.3420109 0 0.9396966 -0.3420093 1 2.27372e-7 0 0.7682236 -0.6015723 0.2189599 0.7682229 -0.6015724 0.2189614 0 -0.3420242 -0.9396913 -1.02812e-6 -0.3420208 -0.9396924 0 -0.3420217 -0.9396921 1.02812e-6 -0.3420208 -0.9396924</float_array>
          <technique_common>
            <accessor source="#shape0_006-mesh-normals-array" count="1153" stride="3">
              <param name="X" type="float"/>
              <param name="Y" type="float"/>
              <param name="Z" type="float"/>
            </accessor>
          </technique_common>
        </source>
        <vertices id="shape0_006-mesh-vertices">
          <input semantic="POSITION" source="#shape0_006-mesh-positions"/>
        </vertices>
        <triangles material="Black-material" count="1338">
          <input semantic="VERTEX" source="#shape0_006-mesh-vertices" offset="0"/>
          <input semantic="NORMAL" source="#shape0_006-mesh-normals" offset="1"/>
          <p>0 0 1 0 2 0 0 1 2 1 3 1 4 2 3 2 5 2 4 3 0 3 3 3 6 4 5 4 7 4 6 5 4 5 5 5 8 6 7 6 9 6 8 7 6 7 7 7 10 8 9 8 11 8 10 9 8 9 9 9 12 10 11 10 13 10 12 11 10 11 11 11 14 12 13 12 15 12 14 13 12 13 13 13 16 14 15 14 17 14 16 15 14 15 15 15 18 16 17 16 19 16 18 17 19 17 20 17 18 18 16 18 17 18 21 19 18 19 20 19 22 20 2 20 23 20 2 20 1 20 23 20 24 21 21 21 20 21 24 22 20 22 25 22 23 23 1 23 26 23 27 24 28 25 29 26 27 27 29 27 30 27 31 28 21 28 32 28 27 29 30 29 33 29 34 30 35 30 36 30 36 31 35 31 37 31 38 32 39 32 40 32 38 33 40 33 27 33 41 34 18 34 21 34 41 35 21 35 31 35 42 36 38 36 27 36 43 37 16 37 18 37 43 38 18 38 41 38 44 39 24 39 45 39 44 40 45 40 46 40 47 41 42 41 27 41 44 42 46 42 48 42 44 43 48 43 49 43 44 44 49 44 50 44 51 45 52 45 53 45 14 46 16 46 43 46 54 47 52 47 51 47 55 48 14 48 43 48 56 49 47 49 27 49 54 50 57 50 52 50 58 51 59 51 60 51 61 52 51 52 53 52 61 53 53 53 62 53 63 54 56 54 27 54 64 55 59 55 58 55 65 56 57 56 54 56 64 57 66 57 59 57 65 58 67 58 57 58 12 59 14 59 55 59 12 60 55 60 68 60 35 61 44 61 50 61 69 62 61 62 62 62 69 63 62 63 70 63 35 64 50 64 71 64 35 65 71 65 72 65 35 66 72 66 73 66 74 67 67 67 65 67 74 68 24 68 67 68 75 69 35 69 73 69 75 70 66 70 64 70 75 71 73 71 76 71 75 72 76 72 77 72 78 73 70 73 79 73 75 74 77 74 66 74 78 75 69 75 70 75 80 76 24 76 44 76 81 77 24 77 74 77 10 78 68 78 82 78 10 79 12 79 68 79 37 80 35 80 75 80 83 81 79 81 84 81 83 82 78 82 79 82 85 83 24 83 80 83 86 84 24 84 81 84 87 85 85 85 80 85 87 86 34 86 36 86 87 87 80 87 34 87 88 88 83 88 84 88 28 89 85 89 87 89 8 90 82 90 89 90 8 91 10 91 82 91 45 92 24 92 86 92 29 93 28 93 87 93 6 94 8 94 89 94 6 95 89 95 90 95 91 96 88 96 84 96 92 97 88 97 91 97 1 98 93 98 94 98 1 99 94 99 95 99 1 100 95 100 96 100 4 101 90 101 97 101 4 102 97 102 98 102 99 103 92 103 91 103 4 104 6 104 90 104 21 76 85 76 40 76 21 105 24 105 85 105 0 106 98 106 93 106 0 107 93 107 1 107 0 108 4 108 98 108 59 109 99 109 91 109 100 110 27 110 33 110 100 111 63 111 27 111 100 112 96 112 101 112 100 113 101 113 63 113 102 114 21 114 40 114 103 115 99 115 59 115 104 116 96 116 100 116 105 117 21 117 102 117 104 118 1 118 96 118 106 119 102 119 40 119 26 120 1 120 104 120 32 121 21 121 105 121 66 122 103 122 59 122 39 123 106 123 40 123 107 124 15 124 108 124 109 125 110 125 111 125 108 126 15 126 13 126 112 127 108 127 13 127 113 128 114 128 115 128 116 129 117 129 118 129 112 130 13 130 11 130 119 131 112 131 11 131 115 132 114 132 120 132 117 133 121 133 122 133 114 134 123 134 120 134 118 135 117 135 122 135 116 136 118 136 124 136 125 137 116 137 124 137 120 138 123 138 126 138 127 139 128 139 126 139 129 140 127 140 126 140 121 141 130 141 131 141 132 142 129 142 126 142 123 143 132 143 126 143 122 144 121 144 131 144 126 145 128 145 133 145 134 146 135 146 133 146 125 147 124 147 136 147 137 148 134 148 133 148 138 149 125 149 136 149 139 150 137 150 133 150 128 151 139 151 133 151 130 152 25 152 140 152 119 153 11 153 9 153 133 154 135 154 141 154 142 155 119 155 9 155 135 156 143 156 141 156 131 157 130 157 140 157 142 158 9 158 7 158 138 159 136 159 144 159 143 160 25 160 145 160 146 161 142 161 7 161 147 162 138 162 144 162 141 163 143 163 145 163 140 164 25 164 148 164 149 165 150 165 2 165 151 166 149 166 2 166 145 167 25 167 152 167 153 168 151 168 2 168 146 169 7 169 5 169 147 170 144 170 154 170 155 171 146 171 5 171 156 172 155 172 5 172 157 173 147 173 154 173 2 174 150 174 3 174 156 175 5 175 3 175 148 176 25 176 158 176 150 177 156 177 3 177 159 178 153 178 160 178 161 179 152 179 20 179 162 180 159 180 160 180 152 181 25 181 20 181 111 182 162 182 160 182 109 183 111 183 160 183 157 184 154 184 163 184 160 185 153 185 164 185 153 186 2 186 164 186 158 187 25 187 165 187 161 188 20 188 166 188 166 189 20 189 167 189 164 190 2 190 168 190 109 191 161 191 169 191 157 192 163 192 170 192 161 193 166 193 169 193 170 194 163 194 171 194 168 195 2 195 22 195 167 196 20 196 172 196 165 197 25 197 143 197 109 198 169 198 173 198 170 199 171 199 174 199 172 200 20 200 175 200 109 201 173 201 176 201 170 202 174 202 114 202 20 203 19 203 177 203 175 204 20 204 177 204 114 205 174 205 178 205 109 206 176 206 179 206 177 207 19 207 107 207 19 208 17 208 107 208 109 209 179 209 110 209 114 210 178 210 123 210 107 211 17 211 15 211 180 212 160 212 164 212 180 213 181 213 160 213 182 214 164 214 168 214 182 215 180 215 164 215 183 216 22 216 23 216 184 217 168 217 22 217 184 218 182 218 168 218 185 219 184 219 22 219 186 220 22 220 183 220 186 221 185 221 22 221 187 222 183 222 188 222 187 223 186 223 183 223 189 224 187 224 188 224 190 225 188 225 191 225 190 226 189 226 188 226 192 227 190 227 191 227 193 228 191 228 194 228 193 229 192 229 191 229 195 230 193 230 194 230 196 231 194 231 197 231 196 232 195 232 194 232 198 233 196 233 197 233 199 234 197 234 200 234 199 235 198 235 197 235 201 236 200 236 202 236 201 237 199 237 200 237 203 238 201 238 202 238 204 239 203 239 202 239 204 240 202 240 205 240 206 241 204 241 205 241 206 242 205 242 207 242 208 243 206 243 207 243 209 244 208 244 207 244 209 245 207 245 210 245 211 246 208 246 209 246 212 247 211 247 209 247 212 248 209 248 213 248 214 249 212 249 213 249 214 250 213 250 215 250 216 251 214 251 215 251 217 252 216 252 215 252 218 253 216 253 217 253 24 254 25 254 130 254 67 255 130 255 121 255 67 256 24 256 130 256 57 257 121 257 117 257 57 258 67 258 121 258 52 259 57 259 117 259 53 260 117 260 116 260 53 261 116 261 125 261 53 262 52 262 117 262 62 263 53 263 125 263 70 264 125 264 138 264 70 265 62 265 125 265 79 266 138 266 147 266 79 267 70 267 138 267 84 268 147 268 157 268 84 269 157 269 170 269 84 270 79 270 147 270 91 271 84 271 170 271 59 272 170 272 114 272 59 273 91 273 170 273 210 274 219 274 220 274 219 275 210 275 221 275 222 276 210 276 223 276 210 277 220 277 223 277 221 278 210 278 224 278 225 279 222 279 226 279 227 280 225 280 226 280 222 281 223 281 226 281 227 282 226 282 228 282 224 283 210 283 229 283 227 284 228 284 230 284 227 285 230 285 231 285 227 286 231 286 232 286 227 287 232 287 233 287 234 288 235 288 23 288 235 289 236 289 23 289 236 290 237 290 23 290 237 291 238 291 23 291 238 292 239 292 23 292 239 293 229 293 23 293 240 294 234 294 26 294 234 295 23 295 26 295 241 296 240 296 104 296 240 297 26 297 104 297 241 298 104 298 100 298 242 299 243 299 100 299 243 300 244 300 100 300 244 301 245 301 100 301 245 302 241 302 100 302 246 303 247 303 248 303 247 304 249 304 248 304 250 305 251 305 252 305 251 306 250 306 253 306 250 307 227 307 253 307 227 308 233 308 253 308 249 309 250 309 254 309 250 310 252 310 254 310 233 311 255 311 256 311 253 312 233 312 256 312 249 313 254 313 257 313 255 314 258 314 259 314 258 315 260 315 259 315 256 316 255 316 259 316 248 317 249 317 261 317 249 318 257 318 261 318 260 319 262 319 263 319 259 320 260 320 263 320 248 321 261 321 264 321 262 322 265 322 266 322 265 323 267 323 266 323 263 324 262 324 266 324 268 325 248 325 269 325 248 326 264 326 269 326 267 327 242 327 270 327 266 328 267 328 270 328 268 329 269 329 271 329 270 330 242 330 272 330 242 331 100 331 272 331 268 332 271 332 273 332 272 333 100 333 274 333 268 334 273 334 275 334 274 335 100 335 33 335 276 336 277 336 33 336 277 337 278 337 33 337 278 338 274 338 33 338 276 339 33 339 30 339 276 340 30 340 29 340 279 341 276 341 29 341 268 342 275 342 280 342 281 343 279 343 87 343 279 344 29 344 87 344 280 345 275 345 282 345 275 346 283 346 282 346 280 347 282 347 284 347 282 348 283 348 285 348 280 349 284 349 286 349 283 350 287 350 288 350 285 351 283 351 288 351 280 352 286 352 289 352 290 353 281 353 36 353 281 354 87 354 36 354 287 355 291 355 292 355 288 356 287 356 292 356 280 357 289 357 293 357 294 358 280 358 293 358 292 359 291 359 295 359 291 360 296 360 295 360 294 361 293 361 297 361 298 362 294 362 297 362 295 363 296 363 299 363 296 364 300 364 299 364 301 365 302 365 37 365 302 366 303 366 37 366 303 367 290 367 37 367 290 368 36 368 37 368 304 369 298 369 305 369 298 370 297 370 305 370 299 371 300 371 306 371 304 372 305 372 307 372 306 373 300 373 308 373 300 374 309 374 308 374 304 375 307 375 310 375 308 376 309 376 311 376 304 377 310 377 312 377 304 378 312 378 313 378 304 379 313 379 314 379 304 380 314 381 315 382 311 383 309 383 75 383 316 384 317 384 75 384 317 385 318 385 75 385 318 386 319 386 75 386 319 387 320 387 75 387 320 388 311 388 75 388 309 389 301 389 75 389 301 390 37 390 75 390 316 391 75 391 64 391 321 392 316 392 58 392 316 393 64 393 58 393 322 394 323 394 60 394 323 395 324 395 60 395 324 396 325 396 60 396 325 397 326 397 60 397 326 398 321 398 60 398 321 399 58 399 60 399 315 400 322 401 304 402 60 403 114 403 113 403 60 403 59 403 114 403 96 404 153 404 159 404 101 405 96 405 159 405 63 406 101 406 159 406 63 407 159 407 162 407 56 408 63 408 162 408 39 409 38 409 173 409 106 410 39 410 173 410 56 411 162 411 111 411 38 412 176 412 173 412 56 413 111 413 110 413 102 414 106 414 169 414 47 415 56 415 110 415 106 416 173 416 169 416 47 417 110 417 179 417 42 418 47 418 179 418 102 419 169 419 166 419 38 420 42 420 176 420 42 421 179 421 176 421 105 422 102 422 167 422 32 423 105 423 167 423 102 424 166 424 167 424 32 425 167 425 172 425 31 426 32 426 175 426 32 427 172 427 175 427 41 428 31 428 177 428 43 429 41 429 177 429 31 430 175 430 177 430 43 431 177 431 107 431 55 432 43 432 108 432 43 433 107 433 108 433 68 434 55 434 112 434 55 435 108 435 112 435 82 436 68 436 119 436 68 437 112 437 119 437 82 438 119 438 142 438 89 439 82 439 142 439 89 440 142 440 146 440 90 441 89 441 146 441 97 442 90 442 146 442 97 443 146 443 155 443 97 444 155 444 156 444 98 445 97 445 156 445 98 446 156 446 150 446 93 447 98 447 150 447 94 448 93 448 150 448 94 449 150 449 149 449 94 450 149 450 151 450 95 451 94 451 151 451 96 452 95 452 151 452 96 453 151 453 153 453 85 454 28 454 327 454 85 455 327 455 328 455 28 456 27 456 329 456 28 457 329 457 327 457 40 458 330 458 329 458 27 403 40 403 329 403 40 459 85 459 328 459 40 459 328 459 330 459 66 460 123 460 178 460 103 461 66 461 178 461 99 462 103 462 178 462 99 463 178 463 174 463 92 464 99 464 174 464 69 465 78 465 136 465 61 466 69 466 136 466 92 467 174 467 171 467 78 468 144 468 136 468 92 469 171 469 163 469 51 414 61 414 124 414 88 470 92 470 163 470 61 471 136 471 124 471 88 472 163 472 154 472 83 473 88 473 154 473 51 474 124 474 118 474 78 475 83 475 144 475 83 476 154 476 144 476 54 477 51 477 122 477 65 478 54 478 122 478 51 479 118 479 122 479 65 480 122 480 131 480 74 481 65 481 140 481 65 482 131 482 140 482 81 483 74 483 148 483 86 484 81 484 148 484 74 485 140 485 148 485 86 486 148 486 158 486 45 487 86 487 165 487 86 488 158 488 165 488 46 489 45 489 143 489 45 490 165 490 143 490 48 491 46 491 135 491 46 492 143 492 135 492 48 493 135 493 134 493 49 494 48 494 134 494 49 495 134 495 137 495 50 403 49 403 137 403 71 496 50 496 137 496 71 497 137 497 139 497 71 498 139 498 128 498 72 499 71 499 128 499 72 500 128 500 127 500 73 501 72 501 127 501 76 502 73 502 127 502 76 503 127 503 129 503 76 504 129 504 132 504 77 505 76 505 132 505 66 506 77 506 132 506 66 507 132 507 123 507 80 508 331 508 332 508 34 509 80 509 332 509 80 459 44 459 333 459 80 459 333 459 331 459 44 510 35 510 334 510 44 511 334 511 333 511 35 512 34 512 332 512 35 513 332 513 334 513 160 514 335 514 109 514 181 515 335 515 160 515 336 516 133 516 141 516 337 517 141 517 145 517 337 518 336 518 141 518 338 519 145 519 152 519 338 520 337 520 145 520 339 521 338 521 152 521 340 522 152 522 161 522 340 523 339 523 152 523 341 524 161 524 109 524 341 525 340 525 161 525 335 526 341 526 109 526 336 527 126 527 133 527 336 528 342 528 126 528 343 529 120 529 126 529 343 530 344 530 120 530 342 531 343 531 126 531 345 532 346 532 347 532 345 533 348 533 346 533 349 534 347 534 350 534 349 535 345 535 347 535 351 536 350 536 352 536 351 537 349 537 350 537 353 538 352 538 304 538 354 539 351 539 352 539 355 540 352 540 353 540 355 541 354 541 352 541 356 542 353 542 357 542 356 543 355 543 353 543 358 544 356 544 357 544 359 545 357 545 360 545 359 546 358 546 357 546 361 547 359 547 360 547 362 548 360 548 363 548 362 549 361 549 360 549 364 550 362 550 363 550 365 551 363 551 366 551 365 552 364 552 363 552 367 553 365 553 366 553 368 554 366 554 369 554 368 555 367 555 366 555 370 556 368 556 369 556 371 557 369 557 372 557 371 558 370 558 369 558 373 559 371 559 372 559 373 560 372 560 374 560 375 561 373 561 374 561 375 562 374 562 376 562 113 563 376 563 60 563 377 564 375 564 376 564 377 565 376 565 113 565 378 566 377 566 113 566 379 567 378 567 113 567 379 568 113 568 115 568 344 569 379 569 115 569 344 570 115 570 120 570 206 571 380 571 381 571 206 571 381 571 204 571 204 571 381 571 203 571 381 571 382 571 203 571 203 571 382 571 201 571 382 571 383 571 199 571 201 571 382 571 199 571 199 571 383 571 198 571 355 571 356 571 384 571 356 571 358 571 384 571 383 571 385 571 196 571 198 571 383 571 196 571 386 571 387 571 181 571 388 571 386 571 181 571 389 571 388 571 181 571 387 571 335 571 181 571 390 571 389 571 181 571 391 571 390 571 181 571 392 571 391 571 181 571 393 571 392 571 181 571 351 571 354 571 394 571 354 571 355 571 394 571 355 571 384 571 394 571 358 571 359 571 395 571 359 571 361 571 395 571 196 571 385 571 195 571 384 571 358 571 395 571 393 571 181 571 180 571 345 571 349 571 396 571 349 571 351 571 396 571 351 571 394 571 396 571 361 571 362 571 397 571 385 571 398 571 193 571 362 571 364 571 397 571 195 571 385 571 193 571 399 571 393 571 182 571 395 571 361 571 397 571 393 571 180 571 182 571 348 571 345 571 400 571 193 571 398 571 192 571 345 571 396 571 400 571 399 571 182 571 184 571 364 571 365 571 401 571 365 571 367 571 401 571 397 571 364 571 401 571 398 571 402 571 190 571 192 571 398 571 190 571 348 571 400 571 403 571 404 571 399 571 185 571 399 571 184 571 185 571 190 571 402 571 189 571 404 571 185 571 186 571 367 571 368 571 405 571 368 571 370 571 405 571 402 571 404 571 187 571 401 571 367 571 405 571 189 571 402 571 187 571 404 571 186 571 187 571 348 571 403 571 406 571 405 571 370 571 407 571 370 571 371 571 407 571 371 571 373 571 407 571 348 571 406 571 408 571 407 571 373 571 409 571 409 571 373 571 375 571 409 571 375 571 377 571 410 571 409 571 377 571 410 571 377 571 378 571 410 571 378 571 379 571 411 571 410 571 379 571 411 571 379 571 344 571 411 571 344 571 343 571 412 571 411 571 343 571 412 571 343 571 342 571 413 571 412 571 342 571 414 571 413 571 342 571 415 571 414 571 342 571 416 571 348 571 417 571 416 571 417 571 418 571 417 571 348 571 419 571 416 571 418 571 420 571 348 571 408 571 421 571 419 571 348 571 421 571 408 571 422 571 421 571 416 571 420 571 423 571 422 571 424 571 425 571 421 571 422 571 425 571 416 571 423 571 426 571 425 571 424 571 427 571 428 571 416 571 429 571 416 571 426 571 429 571 424 571 430 571 431 571 427 571 424 571 431 571 428 571 429 571 432 571 433 571 428 571 432 571 431 571 430 571 434 571 430 571 435 571 434 571 433 571 432 571 436 571 437 571 438 571 436 571 438 571 433 571 436 571 434 571 435 571 439 571 435 571 440 571 439 571 437 571 436 571 441 571 442 571 437 571 441 571 439 571 440 571 443 571 442 571 441 571 444 571 445 571 442 571 444 571 443 571 440 571 446 571 440 571 447 571 446 571 445 571 444 571 448 571 446 571 447 571 449 571 447 571 415 571 449 571 415 571 342 571 449 571 445 571 448 571 450 571 449 571 342 571 451 571 445 571 450 571 452 571 451 571 342 571 453 571 445 571 452 571 454 571 445 571 454 571 455 571 453 571 342 571 336 571 456 571 453 571 336 571 457 571 456 571 336 571 458 571 457 571 336 571 459 571 458 571 336 571 460 571 459 571 336 571 461 571 460 571 337 571 460 571 336 571 337 571 462 571 461 571 338 571 461 571 337 571 338 571 462 571 338 571 339 571 463 571 464 571 218 571 455 571 463 571 218 571 445 571 455 571 218 571 465 571 462 571 340 571 462 571 339 571 340 571 464 571 466 571 467 571 218 571 464 571 467 571 218 571 467 571 468 571 466 571 469 571 470 571 467 571 466 571 470 571 471 571 465 571 341 571 465 571 340 571 341 571 218 571 468 571 472 571 469 571 473 571 474 571 470 571 469 571 474 571 218 571 472 571 475 571 476 571 471 571 335 571 477 571 476 571 335 571 478 571 477 571 335 571 479 571 478 571 335 571 387 571 479 571 335 571 471 571 341 571 335 571 474 571 473 571 480 571 481 571 482 571 480 571 473 571 481 571 480 571 218 571 475 571 483 571 214 571 216 571 483 571 216 571 218 571 483 571 482 571 484 571 485 571 480 571 482 571 485 571 214 571 483 571 486 571 211 571 212 571 486 571 212 571 214 571 486 571 485 571 484 571 487 571 484 571 488 571 487 571 211 571 486 571 380 571 208 571 211 571 380 571 488 571 388 571 389 571 487 571 488 571 389 571 208 571 380 571 206 571 489 572 218 572 217 572 445 573 218 573 489 573 490 574 491 574 492 574 491 575 489 575 492 575 493 576 494 576 495 576 489 577 496 577 492 577 494 578 497 578 495 578 498 579 499 579 500 579 498 580 500 580 501 580 490 581 492 581 502 581 501 582 500 582 503 582 352 583 350 583 504 583 350 584 347 584 504 584 347 585 346 585 504 585 495 586 497 586 505 586 506 587 507 587 505 587 508 588 506 588 505 588 509 589 508 589 505 589 497 590 509 590 505 590 503 591 500 591 510 591 511 592 346 592 512 592 503 593 510 593 513 593 514 594 511 594 512 594 515 595 514 595 512 595 516 596 515 596 512 596 517 597 516 597 512 597 518 598 519 598 520 598 507 599 517 599 521 599 519 600 504 600 522 600 517 601 512 601 521 601 505 602 507 602 523 602 520 603 519 603 522 603 518 604 520 604 524 604 507 605 521 605 523 605 525 606 518 606 524 606 513 607 510 607 526 607 527 608 513 608 526 608 522 609 504 609 528 609 525 610 524 610 529 610 530 611 525 611 529 611 528 612 504 612 531 612 530 613 529 613 532 613 533 614 530 614 532 614 531 615 504 615 534 615 489 616 217 616 535 616 527 617 526 617 536 617 504 618 346 618 534 618 537 619 527 619 536 619 533 620 532 620 538 620 490 621 502 621 539 621 523 622 490 622 539 622 533 623 538 623 540 623 535 624 217 624 541 624 534 625 346 625 542 625 543 626 544 626 539 626 505 627 523 627 539 627 545 628 543 628 539 628 546 629 545 629 539 629 489 630 535 630 547 630 502 631 546 631 539 631 537 632 536 632 548 632 540 633 538 633 549 633 550 634 537 634 548 634 541 635 217 635 551 635 539 636 544 636 552 636 542 637 346 637 553 637 544 638 554 638 552 638 489 639 547 639 555 639 540 640 549 640 556 640 557 641 550 641 558 641 550 642 548 642 558 642 556 643 549 643 559 643 551 644 217 644 560 644 554 645 561 645 562 645 552 646 554 646 562 646 553 647 346 647 511 647 561 648 557 648 563 648 557 649 558 649 563 649 556 650 559 650 564 650 562 651 561 651 563 651 489 652 555 652 565 652 217 653 215 653 499 653 556 654 564 654 493 654 215 655 213 655 499 655 213 656 209 656 499 656 560 657 217 657 499 657 560 658 499 658 566 658 493 659 564 659 494 659 489 660 565 660 496 660 566 661 499 661 498 661 499 662 209 662 567 662 209 663 210 663 567 663 194 664 191 664 229 664 197 665 194 665 229 665 200 666 197 666 229 666 202 667 200 667 229 667 205 668 202 668 229 668 207 669 205 669 229 669 210 670 207 670 229 670 229 671 191 671 188 671 229 672 188 672 183 672 229 673 183 673 23 673 353 674 304 674 322 674 357 675 353 675 322 675 357 676 322 676 360 676 360 677 322 677 363 677 363 678 322 678 366 678 366 679 322 679 369 679 369 680 322 680 372 680 322 681 60 681 376 681 322 682 376 682 374 682 372 683 322 683 374 683 568 684 569 684 570 684 568 685 570 685 571 685 572 686 573 686 574 686 567 687 227 687 575 687 572 688 576 688 573 688 567 689 210 689 222 689 567 690 222 690 225 690 567 691 225 691 227 691 567 692 575 692 577 692 578 693 567 693 577 693 579 694 568 694 571 694 580 695 567 695 578 695 581 696 280 696 294 696 582 697 579 697 571 697 581 698 294 698 298 698 581 699 298 699 304 699 583 700 567 700 580 700 584 701 583 701 580 701 585 702 280 702 586 702 585 703 586 703 587 703 588 704 582 704 571 704 585 705 587 705 589 705 585 706 589 706 590 706 585 707 590 707 591 707 592 708 593 708 594 708 595 709 583 709 584 709 585 710 596 710 280 710 597 711 593 711 592 711 597 712 581 712 593 712 598 713 588 713 571 713 599 714 600 714 601 714 599 715 601 715 602 715 599 716 602 716 576 716 599 717 576 717 572 717 603 718 594 718 604 718 603 719 592 719 594 719 605 720 583 720 595 720 268 721 280 721 596 721 606 722 585 722 591 722 607 723 605 723 595 723 606 724 591 724 608 724 606 725 608 725 609 725 606 726 609 726 610 726 606 727 610 727 600 727 606 728 600 728 599 728 611 729 581 729 597 729 612 730 604 730 613 730 612 731 603 731 604 731 614 732 581 732 611 732 615 733 605 733 607 733 616 734 612 734 613 734 615 735 607 735 617 735 616 736 613 736 618 736 619 737 247 737 246 737 619 738 606 738 599 738 620 739 280 739 581 739 620 740 581 741 614 742 621 743 616 743 618 743 622 744 247 744 619 744 623 745 621 745 618 745 227 746 250 746 624 746 586 747 280 747 620 747 625 748 621 748 623 748 626 749 615 749 617 749 626 750 617 750 627 750 628 751 625 751 623 751 629 752 571 752 622 752 570 753 227 753 624 753 629 754 598 754 571 754 630 755 625 755 628 755 629 756 631 756 632 756 629 757 632 757 633 757 629 758 633 758 598 758 634 759 626 759 627 759 635 760 630 760 628 760 634 761 627 761 636 761 637 762 631 762 629 762 638 763 227 763 570 763 638 764 570 764 639 764 574 765 635 765 628 765 637 766 640 766 631 766 641 767 639 767 570 767 642 768 634 768 636 768 575 769 227 769 638 769 642 770 636 770 643 770 573 771 635 771 574 771 644 772 640 772 637 772 569 773 641 773 570 773 644 774 645 774 640 774 646 775 642 775 643 775 646 776 645 776 644 776 646 777 643 777 645 777 599 778 629 778 622 778 599 779 622 779 619 779 647 780 248 780 268 780 648 781 647 781 268 781 648 782 268 782 596 782 246 403 248 403 647 403 649 783 246 783 647 783 619 784 246 784 649 784 247 785 622 785 650 785 247 786 650 786 651 786 249 20 247 20 651 20 652 782 624 782 250 782 652 781 250 781 651 781 651 780 250 780 249 780 284 787 408 787 406 787 286 788 284 788 406 788 323 789 322 789 405 789 324 790 323 790 405 790 322 791 401 791 405 791 325 792 324 792 407 792 324 793 405 793 407 793 286 794 406 794 403 794 289 795 286 795 403 795 293 796 289 796 403 796 326 797 325 797 409 797 325 798 407 798 409 798 321 799 326 799 410 799 297 800 293 800 400 800 293 801 403 801 400 801 326 802 409 802 410 802 316 803 321 803 411 803 321 804 410 804 411 804 305 805 297 805 396 805 297 806 400 806 396 806 317 807 316 807 412 807 316 808 411 808 412 808 318 809 317 809 413 809 317 810 412 810 413 810 307 811 305 811 394 811 310 812 307 812 394 812 305 813 396 813 394 813 319 814 318 814 414 814 320 815 319 815 414 815 318 816 413 816 414 816 320 817 414 817 415 817 311 818 320 818 415 818 312 819 310 819 384 819 310 820 394 820 384 820 311 821 415 821 447 821 308 822 311 822 447 822 308 823 447 823 440 823 313 824 312 824 395 824 306 825 308 825 440 825 299 826 306 826 440 826 312 827 384 827 395 827 299 828 440 828 435 828 295 829 299 829 435 829 314 830 313 830 397 830 315 831 314 831 397 831 313 832 395 832 397 832 295 833 435 833 430 833 322 834 315 834 401 834 292 835 295 835 430 835 315 836 397 836 401 836 292 837 430 837 424 837 288 838 292 838 424 838 285 839 288 839 424 839 285 840 424 840 422 840 282 841 285 841 422 841 282 842 422 842 408 842 284 843 282 843 408 843 263 844 482 844 481 844 259 845 263 845 473 845 263 846 481 846 473 846 271 847 420 847 418 847 273 848 271 848 418 848 300 849 296 849 439 849 259 850 473 850 469 850 296 851 434 851 439 851 273 852 418 852 417 852 275 853 273 853 417 853 256 854 259 854 466 854 300 855 439 855 443 855 259 856 469 856 466 856 253 857 256 857 464 857 256 858 466 858 464 858 275 859 417 859 419 859 300 860 443 860 446 860 309 861 300 861 446 861 309 862 446 862 449 862 253 863 464 863 463 863 251 864 253 864 455 864 275 865 419 865 421 865 309 866 449 866 451 866 253 867 463 867 455 867 301 868 309 868 451 868 283 869 275 869 421 869 301 870 451 870 453 870 252 871 251 871 454 871 302 872 301 872 453 872 251 873 455 873 454 873 283 874 421 874 425 874 302 875 453 875 456 875 287 876 283 876 425 876 302 877 456 877 457 877 303 878 302 878 457 878 252 879 454 879 452 879 287 880 425 880 427 880 252 881 452 881 450 881 254 882 252 882 450 882 287 883 427 883 431 883 303 884 457 884 458 884 290 885 303 885 458 885 291 886 287 886 431 886 290 887 458 887 459 887 291 888 431 888 434 888 296 889 291 889 434 889 254 890 450 890 448 890 290 891 459 891 460 891 254 892 448 892 444 892 281 893 290 893 460 893 257 894 254 894 444 894 281 895 460 895 461 895 281 896 461 896 462 896 279 897 281 897 462 897 257 898 444 898 441 898 261 899 257 899 441 899 279 900 462 900 465 900 276 901 279 901 465 901 276 902 465 902 471 902 276 903 471 903 476 903 277 904 276 904 476 904 261 905 441 905 436 905 277 906 476 906 477 906 278 907 277 907 477 907 264 908 261 908 432 908 261 909 436 909 432 909 278 910 477 910 478 910 278 911 478 911 479 911 274 912 278 912 479 912 264 913 432 913 429 913 269 914 264 914 429 914 274 915 479 915 387 915 274 916 387 916 386 916 272 917 274 917 386 917 272 918 386 918 388 918 270 919 272 919 388 919 269 920 429 920 426 920 270 921 388 921 488 921 269 922 426 922 423 922 271 923 269 923 423 923 270 924 488 924 484 924 266 925 270 925 484 925 263 926 266 926 482 926 271 927 423 927 420 927 266 928 484 928 482 928 223 929 220 929 486 929 220 930 380 930 486 930 265 931 262 931 485 931 267 932 265 932 485 932 226 933 223 933 483 933 262 934 480 934 485 934 223 935 486 935 483 935 242 936 267 936 487 936 267 937 485 937 487 937 228 938 226 938 475 938 230 939 228 939 475 939 243 940 242 940 389 940 226 941 483 941 475 941 242 942 487 942 389 942 244 943 243 943 390 943 243 944 389 944 390 944 231 945 230 945 472 945 230 946 475 946 472 946 245 947 244 947 391 947 244 948 390 948 391 948 241 949 245 949 392 949 245 950 391 950 392 950 232 951 231 951 468 951 231 952 472 952 468 952 240 953 241 953 393 953 241 954 392 954 393 954 234 955 240 955 399 955 233 956 232 956 467 956 235 957 234 957 399 957 255 958 233 958 467 958 240 959 393 959 399 959 232 960 468 960 467 960 236 961 235 961 404 961 258 962 255 962 470 962 235 963 399 963 404 963 255 964 467 964 470 964 236 965 404 965 402 965 237 966 236 966 402 966 260 967 258 967 474 967 258 968 470 968 474 968 262 969 260 969 480 969 260 970 474 970 480 970 237 971 402 971 398 971 238 972 237 972 398 972 239 973 238 973 398 973 239 974 398 974 385 974 229 975 239 975 385 975 229 976 385 976 383 976 224 977 229 977 383 977 224 978 383 978 382 978 221 979 224 979 382 979 221 980 382 980 381 980 219 981 221 981 381 981 219 982 381 982 380 982 220 983 219 983 380 983 329 984 328 984 327 984 329 985 330 985 328 985 332 984 333 984 334 984 332 985 331 985 333 985 581 986 352 986 504 986 581 403 304 403 352 403 348 987 512 987 346 987 348 988 416 988 512 988 445 989 489 989 491 989 442 990 491 990 490 990 442 991 445 991 491 991 437 992 490 992 523 992 437 993 442 993 490 993 438 994 437 994 523 994 433 995 523 995 521 995 433 996 438 996 523 996 428 997 521 997 512 997 428 998 433 998 521 998 416 999 428 999 512 999 637 1000 629 1000 539 1000 637 1001 539 1001 552 1001 644 1002 552 1002 562 1002 644 1003 637 1003 552 1003 646 1004 562 1004 563 1004 646 1005 644 1005 562 1005 642 1006 563 1006 558 1006 642 1007 646 1007 563 1007 634 1008 558 1008 548 1008 634 1009 642 1009 558 1009 626 1010 548 1010 536 1010 626 1011 634 1011 548 1011 615 1012 536 1012 526 1012 615 1013 626 1013 536 1013 605 1014 526 1014 510 1014 605 1015 615 1015 526 1015 583 1016 510 1016 500 1016 583 1017 605 1017 510 1017 567 1018 500 1018 499 1018 567 1019 583 1019 500 1019 539 1020 629 1020 599 1020 505 1021 539 1021 599 1021 593 1022 581 1022 504 1022 593 1023 504 1023 519 1023 593 1024 519 1024 518 1024 594 1025 593 1025 518 1025 604 1026 518 1026 525 1026 604 1027 525 1027 530 1027 604 1028 594 1028 518 1028 613 1029 604 1029 530 1029 618 1030 530 1030 533 1030 618 1031 613 1031 530 1031 623 1032 533 1032 540 1032 623 1033 618 1033 533 1033 628 1034 540 1034 556 1034 628 1035 623 1035 540 1035 574 1036 556 1036 493 1036 574 1037 493 1037 495 1037 574 1038 628 1038 556 1038 572 1039 574 1039 495 1039 599 1040 495 1040 505 1040 599 1041 572 1041 495 1041 632 1042 543 1042 545 1042 633 1043 632 1043 545 1043 598 1044 633 1044 545 1044 598 1045 545 1045 546 1045 598 1046 546 1046 502 1046 569 1047 568 1047 555 1047 588 1048 598 1048 502 1048 582 1049 588 1049 502 1049 568 1050 565 1050 555 1050 582 1051 502 1051 492 1051 641 1052 569 1052 547 1052 569 1053 555 1053 547 1053 582 1054 492 1054 496 1054 579 1055 582 1055 496 1055 568 1056 579 1056 496 1056 639 1057 641 1057 535 1057 638 1058 639 1058 535 1058 641 1059 547 1059 535 1059 568 1060 496 1060 565 1060 575 1061 638 1061 541 1061 638 1062 535 1062 541 1062 575 1063 541 1063 551 1063 577 1064 575 1064 560 1064 578 1065 577 1065 560 1065 575 1066 551 1066 560 1066 578 1067 560 1067 566 1067 580 1068 578 1068 498 1068 584 1069 580 1069 498 1069 578 1070 566 1070 498 1070 584 1071 498 1071 501 1071 595 1072 584 1072 503 1072 607 1073 595 1073 503 1073 584 1074 501 1074 503 1074 617 1075 607 1075 513 1075 607 1076 503 1076 513 1076 617 1077 513 1077 527 1077 627 403 617 403 527 403 627 1078 527 1078 537 1078 627 1079 537 1079 550 1079 636 1080 627 1080 550 1080 643 1081 636 1081 550 1081 643 1082 550 1082 557 1082 645 1083 643 1083 557 1083 645 1084 557 1084 561 1084 645 1085 561 1085 554 1085 640 1086 645 1086 554 1086 631 1087 640 1087 554 1087 631 1088 554 1088 544 1088 631 1089 544 1089 543 1089 632 1090 631 1090 543 1090 576 1091 497 1091 494 1091 573 1092 576 1092 494 1092 573 1093 494 1093 564 1093 635 1094 573 1094 564 1094 630 1095 635 1095 564 1095 612 1096 616 1096 529 1096 630 1097 564 1097 559 1097 616 1098 532 1098 529 1098 630 1099 559 1099 549 1099 603 1100 612 1100 524 1100 625 1101 630 1101 549 1101 612 1102 529 1102 524 1102 625 1103 549 1103 538 1103 621 1104 625 1104 538 1104 592 1105 603 1105 520 1105 597 1058 592 1058 520 1058 603 1106 524 1106 520 1106 616 1107 621 1107 532 1107 621 1108 538 1108 532 1108 597 1109 520 1109 522 1109 611 1110 597 1110 528 1110 597 1111 522 1111 528 1111 614 1112 611 1112 531 1112 620 1113 614 1113 531 1113 611 1114 528 1114 531 1114 620 1115 531 1115 534 1115 586 1116 620 1116 542 1116 620 1117 534 1117 542 1117 587 1118 586 1118 553 1118 589 1119 587 1119 553 1119 586 1120 542 1120 553 1120 589 1121 553 1121 511 1121 590 1122 589 1122 514 1122 591 1123 590 1123 514 1123 589 1124 511 1124 514 1124 591 1125 514 1125 515 1125 608 1126 591 1126 515 1126 608 1127 515 1127 516 1127 608 1128 516 1128 517 1128 609 1129 608 1129 517 1129 610 1130 609 1130 517 1130 610 1131 517 1131 507 1131 600 1132 610 1132 507 1132 600 1133 507 1133 506 1133 600 1134 506 1134 508 1134 601 1135 600 1135 508 1135 601 1136 508 1136 509 1136 602 1137 601 1137 509 1137 576 1138 602 1138 509 1138 576 1139 509 1139 497 1139 648 1140 596 1140 585 1140 653 1141 648 1141 585 1141 653 1142 585 1142 606 1142 654 1143 653 1143 606 1143 606 1144 619 1144 649 1144 606 1145 649 1145 654 1145 622 1144 571 1144 655 1144 622 1145 655 1145 650 1145 571 403 570 403 656 403 571 1146 656 1146 655 1146 570 1147 624 1147 652 1147 570 1148 652 1148 656 1148 653 1149 654 1149 649 1149 653 1150 649 1150 648 1150 648 1151 649 1151 647 1151 650 1151 652 1151 651 1151 656 1152 652 1152 650 1152 655 1149 656 1149 650 1149</p>
        </triangles>
      </mesh>
    </geometry>
  </library_geometries>
  <library_visual_scenes>
    <visual_scene id="Scene" name="Scene">
      <node id="node" name="node" type="NODE">
        <matrix sid="transform">1 0 0 0 0 -1 1.50996e-7 0 0 -1.50996e-7 -1 0 0 0 0 1</matrix>
        <instance_geometry url="#shape0_006-mesh" name="node">
          <bind_material>
            <technique_common>
              <instance_material symbol="Black-material" target="#Black-material"/>
            </technique_common>
          </bind_material>
        </instance_geometry>
      </node>
    </visual_scene>
  </library_visual_scenes>
  <scene>
    <instance_visual_scene url="#Scene"/>
  </scene>
</COLLADA>