<?xml version="1.0" encoding="utf-8"?>
<COLLADA xmlns="http://www.collada.org/2005/11/COLLADASchema" version="1.4.1" xmlns:xsi="http://www.w3.org/2001/XMLSchema-instance">
  <asset>
    <contributor>
      <author>Blender User</author>
      <authoring_tool>Blender 4.2.1 LTS commit date:2024-08-19, commit time:11:21, hash:396f546c9d82</authoring_tool>
    </contributor>
    <created>2024-09-16T17:06:49</created>
    <modified>2024-09-16T17:06:49</modified>
    <unit name="meter" meter="1"/>
    <up_axis>Z_UP</up_axis>
  </asset>
  <library_effects>
    <effect id="BLUE_001-effect">
      <profile_COMMON>
        <technique sid="common">
          <lambert>
            <emission>
              <color sid="emission">0 0 0 1</color>
            </emission>
            <diffuse>
              <color sid="diffuse">0 0.003124297 0.8001261 1</color>
            </diffuse>
            <index_of_refraction>
              <float sid="ior">1.5</float>
            </index_of_refraction>
          </lambert>
        </technique>
      </profile_COMMON>
    </effect>
  </library_effects>
  <library_images/>
  <library_materials>
    <material id="BLUE_001-material" name="BLUE.001">
      <instance_effect url="#BLUE_001-effect"/>
    </material>
  </library_materials>
  <library_geometries>
    <geometry id="shape0_002-mesh" name="shape0.002">
      <mesh>
        <source id="shape0_002-mesh-positions">
          <float_array id="shape0_002-mesh-positions-array" count="1365">19.9454 -1.47705 10 19.9454 -1.47705 25 20 0 10 20 0 25 19.9454 1.47705 10 19.9454 1.47705 25 19.7818 2.94603 10 19.7818 2.94603 25 19.5102 4.39893 10 19.5102 4.39893 25 19.1321 5.8278 10 19.1321 5.8278 25 18.6494 7.22483 10 18.6494 7.22483 25 18.0649 8.58241 10 18.0649 8.58241 25 17.3818 9.89312 10 17.3818 9.89312 25 16.6037 11.1498 10 16.6037 11.1498 25 15.7349 12.3456 10 15.7349 12.3456 25 14.7802 13.4739 10 14.7802 13.4739 25 13.7447 14.5287 10 13.7447 14.5287 25 12.6342 15.5041 10 12.6342 15.5041 25 11.4547 16.3948 10 11.4547 16.3948 25 10.2126 17.196 10 10.2126 17.196 25 8.914771 17.9033 10 8.914771 17.9033 25 7.56822 18.5128 10 7.56822 18.5128 25 6.18034 19.0211 10 6.18034 19.0211 25 4.7587 19.4256 10 4.7587 19.4256 25 3.31108 19.724 10 3.31108 19.724 25 1.84537 19.9147 10 1.84537 19.9147 25 0.369578 19.9966 10 0.369578 19.9966 25 -1.10823 19.9693 10 -1.10823 19.9693 25 -2.57998 19.8329 10 -2.57998 19.8329 25 -4.03765 19.5882 10 -4.03765 19.5882 25 -5.47326 19.2365 10 -5.47326 19.2365 25 -6.87898 18.7798 10 -6.87898 18.7798 25 -8.24713 18.2205 10 -8.24713 18.2205 25 -9.57023 17.5616 10 -9.57023 17.5616 25 -10.8411 16.8069 10 -10.8411 16.8069 25 -12.0527 15.9603 10 -12.0527 15.9603 25 -13.1985 15.0266 10 -13.1985 15.0266 25 -14.2722 14.0109 10 -14.2722 14.0109 25 -15.268 12.9186 10 -15.268 12.9186 25 -16.1803 11.7557 10 -16.1803 11.7557 25 -17.0043 10.5286 10 -17.0043 10.5286 25 -17.7355 9.24408 10 -17.7355 9.24408 25 -18.3697 7.90902 10 -18.3697 7.90902 25 -18.9037 6.53077 10 -18.9037 6.53077 25 -19.3344 5.11686 10 -19.3344 5.11686 25 -19.6595 3.67499 10 -19.6595 3.67499 25 -19.8772 2.21305 10 -19.8772 2.21305 25 -19.9863 0.73903 10 -19.9863 0.73903 25 -19.9863 -0.73903 10 -19.9863 -0.73903 25 -19.8772 -2.21305 10 -19.8772 -2.21305 25 -19.6595 -3.67499 10 -19.6595 -3.67499 25 -19.3344 -5.11686 10 -19.3344 -5.11686 25 -18.9037 -6.53077 10 -18.9037 -6.53077 25 -18.3697 -7.90902 10 -18.3697 -7.90902 25 -17.7355 -9.24408 10 -17.7355 -9.24408 25 -17.0043 -10.5286 10 -17.0043 -10.5286 25 -16.1803 -11.7557 10 -16.1803 -11.7557 25 -15.268 -12.9186 10 -15.268 -12.9186 25 -14.2722 -14.0109 10 -14.2722 -14.0109 25 -13.1985 -15.0266 10 -13.1985 -15.0266 25 -12.0527 -15.9603 10 -12.0527 -15.9603 25 -10.8411 -16.8069 10 -10.8411 -16.8069 25 -9.57023 -17.5616 10 -9.57023 -17.5616 25 -8.24713 -18.2205 10 -8.24713 -18.2205 25 -6.87898 -18.7798 10 -6.87898 -18.7798 25 -5.47326 -19.2365 10 -5.47326 -19.2365 25 -4.03765 -19.5882 10 -4.03765 -19.5882 25 -2.57998 -19.8329 10 -2.57998 -19.8329 25 -1.10823 -19.9693 10 -1.10823 -19.9693 25 0.369578 -19.9966 10 0.369578 -19.9966 25 1.84537 -19.9147 10 1.84537 -19.9147 25 3.31108 -19.724 10 3.31108 -19.724 25 4.7587 -19.4256 10 4.7587 -19.4256 25 6.18034 -19.0211 10 6.18034 -19.0211 25 7.56822 -18.5128 10 7.56822 -18.5128 25 8.914771 -17.9033 10 8.914771 -17.9033 25 10.2126 -17.196 10 10.2126 -17.196 25 11.4547 -16.3948 10 11.4547 -16.3948 25 12.6342 -15.5041 10 12.6342 -15.5041 25 13.7447 -14.5287 10 13.7447 -14.5287 25 14.7802 -13.4739 10 14.7802 -13.4739 25 15.7349 -12.3456 10 15.7349 -12.3456 25 16.6037 -11.1498 10 16.6037 -11.1498 25 17.3818 -9.89312 10 17.3818 -9.89312 25 18.0649 -8.58241 10 18.0649 -8.58241 25 18.6494 -7.22483 10 18.6494 -7.22483 25 19.1321 -5.8278 10 19.1321 -5.8278 25 19.5102 -4.39893 10 19.5102 -4.39893 25 19.7818 -2.94603 10 19.7818 -2.94603 25 -24.9453 1.65226 25 -24.9453 1.65226 1.90735e-6 -25 0 25 -25 0 1.90735e-6 -24.9453 -1.65226 25 -24.9453 -1.65226 1.90735e-6 -24.7816 -3.2973 25 -24.7816 -3.2973 1.90735e-6 -24.5095 -4.92793 25 -24.5095 -4.92793 1.90735e-6 -24.1302 -6.537 25 -24.1302 -6.537 1.90735e-6 -23.6454 -8.11749 25 -23.6454 -8.11749 1.90735e-6 -23.0572 -9.66248 25 -23.0572 -9.66248 1.90735e-6 -22.3682 -11.1652 25 -22.3682 -11.1652 1.90735e-6 -21.5814 -12.6191 25 -21.5814 -12.6191 1.90735e-6 -20.7002 -14.0179 25 -20.7002 -14.0179 1.90735e-6 -19.7285 -15.3553 25 -19.7285 -15.3553 1.90735e-6 -18.6705 -16.6256 25 -18.6705 -16.6256 1.90735e-6 -17.5309 -17.8232 25 -17.5309 -17.8232 1.90735e-6 -16.3146 -18.9429 25 -16.3146 -18.9429 1.90735e-6 -15.027 -19.9797 25 -15.027 -19.9797 1.90735e-6 -13.6737 -20.9292 25 -13.6737 -20.9292 1.90735e-6 -12.2606 -21.7871 25 -12.2606 -21.7871 1.90735e-6 -10.7939 -22.5498 25 -10.7939 -22.5498 1.90735e-6 -9.279931 -23.2139 25 -9.279931 -23.2139 1.90735e-6 -7.72542 -23.7764 25 -7.72542 -23.7764 1.90735e-6 -6.13714 -24.235 25 -6.13714 -24.235 1.90735e-6 -4.52201 -24.5876 25 -4.52201 -24.5876 1.90735e-6 -2.88712 -24.8327 25 -2.88712 -24.8327 1.90735e-6 -1.23959 -24.9692 25 -1.23959 -24.9692 1.90735e-6 0.413349 -24.9966 25 0.413349 -24.9966 1.90735e-6 2.06448 -24.9146 25 2.06448 -24.9146 1.90735e-6 3.70659 -24.7237 25 3.70659 -24.7237 1.90735e-6 5.33249 -24.4247 25 5.33249 -24.4247 1.90735e-6 6.93507 -24.0188 25 6.93507 -24.0188 1.90735e-6 8.50733 -23.508 25 8.50733 -23.508 1.90735e-6 10.0424 -22.8943 25 10.0424 -22.8943 1.90735e-6 11.5335 -22.1806 25 11.5335 -22.1806 1.90735e-6 12.9742 -21.3698 25 12.9742 -21.3698 1.90735e-6 14.3582 -20.4656 25 14.3582 -20.4656 1.90735e-6 15.6794 -19.4719 25 15.6794 -19.4719 1.90735e-6 16.932 -18.3931 25 16.932 -18.3931 1.90735e-6 18.1106 -17.2338 25 18.1106 -17.2338 1.90735e-6 19.21 -15.9992 25 19.21 -15.9992 1.90735e-6 20.2254 -14.6946 25 20.2254 -14.6946 1.90735e-6 21.1524 -13.3258 25 21.1524 -13.3258 1.90735e-6 21.9868 -11.8987 25 21.9868 -11.8987 1.90735e-6 22.7252 -10.4195 25 22.7252 -10.4195 1.90735e-6 23.3641 -8.89485 25 23.3641 -8.89485 1.90735e-6 23.9009 -7.33125 25 23.9009 -7.33125 1.90735e-6 24.3332 -5.7356 25 24.3332 -5.7356 1.90735e-6 24.659 -4.11486 25 24.659 -4.11486 1.90735e-6 24.8771 -2.47614 25 24.8771 -2.47614 1.90735e-6 24.9863 -0.826584 25 24.9863 -0.826584 1.90735e-6 24.9863 0.826584 25 24.9863 0.826584 1.90735e-6 24.8771 2.47614 25 24.8771 2.47614 1.90735e-6 24.659 4.11486 25 24.659 4.11486 1.90735e-6 24.3332 5.7356 25 24.3332 5.7356 1.90735e-6 23.9009 7.33125 25 23.9009 7.33125 1.90735e-6 23.3641 8.89485 25 23.3641 8.89485 1.90735e-6 22.7252 10.4195 25 22.7252 10.4195 1.90735e-6 21.9868 11.8987 25 21.9868 11.8987 1.90735e-6 21.1524 13.3258 25 21.1524 13.3258 1.90735e-6 20.2254 14.6946 25 20.2254 14.6946 1.90735e-6 19.21 15.9992 25 19.21 15.9992 1.90735e-6 18.1106 17.2338 25 18.1106 17.2338 1.90735e-6 16.932 18.3931 25 16.932 18.3931 1.90735e-6 15.6794 19.4719 25 15.6794 19.4719 1.90735e-6 14.3582 20.4656 25 14.3582 20.4656 1.90735e-6 12.9742 21.3698 25 12.9742 21.3698 1.90735e-6 11.5335 22.1806 25 11.5335 22.1806 1.90735e-6 10.0424 22.8943 25 10.0424 22.8943 1.90735e-6 8.50733 23.508 25 8.50733 23.508 1.90735e-6 6.93507 24.0188 25 6.93507 24.0188 1.90735e-6 5.33249 24.4247 25 5.33249 24.4247 1.90735e-6 3.70659 24.7237 25 3.70659 24.7237 1.90735e-6 2.06448 24.9146 25 2.06448 24.9146 1.90735e-6 0.413349 24.9966 25 0.413349 24.9966 1.90735e-6 -1.23959 24.9692 25 -1.23959 24.9692 1.90735e-6 -2.88712 24.8327 25 -2.88712 24.8327 1.90735e-6 -4.52201 24.5876 25 -4.52201 24.5876 1.90735e-6 -6.13714 24.235 25 -6.13714 24.235 1.90735e-6 -7.72542 23.7764 25 -7.72542 23.7764 1.90735e-6 -9.279931 23.2139 25 -9.279931 23.2139 1.90735e-6 -10.7939 22.5498 25 -10.7939 22.5498 1.90735e-6 -12.2606 21.7871 25 -12.2606 21.7871 1.90735e-6 -13.6737 20.9292 25 -13.6737 20.9292 1.90735e-6 -15.027 19.9797 25 -15.027 19.9797 1.90735e-6 -16.3146 18.9429 25 -16.3146 18.9429 1.90735e-6 -17.5309 17.8232 25 -17.5309 17.8232 1.90735e-6 -18.6705 16.6256 25 -18.6705 16.6256 1.90735e-6 -19.7285 15.3553 25 -19.7285 15.3553 1.90735e-6 -20.7002 14.0179 25 -20.7002 14.0179 1.90735e-6 -21.5814 12.6191 25 -21.5814 12.6191 1.90735e-6 -22.3682 11.1652 25 -22.3682 11.1652 1.90735e-6 -23.0572 9.66248 25 -23.0572 9.66248 1.90735e-6 -23.6454 8.11749 25 -23.6454 8.11749 1.90735e-6 -24.1302 6.537 25 -24.1302 6.537 1.90735e-6 -24.5095 4.92793 25 -24.5095 4.92793 1.90735e-6 -24.7816 3.2973 25 -24.7816 3.2973 1.90735e-6 -24.9453 -1.65226 -25 -25 0 -25 -24.9453 1.65226 -25 -24.7816 3.2973 -25 -24.5095 4.92793 -25 -24.1302 6.537 -25 -23.6454 8.11749 -25 -23.0572 9.66248 -25 -22.3682 11.1652 -25 -21.5814 12.6191 -25 -20.7002 14.0179 -25 -19.7285 15.3553 -25 -18.6705 16.6256 -25 -17.5309 17.8232 -25 -16.3146 18.9429 -25 -15.027 19.9797 -25 -13.6737 20.9292 -25 -12.2606 21.7871 -25 -10.7939 22.5498 -25 -9.279931 23.2139 -25 -7.72542 23.7764 -25 -6.13714 24.235 -25 -4.52201 24.5876 -25 -2.88712 24.8327 -25 -1.23959 24.9692 -25 0.413349 24.9966 -25 2.06448 24.9146 -25 3.70659 24.7237 -25 5.33249 24.4247 -25 6.93507 24.0188 -25 8.50733 23.508 -25 10.0424 22.8943 -25 11.5335 22.1806 -25 12.9742 21.3698 -25 14.3582 20.4656 -25 15.6794 19.4719 -25 16.932 18.3931 -25 18.1106 17.2338 -25 19.21 15.9992 -25 20.2254 14.6946 -25 21.1524 13.3258 -25 21.9868 11.8987 -25 22.7252 10.4195 -25 23.3641 8.89485 -25 23.9009 7.33125 -25 24.3332 5.7356 -25 24.659 4.11486 -25 24.8771 2.47614 -25 24.9863 0.826584 -25 24.9863 -0.826584 -25 24.8771 -2.47614 -25 24.659 -4.11486 -25 24.3332 -5.7356 -25 23.9009 -7.33125 -25 23.3641 -8.89485 -25 22.7252 -10.4195 -25 21.9868 -11.8987 -25 21.1524 -13.3258 -25 20.2254 -14.6946 -25 19.21 -15.9992 -25 18.1106 -17.2338 -25 16.932 -18.3931 -25 15.6794 -19.4719 -25 14.3582 -20.4656 -25 12.9742 -21.3698 -25 11.5335 -22.1806 -25 10.0424 -22.8943 -25 8.50733 -23.508 -25 6.93507 -24.0188 -25 5.33249 -24.4247 -25 3.70659 -24.7237 -25 2.06448 -24.9146 -25 0.413349 -24.9966 -25 -1.23959 -24.9692 -25 -2.88712 -24.8327 -25 -4.52201 -24.5876 -25 -6.13714 -24.235 -25 -7.72542 -23.7764 -25 -9.279931 -23.2139 -25 -10.7939 -22.5498 -25 -12.2606 -21.7871 -25 -13.6737 -20.9292 -25 -15.027 -19.9797 -25 -16.3146 -18.9429 -25 -17.5309 -17.8232 -25 -18.6705 -16.6256 -25 -19.7285 -15.3553 -25 -20.7002 -14.0179 -25 -21.5814 -12.6191 -25 -22.3682 -11.1652 -25 -23.0572 -9.66248 -25 -23.6454 -8.11749 -25 -24.1302 -6.537 -25 -24.5095 -4.92793 -25 -24.7816 -3.2973 -25</float_array>
          <technique_common>
            <accessor source="#shape0_002-mesh-positions-array" count="455" stride="3">
              <param name="X" type="float"/>
              <param name="Y" type="float"/>
              <param name="Z" type="float"/>
            </accessor>
          </technique_common>
        </source>
        <source id="shape0_002-mesh-normals">
          <float_array id="shape0_002-mesh-normals-array" count="1425">-0.9993174 0.0369417 0 -0.9993175 0.03693896 0 -0.9993175 -0.03693896 0 -0.9993174 -0.0369417 0 -0.9938556 -0.1106845 0 -0.9938553 -0.1106873 0 -0.9829726 -0.1837522 0 -0.9829722 -0.1837549 0 -0.9667269 -0.2558106 0 -0.9451718 -0.3265736 0 -0.945171 -0.326576 0 -0.918488 -0.3954489 0 -0.9184871 -0.3954513 0 -0.8867933 -0.4621664 0 -0.8867921 -0.4621686 0 -0.8502172 -0.526432 0 -0.8502185 -0.52643 0 -0.8090181 -0.5877838 0 -0.8090168 -0.5877856 0 -0.7633908 -0.645937 0 -0.7633921 -0.6459354 0 -0.7136045 -0.7005488 0 -0.7136051 -0.7005482 0 -0.6599261 -0.7513306 0 -0.6599266 -0.7513301 0 -0.6026273 -0.7980228 0 -0.5420533 -0.8403441 0 -0.4785342 -0.8780689 0 -0.4785354 -0.8780683 0 -0.4123628 -0.9110198 0 -0.4123626 -0.9110199 0 -0.3439026 -0.9390054 0 -0.3439024 -0.9390054 0 -0.273669 -0.961824 0 -0.2736691 -0.9618239 0 -0.2018876 -0.9794087 0 -0.2018874 -0.9794088 0 -0.1290192 -0.9916421 0 -0.1290192 -0.9916421 0 -0.05541008 -0.9984637 0 -0.05541008 -0.9984637 0 0.01847004 -0.9998295 0 0.01847004 -0.9998295 0 0.09228342 -0.9957328 0 0.09228342 -0.9957328 0 0.1655538 -0.9862008 0 0.2379465 -0.9712783 0 0.2379465 -0.9712783 0 0.3089884 -0.9510659 0 0.3089886 -0.9510658 0 0.3784031 -0.9256409 0 0.4457778 -0.8951437 0 0.445779 -0.8951431 0 0.5105985 -0.8598192 0 0.5105991 -0.859819 0 0.5727726 -0.8197143 0 0.572772 -0.8197149 0 0.6317072 -0.7752072 0 0.6317078 -0.7752066 0 0.6872135 -0.7264555 0 0.6872136 -0.7264555 0 0.738996 -0.6737098 0 0.7389961 -0.6737097 0 0.786781 -0.6172322 0 0.7867804 -0.617233 0 0.8301927 -0.5574765 0 0.8301941 -0.5574747 0 0.8690611 -0.494705 0 0.8690611 -0.4947049 0 0.9032652 -0.4290826 0 0.9032653 -0.4290825 0 0.9324577 -0.3612791 0 0.9324578 -0.3612791 0 0.9566029 -0.2913946 0 0.9566023 -0.291397 0 0.975511 -0.2199507 0 0.975511 -0.2199506 0 0.9890942 -0.1472851 0 0.9890937 -0.1472877 0 0.9972723 -0.07381224 0 0.997272 -0.07381498 0 1 0 0 0.997272 0.07381492 0 0.9972722 0.07381224 0 0.9890937 0.1472877 0 0.9890942 0.1472851 0 0.975511 0.2199507 0 0.975511 0.2199506 0 0.9566022 0.2913971 0 0.956603 0.2913945 0 0.9324577 0.3612791 0 0.9324578 0.3612791 0 0.9032652 0.4290826 0 0.9032653 0.4290825 0 0.8690611 0.494705 0 0.8690611 0.4947049 0 0.8301941 0.5574747 0 0.8301927 0.5574765 0 0.7867804 0.617233 0 0.786781 0.6172322 0 0.738996 0.6737098 0 0.7389961 0.6737097 0 0.6872135 0.7264555 0 0.6872136 0.7264555 0 0.6317078 0.7752066 0 0.6317072 0.7752072 0 0.572772 0.8197149 0 0.5727726 0.8197143 0 0.5105991 0.8598189 0 0.5105985 0.8598194 0 0.445779 0.8951431 0 0.445778 0.8951436 0 0.3784031 0.9256409 0 0.3089886 0.9510658 0 0.3089884 0.9510659 0 0.2379465 0.9712783 0 0.2379465 0.9712783 0 0.1655538 0.9862008 0 0.09228342 0.9957328 0 0.09228342 0.9957328 0 0.01847004 0.9998295 0 0.01847004 0.9998295 0 -0.05541008 0.9984637 0 -0.05541008 0.9984637 0 -0.1290192 0.9916421 0 -0.1290192 0.9916421 0 -0.2018874 0.9794088 0 -0.2018876 0.9794087 0 -0.2736691 0.9618239 0 -0.273669 0.961824 0 -0.3439024 0.9390054 0 -0.3439026 0.9390054 0 -0.4123626 0.9110199 0 -0.4123628 0.9110198 0 -0.4785354 0.8780683 0 -0.4785343 0.8780689 0 -0.5420533 0.8403441 0 -0.6026273 0.7980228 0 -0.6599267 0.75133 0 -0.6599259 0.7513307 0 -0.7136052 0.7005481 0 -0.7136045 0.7005489 0 -0.7633921 0.6459354 0 -0.7633908 0.645937 0 -0.8090168 0.5877856 0 -0.8090181 0.5877838 0 -0.8502185 0.52643 0 -0.8502173 0.526432 0 -0.8867921 0.4621685 0 -0.8867932 0.4621665 0 -0.9184871 0.3954513 0 -0.918488 0.3954489 0 -0.945171 0.3265761 0 -0.9451718 0.3265735 0 -0.9667269 0.2558106 0 -0.9829721 0.1837549 0 -0.9829727 0.1837522 0 -0.9938553 0.1106873 0 -0.9938556 0.1106845 0 0 0 1 0 0 1 0 0 1 3.06047e-7 0 1 -8.34379e-7 0 1 -1.57522e-6 0 1 1.98214e-6 0 1 -2.60266e-6 0 1 4.58764e-6 0 1 -6.38664e-6 0 1 4.76626e-6 0 1 -7.92041e-6 0 1 1.57859e-5 0 1 0 0 1 0 0 1 0 0 1 0 0 1 0 0 1 2.47377e-7 0 1 -2.46685e-7 0 1 -0.9994526 0.03308635 0 -0.9994524 0.03308933 0 -0.9994524 -0.03308933 0 -0.9994526 -0.03308635 0 -0.9950852 -0.09902286 0 -0.9863618 -0.164592 0 -0.9733232 -0.2294388 0 -0.9733238 -0.229436 0 -0.9560337 -0.2932569 0 -0.9560346 -0.2932543 0 -0.934562 -0.3558002 0 -0.934562 -0.3558003 0 -0.9090071 -0.416781 0 -0.8794763 -0.4759429 0 -0.8794763 -0.4759428 0 -0.8461046 -0.533017 0 -0.8461033 -0.5330192 0 -0.8090103 -0.5877946 0 -0.8090118 -0.5877926 0 -0.7683945 -0.6399766 0 -0.7683938 -0.6399775 0 -0.7244326 -0.6893457 0 -0.7244304 -0.6893481 0 -0.6772873 -0.7357187 0 -0.6271714 -0.7788813 0 -0.6271707 -0.7788819 0 -0.5743498 -0.81861 0 -0.5743512 -0.818609 0 -0.5189546 -0.8548018 0 -0.5189552 -0.8548014 0 -0.4613596 -0.8872134 0 -0.4017018 -0.9157705 0 -0.4017018 -0.9157705 0 -0.3402593 -0.9403317 0 -0.2774082 -0.9607522 0 -0.2132861 -0.9769899 0 -0.2132862 -0.9769899 0 -0.1482615 -0.9889482 0 -0.1482614 -0.9889482 0 -0.08256918 -0.9965854 0 -0.08256918 -0.9965854 0 -0.01657366 -0.9998627 0 0.04960221 -0.9987691 0 0.04960221 -0.9987691 0 0.1154745 -0.9933105 0 0.1154745 -0.9933105 0 0.1808652 -0.9835079 0 0.1808651 -0.9835079 0 0.2455268 -0.9693899 0 0.2455267 -0.9693899 0 0.3089838 -0.9510673 0 0.3712211 -0.9285445 0 0.4317335 -0.9020013 0 0.4317331 -0.9020014 0 0.4904486 -0.8714702 0 0.490448 -0.8714705 0 0.5469424 -0.8371703 0 0.6010838 -0.799186 0 0.6525823 -0.757718 0 0.652583 -0.7577173 0 0.7012452 -0.7129203 0 0.7012466 -0.7129188 0 0.7468149 -0.665032 0 0.7891436 -0.6142088 0 0.7891436 -0.6142088 0 0.8279896 -0.5607436 0 0.8279889 -0.5607446 0 0.8632718 -0.5047393 0 0.8632718 -0.5047393 0 0.8947178 -0.446632 0 0.8947178 -0.446632 0 0.9222954 -0.386486 0 0.9222953 -0.3864861 0 0.9458141 -0.3247088 0 0.9652043 -0.261497 0 0.9652051 -0.2614943 0 0.9803881 -0.1970773 0 0.9803875 -0.1970802 0 0.9912592 -0.1319287 0 0.9912596 -0.1319258 0 0.9978161 -0.06605458 0 0.9978161 0.06605458 0 0.9912596 0.1319258 0 0.9912592 0.1319287 0 0.9803875 0.1970802 0 0.9803881 0.1970773 0 0.9652051 0.2614943 0 0.9652043 0.261497 0 0.9458141 0.3247088 0 0.9222954 0.386486 0 0.9222953 0.3864861 0 0.8947178 0.446632 0 0.8947178 0.446632 0 0.8632718 0.5047393 0 0.8632718 0.5047393 0 0.8279888 0.5607446 0 0.8279896 0.5607436 0 0.7891436 0.6142088 0 0.7891436 0.6142088 0 0.7468149 0.665032 0 0.7012466 0.7129188 0 0.7012452 0.7129203 0 0.652583 0.7577173 0 0.6525823 0.757718 0 0.6010838 0.799186 0 0.5469424 0.8371703 0 0.490448 0.8714705 0 0.4904486 0.8714702 0 0.4317332 0.9020014 0 0.4317334 0.9020013 0 0.3712211 0.9285445 0 0.3089838 0.9510673 0 0.2455267 0.9693899 0 0.2455268 0.9693899 0 0.1808651 0.9835079 0 0.1808652 0.9835079 0 0.1154745 0.9933105 0 0.1154745 0.9933105 0 0.04960221 0.9987691 0 -0.01657366 0.9998627 0 -0.08256918 0.9965854 0 -0.08256918 0.9965854 0 -0.1482614 0.9889482 0 -0.1482615 0.9889482 0 -0.2132862 0.9769898 0 -0.2132861 0.9769898 0 -0.2774082 0.9607522 0 -0.3402593 0.9403317 0 -0.4017018 0.9157705 0 -0.4017018 0.9157705 0 -0.4613596 0.8872134 0 -0.5189552 0.8548014 0 -0.5189546 0.8548018 0 -0.5743512 0.818609 0 -0.5743498 0.81861 0 -0.6271707 0.7788819 0 -0.6271714 0.7788813 0 -0.6772873 0.7357187 0 -0.7244304 0.6893481 0 -0.7244326 0.6893457 0 -0.7683938 0.6399775 0 -0.7683944 0.6399766 0 -0.8090117 0.5877926 0 -0.8090103 0.5877946 0 -0.8461033 0.5330191 0 -0.8461045 0.533017 0 -0.8794763 0.4759429 0 -0.8794763 0.4759428 0 -0.9090071 0.416781 0 -0.934562 0.3558002 0 -0.934562 0.3558003 0 -0.9560346 0.2932543 0 -0.9560337 0.293257 0 -0.9733238 0.229436 0 -0.9733232 0.2294388 0 -0.9863618 0.164592 0 -0.9950852 0.09902286 0 -0.9994526 -0.03308635 0 -0.9994524 0.03308933 0 -0.9994526 0.03308635 0 -0.9950852 0.09902286 0 -0.9733232 0.2294388 0 -0.9733238 0.229436 0 -0.9560337 0.2932569 0 -0.9560346 0.2932543 0 -0.934562 0.3558003 0 -0.8461033 0.5330192 0 -0.4017018 0.9157706 0 -0.213286 0.9769898 0 -0.2132862 0.9769899 0 0.04960221 0.9987691 0 0.04960221 0.9987691 0 0.4317334 0.9020013 0 0.4317331 0.9020014 0 0.7468149 0.665032 0 0.7891435 0.6142089 0 0.9222954 0.386486 0 0.9458141 0.3247088 0 0.980388 0.1970773 0 0.9803875 0.1970802 0 0.9912593 0.1319287 0 0.9912596 0.1319258 0 0.9978161 0.06605458 0 0.9978161 -0.06605458 0 0.9912596 -0.1319258 0 0.9912593 -0.1319287 0 0.9803875 -0.1970802 0 0.9803881 -0.1970773 0 0.9458141 -0.3247088 0 0.9222954 -0.386486 0 0.7891435 -0.6142089 0 0.7468149 -0.665032 0 0.4317331 -0.9020014 0 0.4317334 -0.9020013 0 0.04960221 -0.9987691 0 0.04960221 -0.9987691 0 -0.2132862 -0.9769899 0 -0.2132861 -0.9769898 0 -0.4017018 -0.9157706 0 -0.8461032 -0.5330192 0 -0.8461045 -0.533017 0 -0.934562 -0.3558003 0 -0.9560346 -0.2932543 0 -0.9560337 -0.2932569 0 -0.9733238 -0.229436 0 -0.9733232 -0.2294388 0 -0.9950852 -0.09902286 0 5.14942e-7 0 1 -3.8644e-7 0 1 -7.09115e-7 0 1 4.62539e-7 0 1 -1.03144e-6 0 1 1.03202e-6 0 1 -1.03093e-6 0 1 -1.03019e-6 0 1 5.14845e-7 0 1 -5.14765e-7 0 1 1.85101e-6 0 1 -5.1487e-7 0 1 -1.85059e-6 0 1 1.54644e-6 0 1 -1.84838e-6 0 1 1.84652e-6 0 1 5.15718e-7 0 1 5.15261e-7 0 1 1.28737e-6 0 1 -2.57399e-7 0 1 1.85107e-6 0 1 -2.57395e-7 0 1 1.28735e-7 0 1 -1.41695e-6 0 1 -4.5126e-7 0 1 -5.32149e-7 0 1 1.84834e-6 0 1 -5.7991e-7 0 1 -6.43853e-7 0 1 1.85057e-6 0 1 -2.57423e-7 0 1 -1.28694e-6 0 1 2.57424e-7 0 1 -1.03014e-6 0 1 1.84967e-6 0 1 -5.15466e-7 0 1 5.16012e-7 0 1 1.84899e-6 0 1 -5.15282e-7 0 1 -5.14945e-7 0 1 -9.25426e-7 0 1 1.02959e-6 0 1 -9.25551e-7 0 1 -5.14774e-7 0 1 9.2538e-7 0 1 -1.02989e-6 0 1 9.2511e-7 0 1 -1.03054e-6 0 1 9.24536e-7 0 1 2.34424e-7 0 1 -2.31322e-7 0 1 4.62751e-7 0 1 1.84907e-6 0 1 -1.85085e-6 0 1 1.85057e-6 0 1 1.84834e-6 0 1 -1.84903e-6 0 1 -1.84746e-6 0 1 9.25507e-7 0 1 9.24772e-7 0 1 0 0 -1 0 0 -1 0 0 -1 0 0 -1 0 0 -1 0 0 -1 0 0 -1 0 0 -1 0 0 -1 0 0 -1 0 0 -1 -3.55633e-7 0 -1 4.40749e-7 0 -1 0 0 -1 0 0 -1 0 0 -1 0 0 -1 -4.2285e-7 0 -1 -9.22709e-7 0 -1 9.5497e-7 0 -1 -7.73899e-7 0 -1 1.32451e-6 0 -1 -2.74435e-6 0 -1 3.07362e-6 0 -1 -3.96686e-6 0 -1 6.39208e-6 0 -1 1.63271e-5 0 -1 -1.70081e-5 0 -1 -4.22376e-5 0 -1</float_array>
          <technique_common>
            <accessor source="#shape0_002-mesh-normals-array" count="475" stride="3">
              <param name="X" type="float"/>
              <param name="Y" type="float"/>
              <param name="Z" type="float"/>
            </accessor>
          </technique_common>
        </source>
        <vertices id="shape0_002-mesh-vertices">
          <input semantic="POSITION" source="#shape0_002-mesh-positions"/>
        </vertices>
        <triangles material="BLUE_001-material" count="906">
          <input semantic="VERTEX" source="#shape0_002-mesh-vertices" offset="0"/>
          <input semantic="NORMAL" source="#shape0_002-mesh-normals" offset="1"/>
          <p>0 0 1 0 2 0 2 1 1 1 3 1 2 2 3 2 4 2 4 3 3 3 5 3 4 4 5 4 6 4 6 5 5 5 7 5 6 6 7 6 8 6 8 7 7 7 9 7 8 8 9 8 10 8 10 8 9 8 11 8 10 9 11 9 12 9 12 10 11 10 13 10 12 11 13 11 14 11 14 12 13 12 15 12 14 13 15 13 16 13 16 14 15 14 17 14 16 15 17 15 18 15 18 16 17 16 19 16 18 17 19 17 20 17 20 18 19 18 21 18 20 19 21 19 22 19 22 20 21 20 23 20 22 21 23 21 24 21 24 22 23 22 25 22 24 23 25 23 26 23 26 24 25 24 27 24 26 25 27 25 28 25 28 25 27 25 29 25 28 26 29 26 30 26 30 26 29 26 31 26 30 27 31 27 32 27 32 28 31 28 33 28 32 29 33 29 34 29 34 30 33 30 35 30 34 31 35 31 36 31 36 32 35 32 37 32 36 33 37 33 38 33 38 34 37 34 39 34 38 35 39 35 40 35 40 36 39 36 41 36 40 37 41 37 42 37 42 38 41 38 43 38 42 39 43 39 44 39 44 40 43 40 45 40 44 41 45 41 46 41 46 42 45 42 47 42 46 43 47 43 48 43 48 44 47 44 49 44 48 45 49 45 50 45 50 45 49 45 51 45 50 46 51 46 52 46 52 47 51 47 53 47 52 48 53 48 54 48 54 49 53 49 55 49 54 50 55 50 56 50 56 50 55 50 57 50 56 51 57 51 58 51 58 52 57 52 59 52 58 53 59 53 60 53 60 54 59 54 61 54 60 55 61 55 62 55 62 56 61 56 63 56 62 57 63 57 64 57 64 58 63 58 65 58 64 59 65 59 66 59 66 60 65 60 67 60 66 61 67 61 68 61 68 62 67 62 69 62 68 63 69 63 70 63 70 64 69 64 71 64 70 65 71 65 72 65 72 66 71 66 73 66 72 67 73 67 74 67 74 68 73 68 75 68 74 69 75 69 76 69 76 70 75 70 77 70 76 71 77 71 78 71 78 72 77 72 79 72 78 73 79 73 80 73 80 74 79 74 81 74 80 75 81 75 82 75 82 76 81 76 83 76 82 77 83 77 84 77 84 78 83 78 85 78 84 79 85 79 86 79 86 80 85 80 87 80 86 81 87 81 88 81 88 81 87 81 89 81 88 82 89 82 90 82 90 83 89 83 91 83 90 84 91 84 92 84 92 85 91 85 93 85 92 86 93 86 94 86 94 87 93 87 95 87 94 88 95 88 96 88 96 89 95 89 97 89 96 90 97 90 98 90 98 91 97 91 99 91 98 92 99 92 100 92 100 93 99 93 101 93 100 94 101 94 102 94 102 95 101 95 103 95 102 96 103 96 104 96 104 97 103 97 105 97 104 98 105 98 106 98 106 99 105 99 107 99 106 100 107 100 108 100 108 101 107 101 109 101 108 102 109 102 110 102 110 103 109 103 111 103 110 104 111 104 112 104 112 105 111 105 113 105 112 106 113 106 114 106 114 107 113 107 115 107 114 108 115 108 116 108 116 109 115 109 117 109 116 110 117 110 118 110 118 111 117 111 119 111 118 112 119 112 120 112 120 112 119 112 121 112 120 113 121 113 122 113 122 114 121 114 123 114 122 115 123 115 124 115 124 116 123 116 125 116 124 117 125 117 126 117 126 117 125 117 127 117 126 118 127 118 128 118 128 119 127 119 129 119 128 120 129 120 130 120 130 121 129 121 131 121 130 122 131 122 132 122 132 123 131 123 133 123 132 124 133 124 134 124 134 125 133 125 135 125 134 126 135 126 136 126 136 127 135 127 137 127 136 128 137 128 138 128 138 129 137 129 139 129 138 130 139 130 140 130 140 131 139 131 141 131 140 132 141 132 142 132 142 133 141 133 143 133 142 134 143 134 144 134 144 135 143 135 145 135 144 136 145 136 146 136 146 136 145 136 147 136 146 137 147 137 148 137 148 137 147 137 149 137 148 138 149 138 150 138 150 139 149 139 151 139 150 140 151 140 152 140 152 141 151 141 153 141 152 142 153 142 154 142 154 143 153 143 155 143 154 144 155 144 156 144 156 145 155 145 157 145 156 146 157 146 158 146 158 147 157 147 159 147 158 148 159 148 160 148 160 149 159 149 161 149 160 150 161 150 162 150 162 151 161 151 163 151 162 152 163 152 164 152 164 153 163 153 165 153 164 154 165 154 166 154 166 154 165 154 167 154 166 155 167 155 168 155 168 156 167 156 169 156 168 157 169 157 0 157 0 158 169 158 1 158 4 159 86 159 2 159 2 159 86 159 88 159 2 159 88 159 0 159 0 159 88 159 90 159 0 159 90 159 168 159 168 160 90 160 92 160 168 161 92 161 166 161 166 159 92 159 164 159 164 159 92 159 162 159 162 159 92 159 160 159 160 159 92 159 158 159 158 159 92 159 156 159 156 162 92 162 154 162 154 159 92 159 152 159 152 159 92 159 150 159 150 159 92 159 148 159 148 159 92 159 146 159 146 159 92 159 144 159 144 159 92 159 142 159 142 163 92 163 140 163 140 159 92 159 138 159 138 159 92 159 136 159 136 159 92 159 134 159 134 159 92 159 132 159 132 159 92 159 130 159 130 159 92 159 128 159 128 159 92 159 126 159 126 164 92 164 124 164 124 159 92 159 122 159 122 165 92 165 120 165 120 159 92 159 118 159 118 166 92 166 116 166 116 159 92 159 114 159 114 159 92 159 112 159 112 159 92 159 110 159 110 159 92 159 108 159 108 159 92 159 106 159 106 167 92 167 104 167 104 168 92 168 102 168 102 169 92 169 100 169 100 170 92 170 98 170 98 171 92 171 96 171 96 159 92 159 94 159 86 172 4 172 84 172 84 159 4 159 6 159 84 173 6 173 82 173 82 174 6 174 8 174 82 175 8 175 80 175 80 159 8 159 10 159 80 159 10 159 78 159 78 159 10 159 12 159 78 159 12 159 76 159 76 159 12 159 14 159 76 159 14 159 74 159 74 159 14 159 16 159 74 159 16 159 72 159 72 176 16 176 18 176 72 159 18 159 70 159 70 159 18 159 20 159 70 159 20 159 68 159 68 159 20 159 22 159 68 159 22 159 66 159 66 159 22 159 24 159 66 159 24 159 64 159 64 159 24 159 26 159 64 159 26 159 62 159 62 159 26 159 28 159 62 159 28 159 60 159 60 159 28 159 30 159 60 159 30 159 58 159 58 159 30 159 32 159 58 159 32 159 56 159 56 159 32 159 34 159 56 159 34 159 54 159 54 159 34 159 36 159 54 159 36 159 52 159 52 159 36 159 38 159 52 159 38 159 50 159 50 159 38 159 40 159 50 159 40 159 48 159 48 177 40 177 42 177 48 178 42 178 46 178 46 159 42 159 44 159 170 179 171 179 172 179 172 180 171 180 173 180 172 181 173 181 174 181 174 182 173 182 175 182 174 183 175 183 176 183 176 183 175 183 177 183 176 184 177 184 178 184 178 184 177 184 179 184 178 185 179 185 180 185 180 186 179 186 181 186 180 187 181 187 182 187 182 188 181 188 183 188 182 189 183 189 184 189 184 190 183 190 185 190 184 191 185 191 186 191 186 191 185 191 187 191 186 192 187 192 188 192 188 193 187 193 189 193 188 194 189 194 190 194 190 195 189 195 191 195 190 196 191 196 192 196 192 197 191 197 193 197 192 198 193 198 194 198 194 199 193 199 195 199 194 200 195 200 196 200 196 201 195 201 197 201 196 202 197 202 198 202 198 202 197 202 199 202 198 203 199 203 200 203 200 204 199 204 201 204 200 205 201 205 202 205 202 206 201 206 203 206 202 207 203 207 204 207 204 208 203 208 205 208 204 209 205 209 206 209 206 209 205 209 207 209 206 210 207 210 208 210 208 211 207 211 209 211 208 212 209 212 210 212 210 212 209 212 211 212 210 213 211 213 212 213 212 213 211 213 213 213 212 214 213 214 214 214 214 215 213 215 215 215 214 216 215 216 216 216 216 217 215 217 217 217 216 218 217 218 218 218 218 219 217 219 219 219 218 220 219 220 220 220 220 220 219 220 221 220 220 221 221 221 222 221 222 222 221 222 223 222 222 223 223 223 224 223 224 224 223 224 225 224 224 225 225 225 226 225 226 226 225 226 227 226 226 227 227 227 228 227 228 228 227 228 229 228 228 229 229 229 230 229 230 229 229 229 231 229 230 230 231 230 232 230 232 230 231 230 233 230 232 231 233 231 234 231 234 232 233 232 235 232 234 233 235 233 236 233 236 234 235 234 237 234 236 235 237 235 238 235 238 235 237 235 239 235 238 236 239 236 240 236 240 236 239 236 241 236 240 237 241 237 242 237 242 238 241 238 243 238 242 239 243 239 244 239 244 240 243 240 245 240 244 241 245 241 246 241 246 241 245 241 247 241 246 242 247 242 248 242 248 243 247 243 249 243 248 244 249 244 250 244 250 245 249 245 251 245 250 246 251 246 252 246 252 247 251 247 253 247 252 248 253 248 254 248 254 249 253 249 255 249 254 250 255 250 256 250 256 251 255 251 257 251 256 252 257 252 258 252 258 252 257 252 259 252 258 253 259 253 260 253 260 254 259 254 261 254 260 255 261 255 262 255 262 256 261 256 263 256 262 257 263 257 264 257 264 258 263 258 265 258 264 259 265 259 266 259 266 259 265 259 267 259 266 81 267 81 268 81 268 81 267 81 269 81 268 260 269 260 270 260 270 260 269 260 271 260 270 261 271 261 272 261 272 262 271 262 273 262 272 263 273 263 274 263 274 264 273 264 275 264 274 265 275 265 276 265 276 266 275 266 277 266 276 267 277 267 278 267 278 267 277 267 279 267 278 268 279 268 280 268 280 269 279 269 281 269 280 270 281 270 282 270 282 271 281 271 283 271 282 272 283 272 284 272 284 273 283 273 285 273 284 274 285 274 286 274 286 275 285 275 287 275 286 276 287 276 288 276 288 277 287 277 289 277 288 278 289 278 290 278 290 278 289 278 291 278 290 279 291 279 292 279 292 280 291 280 293 280 292 281 293 281 294 281 294 282 293 282 295 282 294 283 295 283 296 283 296 283 295 283 297 283 296 284 297 284 298 284 298 284 297 284 299 284 298 285 299 285 300 285 300 286 299 286 301 286 300 287 301 287 302 287 302 288 301 288 303 288 302 289 303 289 304 289 304 289 303 289 305 289 304 290 305 290 306 290 306 290 305 290 307 290 306 291 307 291 308 291 308 292 307 292 309 292 308 293 309 293 310 293 310 294 309 294 311 294 310 295 311 295 312 295 312 296 311 296 313 296 312 297 313 297 314 297 314 297 313 297 315 297 314 298 315 298 316 298 316 298 315 298 317 298 316 299 317 299 318 299 318 300 317 300 319 300 318 301 319 301 320 301 320 302 319 302 321 302 320 303 321 303 322 303 322 304 321 304 323 304 322 305 323 305 324 305 324 305 323 305 325 305 324 306 325 306 326 306 326 306 325 306 327 306 326 307 327 307 328 307 328 308 327 308 329 308 328 309 329 309 330 309 330 309 329 309 331 309 330 310 331 310 332 310 332 311 331 311 333 311 332 312 333 312 334 312 334 313 333 313 335 313 334 314 335 314 336 314 336 315 335 315 337 315 336 316 337 316 338 316 338 316 337 316 339 316 338 317 339 317 340 317 340 318 339 318 341 318 340 319 341 319 342 319 342 320 341 320 343 320 342 321 343 321 344 321 344 322 343 322 345 322 344 323 345 323 346 323 346 324 345 324 347 324 346 325 347 325 348 325 348 326 347 326 349 326 348 327 349 327 350 327 350 327 349 327 351 327 350 328 351 328 352 328 352 329 351 329 353 329 352 330 353 330 354 330 354 331 353 331 355 331 354 332 355 332 356 332 356 333 355 333 357 333 356 334 357 334 358 334 358 334 357 334 359 334 358 335 359 335 170 335 170 335 359 335 171 335 360 336 175 336 361 336 361 181 175 181 173 181 361 337 173 337 362 337 362 338 173 338 171 338 362 339 171 339 363 339 363 339 171 339 359 339 363 334 359 334 364 334 364 334 359 334 357 334 364 340 357 340 365 340 365 341 357 341 355 341 365 342 355 342 366 342 366 343 355 343 353 343 366 344 353 344 367 344 367 344 353 344 351 344 367 327 351 327 368 327 368 327 351 327 349 327 368 326 349 326 369 326 369 325 349 325 347 325 369 324 347 324 370 324 370 345 347 345 345 345 370 322 345 322 371 322 371 321 345 321 343 321 371 320 343 320 372 320 372 319 343 319 341 319 372 318 341 318 373 318 373 317 341 317 339 317 373 316 339 316 374 316 374 316 339 316 337 316 374 315 337 315 375 315 375 314 337 314 335 314 375 313 335 313 376 313 376 312 335 312 333 312 376 311 333 311 377 311 377 310 333 310 331 310 377 309 331 309 378 309 378 309 331 309 329 309 378 346 329 346 379 346 379 308 329 308 327 308 379 306 327 306 380 306 380 306 327 306 325 306 380 305 325 305 381 305 381 305 325 305 323 305 381 347 323 347 382 347 382 348 323 348 321 348 382 302 321 302 383 302 383 301 321 301 319 301 383 300 319 300 384 300 384 299 319 299 317 299 384 298 317 298 385 298 385 298 317 298 315 298 385 349 315 349 386 349 386 350 315 350 313 350 386 296 313 296 387 296 387 295 313 295 311 295 387 294 311 294 388 294 388 293 311 293 309 293 388 292 309 292 389 292 389 291 309 291 307 291 389 290 307 290 390 290 390 290 307 290 305 290 390 289 305 289 391 289 391 289 305 289 303 289 391 351 303 351 392 351 392 352 303 352 301 352 392 286 301 286 393 286 393 285 301 285 299 285 393 284 299 284 394 284 394 284 299 284 297 284 394 283 297 283 395 283 395 283 297 283 295 283 395 282 295 282 396 282 396 281 295 281 293 281 396 280 293 280 397 280 397 279 293 279 291 279 397 353 291 353 398 353 398 353 291 353 289 353 398 354 289 354 399 354 399 277 289 277 287 277 399 275 287 275 400 275 400 274 287 274 285 274 400 273 285 273 401 273 401 272 285 272 283 272 401 271 283 271 402 271 402 270 283 270 281 270 402 355 281 355 403 355 403 355 281 355 279 355 403 356 279 356 404 356 404 356 279 356 277 356 404 266 277 266 405 266 405 265 277 265 275 265 405 357 275 357 406 357 406 358 275 358 273 358 406 359 273 359 407 359 407 360 273 360 271 360 407 361 271 361 408 361 408 361 271 361 269 361 408 81 269 81 409 81 409 81 269 81 267 81 409 362 267 362 410 362 410 362 267 362 265 362 410 363 265 363 411 363 411 364 265 364 263 364 411 365 263 365 412 365 412 366 263 366 261 366 412 254 261 254 413 254 413 253 261 253 259 253 413 367 259 367 414 367 414 367 259 367 257 367 414 368 257 368 415 368 415 368 257 368 255 368 415 249 255 249 416 249 416 248 255 248 253 248 416 247 253 247 417 247 417 246 253 246 251 246 417 245 251 245 418 245 418 244 251 244 249 244 418 369 249 369 419 369 419 243 249 243 247 243 419 370 247 370 420 370 420 370 247 370 245 370 420 240 245 240 421 240 421 239 245 239 243 239 421 238 243 238 422 238 422 237 243 237 241 237 422 236 241 236 423 236 423 236 241 236 239 236 423 235 239 235 424 235 424 235 239 235 237 235 424 234 237 234 425 234 425 233 237 233 235 233 425 371 235 371 426 371 426 372 235 372 233 372 426 230 233 230 427 230 427 230 233 230 231 230 427 229 231 229 428 229 428 229 231 229 229 229 428 228 229 228 429 228 429 227 229 227 227 227 429 226 227 226 430 226 430 225 227 225 225 225 430 224 225 224 431 224 431 223 225 223 223 223 431 373 223 373 432 373 432 374 223 374 221 374 432 220 221 220 433 220 433 220 221 220 219 220 433 219 219 219 434 219 434 218 219 218 217 218 434 217 217 217 435 217 435 216 217 216 215 216 435 375 215 375 436 375 436 376 215 376 213 376 436 213 213 213 437 213 437 213 213 213 211 213 437 212 211 212 438 212 438 212 211 212 209 212 438 377 209 377 439 377 439 211 209 211 207 211 439 209 207 209 440 209 440 209 207 209 205 209 440 208 205 208 441 208 441 207 205 207 203 207 441 206 203 206 442 206 442 205 203 205 201 205 442 204 201 204 443 204 443 203 201 203 199 203 443 202 199 202 444 202 444 202 199 202 197 202 444 201 197 201 445 201 445 200 197 200 195 200 445 199 195 199 446 199 446 198 195 198 193 198 446 197 193 197 447 197 447 196 193 196 191 196 447 378 191 378 448 378 448 379 191 379 189 379 448 193 189 193 449 193 449 192 189 192 187 192 449 191 187 191 450 191 450 191 187 191 185 191 450 380 185 380 451 380 451 380 185 380 183 380 451 381 183 381 452 381 452 382 183 382 181 382 452 383 181 383 453 383 453 384 181 384 179 384 453 184 179 184 454 184 454 184 179 184 177 184 454 385 177 385 360 385 360 385 177 385 175 385 1 159 266 159 3 159 3 159 266 159 268 159 3 159 268 159 5 159 5 159 268 159 270 159 5 386 270 386 7 386 7 159 270 159 272 159 7 387 272 387 9 387 9 159 272 159 274 159 9 388 274 388 11 388 11 159 274 159 276 159 11 159 276 159 278 159 266 159 1 159 264 159 264 159 1 159 169 159 264 389 169 389 262 389 262 159 169 159 167 159 262 159 167 159 260 159 260 390 167 390 165 390 260 159 165 159 258 159 258 159 165 159 256 159 256 391 165 391 163 391 256 159 163 159 254 159 254 392 163 392 161 392 254 159 161 159 252 159 252 393 161 393 159 393 252 159 159 159 250 159 250 394 159 394 157 394 250 159 157 159 248 159 248 395 157 395 155 395 248 396 155 396 246 396 246 397 155 397 153 397 246 398 153 398 244 398 244 159 153 159 151 159 244 159 151 159 242 159 242 399 151 399 149 399 242 400 149 400 240 400 240 159 149 159 147 159 240 401 147 401 238 401 238 159 147 159 236 159 236 402 147 402 145 402 236 159 145 159 234 159 234 403 145 403 143 403 234 159 143 159 232 159 232 404 143 404 141 404 232 159 141 159 230 159 230 405 141 405 139 405 230 406 139 406 228 406 228 407 139 407 137 407 228 159 137 159 226 159 226 408 137 408 135 408 226 159 135 159 224 159 224 409 135 409 133 409 224 159 133 159 222 159 222 410 133 410 131 410 222 159 131 159 220 159 220 159 131 159 218 159 218 411 131 411 129 411 218 412 129 412 216 412 216 413 129 413 127 413 216 159 127 159 214 159 214 414 127 414 125 414 214 415 125 415 212 415 212 416 125 416 123 416 212 159 123 159 210 159 210 417 123 417 121 417 210 159 121 159 208 159 208 418 121 418 119 418 208 159 119 159 206 159 206 419 119 419 117 419 206 420 117 420 204 420 204 421 117 421 115 421 204 159 115 159 202 159 202 422 115 422 113 422 202 159 113 159 200 159 200 159 113 159 198 159 198 159 113 159 111 159 198 423 111 423 196 423 196 424 111 424 109 424 196 159 109 159 194 159 194 425 109 425 107 425 194 426 107 426 192 426 192 427 107 427 105 427 192 428 105 428 190 428 190 429 105 429 103 429 190 430 103 430 188 430 188 431 103 431 101 431 188 432 101 432 186 432 186 433 101 433 99 433 186 434 99 434 184 434 184 159 99 159 97 159 184 159 97 159 182 159 182 435 97 435 180 435 180 159 97 159 95 159 180 159 95 159 178 159 178 159 95 159 93 159 178 159 93 159 176 159 176 159 93 159 91 159 176 436 91 436 174 436 174 159 91 159 89 159 174 437 89 437 172 437 172 159 89 159 87 159 172 437 87 437 170 437 170 159 87 159 85 159 170 159 85 159 358 159 358 159 85 159 83 159 358 159 83 159 356 159 356 159 83 159 81 159 356 159 81 159 354 159 354 159 81 159 79 159 354 159 79 159 352 159 352 159 79 159 350 159 350 159 79 159 77 159 350 438 77 438 348 438 348 433 77 433 75 433 348 159 75 159 346 159 346 431 75 431 73 431 346 159 73 159 344 159 344 429 73 429 71 429 344 159 71 159 342 159 342 427 71 427 69 427 342 439 69 439 340 439 340 425 69 425 67 425 340 159 67 159 338 159 338 424 67 424 65 424 338 159 65 159 336 159 336 159 65 159 63 159 336 159 63 159 334 159 334 159 63 159 332 159 332 422 63 422 61 422 332 159 61 159 330 159 330 421 61 421 59 421 330 420 59 420 328 420 328 419 59 419 57 419 328 159 57 159 326 159 326 418 57 418 55 418 326 159 55 159 324 159 324 417 55 417 53 417 324 159 53 159 322 159 322 416 53 416 51 416 322 440 51 440 320 440 320 414 51 414 49 414 320 159 49 159 318 159 318 413 49 413 47 413 318 441 47 441 316 441 316 411 47 411 45 411 316 159 45 159 314 159 314 159 45 159 312 159 312 410 45 410 43 410 312 159 43 159 310 159 310 409 43 409 41 409 310 159 41 159 308 159 308 408 41 408 39 408 308 159 39 159 306 159 306 407 39 407 37 407 306 406 37 406 304 406 304 405 37 405 35 405 304 159 35 159 302 159 302 404 35 404 33 404 302 159 33 159 300 159 300 403 33 403 31 403 300 442 31 442 298 442 298 402 31 402 29 402 298 443 29 443 296 443 296 159 29 159 294 159 294 159 29 159 27 159 294 400 27 400 292 400 292 399 27 399 25 399 292 159 25 159 290 159 290 159 25 159 23 159 290 398 23 398 288 398 288 397 23 397 21 397 288 444 21 444 286 444 286 395 21 395 19 395 286 159 19 159 284 159 284 394 19 394 17 394 284 159 17 159 282 159 282 393 17 393 15 393 282 445 15 445 280 445 280 392 15 392 13 392 280 159 13 159 278 159 278 391 13 391 11 391 362 446 408 446 361 446 361 446 408 446 409 446 361 446 409 446 360 446 360 446 409 446 410 446 360 447 410 447 454 447 454 448 410 448 411 448 454 446 411 446 453 446 453 446 411 446 412 446 453 449 412 449 452 449 452 450 412 450 413 450 452 446 413 446 451 446 451 451 413 451 414 451 451 446 414 446 450 446 450 446 414 446 415 446 450 452 415 452 449 452 449 446 415 446 416 446 449 453 416 453 448 453 448 446 416 446 417 446 448 454 417 454 447 454 447 446 417 446 418 446 447 455 418 455 446 455 446 446 418 446 419 446 446 446 419 446 445 446 445 446 419 446 420 446 445 446 420 446 444 446 444 446 420 446 421 446 444 446 421 446 443 446 443 446 421 446 422 446 443 446 422 446 442 446 442 446 422 446 423 446 442 446 423 446 441 446 441 446 423 446 424 446 441 446 424 446 440 446 440 446 424 446 425 446 440 446 425 446 439 446 439 446 425 446 426 446 439 456 426 456 438 456 438 446 426 446 427 446 438 446 427 446 437 446 437 446 427 446 428 446 437 446 428 446 436 446 436 446 428 446 429 446 436 446 429 446 435 446 435 457 429 457 430 457 435 446 430 446 434 446 434 446 430 446 431 446 434 458 431 458 433 458 433 446 431 446 432 446 408 459 362 459 407 459 407 460 362 460 363 460 407 461 363 461 406 461 406 446 363 446 364 446 406 462 364 462 405 462 405 446 364 446 404 446 404 446 364 446 403 446 403 446 364 446 402 446 402 446 364 446 401 446 401 463 364 463 400 463 400 446 364 446 399 446 399 446 364 446 398 446 398 464 364 464 397 464 397 465 364 465 396 465 396 446 364 446 395 446 395 466 364 466 365 466 395 446 365 446 394 446 394 446 365 446 393 446 393 446 365 446 392 446 392 446 365 446 391 446 391 467 365 467 390 467 390 446 365 446 389 446 389 446 365 446 388 446 388 446 365 446 387 446 387 446 365 446 386 446 386 446 365 446 385 446 385 446 365 446 384 446 384 446 365 446 383 446 383 446 365 446 382 446 382 468 365 468 381 468 381 469 365 469 380 469 380 446 365 446 379 446 379 470 365 470 378 470 378 446 365 446 377 446 377 446 365 446 376 446 376 471 365 471 375 471 375 446 365 446 374 446 374 446 365 446 373 446 373 446 365 446 372 446 372 472 365 472 371 472 371 446 365 446 370 446 370 473 365 473 369 473 369 446 365 446 368 446 368 446 365 446 367 446 367 474 365 474 366 474</p>
        </triangles>
      </mesh>
    </geometry>
  </library_geometries>
  <library_visual_scenes>
    <visual_scene id="Scene" name="Scene">
      <node id="node" name="node" type="NODE">
        <matrix sid="transform">0.001 0 0 0 0 0.001 0 0 0 0 0.001 -1.86265e-9 0 0 0 1</matrix>
        <instance_geometry url="#shape0_002-mesh" name="node">
          <bind_material>
            <technique_common>
              <instance_material symbol="BLUE_001-material" target="#BLUE_001-material"/>
            </technique_common>
          </bind_material>
        </instance_geometry>
      </node>
    </visual_scene>
  </library_visual_scenes>
  <scene>
    <instance_visual_scene url="#Scene"/>
  </scene>
</COLLADA>