<?xml version="1.0" encoding="utf-8"?>
<COLLADA xmlns="http://www.collada.org/2005/11/COLLADASchema" version="1.4.1" xmlns:xsi="http://www.w3.org/2001/XMLSchema-instance">
  <asset>
    <contributor>
      <author>Blender User</author>
      <authoring_tool>Blender 4.0.2 commit date:2023-12-05, commit time:07:41, hash:9be62e85b727</authoring_tool>
    </contributor>
    <created>2024-02-07T16:24:08</created>
    <modified>2024-02-07T16:24:08</modified>
    <unit name="meter" meter="1"/>
    <up_axis>Z_UP</up_axis>
  </asset>
  <library_effects>
    <effect id="Black-effect">
      <profile_COMMON>
        <technique sid="common">
          <lambert>
            <emission>
              <color sid="emission">0 0 0 1</color>
            </emission>
            <diffuse>
              <color sid="diffuse">0.003149456 0.003149456 0.003149456 1</color>
            </diffuse>
            <reflectivity>
              <float sid="specular">0.5</float>
            </reflectivity>
          </lambert>
        </technique>
      </profile_COMMON>
    </effect>
  </library_effects>
  <library_images/>
  <library_materials>
    <material id="Black-material" name="Black">
      <instance_effect url="#Black-effect"/>
    </material>
  </library_materials>
  <library_geometries>
    <geometry id="shape0_009-mesh" name="shape0.009">
      <mesh>
        <source id="shape0_009-mesh-positions">
          <float_array id="shape0_009-mesh-positions-array" count="1527">-0.01274949 -0.059376 0 -0.01256245 -0.06010437 0 -0.01977306 -0.105882 0 -0.01274949 -0.05862396 0 0 -0.01999998 0 -0.007144212 -0.05755466 0 -0.007586181 -0.05694639 0 -0.008165657 -0.05646699 0 -0.008846044 -0.0561468 0 -0.009584724 -0.05600589 0 -0.01033526 -0.0560531 0 0.03625047 -0.009623944 0 0.03625047 -0.01037597 0 0.03643745 -0.0111044 0 0.03679978 -0.01176339 0 0.03731459 -0.01231145 0 0.0379495 -0.0127145 0 -0.008165657 -0.01253294 0 -0.007586181 -0.01205354 0 -0.007144212 -0.01144528 0 -0.008846044 -0.0128532 0 -0.006867349 -0.01074606 0 -0.009584724 -0.01299405 0 -0.006773114 -0.00999999 0 -0.01033526 -0.0129469 0 -0.01105046 -0.0127145 0 -0.01105046 -0.0562855 0 -0.01168537 -0.05668848 0 -0.01168537 -0.01231145 0 -0.01220017 -0.05723655 0 0 0 0 -0.006867349 -0.009253919 0 -0.007144212 -0.008554697 0 -0.007586181 -0.007946312 0 0.03866469 -0.007053136 0 0.0379495 -0.007285475 0 0.03731459 -0.007688403 0 0.03679978 -0.008236587 0 0.03643745 -0.008895576 0 -0.01220017 -0.01176339 0 -0.007813036 -0.110054 0 -0.002574324 -0.114698 0 -0.003316044 -0.115438 0 -0.001914203 -0.113884 0 -0.008165657 -0.007466971 0 -0.01256245 -0.0111044 0 -0.01256245 -0.0578956 0 -0.008846044 -0.007146775 0 0.09018689 -0.01205354 0 0.09543138 -0.01669126 0 0.09469127 -0.01743137 0 0.09609019 -0.0158779 0 -0.009584724 -0.00700587 0 -0.008392512 -0.1105329 0 -0.005010724 -0.116667 0 -0.005945086 -0.117141 0 -0.004131138 -0.116097 0 0.08960747 -0.01253294 0 0.09299999 -0.01866018 0 0.09206736 -0.01913535 0 0.09387791 -0.01809018 0 -0.007371068 -0.109445 0 -0.001342833 -0.113005 0 -8.66567e-4 -0.112072 0 -0.01977306 0 0 -0.01033526 -0.007053136 0 -0.01105046 -0.007285475 0 0.09062886 -0.01144528 0 -0.01168537 -0.007688403 0 -0.01220017 -0.008236587 0 0.09666025 -0.01499998 0 0.09713536 -0.01406735 0 -0.01256245 -0.008895576 0 -0.01274949 -0.009623944 0 -0.01274949 -0.01037597 0 0 -0.108 0 -0.006773114 -0.05899995 0 -0.006867349 -0.05825388 0 -0.009072899 -0.110853 0 -0.006867349 -0.05974608 0 0.08799999 -0.01999998 0 0.03941518 -0.01299405 0 0.04015386 -0.0128532 0 0.03866469 -0.0129469 0 0.08799999 0 0 0.03941518 -0.00700587 0 0.04015386 -0.007146775 0 -0.006923973 -0.117515 0 -0.007936656 -0.117785 0 0.08892709 -0.0128532 0 0.0910902 -0.01951056 0 0.09007906 -0.01978147 0 -0.007094204 -0.108746 0 -4.90587e-4 -0.1110939 0 -2.19041e-4 -0.110082 0 -5.4911e-5 -0.109046 0 0.09090566 -0.01074606 0 0.09751057 -0.01309019 0 0.09778147 -0.01207906 0 0.09794515 -0.01104527 0 -0.00981158 -0.110994 0 -0.01001858 -0.118 0 -0.01106494 -0.117943 0 -0.008971989 -0.117947 0 0.0881884 -0.01299405 0 0.08904528 -0.0199452 0 -0.006999969 -0.108 0 0.09099996 -0.00999999 0 0.09799998 -0.00999999 0 0.09794515 -0.008954703 0 -0.01056206 -0.110947 0 -0.0120998 -0.117777 0 -0.01311135 -0.117504 0 0.08743786 -0.0129469 0 -0.007094204 -0.107254 0 0.09090566 -0.009253919 0 0.09778147 -0.007920861 0 0.09751057 -0.006909787 0 0.09713536 -0.005932629 0 -0.01127725 -0.110715 0 -0.01408886 -0.117126 0 -0.0150215 -0.116648 0 0.08672267 -0.0127145 0 -0.007371068 -0.106555 0 0.09062886 -0.008554697 0 0.09666025 -0.004999995 0 0.09609019 -0.004122138 0 -0.01191228 -0.110312 0 -0.01589888 -0.116075 0 -0.01671159 -0.115413 0 0.0860877 -0.01231145 0 -0.007813036 -0.105946 0 0.09018689 -0.007946312 0 0.09543138 -0.003308653 0 0.08557295 -0.01176339 0 0.09469127 -0.002568542 0 -0.01745045 -0.11467 0 -0.01242697 -0.109763 0 -0.008392512 -0.105467 0 0.08960747 -0.007466971 0 0.08521068 -0.0111044 0 0.09387791 -0.001909792 0 -0.01810765 -0.113854 0 0.09299999 -0.001339733 0 -0.01867568 -0.112973 0 -0.01278924 -0.109104 0 0.09206736 -8.64545e-4 0 0.08892709 -0.007146775 0 -0.01914846 -0.112038 0 0.0910902 -4.89435e-4 0 -0.01952087 -0.1110579 0 0.09007906 -2.18524e-4 0 0.0881884 -0.00700587 0 -0.01978868 -0.110045 0 -0.01297628 -0.108376 0 0.08904528 -5.4781e-5 0 -0.01994889 -0.109009 0 0.08743786 -0.007053136 0 0.08672267 -0.007285475 0 0.0860877 -0.007688403 0 0.08557295 -0.008236587 0 0.08521068 -0.008895576 0 -0.01999986 -0.107963 0 -0.01297628 -0.107624 0 -0.01994109 -0.106916 0 -0.01127725 -0.105286 0 -0.01191228 -0.105688 0 -0.01242697 -0.106237 0 -0.01278924 -0.106896 0 -0.01056206 -0.105053 0 -0.008165657 -0.06153297 0 -0.007586181 -0.06105357 0 0.04083424 -0.01253294 0 0.04141378 -0.01205354 0 -0.007144212 -0.06044524 0 0.04185575 -0.01144528 0 -0.008846044 -0.06185317 0 -0.009072899 -0.105147 0 0.04213255 -0.01074606 0 0.0850237 -0.01037597 0 -0.009584724 -0.06199407 0 -0.00981158 -0.105006 0 0.04222685 -0.00999999 0 0.0850237 -0.009623944 0 -0.01033526 -0.06194686 0 0.04213255 -0.009253919 0 -0.01105046 -0.06171447 0 0.04185575 -0.008554697 0 -0.01168537 -0.06131148 0 0.04141378 -0.007946312 0 -0.01220017 -0.06076335 0 0.04083424 -0.007466971 0 -0.01062464 -0.06080955 0.000999987 -0.01014786 -0.06096458 0.000999987 -0.009647548 -0.06099599 0.000999987 -0.009155094 -0.06090205 0.000999987 -0.007773101 -0.05899995 0.000999987 -0.007835924 -0.05850255 0.000999987 -0.008701443 -0.06068867 0.000999987 -0.00802052 -0.0580365 0.000999987 -0.008315145 -0.06036907 0.000999987 -0.008315145 -0.05763089 0.000999987 -0.00802052 -0.05996346 0.000999987 -0.008701443 -0.05731129 0.000999987 -0.007835924 -0.05949735 0.000999987 -0.009155094 -0.05709785 0.000999987 -0.009647548 -0.05700385 0.000999987 -0.01014786 -0.05703538 0.000999987 -0.01062464 -0.05719035 0.000999987 -0.01104795 -0.05745899 0.000999987 -0.01139116 -0.05782437 0.000999987 -0.01163268 -0.05826365 0.000999987 -0.01175737 -0.05874925 0.000999987 -0.01175737 -0.05925065 0.000999987 -0.01163268 -0.05973625 0.000999987 -0.01139116 -0.06017559 0.000999987 -0.01104795 -0.06054097 0.000999987 -0.01001858 -0.118 0.001999974 -0.008971989 -0.117947 0.001999974 -0.007936656 -0.117785 0.001999974 -0.006923973 -0.117515 0.001999974 -0.01977306 -0.105882 0.001999974 -0.01994109 -0.106916 0.001999974 -0.005945086 -0.117141 0.001999974 -0.01999986 -0.107963 0.001999974 -0.005010724 -0.116667 0.001999974 -0.01994889 -0.109009 0.001999974 -0.004131138 -0.116097 0.001999974 -0.01978868 -0.110045 0.001999974 -0.01952087 -0.1110579 0.001999974 -0.003316044 -0.115438 0.001999974 -0.002574324 -0.114698 0.001999974 -0.01914846 -0.112038 0.001999974 -0.01867568 -0.112973 0.001999974 -0.001914203 -0.113884 0.001999974 -0.001342833 -0.113005 0.001999974 -8.66567e-4 -0.112072 0.001999974 -0.01810765 -0.113854 0.001999974 -0.01745045 -0.11467 0.001999974 -0.01671159 -0.115413 0.001999974 -4.90587e-4 -0.1110939 0.001999974 -2.19041e-4 -0.110082 0.001999974 -5.4911e-5 -0.109046 0.001999974 0 -0.108 0.001999974 -0.01589888 -0.116075 0.001999974 -0.0150215 -0.116648 0.001999974 -0.01408886 -0.117126 0.001999974 -0.01311135 -0.117504 0.001999974 -0.0120998 -0.117777 0.001999974 -0.01106494 -0.117943 0.001999974 -0.01977306 0 0.001999974 0 -0.01999998 0.001999974 0 0 0.001999974 0.08799999 -0.01999998 0.001999974 0.08799999 0 0.001999974 0.09713536 -0.005932629 0.001999974 0.09666025 -0.004999995 0.001999974 0.08904528 -0.0199452 0.001999974 0.09609019 -0.004122138 0.001999974 0.09543138 -0.003308653 0.001999974 0.09007906 -0.01978147 0.001999974 0.09469127 -0.002568542 0.001999974 0.09387791 -0.001909792 0.001999974 0.0910902 -0.01951056 0.001999974 0.09206736 -0.01913535 0.001999974 0.09299999 -0.001339733 0.001999974 0.09206736 -8.64545e-4 0.001999974 0.09299999 -0.01866018 0.001999974 0.09387791 -0.01809018 0.001999974 0.0910902 -4.89435e-4 0.001999974 0.09469127 -0.01743137 0.001999974 0.09007906 -2.18524e-4 0.001999974 0.09543138 -0.01669126 0.001999974 0.08904528 -5.4781e-5 0.001999974 0.09609019 -0.0158779 0.001999974 0.09666025 -0.01499998 0.001999974 0.09713536 -0.01406735 0.001999974 0.09751057 -0.01309019 0.001999974 0.09778147 -0.01207906 0.001999974 0.09794515 -0.01104527 0.001999974 0.09799998 -0.00999999 0.001999974 0.09794515 -0.008954703 0.001999974 0.09778147 -0.007920861 0.001999974 0.09751057 -0.006909787 0.001999974 -0.01085156 -0.1098099 0.000999987 -0.01037478 -0.109965 0.000999987 -0.009874403 -0.109996 0.000999987 -0.009381949 -0.109902 0.000999987 -0.007999956 -0.108 0.000999987 -0.008062779 -0.1075029 0.000999987 -0.008928298 -0.1096889 0.000999987 -0.008247375 -0.107037 0.000999987 -0.00854206 -0.109369 0.000999987 -0.00854206 -0.106631 0.000999987 -0.008247375 -0.108963 0.000999987 -0.008928298 -0.106311 0.000999987 -0.008062779 -0.108497 0.000999987 -0.009381949 -0.1060979 0.000999987 -0.009874403 -0.1060039 0.000999987 -0.01037478 -0.106035 0.000999987 -0.01085156 -0.10619 0.000999987 -0.01127475 -0.106459 0.000999987 -0.01161795 -0.106824 0.000999987 -0.01185959 -0.107264 0.000999987 -0.01198416 -0.107749 0.000999987 -0.01198416 -0.108251 0.000999987 -0.01185959 -0.108736 0.000999987 -0.01161795 -0.109176 0.000999987 -0.01127475 -0.1095409 0.000999987 -0.01062464 -0.01180958 0.000999987 -0.01014786 -0.01196455 0.000999987 -0.009647548 -0.01199609 0.000999987 -0.009155094 -0.01190209 0.000999987 -0.007773101 -0.00999999 0.000999987 -0.007835924 -0.009502589 0.000999987 -0.008701443 -0.01168864 0.000999987 -0.00802052 -0.009036481 0.000999987 -0.008315145 -0.01136904 0.000999987 -0.008315145 -0.008630871 0.000999987 -0.00802052 -0.01096349 0.000999987 -0.008701443 -0.008311331 0.000999987 -0.007835924 -0.01049739 0.000999987 -0.009155094 -0.008097887 0.000999987 -0.009647548 -0.00800395 0.000999987 -0.01014786 -0.008035421 0.000999987 -0.01062464 -0.008190333 0.000999987 -0.01104795 -0.008458912 0.000999987 -0.01139116 -0.008824408 0.000999987 -0.01163268 -0.009263694 0.000999987 -0.01175737 -0.009749293 0.000999987 -0.01175737 -0.01025068 0.000999987 -0.01163268 -0.01073628 0.000999987 -0.01139116 -0.01117557 0.000999987 -0.01104795 -0.01154094 0.000999987 0.03935235 -0.01199609 0.000999987 0.03885209 -0.01196455 0.000999987 0.04122686 -0.00999999 0.000999987 0.03984487 -0.01190209 0.000999987 0.04116398 -0.009502589 0.000999987 0.04029846 -0.01168864 0.000999987 0.0409795 -0.009036481 0.000999987 0.04068475 -0.01136904 0.000999987 0.04068475 -0.008630871 0.000999987 0.0409795 -0.01096349 0.000999987 0.04029846 -0.008311331 0.000999987 0.04116398 -0.01049739 0.000999987 0.03984487 -0.008097887 0.000999987 0.03935235 -0.00800395 0.000999987 0.03885209 -0.008035421 0.000999987 0.03837525 -0.008190333 0.000999987 0.03795194 -0.008458912 0.000999987 0.0376088 -0.008824408 0.000999987 0.03736728 -0.009263694 0.000999987 0.03724259 -0.009749293 0.000999987 0.03724259 -0.01025068 0.000999987 0.03736728 -0.01073628 0.000999987 0.0376088 -0.01117557 0.000999987 0.03795194 -0.01154094 0.000999987 0.03837525 -0.01180958 0.000999987 0.08812558 -0.01199609 0.000999987 0.0876252 -0.01196455 0.000999987 0.08861798 -0.01190209 0.000999987 0.08999997 -0.00999999 0.000999987 0.08993721 -0.009502589 0.000999987 0.08907157 -0.01168864 0.000999987 0.08975255 -0.009036481 0.000999987 0.08945786 -0.01136904 0.000999987 0.08945786 -0.008630871 0.000999987 0.08975255 -0.01096349 0.000999987 0.08907157 -0.008311331 0.000999987 0.08993721 -0.01049739 0.000999987 0.08861798 -0.008097887 0.000999987 0.08812558 -0.00800395 0.000999987 0.0876252 -0.008035421 0.000999987 0.08714836 -0.008190333 0.000999987 0.08672517 -0.008458912 0.000999987 0.08638197 -0.008824408 0.000999987 0.08614039 -0.009263694 0.000999987 0.08601576 -0.009749293 0.000999987 0.08601576 -0.01025068 0.000999987 0.08614039 -0.01073628 0.000999987 0.08638197 -0.01117557 0.000999987 0.08672517 -0.01154094 0.000999987 0.08714836 -0.01180958 0.000999987 -0.009155094 -0.06090205 0.001999974 -0.009647548 -0.06099599 0.001999974 -0.008701443 -0.06068867 0.001999974 -0.007835924 -0.05850255 0.001999974 -0.007773101 -0.05899995 0.001999974 -0.008315145 -0.06036907 0.001999974 -0.00802052 -0.0580365 0.001999974 -0.00802052 -0.05996346 0.001999974 -0.008315145 -0.05763089 0.001999974 -0.007835924 -0.05949735 0.001999974 -0.008701443 -0.05731129 0.001999974 -0.009155094 -0.05709785 0.001999974 -0.009647548 -0.05700385 0.001999974 -0.01014786 -0.05703538 0.001999974 -0.01062464 -0.05719035 0.001999974 -0.01104795 -0.05745899 0.001999974 -0.01139116 -0.05782437 0.001999974 -0.01163268 -0.05826365 0.001999974 -0.01175737 -0.05874925 0.001999974 -0.01175737 -0.05925065 0.001999974 -0.01163268 -0.05973625 0.001999974 -0.01139116 -0.06017559 0.001999974 -0.01104795 -0.06054097 0.001999974 -0.01062464 -0.06080955 0.001999974 -0.01014786 -0.06096458 0.001999974 0.04068475 -0.008630871 0.001999974 0.04029846 -0.008311331 0.001999974 0.03984487 -0.008097887 0.001999974 0.03724259 -0.01025068 0.001999974 0.03724259 -0.009749293 0.001999974 0.03736728 -0.01073628 0.001999974 0.0376088 -0.01117557 0.001999974 0.03795194 -0.01154094 0.001999974 0.03837525 -0.01180958 0.001999974 -0.008315145 -0.01136904 0.001999974 -0.008701443 -0.01168864 0.001999974 -0.00802052 -0.01096349 0.001999974 -0.009155094 -0.01190209 0.001999974 -0.007835924 -0.01049739 0.001999974 -0.009647548 -0.01199609 0.001999974 -0.007773101 -0.00999999 0.001999974 -0.01014786 -0.01196455 0.001999974 -0.01062464 -0.01180958 0.001999974 -0.01104795 -0.01154094 0.001999974 -0.00854206 -0.109369 0.001999974 0.03837525 -0.008190333 0.001999974 0.03885209 -0.008035421 0.001999974 0.03795194 -0.008458912 0.001999974 0.0376088 -0.008824408 0.001999974 0.03736728 -0.009263694 0.001999974 -0.007835924 -0.009502589 0.001999974 -0.00802052 -0.009036481 0.001999974 -0.008315145 -0.008630871 0.001999974 0.08945786 -0.01136904 0.001999974 -0.01139116 -0.01117557 0.001999974 -0.008701443 -0.008311331 0.001999974 -0.008928298 -0.1096889 0.001999974 -0.009155094 -0.008097887 0.001999974 0.08907157 -0.01168864 0.001999974 -0.009647548 -0.00800395 0.001999974 -0.008247375 -0.108963 0.001999974 0.08975255 -0.01096349 0.001999974 -0.009381949 -0.109902 0.001999974 -0.01014786 -0.008035421 0.001999974 -0.01062464 -0.008190333 0.001999974 -0.01104795 -0.008458912 0.001999974 -0.01139116 -0.008824408 0.001999974 -0.01163268 -0.009263694 0.001999974 -0.01175737 -0.009749293 0.001999974 -0.01175737 -0.01025068 0.001999974 -0.01163268 -0.01073628 0.001999974 0.08861798 -0.01190209 0.001999974 0.03935235 -0.01199609 0.001999974 0.03984487 -0.01190209 0.001999974 0.03885209 -0.01196455 0.001999974 -0.008062779 -0.108497 0.001999974 0.03935235 -0.00800395 0.001999974 0.08993721 -0.01049739 0.001999974 -0.009874403 -0.109996 0.001999974 0.08812558 -0.01199609 0.001999974 -0.007999956 -0.108 0.001999974 0.08999997 -0.00999999 0.001999974 -0.01037478 -0.109965 0.001999974 0.0876252 -0.01196455 0.001999974 -0.008062779 -0.1075029 0.001999974 0.08993721 -0.009502589 0.001999974 -0.01085156 -0.1098099 0.001999974 0.08714836 -0.01180958 0.001999974 -0.008247375 -0.107037 0.001999974 0.08975255 -0.009036481 0.001999974 -0.01127475 -0.1095409 0.001999974 0.08672517 -0.01154094 0.001999974 -0.00854206 -0.106631 0.001999974 0.08945786 -0.008630871 0.001999974 0.08638197 -0.01117557 0.001999974 -0.008928298 -0.106311 0.001999974 0.08907157 -0.008311331 0.001999974 -0.01161795 -0.109176 0.001999974 0.08614039 -0.01073628 0.001999974 -0.009381949 -0.1060979 0.001999974 -0.01185959 -0.108736 0.001999974 0.08861798 -0.008097887 0.001999974 0.08812558 -0.00800395 0.001999974 -0.01198416 -0.108251 0.001999974 0.0876252 -0.008035421 0.001999974 0.08714836 -0.008190333 0.001999974 0.08672517 -0.008458912 0.001999974 0.08638197 -0.008824408 0.001999974 0.08614039 -0.009263694 0.001999974 -0.01198416 -0.107749 0.001999974 -0.01085156 -0.10619 0.001999974 -0.01037478 -0.106035 0.001999974 -0.01127475 -0.106459 0.001999974 -0.01161795 -0.106824 0.001999974 -0.01185959 -0.107264 0.001999974 0.04068475 -0.01136904 0.001999974 0.04029846 -0.01168864 0.001999974 0.0409795 -0.01096349 0.001999974 0.04116398 -0.01049739 0.001999974 0.08601576 -0.01025068 0.001999974 -0.009874403 -0.1060039 0.001999974 0.04122686 -0.00999999 0.001999974 0.08601576 -0.009749293 0.001999974 0.04116398 -0.009502589 0.001999974 0.0409795 -0.009036481 0.001999974</float_array>
          <technique_common>
            <accessor source="#shape0_009-mesh-positions-array" count="509" stride="3">
              <param name="X" type="float"/>
              <param name="Y" type="float"/>
              <param name="Z" type="float"/>
            </accessor>
          </technique_common>
        </source>
        <source id="shape0_009-mesh-normals">
          <float_array id="shape0_009-mesh-normals-array" count="2436">0 0 -1 0.2194584 0.6750891 -0.7043386 0.04455471 0.7084767 -0.7043265 -0.1330081 0.697297 -0.7043336 0.04446458 0.7085049 -0.7043038 -0.132963 0.697327 -0.7043124 -0.7042992 -0.08896362 -0.7043069 -0.7043091 -0.08897024 -0.7042962 -0.3022748 0.6423382 -0.7042951 -0.3021847 0.6423512 -0.704322 -0.6600434 -0.2613272 -0.7043089 -0.6600458 -0.2613436 -0.7043005 -0.4525426 0.5469685 -0.7042945 -0.4525498 0.5469684 -0.70429 -0.5743017 -0.4173055 -0.7042967 -0.4525432 -0.5469691 -0.7042937 -0.5743212 -0.4172597 -0.704308 -0.5742959 0.4173021 -0.7043033 -0.5743325 0.4172704 -0.7042923 -0.3022744 -0.6423375 -0.704296 -0.4525498 -0.5469684 -0.70429 -0.6600497 0.2613297 -0.704302 -0.6600367 0.2613379 -0.7043111 -0.7043021 0.08897024 -0.7043031 -0.7043064 0.08896583 -0.7042995 -0.3021858 -0.6423535 -0.7043194 -0.133015 -0.6973332 -0.7042964 -0.133099 -0.6972936 -0.7043198 0.04455941 -0.7084971 -0.7043056 0.04460698 -0.7085055 -0.7042942 0.219376 -0.6751229 -0.7043318 0.3804265 -0.5993358 -0.704324 0.2194688 -0.6751208 -0.7043048 0.3803582 -0.5994241 -0.7042858 0.5174501 -0.4860116 -0.7042998 0.5174492 -0.4860123 -0.7043001 0.6221008 -0.3419942 -0.7042943 0.6220813 -0.3420038 -0.704307 0.6875807 -0.1765667 -0.7043132 0.687608 -0.176529 -0.7042961 0.709905 0 -0.7042976 0.7099143 0 -0.7042881 0.687608 0.176529 -0.7042961 0.6875819 0.176567 -0.7043119 0.622089 0.3419851 -0.7043092 0.622087 0.3420086 -0.7042996 0.5174514 0.4860095 -0.7043002 0.5174491 0.4860123 -0.7043001 0.3804234 0.5993366 -0.704325 0.3803554 0.5994198 -0.7042909 0.2193878 0.6751485 -0.7043036 0.05058616 -0.9987198 0 0.0505861 -0.9987198 0 0.1549206 -0.987927 0 0.1549206 -0.987927 0 0.1549206 -0.987927 0 0.1550624 -0.9879047 -4.3653e-7 0.1550624 -0.9879047 0 0.1550624 -0.9879047 0 0.2571606 -0.9663687 0 0.2571606 -0.9663687 0 0.2571606 -0.9663687 0 0.2572993 -0.9663318 0 0.2572993 -0.9663318 0 0.2572993 -0.9663318 0 -0.9870564 0.1603735 0 0.3569008 -0.9341424 0 0.3569004 -0.9341424 0 -0.9984267 0.05607271 0 -0.9984269 0.05606925 0 0.4524127 -0.8918088 0 0.452412 -0.8918091 0 -0.9988135 -0.04870033 0 0.5438331 -0.8391934 0 -0.9882549 -0.152815 0 0.5434312 -0.8394538 0 0.5434312 -0.8394538 6.43402e-7 0.5434312 -0.8394537 0 -0.9667871 -0.255583 0 0.6287101 -0.7776398 0 0.6287099 -0.7776401 0 -0.9667863 -0.2555863 0 0.70629 -0.7079226 0 -0.9347848 -0.3552146 0 -0.8923929 -0.4512595 0 0.7062898 -0.7079229 0 -0.9347836 -0.3552177 0 0.7766805 -0.6298948 0 0.838127 -0.5454754 0 0.838127 -0.5454754 0 0.838127 -0.5454754 0 0.7766803 -0.6298951 0 -0.8923943 -0.4512567 0 0.838127 -0.5454754 0 0.838127 -0.5454754 4.97229e-7 0.838127 -0.5454754 0 0.8906601 -0.4546696 0 -0.8402065 -0.5422668 0 -0.8402065 -0.5422668 0 -0.8402065 -0.5422668 0 -0.8402048 -0.5422692 0 -0.8402048 -0.5422692 0 -0.8402048 -0.5422692 0 -0.7788138 -0.6272552 0 -0.7090653 -0.7051429 0 0.9334013 -0.3588344 0 0.9658347 -0.2591593 0 0.9876295 -0.156806 0 0.9876295 -0.156806 0 0.9876295 -0.156806 0 0.9986249 -0.05242425 0 -0.6315565 -0.77533 0 -0.6315582 -0.7753285 0 0.9876295 -0.1568061 0 0.9876295 -0.1568061 0 0.9876295 -0.1568061 0 -0.5467893 -0.8372703 0 -0.5467869 -0.8372718 0 -0.4561277 -0.8899144 0 -0.4561284 -0.889914 0 -0.3603581 -0.932814 0 -0.3603581 -0.932814 0 -0.3603582 -0.9328141 0 -0.3603582 -0.9328141 0 -0.3603581 -0.932814 0 -0.3603581 -0.932814 0 -0.2610079 -0.9653367 0 -0.2610079 -0.9653367 0 -0.2610079 -0.9653367 0 -0.2610083 -0.9653366 0 -0.2610083 -0.9653366 0 -0.2610083 -0.9653366 0 -0.1583915 -0.9873765 0 -0.1583912 -0.9873765 0 -0.05440324 -0.9985191 0 -0.05440306 -0.9985191 0 -1 0 0 1 0 0 0 1 0 0 -1 0 0.9335549 0.3584347 0 0.8910426 0.4539199 0 0.05235189 -0.9986287 0 0.8386628 0.544651 0 0.0523526 -0.9986287 0 0.7771146 0.6293592 0 0.1564 -0.9876938 0 0.707121 0.7070927 0 0.6293473 0.7771242 0 0.2587951 -0.9659323 0 0.7071279 0.7070857 0 0.3584445 -0.9335511 0 0.2587985 -0.9659314 0 0.5446145 0.8386865 0 0.4540057 0.8909988 0 0.4540019 -0.8910009 0 0.5445615 -0.8387209 0 0.4539962 -0.8910037 0 0.3583695 0.9335799 0 0.4540001 0.8910017 0 0.6293929 -0.7770873 0 0.2588054 0.9659295 0 0.7071087 -0.707105 0 0.2588089 0.9659286 0 0.1564397 0.9876876 0 0.7071017 -0.7071119 0 0.05233544 0.9986296 0 0.05233472 0.9986296 0 0.777092 -0.6293871 0 0.8386769 -0.5446292 0 0.8910368 -0.4539312 0 0.9335549 -0.3584344 0 0.9659283 -0.2588098 0 0.9659318 -0.2587969 0 0.9876948 -0.1563941 0 0.9986286 -0.05235558 0 0.9986278 -0.05236947 0 0.9986278 0.05237048 0 0.9986284 0.0523566 0 0.9876957 0.1563882 0 0.9659287 0.2588087 0 0.9659251 0.2588217 0 0.2194571 0.6750687 -0.7043586 0.04470598 0.7085049 -0.7042885 0.04470604 0.7085049 -0.7042885 -0.1331014 0.6973251 -0.7042881 0.04472368 0.7084589 -0.7043336 0.04472368 0.708459 -0.7043336 0.04472368 0.7084589 -0.7043336 -0.1331025 0.6973292 -0.7042838 -0.7043016 -0.08903527 -0.7042955 -0.7042816 -0.08897876 -0.7043226 -0.302169 0.6425079 -0.7041859 -0.3021602 0.6423621 -0.7043225 -0.3021602 0.6423622 -0.7043225 -0.6599808 -0.2613776 -0.7043486 -0.6600038 -0.2613963 -0.7043203 -0.4526671 0.5469318 -0.704243 -0.4526671 0.5469318 -0.7042431 -0.4526671 0.5469318 -0.704243 -0.4525217 0.5469806 -0.7042986 -0.4525217 0.5469806 -0.7042985 -0.4525216 0.5469806 -0.7042986 -0.5743315 -0.4172436 -0.7043089 -0.5743315 -0.4172437 -0.7043089 -0.4526681 -0.5469307 -0.7042431 -0.4526682 -0.5469308 -0.7042431 -0.5743242 -0.4172436 -0.7043149 -0.5743243 -0.4172436 -0.7043149 -0.5744636 0.4169405 -0.7043808 -0.5744749 0.4169436 -0.7043698 -0.3021668 -0.6425032 -0.704191 -0.4523578 -0.5470507 -0.7043493 -0.4523578 -0.5470507 -0.7043493 -0.6599938 0.2613819 -0.704335 -0.6599892 0.2613918 -0.7043356 -0.7043054 0.08898264 -0.7042983 -0.7042764 0.08903342 -0.7043209 -0.3021644 -0.642371 -0.7043126 -0.3021629 -0.6423678 -0.7043162 -0.1331007 -0.6973217 -0.7042917 -0.1331025 -0.6973292 -0.7042838 0.04437792 -0.7086284 -0.704185 0.04389673 -0.7085071 -0.7043372 0.2193642 -0.6751533 -0.7043063 0.2193641 -0.6751533 -0.7043063 0.380351 -0.5994527 -0.7042654 0.380351 -0.5994527 -0.7042652 0.380351 -0.5994527 -0.7042653 0.2195007 -0.6752382 -0.7041824 0.3803642 -0.599471 -0.7042427 0.3803641 -0.599471 -0.7042427 0.3803641 -0.599471 -0.7042427 0.5175417 -0.4859448 -0.7042785 0.5175417 -0.4859448 -0.7042785 0.5175417 -0.4859448 -0.7042785 0.5173493 -0.4860472 -0.7043492 0.5173493 -0.4860473 -0.7043493 0.5173493 -0.4860473 -0.7043492 0.6223954 -0.3417588 -0.7041484 0.6221277 -0.3420295 -0.7042536 0.6876022 -0.1766499 -0.7042713 0.6876181 -0.176624 -0.7042623 0.7099084 0 -0.7042942 0.7099002 0 -0.7043023 0.6876181 0.176624 -0.7042623 0.6875972 0.1766487 -0.7042765 0.6220324 0.3420994 -0.7043038 0.6220324 0.3420994 -0.7043038 0.6220324 0.3420994 -0.7043037 0.6219331 0.341884 -0.7044961 0.621933 0.341884 -0.7044961 0.621933 0.341884 -0.7044961 0.5175024 0.4859339 -0.704315 0.5175024 0.4859339 -0.704315 0.5174499 0.4860449 -0.704277 0.5174498 0.4860448 -0.704277 0.5174498 0.4860448 -0.704277 0.3803796 0.5993547 -0.7043334 0.3804666 0.5993225 -0.7043137 0.3804666 0.5993225 -0.7043136 0.3804666 0.5993225 -0.7043137 0.2190682 0.6753466 -0.7042131 0.2194612 0.6750892 -0.7043375 0.04455769 0.7085101 -0.7042927 -0.1330137 0.6973355 -0.7042945 0.04460334 0.7084908 -0.7043091 -0.1330972 0.6972905 -0.7043231 -0.7043023 -0.08896833 -0.7043032 -0.7043042 -0.08897382 -0.7043006 -0.3022765 0.6423401 -0.7042927 -0.302187 0.6423532 -0.7043191 -0.6600512 -0.2613338 -0.7042991 -0.6600504 -0.2613272 -0.7043023 -0.4525436 0.5469708 -0.7042921 -0.4525502 0.5469688 -0.7042893 -0.5743217 -0.4172645 -0.7043047 -0.4525033 -0.5469895 -0.7043035 -0.5743178 -0.4172803 -0.7042984 -0.5742937 0.4172992 -0.704307 -0.5743326 0.4172696 -0.7042928 -0.3022657 -0.6423385 -0.7042988 -0.45252 -0.5469835 -0.7042973 -0.6600494 0.2613295 -0.7043023 -0.6600407 0.2613401 -0.7043065 -0.7043026 0.08897 -0.7043027 -0.7043043 0.08896493 -0.7043015 -0.3022513 -0.6423414 -0.7043023 -0.1330209 -0.6973249 -0.7043035 -0.1330192 -0.6973243 -0.7043045 0.04457539 -0.7084983 -0.7043034 0.04457616 -0.7084988 -0.7043029 0.2193681 -0.6751528 -0.7043055 0.3803944 -0.5993775 -0.704306 0.2193682 -0.6751523 -0.7043061 0.3803722 -0.5994026 -0.7042965 0.5174872 -0.4859738 -0.7042986 0.5174933 -0.4859721 -0.7042952 0.6221055 -0.3419823 -0.7042961 0.622078 -0.3420073 -0.7043082 0.6875801 -0.1765736 -0.704312 0.6876043 -0.1765351 -0.704298 0.7099049 0 -0.7042976 0.7099049 0 -0.7042976 0.6876088 0.1765288 -0.7042952 0.6875843 0.1765673 -0.7043095 0.6220916 0.3419873 -0.704306 0.5174514 0.4860112 -0.7042992 0.5174524 0.4860142 -0.7042964 0.3804255 0.599337 -0.7043237 0.2193845 0.6751464 -0.7043066 0.04455947 0.7085092 -0.7042934 0.04460668 0.7084896 -0.7043102 -0.7043001 -0.089024 -0.7042983 -0.1330046 0.6973206 -0.7043108 -0.1330935 0.6973227 -0.704292 -0.6600506 -0.2613043 -0.7043105 -0.7042783 -0.08906573 -0.7043149 -0.3022874 0.6423392 -0.7042888 -0.3022021 0.6423416 -0.7043233 -0.574328 -0.4172604 -0.704302 -0.6600832 -0.2612642 -0.7042949 -0.4525066 0.5469998 -0.7042933 -0.4525393 0.5469763 -0.7042905 -0.574293 -0.4172867 -0.7043149 -0.574297 0.4172921 -0.7043084 -0.6600572 0.2613035 -0.7043047 -0.4524767 -0.5470173 -0.704299 -0.5743129 0.417281 -0.7043021 -0.452495 -0.5469946 -0.7043048 -0.6600602 0.2612717 -0.7043136 -0.7042994 0.08902025 -0.7042995 -0.3022781 -0.6423271 -0.7043038 -0.7042787 0.08906215 -0.704315 -0.1330161 -0.6973325 -0.704297 -0.3022645 -0.6423462 -0.7042922 -0.1330091 -0.697323 -0.7043077 0.04457718 -0.7084975 -0.7043041 0.04457956 -0.7084985 -0.7043029 0.2193674 -0.6751556 -0.7043032 0.2193692 -0.6751478 -0.7043101 0.3804016 -0.5993801 -0.7042999 0.3803631 -0.5993986 -0.7043048 0.5174859 -0.4859777 -0.7042969 0.5174938 -0.4859725 -0.7042946 0.6221075 -0.3419756 -0.7042976 0.6220773 -0.3420121 -0.7043066 0.687583 -0.1765589 -0.7043129 0.687605 -0.1765404 -0.7042961 0.7099058 0 -0.7042967 0.7099075 0 -0.704295 0.6876091 0.176534 -0.7042937 0.6875871 0.1765525 -0.7043105 0.6220902 0.3419917 -0.704305 0.6220884 0.342006 -0.7042996 0.5174501 0.4860151 -0.7042974 0.3804424 0.599355 -0.7042992 0.3803316 0.5993927 -0.7043269 0.219461 0.6750913 -0.7043357 0.2193845 0.6751447 -0.7043083 0.04455935 0.7085075 -0.7042952 -0.1330091 0.697344 -0.7042869 0.04459822 0.7084888 -0.7043115 -0.1331122 0.6972764 -0.7043343 -0.7043037 -0.08891445 -0.7043086 -0.7043219 -0.08901989 -0.7042771 -0.3022806 0.6423248 -0.7043048 -0.302194 0.6423348 -0.704333 -0.6600606 -0.2613152 -0.7042971 -0.6600571 -0.2613878 -0.7042734 -0.452555 0.5469416 -0.7043073 -0.4525219 0.5469759 -0.704302 -0.5743196 -0.4172543 -0.7043124 -0.4525153 -0.546961 -0.7043179 -0.5743033 -0.4173045 -0.704296 -0.574298 0.4172929 -0.7043071 -0.5743094 0.4172887 -0.7043003 -0.3022701 -0.642324 -0.7043101 -0.6600831 0.2613069 -0.7042791 -0.4524916 -0.5469903 -0.7043103 -0.6600101 0.2614065 -0.7043105 -0.7042964 0.08899927 -0.7043051 -0.7043402 0.08893597 -0.7042693 -0.3022586 -0.6423232 -0.7043157 -0.1330164 -0.6973337 -0.7042957 -0.1330341 -0.6973099 -0.704316 0.04457724 -0.7084983 -0.7043032 0.2193743 -0.6751564 -0.7043002 0.04457086 -0.7084942 -0.7043078 0.3803611 -0.5994194 -0.7042881 0.2193698 -0.67517 -0.7042886 0.5175162 -0.4859237 -0.7043119 0.3804246 -0.5993409 -0.7043207 0.6220899 -0.3419984 -0.704302 0.5174959 -0.4859642 -0.7042988 0.6220667 -0.3421077 -0.7042695 0.6876546 -0.1764639 -0.7042668 0.6876576 0.1764573 -0.7042655 0.6221393 0.3418065 -0.7043514 0.6220913 0.3419939 -0.7043029 0.517479 0.4859598 -0.7043144 0.5174564 0.4860076 -0.7042979 0.3803924 0.5993793 -0.7043054 0.3804076 0.5993578 -0.7043155 0.2193902 0.6751486 -0.7043027 0.2194628 0.6751073 -0.7043197 -0.1873001 0.9823028 0 -0.1873008 0.9823026 0 -0.4256851 0.9048714 0 -0.4256838 0.904872 0 -0.992116 -0.1253229 0 -0.9921165 -0.1253193 0 -0.6374743 0.7704716 0 -0.6374727 0.770473 0 -0.9297696 -0.368142 0 -0.8090214 0.5877793 0 -0.9297708 -0.3681389 0 -0.8090214 0.5877792 0 -0.8090239 -0.5877758 0 -0.9297719 0.3681363 0 -0.6374743 -0.7704716 0 -0.9921159 0.1253247 0 -0.809024 -0.5877757 0 -0.9297706 0.3681394 0 -0.9921163 0.1253211 0 -0.6374727 -0.770473 0 -0.4256837 -0.904872 0 -0.1874936 -0.9822658 0 -0.4256852 -0.9048714 0 -0.1871648 -0.9823285 0 -0.1871648 -0.9823285 0 -0.1871648 -0.9823285 0 0.06283479 -0.998024 0 0.3088364 -0.9511153 1.20278e-7 0.3088364 -0.9511153 0 0.3088364 -0.9511153 0 0.06283485 -0.998024 0 0.3088353 -0.9511156 0 0.3088353 -0.9511156 0 0.3088353 -0.9511156 0 0.5357786 -0.8443586 0 0.7289016 -0.6846185 0 0.5357804 -0.8443574 0 0.7288999 -0.6846203 0 0.8763118 -0.4817444 0 0.8763149 -0.4817388 0 0.9685744 -0.2487242 0 0.9685735 -0.2487276 0 0.9685735 0.2487276 0 0.9685744 0.2487242 0 0.8763149 0.4817388 0 0.8763119 0.4817444 0 0.7289016 0.6846185 0 0.7288999 0.6846203 0 0.5357802 0.8443576 0 0.3086985 0.95116 0 0.3086985 0.95116 0 0.3086985 0.95116 0 0.5357787 0.8443585 0 0.3091556 0.9510115 0 0.06296986 0.9980155 2.57328e-7 0.06296986 0.9980155 0 0.06296986 0.9980155 0 0.06296992 0.9980155 0 0.06296992 0.9980155 0 0.06296992 0.9980155 0 0 0 1 -1.77632e-7 0 1 -6.79267e-7 0 1 2.65885e-6 0 1 -1.95038e-7 0 1 2.16923e-7 0 1 0 0 1 1.91933e-7 0 1 -6.72946e-7 0 1 -4.86545e-7 0 1 2.64958e-7 0 1 0 0 1 -5.2858e-7 0 1 4.14274e-7 0 1 1.9503e-7 0 1 -8.09427e-7 0 1 -2.17583e-7 0 1 0 0 1 2.1745e-7 0 1 -2.98244e-7 0 1 -2.17307e-7 0 1 1.9812e-7 0 1 0 0 1 7.50421e-7 0 1 0 0 1 -4.5262e-7 0 1 0 0 1 0 0 1 6.25788e-7 0 1 0 0 1 -1.83954e-7 0 1 0 0 1 2.3037e-6 0 1 -2.09531e-6 0 1 -4.27251e-7 0 1 0 0 1 0 0 1 4.27402e-7 0 1 -2.26575e-7 0 1 0 0 1 -6.57874e-7 0 1 -4.34732e-7 0 1 3.18378e-7 0 1 0 0 1 2.44579e-7 0 1 0 0 1 -3.39468e-7 0 1 -3.16368e-7 0 1 2.17581e-7 0 1 -2.17289e-7 0 1 0 0 1 2.10698e-7 0 1 -4.52636e-7 0 1 1.02619e-6 0 1 -2.06265e-7 0 1 0 0 1 4.53126e-7 0 1 2.17101e-7 0 1 -1.75988e-6 0 1 4.00477e-7 0 1 0 0 1 1.63189e-7 0 1 0 0 1 0 0 1 0 0 1 -1.49547e-7 0 1 0 0 1 -1.5623e-7 0 1 0 0 1 2.83891e-7 0 1 2.55987e-6 0 1 0 0 1 0 0 1 0 0 1 0 0 1 0 0 1 0 0 1 0 0 1 0 0 1 0 0 1 5.11922e-7 0 1 0 0 1 0 0 1 0 0 1 0 0 1 4.54214e-7 0 1 -6.45452e-7 0 1 0 0 1 0 0 1 -3.62273e-7 0 1 0 0 1 3.69517e-7 0 1 0 0 1 -0.1874905 0.9822664 0 -0.1874905 0.9822664 0 -0.4254737 0.9049708 0 -0.4254737 0.9049708 0 -0.4254737 0.9049708 0 -0.4254724 0.9049715 0 -0.4254724 0.9049715 0 -0.4254724 0.9049715 0 -0.9921035 -0.1254218 0 -0.9921044 -0.1254146 0 -0.6375616 0.7703995 0 -0.6375616 0.7703994 0 -0.6375616 0.7703995 0 -0.6375616 0.7703993 0 -0.6375616 0.7703993 0 -0.6375617 0.7703994 0 -0.9297362 -0.3682264 0 -0.8091124 0.587654 0 -0.8091124 0.587654 0 -0.8091124 0.587654 0 -0.9297363 -0.3682263 0 -0.8090296 0.5877679 0 -0.8090296 0.5877679 0 -0.8090296 0.5877679 0 -0.8090245 -0.5877751 0 -0.8090245 -0.5877751 0 -0.8090245 -0.5877751 0 -0.9297362 0.3682264 0 -0.6374228 -0.7705143 0 -0.6374228 -0.7705143 0 -0.6374228 -0.7705143 0 -0.9921033 0.1254237 0 -0.8093045 -0.5873894 0 -0.9297363 0.3682263 0 -0.9921042 0.1254165 0 -0.6374226 -0.7705144 0 -0.6374226 -0.7705144 -2.18474e-7 -0.6374226 -0.7705144 0 -0.4258193 -0.9048083 0 -0.4258193 -0.9048083 0 -0.4258193 -0.9048083 0 -0.1874905 -0.9822664 0 -0.4258208 -0.9048075 0 -0.4258208 -0.9048075 0 -0.4258208 -0.9048075 0 -0.1874905 -0.9822664 0 0.06279516 -0.9980266 0 0.06279516 -0.9980266 0 0.06279516 -0.9980266 0 0.3091477 -0.9510141 0 0.06279468 -0.9980266 0 0.06279468 -0.9980266 0 0.06279468 -0.9980266 0 0.3091489 -0.9510137 0 0.5360361 -0.8441952 0 0.536036 -0.8441951 0 0.5360361 -0.8441952 0 0.7288604 -0.6846624 0 0.7288604 -0.6846624 0 0.7288604 -0.6846624 0 0.5360379 -0.8441941 0 0.5360379 -0.8441941 0 0.5360379 -0.8441941 0 0.7288604 -0.6846623 0 0.7288604 -0.6846624 0 0.7288604 -0.6846624 0 0.8763172 -0.4817348 0 0.8763172 -0.4817348 0 0.8763172 -0.4817348 0 0.8763879 -0.4816059 0 0.8763879 -0.4816059 0 0.876388 -0.4816059 0 0.968548 -0.2488269 0 0.9685488 -0.2488235 0 0.9686323 0.2484985 0 0.9686323 0.2484985 0 0.9686323 0.2484985 0 0.968548 0.2488269 0 0.8765528 0.4813056 0 0.8763899 0.4816024 0 0.8763899 0.4816024 0 0.8763899 0.4816024 0 0.728919 0.6846 0 0.728919 0.6845999 0 0.728919 0.6846 0 0.7289192 0.6845998 0 0.7289192 0.6845998 0 0.7289192 0.6845998 0 0.5359463 0.8442522 0 0.5359463 0.8442522 0 0.5359463 0.8442522 0 0.3091622 0.9510094 0 0.5360255 0.8442019 0 0.5360255 0.8442019 0 0.5360255 0.8442019 0 0.3091613 0.9510097 0 0.06279468 0.9980266 0 0.06279468 0.9980266 0 0.06279468 0.9980266 0 0.06279516 0.9980266 0 0.06279516 0.9980266 0 0.06279516 0.9980266 0 -0.1874918 0.9822662 0 -0.1874926 0.982266 0 -0.4256867 0.9048706 0 -0.4256853 0.9048713 0 -0.9921153 -0.1253288 0 -0.9921158 -0.1253253 0 -0.9297784 -0.3681197 0 -0.809022 0.5877785 0 -0.9297797 -0.3681166 0 -0.8090222 0.5877783 0 -0.8090086 -0.587797 0 -0.9297716 0.368137 0 -0.637439 -0.7705009 0 -0.9921159 0.1253238 0 -0.8090085 -0.5877969 0 -0.9297705 0.36814 0 -0.9921163 0.1253202 0 -0.6374374 -0.7705022 0 -0.4257659 -0.9048334 0 -0.1873772 -0.9822881 0 -0.4257674 -0.9048327 0 -0.1873778 -0.982288 0 0.06279224 -0.9980267 0 0.3090143 -0.9510574 0 0.0627923 -0.9980267 0 0.3090134 -0.9510578 0 0.5358064 -0.844341 0 0.7289591 -0.6845573 0 0.5358082 -0.8443398 0 0.7289573 -0.6845592 0 0.8763204 -0.4817287 0 0.8763235 -0.4817231 0 0.968572 -0.2487336 0 0.9685711 -0.248737 0 0.9685736 0.2487272 0 0.9685745 0.2487238 0 0.8763144 0.4817396 0 0.8763114 0.4817451 0 0.7289025 0.6846176 0 0.7289008 0.6846194 0 0.3088386 0.9511145 0 0.3088386 0.9511145 0 0.3088386 0.9511145 0 0.3091589 0.9510105 0 0.0628311 0.9980243 0 0.06283116 0.9980243 0 -0.1874791 0.9822686 0 -0.1874766 0.9822691 0 -0.4256979 0.9048655 0 -0.4257035 0.9048628 0 -0.9921402 -0.1251317 3.05572e-7 -0.9921402 -0.1251317 0 -0.9921402 -0.1251317 0 -0.9921402 -0.1251316 0 -0.9921402 -0.1251316 0 -0.9921402 -0.1251316 0 -0.6374512 0.7704908 0 -0.6374584 0.7704848 0 -0.9298157 -0.3680257 0 -0.8090047 0.5878022 0 -0.9298108 -0.3680381 0 -0.8089979 0.5878115 0 -0.8089843 -0.5878302 0 -0.9298026 0.3680586 0 -0.6374158 -0.77052 0 -0.9921408 0.1251266 0 -0.9921408 0.1251266 0 -0.9921408 0.1251266 0 -0.8089914 -0.5878207 0 -0.9298077 0.3680459 0 -0.9921408 0.1251266 0 -0.9921408 0.1251266 -2.7949e-7 -0.9921408 0.1251266 0 -0.6374231 -0.770514 0 -0.425784 -0.9048249 0 -0.1873645 -0.9822905 0 -0.4257786 -0.9048274 0 -0.1873618 -0.9822911 0 0.062797 -0.9980264 0 0.3090133 -0.9510578 0 0.06279706 -0.9980264 0 0.5358065 -0.8443409 0 0.7289592 -0.6845573 0 0.8763189 -0.4817315 0 0.8763251 -0.4817203 0 0.9685738 -0.2487268 0 0.9685702 -0.2487404 0 0.9685727 0.2487305 0 0.9685763 0.248717 0 0.876316 0.4817368 0 0.8763099 0.4817479 0 0.7289026 0.6846175 0 0.5357786 0.8443586 0 0.3091578 0.9510108 0 0.3091579 0.9510108 0 0.06283593 0.9980239 0 0.06283593 0.9980239 0 -0.1871816 0.9823253 0 -0.1871816 0.9823253 0 -0.1871816 0.9823253 0 -0.187187 0.9823243 0 -0.187187 0.9823243 0 -0.187187 0.9823243 0 -0.4257146 0.9048575 0 -0.4256923 0.904868 0 -0.9921253 -0.1252503 0 -0.9921252 -0.1252503 0 -0.637444 0.7704967 0 -0.9297511 -0.3681887 0 -0.8089978 0.5878117 0 -0.9297313 -0.3682389 0 -0.8090118 0.5877925 0 -0.8089982 -0.5878112 0 -0.9297232 0.3682594 0 -0.6374087 -0.770526 0 -0.9921258 0.1252452 0 -0.8089844 -0.5878302 0 -0.9297431 0.368209 0 -0.9921259 0.1252452 0 -0.4257729 -0.9048302 0 -0.1873965 -0.9822844 0 -0.4257953 -0.9048195 0 -0.1874019 -0.9822834 0 0.0627852 -0.9980271 0 0.3090176 -0.9510564 0 0.06278342 -0.9980273 0 0.3090091 -0.9510591 0 0.5358852 -0.844291 0 0.7289663 -0.6845496 0 0.5359116 -0.8442742 0 0.7289519 -0.684565 0 0.8762454 -0.4818652 0 0.8762332 -0.4818875 0 0.9686226 -0.2485361 0 0.9686157 -0.2485635 0 0.9686182 0.2485535 0 0.9686251 0.2485263 0 0.8763858 0.48161 2.09084e-7 0.8763858 0.48161 0 0.8763858 0.48161 0 0.8762363 0.4818816 0 0.7289097 0.6846099 0 0.7288954 0.6846252 0 0.5358836 0.8442919 0 0.3086976 0.9511603 0 0.3086976 0.9511603 0 0.3086976 0.9511603 0 0.5358576 0.8443084 0 0.3091621 0.9510094 0 0.06282228 0.9980248 0 0.06282407 0.9980247 0</float_array>
          <technique_common>
            <accessor source="#shape0_009-mesh-normals-array" count="812" stride="3">
              <param name="X" type="float"/>
              <param name="Y" type="float"/>
              <param name="Z" type="float"/>
            </accessor>
          </technique_common>
        </source>
        <vertices id="shape0_009-mesh-vertices">
          <input semantic="POSITION" source="#shape0_009-mesh-positions"/>
        </vertices>
        <triangles material="Black-material" count="1034">
          <input semantic="VERTEX" source="#shape0_009-mesh-vertices" offset="0"/>
          <input semantic="NORMAL" source="#shape0_009-mesh-normals" offset="1"/>
          <p>0 0 1 0 2 0 3 0 0 0 2 0 4 0 5 0 6 0 4 0 6 0 7 0 4 0 7 0 8 0 4 0 8 0 9 0 4 0 9 0 10 0 4 0 11 0 12 0 4 0 12 0 13 0 4 0 13 0 14 0 4 0 14 0 15 0 4 0 15 0 16 0 17 0 18 0 4 0 19 0 4 0 18 0 20 0 17 0 4 0 21 0 4 0 19 0 22 0 20 0 4 0 23 0 4 0 21 0 24 0 4 0 10 0 24 0 22 0 4 0 25 0 10 0 26 0 25 0 26 0 27 0 25 0 24 0 10 0 28 0 27 0 29 0 28 0 25 0 27 0 30 0 23 0 31 0 30 0 31 0 32 0 30 0 32 0 33 0 30 0 4 0 23 0 30 0 34 0 35 0 30 0 35 0 36 0 30 0 36 0 37 0 30 0 37 0 38 0 30 0 38 0 11 0 30 0 11 0 4 0 39 0 28 0 29 0 40 0 41 0 42 0 40 0 43 0 41 0 44 0 30 0 33 0 45 0 29 0 46 0 45 0 39 0 29 0 47 0 30 0 44 0 48 0 49 0 50 0 48 0 51 0 49 0 52 0 30 0 47 0 53 0 40 0 42 0 53 0 54 0 55 0 53 0 56 0 54 0 53 0 42 0 56 0 57 0 48 0 50 0 57 0 58 0 59 0 57 0 60 0 58 0 57 0 50 0 60 0 61 0 43 0 40 0 61 0 62 0 43 0 61 0 63 0 62 0 64 0 46 0 3 0 64 0 52 0 65 0 64 0 65 0 66 0 67 0 51 0 48 0 64 0 66 0 68 0 64 0 68 0 69 0 67 0 70 0 51 0 64 0 30 0 52 0 67 0 71 0 70 0 64 0 69 0 72 0 64 0 72 0 73 0 64 0 73 0 74 0 64 0 74 0 45 0 64 0 45 0 46 0 2 0 64 0 3 0 4 0 75 0 76 0 4 0 76 0 77 0 4 0 77 0 5 0 78 0 53 0 55 0 76 0 75 0 79 0 80 0 4 0 81 0 80 0 81 0 82 0 81 0 4 0 83 0 83 0 4 0 16 0 30 0 84 0 85 0 30 0 85 0 34 0 85 0 84 0 86 0 78 0 87 0 88 0 78 0 55 0 87 0 89 0 57 0 59 0 89 0 90 0 91 0 89 0 59 0 90 0 92 0 93 0 63 0 92 0 94 0 93 0 92 0 95 0 94 0 92 0 63 0 61 0 96 0 97 0 71 0 96 0 98 0 97 0 96 0 99 0 98 0 96 0 71 0 67 0 100 0 78 0 88 0 100 0 101 0 102 0 100 0 103 0 101 0 100 0 88 0 103 0 104 0 105 0 80 0 104 0 91 0 105 0 104 0 89 0 91 0 106 0 75 0 95 0 106 0 95 0 92 0 107 0 99 0 96 0 107 0 108 0 99 0 107 0 109 0 108 0 110 0 100 0 102 0 110 0 111 0 112 0 110 0 102 0 111 0 113 0 104 0 80 0 114 0 75 0 106 0 115 0 109 0 107 0 115 0 116 0 109 0 115 0 117 0 116 0 115 0 118 0 117 0 119 0 110 0 112 0 119 0 120 0 121 0 119 0 112 0 120 0 122 0 113 0 80 0 123 0 75 0 114 0 124 0 118 0 115 0 124 0 125 0 118 0 124 0 126 0 125 0 127 0 119 0 121 0 127 0 128 0 129 0 127 0 121 0 128 0 130 0 122 0 80 0 131 0 75 0 123 0 132 0 126 0 124 0 132 0 133 0 126 0 134 0 130 0 80 0 135 0 133 0 132 0 136 0 137 0 127 0 136 0 127 0 129 0 138 0 75 0 131 0 139 0 135 0 132 0 140 0 134 0 80 0 141 0 135 0 139 0 142 0 137 0 136 0 143 0 141 0 139 0 144 0 145 0 137 0 144 0 137 0 142 0 146 0 139 0 147 0 146 0 143 0 139 0 148 0 145 0 144 0 149 0 146 0 147 0 150 0 145 0 148 0 151 0 147 0 152 0 151 0 149 0 147 0 153 0 145 0 150 0 153 0 154 0 145 0 155 0 151 0 152 0 156 0 154 0 153 0 84 0 152 0 157 0 84 0 157 0 158 0 84 0 158 0 159 0 84 0 159 0 160 0 84 0 160 0 161 0 84 0 155 0 152 0 162 0 163 0 154 0 162 0 154 0 156 0 164 0 163 0 162 0 2 0 165 0 166 0 2 0 166 0 167 0 2 0 167 0 168 0 2 0 168 0 163 0 2 0 163 0 164 0 2 0 169 0 165 0 170 0 75 0 138 0 170 0 171 0 75 0 172 0 173 0 80 0 174 0 75 0 171 0 175 0 80 0 173 0 175 0 140 0 80 0 176 0 170 0 138 0 176 0 138 0 177 0 82 0 172 0 80 0 79 0 75 0 174 0 178 0 140 0 175 0 178 0 179 0 140 0 180 0 176 0 177 0 180 0 177 0 181 0 182 0 179 0 178 0 182 0 183 0 179 0 184 0 180 0 181 0 184 0 169 0 2 0 184 0 181 0 169 0 185 0 183 0 182 0 185 0 161 0 183 0 186 0 184 0 2 0 187 0 84 0 161 0 187 0 161 0 185 0 188 0 186 0 2 0 189 0 84 0 187 0 190 0 188 0 2 0 191 0 84 0 189 0 1 0 190 0 2 0 86 0 84 0 191 0 186 1 192 1 193 1 180 2 184 2 194 2 176 3 180 3 194 3 184 4 193 4 194 4 176 5 194 5 195 5 76 6 196 6 197 6 77 7 76 7 197 7 170 8 176 8 198 8 176 9 195 9 198 9 5 10 77 10 199 10 77 11 197 11 199 11 171 12 170 12 200 12 170 13 198 13 200 13 6 14 5 14 201 14 7 15 6 15 201 15 5 16 199 16 201 16 174 17 171 17 202 17 171 18 200 18 202 18 8 19 7 19 203 19 7 20 201 20 203 20 79 21 174 21 204 21 174 22 202 22 204 22 76 23 79 23 196 23 79 24 204 24 196 24 8 25 203 25 205 25 9 26 8 26 206 26 8 27 205 27 206 27 10 28 9 28 207 28 9 29 206 29 207 29 26 30 10 30 208 30 27 31 26 31 208 31 10 32 207 32 208 32 27 33 208 33 209 33 29 34 27 34 210 34 27 35 209 35 210 35 29 36 210 36 211 36 46 37 29 37 211 37 46 38 211 38 212 38 3 39 46 39 212 39 0 40 3 40 212 40 0 41 212 41 213 41 1 42 0 42 213 42 1 43 213 43 214 43 1 44 214 44 215 44 190 45 1 45 215 45 188 46 190 46 216 46 190 47 215 47 216 47 186 48 188 48 192 48 188 49 216 49 192 49 184 50 186 50 193 50 217 51 101 51 103 51 218 52 217 52 103 52 218 53 103 54 88 55 219 56 218 57 88 58 220 59 219 60 88 61 220 62 88 63 87 64 221 65 2 65 164 65 222 65 221 65 164 65 220 66 87 66 55 66 223 67 220 67 55 67 224 68 222 68 162 68 222 69 164 69 162 69 225 70 223 70 54 70 223 71 55 71 54 71 226 72 224 72 156 72 224 72 162 72 156 72 227 73 225 73 56 73 228 74 226 74 153 74 225 75 54 76 56 77 229 78 228 78 153 78 226 74 156 74 153 74 230 79 227 79 42 79 227 80 56 80 42 80 229 81 153 81 150 81 231 82 230 82 41 82 232 83 229 83 148 83 233 84 232 84 148 84 230 85 42 85 41 85 229 86 150 86 148 86 234 87 231 87 43 87 235 88 234 89 43 90 231 91 41 91 43 91 233 92 148 92 144 92 235 93 43 94 62 95 236 96 235 96 62 96 233 97 144 98 142 99 237 100 233 101 142 102 236 96 62 96 63 96 237 103 142 103 136 103 238 103 237 103 136 103 239 104 238 104 136 104 240 105 236 105 93 105 236 105 63 105 93 105 239 104 136 104 129 104 241 106 240 106 94 106 240 106 93 106 94 106 242 107 241 108 95 109 243 110 242 110 95 110 239 111 129 111 128 111 244 112 239 112 128 112 241 113 94 114 95 115 243 110 95 110 75 110 244 116 128 116 121 116 245 117 244 117 121 117 246 118 245 118 121 118 246 119 121 119 120 119 247 120 246 121 120 122 247 123 120 124 112 125 247 126 112 127 111 128 248 129 247 130 111 131 249 132 248 132 111 132 249 133 111 133 102 133 249 134 102 134 101 134 217 135 249 135 101 135 64 136 2 136 221 136 64 136 221 136 250 136 75 137 4 137 251 137 75 137 251 137 243 137 252 138 30 138 64 138 250 138 252 138 64 138 251 139 4 139 80 139 253 139 251 139 80 139 84 138 30 138 252 138 84 138 252 138 254 138 255 140 117 140 118 140 256 141 255 141 118 141 257 142 253 142 80 142 256 141 118 141 125 141 258 143 256 143 125 143 258 143 125 143 126 143 257 144 80 144 105 144 259 145 258 145 126 145 260 146 257 146 91 146 259 145 126 145 133 145 261 147 259 147 133 147 257 146 105 146 91 146 262 148 261 148 135 148 263 149 260 149 90 149 261 150 133 150 135 150 264 151 263 151 90 151 260 152 91 152 90 152 265 153 262 153 141 153 262 148 135 148 141 148 264 151 90 151 59 151 266 154 265 154 143 154 265 153 141 153 143 153 267 155 264 155 58 155 268 156 267 156 58 156 264 157 59 157 58 157 269 158 266 158 146 158 266 159 143 159 146 159 270 160 268 160 60 160 268 156 58 156 60 156 271 161 269 161 149 161 269 158 146 158 149 158 272 162 270 162 50 162 270 160 60 160 50 160 271 163 149 163 151 163 273 164 271 164 155 164 271 164 151 164 155 164 272 165 50 165 49 165 273 166 155 166 84 166 254 167 273 167 84 167 272 168 49 168 51 168 274 168 272 168 51 168 275 169 274 169 51 169 275 169 51 169 70 169 276 170 275 170 70 170 276 170 70 170 71 170 277 171 276 171 71 171 277 171 71 171 97 171 278 172 277 172 97 172 278 173 97 173 98 173 279 174 278 174 98 174 279 174 98 174 99 174 280 175 279 175 99 175 280 176 99 176 108 176 281 177 280 177 108 177 281 178 108 178 109 178 282 179 281 179 109 179 282 179 109 179 116 179 282 180 116 180 117 180 283 181 282 181 117 181 255 140 283 140 117 140 119 182 284 182 285 182 100 183 110 184 286 184 78 185 100 185 286 185 110 186 285 187 286 188 78 189 286 189 287 189 106 190 288 190 289 190 114 191 106 191 289 191 53 192 78 192 290 192 78 193 287 194 290 194 123 195 114 195 291 195 114 196 289 196 291 196 40 197 53 198 292 199 53 200 290 201 292 202 131 203 123 203 293 204 138 205 131 206 293 206 123 207 291 208 293 208 61 209 40 209 294 209 40 210 292 210 294 210 177 211 138 211 295 211 138 212 293 213 295 213 92 214 61 214 296 214 61 215 294 215 296 215 106 216 92 216 288 216 92 217 296 217 288 217 177 218 295 219 297 218 181 220 177 220 298 220 177 221 297 221 298 221 169 222 181 222 299 222 181 223 298 223 299 223 165 224 169 225 300 224 166 226 165 227 300 228 169 229 299 229 300 229 166 230 300 231 301 232 167 233 166 234 302 235 166 236 301 237 302 238 167 239 302 239 303 239 168 240 167 240 303 240 168 241 303 241 304 241 163 242 168 242 304 242 154 243 163 243 304 243 154 244 304 244 305 244 145 245 154 245 305 245 145 246 305 246 306 246 145 247 306 248 307 249 137 250 145 251 307 252 127 253 137 254 308 254 137 255 307 256 308 257 119 258 127 258 284 258 127 259 308 260 284 261 110 262 119 262 285 262 25 263 309 263 310 263 22 264 24 264 311 264 20 265 22 265 311 265 24 266 310 266 311 266 20 267 311 267 312 267 23 268 313 268 314 268 31 269 23 269 314 269 17 270 20 270 315 270 20 271 312 271 315 271 32 272 31 272 316 272 31 273 314 273 316 273 18 274 17 274 317 274 17 275 315 275 317 275 33 276 32 276 318 276 44 277 33 277 318 277 32 278 316 278 318 278 19 279 18 279 319 279 18 280 317 280 319 280 47 281 44 281 320 281 44 282 318 282 320 282 21 283 19 283 321 283 19 284 319 284 321 284 23 285 21 285 313 285 21 286 321 286 313 286 47 287 320 287 322 287 52 288 47 288 323 288 47 289 322 289 323 289 65 290 52 290 324 290 52 291 323 291 324 291 66 292 65 292 325 292 68 293 66 293 325 293 65 294 324 294 325 294 68 295 325 295 326 295 69 296 68 296 327 296 68 297 326 297 327 297 69 298 327 298 328 298 72 299 69 299 328 299 72 300 328 300 329 300 73 301 72 301 329 301 74 302 73 302 329 302 74 303 329 303 330 303 45 304 74 304 330 304 45 305 330 305 331 305 45 306 331 306 332 306 39 45 45 45 332 45 28 307 39 307 333 307 39 308 332 308 333 308 25 309 28 309 309 309 28 49 333 49 309 49 24 310 25 310 310 310 81 311 83 311 334 311 83 312 335 312 334 312 185 313 182 313 336 313 82 314 81 314 337 314 81 315 334 315 337 315 187 316 185 316 338 316 185 317 336 317 338 317 172 318 82 318 339 318 82 319 337 319 339 319 189 320 187 320 340 320 187 321 338 321 340 321 173 322 172 322 341 322 172 323 339 323 341 323 189 324 340 324 342 324 175 325 173 325 343 325 178 326 175 326 343 326 191 327 189 327 344 327 173 328 341 328 343 328 189 329 342 329 344 329 178 330 343 330 345 330 182 331 178 331 336 331 86 332 191 332 346 332 178 333 345 333 336 333 85 334 86 334 346 334 191 335 344 335 346 335 85 336 346 336 347 336 34 337 85 337 348 337 85 338 347 338 348 338 35 339 34 339 349 339 34 340 348 340 349 340 36 341 35 341 350 341 35 342 349 342 350 342 37 343 36 343 351 343 36 344 350 344 351 344 37 345 351 345 352 345 38 346 37 346 352 346 38 347 352 347 353 347 11 348 38 348 353 348 12 349 11 349 353 349 12 350 353 350 354 350 13 351 12 351 354 351 13 352 354 352 355 352 13 353 355 353 356 353 14 354 13 354 356 354 15 355 14 355 357 355 14 308 356 308 357 308 16 356 15 356 357 356 16 357 357 357 358 357 16 358 358 358 335 358 83 359 16 359 335 359 104 360 113 360 359 360 89 361 104 361 359 361 113 362 360 362 359 362 89 363 359 363 361 363 107 364 362 364 363 364 115 365 107 365 363 365 57 366 89 366 364 366 89 367 361 367 364 367 124 368 115 368 365 368 115 369 363 369 365 369 48 370 57 370 366 370 57 371 364 371 366 371 132 372 124 372 367 372 139 373 132 373 367 373 124 374 365 374 367 374 67 375 48 375 368 375 48 376 366 376 368 376 147 377 139 377 369 377 96 378 67 378 370 378 139 379 367 379 369 379 67 380 368 380 370 380 107 381 96 381 362 381 96 382 370 382 362 382 147 383 369 383 371 383 152 384 147 384 372 384 147 385 371 385 372 385 157 386 152 386 373 386 158 387 157 387 373 387 152 388 372 388 373 388 159 389 158 389 374 389 158 390 373 390 374 390 160 391 159 391 375 391 159 392 374 392 375 392 161 393 160 393 376 393 160 394 375 394 376 394 161 395 376 395 377 395 161 396 377 396 378 396 183 348 161 348 378 348 179 349 183 349 378 349 179 350 378 350 379 350 140 351 179 351 379 351 140 397 379 397 380 397 140 398 380 398 381 398 134 399 140 399 381 399 130 400 134 400 382 400 134 401 381 401 382 401 122 402 130 402 383 402 130 403 382 403 383 403 113 404 122 404 360 404 122 405 383 405 360 405 195 406 194 406 384 406 194 407 385 407 384 407 198 408 195 408 386 408 195 409 384 409 386 409 197 410 196 410 387 410 196 411 388 411 387 411 200 412 198 412 389 412 198 413 386 413 389 413 199 414 197 414 390 414 202 415 200 415 391 415 197 416 387 416 390 416 200 417 389 417 391 417 201 418 199 418 392 418 204 419 202 419 393 419 203 420 201 420 392 420 196 421 204 421 393 421 199 422 390 422 392 422 202 423 391 423 393 423 196 424 393 424 388 424 203 425 392 425 394 425 205 426 203 426 395 426 206 427 205 427 395 427 203 428 394 428 395 428 206 429 395 430 396 431 207 432 206 432 397 432 208 433 207 434 397 435 206 436 396 436 397 436 208 437 397 438 398 439 209 440 208 440 399 440 210 441 209 441 399 441 208 442 398 442 399 442 210 443 399 443 400 443 211 444 210 444 401 444 210 445 400 445 401 445 211 446 401 446 402 446 212 447 211 447 402 447 212 137 402 137 403 137 213 137 212 137 403 137 214 448 213 448 403 448 214 449 403 449 404 449 215 450 214 450 405 450 214 451 404 451 405 451 216 452 215 452 406 452 215 453 405 453 406 453 192 454 216 454 407 454 193 455 192 456 407 457 216 458 406 458 407 458 193 459 407 459 408 459 194 460 193 461 385 462 193 463 408 464 385 465 409 466 254 466 410 466 221 467 405 467 404 467 410 466 254 466 411 466 221 468 404 468 403 468 221 469 403 469 402 469 412 466 413 466 251 466 414 466 412 466 251 466 415 470 414 470 251 470 416 471 415 471 251 471 417 466 416 466 251 466 390 466 387 466 251 466 392 466 390 466 251 466 394 466 392 466 251 466 395 466 394 466 251 466 396 466 395 466 251 466 397 466 396 466 251 466 398 466 397 466 251 466 251 472 418 472 419 472 418 466 251 466 420 466 251 473 419 473 421 473 420 474 251 474 422 474 251 475 421 475 423 475 422 466 251 466 424 466 251 476 423 476 425 476 398 477 251 477 426 477 251 478 425 478 426 478 399 466 398 466 427 466 400 466 399 466 427 466 398 479 426 479 427 479 230 466 231 466 428 466 231 466 234 466 428 466 429 466 430 466 252 466 424 466 251 466 252 466 431 466 429 466 252 466 432 466 431 466 252 466 433 480 432 480 252 480 413 466 433 466 252 466 434 481 424 481 252 481 435 466 434 466 252 466 436 466 435 466 252 466 270 482 272 482 437 482 251 483 413 483 252 483 272 484 274 484 437 484 400 485 427 485 438 485 436 466 252 466 439 466 223 466 225 466 440 466 225 486 227 486 440 486 227 466 230 466 440 466 230 487 428 487 440 487 439 466 252 466 441 466 264 466 267 466 442 466 267 466 268 466 442 466 268 466 270 466 442 466 270 488 437 488 442 488 441 489 252 489 443 489 234 466 235 466 444 466 428 466 234 466 444 466 235 490 236 490 444 490 437 491 274 491 445 491 274 466 275 466 445 466 275 466 276 466 445 466 401 466 400 466 250 466 402 466 401 466 250 466 400 492 438 492 250 492 443 466 252 466 250 466 219 466 220 466 446 466 447 466 443 466 250 466 220 466 223 466 446 466 448 466 447 466 250 466 449 466 448 466 250 466 223 493 440 493 446 493 450 466 449 466 250 466 451 494 450 494 250 494 452 466 451 466 250 466 453 466 452 466 250 466 454 466 453 466 250 466 438 466 454 466 250 466 260 466 263 466 455 466 221 495 402 495 250 495 263 466 264 466 455 466 264 496 442 496 455 496 388 497 243 497 251 497 387 498 388 498 251 498 393 499 243 499 388 499 456 466 251 466 253 466 457 500 456 500 253 500 458 466 251 466 456 466 236 501 240 501 459 501 417 466 251 466 458 466 240 466 241 466 459 466 460 466 254 466 252 466 241 502 242 502 459 502 430 466 460 466 252 466 411 503 254 503 460 503 444 466 236 466 459 466 445 504 276 504 461 504 276 466 277 466 461 466 277 466 278 466 461 466 278 505 279 505 461 505 249 466 217 466 462 466 217 466 218 466 462 466 218 466 219 466 462 466 219 506 446 506 462 506 253 466 257 466 463 466 257 507 260 507 463 507 260 508 455 508 463 508 459 466 242 466 464 466 242 466 243 466 464 466 461 466 279 466 465 466 279 466 280 466 465 466 280 466 281 466 465 466 247 466 248 466 466 466 248 466 249 466 466 466 249 509 462 509 466 509 253 510 463 510 467 510 464 466 243 466 468 466 465 466 281 466 469 466 281 466 282 466 469 466 282 511 283 511 469 511 283 466 255 466 469 466 245 466 246 466 470 466 246 466 247 466 470 466 247 512 466 512 470 512 253 513 467 513 471 513 468 466 243 466 472 466 469 466 255 466 473 466 255 514 256 514 473 514 256 466 258 466 473 466 239 515 244 515 474 515 244 466 245 466 474 466 245 516 470 516 474 516 253 517 471 517 475 517 472 466 243 466 476 466 473 518 258 518 477 518 258 466 259 466 477 466 253 519 475 519 478 519 476 520 243 520 479 520 477 521 259 521 261 521 480 522 477 522 261 522 239 523 474 523 238 523 474 466 481 466 238 466 253 524 478 524 482 524 479 525 243 525 483 525 480 526 261 526 262 526 238 466 481 466 237 466 480 527 262 527 265 527 237 528 481 528 233 528 481 466 484 466 233 466 485 466 480 466 266 466 480 529 265 529 266 529 233 530 484 530 232 530 485 531 266 531 269 531 232 466 484 466 229 466 486 466 485 466 271 466 485 532 269 532 271 532 229 466 484 466 228 466 484 466 487 466 228 466 486 533 271 533 273 533 228 534 487 534 226 534 486 535 273 535 254 535 488 466 486 466 254 466 489 466 488 466 254 466 490 466 489 466 254 466 491 466 490 466 254 466 492 536 491 536 254 536 487 537 493 537 224 537 226 538 487 538 224 538 224 539 493 539 222 539 494 540 495 540 221 540 496 541 494 541 221 541 497 466 496 466 221 466 498 466 497 466 221 466 493 466 498 466 221 466 222 542 493 542 221 542 243 543 389 543 386 543 253 544 499 544 500 544 389 466 243 466 391 466 499 466 253 466 501 466 253 545 482 545 501 545 483 466 243 466 384 466 243 546 386 546 384 546 253 547 500 547 457 547 391 466 243 466 393 466 501 466 482 466 502 466 482 548 503 548 502 548 483 549 384 549 385 549 504 466 483 466 385 466 502 466 503 466 505 466 503 550 506 550 505 550 504 551 385 551 408 551 495 552 504 552 408 552 221 553 495 553 408 553 505 554 506 554 507 554 506 466 492 466 507 466 221 555 408 555 407 555 492 556 254 556 508 556 507 466 492 466 508 466 221 557 407 557 406 557 508 466 254 466 409 466 221 558 406 558 405 558 287 559 286 559 446 559 286 560 462 560 446 560 290 561 287 562 440 563 287 564 446 565 440 566 289 567 288 567 468 567 288 568 464 568 468 568 292 569 290 570 428 571 290 572 440 573 428 574 291 575 289 575 472 575 294 576 292 577 444 578 289 579 468 579 472 579 292 580 428 581 444 582 293 583 291 584 476 585 296 586 294 586 459 586 295 587 293 588 476 589 288 590 296 590 459 590 291 591 472 591 476 591 294 592 444 592 459 592 288 593 459 593 464 593 295 594 476 595 479 596 297 597 295 598 483 599 298 600 297 600 483 600 295 601 479 602 483 603 298 604 483 604 504 604 299 605 298 606 495 607 300 608 299 608 495 608 298 609 504 610 495 611 300 612 495 612 494 612 301 613 300 614 496 615 302 616 301 617 496 618 300 619 494 620 496 621 302 622 496 623 497 624 303 625 302 626 498 627 302 628 497 629 498 630 303 631 498 631 493 631 304 632 303 632 493 632 304 137 493 137 487 137 305 137 304 137 487 137 306 633 305 634 487 635 306 636 487 636 484 636 307 637 306 637 481 637 306 638 484 639 481 640 308 641 307 642 474 643 307 644 481 645 474 646 284 647 308 648 470 649 285 650 284 650 470 650 308 651 474 652 470 653 285 654 470 654 466 654 286 655 285 656 462 657 285 658 466 659 462 660 312 661 311 661 421 661 311 662 423 662 421 662 315 663 312 663 419 663 312 664 421 664 419 664 314 665 313 665 434 665 313 666 424 666 434 666 317 412 315 412 418 412 315 413 419 413 418 413 316 667 314 667 435 667 319 668 317 668 420 668 314 669 434 669 435 669 317 670 418 670 420 670 318 671 316 671 436 671 321 672 319 672 422 672 320 673 318 673 436 673 313 674 321 674 422 674 316 675 435 675 436 675 319 676 420 676 422 676 313 677 422 677 424 677 320 678 436 678 439 678 322 679 320 679 441 679 323 680 322 680 441 680 320 681 439 681 441 681 323 682 441 682 443 682 324 683 323 683 447 683 325 684 324 684 447 684 323 685 443 685 447 685 325 686 447 686 448 686 326 687 325 687 449 687 327 688 326 688 449 688 325 689 448 689 449 689 327 690 449 690 450 690 328 691 327 691 451 691 327 692 450 692 451 692 328 693 451 693 452 693 329 694 328 694 452 694 329 137 452 137 453 137 330 137 329 137 453 137 331 695 330 695 453 695 331 696 453 696 454 696 332 697 331 697 438 697 331 698 454 698 438 698 333 699 332 699 427 699 332 700 438 700 427 700 309 454 333 454 426 454 310 701 309 702 426 703 333 458 427 458 426 458 310 704 426 704 425 704 311 705 310 705 423 705 310 706 425 706 423 706 337 707 334 707 457 707 334 708 456 708 457 708 339 709 337 709 500 709 337 710 457 710 500 710 338 711 336 712 507 713 336 714 505 715 507 716 341 717 339 717 499 717 339 718 500 718 499 718 340 719 338 719 508 719 343 720 341 720 501 720 338 721 507 721 508 721 341 722 499 722 501 722 342 723 340 723 409 723 345 724 343 724 502 724 344 725 342 725 409 725 336 726 345 727 502 728 340 729 508 729 409 729 343 730 501 730 502 730 336 731 502 732 505 733 344 734 409 734 410 734 346 735 344 735 411 735 347 736 346 736 411 736 344 737 410 737 411 737 347 738 411 738 460 738 348 739 347 739 430 739 349 740 348 740 430 740 347 741 460 741 430 741 349 686 430 686 429 686 350 687 349 687 431 687 351 688 350 688 431 688 349 742 429 742 431 742 351 743 431 743 432 743 352 744 351 744 433 744 351 745 432 745 433 745 352 746 433 746 413 746 353 747 352 747 413 747 353 137 413 137 412 137 354 137 353 137 412 137 355 748 354 748 412 748 355 749 412 749 414 749 356 750 355 750 415 750 355 751 414 751 415 751 357 699 356 699 416 699 356 752 415 752 416 752 358 753 357 753 417 753 335 754 358 754 417 754 357 458 416 458 417 458 335 755 417 755 458 755 334 756 335 756 456 756 335 757 458 757 456 757 361 758 359 759 455 760 359 761 463 762 455 763 364 764 361 764 442 764 361 765 455 765 442 765 363 766 362 766 469 766 362 767 465 767 469 767 366 768 364 768 437 768 364 718 442 718 437 718 365 769 363 769 473 769 368 770 366 770 445 770 363 771 469 771 473 771 366 772 437 772 445 772 367 773 365 773 477 773 370 774 368 774 461 774 369 775 367 775 477 775 362 776 370 776 461 776 365 777 473 777 477 777 368 778 445 778 461 778 362 779 461 779 465 779 369 734 477 734 480 734 371 780 369 780 485 780 372 781 371 781 485 781 369 782 480 782 485 782 372 783 485 783 486 783 373 784 372 784 488 784 374 785 373 785 488 785 372 786 486 786 488 786 374 787 488 787 489 787 375 788 374 788 490 788 376 789 375 789 490 789 374 790 489 790 490 790 376 791 490 791 491 791 377 792 376 792 492 792 376 793 491 793 492 793 377 794 492 794 506 794 378 795 377 795 506 795 378 137 506 137 503 137 379 137 378 137 503 137 380 796 379 796 503 796 380 797 503 797 482 797 381 798 380 799 478 800 380 801 482 801 478 801 382 802 381 802 475 802 381 803 478 803 475 803 383 804 382 804 471 804 360 805 383 806 471 807 382 808 475 808 471 808 360 809 471 809 467 809 359 810 360 810 463 810 360 811 467 811 463 811</p>
        </triangles>
      </mesh>
    </geometry>
  </library_geometries>
  <library_visual_scenes>
    <visual_scene id="Scene" name="Scene">
      <node id="node_001" name="node.001" type="NODE">
        <matrix sid="transform">1 0 0 0 0 1 0 0 0 0 1 0 0 0 0 1</matrix>
        <instance_geometry url="#shape0_009-mesh" name="node.001">
          <bind_material>
            <technique_common>
              <instance_material symbol="Black-material" target="#Black-material"/>
            </technique_common>
          </bind_material>
        </instance_geometry>
      </node>
    </visual_scene>
  </library_visual_scenes>
  <scene>
    <instance_visual_scene url="#Scene"/>
  </scene>
</COLLADA>