<?xml version="1.0" encoding="utf-8"?>
<COLLADA xmlns="http://www.collada.org/2005/11/COLLADASchema" version="1.4.1" xmlns:xsi="http://www.w3.org/2001/XMLSchema-instance">
  <asset>
    <contributor>
      <author>Blender User</author>
      <authoring_tool>Blender 4.0.2 commit date:2023-12-05, commit time:07:41, hash:9be62e85b727</authoring_tool>
    </contributor>
    <created>2024-01-29T09:41:47</created>
    <modified>2024-01-29T09:41:47</modified>
    <unit name="meter" meter="1"/>
    <up_axis>Z_UP</up_axis>
  </asset>
  <library_effects>
    <effect id="BLACK-effect">
      <profile_COMMON>
        <technique sid="common">
          <lambert>
            <emission>
              <color sid="emission">0 0 0 1</color>
            </emission>
            <diffuse>
              <color sid="diffuse">0.2585328 0.00781368 0.01458429 1</color>
            </diffuse>
            <reflectivity>
              <float sid="specular">0.5</float>
            </reflectivity>
            <index_of_refraction>
              <float sid="ior">1.45</float>
            </index_of_refraction>
          </lambert>
        </technique>
      </profile_COMMON>
    </effect>
  </library_effects>
  <library_images/>
  <library_materials>
    <material id="BLACK-material" name="BLACK">
      <instance_effect url="#BLACK-effect"/>
    </material>
  </library_materials>
  <library_geometries>
    <geometry id="shape0_002-mesh" name="shape0.002">
      <mesh>
        <source id="shape0_002-mesh-positions">
          <float_array id="shape0_002-mesh-positions-array" count="330">-25 1.90735e-6 -80 -24.3732 5.563004 40.00001 -24.3732 5.563004 -80 -22.52422 10.8471 40.00001 -22.52422 10.8471 -80 -19.54579 15.5872 40.00001 -19.54579 15.5872 -80 -15.58724 19.5458 40.00001 -15.58724 19.5458 -80 -10.8471 22.5242 40.00001 -10.8471 22.5242 -80 -5.562998 24.3732 40.00001 -5.562998 24.3732 -80 1.90735e-6 25 40.00001 1.90735e-6 25 -80 5.563004 24.3732 40.00001 5.563004 24.3732 -80 10.8471 22.5242 40.00001 10.8471 22.5242 -80 15.5872 19.5458 40.00001 15.5872 19.5458 -80 19.5458 15.5872 40.00001 19.5458 15.5872 -80 22.5242 10.8471 40.00001 22.5242 10.8471 -80 24.3732 5.563004 40.00001 24.3732 5.563004 -80 25 1.90735e-6 40.00001 25 1.90735e-6 -80 24.3732 -5.562998 40.00001 24.3732 -5.562998 -80 22.5242 -10.8471 40.00001 22.5242 -10.8471 -80 19.5458 -15.58724 40.00001 19.5458 -15.58724 -80 15.5872 -19.54579 40.00001 15.5872 -19.54579 -80 10.8471 -22.52422 40.00001 10.8471 -22.52422 -80 5.563004 -24.3732 40.00001 5.563004 -24.3732 -80 1.90735e-6 -25 40.00001 1.90735e-6 -25 -80 -5.562998 -24.3732 40.00001 -5.562998 -24.3732 -80 -10.8471 -22.52422 40.00001 -10.8471 -22.52422 -80 -15.58724 -19.54579 40.00001 -15.58724 -19.54579 -80 -19.54579 -15.58724 40.00001 -19.54579 -15.58724 -80 -22.52422 -10.8471 40.00001 -22.52422 -10.8471 -80 -24.3732 -5.562998 40.00001 -24.3732 -5.562998 -80 -25 1.90735e-6 40.00001 -2.712099 22.3359 40.00001 -7.978598 21.0379 40.00001 -12.7815 18.5171 40.00001 -16.84149 14.9203 40.00001 -19.92276 10.4563 40.00001 -21.84619 5.384602 40.00001 -22.5 1.90735e-6 40.00001 -21.84619 -5.384598 40.00001 -19.92276 -10.4563 40.00001 -16.84149 -14.9203 40.00001 -12.7815 -18.51714 40.00001 -7.978598 -21.03787 40.00001 -2.712099 -22.33595 40.00001 2.712101 -22.33595 40.00001 7.978601 -21.03787 40.00001 12.7815 -18.51714 40.00001 16.8415 -14.9203 40.00001 19.9228 -10.4563 40.00001 21.8462 -5.384598 40.00001 22.5 1.90735e-6 40.00001 21.8462 5.384602 40.00001 19.9228 10.4563 40.00001 16.8415 14.9203 40.00001 12.7815 18.5171 40.00001 7.978601 21.0379 40.00001 2.712101 22.3359 40.00001 1.90735e-6 1.90735e-6 -80 22.5 1.90735e-6 30.00001 21.8462 5.384602 30.00001 19.9228 10.4563 30.00001 16.8415 14.9203 30.00001 12.7815 18.5171 30.00001 7.978601 21.0379 30.00001 2.712101 22.3359 30.00001 -2.712099 22.3359 30.00001 -7.978598 21.0379 30.00001 -12.7815 18.5171 30.00001 -16.84149 14.9203 30.00001 -19.92276 10.4563 30.00001 -21.84619 5.384602 30.00001 -22.5 1.90735e-6 30.00001 -21.84619 -5.384598 30.00001 -19.92276 -10.4563 30.00001 -16.84149 -14.9203 30.00001 -12.7815 -18.51714 30.00001 -7.978598 -21.03787 30.00001 -2.712099 -22.33595 30.00001 2.712101 -22.33595 30.00001 7.978601 -21.03787 30.00001 12.7815 -18.51714 30.00001 16.8415 -14.9203 30.00001 19.9228 -10.4563 30.00001 21.8462 -5.384598 30.00001 1.90735e-6 1.90735e-6 30.00001</float_array>
          <technique_common>
            <accessor source="#shape0_002-mesh-positions-array" count="110" stride="3">
              <param name="X" type="float"/>
              <param name="Y" type="float"/>
              <param name="Z" type="float"/>
            </accessor>
          </technique_common>
        </source>
        <source id="shape0_002-mesh-normals">
          <float_array id="shape0_002-mesh-normals-array" count="411">-0.9937123 0.1119642 0 -0.9438835 0.3302788 0 -0.9438838 0.330278 0 -0.846722 0.5320357 0 -0.7071114 0.7071022 0 -0.7071111 0.7071024 0 -0.5320283 0.8467266 0 -0.5320286 0.8467264 0 -0.3302813 0.9438827 0 -0.3302812 0.9438826 0 -0.1119647 0.9937122 0 -0.1119647 0.9937122 0 0.1119646 0.9937123 0 0.1119646 0.9937123 0 0.3302816 0.9438824 0 0.5320315 0.8467246 0 0.5320319 0.8467243 0 0.7071068 0.7071068 0 0.7071067 0.707107 0 0.8467243 0.532032 0 0.8467246 0.5320315 0 0.9438824 0.330282 0 0.9438826 0.3302813 0 0.9937123 0.1119642 0 0.9937122 0.111965 0 0.9937122 -0.111965 0 0.9937123 -0.1119643 0 0.9438828 -0.330281 0 0.9438825 -0.3302816 0 0.8467267 -0.5320283 0 0.8467262 -0.5320288 0 0.7071022 -0.7071114 0 0.7071024 -0.7071112 0 0.5320358 -0.846722 0 0.5320355 -0.8467221 0 0.3302783 -0.9438836 0 0.1119646 -0.9937123 0 0.1119646 -0.9937123 0 -0.1119647 -0.9937122 0 -0.1119647 -0.9937122 0 -0.3302779 -0.9438838 0 -0.3302779 -0.9438838 0 -0.5320326 -0.846724 0 -0.5320322 -0.8467242 0 -0.7071067 -0.7071068 0 -0.707107 -0.7071067 0 -0.846724 -0.5320324 0 -0.846724 -0.5320325 0 -0.9438838 -0.3302777 0 -0.9438836 -0.3302783 0 -0.9937123 -0.1119643 0 -0.9937122 -0.111965 0 -0.9937122 0.111965 0 0 0 1 -2.18835e-6 0 1 -6.35093e-7 0 1 -2.47677e-7 0 1 2.9075e-7 0 1 2.13889e-6 0 1 2.10923e-6 0 1 6.35077e-7 0 1 2.47688e-7 0 1 2.30908e-7 0 1 -2.90745e-7 0 1 0 0 -1 4.38861e-7 0 -1 4.38868e-7 0 -1 -4.38865e-7 0 -1 -4.38861e-7 0 -1 4.38861e-7 0 -1 8.77722e-7 0 -1 -4.38864e-7 0 -1 -8.77723e-7 0 -1 8.77719e-7 0 -1 -0.9927092 -0.120535 0 -0.9927091 -0.1205355 0 -0.9350187 -0.3545986 0 -0.9350191 -0.3545974 0 -0.8229817 -0.5680681 0 -0.8229821 -0.5680674 0 -0.663118 -0.7485149 0 -0.6631179 -0.748515 0 -0.4647293 -0.8854528 0 -0.4647297 -0.8854525 0 -0.2393026 -0.9709451 0 -0.2393026 -0.9709451 0 0 -1 0 0.2393027 -0.9709451 0 0.2393026 -0.9709451 0 0.4647291 -0.8854529 0 0.4647296 -0.8854528 0 0.6631188 -0.7485142 0 0.6631187 -0.7485143 0 0.8229842 -0.5680642 0 0.8229848 -0.5680636 0 0.9350171 -0.354603 0 0.9350171 -0.3546028 0 0.9927089 -0.1205372 0 0.9927089 -0.1205366 0 0.9927089 0.1205366 0 0.9927088 0.1205372 0 0.9350171 0.3546026 0 0.8229846 0.5680639 0 0.8229845 0.568064 0 0.6631228 0.7485107 0 0.6631231 0.7485104 0 0.4647192 0.8854582 0 0.4647196 0.8854579 0 0.2393162 0.9709418 0 0.2393163 0.9709417 0 0 1 0 -0.2393161 0.9709418 0 -0.2393163 0.9709417 0 -0.4647194 0.885458 0 -0.4647198 0.8854578 0 -0.663122 0.7485114 0 -0.6631222 0.7485111 0 -0.822982 0.5680677 0 -0.8229818 0.5680678 0 -0.9350192 0.3545972 0 -0.9350188 0.3545982 0 -0.9927091 0.1205356 0 -0.9927091 0.120535 0 2.5189e-7 0 1 2.51893e-7 0 1 -1.25945e-7 0 1 1.25945e-7 0 1 -2.51893e-7 0 1 -2.51891e-7 0 1 2.5189e-7 0 1 -1.00758e-6 0 1 8.81608e-7 0 1 -3.77843e-7 0 1 -1.00755e-6 0 1 6.92709e-7 0 1 2.5189e-7 0 1 3.77843e-7 0 1</float_array>
          <technique_common>
            <accessor source="#shape0_002-mesh-normals-array" count="137" stride="3">
              <param name="X" type="float"/>
              <param name="Y" type="float"/>
              <param name="Z" type="float"/>
            </accessor>
          </technique_common>
        </source>
        <vertices id="shape0_002-mesh-vertices">
          <input semantic="POSITION" source="#shape0_002-mesh-positions"/>
        </vertices>
        <triangles material="BLACK-material" count="216">
          <input semantic="VERTEX" source="#shape0_002-mesh-vertices" offset="0"/>
          <input semantic="NORMAL" source="#shape0_002-mesh-normals" offset="1"/>
          <p>0 0 1 0 2 0 2 1 1 1 3 1 2 2 3 2 4 2 4 3 3 3 5 3 4 3 5 3 6 3 6 4 5 4 7 4 6 5 7 5 8 5 8 6 7 6 9 6 8 7 9 7 10 7 10 8 9 8 11 8 10 9 11 9 12 9 12 10 11 10 13 10 12 11 13 11 14 11 14 12 13 12 15 12 14 13 15 13 16 13 16 14 15 14 17 14 16 14 17 14 18 14 18 15 17 15 19 15 18 16 19 16 20 16 20 17 19 17 21 17 20 18 21 18 22 18 22 19 21 19 23 19 22 20 23 20 24 20 24 21 23 21 25 21 24 22 25 22 26 22 26 23 25 23 27 23 26 24 27 24 28 24 28 25 27 25 29 25 28 26 29 26 30 26 30 27 29 27 31 27 30 28 31 28 32 28 32 29 31 29 33 29 32 30 33 30 34 30 34 31 33 31 35 31 34 32 35 32 36 32 36 33 35 33 37 33 36 34 37 34 38 34 38 35 37 35 39 35 38 35 39 35 40 35 40 36 39 36 41 36 40 37 41 37 42 37 42 38 41 38 43 38 42 39 43 39 44 39 44 40 43 40 45 40 44 41 45 41 46 41 46 42 45 42 47 42 46 43 47 43 48 43 48 44 47 44 49 44 48 45 49 45 50 45 50 46 49 46 51 46 50 47 51 47 52 47 52 48 51 48 53 48 52 49 53 49 54 49 54 50 53 50 55 50 54 51 55 51 0 51 0 52 55 52 1 52 56 53 11 53 57 53 57 53 11 53 9 53 57 53 9 53 58 53 58 53 9 53 7 53 58 53 7 53 59 53 59 53 7 53 5 53 59 53 5 53 60 53 60 53 5 53 3 53 60 54 3 54 61 54 61 53 3 53 1 53 61 53 1 53 62 53 62 53 1 53 55 53 62 53 55 53 63 53 63 53 55 53 53 53 63 53 53 53 64 53 64 53 53 53 51 53 64 53 51 53 65 53 65 53 51 53 49 53 65 53 49 53 66 53 66 53 49 53 47 53 66 55 47 55 67 55 67 53 47 53 45 53 67 56 45 56 68 56 68 53 45 53 43 53 68 53 43 53 69 53 43 53 41 53 69 53 69 57 41 57 39 57 69 53 39 53 70 53 70 53 39 53 37 53 70 53 37 53 71 53 71 53 37 53 35 53 71 58 35 58 72 58 72 53 35 53 33 53 72 53 33 53 73 53 73 53 33 53 31 53 73 53 31 53 74 53 74 53 31 53 29 53 74 53 29 53 75 53 75 53 29 53 27 53 75 53 27 53 76 53 76 53 27 53 25 53 76 53 25 53 77 53 77 59 25 59 23 59 77 53 23 53 78 53 78 53 23 53 21 53 78 53 21 53 79 53 79 53 21 53 19 53 79 60 19 60 80 60 80 53 19 53 17 53 80 61 17 61 81 61 81 53 17 53 15 53 81 53 15 53 56 53 56 62 15 62 13 62 56 63 13 63 11 63 28 64 30 64 82 64 22 64 24 64 82 64 82 65 24 65 26 65 82 64 26 64 28 64 16 64 18 64 82 64 82 66 18 66 20 66 82 64 20 64 22 64 10 64 12 64 82 64 82 64 12 64 14 64 82 64 14 64 16 64 4 64 6 64 82 64 82 64 6 64 8 64 82 67 8 67 10 67 54 64 0 64 82 64 82 64 0 64 2 64 82 68 2 68 4 68 48 64 50 64 82 64 82 64 50 64 52 64 82 69 52 69 54 69 42 64 44 64 82 64 82 70 44 70 46 70 82 71 46 71 48 71 36 64 38 64 82 64 82 72 38 72 40 72 82 64 40 64 42 64 30 64 32 64 82 64 82 64 32 64 34 64 82 73 34 73 36 73 83 74 75 74 84 74 84 75 75 75 76 75 84 76 76 76 85 76 85 77 76 77 77 77 85 78 77 78 86 78 86 79 77 79 78 79 86 80 78 80 87 80 87 81 78 81 79 81 87 82 79 82 88 82 88 83 79 83 80 83 88 84 80 84 89 84 89 85 80 85 81 85 89 86 81 86 90 86 90 86 81 86 56 86 90 87 56 87 91 87 91 88 56 88 57 88 91 89 57 89 92 89 92 90 57 90 58 90 92 91 58 91 93 91 93 92 58 92 59 92 93 93 59 93 94 93 94 94 59 94 60 94 94 95 60 95 95 95 95 96 60 96 61 96 95 97 61 97 96 97 96 98 61 98 62 98 96 99 62 99 97 99 97 100 62 100 63 100 97 101 63 101 98 101 98 101 63 101 64 101 98 102 64 102 99 102 99 103 64 103 65 103 99 104 65 104 100 104 100 105 65 105 66 105 100 106 66 106 101 106 101 107 66 107 67 107 101 108 67 108 102 108 102 109 67 109 68 109 102 110 68 110 103 110 103 110 68 110 69 110 103 111 69 111 104 111 104 112 69 112 70 112 104 113 70 113 105 113 105 114 70 114 71 114 105 115 71 115 106 115 106 116 71 116 72 116 106 117 72 117 107 117 107 118 72 118 73 118 107 119 73 119 108 119 108 120 73 120 74 120 108 121 74 121 83 121 83 122 74 122 75 122 83 53 84 53 109 53 83 53 109 53 108 53 105 53 106 53 109 53 109 123 106 123 107 123 109 53 107 53 108 53 102 53 103 53 109 53 109 124 103 124 104 124 109 125 104 125 105 125 99 53 100 53 109 53 109 126 100 126 101 126 109 127 101 127 102 127 96 53 97 53 109 53 109 53 97 53 98 53 109 128 98 128 99 128 93 53 94 53 109 53 109 129 94 129 95 129 109 53 95 53 96 53 90 130 91 130 109 130 109 131 91 131 92 131 109 132 92 132 93 132 87 133 88 133 109 133 109 134 88 134 89 134 109 53 89 53 90 53 84 53 85 53 109 53 109 135 85 135 86 135 109 136 86 136 87 136</p>
        </triangles>
      </mesh>
    </geometry>
  </library_geometries>
  <library_visual_scenes>
    <visual_scene id="Scene" name="Scene">
      <node id="node" name="node" type="NODE">
        <matrix sid="transform">5e-4 0 0 -1.86265e-9 0 5e-4 0 -1.86265e-9 0 0 0.001 0 0 0 0 1</matrix>
        <instance_geometry url="#shape0_002-mesh" name="node">
          <bind_material>
            <technique_common>
              <instance_material symbol="BLACK-material" target="#BLACK-material"/>
            </technique_common>
          </bind_material>
        </instance_geometry>
      </node>
    </visual_scene>
  </library_visual_scenes>
  <scene>
    <instance_visual_scene url="#Scene"/>
  </scene>
</COLLADA>