<?xml version="1.0" encoding="utf-8"?>
<COLLADA xmlns="http://www.collada.org/2005/11/COLLADASchema" version="1.4.1" xmlns:xsi="http://www.w3.org/2001/XMLSchema-instance">
  <asset>
    <contributor>
      <author>Blender User</author>
      <authoring_tool>Blender 4.0.2 commit date:2023-12-05, commit time:07:41, hash:9be62e85b727</authoring_tool>
    </contributor>
    <created>2024-02-21T11:00:07</created>
    <modified>2024-02-21T11:00:07</modified>
    <unit name="meter" meter="1"/>
    <up_axis>Z_UP</up_axis>
  </asset>
  <library_effects>
    <effect id="Material_007-effect">
      <profile_COMMON>
        <technique sid="common">
          <lambert>
            <emission>
              <color sid="emission">0 0 0 1</color>
            </emission>
            <diffuse>
              <color sid="diffuse">0.3 0.3 0.3 1</color>
            </diffuse>
            <reflectivity>
              <float sid="specular">1</float>
            </reflectivity>
            <index_of_refraction>
              <float sid="ior">1.45</float>
            </index_of_refraction>
          </lambert>
        </technique>
      </profile_COMMON>
    </effect>
  </library_effects>
  <library_images/>
  <library_materials>
    <material id="Material_007-material" name="Material.007">
      <instance_effect url="#Material_007-effect"/>
    </material>
  </library_materials>
  <library_geometries>
    <geometry id="shape0_018-mesh" name="shape0.018">
      <mesh>
        <source id="shape0_018-mesh-positions">
          <float_array id="shape0_018-mesh-positions-array" count="660">-7.50013e-4 1.49998e-4 0.01995289 -7.50013e-4 1.49998e-4 0.02984994 -8.25055e-4 7.49977e-5 0.02992498 -9.00038e-4 0 0.02008378 -0.002484619 1.49998e-4 0.01946139 -7.50013e-4 0.003128647 0.02334219 -7.50013e-4 0.002572536 0.02440172 -7.50013e-4 0.004113376 0.02266246 -7.50013e-4 0.005301237 0.02251821 -7.50013e-4 0.009849905 0.01995289 -0.007199943 0.003128647 0.02334219 -0.007199943 0.004113376 0.02266246 -7.50013e-4 0.002572536 0.02559828 -0.007199943 0.002572536 0.02440172 -0.007499992 0.002477228 0.02378511 -0.007499992 0.003254115 0.02281087 -0.007199943 0.005301237 0.02251821 -0.007499992 0.004376828 0.0222702 -0.007499992 0.009849905 0.004937887 -0.007499992 1.49998e-4 -0.01984995 -0.007499992 1.49998e-4 0.02984994 -0.007499992 0.002199888 0.02499997 -0.00742495 7.49977e-5 -0.01992493 -0.007499992 0.01984989 -0.01984995 -0.007499992 0.01984989 -0.005062043 -0.00742495 0.01992493 -0.01992493 -0.007349967 0.01999998 -0.004999935 -0.007349967 0.00999993 0.004999995 -0.007349967 0.01999998 -0.01984995 0.007349908 0.01999998 -0.004999935 0.007349908 0.01999998 -0.01984995 0.007349908 0.00999993 0.004999995 0.007499933 0.01984989 -0.005062043 0.00742495 0.01992493 -0.01992493 -0.007349967 0.01984989 -0.01999992 0.007349908 0.01984989 -0.01999992 0.007499933 0.01984989 -0.01984995 0.007499933 1.49998e-4 -0.01984995 0.00742495 7.49977e-5 -0.01992493 0.007499933 0.009849905 0.004937887 0.007499933 1.49998e-4 0.02984994 0.007499933 0.002477228 0.02378511 0.007499933 0.003254115 0.02281087 0.007499933 0.002199888 0.02499997 0.007199943 0.002572536 0.02440172 0.007199943 0.003128647 0.02334219 0.007499933 0.004376828 0.0222702 0.007199943 0.004113376 0.02266246 7.49998e-4 0.004113376 0.02266246 7.49998e-4 0.003128647 0.02334219 0.007199943 0.002572536 0.02559828 7.49998e-4 0.002572536 0.02440172 7.49998e-4 1.49998e-4 0.01995289 7.49998e-4 0.005301237 0.02251821 0.007199943 0.005301237 0.02251821 7.49998e-4 0.006420075 0.02294254 7.49998e-4 0.009849905 0.01995289 0.007499933 0.005622982 0.0222702 0.007199943 0.006420075 0.02294254 7.49998e-4 0.007213532 0.02383816 0.007499933 0.006745696 0.02281087 0.007199943 0.007213532 0.02383816 0.007499933 0.007522642 0.02378511 0.007199943 0.007499933 0.02499997 7.49998e-4 0.007499933 0.02499997 7.49998e-4 0.009849905 0.02984994 7.49998e-4 0.007213532 0.02616178 0.007499933 0.007799923 0.02499997 0.007499933 0.007522642 0.02621489 0.007199943 0.007213532 0.02616178 0.007499933 0.009849905 0.02984994 0.007499933 0.006745696 0.02718913 0.007199943 0.006420075 0.02705746 7.49998e-4 0.006420075 0.02705746 7.49998e-4 0.005301237 0.02748179 0.007499933 0.005622982 0.0277298 0.007199943 0.005301237 0.02748179 0.007499933 0.004376828 0.0277298 0.007199943 0.004113376 0.02733755 7.49998e-4 0.004113376 0.02733755 7.49998e-4 1.49998e-4 0.02984994 7.49998e-4 0.003128647 0.02665781 0.007499933 0.003254115 0.02718913 0.007199943 0.003128647 0.02665781 0.007499933 0.002477228 0.02621489 7.49998e-4 0.002572536 0.02559828 0.00742495 7.49977e-5 0.02992498 0.00742495 0.009924888 0.02992498 0.007349908 0.00999993 0.02984994 0.005727231 0.00999993 0.0117594 0.006133317 0.00999993 0.01354879 0.004811346 0.00999993 0.0101695 0.003467142 0.00999993 0.00892049 0.001814246 0.00999993 0.008123695 0 0.00999993 0.007849991 0.003403842 0.009849905 0.009059011 0.004718005 0.009849905 0.0102933 0.001782357 0.009849905 0.008270919 0 0.009849905 0.008000016 -0.001814365 0.00999993 0.008123695 -0.001782476 0.009849905 0.008270919 -0.001782476 1.49998e-4 0.008270919 0 1.49998e-4 0.008000016 0.001782357 1.49998e-4 0.008270919 0.003403842 1.49998e-4 0.009059011 0.001814246 0 0.008123695 0 0 0.007849991 -0.001814365 0 0.008123695 0.003467142 0 0.00892049 0.004811346 0 0.0101695 0.004718005 1.49998e-4 0.0102933 0.007349908 0 -0.01984995 -0.007349967 0 -0.01984995 -0.003467202 0 0.00892049 -0.003403961 1.49998e-4 0.009059011 -0.003403961 0.009849905 0.009059011 -0.004811406 0 0.0101695 -0.004718124 1.49998e-4 0.0102933 -0.004718124 0.009849905 0.0102933 -0.004811406 0.00999993 0.0101695 -0.003467202 0.00999993 0.00892049 -0.00572735 0.00999993 0.0117594 -0.005606293 0.009849905 0.01186227 -0.006133437 0.00999993 0.01354879 -0.00742495 0.009924888 0.02992498 -0.007349967 0.00999993 0.02984994 -0.00598824 0.009849905 0.01362431 -0.005993604 0.00999993 0.01537829 -0.005606293 1.49998e-4 0.01186227 -0.00598824 1.49998e-4 0.01362431 -0.005829513 0.009849905 0.01542019 -0.005320191 0.00999993 0.01708519 -0.005144476 0.009849905 0.01708781 -0.005829513 1.49998e-4 0.01542019 -0.006133437 0 0.01354879 -0.00572735 0 0.0117594 -0.005993604 0 0.01537829 -0.007349967 0 0.02984994 -0.005144476 1.49998e-4 0.01708781 -0.005320191 0 0.01708519 -0.004173219 0 0.01851737 -0.003994882 1.49998e-4 0.01847672 -0.003994882 0.009849905 0.01847672 -0.00265479 0 0.01954752 -9.00038e-4 0 0.02984994 -0.002484619 0.009849905 0.01946139 -0.00265479 0.00999993 0.01954752 -0.004173219 0.00999993 0.01851737 -9.00038e-4 0.00999993 0.02008378 -9.00038e-4 0.00999993 0.02984994 -0.00742495 7.49977e-5 0.02992498 0.007349908 1.49998e-4 -0.01999992 -0.007349967 1.49998e-4 -0.01999992 0.007349908 0 0.02984994 0.005727231 0 0.0117594 0.006133317 0 0.01354879 0.005606234 1.49998e-4 0.01186227 0.005988121 1.49998e-4 0.01362431 0.005993545 0 0.01537829 0.005606234 0.009849905 0.01186227 0.005988121 0.009849905 0.01362431 0.005829393 1.49998e-4 0.01542019 0.005320131 0 0.01708519 0.005144298 1.49998e-4 0.01708781 0.005829393 0.009849905 0.01542019 0.005993545 0.00999993 0.01537829 0.005320131 0.00999993 0.01708519 0.005144298 0.009849905 0.01708781 0.004173099 0 0.01851737 0.003994822 1.49998e-4 0.01847672 0.002654731 0 0.01954752 8.99963e-4 0 0.02984994 0.0024845 1.49998e-4 0.01946139 0.003994822 0.009849905 0.01847672 0.004173099 0.00999993 0.01851737 0.002654731 0.00999993 0.01954752 0.0024845 0.009849905 0.01946139 8.99963e-4 0 0.02008378 8.2498e-4 7.49977e-5 0.02992498 8.99963e-4 0.00999993 0.02008378 8.2498e-4 0.009924888 0.02992498 8.99963e-4 0.00999993 0.02984994 0.007349908 1.49998e-4 0.02999997 0.007349908 0.009849905 0.02999997 8.99963e-4 1.49998e-4 0.02999997 8.99963e-4 0.009849905 0.02999997 -0.007499992 0.009849905 0.02984994 -0.007499992 0.002477228 0.02621489 -0.007499992 0.003254115 0.02718913 -0.007499992 0.004376828 0.0277298 -0.007199943 0.002572536 0.02559828 -0.007199943 0.003128647 0.02665781 -7.50013e-4 0.003128647 0.02665781 -0.007199943 0.004113376 0.02733755 -7.50013e-4 0.004113376 0.02733755 -0.007199943 0.005301237 0.02748179 -7.50013e-4 0.005301237 0.02748179 -7.50013e-4 0.009849905 0.02984994 -7.50013e-4 0.006420075 0.02705746 -0.007499992 0.005622982 0.0277298 -0.007199943 0.006420075 0.02705746 -7.50013e-4 0.007213532 0.02616178 -0.007499992 0.006745696 0.02718913 -0.007199943 0.007213532 0.02616178 -0.007499992 0.007522642 0.02621489 -0.007199943 0.007499933 0.02499997 -7.50013e-4 0.007499933 0.02499997 -7.50013e-4 0.007213532 0.02383816 -8.25055e-4 0.009924888 0.02992498 -7.50013e-4 0.006420075 0.02294254 -0.007199943 0.007213532 0.02383816 -0.007199943 0.006420075 0.02294254 -0.007499992 0.006745696 0.02281087 -0.007499992 0.005622982 0.0222702 -0.007499992 0.007522642 0.02378511 -0.007499992 0.007799923 0.02499997 -9.00038e-4 0.009849905 0.02999997 -0.007349967 0.009849905 0.02999997 -9.00038e-4 1.49998e-4 0.02999997 -0.007349967 1.49998e-4 0.02999997</float_array>
          <technique_common>
            <accessor source="#shape0_018-mesh-positions-array" count="220" stride="3">
              <param name="X" type="float"/>
              <param name="Y" type="float"/>
              <param name="Z" type="float"/>
            </accessor>
          </technique_common>
        </source>
        <source id="shape0_018-mesh-normals">
          <float_array id="shape0_018-mesh-normals-array" count="1086">0.7069101 -0.7073034 0 0.7070491 -0.7071645 2.09442e-6 0.182273 -0.7436121 -0.6432865 1 0 0 1 0 0 1 0 0 1 1.19977e-7 0 0.2726157 0 -0.962123 0 0.8854473 0.46474 0 0.5680776 0.8229751 0 0.5680778 0.822975 0 0.8854472 0.46474 0 1 0 -0.7775493 0.5567882 0.2922396 -0.6136572 0.6173254 0.4922745 -0.7733802 0.3601288 0.5217187 -0.7661441 0.07746905 0.6379826 -0.6232645 0.3393036 0.7045669 0 0.120544 0.9927081 -1 0 0 -1 6.35288e-6 0 -1 -3.14524e-7 0 -0.6086853 0.7735115 0.1765851 -0.7071102 -0.7071034 0 -0.7072306 0 -0.706983 -0.7072305 0 -0.706983 -0.7072306 0 -0.706983 -0.7070478 0.7071658 0 -0.7070478 0.7071658 0 -0.7070478 0.7071658 0 -0.7070035 0 -0.7072101 -1 0 0 -0.7071759 0.7070377 1.07938e-6 -0.7071129 0.4999933 0.4999983 -0.7071188 0.4999932 0.4999898 -0.7070574 0.7071561 0 0 0.7071067 0.7071069 0 0.7070401 -0.7071735 0 0.7071068 0.7071068 0.7070747 0.5000202 0.5000252 0.7071275 0.7070861 2.59034e-6 0.7071054 0.7071082 0 0.7071053 0.7071082 0 0.7071055 0.7071082 0 0 0.7070643 -0.7071493 0 0.7072159 -0.7069978 0 0.7072159 -0.7069978 0 0.7072159 -0.7069978 0 0.7068875 -0.707326 0.7070429 0.7071707 0 0.7070429 0.7071707 0 0.7070429 0.7071707 0 0.7070841 0 -0.7071295 0.7071016 0 -0.707112 0.7068678 0 -0.7073457 0.7070621 0.5000342 0.5000291 1 0 0 0.7072058 -0.7070078 0 0.7775593 0.556778 0.2922326 0.6086986 0.7735014 0.1765832 0.6136695 0.6173185 0.492268 0.6232767 0.3392998 0.7045579 0.7733895 0.3601218 0.5217097 0 0.5680776 0.8229751 0 0.8854472 0.4647401 0 0.5680778 0.8229749 0.7789575 0.6270768 0 0 0.8854472 0.46474 0 0.120544 0.992708 0.7661551 0.07746797 0.6379696 0 0.120544 0.992708 -1 0 0 0 -0.3546077 0.9350153 0.6371821 0 0.7707133 0.7555442 -0.2323025 0.6125265 0 -0.3546079 0.9350151 -1 0 0 0 -0.7485083 0.6631255 0.7410051 -0.5026228 0.4452884 0.654814 -0.3279269 0.6809425 0 -0.7485088 0.6631249 0.6753992 -0.5765583 0.4598006 0.7217553 -0.6720305 0.1656638 0 -0.9709343 0.2393465 -1 0 0 0 -0.9709343 -0.2393462 0.6980757 -0.698074 -0.1593205 0.6980757 -0.6980721 0.1593288 0.7217741 -0.6720113 -0.1656596 0 -0.9709343 -0.2393462 1 -3.61391e-6 0 1 2.84944e-7 0 0.6754441 -0.5765262 -0.4597749 0.7410112 -0.5026324 -0.4452675 0 -0.74853 -0.663101 0 -0.7485295 -0.6631015 -1 0 0 0 -0.3546093 -0.9350147 0.6548149 -0.3279269 -0.6809415 0.7555469 -0.2323017 -0.6125233 0 -0.354609 -0.9350147 1 7.79725e-7 0 0.6371821 0 -0.7707133 0.7661563 0.07746899 -0.637968 0 0.1205455 -0.9927078 0 0.1205456 -0.9927078 -1 0 0 0 0.5680776 -0.8229751 0.6232779 0.3392994 -0.7045571 0.7733908 0.3601205 -0.5217085 0 0.5680778 -0.8229749 0.6136766 0.6173141 -0.4922645 0.7775585 0.5567784 -0.2922341 0 0.8854469 -0.4647408 0 0.8854469 -0.4647407 -1 -3.1375e-7 0 0.608688 0.7735113 -0.1765763 0.7072013 -0.7070122 0 0.7072213 0 0.7069923 0.7072141 0 0.7069996 0.7071237 0.7070899 0 0.7071172 0.7070963 0 0.707112 0.7071015 0 0 1 3.22028e-7 0 1 -4.14785e-7 0 1 7.59979e-7 -0.4901518 0.693896 0.5275031 -0.6278962 0.6891371 0.3617132 -0.4774979 0.7166099 0.5083956 -0.3068047 0.712324 0.6312412 -0.3107205 0.6985628 0.644564 -0.1060724 0.7031322 0.7031031 -0.106137 0.7078442 0.6983491 0.1060693 0.7031343 0.7031013 0.1502537 0 0.9886476 -0.1502585 0 0.9886468 0.1061339 0.7078463 0.6983475 -0.4371391 0 0.899394 -0.4371391 0 0.8993939 -0.1061285 -0.7079061 0.6982877 -0.1060629 -0.7031899 0.7030468 0.1060595 -0.70319 0.7030472 0.1061251 -0.7079062 0.6982882 -0.3106943 -0.6986184 0.6445165 -0.3067795 -0.7123847 0.631185 -0.4774565 -0.7166683 0.508352 -0.4901131 -0.6939556 0.5274608 -0.6846098 0 0.7289099 0 -1 0 0 -1 0 0 -1 0 0 -1 0 0.310703 -0.6986179 0.6445128 0.3068057 -0.712324 0.6312406 0.4371382 0 0.8993944 0.4901781 -0.6938552 0.5275325 0 -1 0 0.4775207 -0.716576 0.5084221 0.6846089 0 0.7289106 0.6846085 0 0.7289111 0.4775615 0.7165176 0.5084659 0.4902182 0.6937971 0.5275715 0.3068314 0.7122646 0.6312952 0.3107286 0.6985611 0.6445621 0 1 7.18995e-7 0.6278035 0.6892547 0.3616503 0.6278035 0.6892547 0.3616502 0 1 -4.14771e-7 0.8702397 0 0.4926285 0.6031628 0.7208409 0.3414427 0.7110331 0.6843937 0.1613604 0 1 6.44066e-7 -0.707164 0.7070497 8.15971e-7 -0.7073107 0.7069028 0 0.6731675 0.7249504 0.1459193 0.7313651 0.6796914 -0.05589926 0.9773033 0 0.2118452 0.8702397 0 0.4926285 0.9773033 0 0.2118452 0.9961169 0 -0.08804011 0.6818774 0.7289795 -0.06026685 0.686305 0.6750351 -0.2707638 0.9249963 0 -0.3799763 0.9961169 0 -0.08804011 0.6294725 0.7327356 -0.2585788 0.733109 -0.6770176 -0.06479465 0.6731095 -0.7250069 0.1459065 0.603111 -0.7208991 0.3414112 0.710977 -0.6844547 0.1613493 0.6279394 -0.6890736 0.3617592 0.6809982 -0.7304331 -0.05205005 0 -1 0 0.6855828 -0.6713137 -0.2816279 0.9249965 0 -0.3799757 0.6309697 -0.7347856 -0.2489327 0.5791855 -0.6703668 -0.4638456 0.5211238 -0.736466 -0.4313328 0.7703519 0 -0.6376191 0.7703526 0 -0.6376183 0.4190176 -0.6655544 -0.6176258 0 -1 0 0.3672775 -0.7401208 -0.5633192 0.5461586 0 -0.8376818 0.3673108 0.7400644 -0.5633717 0.4190486 0.6654939 -0.6176699 0.5211703 0.7364085 -0.4313748 0.5792295 0.6703056 -0.4638789 0.2193433 0.6608541 -0.7177467 0.1822909 0.7435564 -0.6433459 0.2193279 -0.6609162 -0.7176943 0.7071859 -0.7070276 0 0 -0.7071129 0.7071007 0 -0.7071127 0.7071009 -0.7071078 -0.7071059 0 -0.7071009 -0.7071127 0 0 -0.7070601 -0.7071534 0 -0.7070601 -0.7071535 0 -0.7070075 -0.7072061 -0.7071077 -0.7071059 0 -0.7070704 0 -0.7071432 0 -0.7070074 -0.7072062 0.707158 -0.7070556 0 0.707158 -0.7070556 0 0.707158 -0.7070556 0 0.7069132 -0.7073004 0 0.7068719 0 -0.7073416 -0.7111063 -0.6843132 0.1613798 -0.6278472 -0.6891967 0.3616847 -0.6031968 -0.720793 0.3414838 -0.6731094 -0.7250114 0.1458848 -0.7312971 -0.6797667 -0.05587333 -0.8702248 0 0.4926548 -0.870225 0 0.4926548 -0.9773098 0 0.2118151 -0.6846103 0 0.7289094 -0.6032487 0.7207347 0.3415152 -0.7111623 0.6842518 0.1613927 -0.6731681 0.7249543 0.1458969 -0.6816826 -0.7291631 -0.06025063 -0.9961168 0 -0.0880419 -0.6861299 -0.6752413 -0.2706936 -0.6291874 -0.7330147 -0.2584818 -0.9961168 0 -0.0880419 -0.9249857 0 -0.380002 -0.6817434 0.7291058 -0.06025594 -0.7313532 0.6797061 -0.05587738 -0.6861809 0.6751807 -0.2707155 -0.924986 0 -0.3800014 -0.6292434 0.7329589 -0.2585035 -0.5790065 -0.6706044 -0.4637256 -0.5212158 -0.7363817 -0.4313655 -0.7703835 0 -0.6375809 -0.4190708 -0.66547 -0.6176806 0 -1 0 -0.3672325 -0.7401798 -0.563271 -0.7703841 0 -0.6375801 -0.5461444 0 -0.8376911 -0.5210646 0.7365539 -0.4312542 -0.5210646 0.7365538 -0.4312542 -0.5210647 0.7365539 -0.4312542 -0.5790494 0.6705427 -0.463761 0 1 -4.14618e-7 -0.4191018 0.6654099 -0.6177243 -0.5461444 0 -0.8376911 -0.3672658 0.7401233 -0.5633235 -0.2193104 -0.6609593 -0.71766 -0.1822883 -0.7435812 -0.6433181 -0.2726244 0 -0.9621205 -0.7071881 -0.7070255 0 0 -0.7071128 0.7071008 -0.7071911 -0.7070226 0 -0.7071923 -0.7070213 0 -1 0 0 -0.2193254 0.6608963 -0.7177135 -0.1823067 0.7435277 -0.6433746 -0.7069117 0.7073019 -2.66661e-6 -0.7069117 0.7073019 -2.63434e-6 -0.7069118 0.7073019 -2.68574e-6 -0.7071105 0.7071031 0 -0.7073877 0.7068259 0 0 0.7071448 0.7070688 0 0.7071448 0.7070688 0 0.7071448 0.7070688 0 0.7071484 0.7070652 0 0.7071484 0.7070652 0 0.7071484 0.7070652 0.7068941 0 0.7073195 0.7069076 0 0.7073059 0 0.7071897 0.7070239 0 -0.7071042 0.7071095 0 0 1 0 -0.7071041 0.7071095 -0.7071799 0 0.7070338 0 0.7071895 0.7070242 -0.707173 0 0.7070406 -0.7072331 0 0.7069805 -0.7071842 0 0.7070294 0 0 -1 -0.7070468 0 -0.7071668 -0.7071475 0 0.7070661 -0.7070987 0 0.707115 -0.7775477 0.5567901 -0.2922402 -0.6086747 0.7735214 -0.1765782 -0.6136645 0.617321 -0.492271 -0.7789482 0.6270883 0 0 0.885447 -0.4647406 -0.7733818 0.3601276 -0.5217171 0 0.5680776 -0.8229751 0 0.5680778 -0.822975 -0.6232656 0.3393032 -0.7045661 -0.7661474 0.07746976 -0.6379786 0 0.1205456 -0.9927079 0 0.1205456 -0.9927079 0.7069294 0 0.7072841 0 -0.3546088 -0.9350148 -0.6371697 0 -0.7707237 -0.7555363 -0.2323063 -0.6125347 0 -0.3546093 -0.9350146 1 0 0 0 -0.7485298 -0.6631013 -0.7410011 -0.50264 -0.4452759 -0.654803 -0.3279306 -0.6809512 0 -0.7485297 -0.6631013 -0.6754323 -0.5765341 -0.4597821 -0.7217596 -0.6720262 -0.165662 0 -0.9709343 -0.2393464 0 -0.9709343 -0.2393463 1 0 0 1 0 0 0 -0.9709342 0.2393467 0.7069221 0 0.7072916 0.7068285 0.7073851 0 1 0 0 0.7071083 0.7071053 4.21891e-6 0 -0.7485085 0.6631252 0 -0.7485085 0.6631253 0 -0.3546081 0.9350152 0 0.1205441 0.992708 0 -0.3546074 0.9350154 -0.7409936 -0.5026323 0.445297 -0.6548021 -0.3279306 0.6809521 -0.755535 -0.2323065 0.6125363 -0.6753868 -0.5765675 0.4598073 -0.7217459 -0.6720398 0.1656669 -1 -1.72104e-6 0 -0.6371697 0 0.7707237 -0.7070241 0.7071895 0 -0.6980632 -0.6980841 0.1593312 -0.698065 -0.6980841 -0.1593233 0 0.7071872 0.7070264 0 0.7069138 0.7072998 0 0.7071874 0.7070261 -0.7070896 0 0.7071241 0.7071776 0 0.7070359 0.7071708 0 0.7070428 0 0.7071465 0.7070671 0 0.7071465 0.7070671 0 0.7071465 0.7070671 0.7073853 0.7068282 0 0 -0.707104 0.7071095 0 -0.707104 0.7071096 -0.7070964 0 0.7071171</float_array>
          <technique_common>
            <accessor source="#shape0_018-mesh-normals-array" count="362" stride="3">
              <param name="X" type="float"/>
              <param name="Y" type="float"/>
              <param name="Z" type="float"/>
            </accessor>
          </technique_common>
        </source>
        <vertices id="shape0_018-mesh-vertices">
          <input semantic="POSITION" source="#shape0_018-mesh-positions"/>
        </vertices>
        <triangles material="Material_007-material" count="444">
          <input semantic="VERTEX" source="#shape0_018-mesh-vertices" offset="0"/>
          <input semantic="NORMAL" source="#shape0_018-mesh-normals" offset="1"/>
          <p>0 0 1 0 2 0 3 1 0 1 2 1 0 2 3 2 4 2 0 3 5 3 6 3 1 4 0 4 6 4 7 5 5 5 0 5 8 6 7 6 0 6 9 5 8 5 0 5 0 7 4 7 9 7 5 8 10 8 6 8 11 9 10 9 5 9 7 10 11 10 5 10 12 5 1 5 6 5 13 11 6 11 10 11 6 12 13 12 12 12 10 13 14 13 13 13 15 14 14 14 10 14 11 15 15 15 10 15 16 16 17 16 11 16 15 17 11 17 17 17 11 18 7 18 16 18 15 19 17 19 18 19 19 19 15 19 18 19 15 19 19 19 14 19 14 20 20 20 21 20 19 21 20 21 14 21 21 22 13 22 14 22 20 23 19 23 22 23 19 24 23 25 22 26 19 19 18 19 23 19 23 27 24 28 25 29 23 30 25 30 22 30 18 31 24 31 23 31 24 32 26 32 25 32 24 33 18 33 27 33 26 34 24 34 27 34 28 12 26 12 29 12 28 35 25 35 26 35 26 36 27 36 29 36 28 37 30 37 25 37 30 12 28 12 29 12 27 38 31 38 29 38 32 39 29 39 31 39 29 40 32 40 33 40 30 41 29 42 33 43 30 44 33 44 25 44 34 45 25 46 33 47 35 48 34 48 33 48 32 49 36 50 33 51 37 52 38 52 33 52 36 53 37 53 33 53 35 54 33 54 38 54 39 55 32 55 31 55 39 56 36 56 32 56 39 5 37 5 36 5 37 57 40 57 38 57 41 5 37 5 42 5 40 5 37 5 41 5 39 5 42 5 37 5 43 5 40 5 41 5 44 58 41 58 45 58 43 59 41 59 44 59 42 60 45 60 41 60 46 5 42 5 39 5 42 61 46 61 47 61 45 62 42 62 47 62 45 63 47 63 48 63 45 64 49 64 44 64 49 65 45 65 48 65 50 66 43 66 44 66 51 67 44 67 49 67 50 12 44 12 51 12 49 19 48 19 52 19 49 19 52 19 51 19 48 19 53 19 52 19 48 68 47 68 53 68 47 69 46 69 54 69 54 70 53 70 47 70 53 71 55 71 56 71 52 19 53 19 56 19 53 72 54 72 55 72 57 73 54 73 46 73 54 74 57 74 58 74 54 75 58 75 55 75 55 76 59 76 56 76 55 77 58 77 59 77 58 78 60 78 61 78 57 79 60 79 58 79 61 80 59 80 58 80 57 5 46 5 39 5 60 5 57 5 39 5 62 5 60 5 39 5 62 81 61 81 60 81 61 82 62 82 63 82 61 83 63 83 64 83 59 83 61 83 64 83 56 19 59 19 64 19 65 84 56 84 64 84 66 19 65 19 64 19 64 85 63 85 66 85 63 86 67 86 68 86 62 87 67 87 63 87 63 88 68 88 69 88 63 89 69 89 66 89 62 90 39 90 67 90 67 5 70 5 68 5 39 91 70 91 67 91 71 5 68 5 70 5 68 92 71 92 69 92 69 93 71 93 72 93 66 94 69 94 73 94 72 95 73 95 69 95 66 96 73 96 65 96 73 19 74 19 65 19 73 97 72 97 74 97 75 98 72 98 71 98 72 99 75 99 76 99 72 100 76 100 74 100 75 101 71 101 70 101 40 5 75 5 70 5 77 5 75 5 40 5 75 102 77 102 76 102 76 103 77 103 78 103 74 104 76 104 79 104 78 105 79 105 76 105 74 106 79 106 80 106 65 19 74 19 80 19 79 19 81 19 80 19 79 107 78 107 81 107 82 108 78 108 77 108 78 109 82 109 83 109 78 110 83 110 81 110 82 5 77 5 40 5 84 5 82 5 40 5 82 111 84 111 83 111 83 112 84 112 50 112 81 113 83 113 85 113 50 114 85 114 83 114 81 19 85 19 80 19 51 115 80 115 85 115 85 12 50 12 51 12 43 116 50 116 84 116 43 5 84 5 40 5 40 117 86 117 38 117 40 118 70 118 86 118 70 119 87 119 86 119 70 120 39 120 87 120 39 121 31 121 87 121 88 122 87 122 31 122 89 123 90 123 31 123 91 124 89 124 31 124 92 12 91 12 31 12 93 125 92 125 31 125 94 12 93 12 31 12 27 12 94 12 31 12 31 12 90 12 88 12 91 126 92 126 95 126 91 127 96 127 89 127 96 128 91 128 95 128 95 129 92 129 97 129 93 130 97 130 92 130 93 131 94 131 98 131 97 132 93 132 98 132 94 133 99 133 98 133 99 12 94 12 27 12 98 134 100 134 101 134 98 135 102 135 97 135 102 134 98 134 101 134 98 136 99 136 100 136 97 137 103 137 104 137 95 138 97 138 104 138 102 135 103 135 97 135 102 139 105 139 103 139 106 140 105 140 102 140 107 141 106 141 102 141 101 142 107 142 102 142 108 143 103 143 105 143 103 144 108 144 104 144 104 145 109 145 110 145 108 146 109 146 104 146 110 147 95 147 104 147 108 148 105 148 111 148 109 149 108 149 111 149 105 148 106 148 111 148 106 150 107 150 112 150 111 151 106 151 112 151 107 152 101 152 113 152 107 148 113 148 112 148 114 153 113 153 101 153 100 154 115 154 101 154 101 154 115 154 114 154 116 155 113 155 114 155 113 156 116 156 112 156 117 157 116 157 114 157 114 158 118 158 117 158 115 159 118 159 114 159 115 160 119 160 118 160 120 161 119 161 115 161 100 162 120 162 115 162 120 163 100 163 99 163 120 12 99 12 27 12 119 164 120 164 27 164 121 165 118 166 119 166 121 167 119 167 27 167 122 168 117 168 118 168 118 169 121 169 122 169 121 170 123 170 122 170 123 171 121 171 27 171 27 172 18 172 124 172 125 173 27 173 124 173 125 12 123 12 27 12 122 174 123 174 126 174 127 175 126 175 123 175 127 12 123 12 125 12 122 176 126 176 128 176 117 177 122 177 128 177 128 178 126 178 129 178 130 179 129 179 126 179 126 180 127 180 130 180 127 181 131 181 130 181 131 12 127 12 125 12 130 182 132 182 133 182 129 183 130 183 133 183 130 184 131 184 132 184 129 185 133 185 134 185 129 186 134 186 128 186 128 187 135 187 117 187 134 188 135 188 128 188 116 189 117 189 135 189 135 148 134 148 112 148 116 148 135 148 112 148 134 190 133 190 136 190 134 191 136 191 137 191 112 148 134 148 137 148 138 192 136 192 133 192 133 193 132 193 138 193 139 194 136 194 138 194 136 148 139 148 137 148 140 195 139 195 138 195 141 196 140 196 138 196 142 197 138 197 132 197 138 198 142 198 141 198 139 148 140 148 137 148 140 199 141 199 143 199 137 200 140 200 144 200 143 148 144 148 140 148 4 201 143 201 141 201 141 202 145 202 4 202 142 202 145 202 141 202 142 203 146 203 145 203 147 204 146 204 142 204 132 205 147 205 142 205 147 206 132 206 131 206 147 12 131 12 125 12 146 12 147 12 125 12 148 207 145 207 146 207 149 12 148 12 146 12 149 12 146 12 125 12 9 7 4 7 145 7 9 208 145 208 148 208 3 209 143 209 4 209 144 210 3 210 2 210 3 148 144 148 143 148 2 211 150 211 144 211 137 212 144 212 150 212 137 213 150 213 22 213 112 214 137 214 22 214 151 215 38 215 22 215 152 216 151 216 22 216 112 217 22 217 38 217 150 218 20 218 22 218 22 219 25 219 152 219 111 220 112 220 38 220 86 221 153 222 38 223 111 224 38 224 153 224 151 225 35 225 38 225 154 148 109 148 111 148 155 148 154 148 111 148 153 148 155 148 111 148 154 226 155 226 156 226 154 227 110 227 109 227 110 228 154 228 156 228 156 229 155 229 157 229 158 230 157 230 155 230 158 148 155 148 153 148 156 231 96 231 110 231 159 232 96 232 156 232 157 233 159 233 156 233 95 234 110 234 96 234 159 235 89 235 96 235 159 233 157 233 160 233 90 236 89 236 159 236 160 237 90 237 159 237 157 238 158 238 161 238 161 239 160 239 157 239 158 240 162 240 161 240 162 148 158 148 153 148 161 241 162 241 163 241 164 242 160 242 161 242 163 243 164 243 161 243 164 244 165 244 160 244 90 245 160 245 165 245 90 12 165 12 88 12 166 246 165 246 164 246 165 12 166 12 88 12 164 247 163 247 167 247 167 248 166 248 164 248 168 249 163 249 162 249 163 250 168 250 169 250 169 251 167 251 163 251 168 148 162 148 153 148 168 252 170 252 169 252 170 148 168 148 171 148 171 253 168 253 153 253 169 254 170 254 172 254 173 255 167 255 169 255 172 256 173 256 169 256 173 257 174 258 167 259 166 260 167 260 174 260 166 261 174 261 88 261 175 262 174 262 173 262 174 12 175 12 88 12 173 263 172 263 176 263 176 264 175 264 173 264 177 265 172 265 170 265 52 266 172 266 177 266 52 267 176 267 172 267 177 148 170 148 171 148 177 268 171 268 178 268 171 269 153 269 178 269 52 270 177 270 178 270 80 271 52 271 178 271 56 267 176 267 52 267 52 272 80 272 51 272 179 273 175 273 176 273 56 274 179 274 176 274 179 275 56 276 180 277 65 278 180 278 56 278 181 279 179 279 180 279 179 12 181 12 175 12 181 280 180 281 87 282 88 283 181 284 87 285 175 12 181 12 88 12 87 286 182 286 86 286 183 287 182 287 87 287 183 288 87 288 180 288 182 289 184 289 86 289 184 290 182 290 183 290 184 291 178 291 86 291 153 212 86 212 178 212 184 292 185 292 178 292 185 290 184 290 183 290 185 293 183 293 180 293 185 294 180 294 178 294 178 295 180 295 80 295 65 296 80 296 180 296 34 297 35 297 151 297 34 298 152 298 25 298 152 297 34 297 151 297 20 299 150 299 124 299 186 300 20 300 124 300 187 19 21 19 20 19 188 19 187 19 20 19 189 19 188 19 20 19 186 19 189 19 20 19 190 301 187 301 191 301 21 302 187 302 190 302 188 303 191 303 187 303 13 304 21 304 190 304 12 305 190 305 192 305 13 12 190 12 12 12 191 114 192 114 190 114 191 306 188 306 193 306 191 307 193 307 194 307 192 308 191 308 194 308 188 309 189 309 193 309 193 310 189 310 195 310 194 311 193 311 196 311 195 312 196 312 193 312 194 5 196 5 1 5 192 5 194 5 1 5 12 5 192 5 1 5 1 313 197 313 2 313 1 5 196 5 197 5 196 5 198 5 197 5 196 314 195 314 198 314 199 315 195 315 189 315 195 316 199 316 200 316 195 317 200 317 198 317 198 318 201 318 197 318 198 319 200 319 201 319 200 320 202 320 203 320 199 321 202 321 200 321 203 322 201 322 200 322 199 19 189 19 186 19 202 19 199 19 186 19 204 19 202 19 186 19 204 323 203 323 202 323 203 324 204 324 205 324 203 325 205 325 206 325 201 326 203 326 206 326 206 327 197 327 201 327 9 328 197 328 206 328 207 5 9 5 206 5 206 329 205 329 207 329 197 330 208 330 2 330 197 331 9 331 208 331 209 332 8 332 9 332 207 5 209 5 9 5 9 333 148 333 208 333 207 334 210 334 209 334 205 329 210 329 207 329 211 335 209 335 210 335 209 336 211 336 8 336 8 337 16 337 7 337 211 338 16 338 8 338 210 339 212 339 211 339 213 340 211 340 212 340 211 341 213 341 16 341 214 342 212 342 210 342 205 343 214 343 210 343 212 344 214 344 18 344 213 19 212 19 18 19 17 19 213 19 18 19 213 345 17 345 16 345 18 346 186 346 124 346 18 19 214 19 215 19 186 19 18 19 215 19 205 347 215 347 214 347 204 348 215 348 205 348 204 19 186 19 215 19 124 349 216 349 208 349 125 350 124 350 208 350 217 351 216 351 124 351 217 352 124 352 150 352 216 353 218 353 208 353 216 290 217 290 219 290 218 290 216 290 219 290 218 354 2 354 208 354 149 355 125 356 208 357 148 358 149 358 208 358 218 359 219 359 2 359 219 360 150 360 2 360 219 361 217 361 150 361</p>
        </triangles>
      </mesh>
    </geometry>
  </library_geometries>
  <library_visual_scenes>
    <visual_scene id="Scene" name="Scene">
      <node id="node" name="node" type="NODE">
        <matrix sid="transform">1 0 0 0 0 7.54979e-8 -1 0 0 1 7.54979e-8 0 0 0 0 1</matrix>
        <instance_geometry url="#shape0_018-mesh" name="node">
          <bind_material>
            <technique_common>
              <instance_material symbol="Material_007-material" target="#Material_007-material"/>
            </technique_common>
          </bind_material>
        </instance_geometry>
      </node>
    </visual_scene>
  </library_visual_scenes>
  <scene>
    <instance_visual_scene url="#Scene"/>
  </scene>
</COLLADA>