<?xml version="1.0" encoding="utf-8"?>
<COLLADA xmlns="http://www.collada.org/2005/11/COLLADASchema" version="1.4.1" xmlns:xsi="http://www.w3.org/2001/XMLSchema-instance">
  <asset>
    <contributor>
      <author>Blender User</author>
      <authoring_tool>Blender 4.0.2 commit date:2023-12-05, commit time:07:41, hash:9be62e85b727</authoring_tool>
    </contributor>
    <created>2024-02-07T16:29:59</created>
    <modified>2024-02-07T16:29:59</modified>
    <unit name="meter" meter="1"/>
    <up_axis>Z_UP</up_axis>
  </asset>
  <library_effects>
    <effect id="Material_006-effect">
      <profile_COMMON>
        <technique sid="common">
          <lambert>
            <emission>
              <color sid="emission">0 0 0 1</color>
            </emission>
            <diffuse>
              <color sid="diffuse">0.002673087 0.002673087 0.002673087 1</color>
            </diffuse>
            <reflectivity>
              <float sid="specular">0.5</float>
            </reflectivity>
          </lambert>
        </technique>
      </profile_COMMON>
    </effect>
  </library_effects>
  <library_images/>
  <library_materials>
    <material id="Material_006-material" name="Material.006">
      <instance_effect url="#Material_006-effect"/>
    </material>
  </library_materials>
  <library_geometries>
    <geometry id="shape0_013-mesh" name="shape0.013">
      <mesh>
        <source id="shape0_013-mesh-positions">
          <float_array id="shape0_013-mesh-positions-array" count="723">0.03799998 0.06 -0.04049998 0.02074998 0.05503106 -0.04049998 0.02203106 0.05374997 -0.04049998 0.03799998 0.04740965 -0.04049998 0.01899999 0.05549997 -0.04049998 0 0.06 -0.04049998 0.03799998 0.04560625 -0.04561477 0.03799998 0.06 -0.05599969 0.01725 0.05503106 -0.04049998 0.01725 0.05503106 -0.04699999 0.01899999 0.05549997 -0.04699999 0.01596885 0.05374997 -0.04049998 0.01596885 0.05374997 -0.04699999 0.01543247 0.05859714 -0.04699999 0.01272386 0.05610615 -0.04699999 0.01549994 0.05199998 -0.04699999 0.01152616 0.05262655 -0.04699999 0 0.04740965 -0.04049998 0.01549994 0.05199998 -0.04049998 0.01212775 0.04899609 -0.04699999 0.01596885 0.05024999 -0.04699999 0.01158756 0.05314278 -0.06189525 0.01207888 0.05488926 -0.06124687 0.01153576 0.05126839 -0.06197118 0.01074987 0.05273979 -0.06340336 0.01322466 0.05678498 -0.05934518 0 0.06 -0.05619966 0.01007437 0.05030184 -0.06584489 0.00999999 0.02899998 -0.06699997 0.01120579 0.02899998 -0.0625 0.01193457 0.04948407 -0.06142508 0.0127238 0.04789388 -0.06054949 0.01449996 0.02899998 -0.05920577 0.01466989 0.02899998 -0.06449997 0.01649999 0.02899998 -0.06266987 0.01438385 0.04608887 -0.04699999 0.01526147 0.04549825 -0.05881327 0.01725 0.04896885 -0.04699999 0.01775127 0.04460465 -0.04699999 0.01701349 0.04476797 -0.05822205 0.01891726 0.04450047 -0.05800038 0.01899999 0.02899998 -0.05799996 0.02082425 0.04472529 -0.05818688 0.02024865 0.04460465 -0.04699999 0.01899999 0.04449999 -0.04712396 0.02349996 0.02899998 -0.05920577 0.01899999 0.02899998 -0.06199997 0.02259707 0.04541897 -0.05875015 0.02519148 0.0477674 -0.06046819 0.02679419 0.02899998 -0.0625 0.02149999 0.02899998 -0.06266987 0.02361607 0.04608887 -0.04699999 0.02587217 0.04899609 -0.04699999 0.02601146 0.04933744 -0.06135737 0.02074998 0.04896885 -0.04699999 0.02203106 0.05024999 -0.04699999 0.02249997 0.05199998 -0.04699999 0.02647376 0.05262655 -0.04699999 0.0264467 0.05110734 -0.06194525 0.02643519 0.05298346 -0.06192845 0.02728646 0.05256819 -0.063488 0.02203106 0.05374997 -0.04699999 0.02527606 0.05610615 -0.04699999 0.02597957 0.05474495 -0.06131798 0.02793687 0.05011659 -0.0659362 0.02487325 0.05666404 -0.05940467 0.02325475 0.05817627 -0.05790096 0.02256745 0.05859714 -0.04699999 0.02126508 0.0591498 -0.05693799 0.02074998 0.05503106 -0.04699999 0.01899999 0.05949997 -0.04699999 0.01907777 0.05949956 -0.05659967 0.01688367 0.05919516 -0.05691558 0.02249997 0.05199998 -0.04049998 0.02203106 0.05024999 -0.04049998 0.02074998 0.04896885 -0.04049998 0.01899999 0.0485 -0.04049998 0.01899999 0.0485 -0.04699999 0.01725 0.04896885 -0.04049998 0 0.04180639 -0.04948437 0 0.04560625 -0.04561477 0.03799998 0.04180639 -0.04948437 0.03799998 0.03672516 -0.05138039 0.03799998 0.03799998 -0.078 0 0.03672516 -0.05138039 0.01596885 0.05024999 -0.04049998 0 0.03819996 -0.078 0 0.03131926 -0.05094575 0 0.0266062 -0.04826247 0.03799998 0.03131926 -0.05094575 0.03799998 0.0266062 -0.04826247 0 0.0234732 -0.04383558 0 0 -0.078 0.03799998 0.0234732 -0.04383558 0.03799998 0 -0.078 0 0.02251005 -0.0384984 0.03799998 0.02251005 -0.0384984 0 0.02389806 -0.03325557 0 0 0 0.03799998 0.02389806 -0.03325557 0.03799998 0 0 0 0.02737599 -0.02909415 0.03799998 0.02737599 -0.02909415 0 0.03228908 -0.02679747 0 0.03799998 0 0.03799998 0.03228908 -0.02679747 0.03799998 0.03799998 0 0 0.03771245 -0.02679789 0.03799998 0.03771245 -0.02679789 0 0.04262524 -0.02909517 0.03799998 0.04262524 -0.02909517 0 0.04610258 -0.03325706 0 0.06 -0.02199995 0.03799998 0.06 -0.02199995 0.03799998 0.04610258 -0.03325706 0 0.04749 -0.03849995 0 0.06 -0.03849995 0.03799998 0.06 -0.03849995 0.03799998 0.04749 -0.03849995 0.02074998 0.05503106 -0.03849995 0.01899999 0.05549997 -0.03849995 0.02203106 0.05374997 -0.03849995 0.0203464 0.05523067 -0.01989865 0.02147567 0.05447399 -0.01965278 0.01725 0.05503106 -0.03849995 0.01765358 0.05523067 -0.01989865 0.01899999 0.05549997 -0.01999998 0.02075576 0.05782705 -0.01982706 0.01899999 0.05799996 -0.01999998 0.0222311 0.05334526 -0.0194 0.02244406 0.05731487 -0.01931488 0.01724416 0.05782705 -0.01982706 0.01652425 0.05447399 -0.01965278 0.01555579 0.05731487 -0.01931488 0.01596885 0.05374997 -0.03849995 0.01576888 0.05334526 -0.0194 0.01263594 0.05536395 -0.01736396 0.01549994 0.05199998 -0.01929157 0.01549994 0.05199998 -0.03849995 0.01596885 0.05024999 -0.03849995 0.01576888 0.05065464 -0.0194 0.01449996 0.02899998 -0.01879417 0.01652425 0.04952597 -0.01965278 0.01725 0.04896885 -0.03849995 0.01899999 0.0485 -0.03849995 0.01765358 0.04876935 -0.01989865 0.01899999 0.02899998 -0.01999998 0.01899999 0.0485 -0.01999998 0.02074998 0.04896885 -0.03849995 0.0203464 0.04876935 -0.01989865 0.02249997 0.05199998 -0.03849995 0.02203106 0.05024999 -0.03849995 0.02147567 0.04952597 -0.01965278 0.0222311 0.05065464 -0.0194 0.02349996 0.02899998 -0.01879417 0.02249997 0.05199998 -0.01929157 0.02536398 0.05536395 -0.01736396 0.02679419 0.02899998 -0.01549994 0.0273149 0.0524441 -0.01444405 0.02799999 0.04899996 -0.01099997 0.02799999 0.02899998 -0.01099997 0.0273149 0.04555588 -0.007555782 0.02333009 0.02899998 -0.01349997 0.02399998 0.02899998 -0.01099997 0.02679419 0.02899998 -0.006499946 0.02536398 0.04263597 -0.004635989 0.02149999 0.02899998 -0.006669878 0.02349996 0.02899998 -0.003205776 0.02333009 0.02899998 -0.008499979 0.02399998 0 -0.01099997 0.02333009 0 -0.01349997 0.02333009 0 -0.008499979 0.01899999 0.02899998 -0.005999982 0.02149999 0 -0.006669878 0.02149999 0 -0.01533007 0.02333009 0 -0.06449997 0.01899999 0 -0.005999982 0.01649999 0 -0.006669878 0.01649999 0.02899998 -0.006669878 0.01466989 0.02899998 -0.008499979 0.01466989 0 -0.008499979 0.01449996 0.02899998 -0.003205776 0.01120579 0.02899998 -0.006499946 0.01399999 0.02899998 -0.01099997 0.00999999 0.02899998 -0.01099997 0.01399999 0 -0.01099997 0.01466989 0.02899998 -0.01349997 0.01466989 0 -0.01349997 0.01466989 0 -0.06449997 0.01649999 0 -0.01533007 0.01649999 0.02899998 -0.01533007 0.01120579 0.02899998 -0.01549994 0.01899999 0.02899998 -0.01599997 0.01068508 0.0524441 -0.01444405 0.02149999 0.02899998 -0.01533007 0.01899999 0 -0.01599997 0.01899999 0 -0.06199997 0.02149999 0 -0.06266987 0.01649999 0 -0.06266987 0.02333009 0.02899998 -0.06449997 0.02399998 0.02899998 -0.06699997 0.02399998 0 -0.06699997 0.02799999 0.02899998 -0.06699997 0.02333009 0 -0.06949996 0.02333009 0.02899998 -0.06949996 0.02149999 0 -0.07133007 0.02149999 0.02899998 -0.07133007 0.02679419 0.02899998 -0.0715 0.01899999 0 -0.07199996 0.01899999 0.02899998 -0.07199996 0.01649999 0 -0.07133007 0.02349996 0.02899998 -0.07479417 0.01649999 0.02899998 -0.07133007 0.01899999 0.02899998 -0.07599997 0.01449996 0.02899998 -0.07479417 0.01466989 0 -0.06949996 0.01466989 0.02899998 -0.06949996 0.01120579 0.02899998 -0.0715 0.0164479 0.04048275 -0.0756306 0.01222479 0.04321128 -0.07292419 0.014144 0.04154795 -0.07457756 0.01084226 0.04534119 -0.07080155 0.01010608 0.04776889 -0.06837779 0.01895397 0.04010027 -0.07599985 0.02146369 0.04043078 -0.07565617 0.02377825 0.04144799 -0.0746268 0.02571427 0.04307138 -0.07299315 0.02711838 0.04517239 -0.07088476 0.02787935 0.04758447 -0.06846868 0.01399999 0 -0.06699997 0.01399999 0.02899998 -0.06699997 0.01487427 0.0582633 -0.05785816 0.00999999 0.04899996 -0.01099997 0.01068508 0.04555588 -0.007555782 0.01263594 0.04263597 -0.004635989 0.01899999 0.03999996 -0.001999974 0.01555579 0.04068505 -0.00268507 0.01724416 0.04017287 -0.002172887 0.01899999 0.02899998 -0.001999974 0.02075576 0.04017287 -0.002172887 0.02244406 0.04068505 -0.00268507</float_array>
          <technique_common>
            <accessor source="#shape0_013-mesh-positions-array" count="241" stride="3">
              <param name="X" type="float"/>
              <param name="Y" type="float"/>
              <param name="Z" type="float"/>
            </accessor>
          </technique_common>
        </source>
        <source id="shape0_013-mesh-normals">
          <float_array id="shape0_013-mesh-normals-array" count="1056">0 0 1 1.73402e-6 0 1 1 2.60906e-7 0 1 0 0 0 1 0 -1.73402e-6 0 1 0.2588105 -0.9659281 0 0.2588109 -0.9659281 0 -0.2588105 -0.9659281 0 0.7071074 -0.7071062 0 0.7071093 -0.7071043 0 0 0 -1 5.15538e-7 0 -1 0.965927 -0.2588152 0 -1.16543e-6 0 1 0.9659276 -0.2588129 0 -2.07146e-6 0 -1 3.98143e-6 0 -1 0.9659278 0.258812 0 0.9865004 0.1634696 0.009731531 0.9631394 -0.2689499 -0.005350232 0.9454476 -0.3254286 -0.01500666 0.998723 -0.02584183 -0.04341429 0.8746981 -0.004548609 -0.484647 0.8800276 -0.07335203 -0.4692237 0.8531599 -0.5216158 0.005928814 0.003718078 0.7071058 -0.707098 0.003714501 0.7070991 -0.7071048 0.003722727 0.7071065 -0.7070972 0.9606648 0.01169025 -0.2774646 0.965888 0.008699893 -0.2588141 0.8760182 -0.001529574 -0.4822758 0.9762787 0.2164412 -0.005753397 0.8105266 0.001896977 -0.585699 0.8950684 0.4459182 0.003097295 0.7499828 0.00802344 -0.6614087 0.7070142 0.01618409 -0.7070142 0 1 -1.61689e-6 0.6812967 0.7318732 0.01402354 0.789927 0.6130145 -0.01511996 0.5606662 -0.006179571 -0.828019 2.07947e-6 0 -1 0.4032676 0.914946 -0.01578336 0.3882022 0.9214947 -0.01211357 0.3225751 0.007628679 -0.9465132 0.1385336 0.9903436 0.005303025 0.1157515 5.9229e-4 -0.9932781 0.2587767 0.01899874 -0.9657504 -0.116615 0.993166 0.004706263 -0.08362358 0.9964973 6.82247e-4 0.08349823 0.9965078 -5.88936e-4 -0.09726965 -5.44323e-4 -0.995258 -0.2587794 0.01854282 -0.9657585 -0.3668199 0.93025 -0.008844494 -0.3062146 0.00957477 -0.9519144 -0.7070142 0.01616501 -0.7070146 -0.5477502 -0.006906926 -0.8366135 0 1 -1.45518e-6 0 1 -8.08447e-7 -0.6654697 0.7462708 0.01516395 -0.4032578 0.9149249 -0.01719033 -0.7899165 0.6130059 -0.01600062 -0.885825 0.4640132 0.002438783 -0.7429777 0.009006321 -0.6692557 -1.03974e-6 0 -1 1.55359e-6 0 -1 -3.98143e-6 0 -1 -0.9713575 0.2375933 -0.003775 -0.9864386 0.1634601 -0.01482731 -0.8068121 0.002141714 -0.5908043 -0.9999781 -0.006152391 0.002438366 -0.8775919 -0.001765668 -0.4794051 -0.8778585 -0.001091957 -0.4789189 -1.03108e-6 0 -1 -0.9684253 -0.2492802 -0.003455758 -0.9454401 -0.3254266 -0.01551496 -0.8831887 -0.06757974 -0.4641236 0.003724217 0.7071052 -0.7070986 0.003714144 0.7071119 -0.707092 -0.9641573 0.009023129 -0.2651779 -0.8640004 -0.5034621 0.00541234 0.003720819 0.7071064 -0.7070974 -0.6877675 -0.7258579 -0.01031255 0.003719806 0.707104 -0.7070997 -0.4366592 -0.8995983 0.007204115 -0.6768527 -0.7359805 -0.01425826 0.003723502 0.7070931 -0.7071108 -0.2452701 -0.9692108 -0.02174901 -0.1581026 -0.987422 -0.001241505 0.003721415 0.7071121 -0.7070916 0.1372553 -0.9905351 0.001153826 0.2452658 -0.9691935 -0.02255451 -0.2588115 -0.9659278 0 -0.707108 -0.7071056 0 -0.7071068 -0.7071068 0 2.33087e-6 0 1 -0.9659276 -0.2588129 0 -4.97036e-7 0 1 -0.9659278 0.258812 0 -0.7071049 0.7071086 0 -0.7071059 0.7071077 0 -0.2588155 0.9659268 0 -0.258814 0.9659272 0 0.2588149 0.965927 0 0.258814 0.9659272 0 -0.02708482 -0.6124002 0.7900838 0 -0.8103536 0.5859412 0.01441425 -0.713429 0.7005793 0.01152646 -0.703755 0.7103492 0 -0.8103546 0.5859399 0 -0.9430958 0.3325213 -0.01410758 -0.7134326 0.7005819 0 -0.6590594 0.7520909 0 -0.3495957 0.9369006 0.003721892 0.7071069 -0.7070969 0.003721415 0.7071105 -0.7070934 -1 0 0 9.94075e-7 0 1 0.7071056 0.707108 0 0.7071071 0.7071065 0 0.9659272 0.2588143 0 0 0.08013498 0.9967841 0 0.4947625 0.8690283 0 0.08013504 0.996784 0 0.494763 0.869028 0 0.8162608 0.5776835 1 -1.10372e-6 0 0 0.984106 0.1775825 0 0.9841061 0.1775819 0 0.9666962 -0.2559266 1 -1.35799e-6 0 0 0.9666962 -0.2559272 0 0.7673076 -0.6412793 0 0.4234791 -0.9059059 0 -7.34974e-5 -1 0 -7.34975e-5 -1 0 -0.4235911 -0.9058536 1 -1.75969e-6 0 0 -0.4235907 -0.9058538 0 -0.7673996 -0.6411691 0 -0.966725 -0.2558183 1.73402e-6 0 -1 -0.5561743 -0.8310598 -0.003149449 -0.258808 -0.9659172 0.004749059 -0.7070945 -0.7070909 0.006325364 -1.73402e-6 0 -1 0.2588076 -0.9659173 0.004748642 0.1961279 -0.9805784 0 -0.1961284 -0.9805783 0 -0.2089281 0.005976557 0.9779127 -0.09914404 -0.01180601 0.9950031 -0.07502216 0 0.9971819 -0.8307273 -0.556671 -0.003096044 -0.2940255 -0.01344609 0.9557031 -0.3214516 -0.00305128 0.9469212 0 0.7071064 0.7071072 7.56977e-7 0.7071121 0.7071015 0.09914404 -0.01180601 0.9950031 0.07502216 0 0.9971819 -1.08816e-6 0.7071149 0.7070987 0 0.7071067 0.7071069 0.2089298 0.005976617 0.9779124 0.2940085 -0.01344305 0.9557083 0 0.7071026 0.707111 0.5561743 -0.8310598 -0.003149449 0.7070945 -0.7070909 0.006325364 0.8307273 -0.556671 -0.003095984 0.3214412 -0.003043472 0.9469248 0.5565758 -0.002201437 0.8307939 0.3732423 1.48497e-4 0.927734 0 0.7071072 0.7071064 0.9659168 -0.2588115 0.004630565 0.9806029 -0.1960054 0 4.97675e-7 0 -1 0.9806028 0.1960058 0 0.965917 0.2588105 0.004630267 0.5534465 -0.006051301 0.8328628 0.3871992 0.00310415 0.9219909 0.8307281 0.5566698 -0.003096342 0.3270993 0.007268428 0.9449621 -3.03246e-7 0 -1 0.7070924 0.707093 0.006324946 -3.40742e-7 0 -1 0.5561228 0.8310942 -0.003152728 0.2588114 0.9659162 0.004743874 0.258796 0.0148772 0.9658175 0.2190896 0.009922027 0.9756544 0.196201 0.9805638 0 0.07502502 0 0.9971817 -0.2588119 0.9659162 0.004743874 -0.1962015 0.9805637 0 -0.5561229 0.8310942 -0.003152728 -0.7070924 0.707093 0.006325185 -0.07502502 0 0.9971817 -0.2190899 0.009922087 0.9756543 -0.8307281 0.5566698 -0.003096222 -0.327099 0.007268369 0.9449622 -0.2587962 0.0148772 0.9658174 -0.965917 0.2588105 0.004630327 -0.9806035 -0.1960023 0 -0.9659168 -0.2588115 0.004630565 -0.9806033 0.1960033 0 -0.3872007 0.003104031 0.9219903 -0.4635225 -9.90446e-4 0.8860847 -0.3732756 1.41071e-4 0.9277206 -0.558102 -0.005553483 0.8297537 0 0.707106 0.7071076 -0.8343639 -0.006293118 0.5511782 -0.7070594 0.01163399 0.7070585 0 0.7071068 0.7071068 0 0.7071071 0.7071065 0 0.7071063 0.7071073 -0.9658779 0.009795665 0.2588128 -0.9807837 0 0.1950985 -0.9807849 0 -0.1950926 1.85069e-5 0.7071156 0.707098 -0.9658313 0.01387226 -0.2588002 -0.8268548 -0.009855508 -0.5623291 -7.36348e-6 0.7070969 0.7071167 0 1 2.91043e-6 -0.7069281 0.0224893 -0.7069278 -0.9659231 0 0.2588292 -0.9659233 0 -0.2588286 -0.7071064 0 -0.7071072 -0.9659233 0 -0.2588288 0 1 -1.45519e-6 -0.7071065 0 -0.7071072 -0.2588288 0 -0.9659233 0 -1 0 0 -1 0 -0.7071068 0 0.7071068 -0.2588292 0 -0.9659231 0.2588286 0 -0.9659233 0.2588289 0 -0.9659232 0.7071068 0 -0.7071068 0.7071068 0 -0.7071068 0 1 -1.61689e-6 0 1 1.45518e-6 0.9659233 0 -0.2588288 0.9659233 0 -0.2588286 0.9659231 0 0.2588292 0.7071076 0 0.707106 0.7071072 0 0.7071065 0 1 8.08447e-7 0 1 -1.45518e-6 0.2588286 0 0.9659233 0.7070594 0.01163411 0.7070585 0.965878 0.009795665 0.2588124 0.8343641 -0.006293058 0.551178 0 1 1.45519e-6 -0.2588288 0 0.9659233 0.2588286 0 0.9659233 0 1 1.61689e-6 0 1 -2.91043e-6 -0.2588288 0 0.9659232 -0.7071072 0 0.7071064 0.2588265 0 -0.9659239 0.2588264 0 -0.9659239 -0.2588267 0 -0.9659238 0.7071079 0 -0.7071056 0.7071033 0 -0.7071103 0 1 2.91037e-6 -0.2588266 0 -0.9659238 -0.7071076 0 -0.707106 -0.7071029 0 -0.7071107 0 1 2.91044e-6 -0.9659236 0 -0.2588275 -0.9659236 0 -0.2588275 -0.9658744 0.01015222 -0.2588118 -0.9659225 0 0.2588313 -0.9659234 0 0.2588282 -0.7071061 0 0.7071076 -0.707106 0 0.7071076 0 1 -2.91042e-6 -0.2588267 0 0.9659238 0 -1 0 -0.2588382 0 0.9659207 0.2588381 0 0.9659208 0 1 1.61689e-6 0.2588264 0 0.9659239 0 1 -1.45518e-6 0.7071064 0 0.7071072 0.7071064 0 0.7071073 0 1 1.61689e-6 0.2587343 0.02644205 0.9655866 0.7069626 0.02015733 0.7069637 0.6554471 0.005559027 0.7552207 0.4141741 -0.003961086 0.9101892 0.9593436 0.009283602 0.2820885 0.9658356 0.01353824 0.2588019 0.8356774 -0.004882872 0.5491989 0.003703236 0.7071337 -0.7070702 0.003730595 0.707101 -0.7071028 0.003728449 0.707085 -0.7071188 0.003724515 0.7070989 -0.7071049 0.1458718 5.95252e-4 0.9893034 0.003718733 0.7070931 -0.7071108 0.003721415 0.7071109 -0.707093 -0.1356049 -5.71269e-4 0.9907629 -0.2587319 0.02672374 0.9655795 0.003722131 0.7071095 -0.7070944 -0.4051777 -0.003236055 0.9142323 -0.7069544 0.02076458 0.7069543 -0.6469462 0.00420922 0.762524 0.003719925 0.7071036 -0.7071002 0.003721773 0.7071047 -0.7070991 -0.8302122 -0.00456196 0.5574289 0.00373882 0.7071168 -0.7070869 0.003712654 0.707102 -0.707102 3.20792e-7 0 -1 -0.9658804 0.009517431 0.2588139 -0.9582394 0.01634371 0.2854997 -0.9996248 -0.004349589 0.02704507 0.9659236 0 -0.2588275 0.9659225 0 0.2588313 0.9659234 0 0.2588282 0.9659236 0 -0.2588275 0.9998471 -0.00440979 0.01692277 0.003715038 0.7071102 -0.7070935 0.00372225 0.707107 -0.7070968 0.003730177 0.7071006 -0.7071032 0.00371778 0.7071054 -0.7070984 0.003726959 0.7071459 -0.7070579 0.003718852 0.70705 -0.7071539 0.6768718 -0.7360005 -0.01216465 0.6739345 -0.7386719 -0.01327711 0.4182338 -0.9083167 0.006430268 -2.23982e-7 0.7071074 0.7071062 0.9807838 0 0.1950979 0 0.7071053 0.7071083 0 0.7071071 0.7071066 0.980785 0 -0.1950922 -1.85069e-5 0.7071157 0.7070979 0.9658314 0.01387214 -0.2587999 0.8268551 -0.009855329 -0.5623287 7.39149e-6 0.7070965 0.707117 0 0.7071074 0.7071062 2.69452e-7 0.7071072 0.7071064 -2.82942e-7 0.7071087 0.7071049 4.73101e-7 0.7071021 0.7071115 0.5497515 -0.01245355 -0.8352355 0.7069281 0.02248942 -0.7069278 0.294691 0.01594954 -0.9554595 0.258739 0.02571767 -0.9656049 0.09799963 0 -0.9951865 -0.09799963 0 -0.9951865 -4.73101e-7 0.7071019 0.7071117 2.82947e-7 0.7071093 0.7071043 -2.69449e-7 0.7071071 0.7071065 -0.2587392 0.02571761 -0.9656048 -0.2947059 0.01594579 -0.9554551 -0.5497376 -0.01245647 -0.8352445</float_array>
          <technique_common>
            <accessor source="#shape0_013-mesh-normals-array" count="352" stride="3">
              <param name="X" type="float"/>
              <param name="Y" type="float"/>
              <param name="Z" type="float"/>
            </accessor>
          </technique_common>
        </source>
        <vertices id="shape0_013-mesh-vertices">
          <input semantic="POSITION" source="#shape0_013-mesh-positions"/>
        </vertices>
        <triangles material="Material_006-material" count="498">
          <input semantic="VERTEX" source="#shape0_013-mesh-vertices" offset="0"/>
          <input semantic="NORMAL" source="#shape0_013-mesh-normals" offset="1"/>
          <p>0 0 1 0 2 0 3 0 0 0 2 0 4 1 1 1 0 1 5 0 4 0 0 0 0 2 6 2 7 2 3 3 6 3 0 3 0 4 7 4 5 4 8 5 4 5 5 5 8 6 9 6 4 6 10 7 4 7 9 7 4 8 10 8 1 8 8 0 5 0 11 0 12 9 9 9 8 9 11 10 12 10 8 10 13 11 9 11 14 11 10 11 9 11 13 11 12 11 14 11 9 11 12 11 15 11 16 11 14 12 12 12 16 12 12 13 11 13 15 13 17 14 18 14 11 14 5 0 17 0 11 0 18 15 15 15 11 15 16 16 15 16 19 16 20 17 19 17 15 17 20 18 15 18 18 18 19 19 21 19 16 19 22 20 16 20 21 20 16 21 22 21 14 21 23 22 21 22 19 22 21 23 23 23 24 23 22 24 21 24 24 24 22 25 25 25 14 25 22 26 24 26 26 26 25 27 22 27 26 27 24 28 27 28 26 28 24 29 28 29 27 29 24 30 29 30 28 30 24 31 23 31 29 31 30 32 23 32 19 32 23 33 30 33 29 33 31 34 30 34 19 34 29 35 30 35 31 35 32 36 29 36 31 36 33 4 29 4 34 4 28 4 29 4 33 4 32 37 34 37 29 37 31 38 35 38 36 38 35 39 31 39 19 39 36 40 32 40 31 40 19 41 20 41 35 41 35 11 37 11 38 11 20 11 37 11 35 11 38 42 36 42 35 42 39 43 36 43 38 43 36 44 39 44 32 44 40 45 39 45 38 45 39 46 40 46 41 46 32 47 39 47 41 47 42 48 40 48 43 48 44 49 43 49 40 49 44 50 40 50 38 50 41 51 40 51 42 51 45 52 41 52 42 52 41 4 45 4 46 4 32 4 41 4 46 4 47 53 42 53 43 53 47 54 45 54 42 54 45 55 48 55 49 55 47 56 48 56 45 56 46 57 45 57 50 57 49 58 50 58 45 58 47 59 51 59 48 59 51 60 47 60 43 60 52 61 48 61 51 61 53 62 48 62 52 62 48 63 53 63 49 63 43 11 54 11 51 11 55 11 51 11 54 11 51 64 55 64 52 64 52 65 56 65 57 65 55 66 56 66 52 66 58 67 53 67 52 67 57 68 58 68 52 68 58 69 49 69 53 69 59 70 58 70 57 70 58 71 60 71 49 71 59 72 60 72 58 72 61 11 57 11 56 11 57 73 61 73 62 73 63 74 59 74 57 74 62 75 63 75 57 75 59 76 63 76 60 76 60 77 7 77 64 77 60 78 63 78 7 78 64 79 49 79 60 79 65 80 63 80 62 80 63 81 65 81 7 81 66 82 65 82 62 82 65 83 66 83 7 83 66 84 67 84 68 84 67 85 66 85 62 85 66 86 68 86 7 86 62 11 69 11 67 11 10 11 67 11 69 11 70 11 67 11 10 11 70 87 68 87 67 87 71 88 68 88 70 88 7 89 68 89 71 89 70 11 10 11 13 11 72 90 71 90 70 90 13 91 72 91 70 91 10 92 69 92 1 92 1 93 69 93 2 93 61 11 69 11 62 11 61 94 2 94 69 94 73 95 3 95 2 95 2 96 61 96 73 96 61 96 56 96 73 96 73 97 74 97 3 97 73 98 56 98 74 98 55 98 74 98 56 98 74 0 75 0 3 0 74 99 55 99 75 99 55 100 54 100 75 100 75 0 76 0 3 0 75 101 54 101 76 101 77 11 54 11 43 11 77 102 76 102 54 102 76 0 78 0 17 0 3 0 76 0 17 0 76 103 77 103 78 103 77 11 38 11 37 11 38 11 77 11 43 11 77 104 37 104 78 104 6 105 43 105 44 105 6 106 38 106 43 106 79 107 38 107 80 107 79 108 44 108 38 108 6 109 80 109 38 109 81 3 7 3 6 3 3 110 80 110 6 110 6 111 44 111 81 111 81 112 44 112 79 112 81 3 82 3 83 3 7 3 81 3 83 3 81 113 84 113 82 113 84 113 81 113 79 113 7 4 26 4 5 4 83 114 64 114 7 114 7 115 71 115 26 115 5 116 26 116 80 116 17 116 5 116 80 116 85 0 17 0 78 0 85 117 18 117 17 117 3 110 17 110 80 110 78 118 37 118 85 118 20 119 85 119 37 119 85 120 20 120 18 120 80 116 26 116 79 116 79 116 86 116 84 116 26 116 86 116 79 116 87 121 82 121 84 121 87 116 84 116 86 116 87 122 88 122 89 122 82 123 87 123 89 123 88 116 87 116 86 116 82 3 89 3 83 3 89 3 90 3 83 3 89 124 88 124 90 124 91 125 90 125 88 125 92 116 88 116 86 116 91 116 88 116 92 116 90 126 93 126 94 126 83 3 90 3 94 3 90 125 91 125 93 125 91 127 95 127 93 127 91 116 92 116 95 116 93 3 96 3 94 3 93 128 95 128 96 128 97 129 96 129 95 129 98 116 97 116 95 116 92 116 98 116 95 116 96 130 99 130 100 130 94 3 96 3 100 3 96 131 97 131 99 131 97 132 101 132 99 132 101 116 97 116 98 116 99 3 102 3 100 3 99 132 101 132 102 132 103 133 102 133 101 133 104 116 101 116 98 116 103 116 101 116 104 116 102 3 105 3 106 3 100 3 102 3 106 3 102 133 103 133 105 133 103 134 107 134 105 134 107 116 103 116 104 116 105 3 108 3 106 3 105 135 107 135 108 135 109 136 108 136 107 136 107 116 104 116 109 116 108 137 110 137 106 137 108 138 109 138 110 138 109 139 111 139 110 139 109 116 112 116 111 116 104 116 112 116 109 116 106 3 110 3 113 3 114 3 113 3 110 3 110 139 111 139 114 139 115 140 114 140 111 140 116 116 111 116 112 116 115 116 111 116 116 116 117 3 113 3 114 3 118 3 117 3 114 3 118 140 114 140 115 140 119 141 120 141 117 141 121 11 119 11 117 11 118 11 121 11 117 11 117 11 120 11 116 11 117 4 116 4 113 4 122 142 119 142 123 142 120 143 119 143 122 143 121 144 123 144 119 144 120 145 124 145 116 145 120 146 125 146 124 146 126 147 125 147 120 147 126 148 120 148 122 148 123 149 127 149 122 149 128 150 122 150 127 150 126 151 122 151 128 151 123 152 121 152 129 152 130 153 127 153 123 153 129 154 130 154 123 154 127 155 130 155 113 155 127 156 113 156 128 156 128 157 131 157 125 157 126 158 128 158 125 158 112 159 131 159 128 159 113 160 112 160 128 160 125 161 131 161 132 161 133 162 132 162 131 162 133 163 131 163 112 163 132 164 124 164 125 164 134 165 124 165 132 165 135 166 134 166 132 166 135 167 132 167 133 167 133 168 136 168 137 168 135 169 133 169 137 169 136 170 133 170 112 170 135 171 138 171 134 171 135 172 137 172 138 172 124 11 134 11 116 11 134 11 138 11 115 11 116 11 134 11 115 11 138 173 139 173 115 173 138 174 137 174 140 174 139 175 138 175 140 175 141 176 137 176 136 176 140 177 137 177 141 177 142 178 139 178 140 178 142 179 140 179 141 179 139 180 143 180 115 180 139 181 142 181 143 181 115 182 143 182 144 182 115 11 144 11 118 11 145 183 143 183 142 183 144 184 143 184 145 184 146 185 142 185 141 185 145 186 142 186 146 186 147 187 144 187 145 187 147 188 145 188 146 188 144 11 148 11 118 11 144 189 149 189 148 189 147 190 149 190 144 190 150 11 121 11 118 11 151 11 150 11 118 11 148 11 151 11 118 11 152 191 148 191 149 191 151 192 148 192 152 192 149 193 147 193 146 193 149 194 146 194 152 194 153 195 151 195 152 195 154 196 153 196 152 196 146 197 154 197 152 197 151 198 153 198 150 198 150 199 155 199 129 199 121 200 150 200 129 200 153 201 155 201 150 201 155 202 153 202 154 202 130 203 155 203 154 203 129 204 155 204 130 204 130 205 154 205 156 205 130 206 156 206 113 206 156 207 157 207 158 207 154 208 157 208 156 208 156 209 158 209 113 209 113 210 159 210 106 210 158 211 159 211 113 211 116 4 112 4 113 4 160 212 158 212 157 212 159 213 158 213 160 213 159 214 160 214 161 214 159 215 161 215 106 215 162 4 163 4 160 4 160 4 163 4 164 4 157 4 162 4 160 4 160 216 164 216 161 216 161 217 164 217 165 217 161 218 165 218 106 218 164 58 166 58 167 58 168 219 166 219 164 219 163 4 168 4 164 4 167 220 165 220 164 220 169 221 163 221 170 221 168 222 163 222 169 222 162 221 170 221 163 221 168 223 171 223 166 223 171 224 168 224 169 224 172 225 167 225 166 225 173 226 166 226 171 226 172 227 166 227 173 227 171 228 100 228 173 228 171 228 169 228 100 228 100 229 169 229 170 229 170 230 162 230 174 230 175 228 170 228 174 228 175 228 100 228 170 228 98 0 100 0 106 0 100 228 98 228 176 228 173 228 100 228 176 228 175 228 94 228 100 228 176 231 172 231 173 231 177 232 178 232 176 232 172 233 176 233 178 233 176 228 98 228 177 228 179 234 178 234 177 234 180 235 179 235 177 235 180 228 177 228 98 228 181 236 178 236 182 236 172 237 178 237 181 237 179 4 182 4 178 4 179 4 183 4 184 4 182 4 179 4 184 4 179 238 180 238 183 238 185 239 183 239 180 239 185 228 180 228 98 228 183 4 186 4 184 4 186 240 183 240 185 240 187 240 186 240 185 240 187 228 185 228 98 228 104 0 98 0 106 0 188 228 98 228 92 228 188 228 187 228 98 228 189 241 190 241 187 241 186 242 187 242 190 242 189 228 187 228 188 228 186 4 190 4 191 4 184 4 186 4 191 4 191 243 190 243 141 243 192 244 141 244 190 244 192 245 190 245 189 245 191 246 141 246 136 246 191 247 193 247 184 247 193 248 191 248 136 248 146 4 141 4 192 4 146 4 192 4 154 4 192 249 194 249 154 249 192 250 195 250 194 250 195 251 192 251 189 251 154 252 194 252 157 252 162 253 157 253 194 253 174 254 194 254 195 254 162 255 194 255 174 255 195 228 189 228 196 228 174 228 195 228 196 228 197 228 174 228 196 228 175 228 174 228 197 228 198 256 34 256 196 256 46 257 196 257 34 257 196 258 46 258 197 258 198 228 196 228 189 228 198 228 189 228 188 228 33 259 34 259 198 259 188 260 33 260 198 260 34 261 32 261 46 261 46 262 50 262 197 262 197 263 50 263 175 263 199 264 175 264 50 264 199 265 50 265 49 265 199 266 200 266 201 266 175 267 199 267 201 267 199 4 49 4 200 4 202 268 49 268 64 268 49 4 202 4 200 4 201 269 200 269 203 269 204 270 203 270 200 270 200 4 202 4 204 4 201 228 203 228 94 228 175 228 201 228 94 228 203 271 204 271 205 271 203 228 205 228 94 228 204 272 206 272 205 272 204 273 207 273 206 273 202 4 207 4 204 4 205 274 206 274 208 274 94 275 205 275 208 275 83 11 94 11 92 11 92 228 94 228 208 228 209 276 208 276 206 276 208 277 209 277 210 277 210 228 92 228 208 228 211 278 206 278 207 278 206 4 211 4 209 4 209 279 212 279 210 279 213 4 214 4 209 4 211 4 213 4 209 4 209 280 214 280 212 280 210 281 212 281 215 281 210 228 215 228 92 228 216 282 215 282 212 282 212 4 217 4 216 4 214 283 217 283 212 283 214 284 213 284 218 284 214 285 219 285 217 285 220 286 219 286 214 286 220 287 214 287 218 287 217 288 221 288 222 288 28 289 217 289 222 289 219 290 221 290 217 290 28 4 216 4 217 4 219 291 220 291 86 291 221 292 219 292 86 292 220 293 218 293 86 293 218 294 223 294 86 294 213 295 223 295 218 295 223 296 224 296 83 296 86 297 223 297 83 297 224 298 223 298 213 298 211 299 224 299 213 299 224 300 225 300 83 300 225 301 224 301 211 301 211 302 207 302 226 302 225 303 211 303 226 303 225 304 226 304 83 304 226 305 227 305 83 305 226 306 207 306 227 306 228 307 64 307 83 307 227 308 228 308 83 308 86 309 83 309 92 309 202 310 227 310 207 310 228 311 227 311 202 311 228 312 202 312 64 312 229 228 188 228 92 228 215 228 229 228 92 228 229 313 230 313 188 313 216 314 230 314 229 314 215 315 216 315 229 315 33 316 188 316 230 316 230 4 216 4 28 4 230 4 28 4 33 4 27 317 28 317 222 317 27 318 222 318 86 318 26 319 27 319 86 319 222 320 221 320 86 320 231 321 25 321 26 321 72 322 231 322 26 322 71 323 72 323 26 323 14 324 231 324 13 324 25 325 231 325 14 325 72 326 13 326 231 326 193 327 136 327 112 327 193 328 232 328 184 328 232 329 193 329 112 329 104 330 232 330 112 330 184 331 232 331 233 331 233 332 232 332 104 332 182 333 184 333 233 333 234 334 182 334 233 334 234 335 233 335 104 335 104 336 106 336 235 336 236 337 234 337 104 337 237 338 236 338 104 338 237 339 104 339 235 339 234 340 236 340 181 340 182 341 234 341 181 341 237 342 181 342 236 342 237 343 238 343 181 343 237 344 235 344 238 344 238 345 235 345 239 345 235 346 106 346 239 346 240 347 239 347 106 347 165 348 240 348 106 348 167 349 238 349 239 349 240 350 167 350 239 350 238 4 167 4 172 4 238 4 172 4 181 4 240 351 165 351 167 351</p>
        </triangles>
      </mesh>
    </geometry>
  </library_geometries>
  <library_visual_scenes>
    <visual_scene id="Scene" name="Scene">
      <node id="node" name="node" type="NODE">
        <matrix sid="transform">-4.37114e-8 -1 4.37114e-8 0 0 -4.37114e-8 -1 0 1 -4.37114e-8 1.91069e-15 0 0 0 0 1</matrix>
        <instance_geometry url="#shape0_013-mesh" name="node">
          <bind_material>
            <technique_common>
              <instance_material symbol="Material_006-material" target="#Material_006-material"/>
            </technique_common>
          </bind_material>
        </instance_geometry>
      </node>
    </visual_scene>
  </library_visual_scenes>
  <scene>
    <instance_visual_scene url="#Scene"/>
  </scene>
</COLLADA>