<?xml version="1.0" encoding="utf-8"?>
<COLLADA xmlns="http://www.collada.org/2005/11/COLLADASchema" version="1.4.1" xmlns:xsi="http://www.w3.org/2001/XMLSchema-instance">
  <asset>
    <contributor>
      <author>Blender User</author>
      <authoring_tool>Blender 4.0.2 commit date:2023-12-05, commit time:07:41, hash:9be62e85b727</authoring_tool>
    </contributor>
    <created>2024-02-07T16:31:18</created>
    <modified>2024-02-07T16:31:18</modified>
    <unit name="meter" meter="1"/>
    <up_axis>Z_UP</up_axis>
  </asset>
  <library_effects>
    <effect id="Material_008-effect">
      <profile_COMMON>
        <technique sid="common">
          <lambert>
            <emission>
              <color sid="emission">0 0 0 1</color>
            </emission>
            <diffuse>
              <color sid="diffuse">0.003149456 0.003149456 0.003149456 1</color>
            </diffuse>
            <reflectivity>
              <float sid="specular">0.5</float>
            </reflectivity>
          </lambert>
        </technique>
      </profile_COMMON>
    </effect>
  </library_effects>
  <library_images/>
  <library_materials>
    <material id="Material_008-material" name="Material.008">
      <instance_effect url="#Material_008-effect"/>
    </material>
  </library_materials>
  <library_geometries>
    <geometry id="shape0_015-mesh" name="shape0.015">
      <mesh>
        <source id="shape0_015-mesh-positions">
          <float_array id="shape0_015-mesh-positions-array" count="2748">0.005999982 0 0.002999961 0.005999982 0 0 0.127 0 0 0.127 0 0.002999961 0.02336347 0.02437186 0 0.03914046 0.01473629 0 0.02912557 0.007996022 0 0.08261799 0.04990208 0 0.105148 0.05130958 0 0.104725 0.05104094 0 0.08307158 0.04968857 0 0.125572 0.008811295 0 0.133 0.005999982 0 0.08375257 0.008963465 0 0.09238195 0.01282435 0 0.08393716 0.008497357 0 0.125958 0.009130895 0 0.09214049 0.0132637 0 0.02862519 0.007964551 0 0.126253 0.009536445 0 0.0420717 0.04368865 0 0.05101579 0.04825067 0 0.05101579 0.04774928 0 0.0821256 0.04999595 0 0.105625 0.05146455 0 0.125118 0.00859785 0 0.04245787 0.04336905 0 0.126437 0.01000255 0 0.08345788 0.009369075 0 0.0920158 0.0137493 0 0.124626 0.008503913 0 0.1265 0.01049995 0 0.02233988 0.02352505 0 0.08307158 0.009688615 0 0.02814835 0.007809638 0 0.02414435 0.02544665 0 0.03938198 0.01517558 0 0.03972518 0.01554095 0 0.124125 0.008535385 0 0.0920158 0.01425069 0 0.126437 0.01099735 0 0.123648 0.008690297 0 0.08261799 0.00990206 0 0.09214049 0.01473629 0 0.126253 0.01146346 0 0.04161798 0.04390209 0 0.05114036 0.04873615 0 0.04245787 0.01263087 0 0.05114036 0.008736193 0 0.05101579 0.008250653 0 0.123225 0.008958935 0 0.125958 0.01186907 0 0.0420717 0.01231127 0 0.0821256 0.009995996 0 0.05101579 0.007749319 0 0.122882 0.009324371 0 0.02113777 0.02295935 0 0.02772516 0.007541 0 0.09238195 0.01517558 0 0.125572 0.01218867 0 0.04275256 0.01303648 0 0.051382 0.009175539 0 0.08162528 0.009964525 0 0.09272515 0.01554095 0 0.02463346 0.0266819 0 0.04014837 0.01580959 0 0.04161798 0.01209789 0 0.05114036 0.00726372 0 0.04112559 0.04399609 0 0.051382 0.04917556 0 0.04293715 0.01350259 0 0.05172508 0.009540975 0 0.04112559 0.01200389 0 0.127 0.05599999 0 0.133 0.04999995 0 0.125572 0.04718869 0 0.123225 0.04704099 0 0.122882 0.04667556 0 0.123648 0.04730969 0 0.051382 0.006824374 0 0.124125 0.04746454 0 0.124626 0.04749608 0 0.125118 0.04740208 0 0.04299998 0.01399999 0 0.0521484 0.009809613 0 0.107458 0.04813086 0 0.122516 0.04524928 0 0.12264 0.0447638 0 0.115507 0.0332061 0 0.01983278 0.0227105 0 0.0119372 0.01049739 0 0.01175254 0.01096349 0 0.02738195 0.007175564 0 0.107072 0.004811286 0 0.107458 0.005130887 0 0.107072 0.04781126 0 0.04293715 0.01449739 0 0.107753 0.005536437 0 0.05262517 0.009964525 0 0.114243 0.03279554 0 0.107753 0.04853647 0 0.122516 0.04575067 0 0.04275256 0.01496344 0 0.05312556 0.009995996 0 0.106618 0.004597842 0 0.0248 0.02799999 0 0.04062515 0.01596456 0 0.107937 0.006002604 0 0.04062515 0.04003536 0 0.106618 0.04759788 0 0.04014837 0.04019039 0 0.113122 0.03208369 0 0.106126 0.004503905 0 0.107937 0.04900258 0 0.12264 0.04623627 0 0.108 0.006499946 0 0.04245787 0.01536905 0 0.12264 0.009763717 0 0.106126 0.04750388 0 0.108 0.04949998 0 0.105625 0.004535377 0 0.107937 0.006997346 0 0.122516 0.01024925 0 0.105625 0.04753535 0 0.03045785 0.004630863 0 0.05172508 0.006458938 0 0.0521484 0.006190299 0 0.107937 0.04999738 0 0.107753 0.007463455 0 0.01850688 0.02279388 0 0.01145786 0.01136904 0 0.03007155 0.004311323 0 0.05262517 0.006035387 0 0.122516 0.01075065 0 0.02463346 0.02931809 0 0.03972518 0.04045897 0 0.03075259 0.005036473 0 0.107458 0.007869064 0 0.12264 0.01123625 0 0.107753 0.05046349 0 0.01724338 0.02320438 0 0.01107168 0.01168864 0 0.01061797 0.01190209 0 0.02961796 0.004097878 0 0.05312556 0.006003916 0 0.02414435 0.03055328 0 0.03093719 0.005502581 0 0.04062515 0.01203536 0 0.03938198 0.04082435 0 0.03914046 0.04126375 0 0.107458 0.05086904 0 0 0.005999982 0 0.008381962 0.008824408 0 0.008725106 0.008458912 0 0.008140444 0.009263694 0 0.02912557 0.004003942 0 0.008015751 0.009749293 0 0.008015751 0.01025068 0 0.008140444 0.01073628 0 0.008381962 0.01117557 0 0.008725106 0.01154094 0 0.107072 0.05118864 0 0.01612168 0.0239163 0 0.01012557 0.01199609 0 0.03099995 0.005999982 0 0.04014837 0.0121904 0 0.09545791 0.04063087 0 0.112212 0.03111529 0 0.111572 0.02995109 0 0.02336347 0.03162807 0 0.01521217 0.0248847 0 0.009625196 0.01196455 0 0.09507167 0.04031127 0 0.1112419 0.02866429 0 0.03093719 0.006497323 0 0.03972518 0.01245898 0 0.0145722 0.02604889 0 0.009148418 0.01180958 0 0.09575259 0.04103648 0 0.120364 0.02437186 0 0.124626 0.01249605 0 0.124125 0.01246458 0 0.09461796 0.04009789 0 0.09461796 0.0159021 0 0.09412556 0.01599609 0 0.1112419 0.0273357 0 0.01424175 0.0273357 0 0.11934 0.02352505 0 0.123648 0.01230955 0 0.123225 0.01204097 0 0.106618 0.05140209 0 0.09593719 0.04150259 0 0.1211439 0.02544665 0 0.125118 0.01240205 0 0.09412556 0.04000395 0 0.09362518 0.01596456 0 0.03075259 0.006963491 0 0.118138 0.02295935 0 0.122882 0.01167559 0 0.03938198 0.01282435 0 0.121633 0.0266819 0 0.09599995 0.04199999 0 0.105148 0.04769039 0 0.03045785 0.007369041 0 0.03914046 0.0132637 0 0.116833 0.0227105 0 0.106126 0.05149608 0 0.03007155 0.007688641 0 0.03045785 0.04863089 0 0.03938198 0.04317557 0 0.03914046 0.04273629 0 0.03901576 0.0137493 0 0.09362518 0.04003536 0 0.09314841 0.01580959 0 0.1218 0.02799999 0 0.115507 0.02279388 0 0.107072 0.008188605 0 0.02961796 0.007902085 0 0.03901576 0.01425069 0 0.03007155 0.04831129 0 0.09593719 0.04249739 0 0.104725 0.04795897 0 0.03901576 0.04225069 0 0.114243 0.02320438 0 0.106618 0.008402109 0 0.03075259 0.0490365 0 0.03972518 0.04354095 0 0.113122 0.0239163 0 0.106126 0.008496046 0 0.02961796 0.04809784 0 0.09314841 0.04019039 0 0.03901576 0.04174929 0 0.105625 0.008464515 0 0.03093719 0.04950255 0 0.04014837 0.04380965 0 0.121633 0.02931809 0 0.09575259 0.0429635 0 0.104382 0.0483244 0 0.02912557 0.04800385 0 0.02862519 0.004035413 0 0.02814835 0.004190325 0 0.02772516 0.004458963 0 0.02738195 0.004824399 0 0.03099995 0.04999995 0 0.02714037 0.005263745 0 0.04062515 0.04396456 0 0.0544579 0.04663085 0 0.08038198 0.04682439 0 0.08072507 0.04645895 0 0.02862519 0.04803538 0 0.02233988 0.03247487 0 0.09272515 0.04045897 0 0.09545791 0.04336905 0 0.10414 0.04876369 0 0.03093719 0.05049735 0 0.05407166 0.04631125 0 0.05407166 0.009688615 0 0.05361795 0.00990206 0 0.02814835 0.04819035 0 0.02113777 0.03304058 0 0.09507167 0.04368865 0 0.104016 0.04924929 0 0.08072507 0.009540975 0 0.03075259 0.05096346 0 0.05172508 0.04954099 0 0.125572 0.04381126 0 0.125958 0.04413086 0 0.05475258 0.04703646 0 0.08014041 0.04726368 0 0.126253 0.04453647 0 0.02772516 0.04845899 0 0.01983278 0.03328949 0 0.09461796 0.04390209 0 0.104016 0.04975068 0 0.03045785 0.05136907 0 0.0521484 0.04980969 0 0.09545791 0.01263087 0 0.104382 0.007675528 0 0.10414 0.007236242 0 0.05361795 0.04609787 0 0.02738195 0.04882436 0 0.09412556 0.04399609 0 0.10414 0.05023628 0 0.125118 0.04359787 0 0.1211439 0.03055328 0 0.05493718 0.04750257 0 0.08001577 0.04774928 0 0.09507167 0.01231127 0 0.03007155 0.05168867 0 0.05262517 0.04996454 0 0.104016 0.006750643 0 0.05312556 0.04600387 0 0.09575259 0.01303648 0 0.104725 0.008041024 0 0.02961796 0.05190205 0 0.126437 0.04500257 0 0.09461796 0.01209789 0 0.055 0.04799997 0 0.08001577 0.04825067 0 0.104016 0.006249308 0 0.09593719 0.01350259 0 0.105148 0.008309602 0 0.0544579 0.006630897 0 0.08038198 0.006824374 0 0.08072507 0.006458938 0 0.124626 0.04350399 0 0.120364 0.03162807 0 0.05493718 0.04849737 0 0.08014041 0.04873615 0 0.1265 0.04549998 0 0.05407166 0.006311297 0 0.0811485 0.006190299 0 0.05475258 0.007036447 0 0.09412556 0.01200389 0 0.08014041 0.00726372 0 0.01145786 0.04463088 0 0.01850688 0.0332061 0 0.01724338 0.03279554 0 0.10414 0.005763709 0 0.05475258 0.04896348 0 0.08038198 0.04917556 0 0.09599995 0.01399999 0 0.05361795 0.006097853 0 0.08162528 0.006035387 0 0.01107168 0.04431128 0 0.05493718 0.007502615 0 0.08001577 0.007749319 0 0.124125 0.04353535 0 0.11934 0.03247487 0 0.01175254 0.04503649 0 0.0544579 0.04936909 0 0.08072507 0.04954099 0 0.126437 0.04599738 0 0.0821256 0.006003916 0 0.055 0.007999956 0 0.01061797 0.0440979 0 0.08001577 0.008250653 0 0.05407166 0.04968857 0 0.0811485 0.04980969 0 0.01612168 0.03208369 0 0.09593719 0.01449739 0 0.112212 0.0248847 0 0.0119372 0.0455026 0 0.123648 0.04369026 0 0.05361795 0.04990208 0 0.08162528 0.04996454 0 0.01012557 0.0440039 0 0.05493718 0.008497357 0 0.08014041 0.008736193 0 0.01521217 0.03111529 0 0.126253 0.04646348 0 0.01199996 0.046 0 0.02714037 0.04926365 0 0.009625196 0.04403537 0 0.05475258 0.008963465 0 0.08038198 0.009175539 0 0.0145722 0.02995109 0 0.0119372 0.0464974 0 0.0270158 0.04974925 0 0.09575259 0.01496344 0 0.009148418 0.04419034 0 0.0544579 0.009369075 0 0.01175254 0.04696345 0 0.0270158 0.05025064 0 0.04245787 0.04063087 0 0.123225 0.04395896 0 0.118138 0.03304058 0 0.008725106 0.04445898 0 0.125958 0.04686909 0 0.01424175 0.02866429 0 0.01145786 0.04736906 0 0.02714037 0.05073618 0 0.09545791 0.01536905 0 0.111572 0.02604889 0 0.0420717 0.04031127 0 0.0420717 0.01568865 0 0.04161798 0.0159021 0 0.122882 0.04432439 0 0.04275256 0.04103648 0 0.05262517 0.04603534 0 0.116833 0.03328949 0 0.09507167 0.01568865 0 0.01145786 0.008630871 0 0.0270158 0.005749285 0 0.04161798 0.04009789 0 0.01107168 0.008311331 0 0.01175254 0.009036481 0 0.08345788 0.04663085 0 0.09214049 0.04273629 0 0.0920158 0.04225069 0 0.0270158 0.006250619 0 0 0.04999995 0 0.04293715 0.04150259 0 0.0521484 0.04619038 0 0.008381962 0.04482436 0 0.008140444 0.04526364 0 0.08307158 0.04631125 0 0.008015751 0.04574924 0 0.008015751 0.0462507 0 0.008140444 0.04673629 0 0.008381962 0.04717558 0 0.008725106 0.04754096 0 0.0920158 0.04174929 0 0.01061797 0.008097887 0 0.005999982 0.05599999 0 0.02738195 0.05117559 0 0.02772516 0.05154097 0 0.02814835 0.05180954 0 0.02862519 0.05196458 0 0.02912557 0.05199599 0 0.0119372 0.009502589 0 0.08375257 0.04703646 0 0.009148418 0.04780966 0 0.09238195 0.04317557 0 0.009625196 0.04796457 0 0.01012557 0.0479961 0 0.02714037 0.006736218 0 0.01061797 0.04790204 0 0.01107168 0.04768866 0 0.08261799 0.04609787 0 0.05312556 0.04999595 0 0.04112559 0.04000395 0 0.04112559 0.01599609 0 0.09214049 0.04126375 0 0.04299998 0.04199999 0 0.05172508 0.04645895 0 0.08393716 0.04750257 0 0.09272515 0.04354095 0 0.01012557 0.00800395 0 0.0821256 0.04600387 0 0.01199996 0.00999999 0 0.09238195 0.04082435 0 0.08399999 0.04799997 0 0.09314841 0.04380965 0 0.04293715 0.04249739 0 0.051382 0.04682439 0 0.08162528 0.04603534 0 0.0811485 0.009809613 0 0.009625196 0.008035421 0 0.08345788 0.006630897 0 0.104382 0.005324423 0 0.08307158 0.006311297 0 0.08393716 0.04849737 0 0.09362518 0.04396456 0 0.104725 0.004958927 0 0.08375257 0.007036447 0 0.09362518 0.01203536 0 0.0811485 0.04619038 0 0.04275256 0.0429635 0 0.05114036 0.04726368 0 0.08261799 0.006097853 0 0.08375257 0.04896348 0 0.105148 0.004690349 0 0.08393716 0.007502615 0 0.09314841 0.0121904 0 0.009148418 0.008190333 0 0.08345788 0.04936909 0 0.104382 0.05067557 0 0.08399999 0.007999956 0 0.09272515 0.01245898 0 0 0.005999982 0.002999961 0.133 0.005999982 0.002999961 0.08399999 0.007999956 0.002999961 0.09272515 0.01245898 0.002999961 0.08393716 0.008497357 0.002999961 0.02912557 0.007996022 0.002999961 0.03914046 0.01473629 0.002999961 0.02336347 0.02437186 0.002999961 0.08307158 0.04968857 0.002999961 0.104725 0.05104094 0.002999961 0.08261799 0.04990208 0.002999961 0.105148 0.05130958 0.002999961 0.125572 0.008811295 0.002999961 0.09238195 0.01282435 0.002999961 0.09214049 0.0132637 0.002999961 0.08375257 0.008963465 0.002999961 0.125958 0.009130895 0.002999961 0.126253 0.009536445 0.002999961 0.02862519 0.007964551 0.002999961 0.125118 0.00859785 0.002999961 0.04245787 0.04336905 0.002999961 0.05101579 0.04774928 0.002999961 0.0420717 0.04368865 0.002999961 0.05101579 0.04825067 0.002999961 0.0821256 0.04999595 0.002999961 0.105625 0.05146455 0.002999961 0.126437 0.01000255 0.002999961 0.08345788 0.009369075 0.002999961 0.0920158 0.0137493 0.002999961 0.124626 0.008503913 0.002999961 0.1265 0.01049995 0.002999961 0.02233988 0.02352505 0.002999961 0.02814835 0.007809638 0.002999961 0.0920158 0.01425069 0.002999961 0.08307158 0.009688615 0.002999961 0.124125 0.008535385 0.002999961 0.126437 0.01099735 0.002999961 0.03938198 0.01517558 0.002999961 0.02414435 0.02544665 0.002999961 0.03972518 0.01554095 0.002999961 0.123648 0.008690297 0.002999961 0.09214049 0.01473629 0.002999961 0.08261799 0.00990206 0.002999961 0.126253 0.01146346 0.002999961 0.123225 0.008958935 0.002999961 0.05101579 0.008250653 0.002999961 0.05114036 0.008736193 0.002999961 0.04245787 0.01263087 0.002999961 0.05114036 0.04873615 0.002999961 0.04161798 0.04390209 0.002999961 0.125958 0.01186907 0.002999961 0.09238195 0.01517558 0.002999961 0.0821256 0.009995996 0.002999961 0.02772516 0.007541 0.002999961 0.02113777 0.02295935 0.002999961 0.122882 0.009324371 0.002999961 0.05101579 0.007749319 0.002999961 0.0420717 0.01231127 0.002999961 0.125572 0.01218867 0.002999961 0.09272515 0.01554095 0.002999961 0.08162528 0.009964525 0.002999961 0.051382 0.009175539 0.002999961 0.04275256 0.01303648 0.002999961 0.04014837 0.01580959 0.002999961 0.02463346 0.0266819 0.002999961 0.04161798 0.01209789 0.002999961 0.05114036 0.00726372 0.002999961 0.04293715 0.01350259 0.002999961 0.125118 0.04740208 0.002999961 0.125572 0.04718869 0.002999961 0.127 0.05599999 0.002999961 0.051382 0.04917556 0.002999961 0.04112559 0.04399609 0.002999961 0.05172508 0.009540975 0.002999961 0.133 0.04999995 0.002999961 0.122882 0.04667556 0.002999961 0.123225 0.04704099 0.002999961 0.051382 0.006824374 0.002999961 0.04112559 0.01200389 0.002999961 0.123648 0.04730969 0.002999961 0.124125 0.04746454 0.002999961 0.124626 0.04749608 0.002999961 0.115507 0.0332061 0.002999961 0.12264 0.0447638 0.002999961 0.107458 0.04813086 0.002999961 0.0521484 0.009809613 0.002999961 0.04299998 0.01399999 0.002999961 0.122516 0.04524928 0.002999961 0.0119372 0.01049739 0.002999961 0.02738195 0.007175564 0.002999961 0.01983278 0.0227105 0.002999961 0.107072 0.04781126 0.002999961 0.01175254 0.01096349 0.002999961 0.107458 0.005130887 0.002999961 0.107072 0.004811286 0.002999961 0.114243 0.03279554 0.002999961 0.107753 0.005536437 0.002999961 0.04293715 0.01449739 0.002999961 0.05262517 0.009964525 0.002999961 0.107753 0.04853647 0.002999961 0.122516 0.04575067 0.002999961 0.106618 0.004597842 0.002999961 0.113122 0.03208369 0.002999961 0.106618 0.04759788 0.002999961 0.107937 0.006002604 0.002999961 0.04062515 0.01596456 0.002999961 0.04062515 0.04003536 0.002999961 0.0248 0.02799999 0.002999961 0.05312556 0.009995996 0.002999961 0.04275256 0.01496344 0.002999961 0.107937 0.04900258 0.002999961 0.106126 0.004503905 0.002999961 0.12264 0.04623627 0.002999961 0.04014837 0.04019039 0.002999961 0.108 0.006499946 0.002999961 0.12264 0.009763717 0.002999961 0.106126 0.04750388 0.002999961 0.04245787 0.01536905 0.002999961 0.108 0.04949998 0.002999961 0.105625 0.004535377 0.002999961 0.122516 0.01024925 0.002999961 0.107937 0.006997346 0.002999961 0.105625 0.04753535 0.002999961 0.0521484 0.006190299 0.002999961 0.05172508 0.006458938 0.002999961 0.03045785 0.004630863 0.002999961 0.107937 0.04999738 0.002999961 0.122516 0.01075065 0.002999961 0.107753 0.007463455 0.002999961 0.05262517 0.006035387 0.002999961 0.03007155 0.004311323 0.002999961 0.01145786 0.01136904 0.002999961 0.01850688 0.02279388 0.002999961 0.107458 0.007869064 0.002999961 0.03075259 0.005036473 0.002999961 0.02463346 0.02931809 0.002999961 0.12264 0.01123625 0.002999961 0.03972518 0.04045897 0.002999961 0.107753 0.05046349 0.002999961 0.01724338 0.02320438 0.002999961 0.05312556 0.006003916 0.002999961 0.02961796 0.004097878 0.002999961 0.01061797 0.01190209 0.002999961 0.01107168 0.01168864 0.002999961 0.107458 0.05086904 0.002999961 0.04062515 0.01203536 0.002999961 0.03093719 0.005502581 0.002999961 0.02414435 0.03055328 0.002999961 0.03938198 0.04082435 0.002999961 0.03914046 0.04126375 0.002999961 0.008725106 0.008458912 0.002999961 0.008381962 0.008824408 0.002999961 0.008140444 0.009263694 0.002999961 0.008015751 0.009749293 0.002999961 0.02912557 0.004003942 0.002999961 0.008015751 0.01025068 0.002999961 0.008140444 0.01073628 0.002999961 0.107072 0.05118864 0.002999961 0.008381962 0.01117557 0.002999961 0.008725106 0.01154094 0.002999961 0.01612168 0.0239163 0.002999961 0.03099995 0.005999982 0.002999961 0.04014837 0.0121904 0.002999961 0.111572 0.02995109 0.002999961 0.112212 0.03111529 0.002999961 0.09545791 0.04063087 0.002999961 0.01012557 0.01199609 0.002999961 0.02336347 0.03162807 0.002999961 0.1112419 0.02866429 0.002999961 0.09507167 0.04031127 0.002999961 0.01521217 0.0248847 0.002999961 0.009625196 0.01196455 0.002999961 0.09575259 0.04103648 0.002999961 0.03972518 0.01245898 0.002999961 0.03093719 0.006497323 0.002999961 0.124125 0.01246458 0.002999961 0.124626 0.01249605 0.002999961 0.120364 0.02437186 0.002999961 0.0145722 0.02604889 0.002999961 0.009148418 0.01180958 0.002999961 0.09461796 0.04009789 0.002999961 0.09412556 0.01599609 0.002999961 0.09461796 0.0159021 0.002999961 0.1112419 0.0273357 0.002999961 0.11934 0.02352505 0.002999961 0.123225 0.01204097 0.002999961 0.123648 0.01230955 0.002999961 0.01424175 0.0273357 0.002999961 0.106618 0.05140209 0.002999961 0.09593719 0.04150259 0.002999961 0.125118 0.01240205 0.002999961 0.1211439 0.02544665 0.002999961 0.09362518 0.01596456 0.002999961 0.09412556 0.04000395 0.002999961 0.122882 0.01167559 0.002999961 0.118138 0.02295935 0.002999961 0.03938198 0.01282435 0.002999961 0.03075259 0.006963491 0.002999961 0.121633 0.0266819 0.002999961 0.105148 0.04769039 0.002999961 0.09599995 0.04199999 0.002999961 0.116833 0.0227105 0.002999961 0.03914046 0.0132637 0.002999961 0.03045785 0.007369041 0.002999961 0.106126 0.05149608 0.002999961 0.09314841 0.01580959 0.002999961 0.09362518 0.04003536 0.002999961 0.1218 0.02799999 0.002999961 0.03901576 0.0137493 0.002999961 0.03007155 0.007688641 0.002999961 0.115507 0.02279388 0.002999961 0.03914046 0.04273629 0.002999961 0.03938198 0.04317557 0.002999961 0.03045785 0.04863089 0.002999961 0.107072 0.008188605 0.002999961 0.03007155 0.04831129 0.002999961 0.09593719 0.04249739 0.002999961 0.03901576 0.01425069 0.002999961 0.02961796 0.007902085 0.002999961 0.104725 0.04795897 0.002999961 0.03901576 0.04225069 0.002999961 0.106618 0.008402109 0.002999961 0.114243 0.02320438 0.002999961 0.03075259 0.0490365 0.002999961 0.03972518 0.04354095 0.002999961 0.02961796 0.04809784 0.002999961 0.09314841 0.04019039 0.002999961 0.105625 0.008464515 0.002999961 0.106126 0.008496046 0.002999961 0.113122 0.0239163 0.002999961 0.03901576 0.04174929 0.002999961 0.121633 0.02931809 0.002999961 0.03093719 0.04950255 0.002999961 0.04014837 0.04380965 0.002999961 0.02912557 0.04800385 0.002999961 0.104382 0.0483244 0.002999961 0.09575259 0.0429635 0.002999961 0.02862519 0.004035413 0.002999961 0.02814835 0.004190325 0.002999961 0.02772516 0.004458963 0.002999961 0.02738195 0.004824399 0.002999961 0.02714037 0.005263745 0.002999961 0.04062515 0.04396456 0.002999961 0.03099995 0.04999995 0.002999961 0.09272515 0.04045897 0.002999961 0.02862519 0.04803538 0.002999961 0.08072507 0.04645895 0.002999961 0.08038198 0.04682439 0.002999961 0.0544579 0.04663085 0.002999961 0.09545791 0.04336905 0.002999961 0.10414 0.04876369 0.002999961 0.02233988 0.03247487 0.002999961 0.03093719 0.05049735 0.002999961 0.09507167 0.04368865 0.002999961 0.125958 0.04413086 0.002999961 0.125572 0.04381126 0.002999961 0.104016 0.04924929 0.002999961 0.08072507 0.009540975 0.002999961 0.05407166 0.04631125 0.002999961 0.02113777 0.03304058 0.002999961 0.02814835 0.04819035 0.002999961 0.126253 0.04453647 0.002999961 0.05172508 0.04954099 0.002999961 0.03075259 0.05096346 0.002999961 0.05361795 0.00990206 0.002999961 0.05407166 0.009688615 0.002999961 0.08014041 0.04726368 0.002999961 0.05475258 0.04703646 0.002999961 0.09461796 0.04390209 0.002999961 0.104016 0.04975068 0.002999961 0.10414 0.007236242 0.002999961 0.104382 0.007675528 0.002999961 0.09545791 0.01263087 0.002999961 0.01983278 0.03328949 0.002999961 0.02772516 0.04845899 0.002999961 0.125118 0.04359787 0.002999961 0.0521484 0.04980969 0.002999961 0.03045785 0.05136907 0.002999961 0.05361795 0.04609787 0.002999961 0.1211439 0.03055328 0.002999961 0.09507167 0.01231127 0.002999961 0.09412556 0.04399609 0.002999961 0.10414 0.05023628 0.002999961 0.02738195 0.04882436 0.002999961 0.08001577 0.04774928 0.002999961 0.05493718 0.04750257 0.002999961 0.104016 0.006750643 0.002999961 0.09575259 0.01303648 0.002999961 0.05262517 0.04996454 0.002999961 0.03007155 0.05168867 0.002999961 0.104725 0.008041024 0.002999961 0.05312556 0.04600387 0.002999961 0.126437 0.04500257 0.002999961 0.09461796 0.01209789 0.002999961 0.02961796 0.05190205 0.002999961 0.104016 0.006249308 0.002999961 0.09593719 0.01350259 0.002999961 0.08001577 0.04825067 0.002999961 0.055 0.04799997 0.002999961 0.105148 0.008309602 0.002999961 0.124626 0.04350399 0.002999961 0.120364 0.03162807 0.002999961 0.08072507 0.006458938 0.002999961 0.08038198 0.006824374 0.002999961 0.0544579 0.006630897 0.002999961 0.1265 0.04549998 0.002999961 0.08014041 0.04873615 0.002999961 0.05493718 0.04849737 0.002999961 0.05407166 0.006311297 0.002999961 0.0811485 0.006190299 0.002999961 0.05475258 0.007036447 0.002999961 0.09412556 0.01200389 0.002999961 0.08014041 0.00726372 0.002999961 0.10414 0.005763709 0.002999961 0.09599995 0.01399999 0.002999961 0.08038198 0.04917556 0.002999961 0.05475258 0.04896348 0.002999961 0.05361795 0.006097853 0.002999961 0.01724338 0.03279554 0.002999961 0.01850688 0.0332061 0.002999961 0.01145786 0.04463088 0.002999961 0.08162528 0.006035387 0.002999961 0.01107168 0.04431128 0.002999961 0.05493718 0.007502615 0.002999961 0.124125 0.04353535 0.002999961 0.08001577 0.007749319 0.002999961 0.01175254 0.04503649 0.002999961 0.08072507 0.04954099 0.002999961 0.0544579 0.04936909 0.002999961 0.11934 0.03247487 0.002999961 0.126437 0.04599738 0.002999961 0.0821256 0.006003916 0.002999961 0.09593719 0.01449739 0.002999961 0.01612168 0.03208369 0.002999961 0.01061797 0.0440979 0.002999961 0.055 0.007999956 0.002999961 0.112212 0.0248847 0.002999961 0.0811485 0.04980969 0.002999961 0.05407166 0.04968857 0.002999961 0.0119372 0.0455026 0.002999961 0.08001577 0.008250653 0.002999961 0.123648 0.04369026 0.002999961 0.01012557 0.0440039 0.002999961 0.08162528 0.04996454 0.002999961 0.05361795 0.04990208 0.002999961 0.05493718 0.008497357 0.002999961 0.01521217 0.03111529 0.002999961 0.01199996 0.046 0.002999961 0.02714037 0.04926365 0.002999961 0.08014041 0.008736193 0.002999961 0.126253 0.04646348 0.002999961 0.009625196 0.04403537 0.002999961 0.05475258 0.008963465 0.002999961 0.0145722 0.02995109 0.002999961 0.0119372 0.0464974 0.002999961 0.0270158 0.04974925 0.002999961 0.08038198 0.009175539 0.002999961 0.09575259 0.01496344 0.002999961 0.009148418 0.04419034 0.002999961 0.0544579 0.009369075 0.002999961 0.01175254 0.04696345 0.002999961 0.0270158 0.05025064 0.002999961 0.123225 0.04395896 0.002999961 0.118138 0.03304058 0.002999961 0.008725106 0.04445898 0.002999961 0.01424175 0.02866429 0.002999961 0.125958 0.04686909 0.002999961 0.02714037 0.05073618 0.002999961 0.01145786 0.04736906 0.002999961 0.111572 0.02604889 0.002999961 0.09545791 0.01536905 0.002999961 0.04245787 0.04063087 0.002999961 0.0420717 0.04031127 0.002999961 0.04161798 0.0159021 0.002999961 0.0420717 0.01568865 0.002999961 0.116833 0.03328949 0.002999961 0.122882 0.04432439 0.002999961 0.05262517 0.04603534 0.002999961 0.04275256 0.04103648 0.002999961 0.09507167 0.01568865 0.002999961 0.01145786 0.008630871 0.002999961 0.0270158 0.005749285 0.002999961 0.04161798 0.04009789 0.002999961 0.01107168 0.008311331 0.002999961 0.0920158 0.04225069 0.002999961 0.09214049 0.04273629 0.002999961 0.08345788 0.04663085 0.002999961 0.0270158 0.006250619 0.002999961 0.01175254 0.009036481 0.002999961 0 0.04999995 0.002999961 0.08307158 0.04631125 0.002999961 0.008381962 0.04482436 0.002999961 0.008140444 0.04526364 0.002999961 0.0521484 0.04619038 0.002999961 0.04293715 0.04150259 0.002999961 0.008015751 0.04574924 0.002999961 0.008015751 0.0462507 0.002999961 0.008140444 0.04673629 0.002999961 0.008381962 0.04717558 0.002999961 0.008725106 0.04754096 0.002999961 0.0920158 0.04174929 0.002999961 0.02738195 0.05117559 0.002999961 0.005999982 0.05599999 0.002999961 0.02772516 0.05154097 0.002999961 0.02814835 0.05180954 0.002999961 0.02862519 0.05196458 0.002999961 0.01061797 0.008097887 0.002999961 0.08375257 0.04703646 0.002999961 0.02912557 0.05199599 0.002999961 0.009148418 0.04780966 0.002999961 0.0119372 0.009502589 0.002999961 0.09238195 0.04317557 0.002999961 0.009625196 0.04796457 0.002999961 0.01012557 0.0479961 0.002999961 0.01061797 0.04790204 0.002999961 0.01107168 0.04768866 0.002999961 0.02714037 0.006736218 0.002999961 0.08261799 0.04609787 0.002999961 0.05312556 0.04999595 0.002999961 0.04112559 0.04000395 0.002999961 0.04112559 0.01599609 0.002999961 0.09214049 0.04126375 0.002999961 0.04299998 0.04199999 0.002999961 0.08393716 0.04750257 0.002999961 0.05172508 0.04645895 0.002999961 0.09272515 0.04354095 0.002999961 0.01012557 0.00800395 0.002999961 0.0821256 0.04600387 0.002999961 0.01199996 0.00999999 0.002999961 0.09238195 0.04082435 0.002999961 0.08399999 0.04799997 0.002999961 0.09314841 0.04380965 0.002999961 0.051382 0.04682439 0.002999961 0.04293715 0.04249739 0.002999961 0.08162528 0.04603534 0.002999961 0.009625196 0.008035421 0.002999961 0.104382 0.005324423 0.002999961 0.08345788 0.006630897 0.002999961 0.0811485 0.009809613 0.002999961 0.08307158 0.006311297 0.002999961 0.08393716 0.04849737 0.002999961 0.104725 0.004958927 0.002999961 0.09362518 0.01203536 0.002999961 0.08375257 0.007036447 0.002999961 0.09362518 0.04396456 0.002999961 0.0811485 0.04619038 0.002999961 0.08261799 0.006097853 0.002999961 0.04275256 0.0429635 0.002999961 0.05114036 0.04726368 0.002999961 0.08375257 0.04896348 0.002999961 0.105148 0.004690349 0.002999961 0.09314841 0.0121904 0.002999961 0.08393716 0.007502615 0.002999961 0.009148418 0.008190333 0.002999961 0.08345788 0.04936909 0.002999961 0.104382 0.05067557 0.002999961</float_array>
          <technique_common>
            <accessor source="#shape0_015-mesh-positions-array" count="916" stride="3">
              <param name="X" type="float"/>
              <param name="Y" type="float"/>
              <param name="Z" type="float"/>
            </accessor>
          </technique_common>
        </source>
        <source id="shape0_015-mesh-normals">
          <float_array id="shape0_015-mesh-normals-array" count="3375">0 -1 0 0 0 -1 0 0 1 -0.7071068 -0.7071068 0 0.7071076 -0.7071061 0 0.7071064 -0.7071072 0 0 0 1 0 0 1 -1.3147e-7 0 1 -8.68672e-7 0 1 -3.84147e-7 0 1 -1.32037e-7 0 1 3.09161e-7 0 1 3.86859e-7 0 1 -3.22463e-7 0 1 5.17255e-7 0 1 1.28398e-7 0 1 6.65427e-7 0 1 -3.91921e-7 0 1 4.5234e-7 0 1 0 0 1 3.23419e-6 0 1 -8.77199e-7 0 1 -5.37124e-7 0 1 -5.55442e-7 0 1 1.6404e-7 0 1 0 0 1 0 0 1 8.45057e-7 0 1 -3.97955e-7 0 1 0 0 1 0 0 1 -8.69142e-7 0 1 0 0 1 0 0 1 0 0 1 0 0 1 -1.65854e-7 0 1 4.24278e-7 0 1 -4.96688e-7 0 1 0 0 1 3.30401e-7 0 1 -4.7668e-7 0 1 0 0 1 2.46024e-7 0 1 0 0 1 0 0 1 -8.88251e-7 0 1 2.51796e-7 0 1 -2.51886e-7 0 1 -1.9995e-7 0 1 8.97399e-7 0 1 1.62837e-7 0 1 0 0 1 0 0 1 2.69363e-7 0 1 -2.61543e-7 0 1 8.29793e-7 0 1 0 0 1 0 0 1 -1.4098e-7 0 1 -1.11224e-6 0 1 -1.01786e-6 0 1 -1.51014e-7 0 1 7.92946e-7 0 1 1.02507e-6 0 1 0 0 1 0 0 1 -4.52613e-7 0 1 -2.21123e-7 0 1 3.66006e-7 0 1 8.32573e-7 0 1 -1.486e-7 0 1 -2.95152e-7 0 1 0 0 1 -2.73154e-7 0 1 2.77037e-7 0 1 3.77437e-7 0 1 -7.36581e-7 0 1 0 0 1 1.77428e-7 0 1 1.23293e-6 0 1 0 0 1 0 0 1 0 0 1 -2.27351e-7 0 1 7.04398e-7 0 1 5.14506e-7 0 1 6.446e-7 0 1 -1.26776e-6 0 1 8.80381e-7 0 1 0 0 1 0 0 1 -1.96803e-7 0 1 -8.73131e-7 0 1 0 0 1 -7.72055e-7 0 1 0 0 1 9.07464e-7 0 1 0 0 1 8.11716e-7 0 1 -8.82574e-7 0 1 2.89101e-7 0 1 4.96201e-7 0 1 -3.56369e-7 0 1 -8.32745e-7 0 1 -9.27149e-7 0 1 0 0 1 1.45909e-7 0 1 0 0 1 3.58072e-7 0 1 -3.42395e-7 0 1 -3.74417e-7 0 1 1.53186e-5 0 -1 0 0 1 2.5735e-7 0 1 8.75788e-7 0 1 0 0 1 8.20921e-7 0 1 -7.72043e-7 0 1 3.5529e-7 0 1 -3.01539e-7 0 1 -6.93303e-7 0 1 2.00761e-7 0 1 6.44599e-7 0 1 -3.27613e-7 0 1 7.30736e-7 0 1 0 0 1 3.61435e-7 0 1 -1.72545e-6 0 1 -4.61768e-7 0 1 2.25638e-7 0 1 7.72134e-7 0 1 8.20742e-7 0 1 -1.9748e-7 0 1 0 0 1 0 0 1 0 0 1 0 0 1 0 0 1 0 0 1 0 0 1 0 0 1 0 0 1 1.33145e-7 0 1 0 0 1 0 0 1 -4.73141e-7 0 1 5.17256e-7 0 1 -4.47772e-7 0 1 0 0 1 0 0 1 5.03987e-7 0 1 0 0 1 0 0 1 0 0 1 1.98391e-7 0 1 0 0 1 -2.56243e-7 0 1 0 0 1 0 0 1 -2.43388e-7 0 1 2.44496e-7 0 1 0 0 1 -9.6265e-7 0 1 0 0 1 4.92511e-7 0 1 -2.35139e-7 0 1 0 0 1 3.63119e-7 0 1 2.37679e-7 0 1 -2.69685e-7 0 1 -5.47226e-7 0 1 0 0 1 -5.90704e-7 0 1 -7.22478e-7 0 1 -1.30262e-6 0 1 1.53029e-6 0 1 4.57431e-7 0 1 -3.65178e-7 0 1 0 0 1 2.52794e-7 0 1 -5.54742e-7 0 1 3.00331e-7 0 1 -2.8617e-7 0 1 3.86863e-7 0 1 0 0 1 0 0 1 2.82767e-6 0 1 4.16783e-7 0 1 -2.25567e-7 0 1 2.35543e-7 0 1 -3.34927e-7 0 1 -2.11448e-7 0 1 0 0 1 0 0 1 -8.43523e-7 0 1 -8.79848e-7 0 1 1.02383e-6 0 1 0 0 1 5.10511e-7 0 1 4.2992e-7 0 1 -2.87929e-7 0 1 0 0 1 -5.58694e-7 0 1 -2.44487e-7 0 1 0 0 1 5.38801e-7 0 1 0 0 1 -3.93731e-7 0 1 -1.69828e-6 0 1 5.84282e-7 0 1 0 0 1 0 0 1 -8.46112e-7 0 1 4.24281e-7 0 1 2.43388e-7 0 1 -2.94927e-7 0 1 0 0 1 0 0 1 0 0 1 -3.23495e-7 0 1 4.94409e-7 0 1 0 0 1 0 0 1 3.09987e-7 0 1 0 0 1 4.29955e-7 0 1 3.86896e-7 0 1 -4.24301e-7 0 1 0 0 1 1.22108e-7 0 1 -1 0 0 1 0 0 -0.7071071 0.7071065 0 0.7071067 0.7071069 0 0.7071079 0.7071058 0 0 1 0 -0.1875166 -0.9822615 0 -0.1875131 -0.9822622 0 -0.9921222 0.125274 0 -0.4256237 -0.9049003 0 -0.6375534 -0.7704063 0 -0.9921246 0.125255 0 -0.8089986 -0.5878108 0 -0.92974 0.3682168 0 -0.8090078 -0.5877981 0 -0.8090071 0.587799 0 -0.9297333 0.3682335 0 -0.9297332 -0.3682342 0 -0.9297398 -0.3682175 0 -0.6375534 0.7704063 0 -0.9921246 -0.125255 0 -0.8089979 0.5878117 0 -0.9921222 -0.125274 0 -0.4256252 0.9048995 0 -0.1875149 0.9822618 0 -0.1875113 0.9822626 0 0.06282407 0.9980247 0 0.3088401 0.951114 0 0.3088401 0.951114 0 0.3088401 0.9511141 0 0.06282347 0.9980247 0 0.3088372 0.951115 0 0.3088372 0.951115 0 0.3088372 0.951115 0 0.5358693 0.8443011 0 0.7288961 0.6846243 0 0.7289106 0.6846089 0 0.8763098 0.4817479 0 0.876314 0.4817405 0 0.9685739 0.248726 0 0.9685739 -0.248726 0 0.8763098 -0.4817479 0 0.876314 -0.4817405 0 0.7289098 -0.6846098 0 0.7288953 -0.6846253 0 0.5358679 -0.8443019 0 0.3091564 -0.9510113 0 0.3088401 -0.951114 0 0.3088401 -0.9511141 0 0.3088401 -0.951114 0 0.06282776 -0.9980244 0 0.06282716 -0.9980245 0 -0.187323 -0.9822984 0 -0.9921247 0.1252548 0 -0.4257879 -0.904823 0 -0.6374343 -0.7705048 0 -0.8089973 -0.5878126 0 -0.8090065 -0.5877999 0 -0.8090065 0.5877999 0 -0.9297333 -0.3682335 0 -0.9921247 -0.1252548 0 -0.8089973 0.5878126 0 -0.4256237 0.9049003 0 -0.1875166 0.9822615 0 0.06282836 0.9980244 0 0.3088367 0.9511151 -1.4404e-7 0.3088367 0.9511151 0 0.3088367 0.9511151 0 0.06282597 0.9980245 0 0.3088367 0.9511151 0 0.3088367 0.9511151 0 0.3088367 0.9511151 0 0.5357742 0.8443613 0 0.7289958 0.6845182 0 0.535783 0.8443558 0 0.7290055 0.6845079 0 0.8763903 0.4816017 0 0.8763903 0.4816017 0 0.8763903 0.4816017 0 0.8763903 0.4816017 0 0.8763903 0.4816017 3.05571e-7 0.8763903 0.4816017 0 0.9686251 0.2485268 0 0.968537 0.24887 -2.57328e-7 0.968537 0.24887 0 0.968537 0.24887 0 0.968608 -0.2485932 0 0.9686127 -0.2485751 0 0.8762751 -0.4818111 0 0.7290055 -0.6845079 0 0.7289958 -0.6845182 0 0.5359173 -0.8442705 0 0.5359261 -0.8442651 0 0.3089744 -0.9510704 0 0.06262856 -0.998037 0 0.06262612 -0.998037 0 -0.9921224 0.1252729 0 -0.9921248 0.1252538 0 -0.9297389 0.3682193 0 -0.809009 0.5877963 0 -0.9297323 0.3682361 0 -0.92974 -0.3682168 0 -0.9921245 -0.1252557 0 -0.8089998 0.587809 0 -0.9921222 -0.1252747 0 -0.187323 0.9822984 0 -0.1873195 0.9822991 0 0.06296288 0.9980159 0 0.06296288 0.9980159 0 0.06296288 0.9980159 0 0.06262737 0.998037 0 0.309153 0.9510123 0 0.5358706 0.8443002 0 0.7288979 0.6846225 0 0.7289124 0.684607 0 0.8763552 0.4816656 0 0.8763592 0.4816582 0 0.9685618 0.248773 0 0.9685738 -0.2487265 0 0.8763103 -0.4817472 0 0.8763145 -0.4817398 0 0.7289088 -0.6846107 0 0.7288944 -0.6846262 0 0.5360136 -0.8442094 0 0.3089783 -0.9510692 0 0.3089811 -0.9510682 0 0.06282037 -0.9980249 0 0.06281977 -0.998025 0 -0.1873493 -0.9822934 0 -0.1873497 -0.9822934 0 -0.4258009 -0.9048169 0 -0.4257995 -0.9048176 0 -0.9921163 0.1253209 0 -0.6374254 -0.7705122 0 -0.6374272 -0.7705107 0 -0.9297626 0.3681598 0 -0.809013 0.5877909 0 -0.9297639 0.3681566 0 -0.8090135 -0.5877902 0 -0.9297626 -0.3681598 0 -0.9297639 -0.3681566 0 -0.9921163 -0.125321 0 -0.6374254 0.7705122 0 -0.6374272 0.7705107 0 -0.4258009 0.9048169 0 -0.4257995 0.9048176 0 -0.1873507 0.9822932 0 0.06277644 0.9980277 0 -0.1873511 0.9822931 0 0.0627765 0.9980277 0 0.3089933 0.9510643 0 0.3089928 0.9510644 0 0.5358518 0.8443122 0 0.5358526 0.8443116 0 0.7289269 0.6845915 0 0.876315 0.4817385 0 0.8763135 0.4817413 0 0.9685819 0.2486951 0 0.9685819 -0.2486947 0 0.876315 -0.4817385 0 0.8763135 -0.4817413 0 0.7289269 -0.6845915 0 0.5358518 -0.8443122 0 0.5358526 -0.8443116 0 0.3089933 -0.9510643 0 0.3089928 -0.9510644 0 0.06277513 -0.9980278 0 0.06277501 -0.9980278 0 -0.1873213 -0.9822987 0 -0.9921233 0.1252652 0 -0.4256982 -0.9048653 0 -0.4257019 -0.9048635 0 -0.6374536 -0.7704888 0 -0.8090019 -0.5878062 0 -0.9297367 0.3682252 0 -0.8090019 0.5878062 0 -0.9297367 -0.3682252 0 -0.6374536 0.7704888 0 -0.9921236 -0.1252633 0 -0.4256982 0.9048653 0 -0.4257019 0.9048635 0 -0.1875149 0.9822618 0 0.06282776 0.9980244 0 0.06282716 0.9980245 0 0.7288993 0.6846211 0 0.8764595 0.4814757 0 0.8764595 0.4814757 0 0.8764595 0.4814757 0 0.8764595 0.4814757 0 0.8764595 0.4814757 5.05564e-7 0.8764595 0.4814757 0 0.9686227 0.2485359 0 0.9686103 -0.2485842 0 0.7288993 -0.6846211 0 0.5358706 -0.8443002 0 0.3088367 -0.9511151 0 0.3088367 -0.9511151 1.60841e-7 0.3088367 -0.9511151 0 0.309153 -0.9510123 0 0.06296288 -0.9980159 -3.45654e-7 0.06296288 -0.9980159 0 0.06296288 -0.9980159 0 0.06262737 -0.998037 0 -0.1874001 -0.9822837 0 -0.1874072 -0.9822823 0 -0.9921216 0.1252788 0 -0.4257744 -0.9048295 0 -0.6374315 -0.7705072 0 -0.6374124 -0.7705229 0 -0.8089843 -0.5878302 0 -0.9297479 0.3681968 0 -0.8089915 0.5878204 0 -0.929748 -0.3681965 0 -0.6374014 0.770532 0 -0.9921216 -0.1252791 0 -0.6374204 0.7705163 0 -0.4257729 0.9048301 0 -0.187401 0.9822835 0 -0.1874082 0.9822822 0 0.06277942 0.9980275 0 0.309021 0.9510553 0 0.06277704 0.9980276 0 0.3090381 0.9510497 0 0.5357139 0.8443996 0 0.7290436 0.6844673 0 0.5357314 0.8443885 0 0.7290533 0.684457 0 0.8762454 0.4818652 0 0.9686181 0.2485541 0 0.9686181 -0.2485539 0 0.8762454 -0.4818652 0 0.7290533 -0.684457 0 0.7290436 -0.6844673 0 0.5357132 -0.8444001 0 0.5357307 -0.844389 0 0.3090389 -0.9510495 0 0.3090218 -0.9510549 0 0.06277942 -0.9980275 0 0.06277704 -0.9980276 0 -0.1874181 -0.9822803 0 -0.1874198 -0.9822799 0 -0.9921228 0.1252694 0 -0.4257804 -0.9048267 0 -0.4257841 -0.9048249 0 -0.6374183 -0.7705181 0 -0.808989 -0.5878239 0 -0.9297444 0.3682054 0 -0.8089893 0.5878234 0 -0.9297478 0.3681971 0 -0.9297479 -0.3681968 0 -0.9297447 -0.3682051 0 -0.6374177 0.7705185 0 -0.9921228 -0.1252695 0 -0.4257804 0.9048267 0 -0.4257841 0.9048249 0 -0.1873992 0.9822839 0 0.06278616 0.998027 0 0.3090119 0.9510582 0 0.06278556 0.9980272 0 0.3090147 0.9510573 0 0.5358977 0.8442829 0 0.7289563 0.6845603 0 0.8762375 0.4818797 0 0.9686204 0.2485451 0 0.9686204 -0.2485451 0 0.8762372 -0.48188 0 0.7289567 -0.6845599 0 0.5358977 -0.8442829 0 0.3090147 -0.9510573 0 0.3090119 -0.9510582 0 0.06280559 -0.9980258 0 0.06280499 -0.9980258 0 -0.992124 0.1252598 0 -0.4257073 -0.9048609 0 -0.637517 -0.7704363 0 -0.9297413 0.3682135 0 -0.8089936 -0.5878176 0 -0.8090006 0.5878078 0 -0.9297414 -0.3682132 0 -0.637506 0.7704455 0 -0.992124 -0.1252601 0 -0.4257058 0.9048616 0 0.06276732 0.9980282 0 0.3090324 0.9510515 0 0.06276488 0.9980284 0 0.5358014 0.8443441 0 0.5358102 0.8443386 0 0.7290629 0.6844468 0 0.8762372 0.48188 0 0.9686228 0.2485359 0 0.9685394 -0.2488608 0 0.9685394 -0.2488608 0 0.9685394 -0.2488608 0 0.7290629 -0.6844468 0 0.5358007 -0.8443445 0 0.5358095 -0.844339 0 0.3090332 -0.9510513 0 0.06276732 -0.9980282 0 0.06276488 -0.9980284 0 -0.1873301 -0.982297 0 -0.9921222 0.1252738 0 -0.4258551 -0.9047915 0 -0.6373487 -0.7705755 0 -0.6373297 -0.7705913 0 -0.6374489 0.7704927 0 -0.9921222 -0.1252738 0 -0.6374678 0.770477 0 -0.4256908 0.9048688 0 -0.1871941 0.9823229 0 -0.1871941 0.9823229 0 -0.1871941 0.9823229 0 0.06284052 0.9980236 0 0.3086885 0.9511632 -2.05772e-7 0.3086886 0.9511632 0 0.3086885 0.9511632 0 0.06283807 0.9980238 0 0.3091616 0.9510096 0 0.5356867 0.8444169 0 0.7289862 0.6845285 0 0.5357043 0.8444058 0 0.8763984 0.4815868 0 0.8763984 0.4815868 0 0.8763984 0.4815868 0 0.8763984 0.4815868 0 0.8763984 0.4815868 0 0.8763984 0.4815868 0 0.9685012 0.2490093 0 0.9685012 0.2490093 0 0.9685012 0.2490093 0 0.9685012 0.2490093 -5.74483e-7 0.9685012 0.2490093 0 0.9685012 0.2490093 0 0.8762834 -0.4817962 0 0.7289862 -0.6845285 0 0.5358297 -0.8443261 0 0.5358473 -0.844315 0 0.3089801 -0.9510686 0 0.308963 -0.9510741 0 0.06264066 -0.9980362 0 0.06263822 -0.9980363 0 -0.4256162 -0.9049038 0 -0.6375439 -0.7704141 0 -0.6375629 -0.7703983 0 -0.809017 -0.5877854 0 -0.8090163 0.5877863 0 -0.6375629 0.7703983 0 -0.6375439 0.7704141 0 -0.4259213 0.9047602 0 -0.4259213 0.9047602 0 -0.4259213 0.9047602 0 -0.4259213 0.9047602 0 -0.4259213 0.9047602 0 -0.4259213 0.9047602 0 0.06282228 0.9980248 0 0.3091592 0.9510103 0 0.06282466 0.9980246 0 0.535878 0.8442955 0 0.5358605 0.8443067 0 0.7288913 0.6846295 0 0.8763263 0.4817183 0 0.9685646 0.2487623 0 0.9685833 0.2486897 0 0.9685833 -0.2486897 0 0.9685646 -0.2487623 0 0.8763263 -0.4817183 0 0.7288904 -0.6846304 0 0.5358766 -0.8442963 0 0.5358592 -0.8443075 0 0.3091592 -0.9510103 0 0.06282597 -0.9980245 0 0.06282836 -0.9980244 0 -0.8090157 -0.5877872 0 -0.8090182 0.5877837 0 -0.4256162 0.9049038 0 0.06262612 0.998037 0 0.3091559 0.9510115 0 0.06262856 0.998037 0 0.5358793 0.8442947 0 0.5358618 0.8443057 0 0.7288931 0.6846276 0 0.8763715 0.4816359 0 0.9685525 0.2488093 0 0.9685711 0.2487367 0 0.9685832 -0.2486902 0 0.9685645 -0.2487628 0 0.8763266 -0.4817174 0 0.7288896 -0.6846314 0 0.5360224 -0.8442038 0 0.5356001 -0.8444718 0 0.5356001 -0.8444718 0 0.5356001 -0.8444718 0 0.06281852 -0.998025 0 0.06282097 -0.9980249 0 -0.1875696 -0.9822514 0 -0.1875625 -0.9822528 0 -0.9921155 0.125327 0 -0.9921155 0.125327 0 -0.9921155 0.125327 0 -0.4259087 -0.9047662 0 -0.4259087 -0.9047662 2.98692e-7 -0.4259087 -0.9047662 0 -0.4259087 -0.9047662 0 -0.4259087 -0.9047662 0 -0.4259087 -0.9047662 0 -0.6377177 -0.7702702 0 -0.6376987 -0.770286 0 -0.9920686 0.125698 0 -0.8089902 -0.5878222 0 -0.8089902 -0.5878222 0 -0.8089902 -0.5878222 0 -0.9297174 0.3682738 0 -0.9297174 0.3682738 0 -0.9297174 0.3682738 0 -0.8089902 -0.5878222 0 -0.8089902 -0.5878222 0 -0.8089902 -0.5878222 0 -0.8087087 0.5882095 0 -0.9297174 0.3682738 0 -0.9297174 0.3682738 0 -0.9297174 0.3682738 0 -0.9297528 -0.3681844 0 -0.9297528 -0.3681844 0 -0.9297528 -0.3681844 0 -0.9297528 -0.3681844 0 -0.9297528 -0.3681844 0 -0.9297528 -0.3681844 0 -0.6376982 0.7702864 0 -0.9920686 -0.1256979 0 -0.9920735 -0.1256598 0 -0.6377172 0.7702707 0 -0.4259087 0.9047662 -2.98692e-7 -0.4259087 0.9047662 0 -0.4259087 0.9047662 0 -0.4259087 0.9047662 0 -0.4259087 0.9047662 0 -0.4259087 0.9047662 0 -0.1875507 0.9822549 0 -0.1875436 0.9822563 0 0.06271165 0.9980317 0 0.3092088 0.9509942 0 0.3092088 0.9509942 0 0.3092088 0.9509942 0 0.06270927 0.9980319 0 0.3093683 0.9509424 0 0.3093683 0.9509424 7.9256e-7 0.3093683 0.9509423 0 0.5360817 0.8441662 0 0.7291591 0.6843443 0 0.5357808 0.8443571 0 0.5357808 0.8443571 0 0.5357808 0.8443571 0 0.8763334 0.4817053 0 0.8763334 0.4817053 0 0.8763334 0.4817053 0 0.8763334 0.4817053 0 0.8763334 0.4817053 3.05621e-7 0.8763334 0.4817053 0 0.9685614 0.2487747 0 0.9685614 0.2487747 0 0.9685614 0.2487747 0 0.9685946 0.2486454 0 0.9685946 0.2486455 0 0.9685946 0.2486455 0 0.9685946 -0.2486455 0 0.9685946 -0.2486454 0 0.9685946 -0.2486455 0 0.9685614 -0.2487747 0 0.9685614 -0.2487747 0 0.9685614 -0.2487747 0 0.8763334 -0.4817053 0 0.8763334 -0.4817053 0 0.8763334 -0.4817053 0 0.8763334 -0.4817053 -3.05621e-7 0.8763334 -0.4817053 0 0.8763334 -0.4817053 0 0.7291591 -0.6843443 0 0.5360823 -0.8441658 0 0.5360648 -0.8441769 0 0.3092315 -0.9509868 0 0.3092315 -0.9509868 0 0.3092315 -0.9509868 0 0.3088897 -0.9510979 0 0.06273108 -0.9980305 0 0.06272864 -0.9980307 0 -0.1876664 -0.9822329 0 -0.1873297 -0.9822972 0 -0.1873297 -0.9822972 0 -0.1873297 -0.9822972 0 -0.9921162 0.1253218 0 -0.9921162 0.1253218 0 -0.9921162 0.1253218 0 -0.4256964 -0.904866 0 -0.4256964 -0.904866 0 -0.4256964 -0.904866 0 -0.4256964 -0.904866 0 -0.4256964 -0.904866 0 -0.4256964 -0.904866 0 -0.6373838 -0.7705466 -1.83598e-7 -0.6373838 -0.7705466 0 -0.6373838 -0.7705466 0 -0.6374755 -0.7704707 0 -0.6374756 -0.7704707 0 -0.6374756 -0.7704707 0 -0.9920693 0.1256928 0 -0.8091158 -0.5876494 0 -0.8091158 -0.5876494 0 -0.8091158 -0.5876494 0 -0.9297439 0.3682069 0 -0.9297439 0.3682069 0 -0.9297439 0.3682069 0 -0.8091158 -0.5876494 0 -0.8091158 -0.5876494 0 -0.8091158 -0.5876494 0 -0.8090056 0.587801 0 -0.8090056 0.587801 0 -0.8090056 0.587801 0 -0.9297439 0.3682069 0 -0.9297439 0.3682069 0 -0.9297439 0.3682069 0 -0.9297449 -0.3682044 0 -0.9297449 -0.3682044 0 -0.9297449 -0.3682044 0 -0.9297449 -0.3682044 0 -0.9297449 -0.3682044 0 -0.6374756 0.7704707 0 -0.6374756 0.7704707 0 -0.6374755 0.7704707 0 -0.9920693 -0.1256928 0 -0.8090056 0.587801 0 -0.8090056 0.587801 0 -0.8090056 0.587801 0 -0.9921162 -0.1253218 0 -0.9921162 -0.1253218 0 -0.9921162 -0.1253218 0 -0.6373838 0.7705466 0 -0.6373838 0.7705466 1.83598e-7 -0.6373838 0.7705466 0 -0.4256964 0.904866 0 -0.4256964 0.904866 0 -0.4256964 0.904866 0 -0.4256964 0.904866 0 -0.4256964 0.904866 0 -0.4256964 0.904866 0 -0.1876664 0.9822329 0 -0.1873297 0.9822972 0 -0.1873297 0.9822972 0 -0.1873297 0.9822972 0 0.06275326 0.9980292 0 0.3090307 0.9510521 0 0.06275081 0.9980292 0 0.3090535 0.9510447 0 0.5360545 0.8441834 0 0.7291055 0.6844013 0 0.536037 0.8441946 0 0.8763228 0.4817245 0 0.8763228 0.4817245 0 0.8763228 0.4817245 0 0.8763228 0.4817245 0 0.8763228 0.4817245 0 0.8763228 0.4817245 0 0.9685876 0.2486727 0 0.9685876 0.2486727 0 0.9685876 0.2486727 0 0.9685612 0.2487756 0 0.9685611 0.2487756 0 0.9685611 0.2487756 0 0.9685611 -0.2487756 0 0.9685612 -0.2487756 0 0.9685611 -0.2487756 0 0.9685876 -0.2486727 0 0.9685876 -0.2486727 0 0.9685876 -0.2486727 0 0.8763014 -0.4817634 0 0.8763014 -0.4817634 0 0.8763014 -0.4817634 0 0.8763014 -0.4817634 0 0.8763014 -0.4817634 0 0.8763014 -0.4817634 0 0.7291021 -0.684405 0 0.5360545 -0.8441834 0 0.536037 -0.8441946 0 0.3090602 -0.9510425 0 0.3090375 -0.9510499 0 0.06274586 -0.9980295 0 0.06274342 -0.9980297 0 -0.1876646 -0.9822332 0 -0.1873279 -0.9822975 0 -0.1873279 -0.9822974 0 -0.1873279 -0.9822975 0 -0.9921162 0.125322 0 -0.9921162 0.125322 0 -0.9921162 0.125322 0 -0.425424 -0.9049941 0 -0.4253794 -0.9050152 0 -0.6374946 -0.770455 -1.78442e-7 -0.6374946 -0.770455 0 -0.6374945 -0.770455 0 -0.6374945 -0.770455 0 -0.6374946 -0.770455 0 -0.6374946 -0.770455 0 -0.9921162 0.125322 0 -0.9921162 0.125322 0 -0.9921162 0.125322 0 -0.8090037 -0.5878037 0 -0.8090037 -0.5878037 0 -0.8090037 -0.5878037 0 -0.9298004 0.3680643 0 -0.9298004 0.3680643 0 -0.9298004 0.3680643 0 -0.8089854 -0.587829 0 -0.8089854 -0.587829 0 -0.8089854 -0.587829 0 -0.8088874 0.5879638 0 -0.8088874 0.5879638 0 -0.8088874 0.5879638 0 -0.9298004 0.3680643 0 -0.9298004 0.3680643 0 -0.9298004 0.3680643 0 -0.6374592 0.7704842 0 -0.6374592 0.7704842 0 -0.6374592 0.7704842 0 -0.9921162 -0.125322 0 -0.9921162 -0.125322 0 -0.9921162 -0.125322 0 -0.8089902 0.5878222 0 -0.8089902 0.5878222 0 -0.8089902 0.5878222 0 -0.9921162 -0.125322 0 -0.9921162 -0.125322 0 -0.9921162 -0.125322 0 -0.6374592 0.7704842 0 -0.6374592 0.7704842 0 -0.6374592 0.7704842 0 -0.4255046 0.9049563 0 -0.4257637 0.9048345 0 -0.4257637 0.9048345 0 -0.4257637 0.9048345 0 -0.1875696 0.9822514 0 -0.1875625 0.9822528 0 0.06272864 0.9980307 0 0.308901 0.9510942 0 0.5360823 0.8441658 0 0.7289289 0.6845894 -1.83083e-7 0.7289289 0.6845894 0 0.7289289 0.6845894 0 0.5360648 0.8441769 0 0.7289289 0.6845894 0 0.7289289 0.6845894 0 0.7289289 0.6845894 0 0.8762344 0.4818852 0 0.8762344 0.4818852 0 0.8762344 0.4818852 0 0.8762643 0.4818309 0 0.8762643 0.4818309 0 0.8762643 0.4818309 0 0.9686412 0.2484641 0 0.9686412 0.2484641 0 0.9686412 0.2484641 0 0.9686412 0.2484641 0 0.9686412 0.2484641 0 0.9686412 0.2484641 0 0.9686354 -0.2484865 0 0.9686354 -0.2484865 0 0.9686354 -0.2484865 0 0.9686354 -0.2484865 0 0.9686354 -0.2484865 0 0.9686354 -0.2484865 0 0.8761325 -0.4820705 0 0.8761325 -0.4820705 0 0.8761324 -0.4820705 0 0.8762547 -0.4818482 0 0.8762547 -0.4818482 0 0.8762547 -0.4818482 0 0.7291029 -0.6844041 0 0.3090438 -0.9510478 0 0.06274896 -0.9980294 0 -0.9921461 0.1250849 -1.62577e-7 -0.9921461 0.1250849 0 -0.9921461 0.1250849 0 -0.4254225 -0.9049948 0 -0.4253779 -0.9050158 0 -0.6373838 -0.7705466 -2.54917e-7 -0.6373838 -0.7705466 0 -0.6373838 -0.7705466 0 -0.6373838 -0.7705466 0 -0.9921461 0.1250849 0 -0.9921461 0.1250849 0 -0.9921461 0.1250849 0 -0.9297626 0.3681598 0 -0.9297626 0.3681598 0 -0.9297626 0.3681598 0 -0.8090974 -0.5876747 0 -0.8090974 -0.5876747 0 -0.8090974 -0.5876747 0 -0.8089872 0.5878263 0 -0.8089872 0.5878263 0 -0.8089872 0.5878263 0 -0.9297626 0.3681598 0 -0.9297626 0.3681598 0 -0.9297626 0.3681598 0 -0.9297626 -0.3681598 0 -0.9297626 -0.3681598 0 -0.9297626 -0.3681598 0 -0.9297626 -0.3681598 0 -0.9297626 -0.3681598 0 -0.9297626 -0.3681598 0 -0.6374946 0.770455 0 -0.6374946 0.770455 0 -0.6374945 0.770455 0 -0.9921342 -0.1251791 0 -0.9921342 -0.1251791 0 -0.9921342 -0.1251791 0 -0.808921 0.5879173 0 -0.808921 0.5879173 0 -0.808921 0.5879173 0 -0.9921342 -0.1251791 0 -0.9921342 -0.1251791 0 -0.9921342 -0.1251791 0 -0.6374945 0.770455 0 -0.6374946 0.770455 1.78442e-7 -0.6374946 0.770455 0 -0.4254225 0.9049948 0 -0.4253779 0.9050158 0 -0.1874727 0.9822698 0 -0.1874656 0.9822712 0 0.06288617 0.9980208 0 0.06288617 0.9980207 0 0.06288617 0.9980208 0 0.3088675 0.9511051 0 0.06288617 0.9980208 0 0.06288617 0.9980208 0 0.06288617 0.9980207 0 0.5357875 0.8443529 0 0.5357875 0.8443529 0 0.5357875 0.8443529 0 0.53577 0.8443641 0 0.53577 0.8443641 0 0.53577 0.8443641 0 0.8761779 0.4819881 0 0.8761779 0.4819881 0 0.8761779 0.4819881 0 0.8762077 0.4819338 0 0.8762077 0.4819338 0 0.8762077 0.4819337 0 0.9686234 0.2485333 0 0.9686234 0.2485333 0 0.9686235 0.2485333 0 0.9686234 0.2485333 0 0.9686235 0.2485333 0 0.9686234 0.2485333 0 0.9686472 -0.2484405 0 0.9686472 -0.2484405 0 0.9686472 -0.2484405 0 0.9686472 -0.2484405 0 0.9686472 -0.2484405 0 0.9686472 -0.2484405 0 0.8762716 -0.4818177 0 0.8762716 -0.4818177 0 0.8762716 -0.4818177 0 0.8761166 -0.4820994 0 0.8761166 -0.4820994 0 0.8761166 -0.4820994 0 0.5359143 -0.8442724 0 0.5359143 -0.8442724 0 0.5359143 -0.8442724 0 0.53618 -0.8441037 0 0.3088675 -0.9511051 0 -0.4258332 -0.9048017 0 -0.4258276 -0.9048044 0 -0.9921116 0.1253581 0 -0.9921116 0.1253581 0 -0.9921116 0.1253581 0 -0.9921116 0.1253581 0 -0.9921116 0.1253581 0 -0.9921116 0.1253581 0 -0.6372747 -0.7706367 0 -0.9297888 0.3680934 0 -0.8090595 0.5877268 0 -0.8090595 0.5877268 0 -0.8090595 0.5877269 0 -0.8090599 -0.5877262 0 -0.8090599 -0.5877262 0 -0.8090599 -0.5877262 0 -0.809053 -0.5877358 0 -0.809053 -0.5877358 0 -0.809053 -0.5877358 0 -0.8090525 0.5877364 0 -0.8090526 0.5877364 2.40403e-7 -0.8090526 0.5877364 0 -0.9297888 -0.3680934 0 -0.9920695 -0.1256911 0 -0.6372747 0.7706367 0 -0.4258332 0.9048017 0 -0.4258276 0.9048044 0 0.06277227 0.9980279 0 0.06277137 0.998028 0 0.3088828 0.9511002 0 0.535685 0.844418 0 0.535685 0.8444179 0 0.535685 0.844418 0 0.535685 0.844418 0 0.535685 0.844418 0 0.535685 0.8444179 0 0.7287393 0.6847913 0 0.8763104 0.481747 0 0.8763166 0.4817357 0 0.9686548 0.2484108 0 0.9685716 -0.2487354 0 0.9685716 -0.2487354 0 0.9685715 -0.2487354 0 0.9685716 -0.2487354 0 0.9685715 -0.2487354 0 0.9685716 -0.2487354 0 0.8763104 -0.481747 0 0.8763166 -0.4817357 0 0.7287393 -0.6847913 0 0.535685 -0.844418 0 0.535685 -0.844418 0 0.535685 -0.8444179 0 0.535685 -0.844418 0 0.535685 -0.8444179 0 0.535685 -0.844418 0 0.3088828 -0.9511002 0 0.06277 -0.9980281 0 0.0627709 -0.998028 0 -0.1875131 -0.9822622 0 -0.1875149 -0.9822618 0 -0.4256252 -0.9048995 0 -0.637551 -0.7704082 0 -0.9921234 0.1252646 0 -0.8090048 -0.5878022 0 -0.8090025 -0.5878053 0 -0.808989 0.5878239 0 -0.9297364 -0.3682258 0 -0.6375157 0.7704374 0 -0.9921241 -0.1252595 0 -0.8089913 0.5878207 0 -0.9921234 -0.1252643 0 -0.1873983 0.9822841 0 -0.1874001 0.9822837 0 0.06278961 0.9980268 0 0.309014 0.9510575 0 0.06279009 0.9980268 0 0.5358163 0.8443347 0 0.7289797 0.6845355 0 0.5358141 0.844336 0 0.8763057 0.4817556 0 0.8763047 0.4817575 0 0.9685801 0.2487019 0 0.9685813 0.2486973 0 0.9685838 -0.2486875 0 0.9685827 -0.248692 0 0.8762966 -0.4817721 0 0.8762956 -0.481774 0 0.728923 -0.6845957 0 0.5357885 -0.8443523 0 0.5357863 -0.8443537 0 0.3091585 -0.9510106 0 0.06282848 -0.9980244 0 0.06282895 -0.9980244 0 -0.1875149 -0.9822618 0 -0.9921236 0.1252633 0 -0.9921242 0.1252586 0 -0.8090041 -0.587803 0 -0.9297357 0.3682277 0 -0.8090044 0.5878027 0 -0.637551 0.7704082 0 -0.992124 -0.1252604 0 -0.8090068 0.5877995 0 -0.9921233 -0.1252652 0 -0.1871852 0.9823247 0 -0.1871852 0.9823247 0 -0.1871852 0.9823247 0 0.06283217 0.9980242 0 0.3091552 0.9510117 0 0.06283265 0.9980242 0 0.5357885 0.8443523 0 0.7289221 0.6845966 0 0.5357863 0.8443537 0 0.8762971 0.4817714 0 0.876296 0.4817731 0 0.9685825 0.2486925 0 0.9685837 0.2486879 0 0.9685837 -0.2486879 0 0.9685825 -0.2486925 0 0.8762971 -0.4817714 0 0.876296 -0.4817731 0 0.7289221 -0.6845966 0 0.5359315 -0.8442615 0 0.5359293 -0.8442629 0 0.3089737 -0.9510707 0 0.06283217 -0.9980242 0 0.06283265 -0.9980242 0</float_array>
          <technique_common>
            <accessor source="#shape0_015-mesh-normals-array" count="1125" stride="3">
              <param name="X" type="float"/>
              <param name="Y" type="float"/>
              <param name="Z" type="float"/>
            </accessor>
          </technique_common>
        </source>
        <vertices id="shape0_015-mesh-vertices">
          <input semantic="POSITION" source="#shape0_015-mesh-positions"/>
        </vertices>
        <triangles material="Material_008-material" count="1900">
          <input semantic="VERTEX" source="#shape0_015-mesh-vertices" offset="0"/>
          <input semantic="NORMAL" source="#shape0_015-mesh-normals" offset="1"/>
          <p>0 0 1 0 2 0 3 0 0 0 2 0 4 1 5 1 6 1 7 1 8 1 9 1 7 1 9 1 10 1 11 1 12 1 2 1 13 1 14 1 15 1 11 1 16 1 12 1 13 1 17 1 14 1 4 1 6 1 18 1 19 1 12 1 16 1 20 1 21 1 22 1 23 1 24 1 8 1 25 1 11 1 2 1 23 1 8 1 7 1 20 1 22 1 26 1 27 1 12 1 19 1 28 1 17 1 13 1 28 1 29 1 17 1 30 1 25 1 2 1 31 1 12 1 27 1 32 1 4 1 18 1 33 1 29 1 28 1 32 1 18 1 34 1 35 1 36 1 5 1 35 1 37 1 36 1 38 1 30 1 2 1 33 1 39 1 29 1 40 1 12 1 31 1 35 1 5 1 4 1 41 1 38 1 2 1 42 1 39 1 33 1 42 1 43 1 39 1 44 1 12 1 40 1 45 1 46 1 21 1 47 1 48 1 49 1 45 1 21 1 20 1 50 1 41 1 2 1 51 1 12 1 44 1 52 1 47 1 49 1 53 1 43 1 42 1 52 1 49 1 54 1 55 1 50 1 2 1 56 1 34 1 57 1 56 1 32 1 34 1 53 1 58 1 43 1 59 2 12 2 51 2 60 1 48 1 47 1 60 1 61 1 48 1 62 1 63 1 58 1 62 1 58 1 53 1 64 1 65 1 37 1 64 1 37 1 35 1 66 1 52 1 54 1 66 1 54 1 67 1 68 1 69 1 46 1 70 1 61 1 60 1 68 1 46 1 45 1 70 1 71 1 61 1 72 1 66 1 67 1 73 1 74 1 75 1 73 1 76 1 77 1 73 1 78 1 76 1 72 1 67 1 79 1 73 1 80 1 78 1 73 1 81 1 80 1 73 1 82 1 81 1 73 1 75 1 82 1 83 1 71 1 70 1 83 1 84 1 71 1 85 1 86 1 87 1 85 1 87 1 88 1 89 1 90 1 91 1 89 1 92 1 90 1 89 1 57 1 92 1 89 1 56 1 57 1 93 1 94 1 2 1 95 1 85 1 88 1 96 1 84 1 83 1 97 1 2 1 94 1 96 1 98 1 84 1 95 1 88 1 99 1 100 1 101 1 86 1 102 1 103 1 98 1 100 1 86 1 85 1 104 1 93 1 2 1 105 1 106 1 65 1 107 1 2 1 97 1 105 1 108 1 106 1 109 1 95 1 99 1 102 1 98 1 96 1 105 1 110 1 108 1 109 1 99 1 111 1 107 1 55 1 2 1 112 1 104 1 2 1 105 1 65 1 64 1 113 1 101 1 100 1 113 1 114 1 101 1 115 1 55 1 107 1 116 1 103 1 102 1 115 1 117 1 55 1 118 1 109 1 111 1 119 1 77 1 114 1 119 1 114 1 113 1 120 1 112 1 2 1 121 1 117 1 115 1 121 1 122 1 117 1 123 1 118 1 111 1 124 1 125 1 126 1 127 1 73 1 77 1 128 1 122 1 121 1 127 1 77 1 119 1 129 1 91 1 130 1 131 1 126 1 132 1 129 1 89 1 91 1 131 1 124 1 126 1 128 1 133 1 122 1 134 1 110 1 105 1 134 1 135 1 110 1 136 1 72 1 79 1 136 1 79 1 125 1 136 1 125 1 124 1 137 1 138 1 133 1 139 1 73 1 127 1 137 1 133 1 128 1 140 1 141 1 142 1 143 1 132 1 144 1 140 1 130 1 141 1 143 1 131 1 132 1 140 1 129 1 130 1 145 1 135 1 134 1 146 1 147 1 72 1 145 1 148 1 135 1 145 1 149 1 148 1 150 1 73 1 139 1 146 1 72 1 136 1 151 1 152 1 153 1 151 1 154 1 152 1 155 1 143 1 144 1 151 1 156 1 154 1 151 1 157 1 156 1 151 1 158 1 157 1 151 1 159 1 158 1 151 1 160 1 159 1 151 1 153 1 1 1 161 1 73 1 150 1 162 1 142 1 163 1 162 1 140 1 142 1 164 1 165 1 147 1 164 1 147 1 146 1 166 1 167 1 168 1 169 1 149 1 145 1 170 1 163 1 171 1 170 1 162 1 163 1 172 1 168 1 173 1 172 1 166 1 168 1 174 1 165 1 164 1 174 1 175 1 165 1 176 1 177 1 160 1 176 1 171 1 177 1 178 1 167 1 166 1 176 1 170 1 171 1 179 1 180 1 181 1 182 1 183 1 184 1 182 1 185 1 183 1 186 1 176 1 160 1 182 1 173 1 185 1 182 1 172 1 173 1 186 1 160 1 151 1 187 1 179 1 181 1 187 1 188 1 189 1 190 1 73 1 161 1 187 1 181 1 188 1 191 1 167 1 178 1 192 1 180 1 179 1 191 1 123 1 111 1 192 1 193 1 180 1 191 1 111 1 167 1 194 1 184 1 195 1 196 1 175 1 174 1 197 1 189 1 198 1 196 1 199 1 175 1 197 1 187 1 189 1 194 1 182 1 184 1 200 1 193 1 192 1 200 1 59 1 193 1 200 1 12 1 59 1 201 1 202 1 123 1 203 1 199 1 196 1 203 1 204 1 199 1 205 1 198 1 138 1 205 1 197 1 198 1 201 1 123 1 191 1 206 1 73 1 190 1 207 1 204 1 203 1 208 1 209 1 210 1 207 1 211 1 204 1 212 1 195 1 213 1 214 1 12 1 200 1 215 1 137 1 216 1 215 1 138 1 137 1 212 1 194 1 195 1 215 1 205 1 138 1 217 1 218 1 211 1 219 1 208 1 210 1 220 1 221 1 202 1 217 1 211 1 207 1 219 1 210 1 222 1 220 1 202 1 201 1 223 1 216 1 224 1 225 1 226 1 209 1 6 1 5 1 218 1 223 1 215 1 216 1 24 1 73 1 206 1 6 1 218 1 217 1 225 1 209 1 208 1 227 1 224 1 228 1 229 1 219 1 222 1 230 1 212 1 213 1 227 1 223 1 224 1 229 1 222 1 231 1 230 1 213 1 63 1 227 1 228 1 232 1 233 1 226 1 225 1 233 1 234 1 226 1 74 1 214 1 235 1 74 1 12 1 214 1 236 1 237 1 221 1 238 1 149 1 169 1 1 1 239 1 155 1 238 1 231 1 149 1 1 1 240 1 239 1 236 1 221 1 220 1 238 1 229 1 231 1 1 1 241 1 240 1 1 1 242 1 241 1 243 1 234 1 233 1 1 1 244 1 242 1 1 1 144 1 2 1 243 1 245 1 234 1 1 1 155 1 144 1 246 1 247 1 248 1 249 1 169 1 250 1 251 1 230 1 63 1 252 1 253 1 237 1 249 1 238 1 169 1 252 1 237 1 236 1 254 1 245 1 243 1 254 1 68 1 245 1 255 1 256 1 257 1 258 1 250 1 259 1 255 1 246 1 248 1 258 1 249 1 250 1 260 1 261 1 253 1 255 1 248 1 262 1 260 1 253 1 252 1 263 1 264 1 69 1 255 1 262 1 256 1 263 1 68 1 254 1 265 2 266 2 74 2 267 1 268 1 247 1 263 1 69 1 68 1 265 1 74 1 235 1 269 1 74 1 266 1 270 1 259 1 271 1 272 1 261 1 260 1 272 1 273 1 261 1 270 1 258 1 259 1 267 1 247 1 246 1 274 1 264 1 263 1 274 1 275 1 264 1 276 1 277 1 278 1 279 1 255 1 257 1 280 1 270 1 271 1 281 1 282 1 273 1 283 1 235 1 284 1 283 1 265 1 235 1 285 1 286 1 268 1 281 1 273 1 272 1 287 1 276 1 278 1 288 1 289 1 275 1 288 1 275 1 274 1 285 1 268 1 267 1 287 1 278 1 290 1 291 1 257 1 103 1 292 1 277 1 276 1 292 1 293 1 277 1 291 1 279 1 257 1 294 1 289 1 288 1 295 1 74 1 269 1 296 1 287 1 290 1 297 1 298 1 286 1 296 1 290 1 299 1 300 1 293 1 292 1 297 1 286 1 285 1 300 1 301 1 293 1 302 1 303 1 304 1 305 1 284 1 306 1 305 1 283 1 284 1 307 1 308 1 298 1 309 1 74 1 295 1 307 1 298 1 297 1 310 1 304 1 311 1 310 1 302 1 304 1 312 1 303 1 302 1 313 1 296 1 299 1 312 1 314 1 303 1 315 1 316 1 317 1 313 1 299 1 318 1 319 1 320 1 308 1 321 1 301 1 300 1 322 1 311 1 323 1 319 1 308 1 307 1 322 1 310 1 311 1 321 1 232 1 301 1 324 1 315 1 317 1 325 1 314 1 312 1 325 1 326 1 314 1 327 1 306 1 328 1 327 1 305 1 306 1 329 1 271 1 316 1 329 1 316 1 315 1 330 1 331 1 320 1 332 1 74 1 309 1 330 1 320 1 319 1 144 1 333 1 2 1 144 1 323 1 333 1 144 1 322 1 323 1 334 1 326 1 325 1 335 1 324 1 317 1 334 1 336 1 326 1 337 1 338 1 331 1 335 1 317 1 339 1 340 1 227 1 232 1 340 1 341 1 227 1 337 1 331 1 330 1 340 1 232 1 321 1 342 1 271 1 329 1 342 1 280 1 271 1 343 1 327 1 328 1 344 1 345 1 338 1 346 1 335 1 339 1 344 1 338 1 337 1 347 1 348 1 336 1 346 1 339 1 349 1 350 1 74 1 332 1 351 1 280 1 342 1 351 1 352 1 280 1 347 1 336 1 334 1 353 1 346 1 349 1 354 1 348 1 347 1 354 1 355 1 348 1 353 1 349 1 356 1 357 1 352 1 351 1 357 1 358 1 352 1 359 1 341 1 340 1 360 1 353 1 356 1 361 1 355 1 354 1 361 1 262 1 355 1 362 1 363 1 358 1 364 1 291 1 103 1 365 1 328 1 366 1 362 1 358 1 357 1 365 1 343 1 328 1 256 1 262 1 361 1 367 1 360 1 356 1 368 1 74 1 350 1 367 1 356 1 369 1 370 1 363 1 362 1 370 1 371 1 363 1 364 1 103 1 116 1 372 1 341 1 359 1 372 1 373 1 341 1 374 1 375 1 376 1 374 1 116 1 375 1 374 1 364 1 116 1 377 1 365 1 366 1 378 1 291 1 364 1 378 1 379 1 291 1 377 1 366 1 380 1 75 1 74 1 368 1 381 1 373 1 372 1 382 1 244 1 1 1 381 1 185 1 373 1 382 1 383 1 244 1 87 1 377 1 380 1 87 1 380 1 88 1 384 1 374 1 376 1 385 1 382 1 1 1 386 1 383 1 382 1 387 1 388 1 389 1 386 1 390 1 383 1 183 1 185 1 381 1 391 1 367 1 369 1 392 1 393 1 379 1 391 1 394 1 367 1 391 1 395 1 394 1 396 1 387 1 389 1 391 1 397 1 395 1 391 1 398 1 397 1 391 1 399 1 398 1 391 1 186 1 151 1 391 1 400 1 399 1 391 1 401 1 400 1 392 1 379 1 378 1 396 1 389 1 402 1 391 1 369 1 186 1 403 1 385 1 1 1 404 1 405 1 371 1 404 1 406 1 405 1 404 1 407 1 406 1 404 1 408 1 407 1 404 1 409 1 408 1 410 1 390 1 386 1 404 1 371 1 370 1 411 1 388 1 387 1 404 1 401 1 391 1 404 1 412 1 401 1 411 1 413 1 388 1 404 1 414 1 412 1 404 1 415 1 414 1 410 1 416 1 390 1 404 1 417 1 415 1 404 1 418 1 417 1 404 1 370 1 418 1 404 1 73 1 409 1 419 1 396 1 402 1 409 1 73 1 294 1 294 1 73 1 420 1 294 1 420 1 289 1 420 1 73 1 344 1 344 1 73 1 345 1 421 1 422 1 106 1 345 1 73 1 23 1 23 1 73 1 24 1 421 1 376 1 422 1 419 1 402 1 423 1 421 1 384 1 376 1 424 1 393 1 392 1 424 1 425 1 393 1 426 1 413 1 411 1 426 1 427 1 413 1 428 1 403 1 1 1 429 1 419 1 423 1 430 1 416 1 410 1 430 1 92 1 416 1 429 1 423 1 431 1 108 1 421 1 106 1 432 1 427 1 426 1 432 1 433 1 427 1 434 1 435 1 425 1 436 1 429 1 431 1 436 1 251 1 63 1 436 1 62 1 437 1 436 1 63 1 62 1 434 1 425 1 424 1 436 1 431 1 251 1 438 1 428 1 1 1 439 1 318 1 440 1 441 1 439 1 440 1 442 1 433 1 432 1 90 1 92 1 430 1 442 1 443 1 433 1 441 1 440 1 444 1 445 1 313 1 318 1 445 1 446 1 313 1 447 1 436 1 437 1 448 1 435 1 434 1 445 1 318 1 439 1 448 1 449 1 435 1 450 1 441 1 444 1 451 1 443 1 442 1 450 1 444 1 452 1 451 1 282 1 281 1 451 1 281 1 443 1 453 1 454 1 446 1 453 1 446 1 445 1 455 1 438 1 1 1 248 1 447 1 437 1 248 1 437 1 262 1 333 1 450 1 452 1 333 1 120 1 2 1 456 1 457 1 282 1 333 1 452 1 120 1 456 1 282 1 451 1 458 1 454 1 453 1 26 1 22 1 449 1 458 1 459 1 454 1 26 1 449 1 448 1 10 1 9 1 457 1 153 1 455 1 1 1 10 1 457 1 456 1 15 1 14 1 459 1 15 1 459 1 458 1 151 3 1 3 0 3 460 3 151 3 0 3 3 4 2 4 12 4 3 5 12 5 461 5 462 2 463 2 464 2 465 6 466 6 467 6 468 7 469 7 470 7 469 2 471 2 470 2 3 2 461 2 472 2 473 2 474 2 475 2 461 8 476 8 472 8 476 2 461 2 477 2 478 9 465 9 467 9 464 10 473 10 475 10 3 11 472 11 479 11 480 2 481 2 482 2 481 2 483 2 482 2 470 2 471 2 484 2 471 12 485 12 484 12 477 2 461 2 486 2 475 2 474 2 487 2 474 13 488 13 487 13 3 14 479 14 489 14 486 15 461 15 490 15 478 16 467 16 491 16 492 2 478 2 491 2 488 2 493 2 494 2 3 17 489 17 495 17 487 2 488 2 494 2 490 2 461 2 496 2 466 2 497 2 498 2 497 2 499 2 498 2 467 2 466 2 498 2 3 18 495 18 500 18 493 19 501 19 502 19 494 2 493 2 502 2 496 2 461 2 503 2 3 20 500 20 504 20 505 2 506 2 507 2 483 2 508 2 509 2 503 21 461 21 510 21 482 2 483 2 509 2 501 2 511 2 512 2 513 22 492 22 514 22 3 23 504 23 515 23 502 24 501 24 512 24 516 2 505 2 517 2 492 25 491 25 514 25 505 26 507 26 517 26 510 1 461 1 518 1 511 2 519 2 520 2 506 2 521 2 522 2 512 2 511 2 520 2 507 2 506 2 522 2 499 2 523 2 524 2 516 27 517 27 525 27 498 2 499 2 524 2 526 2 516 2 525 2 522 2 521 2 527 2 528 28 529 28 530 28 508 2 531 2 532 2 521 29 533 29 527 29 509 2 508 2 532 2 529 30 534 30 530 30 535 2 536 2 530 2 537 2 526 2 538 2 536 2 539 2 530 2 539 2 540 2 530 2 526 31 525 31 538 31 540 32 541 32 530 32 541 2 528 2 530 2 542 33 543 33 544 33 533 2 545 2 546 2 527 2 533 2 546 2 543 2 547 2 544 2 548 34 549 34 550 34 549 2 513 2 550 2 542 35 544 35 551 35 513 36 514 36 550 36 552 2 548 2 550 2 3 37 553 37 554 37 555 2 542 2 551 2 553 2 3 2 556 2 546 38 545 38 557 38 545 39 558 39 557 39 544 2 547 2 559 2 547 2 560 2 559 2 3 40 554 40 561 40 562 41 555 41 563 41 556 2 3 2 564 2 555 42 551 42 563 42 565 43 566 43 567 43 558 2 568 2 569 2 523 2 565 2 567 2 559 44 560 44 570 44 3 45 515 45 564 45 557 2 558 2 569 2 3 46 561 46 571 46 524 2 523 2 567 2 560 2 572 2 570 2 566 47 573 47 567 47 564 48 515 48 574 48 515 49 575 49 574 49 562 50 563 50 576 50 569 2 568 2 577 2 570 2 572 2 578 2 572 2 535 2 578 2 3 51 571 51 579 51 575 2 580 2 581 2 562 52 576 52 582 52 574 2 575 2 581 2 583 2 584 2 585 2 535 53 530 53 586 53 578 2 535 2 586 2 580 2 587 2 588 2 589 2 583 2 590 2 581 2 580 2 588 2 583 54 585 54 590 54 591 2 552 2 592 2 552 55 550 55 592 55 588 2 587 2 593 2 584 2 537 2 594 2 567 2 573 2 595 2 537 2 538 2 594 2 587 56 596 56 593 56 573 57 597 57 595 57 585 58 584 58 594 58 586 2 530 2 598 2 591 59 592 59 599 59 600 2 589 2 601 2 589 60 590 60 601 60 602 61 603 61 599 61 603 2 591 2 599 2 598 2 530 2 604 2 538 62 605 62 606 62 595 63 597 63 607 63 597 2 608 2 607 2 608 64 609 64 607 64 594 65 538 65 606 65 0 66 610 66 460 66 610 2 611 2 460 2 611 2 612 2 460 2 612 2 613 2 460 2 600 67 601 67 614 67 613 68 615 68 460 68 615 2 616 2 460 2 604 69 530 69 617 69 616 2 618 2 460 2 618 2 619 2 460 2 602 70 599 70 620 70 606 2 605 2 621 2 605 71 622 71 621 71 623 2 624 2 625 2 626 2 602 2 620 2 607 72 609 72 627 72 628 73 623 73 629 73 623 74 625 74 629 74 626 75 620 75 630 75 631 2 626 2 630 2 625 2 624 2 632 2 622 2 633 2 634 2 635 2 636 2 637 2 631 76 630 76 638 76 619 2 639 2 638 2 628 77 629 77 640 77 639 2 631 2 638 2 621 78 622 78 634 78 641 2 642 2 640 2 643 2 628 2 640 2 642 79 643 79 640 79 635 80 637 80 644 80 645 81 646 81 644 81 619 82 638 82 647 82 646 2 635 2 644 2 460 83 619 83 647 83 617 2 530 2 648 2 562 84 582 84 649 84 636 2 650 2 651 2 624 2 562 2 649 2 637 2 636 2 651 2 632 2 624 2 649 2 652 2 641 2 653 2 654 2 645 2 655 2 645 85 644 85 655 85 633 86 656 86 657 86 641 87 640 87 653 87 651 88 650 88 658 88 650 89 518 89 658 89 634 2 633 2 657 2 582 90 659 90 660 90 518 2 461 2 658 2 596 2 654 2 661 2 649 2 582 2 660 2 656 2 662 2 663 2 648 2 530 2 664 2 657 2 656 2 663 2 654 91 655 91 661 91 665 2 652 2 666 2 658 2 461 2 667 2 662 2 668 2 669 2 652 92 653 92 666 92 593 2 596 2 670 2 596 93 661 93 670 93 663 2 662 2 669 2 671 2 672 2 673 2 674 94 593 94 670 94 671 95 673 95 675 95 660 2 659 2 676 2 668 96 677 96 678 96 659 2 679 2 676 2 669 2 668 2 678 2 680 2 671 2 675 2 664 2 530 2 485 2 677 2 466 2 465 2 681 2 674 2 682 2 674 97 670 97 682 97 673 2 672 2 683 2 672 2 684 2 683 2 678 98 677 98 465 98 680 99 675 99 685 99 665 100 666 100 686 100 519 2 665 2 686 2 687 2 688 2 689 2 688 101 681 101 689 101 681 102 682 102 689 102 690 2 680 2 685 2 691 2 667 2 534 2 683 2 684 2 692 2 667 2 461 2 534 2 684 2 693 2 692 2 627 2 609 2 694 2 690 103 685 103 694 103 3 2 600 2 0 2 679 2 695 2 696 2 614 2 697 2 0 2 697 2 698 2 0 2 698 2 699 2 0 2 699 2 700 2 0 2 700 2 701 2 0 2 609 2 690 2 694 2 676 104 679 104 696 104 693 105 702 105 703 105 519 106 686 106 704 106 600 107 614 107 0 107 692 2 693 2 703 2 627 108 694 108 705 108 706 109 707 109 708 109 696 110 695 110 709 110 695 2 710 2 709 2 711 111 627 111 705 111 702 2 532 2 712 2 703 2 702 2 712 2 709 112 710 112 713 112 534 113 714 113 715 113 710 2 716 2 713 2 717 114 706 114 718 114 691 2 534 2 715 2 719 2 711 2 720 2 711 115 705 115 720 115 714 2 534 2 721 2 706 2 708 2 718 2 531 2 722 2 723 2 724 116 725 116 718 116 725 2 717 2 718 2 707 2 726 2 727 2 712 2 532 2 723 2 532 117 531 117 723 117 713 118 716 118 728 118 716 119 729 119 728 119 730 120 731 120 732 120 733 2 719 2 734 2 708 2 707 2 727 2 719 121 720 121 734 121 691 122 715 122 735 122 722 2 736 2 737 2 723 2 722 2 737 2 724 123 718 123 738 123 739 124 691 124 735 124 730 125 732 125 740 125 728 2 729 2 741 2 729 2 742 2 741 2 733 126 734 126 743 126 726 127 744 127 745 127 746 128 730 128 740 128 732 2 731 2 747 2 736 2 748 2 749 2 737 2 736 2 749 2 731 2 750 2 747 2 727 2 726 2 745 2 724 129 738 129 751 129 721 2 534 2 752 2 746 130 740 130 753 130 749 131 748 131 754 131 755 132 746 132 753 132 747 2 750 2 756 2 568 133 724 133 751 133 744 2 757 2 758 2 750 2 759 2 756 2 739 134 735 134 760 134 745 135 744 135 758 135 761 2 739 2 760 2 762 2 763 2 764 2 752 2 534 2 765 2 757 2 766 2 767 2 762 2 764 2 768 2 758 136 757 136 767 136 769 137 762 137 768 137 764 138 763 138 770 138 755 139 753 139 771 139 763 140 772 140 770 140 773 2 755 2 771 2 756 2 759 2 774 2 766 141 775 141 776 141 759 2 687 2 774 2 769 2 768 2 777 2 778 2 779 2 780 2 767 2 766 2 776 2 781 142 769 142 777 142 778 143 780 143 782 143 770 2 772 2 783 2 761 144 760 144 784 144 772 145 785 145 783 145 780 2 779 2 786 2 775 146 787 146 788 146 789 147 761 147 784 147 765 148 534 148 790 148 3 2 791 2 600 2 776 2 775 2 788 2 779 149 733 149 786 149 781 2 777 2 600 2 791 2 781 2 600 2 774 2 687 2 792 2 793 2 778 2 794 2 783 150 785 150 795 150 689 2 796 2 792 2 787 151 797 151 798 151 778 152 782 152 794 152 786 2 733 2 799 2 785 153 800 153 795 153 788 154 787 154 798 154 687 155 689 155 792 155 789 156 784 156 801 156 733 157 743 157 799 157 793 158 794 158 802 158 797 159 803 159 804 159 798 160 797 160 804 160 795 2 800 2 805 2 806 2 793 2 802 2 799 161 743 161 807 161 743 162 808 162 807 162 800 163 809 163 805 163 790 2 534 2 810 2 806 164 802 164 811 164 805 165 809 165 812 165 813 166 806 166 811 166 807 167 808 167 814 167 808 2 815 2 814 2 809 168 816 168 812 168 792 2 796 2 817 2 813 169 811 169 818 169 812 2 816 2 819 2 814 2 815 2 820 2 815 170 821 170 820 170 816 2 717 2 819 2 789 171 801 171 822 171 823 2 789 2 822 2 813 172 818 172 824 172 819 173 717 173 725 173 825 174 813 174 824 174 810 2 534 2 826 2 821 2 827 2 828 2 820 2 821 2 828 2 796 2 829 2 830 2 568 2 751 2 831 2 577 2 568 2 831 2 577 175 831 175 832 175 817 2 796 2 830 2 833 176 834 176 832 176 834 177 577 177 832 177 835 178 823 178 836 178 823 179 822 179 836 179 826 2 534 2 529 2 751 2 837 2 838 2 829 2 643 2 839 2 831 2 751 2 838 2 830 2 829 2 839 2 0 180 701 180 840 180 701 181 841 181 840 181 542 2 835 2 543 2 835 182 836 182 543 182 833 183 832 183 842 183 0 184 840 184 843 184 839 2 643 2 642 2 844 185 845 185 846 185 841 2 847 2 848 2 825 186 824 186 849 186 460 2 647 2 849 2 840 2 841 2 848 2 844 187 846 187 850 187 824 188 851 188 849 188 851 2 852 2 849 2 837 2 853 2 854 2 852 2 855 2 849 2 855 2 856 2 849 2 856 2 857 2 849 2 857 189 858 189 849 189 647 2 825 2 849 2 858 190 859 190 849 190 860 2 844 2 850 2 827 2 861 2 862 2 838 2 837 2 854 2 861 2 863 2 862 2 863 191 864 191 862 191 864 192 865 192 862 192 0 193 843 193 866 193 846 2 845 2 867 2 865 2 868 2 862 2 828 194 827 194 862 194 849 195 859 195 862 195 859 196 869 196 862 196 848 2 847 2 870 2 845 2 871 2 867 2 869 2 872 2 862 2 872 197 873 197 862 197 873 198 874 198 862 198 874 2 875 2 862 2 847 2 876 2 870 2 875 2 828 2 862 2 868 2 530 2 862 2 754 2 530 2 868 2 860 199 850 199 877 199 878 2 530 2 754 2 748 2 878 2 754 2 804 2 530 2 878 2 803 2 530 2 804 2 833 200 842 200 879 200 484 2 530 2 803 2 485 2 530 2 484 2 565 2 880 2 879 2 880 2 833 2 879 2 881 2 860 2 877 2 854 2 853 2 882 2 867 2 871 2 883 2 853 201 884 201 882 201 871 2 885 2 883 2 0 202 866 202 886 202 881 203 877 203 887 203 870 2 876 2 888 2 889 204 881 204 887 204 876 205 549 205 888 205 883 2 885 2 890 2 885 2 891 2 890 2 565 206 879 206 566 206 884 2 892 2 893 2 889 207 887 207 894 207 520 208 519 208 894 208 882 209 884 209 893 209 704 210 889 210 894 210 0 211 886 211 895 211 519 212 704 212 894 212 896 213 773 213 897 213 898 214 520 214 894 214 896 2 897 2 899 2 890 215 891 215 900 215 888 216 549 216 548 216 901 2 896 2 899 2 771 2 902 2 903 2 891 2 904 2 900 2 898 217 894 217 905 217 773 2 771 2 903 2 897 2 773 2 903 2 901 218 899 218 906 218 893 2 892 2 907 2 892 2 908 2 907 2 900 2 904 2 909 2 910 219 901 219 906 219 741 220 742 220 909 220 902 2 911 2 912 2 904 2 741 2 909 2 0 221 895 221 913 221 903 222 902 222 912 222 910 223 906 223 791 223 3 224 579 224 791 224 898 225 905 225 706 225 717 2 898 2 706 2 909 226 742 226 914 226 579 2 910 2 791 2 742 2 915 2 914 2 911 227 463 227 462 227 907 2 908 2 480 2 908 228 481 228 480 228 912 229 911 229 462 229 0 230 913 230 610 230 915 231 469 231 468 231 463 2 473 2 464 2 914 2 915 2 468 2 849 232 391 232 151 232 460 232 849 232 151 232 461 233 12 233 74 233 534 233 461 233 74 233 862 234 404 234 391 234 862 234 391 234 849 234 534 235 74 235 73 235 534 236 73 236 530 236 530 237 73 237 404 237 862 237 530 237 404 237 880 238 422 238 376 238 833 239 880 239 376 239 527 240 546 240 83 240 833 241 376 241 375 241 834 241 833 241 375 241 577 242 834 242 375 242 577 242 375 242 116 242 527 243 83 243 70 243 569 244 577 244 116 244 522 245 527 245 60 245 569 246 116 246 102 246 507 247 522 247 60 247 527 248 70 248 60 248 557 249 569 249 96 249 569 250 102 250 96 250 517 251 507 251 47 251 546 252 557 252 96 252 507 253 60 253 47 253 546 254 96 254 83 254 517 251 47 251 52 251 525 255 517 255 66 255 517 255 52 255 66 255 538 256 525 256 72 256 525 257 66 257 72 257 605 258 538 258 147 258 622 259 605 260 147 261 538 262 72 262 147 262 622 263 147 264 165 265 633 266 622 266 175 266 656 267 633 267 175 267 622 266 165 266 175 266 656 268 175 268 199 268 662 269 656 269 204 269 656 270 199 270 204 270 662 271 204 271 211 271 668 271 662 271 211 271 677 233 668 233 211 233 677 233 211 233 218 233 677 272 218 272 5 272 466 272 677 272 5 272 466 273 5 273 36 273 497 274 466 274 36 274 499 275 497 275 36 275 499 276 36 276 37 276 499 277 37 277 65 277 523 277 499 277 65 277 523 278 65 278 106 278 565 279 523 280 106 281 880 282 565 282 106 282 880 283 106 283 422 283 878 284 420 284 344 284 804 284 878 284 344 284 745 285 758 285 297 285 804 286 344 286 337 286 798 286 804 286 337 286 788 287 798 287 337 287 788 287 337 287 330 287 745 285 297 285 285 285 776 288 788 288 330 288 727 248 745 248 267 248 776 289 330 289 319 289 708 290 727 290 267 290 745 248 285 248 267 248 767 291 776 291 307 291 776 291 319 291 307 291 718 251 708 251 246 251 758 292 767 292 307 292 708 293 267 293 246 293 758 292 307 292 297 292 718 251 246 251 255 251 738 294 718 294 279 294 718 294 255 294 279 294 751 295 738 295 291 295 738 295 279 295 291 295 837 296 751 296 379 296 853 297 837 298 379 299 751 300 291 300 379 300 853 301 379 302 393 303 884 304 853 304 425 304 892 305 884 305 425 305 853 306 393 306 425 306 892 307 425 307 435 307 908 308 892 309 449 310 892 311 435 312 449 313 908 314 449 314 22 314 481 315 908 316 22 317 483 233 481 233 22 233 483 233 22 233 21 233 483 318 21 318 46 318 508 319 483 319 46 319 508 320 46 320 69 320 531 320 508 320 69 320 722 321 531 321 69 321 722 322 69 322 264 322 722 323 264 323 275 323 736 324 722 324 275 324 736 325 275 325 289 325 748 325 736 325 289 325 878 326 748 326 289 326 878 327 289 327 420 327 532 238 68 238 45 238 509 239 532 239 45 239 854 328 882 328 424 328 509 241 45 241 20 241 482 241 509 241 20 241 480 242 482 242 20 242 480 242 20 242 26 242 854 329 424 329 392 329 907 288 480 288 26 288 838 330 854 330 378 330 907 289 26 289 448 289 831 331 838 331 378 331 854 332 392 332 378 332 893 291 907 291 434 291 907 333 448 333 434 333 832 251 831 251 364 251 882 334 893 334 434 334 831 335 378 335 364 335 882 336 434 336 424 336 832 251 364 251 374 251 842 294 832 294 384 294 832 294 374 294 384 294 879 337 842 337 421 337 842 338 384 338 421 338 566 339 879 340 108 341 573 297 566 298 108 299 879 342 421 342 108 342 573 343 108 343 110 343 597 344 573 344 135 344 608 345 597 345 135 345 573 344 110 344 135 344 608 346 135 346 148 346 609 347 608 347 149 347 608 348 148 348 149 348 609 349 149 349 231 349 690 349 609 349 231 349 680 233 690 233 231 233 680 233 231 233 222 233 680 350 222 350 210 350 671 350 680 350 210 350 671 351 210 351 209 351 672 352 671 352 209 352 684 353 672 353 209 353 684 354 209 354 226 354 684 355 226 355 234 355 693 355 684 355 234 355 693 356 234 356 245 356 702 357 693 357 245 357 532 358 702 358 245 358 532 359 245 359 68 359 733 360 271 360 259 360 719 361 733 361 259 361 719 362 259 362 250 362 711 363 719 363 250 363 524 364 567 364 64 364 567 364 105 364 64 364 711 365 250 365 169 365 627 366 711 366 169 366 498 367 524 367 35 367 467 368 498 368 35 368 524 369 64 369 35 369 607 370 627 370 145 370 627 370 169 370 145 370 467 368 35 368 4 368 607 371 145 371 134 371 595 372 607 372 134 372 567 373 595 373 134 373 491 374 467 374 32 374 467 375 4 375 32 375 567 373 134 373 105 373 514 376 491 376 56 376 491 377 32 377 56 377 550 378 514 378 89 378 592 379 550 379 89 379 514 380 56 380 89 380 592 381 89 381 129 381 599 382 592 382 140 382 592 383 129 383 140 383 620 384 599 384 162 384 599 385 140 385 162 385 630 386 620 386 170 386 620 386 162 386 170 386 638 387 630 387 176 387 630 388 170 388 176 388 638 389 176 389 186 389 647 389 638 389 186 389 647 233 186 233 369 233 825 233 647 233 369 233 825 390 369 390 356 390 813 390 825 390 356 390 806 391 813 391 356 391 806 392 356 392 349 392 806 393 349 393 339 393 793 393 806 393 339 393 793 394 339 394 317 394 778 395 793 395 317 395 778 396 317 396 316 396 779 397 778 397 316 397 779 398 316 398 271 398 733 399 779 399 271 399 868 400 409 400 294 400 754 284 868 284 294 284 692 401 703 401 243 401 754 402 294 402 288 402 749 403 754 403 288 403 737 404 749 404 288 404 737 404 288 404 274 404 692 401 243 401 233 401 723 405 737 405 274 405 683 406 692 406 225 406 723 405 274 405 263 405 673 407 683 407 225 407 692 245 233 245 225 245 712 333 723 333 254 333 723 408 263 408 254 408 675 409 673 409 208 409 703 410 712 410 254 410 673 407 225 407 208 407 703 410 254 410 243 410 675 409 208 409 219 409 685 411 675 411 229 411 675 412 219 412 229 412 694 413 685 413 238 413 685 295 229 295 238 295 705 414 694 414 249 414 720 343 705 343 249 343 694 415 238 415 249 415 720 301 249 302 258 303 734 344 720 344 270 344 743 416 734 416 270 416 720 344 258 344 270 344 743 416 270 416 280 416 808 417 743 418 352 419 743 420 280 421 352 422 808 423 352 423 358 423 815 423 808 423 358 423 821 233 815 233 358 233 821 233 358 233 363 233 821 424 363 424 371 424 827 424 821 424 371 424 827 320 371 320 405 320 861 320 827 320 405 320 863 425 861 425 405 425 863 425 405 425 406 425 863 426 406 426 407 426 864 426 863 426 407 426 864 427 407 428 408 429 865 430 864 430 408 430 868 431 865 432 408 433 868 434 408 434 409 434 512 435 53 435 42 435 502 436 512 436 42 436 912 437 462 437 458 437 502 438 42 438 33 438 494 438 502 438 33 438 487 439 494 439 33 439 487 440 33 440 28 440 912 437 458 437 453 437 475 441 487 441 28 441 903 442 912 442 445 442 475 441 28 441 13 441 897 443 903 443 445 443 912 442 453 442 445 442 464 444 475 444 15 444 475 444 13 444 15 444 899 445 897 445 439 445 462 446 464 446 15 446 897 443 445 443 439 443 462 446 15 446 458 446 899 447 439 447 441 447 906 448 899 448 450 448 899 448 441 448 450 448 791 449 906 449 333 449 906 450 450 450 333 450 781 451 791 451 323 451 769 452 781 452 323 452 791 453 333 453 323 453 769 454 323 454 311 454 762 455 769 455 304 455 763 456 762 456 304 456 769 457 311 457 304 457 763 458 304 458 303 458 772 459 763 459 314 459 763 459 303 459 314 459 772 460 314 460 326 460 785 460 772 460 326 460 800 233 785 233 326 233 800 233 326 233 336 233 800 461 336 461 348 461 809 461 800 461 348 461 809 462 348 462 355 462 816 462 809 462 355 462 717 463 816 463 355 463 717 464 355 464 262 464 717 465 262 465 437 465 898 466 717 466 437 466 898 467 437 467 62 467 520 468 898 468 62 468 512 469 520 469 62 469 512 470 62 470 53 470 465 471 6 471 217 471 678 472 465 472 217 472 606 473 621 473 164 473 678 474 217 474 207 474 669 475 678 475 207 475 663 476 669 476 207 476 663 476 207 476 203 476 606 473 164 473 146 473 657 477 663 477 203 477 594 478 606 478 136 478 657 477 203 477 196 477 585 479 594 479 136 479 606 480 146 480 136 480 634 481 657 481 174 481 657 482 196 482 174 482 590 483 585 483 124 483 621 484 634 484 174 484 585 479 136 479 124 479 621 484 174 484 164 484 590 483 124 483 131 483 601 485 590 485 143 485 590 486 131 486 143 486 614 487 601 487 155 487 601 449 143 449 155 449 697 488 614 488 239 488 698 489 697 489 239 489 614 490 155 490 239 490 698 491 239 491 240 491 699 492 698 492 241 492 700 493 699 493 241 493 698 492 240 492 241 492 700 493 241 493 242 493 701 494 700 494 244 494 700 494 242 494 244 494 701 495 244 495 383 495 841 495 701 495 383 495 847 233 841 233 383 233 847 233 383 233 390 233 847 496 390 496 416 496 876 496 847 496 416 496 876 497 416 497 92 497 549 497 876 497 92 497 513 498 549 498 92 498 513 498 92 498 57 498 513 499 57 499 34 499 492 499 513 499 34 499 492 500 34 500 18 500 478 501 492 501 18 501 465 502 478 502 18 502 465 503 18 503 6 503 568 435 103 435 257 435 724 435 568 435 257 435 783 504 795 504 334 504 724 505 257 505 256 505 725 505 724 505 256 505 819 506 725 506 256 506 819 506 256 506 361 506 783 504 334 504 325 504 812 441 819 441 361 441 770 507 783 507 312 507 812 508 361 508 354 508 764 509 770 509 312 509 783 507 325 507 312 507 805 510 812 510 347 510 812 510 354 510 347 510 768 511 764 511 302 511 795 512 805 512 347 512 764 443 312 443 302 443 795 512 347 512 334 512 768 511 302 511 310 511 777 513 768 513 322 513 768 513 310 513 322 513 600 449 777 449 144 449 777 449 322 449 144 449 589 514 600 514 132 514 583 515 589 515 132 515 600 516 144 516 132 516 583 515 132 515 126 515 584 517 583 517 125 517 537 458 584 458 125 458 583 518 126 518 125 518 537 519 125 519 79 519 526 520 537 520 67 520 537 520 79 520 67 520 526 521 67 521 54 521 516 460 526 460 54 460 505 233 516 233 54 233 505 233 54 233 49 233 505 461 49 461 48 461 506 522 505 523 48 524 506 497 48 497 61 497 521 497 506 497 61 497 533 525 521 525 61 525 533 463 61 463 71 463 533 526 71 526 84 526 545 527 533 527 84 527 545 528 84 528 98 528 558 528 545 528 98 528 568 529 558 529 98 529 568 530 98 530 103 530 484 284 23 284 7 284 470 531 484 531 7 531 883 532 890 532 432 532 470 533 7 533 10 533 468 533 470 533 10 533 914 534 468 534 10 534 914 535 10 535 456 535 883 532 432 532 426 532 909 288 914 288 456 288 867 245 883 245 411 245 909 288 456 288 451 288 846 293 867 293 411 293 883 245 426 245 411 245 900 333 909 333 442 333 909 333 451 333 442 333 850 536 846 536 387 536 890 537 900 537 442 537 846 293 411 293 387 293 890 537 442 537 432 537 850 538 387 538 396 538 877 539 850 539 419 539 850 539 396 539 419 539 887 295 877 295 429 295 877 540 419 541 429 542 894 543 887 543 436 543 905 544 894 545 436 546 887 547 429 547 436 547 905 548 436 548 447 548 706 549 905 549 248 549 707 550 706 550 248 550 905 551 447 551 248 551 707 305 248 305 247 305 726 552 707 553 268 554 707 555 247 556 268 557 726 558 268 559 286 560 744 561 726 562 286 563 757 233 744 233 286 233 757 233 286 233 298 233 757 318 298 318 308 318 766 318 757 318 308 318 766 564 308 564 320 564 775 564 766 564 320 564 787 322 775 322 320 322 787 565 320 565 331 565 787 566 331 566 338 566 797 567 787 567 338 567 797 568 338 568 345 568 803 569 797 569 345 569 484 570 803 570 345 570 484 571 345 571 23 571 641 238 184 238 183 238 642 238 641 238 183 238 756 240 774 240 321 240 642 572 183 572 381 572 839 572 642 572 381 572 830 573 839 573 381 573 830 574 381 574 372 574 756 240 321 240 300 240 817 244 830 244 372 244 747 245 756 245 292 245 817 575 372 575 359 575 732 576 747 576 292 576 756 245 300 245 292 245 792 250 817 250 340 250 817 250 359 250 340 250 740 577 732 577 276 577 774 254 792 254 340 254 732 253 292 253 276 253 774 254 340 254 321 254 740 578 276 578 287 578 753 579 740 580 296 581 740 582 287 583 296 584 771 256 753 256 313 256 753 256 296 256 313 256 902 585 771 585 446 585 911 586 902 586 446 586 771 587 313 587 446 587 911 586 446 586 454 586 463 588 911 588 459 588 473 268 463 268 459 268 911 589 454 589 459 589 473 590 459 590 14 590 474 269 473 269 17 269 473 591 14 591 17 591 474 592 17 592 29 592 488 593 474 593 29 593 493 233 488 233 29 233 493 233 29 233 39 233 493 594 39 594 43 594 501 595 493 595 43 595 501 273 43 273 58 273 511 596 501 596 58 596 519 597 511 597 58 597 519 275 58 275 63 275 519 598 63 598 213 598 665 599 519 599 213 599 665 600 213 600 195 600 652 600 665 600 195 600 641 601 652 601 195 601 641 602 195 602 184 602 741 238 281 238 272 238 728 238 741 238 272 238 649 328 660 328 201 328 728 572 272 572 260 572 713 572 728 572 260 572 709 573 713 573 260 573 709 574 260 574 252 574 649 328 201 328 191 328 696 288 709 288 252 288 632 330 649 330 178 330 696 603 252 603 236 603 625 604 632 604 178 604 649 330 191 330 178 330 676 333 696 333 220 333 696 333 236 333 220 333 629 577 625 577 166 577 660 336 676 336 220 336 625 335 178 335 166 335 660 336 220 336 201 336 629 578 166 578 172 578 640 605 629 605 182 605 629 605 172 605 182 605 653 337 640 337 194 337 640 337 182 337 194 337 666 606 653 606 212 606 686 607 666 607 212 607 653 608 194 608 212 608 686 607 212 607 230 607 704 609 686 609 251 609 889 346 704 346 251 346 686 610 230 610 251 610 889 611 251 611 431 611 881 347 889 347 423 347 889 612 431 612 423 612 881 613 423 613 402 613 860 614 881 614 402 614 844 233 860 233 402 233 844 233 402 233 389 233 844 615 389 615 388 615 845 616 844 616 388 616 845 351 388 351 413 351 871 617 845 617 413 617 885 618 871 618 413 618 885 353 413 353 427 353 885 619 427 619 433 619 891 620 885 621 433 622 891 357 433 357 443 357 904 357 891 357 443 357 741 623 904 623 443 623 741 624 443 624 281 624 688 625 228 625 224 625 681 626 688 626 224 626 564 627 574 628 115 629 681 630 224 631 216 632 674 633 681 634 216 635 593 636 674 636 216 636 593 637 216 637 137 637 564 638 115 638 107 638 588 639 593 640 137 641 556 642 564 643 97 644 588 645 137 646 128 647 553 648 556 648 97 648 564 649 107 650 97 651 581 652 588 653 121 654 588 655 128 656 121 657 554 658 553 658 94 658 574 659 581 659 121 659 553 648 97 648 94 648 574 660 121 660 115 660 554 661 94 661 93 661 561 662 554 663 104 664 554 665 93 666 104 667 571 668 561 668 112 668 561 669 104 669 112 669 579 670 571 670 120 670 910 671 579 672 120 673 571 674 112 674 120 674 910 675 120 676 452 677 901 678 910 678 444 678 896 679 901 679 444 679 910 680 452 681 444 682 896 679 444 679 440 679 773 683 896 684 318 685 896 686 440 687 318 688 773 689 318 690 299 691 755 692 773 693 299 694 746 233 755 233 299 233 746 233 299 233 290 233 746 695 290 696 278 697 730 698 746 699 278 700 730 701 278 702 277 703 731 704 730 705 277 706 750 707 731 707 277 707 750 707 277 707 293 707 750 708 293 708 301 708 759 709 750 709 301 709 759 710 301 711 232 712 687 713 759 713 232 713 688 714 687 714 232 714 688 715 232 715 228 715 664 716 206 716 190 716 648 717 664 718 190 719 570 720 578 721 119 722 648 723 190 724 161 725 617 726 648 727 161 728 604 729 617 730 161 731 604 732 161 733 150 734 570 735 119 735 113 735 598 736 604 737 150 738 559 739 570 740 100 741 598 742 150 743 139 744 544 745 559 746 100 747 570 748 113 749 100 750 586 751 598 752 127 753 598 754 139 752 127 755 551 756 544 757 85 758 578 759 586 759 127 759 544 760 100 761 85 762 578 763 127 764 119 765 551 766 85 767 95 768 563 769 551 770 109 771 551 772 95 773 109 774 576 775 563 775 118 775 563 776 109 777 118 778 582 779 576 779 123 779 659 780 582 780 123 780 576 781 118 781 123 781 659 782 123 782 202 782 679 783 659 783 221 783 695 784 679 784 221 784 659 785 202 785 221 785 695 784 221 784 237 784 710 786 695 787 253 788 695 789 237 790 253 791 710 792 253 793 261 794 716 795 710 796 261 797 729 233 716 233 261 233 729 233 261 233 273 233 729 798 273 799 282 800 742 801 729 802 282 803 742 804 282 805 457 806 915 807 742 808 457 809 469 810 915 810 457 810 469 810 457 810 9 810 469 811 9 811 8 811 471 812 469 812 8 812 471 813 8 813 24 813 485 814 471 814 24 814 664 815 485 815 24 815 664 816 24 816 206 816 636 817 180 817 193 817 650 818 636 819 193 820 486 821 490 822 31 823 650 824 193 824 59 824 518 825 650 825 59 825 510 826 518 827 59 828 510 829 59 830 51 831 486 832 31 833 27 834 503 835 510 836 51 837 477 838 486 839 19 840 503 841 51 842 44 843 476 844 477 845 19 846 486 847 27 848 19 849 496 751 503 752 40 753 503 754 44 752 40 755 472 850 476 851 16 852 490 853 496 854 40 855 476 856 19 857 16 858 490 859 40 860 31 861 472 862 16 863 11 864 479 865 472 865 25 865 472 866 11 867 25 868 489 869 479 869 30 869 479 870 25 870 30 870 495 871 489 871 38 871 500 872 495 872 38 872 489 871 30 871 38 871 500 872 38 872 41 872 504 873 500 873 50 873 515 874 504 875 50 876 500 877 41 877 50 877 515 878 50 879 55 880 575 881 515 882 117 883 515 884 55 885 117 886 575 887 117 888 122 889 580 890 575 891 122 892 587 233 580 233 122 233 587 233 122 233 133 233 587 893 133 894 138 895 596 896 587 897 138 898 596 899 138 900 198 901 654 902 596 903 198 904 645 905 654 905 198 905 645 905 198 905 189 905 645 811 189 811 188 811 646 812 645 812 188 812 646 906 188 906 181 906 635 906 646 906 181 906 636 907 635 907 181 907 636 907 181 907 180 907 541 716 81 716 82 716 528 717 541 718 82 719 752 908 765 909 309 910 528 911 82 911 75 911 529 912 528 912 75 912 826 913 529 730 75 731 826 914 75 915 368 916 752 917 309 918 295 919 810 736 826 737 368 738 721 920 752 921 269 922 810 923 368 924 350 925 714 926 721 927 269 928 752 929 295 930 269 931 790 932 810 933 332 934 810 935 350 936 332 937 715 938 714 939 266 940 765 941 790 942 332 943 714 944 269 945 266 946 765 947 332 948 309 949 715 950 266 951 265 952 735 953 715 953 283 953 715 954 265 954 283 954 760 955 735 955 305 955 735 956 283 956 305 956 784 957 760 958 327 959 801 960 784 960 327 960 760 961 305 962 327 963 801 960 327 960 343 960 822 964 801 965 365 966 836 784 822 784 365 784 801 967 343 968 365 969 836 784 365 784 377 784 543 970 836 971 87 972 836 973 377 974 87 975 543 976 87 977 86 978 547 979 543 980 86 981 560 233 547 233 86 233 560 233 86 233 101 233 560 982 101 983 114 984 572 985 560 986 114 987 572 988 114 989 77 990 535 991 572 992 77 993 536 810 535 810 77 810 536 810 77 810 76 810 536 994 76 995 78 996 539 997 536 997 78 997 539 998 78 998 80 998 540 998 539 998 80 998 541 816 540 816 80 816 541 816 80 816 81 816 835 361 380 361 366 361 823 361 835 361 366 361 823 999 366 999 328 999 789 1000 823 1000 328 1000 658 1001 667 1002 200 1003 667 1004 214 1005 200 1006 789 1007 328 1007 306 1007 761 1007 789 1007 306 1007 651 1008 658 1008 192 1008 637 1009 651 1010 192 1011 658 1008 200 1008 192 1008 739 1012 761 1013 284 1014 761 1015 306 1016 284 1017 637 1018 192 1019 179 1020 739 1021 284 1021 235 1021 691 1021 739 1021 235 1021 667 1022 691 1022 235 1022 644 1023 637 1023 187 1023 637 1023 179 1023 187 1023 667 1022 235 1022 214 1022 655 1024 644 1024 197 1024 644 1025 187 1025 197 1025 661 380 655 380 205 380 670 1026 661 1026 205 1026 655 380 197 380 205 380 670 1027 205 1027 215 1027 682 1028 670 1028 223 1028 670 1028 215 1028 223 1028 689 1029 682 1030 227 1031 682 1032 223 1033 227 1034 796 1035 689 1035 341 1035 689 1035 227 1035 341 1035 829 1036 796 1036 373 1036 796 1037 341 1037 373 1037 829 1038 373 1038 185 1038 643 1038 829 1038 185 1038 643 233 185 233 173 233 628 233 643 233 173 233 628 1039 173 1040 168 1041 623 1042 628 1043 168 1044 624 1045 623 1045 168 1045 624 1046 168 1046 167 1046 624 1047 167 1047 111 1047 562 1047 624 1047 111 1047 562 1048 111 1049 99 1050 555 1051 562 1052 99 1053 555 1054 99 1054 88 1054 542 1054 555 1054 88 1054 542 1055 88 1055 380 1055 835 1056 542 1056 380 1056 626 1057 163 1057 142 1057 602 1058 626 1058 142 1058 870 473 888 473 430 473 602 1059 142 1059 141 1059 603 1059 602 1059 141 1059 591 1060 603 1060 141 1060 591 1060 141 1060 130 1060 870 1061 430 1061 410 1061 552 1062 591 1062 130 1062 848 478 870 478 386 478 552 1063 130 1063 91 1063 840 1064 848 1064 386 1064 870 478 410 478 386 478 548 1065 552 1065 90 1065 552 1065 91 1065 90 1065 843 1066 840 1066 382 1066 888 1067 548 1067 90 1067 840 1068 386 1068 382 1068 888 1069 90 1069 430 1069 843 1066 382 1066 385 1066 866 513 843 513 403 513 843 513 385 513 403 513 886 1070 866 1070 428 1070 866 1071 403 1071 428 1071 895 1072 886 1072 438 1072 913 1073 895 1073 438 1073 886 1074 428 1074 438 1074 913 1073 438 1073 455 1073 610 1075 913 1075 153 1075 611 1076 610 1076 153 1076 913 1077 455 1077 153 1077 611 1076 153 1076 152 1076 612 1078 611 1078 154 1078 611 1079 152 1079 154 1079 612 1080 154 1080 156 1080 613 1081 612 1081 156 1081 615 233 613 233 156 233 615 233 156 233 157 233 615 1082 157 1082 158 1082 616 1083 615 1083 158 1083 616 1084 158 1084 159 1084 618 1085 616 1085 159 1085 619 1086 618 1086 159 1086 619 1086 159 1086 160 1086 619 1087 160 1087 177 1087 639 1088 619 1088 177 1088 639 1089 177 1089 171 1089 631 1089 639 1089 171 1089 626 1090 631 1090 171 1090 626 1091 171 1091 163 1091 873 1092 415 1092 417 1092 874 238 873 238 417 238 799 1093 807 1093 351 1093 874 241 417 241 418 241 875 241 874 241 418 241 828 1060 875 1060 418 1060 828 1060 418 1060 370 1060 799 1094 351 1094 342 1094 820 1095 828 1095 370 1095 786 1096 799 1096 329 1096 820 405 370 405 362 405 780 1097 786 1097 329 1097 799 1096 342 1096 329 1096 814 408 820 408 357 408 820 408 362 408 357 408 782 1098 780 1098 315 1098 807 1099 814 1099 357 1099 780 1100 329 1100 315 1100 807 1101 357 1101 351 1101 782 1098 315 1098 324 1098 794 294 782 294 335 294 782 294 324 294 335 294 802 1102 794 1103 346 1104 794 295 335 295 346 295 811 1105 802 1105 353 1105 818 1106 811 1106 353 1106 802 1107 346 1107 353 1107 818 1106 353 1106 360 1106 824 1108 818 1108 367 1108 851 1109 824 1109 367 1109 818 1110 360 1110 367 1110 851 1109 367 1109 394 1109 852 1111 851 1111 395 1111 851 1112 394 1112 395 1112 852 1113 395 1113 397 1113 855 1114 852 1114 397 1114 856 233 855 233 397 233 856 233 397 233 398 233 856 1115 398 1115 399 1115 857 1116 856 1116 399 1116 857 1117 399 1117 400 1117 858 1118 857 1118 400 1118 859 1119 858 1119 400 1119 859 1119 400 1119 401 1119 859 1120 401 1120 412 1120 869 1121 859 1121 412 1121 869 1122 412 1122 414 1122 872 1122 869 1122 414 1122 873 1123 872 1123 414 1123 873 1124 414 1124 415 1124</p>
        </triangles>
      </mesh>
    </geometry>
  </library_geometries>
  <library_visual_scenes>
    <visual_scene id="Scene" name="Scene">
      <node id="node" name="node" type="NODE">
        <matrix sid="transform">1 0 0 0 0 1 0 0 0 0 1 0 0 0 0 1</matrix>
        <instance_geometry url="#shape0_015-mesh" name="node">
          <bind_material>
            <technique_common>
              <instance_material symbol="Material_008-material" target="#Material_008-material"/>
            </technique_common>
          </bind_material>
        </instance_geometry>
      </node>
    </visual_scene>
  </library_visual_scenes>
  <scene>
    <instance_visual_scene url="#Scene"/>
  </scene>
</COLLADA>