<?xml version="1.0" encoding="utf-8"?>
<COLLADA xmlns="http://www.collada.org/2005/11/COLLADASchema" version="1.4.1" xmlns:xsi="http://www.w3.org/2001/XMLSchema-instance">
  <asset>
    <contributor>
      <author>Blender User</author>
      <authoring_tool>Blender 4.0.2 commit date:2023-12-05, commit time:07:41, hash:9be62e85b727</authoring_tool>
    </contributor>
    <created>2024-02-07T16:37:10</created>
    <modified>2024-02-07T16:37:10</modified>
    <unit name="meter" meter="1"/>
    <up_axis>Z_UP</up_axis>
  </asset>
  <library_effects>
    <effect id="Material_014-effect">
      <profile_COMMON>
        <technique sid="common">
          <lambert>
            <emission>
              <color sid="emission">0 0 0 1</color>
            </emission>
            <diffuse>
              <color sid="diffuse">0.002673087 0.002673087 0.002673087 1</color>
            </diffuse>
            <reflectivity>
              <float sid="specular">0.5</float>
            </reflectivity>
          </lambert>
        </technique>
      </profile_COMMON>
    </effect>
  </library_effects>
  <library_images/>
  <library_materials>
    <material id="Material_014-material" name="Material.014">
      <instance_effect url="#Material_014-effect"/>
    </material>
  </library_materials>
  <library_geometries>
    <geometry id="shape0_022-mesh" name="shape0.022">
      <mesh>
        <source id="shape0_022-mesh-positions">
          <float_array id="shape0_022-mesh-positions-array" count="1497">0.08599996 0.03499996 -0.04149997 0.08599996 0.04099994 -0.04249995 0.08639997 0.03499996 -0.04149997 0.08599996 0.023 -0.04149997 0.08639997 0.023 -0.04149997 0.08599996 0.03499996 -0.04149299 0.08599996 0.04099994 -0.04249316 0.08639997 0.04099994 -0.04249995 0.08639997 0.04819995 -0.04449999 0.08639997 0.04099994 -0.0304982 0.08551687 0.04099994 -0.03048336 0.08531588 0.04099994 -0.04248166 0.08550006 0.03499996 -0.03148329 0.08533269 0.03499996 -0.04148185 0.08533269 0.023 -0.04148185 0.08599996 0.023 -0.04149299 0.08548307 0.02449995 -0.03249996 0.08534908 0.02449995 -0.04049998 0.06799995 0.023 -0.04149997 0.08639997 0.008999943 -0.04149997 0.08639997 0.005999982 -0.04449999 0.06799995 0.008999943 -0.04149997 0.08639997 0.008999943 -0.03149998 0.08639997 0.005999982 -0.03674995 0.06799995 0.008999943 -0.03149998 0.06799995 0.00999999 -0.041 0.06799995 0.023 -0.03149998 0.08549988 0.02099996 -0.03149998 0.06799995 0.00999999 -0.03179997 0.06799995 0.02249997 -0.041 0.0679 0.00999999 -0.041 0.06799995 0.02249997 -0.03179997 0.0679 0.00999999 -0.03179997 0.0679 0.02249997 -0.03179997 0.0679 0.02249997 -0.041 0.06799995 0.023 -0.04049998 0.06799995 0.023 -0.03249996 0.08548307 0.023 -0.03249996 0.06799995 0.02449995 -0.03249996 0.06799995 0.02449995 -0.04049998 0.08549988 0.023 -0.03149998 0.08534908 0.023 -0.04049998 0.08550006 0.02099996 -0.03148329 0.08639997 0.03499996 -0.03149825 0.08639997 0.02099996 -0.03149825 0.08639997 0.02099996 -0.03149998 0.08639997 0.008999943 -0.02724999 0.08639997 0.023 -0.02724999 0.08639997 0.03499996 -0.02724999 0.08639997 0.04099994 -0.02824997 0.08599996 0.03499996 -0.02724999 0.08599996 0.04099994 -0.02824997 0.08639997 0.04819995 0 0.08639997 0.04099994 -0.01624816 0.08599996 0.04099994 -0.02824318 0.08599996 0.023 -0.02724999 0.08599996 0.03499996 -0.02724295 0.08551687 0.04099994 -0.01623338 0.08531588 0.04099994 -0.02823168 0.08599996 0.023 -0.02724295 0.08533269 0.03499996 -0.02723187 0.06799995 0.023 -0.02724999 0.08533269 0.023 -0.02723187 0.06799995 0.023 -0.02625 0.08534908 0.023 -0.02625 0.08534908 0.02449995 -0.02625 0.06799995 0.02449995 -0.02625 0.06799995 0.02249997 -0.02679997 0.06799995 0.023 -0.01824998 0.08548307 0.02449995 -0.01824998 0.06799995 0.02449995 -0.01824998 0.06799995 0.023 -0.01725 0.08548307 0.023 -0.01824998 0.06799995 0.02249997 -0.01759999 0.08549988 0.023 -0.01725 0.08550006 0.03499996 -0.01723325 0.08550006 0.02099996 -0.01723325 0.08549988 0.02099996 -0.01725 0.08639997 0.03499996 -0.01724827 0.08639997 0.03499996 -0.01299995 0.08639997 0.04099994 -0.01399999 0.08639997 0.023 -0.01299995 0.08599996 0.03499996 -0.01299995 0.08599996 0.04099994 -0.01399999 0.08639997 0.04099994 -0.001998186 0.08599996 0.04099994 -0.0139932 0.08599996 0.023 -0.01299995 0.08599996 0.03499996 -0.01299297 0.08551687 0.04099994 -0.001983344 0.08531588 0.04099994 -0.01398169 0.08599996 0.023 -0.01299297 0.08533269 0.03499996 -0.01298189 0.06799995 0.023 -0.01299995 0.08533269 0.023 -0.01298189 0.06799995 0.023 -0.01199996 0.08534908 0.023 -0.01199996 0.08534908 0.02449995 -0.01199996 0.08548307 0.02449995 -0.003999948 0.06799995 0.02449995 -0.01199996 0.06799995 0.02449995 -0.003999948 0.08549988 0.023 -0.002999961 0.08550006 0.03499996 -0.002983272 0.08548307 0.023 -0.003999948 0.06799995 0.023 -0.003999948 0.06799995 0.023 -0.002999961 0.06799995 0.02249997 -0.003499984 0.08550006 0.02099996 -0.002983272 0.08549988 0.02099996 -0.002999961 0.06799995 0.008999943 -0.002999961 0.06799995 0.00999999 -0.003499984 0.06799995 0.02249997 -0.01269996 0.0679 0.02249997 -0.003499984 0.06799995 0.00999999 -0.01269996 0.0679 0.02249997 -0.01269996 0.0679 0.00999999 -0.01269996 0.0679 0.00999999 -0.003499984 0.06799995 0.008999943 -0.01299995 0.08639997 0.008999943 -0.002999961 0.08639997 0.008999943 -0.01299995 0.08639997 0.008999943 -0.01725 0.08639997 0.02099996 -0.01724827 0.08639997 0.005999982 -0.007749974 0.08639997 0.02099996 -0.01725 0.06799995 0.008999943 -0.01725 0.06799995 0.00999999 -0.01759999 0.06799995 0.008999943 -0.02724999 0.06799995 0.00999999 -0.02679997 0.0679 0.00999999 -0.01759999 0.0679 0.00999999 -0.02679997 0.0679 0.02249997 -0.01759999 0.0679 0.02249997 -0.02679997 0.05799996 0.005999982 -0.03674995 0.06989997 0 -0.03674995 0.06989997 0 -0.04249995 0.05799996 0 -0.03674995 0.06549996 0 -0.04249995 0.06989997 0.002999961 -0.04249995 0.06989997 0 -0.04449999 0.06549996 0.002999961 -0.04249995 0.06549996 0.002999961 -0.04449999 0.06549996 0 -0.04449999 0.06149995 0 -0.04249995 0.05799996 0 -0.04249995 0.06149995 0 -0.04449999 0.06149995 0.005999982 -0.04249995 0.05799996 0.005999982 -0.04249995 0.06149995 0.005999982 -0.04449999 0.02539998 0.005999982 -0.03909999 0.02539998 0.005999982 -0.04449999 0.02389997 0.005999982 -0.02541995 0.02389997 0.005999982 -0.03909999 0.02389997 0 -0.03909999 0.02389997 0 -0.02541995 0.004999995 0 -0.03004997 0.009079992 0 -0.0424 0.02389997 0 -0.04449999 0.004999995 0 -0.02541995 0 0 -0.03004997 0.004999995 0.005999982 -0.02854996 0.004079997 0 -0.0424 0.004999995 0.005999982 -0.02541995 0 0.005999982 -0.02854996 0 0.005999982 -0.01014995 0.004999995 0.005999982 -0.01304996 0 0.008999943 -0.02724999 0 0.008999943 -0.03149998 0 0.008999943 -0.01725 0 0.02099996 -0.0314849 0 0.023 -0.02724999 0.01849985 0.008999943 -0.02724999 0.01849985 0.008999943 -0.01725 0.01849985 0.023 -0.02724999 0.01849985 0.00999999 -0.02679997 8.99999e-4 0.02099996 -0.01725 0.01849985 0.023 -0.01725 0.01849985 0.00999999 -0.01759999 0.01849985 0.02249997 -0.02679997 0.01849985 0.02249997 -0.01759999 8.99999e-4 0.023 -0.01725 0.01849985 0.023 -0.01824998 0.01849985 0.023 -0.02625 8.833e-4 0.023 -0.01824998 0.01849985 0.02449995 -0.01824998 8.833e-4 0.02449995 -0.01824998 8.99999e-4 0.03499996 -0.01725 7.326e-4 0.03499996 -0.02724856 7.49299e-4 0.02449995 -0.02625 0.01849985 0.02449995 -0.02625 7.49299e-4 0.023 -0.02625 7.326e-4 0.023 -0.02724856 0 0.03499996 -0.02723628 0 0.023 -0.02723628 0 0.03499996 -0.0314849 0 0.04099994 -0.02823644 0 0.04099994 -0.03048479 8.99999e-4 0.03499996 -0.03149998 9.167e-4 0.04099994 -0.03050005 0 0.02099996 -0.03149998 8.99999e-4 0.02099996 -0.03149998 0 0.008999943 -0.04149997 0.01849985 0.008999943 -0.03149998 8.99999e-4 0.023 -0.03149998 0.01849985 0.023 -0.03149998 0.01849985 0.008999943 -0.04149997 0.01849985 0.00999999 -0.03179997 0.01849985 0.00999999 -0.041 0.01849985 0.023 -0.03249996 0.01849985 0.02249997 -0.03179997 0.01849985 0.023 -0.04149997 0.01849985 0.02249997 -0.041 0 0.023 -0.04149997 7.326e-4 0.023 -0.0414986 7.49299e-4 0.023 -0.04049998 0.01849985 0.023 -0.04049998 0.01849985 0.02449995 -0.04049998 0.01849985 0.02449995 -0.03249996 7.49299e-4 0.02449995 -0.04049998 8.833e-4 0.02449995 -0.03249996 7.326e-4 0.03499996 -0.0414986 8.833e-4 0.023 -0.03249996 7.158e-4 0.04099994 -0.04249846 0 0.04099994 -0.04248648 0 0.03499996 -0.04148626 0 0.04819995 -0.04449999 0 0.023 -0.04148626 0 0 -0.04449999 0.004079997 0 -0.04449999 0.004079997 0.002999961 -0.04449999 0.004079997 0.002999961 -0.0424 0.009079992 0.002999961 -0.04449999 0.009079992 0.002999961 -0.0424 0.009079992 0 -0.04449999 0.02109998 0.04949998 -0.04449999 0.01394999 0.04949998 -0.04449999 0.06989997 0.002999961 -0.04449999 0.06629997 0.04949998 -0.04449999 0.07344996 0.04949998 -0.04449999 0.07999998 0.04884248 -0.03674995 0.07957136 0.04888546 -0.03849089 0.07999998 0.04884248 -0.02249997 0.07838368 0.04900467 -0.03983378 0.07949757 0.02999997 -0.038625 0.07999998 0.02999997 -0.03674995 0.078125 0.02999997 -0.03999757 0.07670819 0.04917287 -0.04047185 0.07437497 0.02999997 -0.03999757 0.07300239 0.02999997 -0.038625 0.07624995 0.02999997 -0.04049998 0.07492798 0.04935157 -0.0402593 0.07260978 0.04949998 -0.03765076 0.07344996 0.04949998 -0.03924447 0.07249999 0.02999997 -0.03674995 0.07260978 0.04949998 -0.03584915 0.07300239 0.02999997 -0.03487497 0.07949757 0.02999997 -0.03487497 0.07344996 0.04949998 -0.0342555 0.07260978 0.04949998 -0.02340078 0.07437497 0.02999997 -0.03350239 0.078125 0.02999997 -0.03350239 0.07957136 0.04888546 -0.03500908 0.07838368 0.04900467 -0.03366619 0.07957136 0.04888546 -0.02424085 0.07670819 0.04917287 -0.03302806 0.07838368 0.04900467 -0.0255838 0.07624995 0.02999997 -0.03299999 0.07492798 0.04935157 -0.03324067 0.07670819 0.04917287 -0.02622187 0.07492798 0.04935157 -0.02600926 0.07949757 0.02999997 -0.02437496 0.078125 0.02999997 -0.02574759 0.07624995 0.02999997 -0.02625 0.07437497 0.02999997 -0.02574759 0.07344996 0.04949998 -0.02499449 0.07999998 0.02999997 -0.02249997 0.07300239 0.02999997 -0.02437496 0.07249999 0.02999997 -0.02249997 0.07260978 0.04949998 -0.02159917 0.07300239 0.02999997 -0.02062499 0.07949757 0.02999997 -0.02062499 0.07344996 0.04949998 -0.02000546 0.07437497 0.02999997 -0.01925235 0.078125 0.02999997 -0.01925235 0.07957136 0.04888546 -0.0207591 0.07838368 0.04900467 -0.01941615 0.07624995 0.02999997 -0.01874995 0.07670819 0.04917287 -0.01877808 0.07492798 0.04935157 -0.01899069 0.07838368 0.04900467 -0.01133376 0.07670819 0.04917287 -0.01197189 0.07492798 0.04935157 -0.01175928 0.07957136 0.04888546 -0.00999087 0.07949757 0.02999997 -0.01012498 0.078125 0.02999997 -0.01149755 0.07624995 0.02999997 -0.01199996 0.07437497 0.02999997 -0.01149755 0.07344996 0.04949998 -0.01074445 0.07300239 0.02999997 -0.01012498 0.07260978 0.04949998 -0.009150803 0.07249999 0.02999997 -0.008249998 0.07999998 0.02999997 -0.008249998 0.07260978 0.04949998 -0.007349193 0.06629997 0.04949998 0 0.06629997 0.06439995 -0.04449999 0.05559748 0.06599998 -0.04449999 0.05559748 0.06599998 -0.03349995 0.06629997 0.06439995 0 0.05559748 0.06599998 -0.03649997 0.02109998 0.06599998 -0.04449999 0.03110259 0.06599998 -0.03649997 0.05254626 0.06997209 -0.03649997 0.03415369 0.06997209 -0.03649997 0.03110259 0.06599998 -0.03349995 0.02109998 0.06599998 0 0.03110259 0.06599998 -0.01099997 0.03110259 0.06599998 -0.007999956 0.05559748 0.06599998 0 0.02109998 0.04949998 0 0.05559748 0.06599998 -0.007999956 0.03415369 0.06997209 -0.007999956 0.03415369 0.06997209 -0.01099997 0.05559748 0.06599998 -0.01099997 0.05254626 0.06997209 -0.01099997 0.05254626 0.06997209 -0.03349995 0.03415369 0.06997209 -0.03349995 0.03842508 0.07258778 -0.03349995 0.04827487 0.07258778 -0.03349995 0.04827487 0.07258778 -0.03649997 0.03842508 0.07258778 -0.03649997 0.04334998 0.07349997 -0.03349995 0.04334998 0.07349997 -0.03649997 0.05254626 0.06997209 -0.007999956 0.04827487 0.07258778 -0.007999956 0.04827487 0.07258778 -0.01099997 0.03842508 0.07258778 -0.007999956 0.03842508 0.07258778 -0.01099997 0.04334998 0.07349997 -0.007999956 0.04334998 0.07349997 -0.01099997 0.07344996 0.04949998 0 0.06149995 0.005999982 0 0.07300239 0.02999997 -0.006374955 0.07344996 0.04949998 -0.005755484 0.07437497 0.02999997 -0.005002379 0.07949757 0.02999997 -0.006374955 0.078125 0.02999997 -0.005002379 0.07492798 0.04935157 -0.004740655 0.07624995 0.02999997 -0.004499971 0.07670819 0.04917287 -0.004528045 0.07838368 0.04900467 -0.005166172 0.07957136 0.04888546 -0.006509065 0.08639997 0.005999982 0 0.07999998 0.04884248 -0.008249998 0.08639997 0.03499996 -0.002998292 0.08639997 0.02099996 -0.002998292 0.08639997 0.02099996 -0.002999961 0.06989997 0 0 0.02539998 0.005999982 0 0.05799996 0.005999982 -0.001999974 0.06149995 0.005999982 -0.001999974 0.06149995 0 -0.001999974 0.06149995 0 0 0.05799996 0 -0.001999974 0.06989997 0 -0.007749974 0.05799996 0 -0.007749974 0.05799996 0.005999982 -0.007749974 0.02389997 0.005999982 -0.01304996 0.02539998 0.005999982 -0.005399942 0.004999995 0.005999982 -0.01014995 0.02389997 0 -0.01304996 0.004999995 0 -0.01304996 0.004999995 0 -0.008649945 0.02389997 0 -0.005399942 0 0 -0.008649945 0 0 0 0.02389997 0 0 0.02389997 0.005999982 -0.005399942 0 0.04819995 0 0.01394999 0.04949998 0 0.01399439 0.04949998 -0.008045673 0.01399439 0.04949998 -0.008454144 0.01399439 0.04949998 -0.02229565 0.01399999 0.02999997 -0.008249998 0.01394999 0.04949998 -0.007639646 0.01394999 0.04949998 -0.00886029 0.01394999 0.04949998 -0.02188968 0.01399439 0.04949998 -0.02270418 0.01399999 0.02999997 -0.02249997 0.01349759 0.02999997 -0.02062499 0.01321285 0.04943126 -0.02020126 0.01349759 0.02999997 -0.01012498 0.01321285 0.04943126 -0.01054865 0.01212495 0.02999997 -0.01925235 0.01176059 0.04929596 -0.0190677 0.007002353 0.02999997 -0.02062499 0.006499946 0.02999997 -0.02249997 0.01024997 0.02999997 -0.01874995 0.008374989 0.02999997 -0.01925235 0.009943783 0.04912668 -0.01876246 0.01176059 0.04929596 -0.01168227 0.008200883 0.0489642 -0.01935929 0.006952464 0.04884785 -0.02071416 0.006952464 0.04884785 -0.01003575 0.008200883 0.0489642 -0.01139068 0.009943783 0.04912668 -0.01198744 0.01212495 0.02999997 -0.01149755 0.01024997 0.02999997 -0.01199996 0.008374989 0.02999997 -0.01149755 0.007002353 0.02999997 -0.01012498 0.006499946 0.02999997 -0.008249998 0.01349759 0.02999997 -0.006374955 0.006499946 0.04880565 -0.008249998 0.006952464 0.04884785 -0.006464183 0.007002353 0.02999997 -0.006374955 0.01212495 0.02999997 -0.005002379 0.01321285 0.04943126 -0.005951285 0.01176059 0.04929596 -0.004817664 0.01024997 0.02999997 -0.004499971 0.008374989 0.02999997 -0.005002379 0.008200883 0.0489642 -0.00510925 0.009943783 0.04912668 -0.004512488 0.006499946 0.04880565 -0.02249997 0.006952464 0.04884785 -0.02428579 0.006499946 0.04880565 -0.03674995 0.007002353 0.02999997 -0.02437496 0.008374989 0.02999997 -0.02574759 0.008200883 0.0489642 -0.0256406 0.01349759 0.02999997 -0.02437496 0.01394999 0.04949998 -0.02311027 0.01321285 0.04943126 -0.02479869 0.01212495 0.02999997 -0.02574759 0.01394999 0.04949998 -0.03613966 0.01321285 0.04943126 -0.0344513 0.01399439 0.04949998 -0.03654575 0.01399999 0.02999997 -0.03674995 0.01349759 0.02999997 -0.03487497 0.01212495 0.02999997 -0.03350239 0.01176059 0.04929596 -0.03331768 0.007002353 0.02999997 -0.03487497 0.006499946 0.02999997 -0.03674995 0.01024997 0.02999997 -0.03299999 0.008374989 0.02999997 -0.03350239 0.009943783 0.04912668 -0.03301244 0.01176059 0.04929596 -0.02593225 0.008200883 0.0489642 -0.03360939 0.006952464 0.04884785 -0.0349642 0.009943783 0.04912668 -0.02623748 0.01024997 0.02999997 -0.02625 0.006952464 0.04884785 -0.03853577 0.007002353 0.02999997 -0.038625 0.008200883 0.0489642 -0.03989058 0.008374989 0.02999997 -0.03999757 0.009943783 0.04912668 -0.04048746 0.01024997 0.02999997 -0.04049998 0.01212495 0.02999997 -0.03999757 0.01349759 0.02999997 -0.038625 0.01176059 0.04929596 -0.04018229 0.01321285 0.04943126 -0.03904867 0.01394999 0.04949998 -0.03736025 0.01399439 0.04949998 -0.03695428 0 0.02099996 -0.002984881 0 0.04099994 -0.001984775 0 0.04099994 -0.01399999 0 0.04099994 -0.01623475 9.08399e-4 0.04099994 -0.001999974 0 0.03499996 -0.002984881 0.000999987 0.04099994 -0.001999974 0.000999987 0.03499996 -0.002999961 8.99999e-4 0.03499996 -0.002999961 0.000999987 0.04099994 -0.01399999 8.99999e-4 0.02099996 -0.002999961 0.000999987 0.02099996 -0.002999961 0 0.02099996 -0.002999961 0 0.008999943 -0.002999961 0.000999987 0.023 -0.002999961 0.01849985 0.008999943 -0.002999961 0.01849985 0.023 -0.002999961 0 0.008999943 -0.01299995 0.01849985 0.008999943 -0.01299995 0.01849985 0.00999999 -0.003499984 0.01849985 0.023 -0.003999948 0.01849985 0.02249997 -0.003499984 0.01849985 0.00999999 -0.01269996 0.01849985 0.023 -0.01299995 0.01849985 0.02249997 -0.01269996 0.01849985 0.023 -0.01199996 0 0.023 -0.01299995 0.000999987 0.023 -0.01299995 0.000999987 0.023 -0.01199996 0.01849985 0.02449995 -0.01199996 0.01849985 0.02449995 -0.003999948 0.000999987 0.02449995 -0.01199996 0.000999987 0.03499996 -0.01299995 0.000999987 0.02449995 -0.003999948 0.000999987 0.023 -0.003999948 0 0.03499996 -0.01299995 0 0.03499996 -0.01723486 0 0.02099996 -0.01723486 9.167e-4 0.04099994 -0.01625007 7.158e-4 0.04099994 -0.02824848 0 0.02099996 -0.01725</float_array>
          <technique_common>
            <accessor source="#shape0_022-mesh-positions-array" count="499" stride="3">
              <param name="X" type="float"/>
              <param name="Y" type="float"/>
              <param name="Z" type="float"/>
            </accessor>
          </technique_common>
        </source>
        <source id="shape0_022-mesh-normals">
          <float_array id="shape0_022-mesh-normals-array" count="1290">0 -0.1644004 -0.9863938 0 0 -1 -1 3.35569e-4 0 -1 3.35569e-4 0 -1 3.35569e-4 0 -1 0 0 0 -0.1644005 -0.9863937 0 1 0 -1 -2.6944e-6 0 0 1 2.21556e-7 -0.01658761 -0.1644077 -0.986253 0.01652795 -0.1644075 0.986254 -0.99986 9.70127e-6 0.01673996 -0.9998598 -8.89285e-6 0.0167495 -0.01640313 -0.1643898 -0.9862591 -0.01664388 0 -0.9998615 -0.01662933 0 -0.9998617 -0.9998599 -2.21744e-6 0.01673996 -0.9998607 0 0.01669865 -0.9998598 4.15711e-6 0.01674747 0 0 1 -1 1.94025e-6 0 0 -1 0 -1 -1.16415e-5 0 -1 -1.45518e-5 0 -1 2.53075e-5 0 -0.9998589 0 0.01679861 0 1 -1.85797e-6 0 1 0 -0.9998606 0 0.01669877 0 1 -1.74517e-6 -0.9998591 -7.25973e-6 0.01678866 -0.9999275 0 0.01204991 -0.9999315 0 0.01171064 -0.9999315 0 0.01171064 -0.9999315 0 0.01171064 0.01666265 0 0.9998612 0.01643753 -0.1643912 0.9862583 0.01666271 0 0.9998612 0 -1 -2.42065e-4 -1 0 0 -1 7.19189e-6 0 -1 -2.15756e-6 0 -0.01658058 -0.1644077 -0.9862531 -0.01663661 0 -0.9998617 -0.9998607 0 0.01669871 -1 -1.45519e-5 0 -0.9998598 5.54281e-6 0.01674747 -0.9998591 -7.25979e-6 0.01678878 -0.99986 -2.21743e-6 0.0167399 0 1 -1.85798e-6 -0.9999275 0 0.01204389 -0.9999332 0 0.01156681 -0.9999332 0 0.01156681 -0.9999332 0 0.01156681 0.01666963 0 0.9998611 0.0165252 -0.1644075 0.9862542 0.01644015 -0.1643912 0.9862583 -0.99986 7.76102e-6 0.01673996 -1 2.15756e-6 0 -1 1.43838e-5 0 -1 -2.6944e-6 0 -0.01663297 0 -0.9998617 0 1 -1.74517e-6 -0.9998607 0 0.01669871 -0.9998607 0 0.01669865 -0.9998598 4.15711e-6 0.01674747 -0.9998592 -7.25977e-6 0.01678878 -0.99986 -1.10872e-6 0.0167399 -0.999859 0 0.01679861 -1 1.45518e-5 0 -1 -7.27591e-6 0 0 1 -1.85798e-6 -0.9999315 0 0.01170909 -0.9999315 0 0.01170909 -0.9999315 0 0.01170909 -0.9999315 0 0.01170897 -0.9999315 0 0.01170897 -0.9999315 0 0.01170897 -1 -5.09317e-6 0 0.0166673 0 0.9998612 0 -1 -2.42014e-4 -0.3417429 0.9397935 0 -0.3417431 0.9397935 0 1 0 0 -0.341742 0.9397938 0 0 1 -4.031e-7 -0.9701425 0.242536 0 -0.9701426 0.2425356 0 0 0.2425355 -0.9701426 1 0 0 0 0.2425355 -0.9701426 0 0 1 1 3.16346e-6 0 1 -1.81898e-6 0 0 1 2.58781e-6 0.9998607 0 -0.01669722 0.9998607 0 -0.01669716 0.99986 4.07107e-6 -0.0167399 0.9998598 -2.58466e-6 -0.01674771 0 1 -1.98545e-7 0.9998602 0 -0.01672053 0.9998602 0 -0.01672059 0 1 -3.2807e-6 0 1 1.44028e-5 0 1 1.44042e-5 0 1 1.44012e-5 -0.01678878 0 -0.9998591 -0.01678878 0 -0.9998591 -0.01656031 -0.1644081 -0.9862534 0.01654714 -0.1644048 0.9862542 0.01645976 -0.1643926 0.9862577 0.01677161 0 0.9998595 0.0167762 0 0.9998593 1 -7.27596e-7 0 0 1 1.02847e-5 0 1 1.0286e-5 0 1 1.02831e-5 1 1.81898e-6 0 0 1 -1.98545e-7 0.9998607 0 -0.01669704 0.9998599 4.07107e-6 -0.01673996 0.9998598 -2.57383e-6 -0.01674771 0.9998602 0 -0.01672059 -0.01653462 -0.1644059 -0.9862543 -0.01654726 -0.1644082 -0.9862537 -0.01677554 0 -0.9998593 0.99986 9.88317e-6 -0.01673996 0.9998599 6.96801e-6 -0.01674157 2.95987e-7 0 1 -6.08784e-7 0 1 -1.73082e-7 0 1 -0.09987467 -0.9950001 1.2013e-5 -0.09988862 -0.9949986 0 -0.09988856 -0.9949986 0 -0.09987407 -0.9950002 1.42065e-5 -0.09988397 -0.9949991 -5.7507e-6 0.7491415 0.001776695 -0.6624078 0.9659258 -0.001937866 -0.2588123 0.9710067 0 -0.2390524 0.7071029 -0.003531575 -0.7071019 0.3561831 0.003204703 -0.9344107 -0.09988266 -0.9949993 -6.20076e-6 0 -1 2.82713e-6 0 -1 -2.44835e-6 0 -1 5.97443e-7 0.2588133 -0.004769504 -0.9659156 -0.1181581 0.004278957 -0.9929857 -0.09988021 -0.9949995 -7.36524e-6 0 -1 8.91445e-7 -0.099904 -0.9949971 0 -0.2588087 -0.005666494 -0.9659121 -0.5656769 0.005013823 -0.8246118 -0.7070957 -0.006233513 -0.7070905 -0.8845835 0.005488634 -0.4663497 -0.9659051 -0.006516814 -0.2588145 0 -1 2.0696e-6 -0.9999842 0.005631566 0 -0.965905 -0.006516873 0.2588152 0 -1 -1.19489e-6 0 -1 -5.17401e-7 -0.8845835 0.005488634 0.4663497 -0.7070926 -0.006233334 0.7070935 0 -1 1.41356e-6 0.7491443 0.001776695 0.6624046 0.9659255 -0.001937091 0.258813 0.7070997 -0.003531515 0.7071051 0.9710063 0 0.239054 -0.09985876 -0.9950016 0 -0.09982711 -0.9950048 0 0.3561811 0.003204703 0.9344115 -0.09988588 -0.9949989 0 -0.09985983 -0.9950016 0 0.2588192 -0.004769325 0.965914 -0.1181608 0.004279017 0.9929853 -0.09988605 -0.9949989 0 -0.09987926 -0.9949996 0 -0.09987807 -0.9949997 0 0.749144 0.001776695 -0.6624048 0.7071006 -0.003531575 -0.7071043 0.3561838 0.003204703 -0.9344105 -0.1181556 0.004279017 -0.992986 0.2588133 -0.004769325 -0.9659156 -0.2588145 -0.005666613 -0.9659104 -0.5656759 0.005013406 -0.8246124 -0.09990441 -0.994997 0 0.9659256 -0.001937866 -0.2588127 0 -1 -2.44836e-6 -0.7070934 -0.006233513 -0.7070928 -0.09990453 -0.994997 0 -0.9999842 0.005631566 0 -0.7070941 -0.006233513 0.7070919 0.7491438 0.001776695 0.662405 0.7071013 -0.003531515 0.7071034 0.2588133 -0.004769325 0.9659156 0.3561849 0.003204643 0.93441 -0.258813 -0.005666375 0.9659109 -0.5656766 0.005013823 0.824612 -0.1181582 0.004279136 0.9929857 -0.09988677 -0.9949988 0 -0.099886 -0.9949989 0 -0.09987914 -0.9949996 0 -0.09987831 -0.9949997 0 -0.0998587 -0.9950017 0 -0.09985882 -0.9950016 0 0.7491437 0.001776695 -0.6624052 0.7071009 -0.003531575 -0.7071039 0.3561837 0.003204703 -0.9344105 -0.1181573 0.004279136 -0.9929857 0.2588148 -0.004769325 -0.9659153 -0.2588137 -0.005666375 -0.9659107 -0.5656766 0.005013823 -0.824612 -0.09990441 -0.994997 0 -0.0999037 -0.9949972 0 -0.8845831 0.005489468 -0.4663504 -0.7070938 -0.006233513 -0.7070924 0 -1 -2.44836e-6 -0.9659051 -0.006516456 -0.2588149 0 -1 2.0696e-6 0 -1 5.97444e-7 -0.9999842 0.005630731 0 2.7376e-7 0 1 -0.1478552 -0.989009 0 -0.1478555 -0.989009 0 -0.1478551 -0.9890091 0 -0.7930344 -0.6091769 0 0.7930447 -0.6091635 0 0.7930441 -0.6091644 0 -0.1478552 -0.989009 0 -0.1478549 -0.9890091 0 -0.5222362 -0.8528009 0 -0.5222356 -0.8528013 0 0.5222359 -0.8528012 0 0.5222356 -0.8528013 0 0.1821237 -0.9832757 0 -0.1821232 -0.9832758 0 -0.1821238 -0.9832756 0 0.1821238 -0.9832756 0 -0.7930342 -0.6091772 0 -0.5222361 -0.852801 0 -0.5222352 -0.8528015 0 0.5222357 -0.8528013 0 -0.1821236 -0.9832757 0 -0.1821237 -0.9832757 0 0.1821237 -0.9832757 0 0.1821238 -0.9832756 0 0 -1 -1.10773e-6 -0.8845832 0.005489051 0.4663502 -0.9659051 -0.006516098 0.2588149 -0.7070932 -0.006233155 0.707093 0 -1 -1.19489e-6 -0.5656776 0.005013406 0.8246113 -0.09990322 -0.9949972 0 -0.2588134 -0.005666375 0.9659108 0.2588145 -0.004769504 0.9659154 0.7071007 -0.003531515 0.7071041 0.3561835 0.003204703 0.9344105 0.7491438 0.001776695 0.662405 0.9659256 -0.001937091 0.2588127 -0.09987312 -0.9950003 -1.24222e-5 -0.09988409 -0.9949991 4.76129e-6 -0.0998829 -0.9949992 5.25762e-6 -0.1181569 0.004279136 0.9929857 -0.09988003 -0.9949995 6.6163e-6 -0.09987437 -0.9950001 -1.18377e-5 -0.09988838 -0.9949987 0 0.9710064 0 0.2390535 0.9659256 -0.001937091 -0.2588129 0.9710065 0 -0.2390533 -0.09983056 -0.9950044 0 0.9710065 0 0.2390533 -0.09982711 -0.9950048 0 -0.09983056 -0.9950044 0 0.0165283 -0.1644075 0.986254 0.0166673 0 0.9998612 -0.99986 9.70127e-6 0.01673996 -0.9998598 -9.29707e-6 0.0167495 -0.3417432 0.9397934 0 0 1 3.02325e-7 -0.3417428 0.9397937 0 0 0.2425358 0.9701425 -0.9701425 0.2425357 0 -0.9701426 0.2425357 0 0 -1 2.21339e-7 1 2.87096e-4 0 0.9940726 -8.53514e-4 0.1087157 0.9940755 -8.52847e-4 -0.1086888 1 2.87153e-4 0 0.9940727 -8.53508e-4 0.1087149 0.9659111 -0.005623459 0.258813 0.9163908 0.004698991 0.4002573 0.09279829 -0.9956851 0 0.9659112 -0.005623459 -0.2588127 0.9163909 0.004698991 -0.4002571 0.09279847 -0.995685 0 0.6150642 0.004068195 0.7884666 0.7070984 -0.005058169 0.7070972 0.09276264 -0.9956883 0 0 -1 2.98722e-7 0 -1 -1.81091e-6 0.2588143 -0.004357993 0.9659174 0.1653665 0.003291964 0.9862267 0.09278362 -0.9956863 0 0.09276252 -0.9956883 0 -0.2588156 -0.003511965 0.9659204 -0.3241474 0.002356767 0.9460037 -0.707105 -0.00250554 0.7071042 -0.9659256 -0.001332402 0.2588167 -0.7354725 0.001259326 0.6775534 0.09276032 -0.9956886 0 0.09283125 -0.9956819 0 0.09276032 -0.9956886 0 0.09278351 -0.9956864 0 0.09283125 -0.9956819 0 0.6150627 0.004068195 -0.7884678 0.2588158 -0.004357993 -0.9659169 0.1653673 0.003291964 -0.9862266 -0.3241477 0.002356648 -0.9460036 -0.2588163 -0.003512024 -0.9659202 -0.7071046 -0.0025056 -0.7071046 -0.7354726 0.001259446 -0.6775534 0 -1 -1.63224e-6 0.707098 -0.005058109 -0.7070975 0 -1 -2.98721e-7 -0.9659256 -0.001332402 -0.2588166 0 -1 2.06961e-6 0.9659112 -0.005623459 0.2588127 0 -1 -1.8109e-6 -0.9693649 0 0.2456252 -0.9659256 -0.001332402 0.2588167 -0.969365 0 -0.245625 0 -1 2.98721e-7 0.7070976 -0.005058109 0.707098 0.9163911 0.004698991 0.4002566 0.09279847 -0.9956849 0 0.6150631 0.004068136 0.7884675 0.09276574 -0.995688 3.82153e-6 0.2588147 -0.004358053 0.9659172 -0.7071044 -0.0025056 0.7071048 -0.7354723 0.001259386 0.6775537 -0.3241484 0.002356708 0.9460034 -0.258816 -0.003512084 0.9659203 0.1653673 0.003291904 0.9862266 0.09278297 -0.9956864 0 0.0928542 -0.9956798 -7.41137e-5 0.09278786 -0.9956859 6.50514e-6 0.09277486 -0.9956872 -1.32549e-5 0.09280061 -0.9956848 1.51117e-5 0.09285706 -0.9956795 0 0.09278243 -0.9956865 0 0.09285712 -0.9956794 0 -0.9693651 0 -0.2456248 0.09278243 -0.9956865 0 0.09285706 -0.9956794 0 -0.9659256 -0.001332402 -0.2588164 0 -1 2.0696e-6 -0.7071042 -0.002501964 -0.707105 -0.7354479 0.001259624 -0.6775802 0 -1 -1.63224e-6 0 -1 -2.98721e-7 0.9659113 -0.005623459 -0.2588123 0.7070968 -0.005058169 -0.7070987 0.9163908 0.004698991 -0.4002572 0.09279841 -0.995685 0 0.09279853 -0.9956849 0 0.9940755 -8.52625e-4 0.1086896 0.9659113 -0.00562334 0.2588123 0.9163907 0.004699051 0.4002575 0.6150625 0.004068136 0.788468 0.7070968 -0.005058169 0.7070987 0.09276252 -0.9956883 0 0.2588158 -0.004357993 0.9659169 0.1653689 0.003291785 0.9862264 0.09276258 -0.9956883 0 0.09278362 -0.9956863 0 -0.2588185 -0.003512144 0.9659197 -0.3241953 0.002360999 0.9459872 -0.7071042 -0.002501964 0.707105 -0.9659256 -0.001332402 0.2588164 -0.7354483 0.001259624 0.6775798 0.09276044 -0.9956884 0 0.09276044 -0.9956884 0 0.09283113 -0.995682 0 0.09278357 -0.9956863 0 0.09283113 -0.9956819 0 0.6150634 0.004068136 -0.7884672 0.2588129 -0.004357993 -0.9659177 0.1653696 0.003291785 -0.9862262 -0.3241966 0.002360999 -0.9459868 -0.2588156 -0.003512144 -0.9659205 0.092857 -0.9956796 0 -0.9693646 0 0.2456265 -0.9693652 0 -0.2456241 0.09279972 -0.9956849 -1.48586e-5 -0.9659254 -0.001332402 -0.2588172 -0.7354469 0.001259505 -0.6775813 0.09277552 -0.9956871 1.37461e-5 0.0927878 -0.995686 -7.21064e-6 -0.3241968 0.002361238 -0.9459868 -0.7071058 -0.002501785 -0.7071034 0.09285873 -0.9956794 8.81543e-5 -0.2588097 -0.003512144 -0.9659219 0 -1 -1.63224e-6 0.1653624 0.003291785 -0.9862274 0.09278309 -0.9956864 0 0.2588129 -0.004358053 -0.9659177 0.6150631 0.004068195 -0.7884675 0.7070984 -0.005058169 -0.7070972 0.9659115 -0.005623459 -0.2588115 0.916391 0.004698991 -0.4002569 0.09276592 -0.995688 -4.96629e-6 0.09279847 -0.995685 0 0.9940726 -8.5352e-4 -0.1087164 0.01650315 -0.1643926 0.986257 0 -0.164399 0.9863939 0 -0.164399 0.986394 0.0165475 -0.1643989 0.9862551 0.0167756 0 0.9998593 0 0 1 1 -2.91038e-6 0 1 6.32688e-6 0 0 -0.1643984 -0.9863941 0 -0.1643989 -0.986394 0.01654714 -0.1644054 0.9862541 0.01645976 -0.1643932 0.9862576 0.01677387 0 0.9998593 0.9998599 6.96169e-6 -0.01674151 -0.2588115 -0.005666613 0.9659113 -0.5656779 0.005013406 0.8246111 0 1 2.58781e-6</float_array>
          <technique_common>
            <accessor source="#shape0_022-mesh-normals-array" count="430" stride="3">
              <param name="X" type="float"/>
              <param name="Y" type="float"/>
              <param name="Z" type="float"/>
            </accessor>
          </technique_common>
        </source>
        <vertices id="shape0_022-mesh-vertices">
          <input semantic="POSITION" source="#shape0_022-mesh-positions"/>
        </vertices>
        <triangles material="Material_014-material" count="994">
          <input semantic="VERTEX" source="#shape0_022-mesh-vertices" offset="0"/>
          <input semantic="NORMAL" source="#shape0_022-mesh-normals" offset="1"/>
          <p>0 0 1 0 2 0 3 1 0 1 4 1 0 1 2 1 4 1 0 2 5 3 6 4 0 5 3 5 5 5 6 5 1 5 0 5 1 6 7 6 2 6 7 7 1 7 6 7 4 5 2 5 7 5 7 5 8 5 4 5 8 8 7 8 9 8 9 7 7 7 6 7 9 7 6 7 10 7 6 9 11 9 10 9 11 10 6 10 5 10 10 11 12 11 9 11 12 12 10 12 13 12 10 13 11 13 13 13 13 14 11 14 5 14 14 15 13 15 15 15 13 16 5 16 15 16 12 17 13 17 16 17 13 18 14 18 17 18 13 19 17 19 16 19 3 5 15 5 5 5 14 7 15 7 3 7 3 20 4 20 18 20 18 7 14 7 3 7 19 5 4 5 20 5 4 5 8 5 20 5 18 1 4 1 21 1 4 1 19 1 21 1 22 21 19 21 23 21 19 5 20 5 23 5 21 22 19 22 22 22 24 22 21 22 22 22 18 5 21 5 25 5 21 23 24 23 25 23 26 20 24 20 27 20 24 20 22 20 27 20 28 5 24 5 26 5 24 5 28 5 25 5 18 5 25 5 29 5 30 22 25 22 28 22 29 1 25 1 30 1 26 5 31 5 28 5 32 22 30 22 28 22 32 20 28 20 33 20 28 20 31 20 33 20 34 1 29 1 30 1 34 5 30 5 32 5 33 5 34 5 32 5 34 7 33 7 29 7 33 7 31 7 29 7 35 5 29 5 36 5 35 24 18 24 29 24 36 25 29 25 31 25 26 24 36 24 31 24 36 7 26 7 37 7 36 20 37 20 38 20 38 5 39 5 36 5 36 5 39 5 35 5 16 26 37 26 40 26 26 27 40 27 37 27 37 20 16 20 38 20 39 7 38 7 17 7 38 28 16 28 17 28 39 1 17 1 35 1 14 29 41 29 17 29 17 1 41 1 35 1 18 7 35 7 14 7 35 30 41 30 14 30 40 31 12 31 16 31 40 32 42 32 12 32 40 33 27 34 42 35 40 20 26 20 27 20 12 36 42 36 43 36 12 37 43 37 9 37 42 38 44 38 43 38 44 22 42 22 45 22 42 39 27 39 45 39 22 20 45 20 27 20 44 5 45 5 22 5 46 40 44 40 22 40 46 5 47 5 44 5 47 5 43 5 44 5 48 5 9 5 43 5 43 5 47 5 48 5 8 41 9 41 49 41 9 42 48 42 49 42 50 0 51 0 48 0 51 6 49 6 48 6 50 1 48 1 47 1 49 5 52 5 8 5 52 5 49 5 53 5 53 7 49 7 54 7 49 7 51 7 54 7 54 5 51 5 50 5 55 1 50 1 47 1 50 5 56 5 54 5 50 5 55 5 56 5 53 7 54 7 57 7 54 9 58 9 57 9 58 43 54 43 56 43 55 5 59 5 56 5 60 44 56 44 59 44 60 14 58 14 56 14 55 20 47 20 61 20 61 7 62 7 55 7 62 7 59 7 55 7 62 16 60 16 59 16 61 7 63 7 62 7 63 30 64 30 62 30 60 18 62 18 65 18 62 45 64 45 65 45 65 1 64 1 63 1 66 1 65 1 63 1 63 5 67 5 68 5 63 46 61 46 67 46 68 5 66 5 63 5 60 47 65 47 69 47 66 7 70 7 65 7 70 28 69 28 65 28 70 5 66 5 68 5 68 7 71 7 72 7 68 20 72 20 70 20 71 46 68 46 73 46 68 5 67 5 73 5 72 20 69 20 70 20 74 48 75 48 69 48 75 49 60 49 69 49 69 26 72 26 74 26 71 50 74 50 72 50 74 51 76 51 75 51 74 52 77 53 76 54 74 20 71 20 77 20 75 55 76 55 78 55 57 56 75 56 53 56 75 57 78 57 53 57 75 58 57 58 60 58 57 13 58 13 60 13 79 5 53 5 78 5 79 59 80 59 53 59 80 60 52 60 53 60 78 5 81 5 79 5 82 0 83 0 79 0 83 6 80 6 79 6 82 1 79 1 81 1 52 61 80 61 84 61 84 7 80 7 85 7 80 7 83 7 85 7 85 5 83 5 82 5 86 1 82 1 81 1 82 5 87 5 85 5 82 5 86 5 87 5 84 7 85 7 88 7 85 9 89 9 88 9 89 43 85 43 87 43 86 5 90 5 87 5 91 62 87 62 90 62 91 14 89 14 87 14 86 20 81 20 92 20 92 7 93 7 86 7 93 7 90 7 86 7 93 62 91 62 90 62 92 7 94 7 93 7 94 63 95 63 93 63 91 64 93 64 96 64 93 65 95 65 96 65 96 1 95 1 94 1 91 66 96 66 97 66 98 7 99 7 96 7 99 28 97 28 96 28 98 1 96 1 94 1 100 67 101 67 97 67 101 68 91 68 97 68 97 69 102 69 100 69 102 20 97 20 99 20 103 20 102 20 99 20 103 5 99 5 98 5 103 5 98 5 94 5 103 7 104 7 102 7 103 70 105 70 104 70 94 71 105 71 103 71 104 72 100 72 102 72 100 73 106 74 101 75 100 76 107 77 106 78 107 20 100 20 104 20 104 20 108 20 107 20 108 5 104 5 109 5 104 5 105 5 109 5 94 5 110 5 105 5 111 7 105 7 110 7 109 20 105 20 111 20 110 5 94 5 92 5 92 5 112 5 110 5 113 1 110 1 114 1 110 1 112 1 114 1 113 7 111 7 110 7 115 20 109 20 111 20 111 5 113 5 115 5 113 5 114 5 115 5 115 22 114 22 109 22 114 22 112 22 109 22 92 5 116 5 112 5 116 5 109 5 112 5 116 79 108 79 109 79 108 22 116 22 117 22 116 22 118 22 117 22 92 1 81 1 116 1 81 1 118 1 116 1 119 5 118 5 120 5 121 5 118 5 119 5 121 5 117 5 118 5 118 5 81 5 120 5 81 5 78 5 120 5 120 5 122 5 119 5 76 80 120 80 78 80 120 22 76 22 122 22 76 81 77 81 122 81 119 20 122 20 77 20 71 20 123 20 77 20 123 20 119 20 77 20 71 5 73 5 124 5 124 5 123 5 71 5 123 22 125 22 119 22 125 5 123 5 126 5 123 5 124 5 126 5 127 22 128 22 124 22 128 22 126 22 124 22 127 20 124 20 129 20 124 20 73 20 129 20 129 7 73 7 67 7 130 7 129 7 67 7 129 5 130 5 127 5 130 5 128 5 127 5 130 1 67 1 128 1 67 1 126 1 128 1 61 5 125 5 126 5 61 5 126 5 67 5 61 1 47 1 125 1 47 1 46 1 125 1 125 22 46 22 119 22 23 5 46 5 22 5 23 5 119 5 46 5 119 5 23 5 121 5 121 7 23 7 131 7 132 82 23 82 133 82 23 83 20 83 133 83 131 1 23 1 132 1 134 7 132 7 135 7 132 7 133 7 135 7 134 1 131 1 132 1 136 84 133 84 137 84 136 20 138 20 133 20 138 20 135 20 133 20 20 85 137 85 133 85 138 5 139 5 135 5 139 5 140 5 135 5 134 7 135 7 141 7 135 7 140 7 141 7 141 7 142 7 134 7 131 84 134 84 142 84 140 7 143 7 141 7 144 84 141 84 143 84 144 20 145 20 141 20 145 20 142 20 141 20 143 20 140 20 139 20 146 20 143 20 139 20 146 84 144 84 143 84 144 7 146 7 145 7 131 7 145 7 147 7 146 86 148 86 145 86 145 7 148 7 147 7 145 84 131 84 142 84 131 7 147 7 149 7 147 7 150 7 149 7 151 87 147 87 148 87 147 1 151 1 150 1 151 5 152 5 150 5 152 5 149 5 150 5 153 7 152 7 151 7 151 7 154 7 153 7 151 7 155 7 154 7 155 88 151 88 148 88 153 7 156 7 152 7 152 1 156 1 149 1 153 89 157 89 158 89 154 7 159 7 153 7 159 7 157 7 153 7 156 90 153 90 158 90 160 84 156 84 158 84 156 1 160 1 149 1 157 91 161 91 158 91 160 7 158 7 161 7 160 7 161 7 162 7 162 7 163 7 160 7 163 7 149 7 160 7 164 84 161 84 165 84 164 84 166 84 161 84 166 84 162 84 161 84 165 84 161 84 157 84 165 84 167 84 164 84 167 84 168 84 164 84 169 22 170 22 164 22 170 22 166 22 164 22 169 1 164 1 171 1 164 1 168 1 171 1 170 84 169 84 172 84 169 84 171 84 172 84 166 20 170 20 173 20 170 92 174 92 173 92 174 84 170 84 175 84 170 93 172 93 175 93 171 84 176 84 172 84 176 84 177 84 172 84 177 84 175 84 172 84 174 84 175 84 177 84 174 20 178 20 173 20 174 7 179 7 178 7 177 84 179 84 174 84 179 84 177 84 176 84 180 84 176 84 171 84 179 94 176 94 180 94 179 95 181 95 178 95 180 84 182 84 179 84 182 20 183 20 179 20 183 20 181 20 179 20 178 96 183 96 184 96 184 84 173 84 178 84 178 97 181 97 183 97 183 98 185 98 184 98 183 99 186 99 185 99 182 7 187 7 183 7 187 100 186 100 183 100 180 84 187 84 182 84 188 7 180 7 171 7 180 1 188 1 187 1 188 1 186 1 187 1 186 101 189 101 185 101 186 102 188 102 189 102 189 103 188 103 171 103 171 104 168 105 189 106 185 107 189 107 190 107 189 108 191 108 190 108 168 7 191 7 189 7 168 84 167 84 192 84 168 84 190 84 191 84 192 84 190 84 168 84 185 109 190 109 193 109 193 84 190 84 194 84 190 84 192 84 194 84 195 110 196 110 192 110 196 111 194 111 192 111 195 112 192 112 167 112 165 84 197 84 167 84 198 113 195 113 167 113 167 22 197 22 198 22 199 84 165 84 157 84 165 20 200 20 198 20 198 20 197 20 165 20 200 22 165 22 199 22 195 20 198 20 201 20 200 20 202 20 198 20 202 20 201 20 198 20 203 22 200 22 199 22 202 84 200 84 204 84 200 114 203 114 205 114 200 84 205 84 204 84 202 7 206 7 201 7 202 84 204 84 207 84 207 84 206 84 202 84 207 84 204 84 205 84 203 84 208 84 205 84 208 84 209 84 205 84 209 84 207 84 205 84 203 1 199 1 208 1 199 1 210 1 208 1 211 103 212 103 208 103 212 7 213 7 208 7 208 115 210 116 211 117 213 84 209 84 208 84 206 118 209 118 213 118 206 84 207 84 209 84 213 1 212 1 214 1 213 84 215 84 206 84 213 84 214 84 215 84 216 102 212 102 211 102 212 1 216 1 214 1 215 7 214 7 217 7 214 119 216 119 217 119 215 20 217 20 206 20 201 120 217 120 195 120 217 121 218 121 195 121 217 122 216 122 218 122 201 97 219 97 217 97 217 20 219 20 206 20 216 123 211 123 218 123 220 124 218 124 221 124 218 125 222 125 221 125 218 126 211 126 222 126 218 127 220 127 195 127 220 128 196 128 195 128 220 7 221 7 196 7 194 84 221 84 223 84 221 84 210 84 223 84 221 84 222 84 210 84 221 7 194 7 196 7 222 84 224 84 210 84 211 108 224 108 222 108 210 7 224 7 211 7 225 84 210 84 199 84 210 84 225 84 223 84 199 84 157 84 225 84 226 7 225 7 159 7 225 7 157 7 159 7 223 129 225 129 227 129 225 20 226 20 227 20 226 5 159 5 227 5 159 5 228 5 227 5 159 20 154 20 228 20 223 20 227 20 229 20 227 7 228 7 229 7 228 7 230 7 229 7 154 20 230 20 228 20 155 7 231 7 154 7 154 84 231 84 230 84 231 84 229 84 230 84 229 130 148 130 223 130 231 20 155 20 229 20 229 20 155 20 148 20 232 20 148 20 146 20 233 20 148 20 232 20 223 20 148 20 233 20 234 20 146 20 139 20 146 20 235 20 232 20 146 20 20 20 236 20 234 20 20 20 146 20 146 20 236 20 235 20 234 7 139 7 138 7 234 20 137 20 20 20 136 7 234 7 138 7 234 84 136 84 137 84 20 131 8 131 236 131 237 132 238 132 8 132 8 133 239 133 237 133 52 134 239 134 8 134 238 135 240 135 8 135 240 136 236 136 8 136 241 137 240 137 238 137 238 138 242 138 241 138 238 139 237 139 242 139 241 140 243 140 240 140 243 141 244 141 240 141 240 142 244 142 236 142 245 143 243 143 241 143 241 144 246 144 245 144 246 145 241 145 242 145 244 146 243 146 247 146 245 22 247 22 243 22 247 147 248 147 244 147 244 148 248 148 236 148 235 149 236 149 249 149 236 22 250 22 249 22 248 150 250 150 236 150 247 151 245 151 248 151 245 152 250 152 248 152 250 153 245 153 246 153 246 154 249 154 250 154 246 155 251 155 249 155 251 156 246 156 242 156 251 157 252 157 249 157 235 22 249 22 252 22 252 158 251 158 253 158 254 159 253 159 251 159 251 160 242 160 254 160 253 161 255 161 252 161 252 22 256 22 235 22 252 22 255 22 256 22 253 162 257 162 255 162 254 22 258 22 253 22 258 163 257 163 253 163 254 164 259 164 260 164 254 165 242 165 259 165 260 166 258 166 254 166 242 167 237 167 259 167 260 168 259 168 261 168 261 169 259 169 237 169 258 170 260 170 262 170 263 171 262 171 260 171 260 172 261 172 263 172 264 173 258 173 262 173 264 22 257 22 258 22 264 174 262 174 265 174 263 175 266 175 262 175 266 176 267 176 262 176 267 177 265 177 262 177 268 178 263 178 261 178 268 179 269 179 263 179 269 180 266 180 263 180 270 181 267 181 266 181 266 182 269 182 270 182 270 183 271 183 267 183 271 184 272 184 267 184 267 185 272 185 265 185 271 22 270 22 269 22 271 143 269 143 268 143 261 186 273 186 268 186 268 187 274 187 271 187 274 145 268 145 273 145 272 188 271 188 274 188 274 154 256 154 272 154 255 22 272 22 256 22 272 189 255 189 265 189 274 155 275 155 256 155 275 156 274 156 273 156 275 190 276 190 256 190 256 22 276 22 235 22 276 158 275 158 277 158 278 159 277 159 275 159 275 160 273 160 278 160 277 161 279 161 276 161 277 191 280 191 279 191 278 22 281 22 277 22 281 163 280 163 277 163 278 192 282 192 283 192 278 165 273 165 282 165 283 193 281 193 278 193 284 194 281 194 285 194 281 195 283 195 285 195 284 22 280 22 281 22 286 196 280 196 284 196 280 197 286 197 279 197 284 198 285 198 286 198 287 199 285 199 283 199 287 200 288 200 285 200 288 201 289 201 285 201 289 202 286 202 285 202 283 203 290 203 287 203 283 204 282 204 290 204 291 205 287 205 290 205 291 206 292 206 287 206 292 207 288 207 287 207 293 208 289 208 288 208 288 209 292 209 293 209 293 210 294 210 289 210 294 211 295 211 289 211 289 212 295 212 286 212 295 213 279 213 286 213 296 214 297 214 295 214 295 215 294 215 296 215 276 22 295 22 297 22 276 22 279 22 295 22 294 143 292 143 291 143 294 22 293 22 292 22 291 216 296 216 294 216 296 217 298 217 297 217 298 218 296 218 299 218 296 219 291 219 299 219 298 220 300 220 297 220 297 22 301 22 276 22 297 22 300 22 301 22 276 22 301 22 235 22 235 5 301 5 302 5 232 20 235 20 303 20 235 221 302 221 303 221 304 222 302 222 305 222 304 223 306 223 302 223 306 224 303 224 302 224 301 5 305 5 302 5 307 22 303 22 308 22 303 22 306 22 308 22 307 20 232 20 303 20 309 225 306 225 304 225 306 20 309 20 310 20 310 20 308 20 306 20 307 22 308 22 311 22 311 226 308 226 310 226 312 22 307 22 311 22 232 84 307 84 312 84 313 22 312 22 311 22 313 22 314 22 312 22 314 22 315 22 312 22 316 1 312 1 315 1 316 84 232 84 312 84 317 22 315 22 314 22 317 1 314 1 318 1 318 227 314 227 319 227 314 226 313 226 319 226 305 224 315 224 317 224 316 1 315 1 301 1 315 1 305 1 301 1 305 228 317 228 320 228 320 229 304 229 305 229 311 22 320 22 313 22 311 22 304 22 320 22 313 20 320 20 321 20 321 225 320 225 317 225 322 1 304 1 311 1 309 225 304 225 322 225 311 1 323 1 322 1 310 226 323 226 311 226 323 1 324 1 322 1 324 1 325 1 322 1 322 230 326 230 309 230 326 231 322 231 325 231 309 20 326 20 310 20 310 232 327 232 323 232 326 20 327 20 310 20 327 233 324 233 323 233 328 1 325 1 324 1 328 234 324 234 327 234 329 235 325 235 328 235 329 236 326 236 325 236 329 20 327 20 326 20 328 237 327 237 329 237 330 1 317 1 318 1 321 238 317 238 330 238 330 1 318 1 331 1 330 239 332 239 321 239 330 240 331 240 332 240 318 1 333 1 331 1 333 241 318 241 334 241 318 241 319 241 334 241 333 1 335 1 331 1 336 242 331 242 335 242 331 243 336 243 332 243 321 20 332 20 334 20 332 20 336 20 334 20 319 20 321 20 334 20 319 20 313 20 321 20 335 244 334 244 336 244 335 245 333 245 334 245 300 246 337 246 301 246 301 1 338 1 316 1 301 1 337 1 338 1 339 247 340 247 300 247 300 248 298 248 339 248 340 22 337 22 300 22 339 249 341 249 340 249 342 250 339 250 298 250 342 22 343 22 339 22 343 163 341 163 339 163 341 251 344 251 340 251 340 252 344 252 337 252 344 253 341 253 345 253 345 22 341 22 343 22 345 254 343 254 346 254 347 255 343 255 342 255 343 256 347 256 346 256 342 257 348 257 347 257 342 258 299 258 348 258 298 160 299 160 342 160 52 259 347 259 348 259 52 260 337 260 347 260 337 261 346 261 347 261 345 262 346 262 344 262 344 263 346 263 337 263 337 1 349 1 338 1 337 1 52 1 349 1 349 5 52 5 84 5 348 264 350 264 52 264 350 265 239 265 52 265 299 266 350 266 348 266 290 267 299 267 291 267 290 268 350 268 299 268 350 269 290 269 239 269 261 268 239 268 273 268 273 270 239 270 282 270 290 271 282 271 239 271 239 272 261 272 237 272 349 5 84 5 351 5 88 273 101 273 84 273 101 57 351 57 84 57 351 5 352 5 349 5 101 274 106 274 351 274 106 80 352 80 351 80 101 275 88 275 91 275 88 276 89 276 91 276 352 5 117 5 349 5 352 5 353 5 117 5 352 22 106 22 353 22 349 5 117 5 121 5 349 277 121 277 354 277 349 1 354 1 338 1 108 20 117 20 107 20 117 20 353 20 107 20 106 81 107 81 353 81 355 278 338 278 356 278 338 7 357 7 356 7 357 84 338 84 358 84 338 84 359 84 358 84 354 1 359 1 338 1 338 1 355 1 316 1 356 1 357 1 360 1 357 1 358 1 360 1 358 7 354 7 361 7 358 7 359 7 354 7 358 7 362 7 360 7 361 7 362 7 358 7 360 84 362 84 356 84 362 20 361 20 363 20 362 84 363 84 356 84 121 279 361 279 354 279 361 20 121 20 363 20 363 7 121 7 131 7 364 7 365 7 363 7 363 7 149 7 364 7 363 7 131 7 149 7 365 7 356 7 363 7 149 7 163 7 364 7 162 7 366 7 163 7 364 20 163 20 367 20 163 20 368 20 367 20 368 84 163 84 366 84 366 280 162 280 369 280 369 84 368 84 366 84 367 7 368 7 369 7 370 7 367 7 369 7 364 5 367 5 370 5 162 280 371 280 369 280 370 7 369 7 372 7 369 7 371 7 372 7 372 7 373 7 370 7 374 5 364 5 370 5 370 20 365 20 374 20 370 281 373 281 365 281 373 282 355 282 365 282 373 1 372 1 355 1 364 7 374 7 365 7 365 7 355 7 356 7 372 1 375 1 355 1 375 1 376 1 355 1 355 1 376 1 316 1 316 22 377 22 378 22 316 283 376 283 377 283 316 22 379 22 232 22 378 22 379 22 316 22 378 284 377 284 380 284 377 285 381 285 380 285 376 22 381 22 377 22 378 286 380 286 382 286 382 22 383 22 378 22 378 22 383 22 379 22 384 287 379 287 385 287 379 288 383 288 385 288 232 22 379 22 384 22 383 289 386 289 385 289 386 290 383 290 387 290 387 291 383 291 382 291 380 292 388 292 382 292 388 293 389 293 382 293 387 294 382 294 389 294 390 295 387 295 391 295 390 296 386 296 387 296 389 297 391 297 387 297 386 298 392 298 393 298 386 22 390 22 392 22 393 299 385 299 386 299 391 300 394 300 390 300 394 22 395 22 390 22 390 22 395 22 392 22 394 301 391 301 396 301 396 302 391 302 397 302 391 303 389 303 397 303 395 304 394 304 396 304 395 305 396 305 398 305 398 306 392 306 395 306 393 307 392 307 399 307 392 308 398 308 399 308 399 309 398 309 400 309 401 310 398 310 396 310 398 311 401 311 400 311 402 312 396 312 397 312 402 313 401 313 396 313 403 314 397 314 389 314 403 315 404 315 397 315 404 316 402 316 397 316 405 317 401 317 402 317 402 318 404 318 405 318 405 319 406 319 401 319 406 320 400 320 401 320 405 22 403 22 388 22 405 22 404 22 403 22 388 321 406 321 405 321 389 322 388 322 403 322 406 323 388 323 380 323 400 324 406 324 407 324 407 325 406 325 380 325 381 326 408 326 380 326 407 327 380 327 408 327 409 328 407 328 410 328 407 329 411 329 410 329 409 330 400 330 407 330 408 331 411 331 407 331 412 332 408 332 413 332 408 333 381 333 413 333 408 22 412 22 411 22 413 334 381 334 376 334 412 335 413 335 414 335 414 336 413 336 376 336 414 337 415 337 412 337 415 22 416 22 412 22 412 22 416 22 411 22 417 338 411 338 416 338 411 339 417 339 410 339 416 340 418 340 417 340 416 341 415 341 418 341 415 342 414 342 418 342 418 343 414 343 376 343 417 344 418 344 376 344 417 345 376 345 375 345 410 346 417 346 375 346 409 347 410 347 375 347 419 348 400 348 409 348 409 349 375 349 419 349 419 350 399 350 400 350 419 328 393 328 399 328 419 351 420 351 393 351 419 352 375 352 223 352 419 353 421 353 420 353 223 349 421 349 419 349 420 354 422 354 393 354 393 355 422 355 385 355 423 356 422 356 424 356 422 357 420 357 424 357 425 358 422 358 423 358 422 359 425 359 385 359 384 286 385 286 426 286 385 360 425 360 426 360 427 361 425 361 428 361 425 362 427 362 426 362 423 22 428 22 425 22 426 22 429 22 384 22 430 363 426 363 427 363 430 364 429 364 426 364 384 22 431 22 232 22 384 22 429 22 431 22 431 365 429 365 432 365 429 366 433 366 432 366 433 367 429 367 430 367 434 368 430 368 435 368 434 369 433 369 430 369 427 370 435 370 430 370 433 298 436 298 437 298 433 22 434 22 436 22 437 299 432 299 433 299 435 371 438 371 434 371 438 22 439 22 434 22 434 22 439 22 436 22 438 372 435 372 440 372 427 373 441 373 435 373 441 374 440 374 435 374 439 375 438 375 440 375 439 376 440 376 442 376 442 377 436 377 439 377 437 378 436 378 443 378 436 379 442 379 443 379 443 380 442 380 420 380 442 381 424 381 420 381 424 382 442 382 440 382 441 383 444 383 440 383 444 384 424 384 440 384 428 385 441 385 427 385 428 386 445 386 441 386 445 387 444 387 441 387 423 388 424 388 444 388 444 389 445 389 423 389 423 22 445 22 428 22 420 390 421 390 443 390 421 391 437 391 443 391 421 392 446 392 437 392 223 393 446 393 421 393 446 394 447 394 437 394 437 355 447 355 432 355 447 395 446 395 448 395 448 396 446 396 223 396 193 84 194 84 223 84 193 84 223 84 375 84 448 397 223 397 233 397 449 398 448 398 450 398 449 399 447 399 448 399 450 400 448 400 233 400 450 401 451 401 449 401 449 22 452 22 453 22 449 22 451 22 452 22 453 402 447 402 449 402 451 403 450 403 454 403 454 404 450 404 233 404 452 405 451 405 454 405 452 406 454 406 455 406 455 407 453 407 452 407 432 408 453 408 456 408 453 409 455 409 456 409 447 359 453 359 432 359 233 410 455 410 454 410 233 411 456 411 455 411 457 412 432 412 456 412 457 22 456 22 233 22 457 287 431 287 432 287 232 22 431 22 457 22 457 22 233 22 232 22 458 84 459 84 375 84 375 84 372 84 458 84 460 84 461 84 375 84 461 84 193 84 375 84 375 84 459 84 460 84 460 7 459 7 462 7 459 413 463 413 462 413 458 84 463 84 459 84 464 414 462 414 465 414 462 415 466 415 465 415 464 7 467 7 462 7 467 7 460 7 462 7 463 416 466 416 462 416 466 113 463 113 458 113 468 20 469 20 466 20 469 20 465 20 466 20 468 417 466 417 458 417 468 22 458 22 470 22 372 84 471 84 458 84 471 84 470 84 458 84 470 20 469 20 468 20 469 20 470 20 471 20 465 84 469 84 472 84 471 20 473 20 469 20 473 418 474 418 469 418 474 20 472 20 469 20 372 84 371 84 471 84 371 84 162 84 471 84 162 84 475 84 471 84 473 22 471 22 475 22 476 22 473 22 475 22 474 84 473 84 477 84 473 419 476 419 477 419 474 7 478 7 472 7 478 84 474 84 479 84 474 84 477 84 479 84 476 84 480 84 477 84 479 84 477 84 480 84 476 1 475 1 481 1 480 84 476 84 481 84 481 84 482 84 480 84 482 84 479 84 480 84 478 84 479 84 483 84 483 420 479 420 482 420 481 84 483 84 482 84 475 1 484 1 481 1 483 7 481 7 485 7 481 20 484 20 485 20 486 7 483 7 485 7 483 1 486 1 487 1 487 84 488 84 483 84 483 84 488 84 478 84 486 84 485 84 489 84 489 84 485 84 490 84 485 1 484 1 490 1 486 1 489 1 487 1 488 7 487 7 491 7 487 7 489 7 491 7 488 20 491 20 478 20 490 84 465 84 491 84 465 84 472 84 491 84 472 84 492 84 491 84 491 84 489 84 490 84 491 20 492 20 478 20 478 7 492 7 472 7 493 421 460 421 490 421 460 422 467 422 490 422 490 84 467 84 465 84 484 1 493 1 490 1 467 84 464 84 465 84 494 84 493 84 484 84 494 84 461 84 493 84 461 84 460 84 493 84 484 84 495 84 494 84 495 84 484 84 475 84 184 423 496 423 494 423 496 424 461 424 494 424 184 425 494 425 495 425 193 7 461 7 496 7 497 7 193 7 496 7 497 426 496 426 184 426 173 425 184 425 495 425 185 127 497 127 184 127 497 124 185 124 193 124 495 22 498 22 173 22 166 84 495 84 475 84 166 84 498 84 495 84 475 84 162 84 166 84 173 20 498 20 166 20 265 427 257 427 264 427 257 428 265 428 255 428 206 429 219 429 201 429</p>
        </triangles>
      </mesh>
    </geometry>
  </library_geometries>
  <library_visual_scenes>
    <visual_scene id="Scene" name="Scene">
      <node id="node" name="node" type="NODE">
        <matrix sid="transform">-1 0 -8.74228e-8 0 0 1 0 0 8.74228e-8 0 -1 0 0 0 0 1</matrix>
        <instance_geometry url="#shape0_022-mesh" name="node">
          <bind_material>
            <technique_common>
              <instance_material symbol="Material_014-material" target="#Material_014-material"/>
            </technique_common>
          </bind_material>
        </instance_geometry>
      </node>
    </visual_scene>
  </library_visual_scenes>
  <scene>
    <instance_visual_scene url="#Scene"/>
  </scene>
</COLLADA>