<?xml version="1.0" encoding="utf-8"?>
<COLLADA xmlns="http://www.collada.org/2005/11/COLLADASchema" version="1.4.1" xmlns:xsi="http://www.w3.org/2001/XMLSchema-instance">
  <asset>
    <contributor>
      <author>Blender User</author>
      <authoring_tool>Blender 4.0.2 commit date:2023-12-05, commit time:07:41, hash:9be62e85b727</authoring_tool>
    </contributor>
    <created>2024-02-21T11:10:40</created>
    <modified>2024-02-21T11:10:40</modified>
    <unit name="meter" meter="1"/>
    <up_axis>Z_UP</up_axis>
  </asset>
  <library_effects>
    <effect id="Material_019-effect">
      <profile_COMMON>
        <technique sid="common">
          <lambert>
            <emission>
              <color sid="emission">0 0 0 1</color>
            </emission>
            <diffuse>
              <color sid="diffuse">0.3 0.3 0.3 1</color>
            </diffuse>
            <reflectivity>
              <float sid="specular">1</float>
            </reflectivity>
            <index_of_refraction>
              <float sid="ior">1.45</float>
            </index_of_refraction>
          </lambert>
        </technique>
      </profile_COMMON>
    </effect>
  </library_effects>
  <library_images/>
  <library_materials>
    <material id="Material_019-material" name="Material.019">
      <instance_effect url="#Material_019-effect"/>
    </material>
  </library_materials>
  <library_geometries>
    <geometry id="shape0_031-mesh" name="shape0.031">
      <mesh>
        <source id="shape0_031-mesh-positions">
          <float_array id="shape0_031-mesh-positions-array" count="1398">0.005007863 -0.01866686 0 0.01367008 -0.0136519 0 0.01213777 -0.02099359 0 0.018651 -0.00499022 0 0.02100998 -0.01210963 0 8.0374e-4 -0.01526641 0 0.001093447 -0.01502668 0 0.001314342 -0.01472252 0 4.63526e-4 -0.01542651 0 0.001452863 -0.014373 0 9.4186e-5 -0.0154969 0 0 -0.02424997 0 0.001499891 -0.01399993 0 -2.81072e-4 -0.0154733 0 0.001452863 -0.01362699 0 0.001314342 -0.01327735 0 0.01863968 0.004977345 0 0.02424997 0 0 -0.005007863 -0.01866686 0 -6.38669e-4 -0.01535713 0 -9.56136e-4 -0.01515579 0 -0.001213431 -0.01488167 0 -0.001394629 -0.01455211 0 -0.001488149 -0.01418799 0 -0.001488149 -0.01381188 0 0.004143238 -0.00500828 0 0.004738271 -0.004449546 0 0.00525856 -0.003820598 0 0.003482758 -0.005488038 0 0.005695939 -0.00313133 0 0.002767503 -0.005881369 0 0.001093447 -0.01297312 0 0.006043434 -0.002392709 0 0.002008557 -0.006181836 0 8.0374e-4 -0.01273339 0 0.00629574 -0.001616418 0 0.001217961 -0.006384789 0 4.63526e-4 -0.01257336 0 0.006448686 -8.14666e-4 0 4.08138e-4 -0.006487131 0 9.4186e-5 -0.0125029 0 0.006499946 0 0 -4.08138e-4 -0.006487131 0 -2.81072e-4 -0.01252657 0 0.006448686 8.14666e-4 0 -0.001217961 -0.006384789 0 -6.38669e-4 -0.0126428 0 0.00629574 0.001616418 0 -0.002008557 -0.006181836 0 -9.56136e-4 -0.0128442 0 0.006043434 0.002392709 0 -0.002767503 -0.005881369 0 -0.001213431 -0.0131182 0 0.005695939 0.00313133 0 -0.003482758 -0.005488038 0 -0.001394629 -0.01344776 0 0.01367408 0.0135923 0 0.0210219 0.01208895 0 0.00525856 0.003820598 0 0.004738271 0.004449546 0 -0.01367008 -0.0136519 0 -0.01213777 -0.02099359 0 -0.004143238 -0.00500828 0 -0.004738271 -0.004449546 0 0.004143238 0.00500828 0 -0.00525856 -0.003820598 0 0.003482758 0.005488038 0 -0.005695939 -0.00313133 0 0.001093447 0.01297312 0 0.002767503 0.005881369 0 0.002008557 0.006181836 0 8.0374e-4 0.01273339 0 0.001217961 0.006384789 0 0.001314342 0.01327735 0 4.63526e-4 0.01257336 0 4.08138e-4 0.006487131 0 0.001452863 0.01362699 0 9.4186e-5 0.0125029 0 -4.08138e-4 0.006487131 0 -2.81072e-4 0.01252657 0 -0.001217961 0.006384789 0 -6.38669e-4 0.0126428 0 -0.002008557 0.006181836 0 0.005096495 0.01858699 0 0.001452863 0.014373 0 0.001314342 0.01472252 0 0.001499891 0.01399993 0 0.01221483 0.020949 0 -0.018651 -0.00499022 0 -0.02100998 -0.01210963 0 -0.006043434 -0.002392709 0 -0.00629574 -0.001616418 0 -0.006448686 -8.14666e-4 0 -0.006499946 0 0 -9.56136e-4 0.0128442 0 -0.002767503 0.005881369 0 0.001093447 0.01502668 0 -0.001213431 0.0131182 0 -0.003482758 0.005488038 0 8.0374e-4 0.01526641 0 -0.001394629 0.01344776 0 4.63526e-4 0.01542651 0 9.4186e-5 0.0154969 0 -0.01863968 0.004977345 0 -0.006448686 8.14666e-4 0 -0.00629574 0.001616418 0 -0.006043434 0.002392709 0 -0.005695939 0.00313133 0 -0.005096495 0.01858699 0 -0.001488149 0.01418799 0 -0.001488149 0.01381188 0 -0.001394629 0.01455211 0 -0.001213431 0.01488167 0 -9.56136e-4 0.01515579 0 -6.38669e-4 0.01535713 0 -2.81072e-4 0.0154733 0 0 0.02424997 0 -0.02424997 0 0 -0.01367408 0.0135923 0 -0.00525856 0.003820598 0 -0.004738271 0.004449546 0 -0.004143238 0.00500828 0 -0.0210219 0.01208895 0 -0.01221483 0.020949 0 -0.01234328 -0.02000886 9.99987e-4 -0.01213777 -0.02099359 9.99987e-4 -0.01367008 -0.0136519 9.99987e-4 -0.005007863 -0.01866686 9.99987e-4 -0.02100998 -0.01210963 9.99987e-4 -6.71668e-4 -0.02350109 9.99987e-4 0 -0.02424997 9.99987e-4 -0.02069336 -0.01115429 9.99987e-4 -0.018651 -0.00499022 9.99987e-4 0.005007863 -0.01866686 9.99987e-4 -0.02424997 0 9.99987e-4 0.01118135 -0.02068156 9.99987e-4 0.01213777 -0.02099359 9.99987e-4 -0.0234968 6.68227e-4 9.99987e-4 -0.01863968 0.004977345 9.99987e-4 0.01367008 -0.0136519 9.99987e-4 -0.0210219 0.01208895 9.99987e-4 0.02002507 -0.01231658 9.99987e-4 0.02100998 -0.01210963 9.99987e-4 -0.02003479 0.01229089 9.99987e-4 -0.01367408 0.0135923 9.99987e-4 0.018651 -0.00499022 9.99987e-4 -0.01221483 0.020949 9.99987e-4 0.02349823 -6.69959e-4 9.99987e-4 0.02424997 0 9.99987e-4 -0.01125836 0.02063155 9.99987e-4 -0.005096495 0.01858699 9.99987e-4 0.01863968 0.004977345 9.99987e-4 0 0.02424997 9.99987e-4 0.02070188 0.01113367 9.99987e-4 0.0210219 0.01208895 9.99987e-4 0.005096495 0.01858699 9.99987e-4 6.72671e-4 0.02350252 9.99987e-4 0.01367408 0.0135923 9.99987e-4 0.01221483 0.020949 9.99987e-4 0.01241093 0.0199604 9.99987e-4 9.4186e-5 -0.0125029 9.99987e-4 4.63526e-4 -0.01257336 9.99987e-4 8.0374e-4 -0.01273339 9.99987e-4 0.001452863 -0.014373 9.99987e-4 0.001499891 -0.01399993 9.99987e-4 0.001314342 -0.01472252 9.99987e-4 0.001093447 -0.01297312 9.99987e-4 0.001314342 -0.01327735 9.99987e-4 0.001093447 -0.01502668 9.99987e-4 0.001452863 -0.01362699 9.99987e-4 8.0374e-4 -0.01526641 9.99987e-4 4.63526e-4 -0.01542651 9.99987e-4 9.4186e-5 -0.0154969 9.99987e-4 -2.81072e-4 -0.0154733 9.99987e-4 -6.38669e-4 -0.01535713 9.99987e-4 -9.56136e-4 -0.01515579 9.99987e-4 -0.001213431 -0.01488167 9.99987e-4 -0.001394629 -0.01455211 9.99987e-4 -0.001488149 -0.01418799 9.99987e-4 -0.001488149 -0.01381188 9.99987e-4 -0.001394629 -0.01344776 9.99987e-4 -0.001213431 -0.0131182 9.99987e-4 -9.56136e-4 -0.0128442 9.99987e-4 -6.38669e-4 -0.0126428 9.99987e-4 -2.81072e-4 -0.01252657 9.99987e-4 0.006448686 -8.14666e-4 9.99987e-4 0.006499946 0 9.99987e-4 0.00629574 -0.001616418 9.99987e-4 0.006043434 -0.002392709 9.99987e-4 0.005695939 -0.00313133 9.99987e-4 0.00525856 -0.003820598 9.99987e-4 0.004738271 -0.004449546 9.99987e-4 0.004143238 -0.00500828 9.99987e-4 0.003482758 -0.005488038 9.99987e-4 0.002767503 -0.005881369 9.99987e-4 0.002008557 -0.006181836 9.99987e-4 0.001217961 -0.006384789 9.99987e-4 4.08138e-4 -0.006487131 9.99987e-4 -4.08138e-4 -0.006487131 9.99987e-4 -0.001217961 -0.006384789 9.99987e-4 -0.002767503 -0.005881369 9.99987e-4 -0.002008557 -0.006181836 9.99987e-4 -0.003482758 -0.005488038 9.99987e-4 -0.004143238 -0.00500828 9.99987e-4 -0.004738271 -0.004449546 9.99987e-4 -0.00525856 -0.003820598 9.99987e-4 -0.005695939 -0.00313133 9.99987e-4 -0.006043434 -0.002392709 9.99987e-4 -0.00629574 -0.001616418 9.99987e-4 -0.006448686 -8.14666e-4 9.99987e-4 -0.006499946 0 9.99987e-4 -0.006448686 8.14666e-4 9.99987e-4 -0.00629574 0.001616418 9.99987e-4 -0.006043434 0.002392709 9.99987e-4 -0.005695939 0.00313133 9.99987e-4 -0.00525856 0.003820598 9.99987e-4 -0.004738271 0.004449546 9.99987e-4 -0.004143238 0.00500828 9.99987e-4 -0.003482758 0.005488038 9.99987e-4 -0.002008557 0.006181836 9.99987e-4 -0.002767503 0.005881369 9.99987e-4 -4.08138e-4 0.006487131 9.99987e-4 -0.001217961 0.006384789 9.99987e-4 0.001217961 0.006384789 9.99987e-4 4.08138e-4 0.006487131 9.99987e-4 0.002008557 0.006181836 9.99987e-4 0.002767503 0.005881369 9.99987e-4 0.003482758 0.005488038 9.99987e-4 0.004143238 0.00500828 9.99987e-4 0.004738271 0.004449546 9.99987e-4 0.00525856 0.003820598 9.99987e-4 0.005695939 0.00313133 9.99987e-4 0.006043434 0.002392709 9.99987e-4 0.00629574 0.001616418 9.99987e-4 0.006448686 8.14666e-4 9.99987e-4 9.4186e-5 0.0154969 9.99987e-4 4.63526e-4 0.01542651 9.99987e-4 8.0374e-4 0.01526641 9.99987e-4 0.001452863 0.01362699 9.99987e-4 0.001499891 0.01399993 9.99987e-4 0.001314342 0.01327735 9.99987e-4 0.001093447 0.01502668 9.99987e-4 0.001314342 0.01472252 9.99987e-4 0.001093447 0.01297312 9.99987e-4 0.001452863 0.014373 9.99987e-4 8.0374e-4 0.01273339 9.99987e-4 4.63526e-4 0.01257336 9.99987e-4 9.4186e-5 0.0125029 9.99987e-4 -2.81072e-4 0.01252657 9.99987e-4 -6.38669e-4 0.0126428 9.99987e-4 -9.56136e-4 0.0128442 9.99987e-4 -0.001213431 0.0131182 9.99987e-4 -0.001394629 0.01344776 9.99987e-4 -0.001488149 0.01381188 9.99987e-4 -0.001488149 0.01418799 9.99987e-4 -0.001394629 0.01455211 9.99987e-4 -0.001213431 0.01488167 9.99987e-4 -9.56136e-4 0.01515579 9.99987e-4 -6.38669e-4 0.01535713 9.99987e-4 -2.81072e-4 0.0154733 9.99987e-4 -0.01244795 -0.02004307 9.99987e-4 0.01269119 -0.01344758 9.99987e-4 0.01770186 -0.005304694 9.99987e-4 0.00426346 -0.01799917 9.99987e-4 0.01797598 0.004229307 9.99987e-4 -0.005318105 -0.0177161 9.99987e-4 0.005146801 -0.005455255 9.99987e-4 0.005745232 -0.004820883 9.99987e-4 0.004478633 -0.006015837 9.99987e-4 0.006266117 -0.004121303 9.99987e-4 0.003749907 -0.006495118 9.99987e-4 0.006702244 -0.003365874 9.99987e-4 0.002970576 -0.006886601 9.99987e-4 0.007047653 -0.002565145 9.99987e-4 0.002151012 -0.007184863 9.99987e-4 0.007297754 -0.001729547 9.99987e-4 0.001302242 -0.007385969 9.99987e-4 0.007449269 -8.70697e-4 9.99987e-4 4.36086e-4 -0.007487297 9.99987e-4 0.007499933 0 9.99987e-4 -4.36086e-4 -0.007487297 9.99987e-4 0.007449269 8.70697e-4 9.99987e-4 -0.001302242 -0.007385969 9.99987e-4 0.007297754 0.001729547 9.99987e-4 -0.002151012 -0.007184863 9.99987e-4 0.007047653 0.002565145 9.99987e-4 -0.002970576 -0.006886601 9.99987e-4 0.006702244 0.003365874 9.99987e-4 -0.003749907 -0.006495118 9.99987e-4 0.01347357 0.01261258 9.99987e-4 0.006266117 0.004121303 9.99987e-4 0.005745232 0.004820883 9.99987e-4 0.005146801 0.005455255 9.99987e-4 -0.01346457 -0.01267319 9.99987e-4 -0.004478633 -0.006015837 9.99987e-4 -0.005146801 -0.005455255 9.99987e-4 -0.005745232 -0.004820883 9.99987e-4 0.004478633 0.006015837 9.99987e-4 -0.006266117 -0.004121303 9.99987e-4 0.003749907 0.006495118 9.99987e-4 -0.006702244 -0.003365874 9.99987e-4 0.002151012 0.007184863 9.99987e-4 0.002970576 0.006886601 9.99987e-4 0.001302242 0.007385969 9.99987e-4 4.36086e-4 0.007487297 9.99987e-4 0.005411386 0.01763778 9.99987e-4 -4.36086e-4 0.007487297 9.99987e-4 -0.001302242 0.007385969 9.99987e-4 -0.01798576 -0.004243731 9.99987e-4 -0.007449269 -8.70697e-4 9.99987e-4 -0.007499933 0 9.99987e-4 -0.007297754 -0.001729547 9.99987e-4 -0.007047653 -0.002565145 9.99987e-4 -0.002151012 0.007184863 9.99987e-4 -0.002970576 0.006886601 9.99987e-4 -0.003749907 0.006495118 9.99987e-4 -0.004353106 0.01791805 9.99987e-4 -0.006702244 0.003365874 9.99987e-4 -0.006266117 0.004121303 9.99987e-4 -0.01769149 0.005294919 9.99987e-4 -0.007047653 0.002565145 9.99987e-4 -0.007297754 0.001729547 9.99987e-4 -0.007449269 8.70697e-4 9.99987e-4 -0.0126931 0.01339769 9.99987e-4 -0.004478633 0.006015837 9.99987e-4 -0.005146801 0.005455255 9.99987e-4 -0.005745232 0.004820883 9.99987e-4 -0.008572816 -0.01983022 0.00568372 -0.01734006 -0.0128808 0.00568372 -7.44416e-4 -0.02358222 9.99987e-4 -0.02080428 -0.01113098 9.99987e-4 0.002503871 -0.02145832 0.00568372 -0.02145051 -0.00249511 0.00568372 0.01115888 -0.02078938 9.99987e-4 -0.0235846 7.46515e-4 9.99987e-4 0.01290392 -0.01732271 0.00568372 -0.01983076 0.008533179 0.00568372 0.02006059 -0.01242417 9.99987e-4 -0.02007365 0.01240652 9.99987e-4 0.01983046 -0.008549928 0.00568372 -0.0129444 0.01727056 0.00568372 0.02358627 -7.48044e-4 9.99987e-4 -0.01123392 0.02075433 9.99987e-4 0.02144473 0.002488613 0.00568372 -0.002548158 0.02141845 0.005635619 0.02082139 0.01110929 9.99987e-4 7.43305e-4 0.02358102 9.99987e-4 0.01734799 0.0128405 0.00568372 0.008655667 0.01976794 0.00568372 0.01252979 0.01999986 9.99987e-4 0.006499946 0 0.002999961 0.006448686 8.14666e-4 0.002999961 0.00629574 0.001616418 0.002999961 0.006043434 0.002392709 0.002999961 0.005695939 0.00313133 0.002999961 0.00525856 0.003820598 0.002999961 0.004738271 0.004449546 0.002999961 0.004143238 0.00500828 0.002999961 0.003482758 0.005488038 0.002999961 0.002767503 0.005881369 0.002999961 0.002008557 0.006181836 0.002999961 0.001217961 0.006384789 0.002999961 4.08138e-4 0.006487131 0.002999961 -4.08138e-4 0.006487131 0.002999961 -0.001217961 0.006384789 0.002999961 -0.002008557 0.006181836 0.002999961 -0.002767503 0.005881369 0.002999961 -0.003482758 0.005488038 0.002999961 -0.004143238 0.00500828 0.002999961 -0.004738271 0.004449546 0.002999961 -0.00525856 0.003820598 0.002999961 -0.005695939 0.00313133 0.002999961 -0.006043434 0.002392709 0.002999961 -0.00629574 0.001616418 0.002999961 -0.006448686 8.14666e-4 0.002999961 -0.006499946 0 0.002999961 -0.006448686 -8.14666e-4 0.002999961 -0.00629574 -0.001616418 0.002999961 -0.006043434 -0.002392709 0.002999961 -0.005695939 -0.00313133 0.002999961 -0.00525856 -0.003820598 0.002999961 -0.004738271 -0.004449546 0.002999961 -0.004143238 -0.00500828 0.002999961 -0.003482758 -0.005488038 0.002999961 -0.002767503 -0.005881369 0.002999961 -0.002008557 -0.006181836 0.002999961 -0.001217961 -0.006384789 0.002999961 -4.08138e-4 -0.006487131 0.002999961 4.08138e-4 -0.006487131 0.002999961 0.001217961 -0.006384789 0.002999961 0.002008557 -0.006181836 0.002999961 0.002767503 -0.005881369 0.002999961 0.003482758 -0.005488038 0.002999961 0.004143238 -0.00500828 0.002999961 0.004738271 -0.004449546 0.002999961 0.00525856 -0.003820598 0.002999961 0.005695939 -0.00313133 0.002999961 0.006043434 -0.002392709 0.002999961 0.00629574 -0.001616418 0.002999961 0.006448686 -8.14666e-4 0.002999961 -0.008883059 -0.01887965 0.00568372 0.001759409 -0.02079069 0.00568372 -0.01713442 -0.01190215 0.00568372 0.0119251 -0.01711845 0.00568372 -0.02078515 -0.001748502 0.00568372 0.01888126 -0.008864462 0.00568372 -0.01888257 0.008850753 0.00568372 0.02078109 0.001740634 0.00568372 -0.01196348 0.01707607 0.00568372 0.01714748 0.01186078 0.00568372 -0.001804888 0.0207495 0.005635619 0.008970618 0.01881885 0.00568372 0.007499933 0 0.002999961 0.007449269 8.70697e-4 0.002999961 0.007297754 0.001729547 0.002999961 0.007047653 0.002565145 0.002999961 0.006702244 0.003365874 0.002999961 0.006266117 0.004121303 0.002999961 0.005745232 0.004820883 0.002999961 0.005146801 0.005455255 0.002999961 0.004478633 0.006015837 0.002999961 0.003749907 0.006495118 0.002999961 0.002970576 0.006886601 0.002999961 0.002151012 0.007184863 0.002999961 0.001302242 0.007385969 0.002999961 4.36086e-4 0.007487297 0.002999961 -4.36086e-4 0.007487297 0.002999961 -0.001302242 0.007385969 0.002999961 -0.002151012 0.007184863 0.002999961 -0.002970576 0.006886601 0.002999961 -0.003749907 0.006495118 0.002999961 -0.004478633 0.006015837 0.002999961 -0.005146801 0.005455255 0.002999961 -0.005745232 0.004820883 0.002999961 -0.006266117 0.004121303 0.002999961 -0.006702244 0.003365874 0.002999961 -0.007047653 0.002565145 0.002999961 -0.007297754 0.001729547 0.002999961 -0.007449269 8.70697e-4 0.002999961 -0.007499933 0 0.002999961 -0.007449269 -8.70697e-4 0.002999961 -0.007297754 -0.001729547 0.002999961 -0.007047653 -0.002565145 0.002999961 -0.006702244 -0.003365874 0.002999961 -0.006266117 -0.004121303 0.002999961 -0.005745232 -0.004820883 0.002999961 -0.005146801 -0.005455255 0.002999961 -0.004478633 -0.006015837 0.002999961 -0.003749907 -0.006495118 0.002999961 -0.002970576 -0.006886601 0.002999961 -0.002151012 -0.007184863 0.002999961 -0.001302242 -0.007385969 0.002999961 -4.36086e-4 -0.007487297 0.002999961 4.36086e-4 -0.007487297 0.002999961 0.001302242 -0.007385969 0.002999961 0.002151012 -0.007184863 0.002999961 0.002970576 -0.006886601 0.002999961 0.004478633 -0.006015837 0.002999961 0.003749907 -0.006495118 0.002999961 0.005146801 -0.005455255 0.002999961 0.005745232 -0.004820883 0.002999961 0.006266117 -0.004121303 0.002999961 0.006702244 -0.003365874 0.002999961 0.007047653 -0.002565145 0.002999961 0.007297754 -0.001729547 0.002999961 0.007449269 -8.70697e-4 0.002999961</float_array>
          <technique_common>
            <accessor source="#shape0_031-mesh-positions-array" count="466" stride="3">
              <param name="X" type="float"/>
              <param name="Y" type="float"/>
              <param name="Z" type="float"/>
            </accessor>
          </technique_common>
        </source>
        <source id="shape0_031-mesh-normals">
          <float_array id="shape0_031-mesh-normals-array" count="1848">0 0 -1 -0.9788994 -0.2043426 0 -0.9789051 -0.2043156 0 -0.9789045 -0.2043185 -2.37688e-5 0.3102389 -0.9506587 0 -0.2056326 -0.9786293 0 -0.2056325 -0.9786293 0 -0.7444161 -0.667716 0 -0.7444146 -0.6677176 0 -0.7444159 -0.6677163 -3.88057e-6 -0.9492331 0.3145737 0 -0.9492542 0.3145101 0 -0.9492513 0.3145186 6.07543e-5 0.7444159 -0.6677163 0 -0.6653621 -0.7465209 0 -0.6653625 -0.7465204 0 -0.3102042 -0.95067 0 -0.3102442 -0.950657 0 -0.310239 -0.9506586 -4.07461e-5 -0.6636679 0.7480274 0 -0.6636472 0.7480458 0 -0.6636502 0.7480431 -2.25711e-5 0.9789045 -0.2043187 0 0.9789044 -0.204319 0 -0.948215 -0.3176296 0 -0.9482148 -0.31763 0 0.2055732 -0.9786418 0 0.2056418 -0.9786274 0 0.2056325 -0.9786293 5.94201e-5 -0.2004358 0.979707 0 -0.2004472 0.9797045 0 -0.2004459 0.9797049 9.45883e-6 0.9492511 0.3145191 0 0.9492515 0.3145182 0 -0.9808911 0.1945583 0 0.6653623 -0.7465206 0 0.6653623 -0.7465206 0 0.6653623 -0.7465206 1.19752e-6 0.3149838 0.949097 0 0.3149251 0.9491166 0 0.314933 0.9491139 5.82081e-5 0.6636502 0.7480431 0 0.66365 0.7480433 0 -0.7433064 0.6689512 0 0.948207 -0.3176531 0 0.9482159 -0.3176269 0 0.9482151 -0.3176291 2.35866e-5 0.7433097 0.6689475 0 0.7432844 0.6689757 0 0.7433064 0.6689512 -3.24711e-5 0.2004457 0.9797049 0 0.2004458 0.9797049 0 -0.314933 0.949114 0 -0.314933 0.9491139 0 0.9808889 0.1945689 0 0.9808914 0.1945563 0 0.9808909 0.1945585 -1.20055e-5 -0.1877091 -0.9822248 0 -0.1877091 -0.9822248 7.12322e-7 -0.1877091 -0.9822248 0 -0.1872382 -0.9823146 0 -0.4257751 -0.9048292 0 -0.4257751 -0.904829 0 -0.9921264 0.1252413 0 -0.9297278 0.3682475 0 -0.6375243 -0.7704304 0 -0.929728 0.368247 0 -0.8090654 -0.5877187 0 -0.8090657 -0.5877183 0 -0.8090563 0.5877313 0 -0.809056 0.5877316 0 -0.9297496 -0.3681927 0 -0.9297494 -0.3681933 0 -0.9920839 -0.1255773 -2.68609e-7 -0.9920839 -0.1255773 0 -0.9920839 -0.1255773 0 -0.6375243 0.7704304 0 -0.9920839 -0.1255773 0 -0.9920839 -0.1255773 0 -0.9920839 -0.1255773 0 -0.4257953 0.9048196 0 -0.1872143 0.9823192 0 -0.4257954 0.9048196 0 -0.1872143 0.9823192 0 0.0627653 0.9980283 0 0.0627653 0.9980283 0 0.3089691 0.9510721 0 0.308969 0.9510722 0 0.5356934 0.8444127 0 0.7290506 0.6844599 0 0.5356936 0.8444125 0 0.7290503 0.6844602 0 0.8763127 0.4817429 0 0.9685739 0.2487262 0 0.968574 0.2487256 0 1 0 0 0.9685741 -0.248725 0 0.968574 -0.2487255 0 0.8763127 -0.4817429 0 0.7289748 -0.6845405 0 0.7289752 -0.6845402 0 0.5356934 -0.8444127 0 0.5356936 -0.8444125 0 0.3091124 -0.9510255 0 0.3091124 -0.9510256 0 0.06279242 -0.9980266 0 0.06279242 -0.9980266 0 -0.9980309 0.06272602 0 -0.998031 0.06272375 0 -0.9822756 0.1874425 0 -0.9822758 0.1874414 0 -0.9510508 0.3090345 0 -0.9510515 0.3090324 0 -0.9048339 0.4257649 0 -0.9048343 0.425764 0 -0.8443315 0.5358213 0 -0.7705267 0.6374078 0 -0.7705257 0.6374091 0 -0.6845608 0.7289559 0 -0.6845602 0.7289564 0 -0.5877323 0.8090556 0 -0.5877329 0.8090552 0 -0.4817766 0.8762941 0 -0.3681022 0.9297854 0 -0.4817764 0.8762942 0 -0.2487156 0.9685766 0 -0.3681024 0.9297853 0 -0.1253062 0.9921182 0 -0.2487157 0.9685766 0 0 1 0 -0.1253062 0.9921181 0 0.1253062 0.9921182 0 0.1253062 0.9921181 0 0.3681024 0.9297853 0 0.2487156 0.9685766 0 0.2487157 0.9685766 0 0.3681022 0.9297854 0 0.4817766 0.8762941 0 0.4817764 0.8762942 0 0.5877323 0.8090556 0 0.5877329 0.8090552 0 0.6845608 0.7289559 0 0.6845602 0.7289564 0 0.7705267 0.6374078 0 0.7705257 0.6374091 0 0.8443315 0.5358213 0 0.9048339 0.4257649 0 0.9048343 0.425764 0 0.9510508 0.3090345 0 0.9510515 0.3090324 0 0.9822758 0.1874414 0 0.9822756 0.1874425 0 0.998031 0.06272375 0 0.9980309 0.06272602 0 0.9980309 -0.06272602 0 0.998031 -0.06272375 0 0.9822756 -0.1874425 0 0.9822758 -0.1874414 0 0.9510508 -0.3090345 0 0.9510515 -0.3090324 0 0.9048343 -0.425764 0 0.9048339 -0.4257649 0 0.8443315 -0.5358213 0 0.7705257 -0.6374091 0 0.7705267 -0.6374078 0 0.6845602 -0.7289564 0 0.6845608 -0.7289559 0 0.5877329 -0.8090552 0 0.5877323 -0.8090556 0 0.3681022 -0.9297854 0 0.4817764 -0.8762942 0 0.4817766 -0.8762941 0 0.3681024 -0.9297853 0 0.1253062 -0.9921182 0 0.2487157 -0.9685766 0 0.2487156 -0.9685766 0 0.1253062 -0.9921181 0 -0.1253062 -0.9921181 0 0 -1 0 -0.2487157 -0.9685766 0 -0.1253062 -0.9921182 0 -0.3681024 -0.9297853 0 -0.2487156 -0.9685766 0 -0.4817764 -0.8762942 0 -0.3681022 -0.9297854 0 -0.5877329 -0.8090552 0 -0.4817766 -0.8762941 0 -0.6845602 -0.7289564 0 -0.5877323 -0.8090556 0 -0.7705257 -0.6374091 0 -0.6845608 -0.7289559 0 -0.8443315 -0.5358213 0 -0.7705267 -0.6374078 0 -0.9048343 -0.425764 0 -0.9510515 -0.3090324 0 -0.9048339 -0.4257649 0 -0.9822758 -0.1874414 0 -0.9510508 -0.3090345 0 -0.9822756 -0.1874425 0 -0.9980309 -0.06272602 0 -0.998031 -0.06272375 0 -0.1872143 -0.9823192 0 -0.1872143 -0.9823192 0 -0.4257953 -0.9048196 0 -0.4257954 -0.9048196 0 -0.9920839 0.1255773 0 -0.9920839 0.1255773 0 -0.9920839 0.1255773 0 -0.9297494 0.3681933 0 -0.9920839 0.1255773 0 -0.9920839 0.1255773 3.05571e-7 -0.9297496 0.3681927 0 -0.809056 -0.5877316 0 -0.8090563 -0.5877313 0 -0.8090657 0.5877183 0 -0.8090654 0.5877187 0 -0.929728 -0.368247 0 -0.9297278 -0.3682475 0 -0.9921264 -0.1252413 0 -0.4257751 0.9048292 0 -0.1872382 0.9823146 0 -0.4257751 0.904829 0 -0.1877091 0.9822248 0 -0.1877091 0.9822248 0 -0.1877091 0.9822248 0 0.06279242 0.9980266 0 0.06279242 0.9980266 0 0.3091124 0.9510255 0 0.3091124 0.9510256 0 0.7289752 0.6845402 0 0.7289748 0.6845405 0 0.968574 0.2487255 0 0.9685741 0.248725 0 0.968574 -0.2487256 0 0.9685739 -0.2487262 0 0.7290503 -0.6844602 0 0.7290506 -0.6844599 0 0.3089691 -0.9510721 0 0.308969 -0.9510722 0 0.0627653 -0.9980283 0 0.0627653 -0.9980283 0 -2.58262e-7 0 -1 0 0 1 0 0 1 0 0 1 1.40261e-7 0 1 0 0 1 0 0 1 0 0 1 0 0 1 0 0 1 0 0 1 -2.02933e-7 0 1 0 0 1 0 0 1 -2.63662e-7 0 1 0 0 1 6.07257e-7 0 1 0 0 1 0 0 1 0 0 1 0 0 1 0 0 1 0 0 1 4.71132e-7 0 1 -1.601e-7 0 1 0 0 1 0 0 1 0 0 1 0 0 1 0 0 1 0 0 1 0 0 1 0 0 1 2.0365e-7 0 1 0 0 1 0 0 1 0 0 1 0 0 1 0 0 1 0 0 1 0 0 1 0 0 1 3.53349e-7 0 1 -2.04928e-7 0 1 2.09524e-7 0 1 -2.06309e-7 0 1 0 0 1 0 0 1 1.74175e-7 0 1 2.09108e-7 0 1 0 0 1 0 0 1 0 0 1 0 0 1 0 0 1 0 0 1 0 0 1 -1.73447e-7 0 1 0 0 1 0 0 1 -2.53826e-7 0 1 0 0 1 0 0 1 0 0 1 0 0 1 0 0 1 0 0 1 2.6037e-7 0 1 0 0 1 0 0 1 0 0 1 0 0 1 -1.90657e-7 0 1 0 0 1 0 0 1 0.3102389 -0.9506587 -6.6281e-6 -0.2056326 -0.9786293 4.97097e-6 -6.52119e-7 0 -1 1.25388e-6 0 -1 0.7444159 -0.6677162 4.5568e-6 -0.6653624 -0.7465206 -7.76726e-6 2.58075e-7 0 -1 6.04028e-7 0 -1 0.9789044 -0.204319 -3.8319e-6 -0.9482149 -0.3176296 8.28509e-6 1.25396e-7 0 -1 -3.49356e-7 0 -1 0.9492512 0.3145189 1.04598e-5 -0.9808911 0.194558 1.12366e-5 1.20802e-7 0 -1 4.53885e-7 0 -1 0.66365 0.7480433 4.97108e-6 -0.7433064 0.6689512 9.06477e-6 -7.28205e-7 0 -1 -6.72878e-7 0 -1 0.2004458 0.9797049 1.34632e-5 -0.3149331 0.9491139 0 1.81632e-6 0 -1 -0.9980309 -0.06272488 0 -0.9980309 -0.06272488 0 -0.982276 -0.1874403 0 -0.9510512 -0.3090335 0 -0.9048339 -0.4257649 0 -0.8443319 -0.5358205 0 -0.7705262 -0.6374084 0 -0.6845597 -0.7289569 0 -0.5877327 -0.8090552 0 -0.4817766 -0.8762942 0 -0.3681021 -0.9297854 0 -0.2487156 -0.9685766 0 -0.1253063 -0.9921182 0 0.1253063 -0.9921182 0 0.2487156 -0.9685767 0 0.3681021 -0.9297854 0 0.4817766 -0.8762942 0 0.5877327 -0.8090552 0 0.7705262 -0.6374084 0 0.6845597 -0.7289569 0 0.8443315 -0.5358213 0 0.844332 -0.5358205 0 0.9048343 -0.4257641 0 0.9510508 -0.3090345 0 0.9510512 -0.3090335 0 0.9980309 -0.06272488 0 0.982276 -0.1874403 0 0.9980309 -0.06272488 0 0.9980309 0.06272488 0 0.9980309 0.06272488 0 0.982276 0.1874403 0 0.9510508 0.3090345 0 0.9510512 0.3090335 0 0.9048339 0.4257649 0 0.8443319 0.5358205 0 0.7705262 0.6374084 0 0.6845597 0.7289569 0 0.5877327 0.8090552 0 0.4817766 0.8762942 0 0.3681023 0.9297854 0 0.2487156 0.9685766 0 0.1253063 0.9921182 0 0.1253062 0.9921181 0 -0.1253063 0.9921182 0 -0.2487156 0.9685767 0 -0.3681021 0.9297854 0 -0.4817766 0.8762942 0 -0.5877327 0.8090552 0 -0.6845597 0.7289569 0 -0.7705262 0.6374084 0 -0.844332 0.5358205 0 -0.8443315 0.5358213 0 -0.9048339 0.4257649 0 -0.9510512 0.3090335 0 -0.9510508 0.3090345 0 -0.982276 0.1874403 0 -0.9980309 0.06272488 0 -0.9980309 0.06272488 0 -0.3103215 0.9506317 6.33805e-5 -0.310393 0.9506083 1.22882e-4 -0.3103215 0.9506317 6.33519e-5 -0.3102484 0.9506556 1.17719e-5 -0.7421056 -0.2421904 0.6249985 -0.7421182 -0.2421594 0.6249955 0.742111 0.2421717 0.6249993 0.7421011 0.2421901 0.6250039 -0.7444796 0.6676453 7.1284e-5 -0.7444135 0.6677189 -1.17701e-5 0.5212275 0.5811137 0.6250032 0.5212076 0.5811368 0.6249982 0.7639486 -0.1604598 0.6250082 0.7639462 -0.1604788 0.6250062 -0.9789142 0.2042725 4.255e-5 -0.9789142 0.2042725 4.25623e-5 -0.9789142 0.2042725 4.25558e-5 -0.9789043 0.2043201 9.77493e-6 0.2055978 0.9786366 3.23803e-5 0.2055978 0.9786366 3.24161e-5 0.2055978 0.9786366 3.24083e-5 0.2056356 0.9786286 9.25343e-6 0.1595444 0.7641482 0.6249985 0.1595015 0.7641624 0.6249921 0.5827615 -0.5193821 0.6250051 0.5827391 -0.5194128 0.6250005 -0.9493488 -0.3142243 -2.42506e-4 -0.9493488 -0.3142243 -2.42535e-4 -0.9493488 -0.3142243 -2.42502e-4 -0.9492531 -0.3145135 -6.15141e-6 0.6653686 0.746515 -1.18386e-5 -0.2455429 0.7409998 0.6250024 -0.2455428 0.7410015 0.6250004 0.2479582 -0.7401993 0.6249974 0.2479153 -0.7402094 0.6250026 -0.6636481 -0.7480449 1.52561e-6 -0.6638169 -0.7478952 -1.51304e-4 0.9482151 0.3176292 1.61387e-6 0.9482151 0.3176292 1.59611e-6 0.9482151 0.3176292 1.60039e-6 0.9482195 0.3176158 8.00103e-6 -0.5839433 0.5180578 0.6250013 -0.5839222 0.5180875 0.6249962 -0.1518238 -0.765724 0.6249932 -0.1519106 -0.7656965 0.6250058 -0.2004473 -0.9797045 -1.22119e-5 -0.2002617 -0.9797425 1.33566e-4 -0.2002617 -0.9797425 1.33567e-4 -0.2003372 -0.979727 7.65622e-5 0.9808707 -0.1946607 -1.03498e-4 0.9808917 -0.1945549 -6.63528e-6 -0.7647686 0.1565182 0.6250049 -0.7647693 0.1565184 0.6250041 -0.5168222 -0.5742968 0.6348844 -0.5168235 -0.5742925 0.6348871 0.3149338 -0.9491137 -1.657e-6 0.7433757 -0.6688743 7.75673e-5 0.7433101 -0.6689471 2.92478e-6 -0.7408999 -0.2458514 0.6249997 -0.7409084 -0.2458046 0.625008 0.9983075 0.0581572 0 0.9983076 0.05815619 0 0.9848063 0.1736565 0 0.9848065 0.1736555 0 0.9579842 0.2868211 0 0.9579845 0.2868202 0 0.9182235 0.3960629 0 0.9182234 0.3960629 0 0.8660184 0.5000123 0 0.8660187 0.5000116 0 0.8021182 0.5971655 0 0.8021191 0.5971642 0 0.7273791 0.6862359 0 0.7273796 0.6862354 0 0.642775 0.766055 0 0.6427749 0.7660551 0 0.5495325 0.8354724 0 0.549532 0.8354727 0 0.4487991 0.8936327 0 0.448799 0.8936329 0 0.3419846 0.9397057 0 0.2306343 0.9730406 0 0.2306343 0.9730406 0 0.1161186 0.9932354 0 -0.1161186 0.9932354 0 -0.2306343 0.9730406 0 -0.1161186 0.9932354 0 -0.2306343 0.9730406 0 -0.3419846 0.9397057 0 -0.4487989 0.8936329 0 -0.4487991 0.8936327 0 -0.5495325 0.8354724 0 -0.549532 0.8354727 0 -0.6427749 0.7660551 0 -0.7273796 0.6862354 0 -0.642775 0.766055 0 -0.7273791 0.6862359 0 -0.8021181 0.5971655 0 -0.8021191 0.5971641 0 -0.8660188 0.5000116 0 -0.8660184 0.5000124 0 -0.9182235 0.3960629 0 -0.9182234 0.3960629 0 -0.9579845 0.2868202 0 -0.9579842 0.2868211 0 -0.9848065 0.1736555 0 -0.9848063 0.1736565 0 -0.9983076 0.05815619 0 -0.9983075 0.0581572 0 -0.9983075 -0.0581572 0 -0.9983076 -0.05815619 0 -0.9848063 -0.1736565 0 -0.9848065 -0.1736555 0 -0.9579842 -0.2868211 0 -0.9579845 -0.2868202 0 -0.9182234 -0.3960629 0 -0.9182235 -0.3960629 0 -0.8660184 -0.5000123 0 -0.8660187 -0.5000116 0 -0.8021182 -0.5971655 0 -0.8021191 -0.5971642 0 -0.727379 -0.6862359 0 -0.7273796 -0.6862354 0 -0.642775 -0.766055 0 -0.6427749 -0.7660551 0 -0.5495325 -0.8354724 0 -0.549532 -0.8354727 0 -0.4487991 -0.8936327 0 -0.4487989 -0.8936329 0 -0.3419846 -0.9397057 0 -0.2306343 -0.9730406 0 -0.2306343 -0.9730406 0 -0.1161186 -0.9932354 0 0.1161186 -0.9932354 0 0.2306343 -0.9730406 0 0.2306343 -0.9730406 0 0.3419846 -0.9397057 0 0.549532 -0.8354727 0 0.448799 -0.8936329 0 0.4487991 -0.8936327 0 0.5495325 -0.8354724 0 0.6427749 -0.7660551 0 0.642775 -0.766055 0 0.727379 -0.6862359 0 0.7273796 -0.6862354 0 0.8021181 -0.5971655 0 0.8021191 -0.5971641 0 0.8660184 -0.5000124 0 0.9182234 -0.3960629 0 0.8660188 -0.5000116 0 0.9182235 -0.3960629 0 0.9579842 -0.2868211 0 0.9579845 -0.2868202 0 0.9848063 -0.1736565 0 0.9848065 -0.1736555 0 0.9983075 -0.0581572 0 0.9983076 -0.05815619 0 -0.763946 0.1604739 0.6250077 -0.7639362 0.1605737 0.6249943 -0.5212062 -0.5811359 0.6250002 -0.5212268 -0.5811147 0.6250028 -0.5827403 0.5194163 0.6249964 -0.5827496 0.519402 0.6249997 -0.1594994 -0.7641523 0.625005 -0.159456 -0.7641654 0.625 -0.2479168 0.7402112 0.6249997 -0.2479411 0.7402004 0.6250029 0.2455432 -0.7410006 0.6250014 0.2454726 -0.7410162 0.6250106 0.1519122 0.7656925 0.6250103 0.1518231 0.7657189 0.6249995 0.5839211 -0.5180826 0.6250013 0.5839437 -0.5180631 0.6249964 0.5168236 0.5742933 0.6348863 0.5168077 0.5743044 0.6348891 0.7647712 -0.1565188 0.6250014 0.7647697 -0.1565279 0.6250011 0.7409069 0.245815 0.6250056 0.7408989 0.2458499 0.6250014 2.75033e-7 0 1 -2.64003e-7 0 1 1.31967e-7 0 1 2.63645e-7 0 1 1.31634e-7 0 1 -5.26003e-7 0 1 -3.28358e-7 0 1 1.3832e-7 0 1 5.54041e-7 0 1 0 0 1 0 0 1 3.46276e-7 0 1 -5.25373e-7 0 1 -1.3832e-7 0 1 5.26003e-7 0 1 -1.38137e-7 0 1 -2.75673e-7 0 1 5.2729e-7 0 1 -1.37646e-7 0 1 2.64003e-7 0 1 -2.75033e-7 0 1 2.75033e-7 0 1 -1.31967e-7 0 1 -2.63645e-7 0 1 5.51346e-7 0 1 -1.31634e-7 0 1 -2.63001e-7 0 1 3.28358e-7 0 1 -5.54041e-7 0 1 -1.31175e-7 0 1 1.30796e-7 0 1 -1.30796e-7 0 1 -3.46276e-7 0 1 1.31175e-7 0 1 1.38137e-7 0 1 5.25373e-7 0 1 2.63001e-7 0 1 2.75673e-7 0 1 1.37646e-7 0 1 -2.75033e-7 0 1</float_array>
          <technique_common>
            <accessor source="#shape0_031-mesh-normals-array" count="616" stride="3">
              <param name="X" type="float"/>
              <param name="Y" type="float"/>
              <param name="Z" type="float"/>
            </accessor>
          </technique_common>
        </source>
        <vertices id="shape0_031-mesh-vertices">
          <input semantic="POSITION" source="#shape0_031-mesh-positions"/>
        </vertices>
        <triangles material="Material_019-material" count="940">
          <input semantic="VERTEX" source="#shape0_031-mesh-vertices" offset="0"/>
          <input semantic="NORMAL" source="#shape0_031-mesh-normals" offset="1"/>
          <p>0 0 1 0 2 0 3 0 4 0 1 0 5 0 6 0 0 0 7 0 0 0 6 0 8 0 5 0 0 0 9 0 0 0 7 0 10 0 0 0 11 0 10 0 8 0 0 0 12 0 1 0 0 0 12 0 0 0 9 0 13 0 10 0 11 0 14 0 1 0 12 0 15 0 1 0 14 0 16 0 17 0 3 0 18 0 19 0 13 0 18 0 20 0 19 0 18 0 21 0 20 0 18 0 13 0 11 0 22 0 21 0 18 0 23 0 22 0 18 0 24 0 23 0 18 0 25 0 26 0 1 0 27 0 1 0 26 0 28 0 1 0 15 0 28 0 25 0 1 0 29 0 3 0 1 0 29 0 1 0 27 0 30 0 15 0 31 0 30 0 28 0 15 0 32 0 3 0 29 0 33 0 30 0 31 0 33 0 31 0 34 0 35 0 3 0 32 0 36 0 33 0 34 0 36 0 34 0 37 0 38 0 3 0 35 0 39 0 36 0 37 0 39 0 37 0 40 0 41 0 16 0 3 0 41 0 3 0 38 0 42 0 39 0 40 0 42 0 40 0 43 0 44 0 16 0 41 0 45 0 42 0 43 0 45 0 43 0 46 0 47 0 16 0 44 0 48 0 45 0 46 0 48 0 46 0 49 0 50 0 16 0 47 0 51 0 48 0 49 0 51 0 49 0 52 0 53 0 16 0 50 0 54 0 51 0 52 0 54 0 52 0 55 0 56 0 57 0 16 0 56 0 16 0 53 0 56 0 58 0 59 0 56 0 53 0 58 0 60 0 18 0 61 0 60 0 54 0 55 0 60 0 55 0 24 0 60 0 62 0 54 0 60 0 24 0 18 0 63 0 62 0 60 0 64 0 56 0 59 0 65 0 63 0 60 0 66 0 56 0 64 0 67 0 65 0 60 0 68 0 69 0 70 0 71 0 68 0 70 0 71 0 70 0 72 0 73 0 69 0 68 0 73 0 56 0 66 0 73 0 66 0 69 0 74 0 71 0 72 0 74 0 72 0 75 0 76 0 56 0 73 0 77 0 74 0 75 0 77 0 75 0 78 0 79 0 77 0 78 0 79 0 78 0 80 0 81 0 79 0 80 0 81 0 80 0 82 0 83 0 56 0 76 0 83 0 84 0 85 0 83 0 86 0 84 0 83 0 87 0 56 0 83 0 76 0 86 0 88 0 60 0 89 0 88 0 67 0 60 0 88 0 90 0 67 0 88 0 91 0 90 0 88 0 92 0 91 0 88 0 93 0 92 0 94 0 81 0 82 0 94 0 82 0 95 0 96 0 83 0 85 0 97 0 94 0 95 0 97 0 95 0 98 0 99 0 83 0 96 0 100 0 97 0 98 0 101 0 83 0 99 0 102 0 83 0 101 0 103 0 93 0 88 0 103 0 104 0 93 0 103 0 105 0 104 0 103 0 106 0 105 0 103 0 107 0 106 0 108 0 109 0 110 0 108 0 111 0 109 0 108 0 112 0 111 0 108 0 113 0 112 0 108 0 114 0 113 0 108 0 115 0 114 0 116 0 102 0 115 0 116 0 83 0 102 0 116 0 115 0 108 0 117 0 103 0 88 0 118 0 110 0 100 0 118 0 100 0 98 0 118 0 108 0 110 0 118 0 107 0 103 0 118 0 119 0 107 0 118 0 120 0 119 0 118 0 121 0 120 0 118 0 98 0 121 0 122 0 118 0 103 0 123 0 108 0 118 0 124 1 61 1 125 1 60 2 124 2 126 2 60 3 61 3 124 3 125 4 61 4 18 4 127 4 125 4 18 4 128 5 89 5 60 5 126 6 128 6 60 6 127 7 18 7 129 7 130 8 129 8 11 8 129 9 18 9 11 9 131 10 89 10 128 10 88 11 131 11 132 11 88 12 89 12 131 12 130 13 0 13 133 13 11 13 0 13 130 13 117 14 88 14 132 14 117 15 132 15 134 15 135 16 2 16 136 16 0 17 135 17 133 17 0 18 2 18 135 18 137 19 117 19 134 19 103 20 137 20 138 20 103 21 117 21 137 21 136 22 2 22 1 22 139 23 136 23 1 23 122 24 103 24 138 24 122 25 138 25 140 25 141 26 4 26 142 26 1 27 141 27 139 27 1 28 4 28 141 28 143 29 122 29 140 29 118 30 143 30 144 30 118 31 122 31 143 31 142 32 3 32 145 32 4 33 3 33 142 33 123 34 118 34 144 34 123 34 144 34 146 34 147 35 17 35 148 35 3 36 147 36 145 36 3 37 17 37 147 37 149 38 123 38 146 38 108 39 149 39 150 39 108 40 123 40 149 40 17 41 16 41 151 41 17 42 151 42 148 42 116 43 108 43 150 43 116 43 150 43 152 43 153 44 57 44 154 44 16 45 153 45 151 45 16 46 57 46 153 46 155 47 83 47 156 47 152 48 156 48 116 48 156 49 83 49 116 49 154 50 56 50 157 50 57 51 56 51 154 51 87 52 83 52 155 52 87 53 155 53 158 53 159 54 87 54 158 54 56 55 159 55 157 55 56 56 87 56 159 56 160 57 40 58 37 59 161 60 160 60 37 60 161 61 37 61 34 61 162 62 161 62 34 62 163 63 164 63 9 63 165 64 163 64 9 64 164 63 12 63 9 63 162 65 34 65 31 65 166 65 162 65 31 65 165 66 9 66 7 66 167 67 166 67 15 67 166 68 31 68 15 68 168 69 165 69 6 69 165 70 7 70 6 70 167 71 15 71 14 71 169 72 167 72 14 72 164 73 169 74 14 75 170 76 168 76 5 76 164 77 14 78 12 79 168 76 6 76 5 76 171 80 170 80 8 80 172 81 171 81 8 81 170 82 5 82 8 82 172 83 8 83 10 83 173 84 172 84 13 84 172 85 10 85 13 85 174 86 173 86 19 86 173 87 13 87 19 87 175 88 174 88 20 88 176 89 175 89 20 89 174 90 19 90 20 90 176 91 20 91 21 91 177 92 176 92 22 92 176 92 21 92 22 92 177 93 22 93 23 93 178 94 177 94 23 94 179 95 178 95 23 95 179 95 23 95 24 95 179 96 24 96 55 96 180 97 179 97 55 97 181 98 180 98 55 98 181 98 55 98 52 98 181 99 52 99 49 99 182 100 181 100 49 100 182 101 49 101 46 101 183 102 182 102 46 102 183 103 46 103 43 103 184 104 183 104 43 104 184 105 43 105 40 105 160 106 184 106 40 106 185 107 186 107 41 107 185 108 41 108 38 108 187 109 185 109 38 109 187 110 38 110 35 110 188 111 187 111 35 111 188 112 35 112 32 112 189 113 188 113 32 113 189 114 32 114 29 114 190 115 189 115 29 115 190 115 29 115 27 115 191 116 190 116 27 116 191 117 27 117 26 117 192 118 191 118 26 118 192 119 26 119 25 119 193 120 192 120 25 120 193 121 25 121 28 121 194 122 193 122 28 122 195 123 194 123 30 123 194 124 28 124 30 124 196 125 195 125 33 125 195 126 30 126 33 126 197 127 196 127 36 127 196 128 33 128 36 128 198 129 197 129 39 129 197 130 36 130 39 130 198 129 39 129 42 129 199 131 198 131 45 131 198 132 42 132 45 132 200 133 201 133 48 133 201 134 199 134 48 134 199 135 45 135 48 135 200 136 48 136 51 136 202 137 200 137 54 137 200 138 51 138 54 138 203 139 202 139 62 139 202 140 54 140 62 140 204 141 203 141 63 141 203 142 62 142 63 142 205 143 204 143 65 143 204 144 63 144 65 144 206 145 205 145 67 145 205 145 65 145 67 145 207 146 206 146 90 146 206 147 67 147 90 147 208 148 207 148 91 148 207 149 90 149 91 149 208 150 91 150 92 150 209 151 208 151 92 151 209 152 92 152 93 152 210 153 209 153 93 153 210 154 93 154 104 154 211 155 210 155 104 155 211 156 104 156 105 156 212 157 211 157 105 157 212 158 105 158 106 158 213 159 212 159 106 159 214 160 213 160 107 160 213 161 106 161 107 161 215 162 214 162 119 162 214 162 107 162 119 162 216 163 215 163 120 163 215 164 119 164 120 164 217 165 216 165 121 165 216 166 120 166 121 166 218 167 217 167 98 167 217 168 121 168 98 168 219 169 220 169 95 169 220 170 218 170 95 170 218 171 98 171 95 171 219 172 95 172 82 172 221 173 222 173 80 173 222 174 219 174 80 174 219 175 82 175 80 175 221 176 80 176 78 176 223 177 224 177 75 177 224 178 221 178 75 178 221 178 78 178 75 178 225 179 223 179 72 179 223 180 75 180 72 180 226 181 225 181 70 181 225 182 72 182 70 182 227 183 226 183 69 183 226 184 70 184 69 184 228 185 227 185 66 185 227 186 69 186 66 186 229 187 228 187 64 187 228 188 66 188 64 188 230 189 229 189 59 189 229 190 64 190 59 190 231 191 230 191 58 191 230 192 59 192 58 192 232 193 231 193 53 193 231 191 58 191 53 191 233 194 232 194 50 194 232 195 53 195 50 195 234 196 233 196 47 196 233 197 50 197 47 197 234 198 47 198 44 198 186 199 234 199 41 199 234 200 44 200 41 200 235 201 102 201 101 201 236 202 235 202 101 202 236 203 101 203 99 203 237 204 236 204 99 204 238 205 239 206 76 207 240 208 238 208 76 208 239 209 86 210 76 205 237 65 99 65 96 65 241 65 237 65 96 65 240 211 76 211 73 211 242 212 241 212 85 212 241 213 96 213 85 213 243 214 240 214 68 214 240 215 73 215 68 215 242 216 85 216 84 216 244 217 242 217 84 217 239 218 244 218 84 218 245 76 243 76 71 76 239 218 84 218 86 218 243 76 68 76 71 76 246 219 245 219 74 219 247 220 246 220 74 220 245 221 71 221 74 221 247 222 74 223 77 224 248 225 247 225 79 225 247 226 77 226 79 226 249 227 248 227 81 227 248 228 79 228 81 228 250 88 249 88 94 88 251 229 250 229 94 229 249 90 81 90 94 90 251 230 94 230 97 230 252 92 251 92 100 92 251 92 97 92 100 92 252 231 100 231 110 231 253 232 252 232 110 232 254 95 253 95 110 95 254 95 110 95 109 95 254 233 109 233 111 233 255 234 254 234 111 234 256 98 255 98 111 98 256 98 111 98 112 98 256 235 112 235 113 235 257 236 256 236 113 236 257 101 113 101 114 101 258 102 257 102 114 102 258 237 114 237 115 237 259 238 258 238 115 238 259 239 115 239 102 239 235 240 259 240 102 240 125 241 260 241 124 241 135 242 261 242 133 242 261 243 139 243 262 243 139 243 141 243 262 243 133 244 261 244 263 244 263 245 168 245 170 245 168 243 263 243 165 243 263 246 170 246 171 246 165 243 263 243 163 243 129 247 263 247 172 247 263 248 171 248 172 248 263 249 261 249 164 249 163 243 263 243 164 243 129 250 172 250 173 250 164 251 261 251 169 251 262 252 145 252 264 252 145 253 147 253 264 253 173 243 174 243 127 243 174 243 175 243 127 243 129 254 173 254 127 254 175 243 176 243 265 243 176 243 177 243 265 243 177 255 178 255 265 255 127 243 175 243 265 243 265 256 178 256 179 256 265 257 179 257 180 257 266 243 261 243 267 243 261 258 266 258 268 258 261 259 262 259 269 259 267 243 261 243 269 243 167 243 169 243 270 243 169 260 261 260 270 260 261 261 268 261 270 261 269 243 262 243 271 243 167 262 270 262 272 262 166 243 167 243 272 243 271 243 262 243 273 243 166 263 272 263 274 263 162 264 166 264 274 264 273 243 262 243 275 243 161 243 162 243 276 243 162 265 274 265 276 265 275 243 262 243 277 243 160 243 161 243 278 243 161 266 276 266 278 266 277 243 262 243 279 243 262 243 264 243 279 243 184 243 160 243 280 243 160 243 278 243 280 243 279 243 264 243 281 243 182 243 183 243 282 243 183 243 184 243 282 243 184 267 280 267 282 267 281 268 264 268 283 268 182 269 282 269 284 269 181 243 182 243 284 243 283 270 264 270 285 270 181 271 284 271 286 271 285 272 264 272 287 272 180 243 181 243 288 243 181 273 286 273 288 273 264 274 151 274 289 274 151 275 153 275 289 275 287 276 264 276 289 276 290 243 287 243 289 243 291 243 290 243 289 243 124 277 265 277 126 277 291 278 289 278 292 278 265 279 180 279 293 279 126 243 265 243 293 243 180 243 288 243 293 243 294 243 295 243 293 243 288 243 294 243 293 243 293 280 295 280 296 280 292 243 289 243 297 243 293 281 296 281 298 281 297 243 289 243 299 243 293 282 298 282 300 282 301 243 302 243 243 243 301 283 243 283 245 283 303 284 301 284 245 284 243 243 302 243 240 243 302 243 299 243 240 243 303 285 245 285 246 285 304 286 303 286 246 286 240 243 299 243 238 243 299 287 289 287 238 287 289 243 157 243 305 243 157 288 159 288 305 288 238 243 289 243 305 243 304 289 246 289 247 289 306 243 304 243 247 243 238 243 305 243 239 243 307 290 306 290 248 290 306 291 247 291 248 291 239 243 305 243 244 243 307 292 248 292 249 292 244 243 305 243 242 243 131 293 293 293 132 293 132 243 293 243 308 243 309 243 310 243 308 243 311 294 309 294 308 294 312 295 311 295 308 295 300 296 312 296 308 296 293 297 300 297 308 297 307 298 249 298 250 298 313 243 307 243 250 243 242 243 305 243 241 243 314 243 313 243 251 243 315 243 314 243 251 243 313 299 250 299 251 299 305 300 155 300 237 300 241 301 305 301 237 301 315 302 251 302 252 302 237 243 155 243 236 243 253 243 254 243 316 243 254 243 255 243 316 243 255 243 256 243 316 243 256 243 257 243 316 243 257 243 258 243 316 243 258 243 259 243 316 243 259 243 235 243 156 243 235 243 236 243 156 243 236 303 155 303 156 303 316 243 259 243 156 243 317 304 318 304 319 304 320 243 317 243 319 243 321 243 320 243 319 243 322 305 321 305 319 305 310 306 322 306 319 306 308 307 310 307 319 307 308 308 319 308 138 308 308 309 138 309 137 309 319 310 318 310 323 310 316 243 150 243 323 243 252 311 253 311 323 311 315 312 252 312 323 312 324 243 315 243 323 243 325 243 324 243 323 243 326 313 325 313 323 313 318 243 326 243 323 243 253 243 316 243 323 243 319 314 323 314 144 314 323 315 150 315 149 315 319 243 144 243 143 243 327 316 125 316 127 316 328 317 128 317 126 317 130 318 329 318 129 318 128 319 330 319 131 319 331 320 130 320 133 320 332 321 134 321 132 321 136 322 333 322 135 322 134 323 334 323 137 323 136 324 139 324 335 324 336 325 140 325 138 325 142 326 337 326 141 326 140 327 338 327 143 327 339 328 142 328 145 328 146 329 144 329 340 329 148 330 341 330 147 330 342 331 149 331 146 331 148 332 151 332 343 332 152 333 150 333 344 333 154 334 345 334 153 334 152 335 346 335 156 335 154 336 157 336 347 336 348 337 158 337 155 337 349 338 159 338 158 338 234 339 186 339 350 339 234 340 350 340 351 340 233 198 234 198 351 198 233 341 351 341 352 341 232 197 233 197 352 197 232 342 352 342 353 342 231 193 232 193 353 193 231 343 353 343 354 343 230 191 231 191 354 191 230 344 354 344 355 344 229 345 230 345 355 345 229 345 355 345 356 345 228 190 229 190 356 190 228 346 356 346 357 346 228 347 357 347 358 347 227 185 228 185 358 185 226 186 227 186 358 186 226 348 358 348 359 348 226 349 359 349 360 349 225 181 226 181 360 181 223 182 225 182 360 182 223 350 360 350 361 350 223 351 361 351 362 351 224 177 223 177 362 177 224 178 362 178 363 178 221 178 224 178 363 178 222 176 221 176 363 176 222 352 363 352 364 352 219 174 222 174 364 174 219 353 364 353 365 353 220 354 365 354 366 354 220 172 219 172 365 172 220 355 366 355 367 355 218 171 220 171 367 171 217 356 367 356 368 356 217 167 218 167 367 167 216 166 368 166 369 166 216 357 369 357 370 357 216 358 217 358 368 358 215 357 216 357 370 357 214 359 370 359 371 359 214 360 215 360 370 360 213 361 371 361 372 361 213 161 214 161 371 161 212 362 372 362 373 362 212 363 213 363 372 363 211 156 373 156 374 156 211 364 374 364 375 364 211 365 212 365 373 365 210 366 211 366 375 366 210 367 375 367 376 367 209 368 210 368 376 368 208 151 209 151 376 151 208 369 376 369 377 369 208 370 377 370 378 370 207 371 208 371 378 371 206 147 207 147 378 147 206 372 378 372 379 372 205 145 206 145 379 145 205 373 379 373 380 373 204 374 205 374 380 374 204 374 380 374 381 374 203 141 204 141 381 141 203 375 381 375 382 375 202 140 203 140 382 140 202 376 382 376 383 376 200 137 202 137 383 137 200 377 383 377 384 377 201 136 200 136 384 136 201 378 384 378 385 378 199 134 201 134 385 134 199 379 385 379 386 379 198 380 199 380 386 380 198 381 386 381 387 381 197 129 198 129 387 129 197 129 387 129 388 129 196 130 197 130 388 130 196 382 388 382 389 382 195 128 196 128 389 128 195 383 389 383 390 383 194 126 195 126 390 126 194 384 390 384 391 384 193 122 194 122 391 122 193 385 391 385 392 385 193 386 392 386 393 386 192 121 193 121 393 121 191 387 192 387 393 387 191 118 393 118 394 118 190 388 191 388 394 388 190 388 394 388 395 388 189 389 190 389 395 389 189 390 395 390 396 390 189 391 396 391 397 391 188 114 189 114 397 114 187 392 188 392 397 392 187 393 397 393 398 393 187 394 398 394 399 394 185 395 399 395 350 395 185 109 187 109 399 109 186 396 185 396 350 396 124 397 260 398 400 399 124 400 400 400 265 400 125 401 327 401 400 401 125 402 400 402 260 402 327 403 127 403 265 403 327 404 265 404 400 404 129 405 329 405 401 405 263 406 129 406 401 406 401 407 133 407 263 407 331 408 133 408 401 408 328 409 126 409 293 409 328 410 293 410 402 410 403 411 135 412 333 413 403 414 261 414 135 414 131 415 330 416 402 417 131 418 402 418 293 418 403 419 139 419 261 419 335 420 139 420 403 420 332 421 132 421 308 421 332 422 308 422 404 422 141 423 337 424 405 425 262 426 141 426 405 426 308 427 334 427 404 427 137 0 334 0 308 0 339 428 145 428 262 428 339 429 262 429 405 429 406 430 138 430 319 430 336 431 138 431 406 431 407 432 264 432 147 432 407 433 147 433 341 433 143 434 338 435 406 436 319 437 143 437 406 437 407 438 343 438 264 438 264 439 343 439 151 439 408 440 340 440 144 440 323 441 408 441 144 441 409 442 289 442 153 442 409 443 153 444 345 445 408 446 149 446 342 446 408 447 323 447 149 447 347 448 157 448 289 448 347 449 289 449 409 449 410 450 150 450 316 450 344 451 150 451 410 451 305 452 349 452 411 452 159 243 349 243 305 243 410 453 156 453 346 453 410 454 316 454 156 454 411 455 348 455 155 455 305 456 411 456 155 456 412 457 279 457 281 457 413 458 412 458 281 458 413 459 281 459 283 459 414 460 413 460 283 460 414 461 283 461 285 461 415 462 414 462 285 462 415 463 285 463 287 463 416 464 415 464 287 464 416 465 287 465 290 465 417 466 416 466 290 466 417 467 290 467 291 467 418 468 417 468 291 468 418 469 291 469 292 469 419 470 418 470 292 470 419 471 292 471 297 471 420 472 419 472 297 472 420 473 297 473 299 473 421 474 420 474 299 474 422 475 421 475 299 475 422 476 299 476 302 476 422 477 302 477 301 477 423 477 422 477 301 477 423 478 301 478 303 478 424 479 423 479 303 479 425 480 424 480 304 480 424 480 303 480 304 480 426 129 425 129 304 129 426 129 304 129 306 129 427 481 426 481 307 481 428 482 427 482 307 482 426 483 306 483 307 483 428 484 307 484 313 484 429 485 428 485 314 485 430 486 429 486 314 486 428 485 313 485 314 485 430 487 314 487 315 487 431 488 430 488 324 488 430 489 315 489 324 489 432 490 431 490 325 490 433 491 432 491 325 491 431 492 324 492 325 492 433 493 325 493 326 493 434 494 433 494 318 494 433 495 326 495 318 495 434 496 318 496 317 496 435 497 434 497 317 497 435 498 317 498 320 498 436 499 435 499 320 499 437 500 436 500 320 500 437 501 320 501 321 501 437 502 321 502 322 502 438 503 437 503 322 503 438 504 322 504 310 504 439 505 438 505 310 505 440 506 439 506 310 506 440 507 310 507 309 507 440 508 309 508 311 508 441 509 440 509 311 509 441 510 311 510 312 510 442 511 441 511 312 511 443 512 442 512 312 512 443 513 312 513 300 513 443 514 300 514 298 514 444 515 443 515 298 515 444 516 298 516 296 516 445 517 444 517 296 517 446 518 445 518 296 518 446 519 296 519 295 519 446 520 295 520 294 520 447 521 446 521 294 521 447 522 294 522 288 522 448 523 447 523 288 523 448 524 288 524 286 524 449 525 448 525 286 525 449 526 286 526 284 526 450 526 449 526 284 526 450 527 284 527 282 527 451 528 450 528 282 528 451 529 282 529 280 529 452 529 451 529 280 529 452 178 280 178 278 178 453 178 452 178 278 178 454 530 453 530 278 530 454 530 278 530 276 530 454 531 276 531 274 531 455 532 454 532 274 532 455 533 274 533 272 533 456 533 455 533 272 533 457 534 458 534 270 534 456 535 272 535 270 535 458 536 456 536 270 536 457 537 270 537 268 537 459 538 457 538 266 538 457 539 268 539 266 539 460 540 459 540 267 540 459 541 266 541 267 541 461 542 460 542 269 542 460 543 267 543 269 543 462 544 461 544 271 544 463 545 462 545 271 545 461 546 269 546 271 546 463 547 271 547 273 547 464 548 463 548 275 548 463 549 273 549 275 549 465 550 464 550 277 550 464 551 275 551 277 551 412 552 465 552 279 552 465 553 277 553 279 553 128 554 328 554 402 554 128 555 402 555 330 555 329 556 331 556 401 556 130 557 331 557 329 557 134 558 332 558 404 558 134 559 404 559 334 559 333 560 335 560 403 560 136 561 335 561 333 561 140 562 336 562 406 562 140 563 406 563 338 563 337 564 339 564 405 564 142 565 339 565 337 565 342 566 146 566 340 566 408 567 342 567 340 567 341 568 148 568 343 568 407 569 341 569 343 569 152 570 344 570 410 570 152 571 410 571 346 571 154 572 347 572 409 572 154 573 409 573 345 573 349 574 158 574 348 574 411 575 349 575 348 575 459 243 460 243 394 243 459 576 394 576 393 576 457 577 459 577 393 577 394 243 460 243 395 243 460 578 461 578 395 578 457 243 393 243 392 243 458 243 457 243 392 243 395 243 461 243 396 243 461 579 462 579 396 579 458 243 392 243 391 243 456 243 458 243 391 243 396 243 462 243 397 243 462 580 463 580 397 580 456 243 391 243 390 243 455 581 456 581 390 581 397 243 463 243 398 243 463 582 464 582 398 582 454 243 455 243 389 243 455 583 390 583 389 583 398 584 464 584 399 584 464 243 465 243 399 243 454 585 389 585 388 585 453 243 454 243 388 243 412 243 413 243 350 243 465 243 412 243 350 243 399 243 465 243 350 243 453 243 388 243 387 243 451 243 452 243 387 243 452 243 453 243 387 243 350 243 413 243 351 243 351 243 413 243 414 243 451 586 387 586 386 586 451 243 386 243 450 243 351 587 414 587 352 587 352 588 414 588 415 588 450 589 386 589 385 589 450 590 385 590 449 590 352 591 415 591 353 591 353 243 415 243 416 243 449 243 385 243 384 243 449 243 384 243 448 243 353 592 416 592 354 592 354 593 416 593 417 593 448 243 384 243 383 243 448 243 383 243 447 243 354 594 417 594 355 594 355 243 417 243 418 243 447 243 383 243 382 243 447 595 382 595 446 595 355 243 418 243 356 243 446 596 382 596 381 596 356 243 418 243 419 243 356 597 419 597 357 597 446 243 381 243 445 243 445 243 381 243 380 243 357 577 419 577 420 577 357 243 420 243 358 243 445 598 380 598 444 598 444 243 380 243 379 243 358 243 420 243 421 243 358 243 421 243 359 243 444 599 379 599 443 599 443 600 379 600 378 600 359 243 421 243 422 243 359 243 422 243 360 243 443 601 378 601 442 601 442 243 378 243 377 243 360 602 422 602 423 602 360 243 423 243 361 243 442 603 377 603 441 603 441 604 377 604 376 604 361 605 423 605 424 605 362 243 361 243 424 243 441 243 376 243 440 243 376 243 375 243 440 243 362 606 424 606 425 606 363 243 362 243 425 243 440 243 375 243 439 243 363 243 425 243 426 243 439 243 375 243 438 243 375 243 374 243 438 243 364 243 363 243 427 243 363 607 426 607 427 607 374 608 373 608 437 608 438 243 374 243 437 243 365 243 364 243 428 243 364 609 427 609 428 609 373 610 372 610 436 610 437 611 373 611 436 611 366 243 365 243 429 243 365 612 428 612 429 612 372 613 371 613 435 613 436 243 372 243 435 243 366 243 429 243 430 243 367 243 366 243 430 243 435 243 371 243 434 243 371 614 370 614 434 614 367 243 430 243 431 243 368 243 367 243 431 243 434 243 370 243 433 243 370 243 369 243 433 243 369 615 368 615 432 615 433 243 369 243 432 243 368 595 431 595 432 595</p>
        </triangles>
      </mesh>
    </geometry>
  </library_geometries>
  <library_visual_scenes>
    <visual_scene id="Scene" name="Scene">
      <node id="node" name="node" type="NODE">
        <matrix sid="transform">1 0 0 0 0 1 0 0 0 0 1 0 0 0 0 1</matrix>
        <instance_geometry url="#shape0_031-mesh" name="node">
          <bind_material>
            <technique_common>
              <instance_material symbol="Material_019-material" target="#Material_019-material"/>
            </technique_common>
          </bind_material>
        </instance_geometry>
      </node>
    </visual_scene>
  </library_visual_scenes>
  <scene>
    <instance_visual_scene url="#Scene"/>
  </scene>
</COLLADA>