<?xml version="1.0" encoding="utf-8"?>
<COLLADA xmlns="http://www.collada.org/2005/11/COLLADASchema" version="1.4.1" xmlns:xsi="http://www.w3.org/2001/XMLSchema-instance">
  <asset>
    <contributor>
      <author>Blender User</author>
      <authoring_tool>Blender 4.2.1 LTS commit date:2024-08-19, commit time:11:21, hash:396f546c9d82</authoring_tool>
    </contributor>
    <created>2024-09-16T17:07:56</created>
    <modified>2024-09-16T17:07:56</modified>
    <unit name="meter" meter="1"/>
    <up_axis>Z_UP</up_axis>
  </asset>
  <library_effects>
    <effect id="GREEN-effect">
      <profile_COMMON>
        <technique sid="common">
          <lambert>
            <emission>
              <color sid="emission">0 0 0 1</color>
            </emission>
            <diffuse>
              <color sid="diffuse">0 0.1435338 0.002934197 1</color>
            </diffuse>
            <index_of_refraction>
              <float sid="ior">1.5</float>
            </index_of_refraction>
          </lambert>
        </technique>
      </profile_COMMON>
    </effect>
  </library_effects>
  <library_images/>
  <library_materials>
    <material id="GREEN-material" name="GREEN">
      <instance_effect url="#GREEN-effect"/>
    </material>
  </library_materials>
  <library_geometries>
    <geometry id="shape0_003-mesh" name="shape0.003">
      <mesh>
        <source id="shape0_003-mesh-positions">
          <float_array id="shape0_003-mesh-positions-array" count="783">-14.9609 1.08237 20 -14.9609 1.08237 -2.499998 -15 0 20 -15 0 -2.499998 -14.9609 -1.08237 20 -14.9609 -1.08237 -2.499998 -14.8438 -2.15909 20 -14.8438 -2.15909 -2.499998 -14.6493 -3.22456 20 -14.6493 -3.22456 -2.499998 -14.3784 -4.27321 20 -14.3784 -4.27321 -2.499998 -14.0326 -5.29959 20 -14.0326 -5.29959 -2.499998 -13.6136 -6.29834 20 -13.6136 -6.29834 -2.499998 -13.1237 -7.26425 20 -13.1237 -7.26425 -2.499998 -12.5653 -8.19229 20 -12.5653 -8.19229 -2.499998 -11.9414 -9.07761 20 -11.9414 -9.07761 -2.499998 -11.2552 -9.91561 20 -11.2552 -9.91561 -2.499998 -10.5104 -10.7019 20 -10.5104 -10.7019 -2.499998 -9.71079 -11.4324 20 -9.71079 -11.4324 -2.499998 -8.86054 -12.1033 20 -8.86054 -12.1033 -2.499998 -7.96409 -12.7111 20 -7.96409 -12.7111 -2.499998 -7.02613 -13.2527 20 -7.02613 -13.2527 -2.499998 -6.05153 -13.7251 20 -6.05153 -13.7251 -2.499998 -5.04538 -14.126 20 -5.04538 -14.126 -2.499998 -4.01293 -14.4532 20 -4.01293 -14.4532 -2.499998 -2.95955 -14.7051 20 -2.95955 -14.7051 -2.499998 -1.89075 -14.8804 20 -1.89075 -14.8804 -2.499998 -0.812084 -14.978 20 -0.812084 -14.978 -2.499998 0.270812 -14.9976 20 0.270812 -14.9976 -2.499998 1.3523 -14.9389 20 1.3523 -14.9389 -2.499998 2.42673 -14.8024 20 2.42673 -14.8024 -2.499998 3.48851 -14.5887 20 3.48851 -14.5887 -2.499998 4.53211 -14.299 20 4.53211 -14.299 -2.499998 5.55207 -13.9347 20 5.55207 -13.9347 -2.499998 6.54309 -13.4977 20 6.54309 -13.4977 -2.499998 7.5 -12.9904 20 7.5 -12.9904 -2.499998 8.41781 -12.4153 20 8.41781 -12.4153 -2.499998 9.29173 -11.7756 20 9.29173 -11.7756 -2.499998 10.1172 -11.0744 20 10.1172 -11.0744 -2.499998 10.8899 -10.3155 20 10.8899 -10.3155 -2.499998 11.6059 -9.50281 20 11.6059 -9.50281 -2.499998 12.2613 -8.640581 20 12.2613 -8.640581 -2.499998 12.8529 -7.73331 20 12.8529 -7.73331 -2.499998 13.3774 -6.78572 20 13.3774 -6.78572 -2.499998 13.8321 -5.80275 20 13.8321 -5.80275 -2.499998 14.2148 -4.78952 20 14.2148 -4.78952 -2.499998 14.5233 -3.75133 20 14.5233 -3.75133 -2.499998 14.7562 -2.69358 20 14.7562 -2.69358 -2.499998 14.9121 -1.62179 20 14.9121 -1.62179 -2.499998 14.9902 -0.541536 20 14.9902 -0.541536 -2.499998 14.9902 0.541536 20 14.9902 0.541536 -2.499998 14.9121 1.62179 20 14.9121 1.62179 -2.499998 14.7562 2.69358 20 14.7562 2.69358 -2.499998 14.5233 3.75133 20 14.5233 3.75133 -2.499998 14.2148 4.78952 20 14.2148 4.78952 -2.499998 13.8321 5.80275 20 13.8321 5.80275 -2.499998 13.3774 6.78572 20 13.3774 6.78572 -2.499998 12.8529 7.73331 20 12.8529 7.73331 -2.499998 12.2613 8.640581 20 12.2613 8.640581 -2.499998 11.6059 9.50281 20 11.6059 9.50281 -2.499998 10.8899 10.3155 20 10.8899 10.3155 -2.499998 10.1172 11.0744 20 10.1172 11.0744 -2.499998 9.29173 11.7756 20 9.29173 11.7756 -2.499998 8.41781 12.4153 20 8.41781 12.4153 -2.499998 7.5 12.9904 20 7.5 12.9904 -2.499998 6.54309 13.4977 20 6.54309 13.4977 -2.499998 5.55207 13.9347 20 5.55207 13.9347 -2.499998 4.53211 14.299 20 4.53211 14.299 -2.499998 3.48851 14.5887 20 3.48851 14.5887 -2.499998 2.42673 14.8024 20 2.42673 14.8024 -2.499998 1.3523 14.9389 20 1.3523 14.9389 -2.499998 0.270812 14.9976 20 0.270812 14.9976 -2.499998 -0.812084 14.978 20 -0.812084 14.978 -2.499998 -1.89075 14.8804 20 -1.89075 14.8804 -2.499998 -2.95955 14.7051 20 -2.95955 14.7051 -2.499998 -4.01293 14.4532 20 -4.01293 14.4532 -2.499998 -5.04538 14.126 20 -5.04538 14.126 -2.499998 -6.05153 13.7251 20 -6.05153 13.7251 -2.499998 -7.02613 13.2527 20 -7.02613 13.2527 -2.499998 -7.96409 12.7111 20 -7.96409 12.7111 -2.499998 -8.86054 12.1033 20 -8.86054 12.1033 -2.499998 -9.71079 11.4324 20 -9.71079 11.4324 -2.499998 -10.5104 10.7019 20 -10.5104 10.7019 -2.499998 -11.2552 9.91561 20 -11.2552 9.91561 -2.499998 -11.9414 9.07761 20 -11.9414 9.07761 -2.499998 -12.5653 8.19229 20 -12.5653 8.19229 -2.499998 -13.1237 7.26425 20 -13.1237 7.26425 -2.499998 -13.6136 6.29834 20 -13.6136 6.29834 -2.499998 -14.0326 5.29959 20 -14.0326 5.29959 -2.499998 -14.3784 4.27321 20 -14.3784 4.27321 -2.499998 -14.6493 3.22456 20 -14.6493 3.22456 -2.499998 -14.8438 2.15909 20 -14.8438 2.15909 -2.499998 -14.9609 -1.08237 -25 -15 0 -25 -14.9609 1.08237 -25 -14.8438 2.15909 -25 -14.6493 3.22456 -25 -14.3784 4.27321 -25 -14.0326 5.29959 -25 -13.6136 6.29834 -25 -13.1237 7.26425 -25 -12.5653 8.19229 -25 -11.9414 9.07761 -25 -11.2552 9.91561 -25 -10.5104 10.7019 -25 -9.71079 11.4324 -25 -8.86054 12.1033 -25 -7.96409 12.7111 -25 -7.02613 13.2527 -25 -6.05153 13.7251 -25 -5.04538 14.126 -25 -4.01293 14.4532 -25 -2.95955 14.7051 -25 -1.89075 14.8804 -25 -0.812084 14.978 -25 0.270812 14.9976 -25 1.3523 14.9389 -25 2.42673 14.8024 -25 3.48851 14.5887 -25 4.53211 14.299 -25 5.55207 13.9347 -25 6.54309 13.4977 -25 7.5 12.9904 -25 8.41781 12.4153 -25 9.29173 11.7756 -25 10.1172 11.0744 -25 10.8899 10.3155 -25 11.6059 9.50281 -25 12.2613 8.640581 -25 12.8529 7.73331 -25 13.3774 6.78572 -25 13.8321 5.80275 -25 14.2148 4.78952 -25 14.5233 3.75133 -25 14.7562 2.69358 -25 14.9121 1.62179 -25 14.9902 0.541536 -25 14.9902 -0.541536 -25 14.9121 -1.62179 -25 14.7562 -2.69358 -25 14.5233 -3.75133 -25 14.2148 -4.78952 -25 13.8321 -5.80275 -25 13.3774 -6.78572 -25 12.8529 -7.73331 -25 12.2613 -8.640581 -25 11.6059 -9.50281 -25 10.8899 -10.3155 -25 10.1172 -11.0744 -25 9.29173 -11.7756 -25 8.41781 -12.4153 -25 7.5 -12.9904 -25 6.54309 -13.4977 -25 5.55207 -13.9347 -25 4.53211 -14.299 -25 3.48851 -14.5887 -25 2.42673 -14.8024 -25 1.3523 -14.9389 -25 0.270812 -14.9976 -25 -0.812084 -14.978 -25 -1.89075 -14.8804 -25 -2.95955 -14.7051 -25 -4.01293 -14.4532 -25 -5.04538 -14.126 -25 -6.05153 -13.7251 -25 -7.02613 -13.2527 -25 -7.96409 -12.7111 -25 -8.86054 -12.1033 -25 -9.71079 -11.4324 -25 -10.5104 -10.7019 -25 -11.2552 -9.91561 -25 -11.9414 -9.07761 -25 -12.5653 -8.19229 -25 -13.1237 -7.26425 -25 -13.6136 -6.29834 -25 -14.0326 -5.29959 -25 -14.3784 -4.27321 -25 -14.6493 -3.22456 -25 -14.8438 -2.15909 -25</float_array>
          <technique_common>
            <accessor source="#shape0_003-mesh-positions-array" count="261" stride="3">
              <param name="X" type="float"/>
              <param name="Y" type="float"/>
              <param name="Z" type="float"/>
            </accessor>
          </technique_common>
        </source>
        <source id="shape0_003-mesh-normals">
          <float_array id="shape0_003-mesh-normals-array" count="801">-0.9993482 0.03610128 0 -0.9993482 0.03610128 0 -0.9993482 -0.03610128 0 -0.9993482 -0.03610128 0 -0.9941379 -0.1081193 0 -0.9941383 -0.1081168 0 -0.9837431 -0.1795821 0 -0.9837435 -0.1795797 0 -0.9682143 -0.2501219 0 -0.9682149 -0.2501196 0 -0.9476606 -0.3192793 0 -0.9221388 -0.3868592 0 -0.8918483 -0.4523348 0 -0.8918472 -0.4523368 0 -0.8568498 -0.5155663 0 -0.8174161 -0.5760478 0 -0.8174173 -0.5760461 0 -0.7737018 -0.6335501 0 -0.7737022 -0.6335494 0 -0.7260013 -0.6876934 0 -0.7260025 -0.6876921 0 -0.6744819 -0.7382915 0 -0.6744812 -0.738292 0 -0.6194456 -0.7850396 0 -0.619445 -0.7850401 0 -0.5611814 -0.8276929 0 -0.561182 -0.8276925 0 -0.5000477 -0.8659979 0 -0.5000478 -0.865998 0 -0.4361737 -0.8998626 0 -0.4361736 -0.8998625 0 -0.3701493 -0.9289724 0 -0.302107 -0.953274 0 -0.302107 -0.953274 0 -0.232578 -0.9725778 0 -0.1618528 -0.986815 0 -0.1618528 -0.9868149 0 -0.09011483 -0.9959314 0 -0.09011483 -0.9959315 0 -0.01809567 -0.9998363 0 -0.01809567 -0.9998363 0 0.05419689 -0.9985303 0 0.1260314 -0.9920263 0 0.1260314 -0.9920263 0 0.1973094 -0.9803413 0 0.1973094 -0.9803413 0 0.2674807 -0.9635633 0 0.2674809 -0.9635633 0 0.3363604 -0.9417334 0 0.3363602 -0.9417334 0 0.4034746 -0.9149909 0 0.4034742 -0.9149911 0 0.4683935 -0.88352 0 0.468393 -0.8835203 0 0.5309737 -0.8473883 0 0.5309743 -0.847388 0 0.5906579 -0.8069221 0 0.590658 -0.8069221 0 0.6474069 -0.7621446 0 0.6474075 -0.762144 0 0.7007076 -0.7134485 0 0.7503317 -0.6610616 0 0.796116 -0.6051441 0 0.7961148 -0.6051457 0 0.8376514 -0.5462052 0 0.8376526 -0.5462035 0 0.874917 -0.4842731 0 0.8749158 -0.4842751 0 0.9075999 -0.4198364 0 0.9075999 -0.4198364 0 0.9354957 -0.3533383 0 0.9354948 -0.3533405 0 0.9585754 -0.2848388 0 0.9585741 -0.2848435 0 0.9766064 -0.2150353 0 0.9766069 -0.2150329 0 0.989586 -0.1439428 0 0.9973967 -0.07211011 0 0.9973967 -0.07211011 0 1 0 0 0.9973967 0.07211011 0 0.9973967 0.07211011 0 0.989586 0.1439428 0 0.9766069 0.2150329 0 0.9766064 0.2150353 0 0.9585741 0.2848435 0 0.9585754 0.2848388 0 0.9354948 0.3533404 0 0.9354957 0.3533383 0 0.9075999 0.4198364 0 0.9075999 0.4198364 0 0.8749158 0.4842751 0 0.874917 0.4842731 0 0.8376526 0.5462035 0 0.8376514 0.5462052 0 0.7961149 0.6051457 0 0.796116 0.6051442 0 0.7503317 0.6610616 0 0.7007076 0.7134485 0 0.6474075 0.762144 0 0.6474069 0.7621446 0 0.5906579 0.8069221 0 0.590658 0.8069221 0 0.5309743 0.847388 0 0.5309737 0.8473883 0 0.468393 0.8835204 0 0.4683935 0.88352 0 0.4034742 0.9149911 0 0.4034746 0.9149909 0 0.3363602 0.9417334 0 0.3363604 0.9417334 0 0.2674809 0.9635633 0 0.2674807 0.9635633 0 0.1973094 0.9803413 0 0.1973094 0.9803413 0 0.1260314 0.9920263 0 0.1260314 0.9920263 0 0.05419689 0.9985303 0 -0.01809567 0.9998363 0 -0.01809567 0.9998363 0 -0.09011483 0.9959315 0 -0.09011483 0.9959314 0 -0.1618528 0.9868149 0 -0.1618528 0.986815 0 -0.232578 0.9725778 0 -0.302107 0.953274 0 -0.302107 0.953274 0 -0.3701493 0.9289724 0 -0.4361737 0.8998626 0 -0.4361736 0.8998625 0 -0.5000477 0.8659979 0 -0.5000478 0.865998 0 -0.561182 0.8276925 0 -0.5611814 0.8276929 0 -0.619445 0.7850401 0 -0.6194456 0.7850396 0 -0.6744812 0.738292 0 -0.6744819 0.7382915 0 -0.7260025 0.6876921 0 -0.7260013 0.6876934 0 -0.7737024 0.6335494 0 -0.7737017 0.6335501 0 -0.8174173 0.5760461 0 -0.8174161 0.5760478 0 -0.8568498 0.5155663 0 -0.8918472 0.4523367 0 -0.8918483 0.4523348 0 -0.9221388 0.3868592 0 -0.9476606 0.3192793 0 -0.9682151 0.2501196 0 -0.9682143 0.250122 0 -0.9837435 0.1795797 0 -0.9837431 0.1795821 0 -0.9941383 0.1081168 0 -0.994138 0.1081193 0 -0.9993482 -0.03610128 0 -0.9993482 0.03610128 0 -0.9941379 0.1081193 0 -0.9941383 0.1081168 0 -0.9837431 0.1795821 0 -0.9682143 0.2501219 0 -0.9682149 0.2501196 0 -0.9476606 0.3192794 0 -0.817416 0.5760478 0 -0.7260013 0.6876934 0 -0.6744819 0.7382914 0 -0.6194456 0.7850396 0 -0.3701492 0.9289724 0 -0.1618528 0.986815 0 -0.1618528 0.9868149 0 0.1973094 0.9803413 0 0.6474069 0.7621446 0 0.7007077 0.7134485 0 0.796116 0.6051441 0 0.7961148 0.6051457 0 0.8376514 0.5462053 0 0.9075999 0.4198364 0 0.9585754 0.2848389 0 0.9075999 -0.4198364 0 0.8376525 -0.5462035 0 0.7961149 -0.6051457 0 0.796116 -0.6051442 0 0.7007077 -0.7134485 0 0.6474076 -0.762144 0 0.1973094 -0.9803413 0 -0.01809567 -0.9998363 0 -0.1618528 -0.9868149 0 -0.1618528 -0.986815 0 -0.3701492 -0.9289724 0 -0.6194456 -0.7850396 0 -0.6744813 -0.738292 0 -0.7260025 -0.6876921 0 -0.8174172 -0.5760461 0 -0.9476606 -0.3192794 0 -0.9682151 -0.2501196 0 -0.9682143 -0.250122 0 -0.9837434 -0.1795797 0 -0.9941383 -0.1081168 0 -0.994138 -0.1081193 0 0 0 1 0 0 1 0 0 1 0 0 1 0 0 1 0 0 1 1.30085e-7 0 1 -5.67515e-7 0 1 -7.03195e-7 0 1 1.30781e-7 0 1 4.02597e-7 0 1 1.42591e-7 0 1 -4.4301e-7 0 1 8.79845e-7 0 1 -7.53297e-7 0 1 2.78021e-7 0 1 0 0 1 1.66915e-6 0 1 -1.39311e-6 0 1 1.37587e-6 0 1 -2.06612e-6 0 1 5.43125e-7 0 1 -6.07696e-7 0 1 2.69411e-6 0 1 -6.99777e-7 0 1 9.38174e-7 0 1 -8.03856e-7 0 1 -9.2706e-7 0 1 4.29493e-7 0 1 -3.64249e-6 0 1 -8.24e-6 0 1 2.18339e-6 0 1 4.54159e-6 0 1 -2.26414e-5 0 1 4.51028e-5 0 1 0 0 -1 -1.19928e-7 0 -1 0 0 -1 1.27819e-7 0 -1 0 0 -1 0 0 -1 -1.4259e-7 0 -1 -2.08642e-7 0 -1 0 0 -1 1.29131e-7 0 -1 -1.6841e-7 0 -1 -1.61359e-7 0 -1 -2.83758e-7 0 -1 -4.70392e-7 0 -1 0 0 -1 0 0 -1 0 0 -1 2.50562e-7 0 -1 5.36796e-7 0 -1 -1.18136e-6 0 -1 1.33919e-6 0 -1 -1.40626e-6 0 -1 2.96555e-6 0 -1 -3.13935e-6 0 -1 3.82851e-6 0 -1 -4.48516e-6 0 -1 -7.52329e-6 0 -1 8.57447e-6 0 -1 -4.94432e-6 0 -1 5.78283e-6 0 -1 1.03257e-5 0 -1 -1.21646e-5 0 -1 -3.01885e-5 0 -1</float_array>
          <technique_common>
            <accessor source="#shape0_003-mesh-normals-array" count="267" stride="3">
              <param name="X" type="float"/>
              <param name="Y" type="float"/>
              <param name="Z" type="float"/>
            </accessor>
          </technique_common>
        </source>
        <vertices id="shape0_003-mesh-vertices">
          <input semantic="POSITION" source="#shape0_003-mesh-positions"/>
        </vertices>
        <triangles material="GREEN-material" count="518">
          <input semantic="VERTEX" source="#shape0_003-mesh-vertices" offset="0"/>
          <input semantic="NORMAL" source="#shape0_003-mesh-normals" offset="1"/>
          <p>0 0 1 0 2 0 2 1 1 1 3 1 2 2 3 2 4 2 4 3 3 3 5 3 4 4 5 4 6 4 6 5 5 5 7 5 6 6 7 6 8 6 8 7 7 7 9 7 8 8 9 8 10 8 10 9 9 9 11 9 10 10 11 10 12 10 12 10 11 10 13 10 12 11 13 11 14 11 14 11 13 11 15 11 14 12 15 12 16 12 16 13 15 13 17 13 16 14 17 14 18 14 18 14 17 14 19 14 18 15 19 15 20 15 20 16 19 16 21 16 20 17 21 17 22 17 22 18 21 18 23 18 22 19 23 19 24 19 24 20 23 20 25 20 24 21 25 21 26 21 26 22 25 22 27 22 26 23 27 23 28 23 28 24 27 24 29 24 28 25 29 25 30 25 30 26 29 26 31 26 30 27 31 27 32 27 32 28 31 28 33 28 32 29 33 29 34 29 34 30 33 30 35 30 34 31 35 31 36 31 36 31 35 31 37 31 36 32 37 32 38 32 38 33 37 33 39 33 38 34 39 34 40 34 40 34 39 34 41 34 40 35 41 35 42 35 42 36 41 36 43 36 42 37 43 37 44 37 44 38 43 38 45 38 44 39 45 39 46 39 46 40 45 40 47 40 46 41 47 41 48 41 48 41 47 41 49 41 48 42 49 42 50 42 50 43 49 43 51 43 50 44 51 44 52 44 52 45 51 45 53 45 52 46 53 46 54 46 54 47 53 47 55 47 54 48 55 48 56 48 56 49 55 49 57 49 56 50 57 50 58 50 58 51 57 51 59 51 58 52 59 52 60 52 60 53 59 53 61 53 60 54 61 54 62 54 62 55 61 55 63 55 62 56 63 56 64 56 64 57 63 57 65 57 64 58 65 58 66 58 66 59 65 59 67 59 66 60 67 60 68 60 68 60 67 60 69 60 68 61 69 61 70 61 70 61 69 61 71 61 70 62 71 62 72 62 72 63 71 63 73 63 72 64 73 64 74 64 74 65 73 65 75 65 74 66 75 66 76 66 76 67 75 67 77 67 76 68 77 68 78 68 78 69 77 69 79 69 78 70 79 70 80 70 80 71 79 71 81 71 80 72 81 72 82 72 82 73 81 73 83 73 82 74 83 74 84 74 84 75 83 75 85 75 84 76 85 76 86 76 86 76 85 76 87 76 86 77 87 77 88 77 88 78 87 78 89 78 88 79 89 79 90 79 90 79 89 79 91 79 90 80 91 80 92 80 92 81 91 81 93 81 92 82 93 82 94 82 94 82 93 82 95 82 94 83 95 83 96 83 96 84 95 84 97 84 96 85 97 85 98 85 98 86 97 86 99 86 98 87 99 87 100 87 100 88 99 88 101 88 100 89 101 89 102 89 102 90 101 90 103 90 102 91 103 91 104 91 104 92 103 92 105 92 104 93 105 93 106 93 106 94 105 94 107 94 106 95 107 95 108 95 108 96 107 96 109 96 108 97 109 97 110 97 110 97 109 97 111 97 110 98 111 98 112 98 112 98 111 98 113 98 112 99 113 99 114 99 114 100 113 100 115 100 114 101 115 101 116 101 116 102 115 102 117 102 116 103 117 103 118 103 118 104 117 104 119 104 118 105 119 105 120 105 120 106 119 106 121 106 120 107 121 107 122 107 122 108 121 108 123 108 122 109 123 109 124 109 124 110 123 110 125 110 124 111 125 111 126 111 126 112 125 112 127 112 126 113 127 113 128 113 128 114 127 114 129 114 128 115 129 115 130 115 130 116 129 116 131 116 130 117 131 117 132 117 132 117 131 117 133 117 132 118 133 118 134 118 134 119 133 119 135 119 134 120 135 120 136 120 136 121 135 121 137 121 136 122 137 122 138 122 138 123 137 123 139 123 138 124 139 124 140 124 140 124 139 124 141 124 140 125 141 125 142 125 142 126 141 126 143 126 142 127 143 127 144 127 144 127 143 127 145 127 144 128 145 128 146 128 146 129 145 129 147 129 146 130 147 130 148 130 148 131 147 131 149 131 148 132 149 132 150 132 150 133 149 133 151 133 150 134 151 134 152 134 152 135 151 135 153 135 152 136 153 136 154 136 154 137 153 137 155 137 154 138 155 138 156 138 156 139 155 139 157 139 156 140 157 140 158 140 158 141 157 141 159 141 158 142 159 142 160 142 160 143 159 143 161 143 160 144 161 144 162 144 162 144 161 144 163 144 162 145 163 145 164 145 164 146 163 146 165 146 164 147 165 147 166 147 166 147 165 147 167 147 166 148 167 148 168 148 168 148 167 148 169 148 168 149 169 149 170 149 170 150 169 150 171 150 170 151 171 151 172 151 172 152 171 152 173 152 172 153 173 153 0 153 0 154 173 154 1 154 174 155 5 155 175 155 175 155 5 155 3 155 175 156 3 156 176 156 176 156 3 156 1 156 176 157 1 157 177 157 177 158 1 158 173 158 177 159 173 159 178 159 178 151 173 151 171 151 178 160 171 160 179 160 179 161 171 161 169 161 179 162 169 162 180 162 180 148 169 148 167 148 180 147 167 147 181 147 181 147 167 147 165 147 181 146 165 146 182 146 182 145 165 145 163 145 182 144 163 144 183 144 183 144 163 144 161 144 183 163 161 163 184 163 184 142 161 142 159 142 184 141 159 141 185 141 185 140 159 140 157 140 185 164 157 164 186 164 186 138 157 138 155 138 186 165 155 165 187 165 187 136 155 136 153 136 187 166 153 166 188 166 188 134 153 134 151 134 188 133 151 133 189 133 189 132 151 132 149 132 189 131 149 131 190 131 190 130 149 130 147 130 190 129 147 129 191 129 191 128 147 128 145 128 191 167 145 167 192 167 192 127 145 127 143 127 192 125 143 125 193 125 193 125 143 125 141 125 193 124 141 124 194 124 194 124 141 124 139 124 194 168 139 168 195 168 195 169 139 169 137 169 195 121 137 121 196 121 196 120 137 120 135 120 196 119 135 119 197 119 197 118 135 118 133 118 197 117 133 117 198 117 198 117 133 117 131 117 198 116 131 116 199 116 199 115 131 115 129 115 199 114 129 114 200 114 200 170 129 170 127 170 200 112 127 112 201 112 201 111 127 111 125 111 201 110 125 110 202 110 202 109 125 109 123 109 202 108 123 108 203 108 203 107 123 107 121 107 203 106 121 106 204 106 204 105 121 105 119 105 204 104 119 104 205 104 205 103 119 103 117 103 205 102 117 102 206 102 206 101 117 101 115 101 206 171 115 171 207 171 207 99 115 99 113 99 207 172 113 172 208 172 208 98 113 98 111 98 208 97 111 97 209 97 209 97 111 97 109 97 209 173 109 173 210 173 210 174 109 174 107 174 210 175 107 175 211 175 211 93 107 93 105 93 211 92 105 92 212 92 212 91 105 91 103 91 212 176 103 176 213 176 213 90 103 90 101 90 213 88 101 88 214 88 214 87 101 87 99 87 214 177 99 177 215 177 215 85 99 85 97 85 215 84 97 84 216 84 216 83 97 83 95 83 216 82 95 82 217 82 217 82 95 82 93 82 217 80 93 80 218 80 218 81 93 81 91 81 218 79 91 79 219 79 219 79 91 79 89 79 219 77 89 77 220 77 220 78 89 78 87 78 220 76 87 76 221 76 221 76 87 76 85 76 221 75 85 75 222 75 222 74 85 74 83 74 222 73 83 73 223 73 223 72 83 72 81 72 223 71 81 71 224 71 224 70 81 70 79 70 224 178 79 178 225 178 225 69 79 69 77 69 225 67 77 67 226 67 226 66 77 66 75 66 226 179 75 179 227 179 227 64 75 64 73 64 227 180 73 180 228 180 228 181 73 181 71 181 228 61 71 61 229 61 229 61 71 61 69 61 229 182 69 182 230 182 230 60 69 60 67 60 230 183 67 183 231 183 231 58 67 58 65 58 231 57 65 57 232 57 232 56 65 56 63 56 232 55 63 55 233 55 233 54 63 54 61 54 233 53 61 53 234 53 234 52 61 52 59 52 234 51 59 51 235 51 235 50 59 50 57 50 235 49 57 49 236 49 236 48 57 48 55 48 236 47 55 47 237 47 237 46 55 46 53 46 237 45 53 45 238 45 238 184 53 184 51 184 238 43 51 43 239 43 239 42 51 42 49 42 239 41 49 41 240 41 240 41 49 41 47 41 240 40 47 40 241 40 241 185 47 185 45 185 241 38 45 38 242 38 242 37 45 37 43 37 242 186 43 186 243 186 243 187 43 187 41 187 243 34 41 34 244 34 244 34 41 34 39 34 244 32 39 32 245 32 245 32 39 32 37 32 245 188 37 188 246 188 246 31 37 31 35 31 246 30 35 30 247 30 247 29 35 29 33 29 247 28 33 28 248 28 248 27 33 27 31 27 248 26 31 26 249 26 249 25 31 25 29 25 249 24 29 24 250 24 250 189 29 189 27 189 250 190 27 190 251 190 251 21 27 21 25 21 251 191 25 191 252 191 252 19 25 19 23 19 252 18 23 18 253 18 253 17 23 17 21 17 253 192 21 192 254 192 254 15 21 15 19 15 254 14 19 14 255 14 255 14 19 14 17 14 255 13 17 13 256 13 256 12 17 12 15 12 256 11 15 11 257 11 257 11 15 11 13 11 257 193 13 193 258 193 258 10 13 10 11 10 258 194 11 194 259 194 259 195 11 195 9 195 259 196 9 196 260 196 260 6 9 6 7 6 260 197 7 197 174 197 174 198 7 198 5 198 4 199 88 199 2 199 2 200 88 200 90 200 2 199 90 199 0 199 0 200 90 200 92 200 0 200 92 200 172 200 172 200 92 200 94 200 172 201 94 201 170 201 170 200 94 200 96 200 170 200 96 200 98 200 88 200 4 200 86 200 86 200 4 200 6 200 86 202 6 202 84 202 84 200 6 200 8 200 84 203 8 203 82 203 82 200 8 200 10 200 82 200 10 200 80 200 80 200 10 200 12 200 80 200 12 200 78 200 78 200 12 200 14 200 78 200 14 200 76 200 76 200 14 200 16 200 76 200 16 200 74 200 74 200 16 200 18 200 74 200 18 200 72 200 72 200 18 200 20 200 72 200 20 200 70 200 70 200 20 200 22 200 70 200 22 200 68 200 68 200 22 200 24 200 68 204 24 204 66 204 66 200 24 200 26 200 66 200 26 200 64 200 64 200 26 200 28 200 64 200 28 200 62 200 62 200 28 200 30 200 62 200 30 200 60 200 60 200 30 200 32 200 60 200 32 200 58 200 58 200 32 200 34 200 58 200 34 200 56 200 56 200 34 200 36 200 56 205 36 205 54 205 54 200 36 200 38 200 54 200 38 200 52 200 52 200 38 200 40 200 52 200 40 200 50 200 50 206 40 206 42 206 50 200 42 200 48 200 48 200 42 200 44 200 48 207 44 207 46 207 98 200 100 200 170 200 170 208 100 208 102 208 170 209 102 209 104 209 104 200 106 200 170 200 170 210 106 210 108 210 170 211 108 211 110 211 110 200 112 200 170 200 170 212 112 212 114 212 170 213 114 213 116 213 116 200 118 200 170 200 170 214 118 214 120 214 170 215 120 215 122 215 122 216 124 216 170 216 170 217 124 217 126 217 170 218 126 218 128 218 128 219 130 219 170 219 170 220 130 220 132 220 170 221 132 221 134 221 134 222 136 222 170 222 170 223 136 223 138 223 170 224 138 224 140 224 140 200 142 200 170 200 170 225 142 225 144 225 170 226 144 226 146 226 146 200 148 200 170 200 170 227 148 227 150 227 170 228 150 228 152 228 152 200 154 200 170 200 170 229 154 229 156 229 170 230 156 230 158 230 158 200 160 200 170 200 170 231 160 231 162 231 170 232 162 232 164 232 164 200 166 200 170 200 170 233 166 233 168 233 176 234 218 234 175 234 175 234 218 234 219 234 175 234 219 234 174 234 174 234 219 234 220 234 174 234 220 234 260 234 260 235 220 235 221 235 260 234 221 234 259 234 259 234 221 234 222 234 259 236 222 236 258 236 258 237 222 237 223 237 258 238 223 238 257 238 257 234 223 234 224 234 257 239 224 239 256 239 256 240 224 240 225 240 256 234 225 234 255 234 255 234 225 234 226 234 255 234 226 234 254 234 254 234 226 234 227 234 254 234 227 234 253 234 253 234 227 234 228 234 253 234 228 234 252 234 252 241 228 241 229 241 252 242 229 242 251 242 251 234 229 234 230 234 251 243 230 243 250 243 250 234 230 234 231 234 250 234 231 234 249 234 249 244 231 244 232 244 249 234 232 234 248 234 248 234 232 234 233 234 248 234 233 234 247 234 247 234 233 234 234 234 247 234 234 234 246 234 246 234 234 234 235 234 246 234 235 234 245 234 245 234 235 234 236 234 245 245 236 245 244 245 244 234 236 234 237 234 244 234 237 234 243 234 243 234 237 234 238 234 243 246 238 246 242 246 242 234 238 234 239 234 242 247 239 247 241 247 241 234 239 234 240 234 218 248 176 248 217 248 217 234 176 234 177 234 217 249 177 249 216 249 216 234 177 234 178 234 216 250 178 250 215 250 215 251 178 251 214 251 214 234 178 234 213 234 213 234 178 234 212 234 212 252 178 252 211 252 211 234 178 234 210 234 210 234 178 234 209 234 209 253 178 253 208 253 208 234 178 234 207 234 207 234 178 234 206 234 206 254 178 254 205 254 205 255 178 255 204 255 204 256 178 256 203 256 203 257 178 257 202 257 202 234 178 234 201 234 201 234 178 234 200 234 200 258 178 258 199 258 199 234 178 234 198 234 198 259 178 259 197 259 197 234 178 234 196 234 196 234 178 234 195 234 195 234 178 234 194 234 194 234 178 234 193 234 193 260 178 260 192 260 192 261 178 261 191 261 191 262 178 262 190 262 190 263 178 263 189 263 189 234 178 234 188 234 188 234 178 234 187 234 187 264 178 264 186 264 186 234 178 234 185 234 185 234 178 234 184 234 184 265 178 265 183 265 183 234 178 234 182 234 182 266 178 266 181 266 181 234 178 234 180 234 180 234 178 234 179 234</p>
        </triangles>
      </mesh>
    </geometry>
  </library_geometries>
  <library_visual_scenes>
    <visual_scene id="Scene" name="Scene">
      <node id="node" name="node" type="NODE">
        <matrix sid="transform">0.001 0 0 0 0 0.001 0 0 0 0 0.001 -1.86265e-9 0 0 0 1</matrix>
        <instance_geometry url="#shape0_003-mesh" name="node">
          <bind_material>
            <technique_common>
              <instance_material symbol="GREEN-material" target="#GREEN-material"/>
            </technique_common>
          </bind_material>
        </instance_geometry>
      </node>
    </visual_scene>
  </library_visual_scenes>
  <scene>
    <instance_visual_scene url="#Scene"/>
  </scene>
</COLLADA>