<?xml version="1.0" encoding="utf-8"?>
<COLLADA xmlns="http://www.collada.org/2005/11/COLLADASchema" version="1.4.1" xmlns:xsi="http://www.w3.org/2001/XMLSchema-instance">
  <asset>
    <contributor>
      <author>Blender User</author>
      <authoring_tool>Blender 4.0.2 commit date:2023-12-05, commit time:07:41, hash:9be62e85b727</authoring_tool>
    </contributor>
    <created>2024-02-21T11:12:58</created>
    <modified>2024-02-21T11:12:58</modified>
    <unit name="meter" meter="1"/>
    <up_axis>Z_UP</up_axis>
  </asset>
  <library_effects>
    <effect id="Material_022-effect">
      <profile_COMMON>
        <technique sid="common">
          <lambert>
            <emission>
              <color sid="emission">0 0 0 1</color>
            </emission>
            <diffuse>
              <color sid="diffuse">0.3 0.3 0.3 1</color>
            </diffuse>
            <reflectivity>
              <float sid="specular">1</float>
            </reflectivity>
            <index_of_refraction>
              <float sid="ior">1.45</float>
            </index_of_refraction>
          </lambert>
        </technique>
      </profile_COMMON>
    </effect>
  </library_effects>
  <library_images/>
  <library_materials>
    <material id="Material_022-material" name="Material.022">
      <instance_effect url="#Material_022-effect"/>
    </material>
  </library_materials>
  <library_geometries>
    <geometry id="shape0_034-mesh" name="shape0.034">
      <mesh>
        <source id="shape0_034-mesh-positions">
          <float_array id="shape0_034-mesh-positions-array" count="1164">0.01195418 0.001045823 0 0.01199996 0 0 0.01199996 0 -0.001999974 0.01195418 0.001045823 -0.001999974 0.01181769 0.002083778 0 0.01181769 0.002083778 -0.001999974 0.01159101 0.003105819 0 0.01159101 0.003105819 -0.001999974 0.0112763 0.004104197 0 0.0112763 0.004104197 -0.001999974 0.0108757 0.005071341 0 0.0108757 0.005071341 -0.001999974 0.01039218 0.005999982 0 0.01039218 0.005999982 -0.001999974 0.009829819 0.006882846 -0.001999974 0.009829819 0.006882846 0 0.009192526 0.007713437 0 0.009192526 0.007713437 -0.001999974 0.008485257 0.008485257 -0.001999974 0.008485257 0.008485257 0 0.007713437 0.009192526 -0.001999974 0.007713437 0.009192526 0 0.006882846 0.009829819 0 0.006882846 0.009829819 -0.001999974 0.005999982 0.01039218 -0.001999974 0.005999982 0.01039218 0 0.005071341 0.0108757 0 0.005071341 0.0108757 -0.001999974 0.004104197 0.0112763 0 0.004104197 0.0112763 -0.001999974 0.003105819 0.01159101 0 0.003105819 0.01159101 -0.001999974 0.002083778 0.01181769 -0.001999974 0.002083778 0.01181769 0 0.001045823 0.01195418 0 0.001045823 0.01195418 -0.001999974 0 0.01199996 0 0 0.01199996 -0.001999974 -0.001045823 0.01195418 0 -0.001045823 0.01195418 -0.001999974 -0.002083778 0.01181769 0 -0.002083778 0.01181769 -0.001999974 -0.003105819 0.01159101 0 -0.003105819 0.01159101 -0.001999974 -0.004104197 0.0112763 0 -0.004104197 0.0112763 -0.001999974 -0.005071341 0.0108757 0 -0.005071341 0.0108757 -0.001999974 -0.005999982 0.01039218 -0.001999974 -0.005999982 0.01039218 0 -0.006882846 0.009829819 0 -0.006882846 0.009829819 -0.001999974 -0.007713437 0.009192526 -0.001999974 -0.007713437 0.009192526 0 -0.008485257 0.008485257 0 -0.008485257 0.008485257 -0.001999974 -0.009192526 0.007713437 0 -0.009192526 0.007713437 -0.001999974 -0.009829819 0.006882846 -0.001999974 -0.009829819 0.006882846 0 -0.01039218 0.005999982 -0.001999974 -0.01039218 0.005999982 0 -0.0108757 0.005071341 0 -0.0108757 0.005071341 -0.001999974 -0.0112763 0.004104197 0 -0.0112763 0.004104197 -0.001999974 -0.01159101 0.003105819 0 -0.01159101 0.003105819 -0.001999974 -0.01181769 0.002083778 0 -0.01181769 0.002083778 -0.001999974 -0.01195418 0.001045823 0 -0.01195418 0.001045823 -0.001999974 -0.01199996 0 0 -0.01199996 0 -0.001999974 -0.01195418 -0.001045823 0 -0.01195418 -0.001045823 -0.001999974 -0.01181769 -0.002083778 0 -0.01181769 -0.002083778 -0.001999974 -0.01159101 -0.003105819 -0.001999974 -0.01159101 -0.003105819 0 -0.0112763 -0.004104197 0 -0.0112763 -0.004104197 -0.001999974 -0.0108757 -0.005071341 -0.001999974 -0.0108757 -0.005071341 0 -0.01039218 -0.005999982 -0.001999974 -0.01039218 -0.005999982 0 -0.009829819 -0.006882846 0 -0.009829819 -0.006882846 -0.001999974 -0.009192526 -0.007713437 0 -0.009192526 -0.007713437 -0.001999974 -0.008485257 -0.008485257 0 -0.008485257 -0.008485257 -0.001999974 -0.007713437 -0.009192526 0 -0.007713437 -0.009192526 -0.001999974 -0.006882846 -0.009829819 0 -0.006882846 -0.009829819 -0.001999974 -0.005999982 -0.01039218 -0.001999974 -0.005999982 -0.01039218 0 -0.005071341 -0.0108757 -0.001999974 -0.005071341 -0.0108757 0 -0.004104197 -0.0112763 0 -0.004104197 -0.0112763 -0.001999974 -0.003105819 -0.01159101 -0.001999974 -0.003105819 -0.01159101 0 -0.002083778 -0.01181769 -0.001999974 -0.002083778 -0.01181769 0 -0.001045823 -0.01195418 0 -0.001045823 -0.01195418 -0.001999974 0 -0.01199996 -0.001999974 0 -0.01199996 0 0.001045823 -0.01195418 -0.001999974 0.001045823 -0.01195418 0 0.002083778 -0.01181769 0 0.002083778 -0.01181769 -0.001999974 0.003105819 -0.01159101 -0.001999974 0.003105819 -0.01159101 0 0.004104197 -0.0112763 0 0.004104197 -0.0112763 -0.001999974 0.005071341 -0.0108757 -0.001999974 0.005071341 -0.0108757 0 0.005999982 -0.01039218 -0.001999974 0.005999982 -0.01039218 0 0.006882846 -0.009829819 0 0.006882846 -0.009829819 -0.001999974 0.007713437 -0.009192526 -0.001999974 0.007713437 -0.009192526 0 0.008485257 -0.008485257 -0.001999974 0.008485257 -0.008485257 0 0.009192526 -0.007713437 0 0.009192526 -0.007713437 -0.001999974 0.009829819 -0.006882846 -0.001999974 0.009829819 -0.006882846 0 0.01039218 -0.005999982 -0.001999974 0.01039218 -0.005999982 0 0.0108757 -0.005071341 0 0.0108757 -0.005071341 -0.001999974 0.0112763 -0.004104197 -0.001999974 0.0112763 -0.004104197 0 0.01159101 -0.003105819 -0.001999974 0.01159101 -0.003105819 0 0.01181769 -0.002083778 0 0.01181769 -0.002083778 -0.001999974 0.01195418 -0.001045823 -0.001999974 0.01195418 -0.001045823 0 2.51162e-4 -0.003992021 -0.001999974 2.51162e-4 -0.003992021 0 0.001235961 -0.003804147 0 0.001235961 -0.003804147 -0.001999974 0.002143204 -0.003377199 0 0.002143204 -0.003377199 -0.001999974 0.003999948 0 -0.001999974 0.003999948 0 0 0.003874242 9.9476e-4 0 0.003874242 9.9476e-4 -0.001999974 0.002915859 -0.002738118 0 0.002915859 -0.002738118 -0.001999974 0.00350517 -0.001927018 -0.001999974 0.00350517 -0.001927018 0 0.00350517 0.001927018 -0.001999974 0.00350517 0.001927018 0 0.002915859 0.002738118 -0.001999974 0.003874242 -9.9476e-4 0 0.003874242 -9.9476e-4 -0.001999974 0.002915859 0.002738118 0 0.002143204 0.003377199 -0.001999974 0.002143204 0.003377199 0 0.001235961 0.003804147 -0.001999974 2.51162e-4 0.003992021 -0.001999974 0.001235961 0.003804147 0 -7.49525e-4 0.003929138 -0.001999974 2.51162e-4 0.003992021 0 -7.49525e-4 0.003929138 0 -0.001703023 0.003619194 -0.001999974 -0.001703023 0.003619194 0 -0.002549648 0.003081977 -0.001999974 -0.002549648 0.003081977 0 -0.003236055 0.002351105 -0.001999974 -0.003236055 0.002351105 0 -0.003719091 0.001472473 -0.001999974 -0.003719091 0.001472473 0 -0.003968358 5.01333e-4 -0.001999974 -0.003968358 5.01333e-4 0 -0.003968358 -5.01333e-4 0 -0.003968358 -5.01333e-4 -0.001999974 -0.003719091 -0.001472473 0 -0.003719091 -0.001472473 -0.001999974 -0.003236055 -0.002351105 -0.001999974 -0.003236055 -0.002351105 0 -0.002549648 -0.003081977 0 -0.002549648 -0.003081977 -0.001999974 -0.001703023 -0.003619194 -0.001999974 -0.001703023 -0.003619194 0 -7.49525e-4 -0.003929138 0 -7.49525e-4 -0.003929138 -0.001999974 0.01195418 0.001045823 0 0.01199996 0 0 0.01199996 0 -0.001999974 0.01195418 0.001045823 -0.001999974 0.01181769 0.002083778 0 0.01181769 0.002083778 -0.001999974 0.01159101 0.003105819 0 0.01159101 0.003105819 -0.001999974 0.0112763 0.004104197 0 0.0112763 0.004104197 -0.001999974 0.0108757 0.005071341 0 0.0108757 0.005071341 -0.001999974 0.01039218 0.005999982 0 0.01039218 0.005999982 -0.001999974 0.009829819 0.006882846 -0.001999974 0.009829819 0.006882846 0 0.009192526 0.007713437 0 0.009192526 0.007713437 -0.001999974 0.008485257 0.008485257 -0.001999974 0.008485257 0.008485257 0 0.007713437 0.009192526 -0.001999974 0.007713437 0.009192526 0 0.006882846 0.009829819 0 0.006882846 0.009829819 -0.001999974 0.005999982 0.01039218 -0.001999974 0.005999982 0.01039218 0 0.005071341 0.0108757 0 0.005071341 0.0108757 -0.001999974 0.004104197 0.0112763 0 0.004104197 0.0112763 -0.001999974 0.003105819 0.01159101 0 0.003105819 0.01159101 -0.001999974 0.002083778 0.01181769 -0.001999974 0.002083778 0.01181769 0 0.001045823 0.01195418 0 0.001045823 0.01195418 -0.001999974 0 0.01199996 0 0 0.01199996 -0.001999974 -0.001045823 0.01195418 0 -0.001045823 0.01195418 -0.001999974 -0.002083778 0.01181769 0 -0.002083778 0.01181769 -0.001999974 -0.003105819 0.01159101 0 -0.003105819 0.01159101 -0.001999974 -0.004104197 0.0112763 0 -0.004104197 0.0112763 -0.001999974 -0.005071341 0.0108757 0 -0.005071341 0.0108757 -0.001999974 -0.005999982 0.01039218 -0.001999974 -0.005999982 0.01039218 0 -0.006882846 0.009829819 0 -0.006882846 0.009829819 -0.001999974 -0.007713437 0.009192526 -0.001999974 -0.007713437 0.009192526 0 -0.008485257 0.008485257 0 -0.008485257 0.008485257 -0.001999974 -0.009192526 0.007713437 0 -0.009192526 0.007713437 -0.001999974 -0.009829819 0.006882846 -0.001999974 -0.009829819 0.006882846 0 -0.01039218 0.005999982 -0.001999974 -0.01039218 0.005999982 0 -0.0108757 0.005071341 0 -0.0108757 0.005071341 -0.001999974 -0.0112763 0.004104197 0 -0.0112763 0.004104197 -0.001999974 -0.01159101 0.003105819 0 -0.01159101 0.003105819 -0.001999974 -0.01181769 0.002083778 0 -0.01181769 0.002083778 -0.001999974 -0.01195418 0.001045823 0 -0.01195418 0.001045823 -0.001999974 -0.01199996 0 0 -0.01199996 0 -0.001999974 -0.01195418 -0.001045823 0 -0.01195418 -0.001045823 -0.001999974 -0.01181769 -0.002083778 0 -0.01181769 -0.002083778 -0.001999974 -0.01159101 -0.003105819 -0.001999974 -0.01159101 -0.003105819 0 -0.0112763 -0.004104197 0 -0.0112763 -0.004104197 -0.001999974 -0.0108757 -0.005071341 -0.001999974 -0.0108757 -0.005071341 0 -0.01039218 -0.005999982 -0.001999974 -0.01039218 -0.005999982 0 -0.009829819 -0.006882846 0 -0.009829819 -0.006882846 -0.001999974 -0.009192526 -0.007713437 0 -0.009192526 -0.007713437 -0.001999974 -0.008485257 -0.008485257 0 -0.008485257 -0.008485257 -0.001999974 -0.007713437 -0.009192526 0 -0.007713437 -0.009192526 -0.001999974 -0.006882846 -0.009829819 0 -0.006882846 -0.009829819 -0.001999974 -0.005999982 -0.01039218 -0.001999974 -0.005999982 -0.01039218 0 -0.005071341 -0.0108757 -0.001999974 -0.005071341 -0.0108757 0 -0.004104197 -0.0112763 0 -0.004104197 -0.0112763 -0.001999974 -0.003105819 -0.01159101 -0.001999974 -0.003105819 -0.01159101 0 -0.002083778 -0.01181769 -0.001999974 -0.002083778 -0.01181769 0 -0.001045823 -0.01195418 0 -0.001045823 -0.01195418 -0.001999974 0 -0.01199996 -0.001999974 0 -0.01199996 0 0.001045823 -0.01195418 -0.001999974 0.001045823 -0.01195418 0 0.002083778 -0.01181769 0 0.002083778 -0.01181769 -0.001999974 0.003105819 -0.01159101 -0.001999974 0.003105819 -0.01159101 0 0.004104197 -0.0112763 0 0.004104197 -0.0112763 -0.001999974 0.005071341 -0.0108757 -0.001999974 0.005071341 -0.0108757 0 0.005999982 -0.01039218 -0.001999974 0.005999982 -0.01039218 0 0.006882846 -0.009829819 0 0.006882846 -0.009829819 -0.001999974 0.007713437 -0.009192526 -0.001999974 0.007713437 -0.009192526 0 0.008485257 -0.008485257 -0.001999974 0.008485257 -0.008485257 0 0.009192526 -0.007713437 0 0.009192526 -0.007713437 -0.001999974 0.009829819 -0.006882846 -0.001999974 0.009829819 -0.006882846 0 0.01039218 -0.005999982 -0.001999974 0.01039218 -0.005999982 0 0.0108757 -0.005071341 0 0.0108757 -0.005071341 -0.001999974 0.0112763 -0.004104197 -0.001999974 0.0112763 -0.004104197 0 0.01159101 -0.003105819 -0.001999974 0.01159101 -0.003105819 0 0.01181769 -0.002083778 0 0.01181769 -0.002083778 -0.001999974 0.01195418 -0.001045823 -0.001999974 0.01195418 -0.001045823 0 2.51162e-4 -0.003992021 -0.001999974 2.51162e-4 -0.003992021 0 0.001235961 -0.003804147 0 0.001235961 -0.003804147 -0.001999974 0.002143204 -0.003377199 0 0.002143204 -0.003377199 -0.001999974 0.003999948 0 -0.001999974 0.003999948 0 0 0.003874242 9.9476e-4 0 0.003874242 9.9476e-4 -0.001999974 0.002915859 -0.002738118 0 0.002915859 -0.002738118 -0.001999974 0.00350517 -0.001927018 -0.001999974 0.00350517 -0.001927018 0 0.00350517 0.001927018 -0.001999974 0.00350517 0.001927018 0 0.002915859 0.002738118 -0.001999974 0.003874242 -9.9476e-4 0 0.003874242 -9.9476e-4 -0.001999974 0.002915859 0.002738118 0 0.002143204 0.003377199 -0.001999974 0.002143204 0.003377199 0 0.001235961 0.003804147 -0.001999974 2.51162e-4 0.003992021 -0.001999974 0.001235961 0.003804147 0 -7.49525e-4 0.003929138 -0.001999974 2.51162e-4 0.003992021 0 -7.49525e-4 0.003929138 0 -0.001703023 0.003619194 -0.001999974 -0.001703023 0.003619194 0 -0.002549648 0.003081977 -0.001999974 -0.002549648 0.003081977 0 -0.003236055 0.002351105 -0.001999974 -0.003236055 0.002351105 0 -0.003719091 0.001472473 -0.001999974 -0.003719091 0.001472473 0 -0.003968358 5.01333e-4 -0.001999974 -0.003968358 5.01333e-4 0 -0.003968358 -5.01333e-4 0 -0.003968358 -5.01333e-4 -0.001999974 -0.003719091 -0.001472473 0 -0.003719091 -0.001472473 -0.001999974 -0.003236055 -0.002351105 -0.001999974 -0.003236055 -0.002351105 0 -0.002549648 -0.003081977 0 -0.002549648 -0.003081977 -0.001999974 -0.001703023 -0.003619194 -0.001999974 -0.001703023 -0.003619194 0 -7.49525e-4 -0.003929138 0 -7.49525e-4 -0.003929138 -0.001999974</float_array>
          <technique_common>
            <accessor source="#shape0_034-mesh-positions-array" count="388" stride="3">
              <param name="X" type="float"/>
              <param name="Y" type="float"/>
              <param name="Z" type="float"/>
            </accessor>
          </technique_common>
        </source>
        <source id="shape0_034-mesh-normals">
          <float_array id="shape0_034-mesh-normals-array" count="630">0.9990458 0.04367589 0 0.9990459 0.04367417 0 0.9914572 0.1304326 0 0.9762878 0.2164766 0 0.9762886 0.2164734 0 0.953722 0.3006901 0 0.9537215 0.3006917 0 0.9238889 0.3826609 0 0.9238896 0.3826594 0 0.8869826 0.4618028 0 0.8869841 0.4618001 0 0.8434181 0.5372577 0 0.7933516 0.6087637 0 0.7372651 0.6756036 0 0.6756038 0.737265 0 0.6087641 0.7933513 0 0.5372569 0.8434187 0 0.6087633 0.793352 0 0.5372577 0.8434183 0 0.4618022 0.886983 0 0.4618018 0.8869832 0 0.3826599 0.9238893 0 0.300691 0.9537216 0 0.3006909 0.9537217 0 0.2164747 0.9762883 0 0.1304325 0.9914572 0 0.1304325 0.9914572 0 0.04367548 0.9990458 0 -0.04367548 0.9990458 0 -0.1304325 0.9914572 0 -0.1304325 0.9914572 0 -0.2164747 0.9762883 0 -0.3006909 0.9537217 0 -0.300691 0.9537216 0 -0.3826599 0.9238893 0 -0.4618022 0.886983 0 -0.4618018 0.8869832 0 -0.5372577 0.8434183 0 -0.5372569 0.8434187 0 -0.6087641 0.7933513 0 -0.6087633 0.793352 0 -0.6756038 0.737265 0 -0.7372651 0.6756036 0 -0.7933516 0.6087637 0 -0.8434181 0.5372577 0 -0.8869826 0.4618028 0 -0.8869841 0.4618001 0 -0.9238889 0.3826609 0 -0.9238896 0.3826594 0 -0.953722 0.3006901 0 -0.9537215 0.3006917 0 -0.9762878 0.2164766 0 -0.9762886 0.2164734 0 -0.9914572 0.1304326 0 -0.9990458 0.04367589 0 -0.9990459 0.04367417 0 -0.9990459 -0.04367417 0 -0.9990458 -0.04367589 0 -0.9914572 -0.1304326 0 -0.9762878 -0.2164766 0 -0.9762886 -0.2164734 0 -0.9537215 -0.3006917 0 -0.9238889 -0.3826609 0 -0.953722 -0.3006901 0 -0.8869826 -0.4618028 0 -0.9238896 -0.3826594 0 -0.8869841 -0.4618001 0 -0.8434181 -0.5372577 0 -0.7933516 -0.6087637 0 -0.7372651 -0.6756036 0 -0.6756038 -0.737265 0 -0.6087641 -0.7933513 0 -0.5372569 -0.8434187 0 -0.6087633 -0.793352 0 -0.4618018 -0.8869832 0 -0.5372577 -0.8434183 0 -0.4618022 -0.886983 0 -0.3826599 -0.9238893 0 -0.300691 -0.9537216 0 -0.3006909 -0.9537217 0 -0.2164747 -0.9762883 0 -0.1304325 -0.9914572 0 -0.04367548 -0.9990458 0 -0.1304325 -0.9914572 0 0.04367548 -0.9990458 0 0.1304325 -0.9914572 0 0.2164747 -0.9762883 0 0.1304325 -0.9914572 0 0.300691 -0.9537216 0 0.3826599 -0.9238893 0 0.3006909 -0.9537217 0 0.4618022 -0.886983 0 0.4618018 -0.8869832 0 0.5372569 -0.8434187 0 0.6087641 -0.7933513 0 0.5372577 -0.8434183 0 0.6756038 -0.737265 0 0.6087633 -0.793352 0 0.7372651 -0.6756036 0 0.7933516 -0.6087637 0 0.8434181 -0.5372577 0 0.8869841 -0.4618001 0 0.8869826 -0.4618028 0 0.9238896 -0.3826594 0 0.9238889 -0.3826609 0 0.9537215 -0.3006917 0 0.953722 -0.3006901 0 0.9762886 -0.2164734 0 0.9762878 -0.2164766 0 0.9914572 -0.1304326 0 0.9990459 -0.04367417 0 0.9990458 -0.04367589 0 -0.1873832 0.9822869 0 -0.1873831 0.9822869 0 -0.4258057 0.9048146 0 -0.4258059 0.9048146 0 -0.9921172 -0.1253136 0 -0.9921174 -0.1253127 0 -0.6373846 0.7705459 0 -0.6373851 0.7705456 0 -0.8090037 0.5878038 0 -0.9297884 -0.3680946 0 -0.8090037 -0.5878038 0 -0.9297886 -0.3680942 0 -0.9297884 0.3680946 0 -0.9297886 0.3680942 0 -0.9921172 0.1253136 0 -0.9921174 0.1253127 0 -0.6373846 -0.7705459 0 -0.4258059 -0.9048146 0 -0.6373851 -0.7705456 0 -0.1873831 -0.9822869 0 -0.4258057 -0.9048146 0 0.06277477 -0.9980278 0 -0.1873832 -0.9822869 0 0.06277477 -0.9980278 0 0.3090667 -0.9510404 0 0.3090666 -0.9510405 0 0.5358061 -0.8443411 0 0.5358058 -0.8443412 0 0.7289602 -0.6845562 0 0.876305 -0.4817569 0 0.7289599 -0.6845564 0 0.8763051 -0.4817565 0 0.9685882 -0.2486706 0 1 0 0 0.9685882 0.2486706 0 0.8763051 0.4817565 0 0.876305 0.4817569 0 0.7289602 0.6845562 0 0.7289599 0.6845564 0 0.5358061 0.8443411 0 0.5358058 0.8443412 0 0.3090667 0.9510404 0 0.3090666 0.9510405 0 0.06277477 0.9980278 0 0.06277477 0.9980278 0 0 0 1 0 0 -1 0 0 -1 4.34916e-7 0 -1 -2.17468e-7 0 -1 0 0 -1 0 0 -1 0 0 -1 0 0 -1 1.69467e-7 0 -1 0 0 -1 -2.71607e-7 0 -1 -2.16923e-7 0 -1 1.90288e-7 0 -1 0 0 -1 2.1741e-7 0 -1 -3.67546e-7 0 -1 -3.05164e-7 0 -1 1.90321e-7 0 -1 0 0 -1 2.17432e-7 0 -1 0 0 -1 0 0 -1 0 0 -1 2.17101e-7 0 -1 4.51843e-7 0 -1 0 0 -1 2.40623e-7 0 -1 -2.41284e-7 0 -1 0 0 -1 0 0 -1 0 0 -1 0 0 -1 2.1751e-7 0 -1 -1.89677e-7 0 -1 3.058e-7 0 -1 -4.75384e-7 0 -1 -4.34011e-7 0 -1 3.53002e-7 0 -1 0 0 -1 0 0 -1 0 0 -1 0 0 -1 -4.34991e-7 0 -1 1.35895e-7 0 -1 -4.52365e-7 0 -1 0 0 -1 4.338e-7 0 -1 1.80079e-7 0 -1 0 0 -1 -4.34637e-7 0 -1 0 0 -1 0 0 -1</float_array>
          <technique_common>
            <accessor source="#shape0_034-mesh-normals-array" count="210" stride="3">
              <param name="X" type="float"/>
              <param name="Y" type="float"/>
              <param name="Z" type="float"/>
            </accessor>
          </technique_common>
        </source>
        <vertices id="shape0_034-mesh-vertices">
          <input semantic="POSITION" source="#shape0_034-mesh-positions"/>
        </vertices>
        <triangles material="Material_022-material" count="776">
          <input semantic="VERTEX" source="#shape0_034-mesh-vertices" offset="0"/>
          <input semantic="NORMAL" source="#shape0_034-mesh-normals" offset="1"/>
          <p>0 0 1 0 2 0 0 1 2 1 3 1 4 2 0 2 3 2 4 2 3 2 5 2 6 3 4 3 5 3 6 4 5 4 7 4 8 5 6 5 7 5 8 6 7 6 9 6 10 7 8 7 9 7 10 8 9 8 11 8 12 9 10 9 11 9 12 10 11 10 13 10 12 11 13 11 14 11 15 11 12 11 14 11 16 12 15 12 14 12 16 12 14 12 17 12 16 13 17 13 18 13 19 14 18 14 20 14 19 13 16 13 18 13 21 14 19 14 20 14 22 15 20 15 23 15 22 16 23 16 24 16 22 17 21 17 20 17 25 18 22 18 24 18 26 19 24 19 27 19 26 20 25 20 24 20 28 21 26 21 27 21 28 21 27 21 29 21 30 22 28 22 29 22 30 23 29 23 31 23 30 24 31 24 32 24 33 24 30 24 32 24 34 25 33 25 32 25 34 26 32 26 35 26 36 27 34 27 35 27 36 27 35 27 37 27 38 28 36 28 37 28 38 28 37 28 39 28 40 29 38 29 39 29 40 30 39 30 41 30 42 31 40 31 41 31 42 31 41 31 43 31 44 32 42 32 43 32 44 33 43 33 45 33 46 34 44 34 45 34 46 34 45 34 47 34 46 35 47 35 48 35 49 36 46 36 48 36 50 37 49 37 48 37 50 38 48 38 51 38 50 39 51 39 52 39 53 40 50 40 52 40 54 41 52 41 55 41 54 41 53 41 52 41 56 42 55 42 57 42 56 43 57 43 58 43 56 42 54 42 55 42 59 43 56 43 58 43 59 44 58 44 60 44 61 44 59 44 60 44 62 45 60 45 63 45 62 46 61 46 60 46 64 47 63 47 65 47 64 48 62 48 63 48 66 49 65 49 67 49 66 50 64 50 65 50 68 51 67 51 69 51 68 52 66 52 67 52 70 53 69 53 71 53 70 53 68 53 69 53 72 54 71 54 73 54 72 55 70 55 71 55 74 56 73 56 75 56 74 57 72 57 73 57 76 58 74 58 75 58 76 58 75 58 77 58 76 59 77 59 78 59 79 60 76 60 78 60 80 61 78 61 81 61 80 62 81 62 82 62 80 63 79 63 78 63 83 64 82 64 84 64 83 65 80 65 82 65 85 66 83 66 84 66 86 67 84 67 87 67 86 67 85 67 84 67 88 68 87 68 89 68 88 68 86 68 87 68 90 69 89 69 91 69 90 69 88 69 89 69 92 70 91 70 93 70 92 70 90 70 91 70 94 71 93 71 95 71 94 72 95 72 96 72 94 73 92 73 93 73 97 74 96 74 98 74 97 75 94 75 96 75 99 76 97 76 98 76 100 77 98 77 101 77 100 78 101 78 102 78 100 77 99 77 98 77 103 79 100 79 102 79 103 80 102 80 104 80 105 80 103 80 104 80 106 81 104 81 107 81 106 82 107 82 108 82 106 83 105 83 104 83 109 84 108 84 110 84 109 82 106 82 108 82 111 84 109 84 110 84 112 85 110 85 113 85 112 86 113 86 114 86 112 87 111 87 110 87 115 86 112 86 114 86 116 88 114 88 117 88 116 89 117 89 118 89 116 90 115 90 114 90 119 91 118 91 120 91 119 89 116 89 118 89 121 92 119 92 120 92 122 93 120 93 123 93 122 94 123 94 124 94 122 95 121 95 120 95 125 96 124 96 126 96 125 97 122 97 124 97 127 96 125 96 126 96 128 98 126 98 129 98 128 99 129 99 130 99 128 98 127 98 126 98 131 99 128 99 130 99 131 100 130 100 132 100 133 100 131 100 132 100 134 101 133 101 132 101 134 102 132 102 135 102 134 103 135 103 136 103 137 104 134 104 136 104 137 105 136 105 138 105 139 106 137 106 138 106 140 107 139 107 138 107 140 108 138 108 141 108 140 109 141 109 142 109 143 109 140 109 142 109 143 110 142 110 2 110 1 111 143 111 2 111 144 112 145 112 146 112 147 113 144 113 146 113 147 114 146 114 148 114 149 115 147 115 148 115 150 116 151 116 152 116 153 117 150 117 152 117 149 118 148 118 154 118 155 119 149 119 154 119 156 120 155 120 154 120 156 120 154 120 157 120 158 121 153 121 159 121 160 122 158 122 159 122 153 123 152 123 159 123 156 124 157 124 161 124 162 125 156 125 161 125 160 122 159 122 163 122 150 126 162 126 151 126 162 127 161 127 151 127 164 128 160 128 165 128 166 129 164 129 165 129 160 130 163 130 165 130 167 131 166 131 168 131 166 132 165 132 168 132 169 133 167 133 170 133 167 134 168 134 170 134 169 135 170 135 171 135 172 136 169 136 173 136 169 137 171 137 173 137 174 138 172 138 175 138 172 139 173 139 175 139 176 140 174 140 177 140 178 141 176 141 177 141 174 142 175 142 177 142 178 143 177 143 179 143 180 144 178 144 181 144 178 144 179 144 181 144 180 145 181 145 182 145 183 145 180 145 182 145 183 146 182 146 184 146 185 146 183 146 184 146 186 147 185 147 184 147 186 148 184 148 187 148 186 149 187 149 188 149 189 150 186 150 188 150 190 151 189 151 188 151 190 152 188 152 191 152 190 153 191 153 192 153 193 154 190 154 192 154 193 155 192 155 145 155 144 156 193 156 145 156 127 157 128 157 154 157 128 157 131 157 154 157 171 157 40 157 42 157 88 157 187 157 86 157 66 157 179 157 64 157 165 157 21 157 22 157 125 157 154 157 148 157 171 157 42 157 44 157 173 157 171 157 44 157 64 157 179 157 62 157 119 157 121 157 148 157 121 157 122 157 148 157 187 157 184 157 85 157 122 157 125 157 148 157 86 157 187 157 85 157 165 157 22 157 25 157 173 157 44 157 46 157 154 157 131 157 157 157 131 157 133 157 157 157 62 157 179 157 61 157 133 157 134 157 157 157 134 157 137 157 157 157 179 157 177 157 61 157 173 157 46 157 49 157 119 157 148 157 146 157 175 157 173 157 49 157 175 157 49 157 50 157 61 157 177 157 59 157 112 157 115 157 146 157 115 157 116 157 146 157 116 157 119 157 146 157 175 157 50 157 53 157 59 157 177 157 56 157 157 157 137 157 161 157 177 157 175 157 54 157 137 157 139 157 161 157 175 157 53 157 54 157 139 157 140 157 161 157 56 157 177 157 54 157 140 157 143 157 161 157 85 157 184 157 83 157 165 157 25 157 26 157 112 157 146 157 145 157 168 157 165 157 26 157 83 157 184 157 80 157 106 157 109 157 145 157 109 157 111 157 145 157 111 157 112 157 145 157 168 157 26 157 28 157 1 157 0 157 151 157 80 157 184 157 79 157 161 157 143 157 151 157 143 157 1 157 151 157 106 157 145 157 192 157 184 157 182 157 79 157 168 157 28 157 30 157 100 157 103 157 192 157 103 157 105 157 192 157 105 157 106 157 192 157 79 157 182 157 76 157 0 157 4 157 152 157 4 157 6 157 152 157 168 157 30 157 33 157 6 157 8 157 152 157 170 157 168 157 33 157 151 157 0 157 152 157 76 157 182 157 74 157 100 157 192 157 191 157 97 157 99 157 191 157 99 157 100 157 191 157 170 157 33 157 34 157 8 157 10 157 159 157 10 157 12 157 159 157 12 157 15 157 159 157 152 157 8 157 159 157 74 157 182 157 72 157 182 157 181 157 72 157 170 157 34 157 36 157 92 157 94 157 188 157 94 157 97 157 188 157 97 157 191 157 188 157 15 157 16 157 163 157 159 157 15 157 163 157 72 157 181 157 70 157 92 157 188 157 90 157 170 157 36 157 38 157 163 157 16 157 19 157 171 157 170 157 38 157 90 157 188 157 187 157 70 157 181 157 68 157 90 157 187 157 88 157 171 157 38 157 40 157 165 157 163 157 21 157 163 157 19 157 21 157 68 157 181 157 66 157 181 157 179 157 66 157 125 157 127 157 154 157 155 158 129 158 126 158 155 159 130 159 129 159 43 160 41 160 169 160 87 161 186 161 89 161 65 162 178 162 67 162 23 163 20 163 164 163 149 163 155 163 124 163 45 163 43 163 169 163 45 163 169 163 172 163 63 164 178 164 65 164 149 165 120 165 118 165 149 163 123 163 120 163 84 166 185 166 186 166 149 167 124 167 123 167 84 163 186 163 87 163 24 163 23 163 164 163 47 163 45 163 172 163 156 163 130 163 155 163 156 168 132 168 130 168 60 169 178 169 63 169 156 170 135 170 132 170 156 171 136 171 135 171 60 166 176 166 178 166 48 172 47 172 172 172 147 163 149 163 118 163 48 173 172 173 174 173 51 163 48 163 174 163 58 163 176 163 60 163 147 174 114 174 113 174 147 175 117 175 114 175 147 176 118 176 117 176 52 177 51 177 174 177 57 163 176 163 58 163 162 178 136 178 156 178 55 163 174 163 176 163 162 179 138 179 136 179 55 163 52 163 174 163 162 180 141 180 138 180 55 163 176 163 57 163 162 163 142 163 141 163 82 169 185 169 84 169 27 181 24 181 164 181 144 182 147 182 113 182 27 183 164 183 166 183 81 163 185 163 82 163 144 184 108 184 107 184 144 185 110 185 108 185 144 186 113 186 110 186 29 163 27 163 166 163 150 163 3 163 2 163 78 187 185 187 81 187 150 188 142 188 162 188 150 163 2 163 142 163 193 163 144 163 107 163 78 189 183 189 185 189 31 190 29 190 166 190 193 191 102 191 101 191 193 192 104 192 102 192 193 193 107 193 104 193 77 163 183 163 78 163 153 163 5 163 3 163 153 180 7 180 5 180 32 194 31 194 166 194 153 179 9 179 7 179 32 195 166 195 167 195 153 196 3 196 150 196 75 163 183 163 77 163 190 163 193 163 101 163 190 197 98 197 96 197 190 198 101 198 98 198 35 163 32 163 167 163 158 171 11 171 9 171 158 170 13 170 11 170 158 168 14 168 13 168 158 178 9 178 153 178 73 199 183 199 75 199 73 163 180 163 183 163 37 200 35 200 167 200 189 201 95 201 93 201 189 163 96 163 95 163 189 202 190 202 96 202 160 159 17 159 14 159 160 163 14 163 158 163 71 203 180 203 73 203 91 163 189 163 93 163 39 204 37 204 167 204 18 163 17 163 160 163 39 205 167 205 169 205 186 163 189 163 91 163 69 206 180 206 71 206 89 163 186 163 91 163 41 207 39 207 169 207 20 208 160 208 164 208 20 163 18 163 160 163 67 163 180 163 69 163 67 189 178 189 180 189 155 209 126 209 124 209 194 0 195 0 196 0 194 1 196 1 197 1 198 2 194 2 197 2 198 2 197 2 199 2 200 3 198 3 199 3 200 4 199 4 201 4 202 5 200 5 201 5 202 6 201 6 203 6 204 7 202 7 203 7 204 8 203 8 205 8 206 9 204 9 205 9 206 10 205 10 207 10 206 11 207 11 208 11 209 11 206 11 208 11 210 12 209 12 208 12 210 12 208 12 211 12 210 13 211 13 212 13 213 14 212 14 214 14 213 13 210 13 212 13 215 14 213 14 214 14 216 15 214 15 217 15 216 16 217 16 218 16 216 17 215 17 214 17 219 18 216 18 218 18 220 19 218 19 221 19 220 20 219 20 218 20 222 21 220 21 221 21 222 21 221 21 223 21 224 22 222 22 223 22 224 23 223 23 225 23 224 24 225 24 226 24 227 24 224 24 226 24 228 25 227 25 226 25 228 26 226 26 229 26 230 27 228 27 229 27 230 27 229 27 231 27 232 28 230 28 231 28 232 28 231 28 233 28 234 29 232 29 233 29 234 30 233 30 235 30 236 31 234 31 235 31 236 31 235 31 237 31 238 32 236 32 237 32 238 33 237 33 239 33 240 34 238 34 239 34 240 34 239 34 241 34 240 35 241 35 242 35 243 36 240 36 242 36 244 37 243 37 242 37 244 38 242 38 245 38 244 39 245 39 246 39 247 40 244 40 246 40 248 41 246 41 249 41 248 41 247 41 246 41 250 42 249 42 251 42 250 43 251 43 252 43 250 42 248 42 249 42 253 43 250 43 252 43 253 44 252 44 254 44 255 44 253 44 254 44 256 45 254 45 257 45 256 46 255 46 254 46 258 47 257 47 259 47 258 48 256 48 257 48 260 49 259 49 261 49 260 50 258 50 259 50 262 51 261 51 263 51 262 52 260 52 261 52 264 53 263 53 265 53 264 53 262 53 263 53 266 54 265 54 267 54 266 55 264 55 265 55 268 56 267 56 269 56 268 57 266 57 267 57 270 58 268 58 269 58 270 58 269 58 271 58 270 59 271 59 272 59 273 60 270 60 272 60 274 61 272 61 275 61 274 62 275 62 276 62 274 63 273 63 272 63 277 64 276 64 278 64 277 65 274 65 276 65 279 66 277 66 278 66 280 67 278 67 281 67 280 67 279 67 278 67 282 68 281 68 283 68 282 68 280 68 281 68 284 69 283 69 285 69 284 69 282 69 283 69 286 70 285 70 287 70 286 70 284 70 285 70 288 71 287 71 289 71 288 72 289 72 290 72 288 73 286 73 287 73 291 74 290 74 292 74 291 75 288 75 290 75 293 76 291 76 292 76 294 77 292 77 295 77 294 78 295 78 296 78 294 77 293 77 292 77 297 79 294 79 296 79 297 80 296 80 298 80 299 80 297 80 298 80 300 81 298 81 301 81 300 82 301 82 302 82 300 83 299 83 298 83 303 84 302 84 304 84 303 82 300 82 302 82 305 84 303 84 304 84 306 85 304 85 307 85 306 86 307 86 308 86 306 87 305 87 304 87 309 86 306 86 308 86 310 88 308 88 311 88 310 89 311 89 312 89 310 90 309 90 308 90 313 91 312 91 314 91 313 89 310 89 312 89 315 92 313 92 314 92 316 93 314 93 317 93 316 94 317 94 318 94 316 95 315 95 314 95 319 96 318 96 320 96 319 97 316 97 318 97 321 96 319 96 320 96 322 98 320 98 323 98 322 99 323 99 324 99 322 98 321 98 320 98 325 99 322 99 324 99 325 100 324 100 326 100 327 100 325 100 326 100 328 101 327 101 326 101 328 102 326 102 329 102 328 103 329 103 330 103 331 104 328 104 330 104 331 105 330 105 332 105 333 106 331 106 332 106 334 107 333 107 332 107 334 108 332 108 335 108 334 109 335 109 336 109 337 109 334 109 336 109 337 110 336 110 196 110 195 111 337 111 196 111 338 112 339 112 340 112 341 113 338 113 340 113 341 114 340 114 342 114 343 115 341 115 342 115 344 116 345 116 346 116 347 117 344 117 346 117 343 118 342 118 348 118 349 119 343 119 348 119 350 120 349 120 348 120 350 120 348 120 351 120 352 121 347 121 353 121 354 122 352 122 353 122 347 123 346 123 353 123 350 124 351 124 355 124 356 125 350 125 355 125 354 122 353 122 357 122 344 126 356 126 345 126 356 127 355 127 345 127 358 128 354 128 359 128 360 129 358 129 359 129 354 130 357 130 359 130 361 131 360 131 362 131 360 132 359 132 362 132 363 133 361 133 364 133 361 134 362 134 364 134 363 135 364 135 365 135 366 136 363 136 367 136 363 137 365 137 367 137 368 138 366 138 369 138 366 139 367 139 369 139 370 140 368 140 371 140 372 141 370 141 371 141 368 142 369 142 371 142 372 143 371 143 373 143 374 144 372 144 375 144 372 144 373 144 375 144 374 145 375 145 376 145 377 145 374 145 376 145 377 146 376 146 378 146 379 146 377 146 378 146 380 147 379 147 378 147 380 148 378 148 381 148 380 149 381 149 382 149 383 150 380 150 382 150 384 151 383 151 382 151 384 152 382 152 385 152 384 153 385 153 386 153 387 154 384 154 386 154 387 155 386 155 339 155 338 156 387 156 339 156 321 157 322 157 348 157 322 157 325 157 348 157 365 157 234 157 236 157 282 157 381 157 280 157 260 157 373 157 258 157 359 157 215 157 216 157 319 157 348 157 342 157 365 157 236 157 238 157 367 157 365 157 238 157 258 157 373 157 256 157 313 157 315 157 342 157 315 157 316 157 342 157 381 157 378 157 279 157 316 157 319 157 342 157 280 157 381 157 279 157 359 157 216 157 219 157 367 157 238 157 240 157 348 157 325 157 351 157 325 157 327 157 351 157 256 157 373 157 255 157 327 157 328 157 351 157 328 157 331 157 351 157 373 157 371 157 255 157 367 157 240 157 243 157 313 157 342 157 340 157 369 157 367 157 243 157 369 157 243 157 244 157 255 157 371 157 253 157 306 157 309 157 340 157 309 157 310 157 340 157 310 157 313 157 340 157 369 157 244 157 247 157 253 157 371 157 250 157 351 157 331 157 355 157 371 157 369 157 248 157 331 157 333 157 355 157 369 157 247 157 248 157 333 157 334 157 355 157 250 157 371 157 248 157 334 157 337 157 355 157 279 157 378 157 277 157 359 157 219 157 220 157 306 157 340 157 339 157 362 157 359 157 220 157 277 157 378 157 274 157 300 157 303 157 339 157 303 157 305 157 339 157 305 157 306 157 339 157 362 157 220 157 222 157 195 157 194 157 345 157 274 157 378 157 273 157 355 157 337 157 345 157 337 157 195 157 345 157 300 157 339 157 386 157 378 157 376 157 273 157 362 157 222 157 224 157 294 157 297 157 386 157 297 157 299 157 386 157 299 157 300 157 386 157 273 157 376 157 270 157 194 157 198 157 346 157 198 157 200 157 346 157 362 157 224 157 227 157 200 157 202 157 346 157 364 157 362 157 227 157 345 157 194 157 346 157 270 157 376 157 268 157 294 157 386 157 385 157 291 157 293 157 385 157 293 157 294 157 385 157 364 157 227 157 228 157 202 157 204 157 353 157 204 157 206 157 353 157 206 157 209 157 353 157 346 157 202 157 353 157 268 157 376 157 266 157 376 157 375 157 266 157 364 157 228 157 230 157 286 157 288 157 382 157 288 157 291 157 382 157 291 157 385 157 382 157 209 157 210 157 357 157 353 157 209 157 357 157 266 157 375 157 264 157 286 157 382 157 284 157 364 157 230 157 232 157 357 157 210 157 213 157 365 157 364 157 232 157 284 157 382 157 381 157 264 157 375 157 262 157 284 157 381 157 282 157 365 157 232 157 234 157 359 157 357 157 215 157 357 157 213 157 215 157 262 157 375 157 260 157 375 157 373 157 260 157 319 157 321 157 348 157 349 158 323 158 320 158 349 159 324 159 323 159 237 160 235 160 363 160 281 161 380 161 283 161 259 162 372 162 261 162 217 163 214 163 358 163 343 163 349 163 318 163 239 163 237 163 363 163 239 163 363 163 366 163 257 164 372 164 259 164 343 165 314 165 312 165 343 163 317 163 314 163 278 166 379 166 380 166 343 167 318 167 317 167 278 163 380 163 281 163 218 163 217 163 358 163 241 163 239 163 366 163 350 163 324 163 349 163 350 168 326 168 324 168 254 169 372 169 257 169 350 170 329 170 326 170 350 171 330 171 329 171 254 166 370 166 372 166 242 172 241 172 366 172 341 163 343 163 312 163 242 173 366 173 368 173 245 163 242 163 368 163 252 163 370 163 254 163 341 174 308 174 307 174 341 175 311 175 308 175 341 176 312 176 311 176 246 177 245 177 368 177 251 163 370 163 252 163 356 178 330 178 350 178 249 163 368 163 370 163 356 179 332 179 330 179 249 163 246 163 368 163 356 180 335 180 332 180 249 163 370 163 251 163 356 163 336 163 335 163 276 169 379 169 278 169 221 181 218 181 358 181 338 182 341 182 307 182 221 183 358 183 360 183 275 163 379 163 276 163 338 184 302 184 301 184 338 185 304 185 302 185 338 186 307 186 304 186 223 163 221 163 360 163 344 163 197 163 196 163 272 187 379 187 275 187 344 188 336 188 356 188 344 163 196 163 336 163 387 163 338 163 301 163 272 189 377 189 379 189 225 190 223 190 360 190 387 191 296 191 295 191 387 192 298 192 296 192 387 193 301 193 298 193 271 163 377 163 272 163 347 163 199 163 197 163 347 180 201 180 199 180 226 194 225 194 360 194 347 179 203 179 201 179 226 195 360 195 361 195 347 196 197 196 344 196 269 163 377 163 271 163 384 163 387 163 295 163 384 197 292 197 290 197 384 198 295 198 292 198 229 163 226 163 361 163 352 171 205 171 203 171 352 170 207 170 205 170 352 168 208 168 207 168 352 178 203 178 347 178 267 199 377 199 269 199 267 163 374 163 377 163 231 200 229 200 361 200 383 201 289 201 287 201 383 163 290 163 289 163 383 202 384 202 290 202 354 159 211 159 208 159 354 163 208 163 352 163 265 203 374 203 267 203 285 163 383 163 287 163 233 204 231 204 361 204 212 163 211 163 354 163 233 205 361 205 363 205 380 163 383 163 285 163 263 206 374 206 265 206 283 163 380 163 285 163 235 207 233 207 363 207 214 208 354 208 358 208 214 163 212 163 354 163 261 163 374 163 263 163 261 189 372 189 374 189 349 209 320 209 318 209</p>
        </triangles>
      </mesh>
    </geometry>
  </library_geometries>
  <library_visual_scenes>
    <visual_scene id="Scene" name="Scene">
      <node id="node" name="node" type="NODE">
        <matrix sid="transform">1 0 0 0 0 1 0 0 0 0 1 0 0 0 0 1</matrix>
        <instance_geometry url="#shape0_034-mesh" name="node">
          <bind_material>
            <technique_common>
              <instance_material symbol="Material_022-material" target="#Material_022-material"/>
            </technique_common>
          </bind_material>
        </instance_geometry>
      </node>
    </visual_scene>
  </library_visual_scenes>
  <scene>
    <instance_visual_scene url="#Scene"/>
  </scene>
</COLLADA>