<?xml version="1.0" encoding="utf-8"?>
<COLLADA xmlns="http://www.collada.org/2005/11/COLLADASchema" version="1.4.1" xmlns:xsi="http://www.w3.org/2001/XMLSchema-instance">
  <asset>
    <contributor>
      <author>Blender User</author>
      <authoring_tool>Blender 4.1.1 commit date:2024-04-15, commit time:15:11, hash:e1743a0317bc</authoring_tool>
    </contributor>
    <created>2024-07-11T21:31:22</created>
    <modified>2024-07-11T21:31:22</modified>
    <unit name="meter" meter="1"/>
    <up_axis>Z_UP</up_axis>
  </asset>
  <library_images/>
  <library_geometries>
    <geometry id="shape0_002-mesh" name="shape0.002">
      <mesh>
        <source id="shape0_002-mesh-positions">
          <float_array id="shape0_002-mesh-positions-array" count="1503">65.92501 170.86 15 65.92501 170.86 7 66.5949 173.36 15 66.5949 173.36 7 68.42501 175.19 15 68.42501 175.19 7 70.92501 175.86 15 70.92501 175.86 7 73.42501 175.19 15 73.42501 175.19 7 75.2551 173.36 15 75.2551 173.36 7 75.92501 170.86 15 75.92501 170.86 7 70.92501 170.86 3.9957 124.075 29.14 15 124.075 29.14 7 124.745 31.64 15 124.745 31.64 7 126.575 33.4701 15 126.575 33.4701 7 129.075 34.14 15 129.075 34.14 7 131.575 33.4701 15 131.575 33.4701 7 133.405 31.64 15 133.405 31.64 7 134.075 29.14 15 134.075 29.14 7 129.075 29.14 3.9957 65.92501 29.14 15 65.92501 29.14 7 66.5949 31.64 15 66.5949 31.64 7 68.42501 33.4701 15 68.42501 33.4701 7 70.92501 34.14 15 70.92501 34.14 7 73.42501 33.4701 15 73.42501 33.4701 7 75.2551 31.64 15 75.2551 31.64 7 75.92501 29.14 15 75.92501 29.14 7 70.92501 29.14 3.9957 124.075 170.86 15 124.075 170.86 7 124.745 173.36 15 124.745 173.36 7 126.575 175.19 15 126.575 175.19 7 129.075 175.86 15 129.075 175.86 7 131.575 175.19 15 131.575 175.19 7 133.405 173.36 15 133.405 173.36 7 134.075 170.86 15 134.075 170.86 7 129.075 170.86 3.9957 145.5 50 6 145.5 50 0 146.103 52.25 6 146.103 52.25 0 147.75 53.8971 6 147.75 53.8971 0 150 54.5 6 150 54.5 0 152.25 53.8971 6 152.25 53.8971 0 153.897 52.25 6 153.897 52.25 0 154.5 50 6 154.5 50 0 142.5 50 15 142.5 50 6 143.505 53.75 15 143.505 53.75 6 146.25 56.4952 15 146.25 56.4952 6 150 57.5 15 150 57.5 6 153.75 56.4952 15 153.75 56.4952 6 156.495 53.75 15 156.495 53.75 6 157.5 50 15 157.5 50 6 45.5 150 6 45.5 150 0 46.1029 152.25 6 46.1029 152.25 0 47.75 153.897 6 47.75 153.897 0 50 154.5 6 50 154.5 0 52.25 153.897 6 52.25 153.897 0 53.8971 152.25 6 53.8971 152.25 0 54.5 150 6 54.5 150 0 42.5 150 15 42.5 150 6 43.5048 153.75 15 43.5048 153.75 6 46.25 156.495 15 46.25 156.495 6 50 157.5 15 50 157.5 6 53.75 156.495 15 53.75 156.495 6 56.4952 153.75 15 56.4952 153.75 6 57.5 150 15 57.5 150 6 45.5 50 6 45.5 50 0 46.1029 52.25 6 46.1029 52.25 0 47.75 53.8971 6 47.75 53.8971 0 50 54.5 6 50 54.5 0 52.25 53.8971 6 52.25 53.8971 0 53.8971 52.25 6 53.8971 52.25 0 54.5 50 6 54.5 50 0 42.5 50 15 42.5 50 6 43.5048 53.75 15 43.5048 53.75 6 46.25 56.4952 15 46.25 56.4952 6 50 57.5 15 50 57.5 6 53.75 56.4952 15 53.75 56.4952 6 56.4952 53.75 15 56.4952 53.75 6 57.5 50 15 57.5 50 6 145.5 150 6 145.5 150 0 146.103 152.25 6 146.103 152.25 0 147.75 153.897 6 147.75 153.897 0 150 154.5 6 150 154.5 0 152.25 153.897 6 152.25 153.897 0 153.897 152.25 6 153.897 152.25 0 154.5 150 6 154.5 150 0 142.5 150 15 142.5 150 6 143.505 153.75 15 143.505 153.75 6 146.25 156.495 15 146.25 156.495 6 150 157.5 15 150 157.5 6 153.75 156.495 15 153.75 156.495 6 156.495 153.75 15 156.495 153.75 6 157.5 150 15 157.5 150 6 146.103 147.75 6 143.505 146.25 6 147.75 146.103 6 146.25 143.505 6 150 145.5 6 150 142.5 6 152.25 146.103 6 153.75 143.505 6 153.897 147.75 6 156.495 146.25 6 156.495 146.25 15 153.75 143.505 15 150 142.5 15 146.25 143.505 15 143.505 146.25 15 153.897 147.75 0 152.25 146.103 0 150 145.5 0 147.75 146.103 0 146.103 147.75 0 46.1029 47.75 6 43.5048 46.25 6 47.75 46.1029 6 46.25 43.5048 6 50 45.5 6 50 42.5 6 52.25 46.1029 6 53.75 43.5048 6 53.8971 47.75 6 56.4952 46.25 6 56.4952 46.25 15 53.75 43.5048 15 50 42.5 15 46.25 43.5048 15 43.5048 46.25 15 53.8971 47.75 0 52.25 46.1029 0 50 45.5 0 47.75 46.1029 0 46.1029 47.75 0 46.1029 147.75 6 43.5048 146.25 6 47.75 146.103 6 46.25 143.505 6 50 145.5 6 50 142.5 6 52.25 146.103 6 53.75 143.505 6 53.8971 147.75 6 56.4952 146.25 6 56.4952 146.25 15 53.75 143.505 15 50 142.5 15 46.25 143.505 15 43.5048 146.25 15 53.8971 147.75 0 52.25 146.103 0 50 145.5 0 47.75 146.103 0 46.1029 147.75 0 146.103 47.75 6 143.505 46.25 6 147.75 46.1029 6 146.25 43.5048 6 150 45.5 6 150 42.5 6 152.25 46.1029 6 153.75 43.5048 6 153.897 47.75 6 156.495 46.25 6 156.495 46.25 15 153.75 43.5048 15 150 42.5 15 146.25 43.5048 15 143.505 46.25 15 153.897 47.75 0 152.25 46.1029 0 150 45.5 0 147.75 46.1029 0 146.103 47.75 0 126.575 166.53 7 129.075 165.86 7 124.745 168.36 7 133.405 168.36 7 131.575 166.53 7 133.405 168.36 15 131.575 166.53 15 129.075 165.86 15 126.575 166.53 15 124.745 168.36 15 68.42501 24.8099 7 70.92501 24.14 7 66.5949 26.64 7 75.2551 26.64 7 73.42501 24.8099 7 75.2551 26.64 15 73.42501 24.8099 15 70.92501 24.14 15 68.42501 24.8099 15 66.5949 26.64 15 126.575 24.8099 7 129.075 24.14 7 124.745 26.64 7 133.405 26.64 7 131.575 24.8099 7 133.405 26.64 15 131.575 24.8099 15 129.075 24.14 15 126.575 24.8099 15 124.745 26.64 15 68.42501 166.53 7 70.92501 165.86 7 66.5949 168.36 7 75.2551 168.36 7 73.42501 166.53 7 75.2551 168.36 15 73.42501 166.53 15 70.92501 165.86 15 68.42501 166.53 15 66.5949 168.36 15 0 0 0 0 0 15 0 12.07 15 0 38.32 15 0 100 15 0 200 0 0 161.68 15 0 200 15 0 200 0 0 200 15 21.25 200 15 61.7125 200 15 100 200 15 200 200 0 138.288 200 15 200 200 15 200 12.07 15 200 0 15 200 0 0 200 161.68 15 200 100 15 200 38.32 15 21.25 0 15 138.288 0 15 100 0 15 61.7125 0 15 138.288 161.68 15 100 161.68 15 61.7125 161.68 15 21.25 161.68 15 138.288 100 15 61.7125 100 15 21.25 100 15 138.288 38.32 15 100 100 15 100 38.32 15 61.7125 38.32 15 21.25 38.32 15 138.288 12.07 15 100 12.07 15 61.7125 12.07 15 21.25 12.07 15 0 200 15 0 161.68 15 0 100 15 0 38.32 15 0 12.07 15 0 0 15 0 200 0 65.92501 29.14 55.4978 65.92501 29.14 5.49785 66.1697 27.5949 5.49785 66.1697 27.5949 55.4978 66.8799 26.2011 5.49785 66.8799 26.2011 55.4978 67.9861 25.0949 5.49785 67.9861 25.0949 55.4978 69.3799 24.3847 5.49785 69.3799 24.3847 55.4978 70.92501 24.14 5.49785 70.92501 24.14 55.4978 72.4701 24.3847 5.49785 72.4701 24.3847 55.4978 73.8639 25.0949 5.49785 73.8639 25.0949 55.4978 74.9701 26.2011 5.49785 74.9701 26.2011 55.4978 75.6803 27.5949 5.49785 75.6803 27.5949 55.4978 75.92501 29.14 5.49785 75.92501 29.14 55.4978 75.6803 30.6851 5.49785 75.6803 30.6851 55.4978 74.9701 32.0789 5.49785 74.9701 32.0789 55.4978 73.8639 33.1851 5.49785 73.8639 33.1851 55.4978 72.4701 33.8953 5.49785 72.4701 33.8953 55.4978 70.92501 34.14 5.49785 70.92501 34.14 55.4978 69.3799 33.8953 5.49785 69.3799 33.8953 55.4978 67.9861 33.1851 5.49785 67.9861 33.1851 55.4978 66.8799 32.0789 5.49785 66.8799 32.0789 55.4978 66.1697 30.6851 5.49785 66.1697 30.6851 55.4978 124.075 29.14 55.4978 124.075 29.14 5.49785 124.32 27.5949 5.49785 124.32 27.5949 55.4978 125.03 26.2011 5.49785 125.03 26.2011 55.4978 126.136 25.0949 5.49785 126.136 25.0949 55.4978 127.53 24.3847 5.49785 127.53 24.3847 55.4978 129.075 24.14 5.49785 129.075 24.14 55.4978 130.62 24.3847 5.49785 130.62 24.3847 55.4978 132.014 25.0949 5.49785 132.014 25.0949 55.4978 133.12 26.2011 5.49785 133.12 26.2011 55.4978 133.83 27.5949 5.49785 133.83 27.5949 55.4978 134.075 29.14 5.49785 134.075 29.14 55.4978 133.83 30.6851 5.49785 133.83 30.6851 55.4978 133.12 32.0789 5.49785 133.12 32.0789 55.4978 132.014 33.1851 5.49785 132.014 33.1851 55.4978 130.62 33.8953 5.49785 130.62 33.8953 55.4978 129.075 34.14 5.49785 129.075 34.14 55.4978 127.53 33.8953 5.49785 127.53 33.8953 55.4978 126.136 33.1851 5.49785 126.136 33.1851 55.4978 125.03 32.0789 5.49785 125.03 32.0789 55.4978 124.32 30.6851 5.49785 124.32 30.6851 55.4978 124.075 170.86 55.4978 124.075 170.86 5.49785 124.32 169.315 5.49785 124.32 169.315 55.4978 125.03 167.921 5.49785 125.03 167.921 55.4978 126.136 166.815 5.49785 126.136 166.815 55.4978 127.53 166.105 5.49785 127.53 166.105 55.4978 129.075 165.86 5.49785 129.075 165.86 55.4978 130.62 166.105 5.49785 130.62 166.105 55.4978 132.014 166.815 5.49785 132.014 166.815 55.4978 133.12 167.921 5.49785 133.12 167.921 55.4978 133.83 169.315 5.49785 133.83 169.315 55.4978 134.075 170.86 5.49785 134.075 170.86 55.4978 133.83 172.405 5.49785 133.83 172.405 55.4978 133.12 173.799 5.49785 133.12 173.799 55.4978 132.014 174.905 5.49785 132.014 174.905 55.4978 130.62 175.615 5.49785 130.62 175.615 55.4978 129.075 175.86 5.49785 129.075 175.86 55.4978 127.53 175.615 5.49785 127.53 175.615 55.4978 126.136 174.905 5.49785 126.136 174.905 55.4978 125.03 173.799 5.49785 125.03 173.799 55.4978 124.32 172.405 5.49785 124.32 172.405 55.4978 65.92501 170.86 55.4978 65.92501 170.86 5.49785 66.1697 169.315 5.49785 66.1697 169.315 55.4978 66.8799 167.921 5.49785 66.8799 167.921 55.4978 67.9861 166.815 5.49785 67.9861 166.815 55.4978 69.3799 166.105 5.49785 69.3799 166.105 55.4978 70.92501 165.86 5.49785 70.92501 165.86 55.4978 72.4701 166.105 5.49785 72.4701 166.105 55.4978 73.8639 166.815 5.49785 73.8639 166.815 55.4978 74.9701 167.921 5.49785 74.9701 167.921 55.4978 75.6803 169.315 5.49785 75.6803 169.315 55.4978 75.92501 170.86 5.49785 75.92501 170.86 55.4978 75.6803 172.405 5.49785 75.6803 172.405 55.4978 74.9701 173.799 5.49785 74.9701 173.799 55.4978 73.8639 174.905 5.49785 73.8639 174.905 55.4978 72.4701 175.615 5.49785 72.4701 175.615 55.4978 70.92501 175.86 5.49785 70.92501 175.86 55.4978 69.3799 175.615 5.49785 69.3799 175.615 55.4978 67.9861 174.905 5.49785 67.9861 174.905 55.4978 66.8799 173.799 5.49785 66.8799 173.799 55.4978 66.1697 172.405 5.49785 66.1697 172.405 55.4978</float_array>
          <technique_common>
            <accessor source="#shape0_002-mesh-positions-array" count="501" stride="3">
              <param name="X" type="float"/>
              <param name="Y" type="float"/>
              <param name="Z" type="float"/>
            </accessor>
          </technique_common>
        </source>
        <source id="shape0_002-mesh-normals">
          <float_array id="shape0_002-mesh-normals-array" count="1389">0.965924 -0.2588257 0 0.9659227 -0.2588312 0 0.7070891 -0.7071245 0 0.7070862 -0.7071274 0 0.2588642 -0.9659138 0 -0.2588642 -0.9659138 0 -0.7070891 -0.7071245 0 -0.9659227 -0.2588312 0 -0.1367333 -0.5102 0.8491172 -0.3734889 -0.3735067 0.8491166 -0.5102017 -0.1367152 0.8491191 0.5102024 -0.1367112 0.8491193 0.3734856 -0.3735076 0.8491175 0.1367331 -0.5102016 0.8491163 0.9659138 -0.2588642 0 0.707126 -0.7070876 0 0.258827 -0.9659238 0 0.2588284 -0.9659233 0 -0.2588284 -0.9659233 0 -0.707129 -0.7070847 0 -0.9659123 -0.2588697 0 -0.1367132 -0.5102045 0.8491177 -0.3735091 -0.3734839 0.8491176 -0.5102002 -0.1367376 0.8491165 0.5102003 -0.1367293 0.8491177 0.3735063 -0.3734894 0.8491165 0.1367131 -0.5102001 0.8491204 0.7071083 -0.7071053 0 0.7071053 -0.7071083 0 -0.7071083 -0.7071053 0 -0.1367135 -0.5102015 0.8491196 -0.373496 -0.3734937 0.8491191 0.510202 -0.1367111 0.8491196 0.3734945 -0.3734963 0.8491187 0.1367133 -0.510203 0.8491187 0.7071068 -0.7071068 0 0.2588627 -0.9659141 0 -0.7071098 -0.7071039 0 -0.136733 -0.5102031 0.8491154 -0.3735026 -0.3734976 0.8491146 0.5102025 -0.1367299 0.8491163 0.3734987 -0.3735021 0.8491142 0.1367333 -0.5102 0.8491172 0.9659107 -0.2588758 0 0.965915 -0.2588595 0 0.7071251 -0.7070885 0 0.7071338 -0.7070798 0 0.2588254 -0.9659242 0 -0.2588254 -0.9659242 0 -0.7071251 -0.7070885 0 -0.7071294 -0.7070841 0 -0.9659129 -0.2588676 0 -0.965915 -0.2588595 0 0.9659141 -0.2588627 0 0.9659124 -0.2588692 0 0.7071346 -0.707079 0 0.7071311 -0.7070825 0 0.2588174 -0.9659264 0 -0.2588174 -0.9659264 0 -0.7071311 -0.7070825 0 -0.9659141 -0.2588627 0 0.9659249 -0.2588228 0 0.707085 -0.7071287 0 0.2588636 -0.9659139 0 -0.2588636 -0.9659139 0 -0.7070872 -0.7071264 0 -0.707085 -0.7071287 0 -0.9659249 -0.2588228 0 -0.9659238 -0.2588269 0 0.9659264 -0.2588171 0 0.9659268 -0.2588155 0 0.7070817 -0.7071319 0 0.7070826 -0.7071311 0 0.2588624 -0.9659143 0 -0.2588624 -0.9659143 0 -0.7070834 -0.7071301 0 -0.7070817 -0.7071319 0 -0.9659264 -0.2588171 0 0.7071055 -0.7071082 0 -0.7071076 -0.707106 0 -0.7071055 -0.7071082 0 0.7071058 -0.7071078 0 0.7071066 -0.707107 0 -0.7071076 -0.7071061 0 -0.7071058 -0.7071078 0 0.7071046 -0.707109 0 0.7071134 -0.7071003 0 -0.7071046 -0.707109 0 -0.707109 -0.7071046 0 0.7071105 -0.7071031 0 0.707107 -0.7071066 0 -0.707107 -0.7071066 0 0 0 1 -0.9659141 0.2588627 0 -0.7071051 0.7071085 0 -0.258866 0.9659133 0 0.258866 0.9659133 0 0.7071051 0.7071085 0 0.7071086 0.7071051 0 0.9659124 0.2588692 0 0.9659141 0.2588627 0 -0.965915 0.2588595 0 -0.9659129 0.2588676 0 -0.7071057 0.7071079 0 -0.7071014 0.7071123 0 -0.2588697 0.9659123 0 0.2588697 0.9659123 0 0.7071101 0.7071036 0 0.7071014 0.7071123 0 0.965915 0.2588595 0 0.9659107 0.2588758 0 -0.9659264 0.2588171 0 -0.7071062 0.7071074 0 -0.707108 0.7071056 0 -0.2588165 0.9659266 0 0.2588165 0.9659266 0 0.7071071 0.7071065 0 0.7071062 0.7071074 0 0.9659268 0.2588155 0 0.9659264 0.2588171 0 -0.9659238 0.2588269 0 -0.9659249 0.2588228 0 -0.7071063 0.7071074 0 -0.7071084 0.7071052 0 -0.2588238 0.9659246 0 0.2588238 0.9659246 0 0.7071063 0.7071074 0 0.9659249 0.2588228 0 -0.7070797 0.7071338 0 -0.7070814 0.7071321 0 0.7070806 0.707133 0 0.7070797 0.7071338 0 -0.7070817 0.7071319 0 -0.7070839 0.7071298 0 0.7070817 0.7071319 0 -0.7071316 0.707082 0 0.7071316 0.707082 0 0.7071351 0.7070785 0 -0.7071303 0.7070833 0 -0.7071259 0.7070877 0 0.7071347 0.707079 0 0.7071259 0.7070877 0 0.1367333 0.5102 0.8491172 0.3735001 0.3735035 0.8491131 0.5101971 0.1367285 0.8491198 -0.5101992 0.1367373 0.849117 -0.3735052 0.3735002 0.8491123 -0.136733 0.5102031 0.8491154 -0.9659123 0.2588697 0 -0.7071098 0.7071039 0 -0.2588642 0.9659138 0 0.2588642 0.9659138 0 0.2588627 0.9659141 0 0.7071068 0.7071068 0 0.9659138 0.2588642 0 0.1367136 0.510203 0.8491187 0.3734942 0.3734963 0.8491188 0.5102024 0.1367112 0.8491193 -0.5102018 0.1367152 0.8491191 -0.3734958 0.3734937 0.8491192 -0.1367137 0.5102014 0.8491195 -0.9659227 0.2588312 0 -0.7071079 0.7071057 0 -0.2588291 0.9659231 0 0.2588291 0.9659231 0 0.7071049 0.7071086 0 0.7071079 0.7071057 0 0.9659227 0.2588312 0 0.965924 0.2588257 0 0.1367134 0.5102003 0.8491202 0.373506 0.3734894 0.8491166 0.5101998 0.1367292 0.8491181 -0.5102 0.1367375 0.8491165 -0.3735088 0.373484 0.8491177 -0.1367134 0.5102045 0.8491177 -0.7071286 0.7070851 0 0.2588276 0.9659236 0 0.7071256 0.7070881 0 0.1367331 0.5102016 0.8491163 0.3734896 0.3735116 0.8491141 0.510202 0.1367111 0.8491196 -0.5102017 0.1367152 0.8491191 -0.3734889 0.3735067 0.8491166 -0.1367333 0.5102 0.8491172 -0.7070891 0.7071245 0 0.7070862 0.7071274 0 0.7070891 0.7071245 0 -1 0 0 -1 0 0 -1 0 0 -1 0 0 -1 0 0 -1 0 0 0 1 0 0 1 -1.7004e-6 0 1 -1.70038e-6 1 0 0 0 -1 0 -3.24535e-7 0 1 5.63286e-7 0 1 -4.58754e-7 0 1 -1.89031e-7 0 1 4.58758e-7 0 1 3.24527e-7 0 1 0 0 1 0 0 1 5.54192e-7 0 1 -2.22895e-7 0 1 1.81986e-7 0 1 -1.54826e-7 0 1 -2.58437e-7 0 1 -5.54201e-7 0 1 1.66902e-7 0 1 2.02845e-7 0 1 6.14625e-7 0 1 -8.39623e-7 0 1 2.30015e-7 0 1 -9.14618e-7 0 1 5.35783e-7 0 1 -4.24155e-7 0 1 2.65093e-7 0 1 -7.94611e-7 0 1 5.24769e-7 0 1 -8.57239e-7 0 1 9.14744e-7 0 1 0 0 -1 -0.9876915 -0.1564145 0 -0.9876896 -0.1564267 0 -0.8910017 -0.4540002 0 -0.8909992 -0.4540051 0 -0.707109 -0.7071047 0 -0.7071058 -0.7071078 0 -0.454003 -0.8910002 0 -0.1564209 -0.9876906 0 -0.1564218 -0.9876904 0 0.1564209 -0.9876906 0 0.1564228 -0.9876903 0 0.454003 -0.8910002 0 0.707109 -0.7071047 0 0.7071058 -0.7071078 0 0.8910017 -0.4540002 0 0.8909992 -0.4540051 0 0.9876906 -0.1564206 0 0.9876896 -0.1564267 0 0.9876896 0.1564267 0 0.9876906 0.1564206 0 0.8909991 0.4540052 0 0.8910017 0.4540002 0 0.7071065 0.7071072 0 0.7071096 0.707104 0 0.454001 0.8910012 0 0.454001 0.8910012 0 0.156424 0.98769 0 0.1564221 0.9876904 0 -0.156423 0.9876902 0 -0.1564221 0.9876904 0 -0.454001 0.8910012 0 -0.454001 0.8910012 0 -0.7071065 0.7071072 0 -0.7071096 0.707104 0 -0.8909991 0.4540052 0 -0.8910017 0.4540002 0 -0.9876896 0.1564267 0 -0.9876916 0.1564145 0 8.52504e-7 0 -1 -2.87756e-7 0 -1 1.62253e-7 0 -1 -1.62253e-7 0 -1 5.75525e-7 0 -1 -6.76598e-7 0 -1 -2.28458e-7 0 -1 -1.26114e-6 0 -1 1.73809e-6 0 -1 -4.40033e-7 0 -1 4.60425e-6 0 1 -3.72115e-6 0 1 8.52574e-7 0 1 6.48984e-7 0 1 -5.75549e-7 0 1 2.34687e-6 0 1 -7.3104e-6 0 1 1.00891e-5 0 1 -1.39054e-5 0 1 -0.9876607 -0.1566094 0 -0.9876626 -0.1565972 0 -0.8910471 -0.453911 0 -0.8908395 -0.4543182 0 -0.8908395 -0.4543182 0 -0.8908395 -0.4543182 -4.36529e-7 -0.7071651 -0.7070484 0 -0.4539551 -0.8910247 0 -0.1564295 -0.9876891 0 -0.1564315 -0.9876888 0 0.1564334 -0.9876886 0 0.1564334 -0.9876886 0 0.4539449 -0.8910298 0 0.45395 -0.8910272 0 0.7071776 -0.707036 0 0.7071714 -0.7070422 0 0.8910471 -0.453911 0 0.8910522 -0.4539011 0 0.9876587 -0.1566216 0 0.9876607 -0.1566094 0 0.9876607 0.1566094 0 0.9876587 0.1566216 0 0.8910521 0.4539011 0 0.8910471 0.453911 0 0.707172 0.7070416 0 0.7071783 0.7070354 0 0.453948 0.8910282 0 0.453943 0.8910309 0 0.1564346 0.9876883 0 0.1564346 0.9876883 0 -0.1564327 0.9876887 0 -0.1564307 0.987689 0 -0.4539531 0.8910256 0 -0.453953 0.8910256 0 -0.7071658 0.7070479 0 -0.7071658 0.7070478 0 -0.8909048 0.4541901 0 -0.8909048 0.4541901 0 -0.8909048 0.4541901 0 -0.8910471 0.453911 0 -0.9876626 0.1565972 0 -0.9876607 0.1566094 0 -1.59847e-7 0 -1 0 0 -1 0 0 -1 0 0 -1 3.25929e-7 0 -1 -6.30244e-7 0 -1 -1.03833e-6 0 1 1.03834e-6 0 1 1.15114e-6 0 1 -1.15114e-6 0 1 1.37082e-6 0 1 3.47582e-6 0 1 -7.5675e-6 0 1 -0.9876591 -0.1566194 0 -0.987661 -0.1566072 0 -0.8909206 -0.4541592 0 -0.8909206 -0.4541592 0 -0.8909206 -0.4541592 0 -0.891083 -0.4538403 0 -0.7071024 -0.7071113 0 -0.7071024 -0.7071112 0 -0.4538486 -0.891079 0 -0.1566234 -0.9876585 0 -0.1566254 -0.9876582 0 0.1562958 -0.9877104 0 0.1562958 -0.9877104 3.05571e-7 0.1562958 -0.9877104 0 0.1566273 -0.9876579 0 0.4538384 -0.891084 0 0.4538434 -0.8910815 0 0.7071148 -0.7070988 0 0.7071086 -0.707105 0 0.8909206 -0.4541592 0 0.8909206 -0.4541592 3.05572e-7 0.8909206 -0.4541592 0 0.8909257 -0.4541493 0 0.8909257 -0.4541493 0 0.8909257 -0.4541493 0 0.9876571 -0.1566316 0 0.987659 -0.1566194 0 0.9876593 0.1566179 0 0.9876574 0.15663 0 0.8910781 0.4538503 0 0.8909206 0.4541592 0 0.8909206 0.4541592 0 0.8909206 0.4541592 -3.05572e-7 0.7071086 0.707105 0 0.7071148 0.7070987 0 0.4538434 0.8910815 0 0.4538384 0.891084 0 0.1566178 0.9876593 0 0.1566178 0.9876593 0 -0.1566159 0.9876596 0 -0.156614 0.9876599 0 -0.4538486 0.891079 0 -0.7071024 0.7071113 0 -0.7071024 0.7071112 0 -0.891083 0.4538403 0 -0.891073 0.4538602 0 -0.9876613 0.1566057 0 -0.9877118 0.1562864 0 -0.9877118 0.1562864 0 -0.9877118 0.1562864 0 -2.59608e-7 0 -1 -1.23445e-7 0 -1 1.29798e-7 0 -1 0 0 -1 -3.15606e-7 0 -1 -3.41068e-6 0 1 9.38839e-6 0 1 -3.65621e-6 0 1 3.41076e-6 0 1 -9.38857e-6 0 1 3.65619e-6 0 1 -1.39099e-5 0 1 2.01546e-5 0 1 -9.87572e-7 0 1 -1.42781e-6 0 1 -0.98769 -0.1564245 0 -0.9876881 -0.1564367 0 -0.8910276 -0.4539494 0 -0.891025 -0.4539543 0 -0.7070462 -0.7071675 0 -0.7070431 -0.7071706 0 -0.4538964 -0.8910544 0 -0.1566147 -0.9876598 0 -0.1566157 -0.9876596 0 0.1566147 -0.9876598 0 0.1566167 -0.9876595 0 0.4538964 -0.8910544 0 0.7070462 -0.7071675 0 0.7070431 -0.7071706 0 0.8910276 -0.4539494 0 0.891025 -0.4539543 0 0.987689 -0.1564306 0 0.9876881 -0.1564367 0 0.9876883 0.1564352 0 0.9876892 0.1564291 0 0.891025 0.4539543 0 0.8910276 0.4539494 0 0.707043 0.7071706 0 0.7070462 0.7071674 0 0.4538964 0.8910544 0 0.1566072 0.9876611 0 0.1566053 0.9876614 0 -0.1566062 0.9876612 0 -0.1566053 0.9876614 0 -0.4538964 0.8910544 0 -0.707043 0.7071706 0 -0.7070462 0.7071674 0 -0.891025 0.4539543 0 -0.8910276 0.4539494 0 -0.9876883 0.1564352 0 -0.9876902 0.156423 0 0 0 -1 0 0 -1 -2.53725e-7 0 -1 8.5255e-7 0 -1 2.53724e-7 0 -1 -8.5255e-7 0 -1 1.7383e-6 0 -1 -4.56901e-7 0 -1 -4.40004e-7 0 -1 -1.73831e-6 0 -1 4.56898e-7 0 -1 4.40004e-7 0 -1 -1.3579e-6 0 1 1.42786e-6 0 1 -2.70639e-6 0 1 6.8204e-6 0 1 2.7064e-6 0 1 -6.8204e-6 0 1 -2.01786e-5 0 1 3.65518e-6 0 1 -4.69338e-6 0 1 1.39066e-5 0 1 -3.65521e-6 0 1 4.69338e-6 0 1</float_array>
          <technique_common>
            <accessor source="#shape0_002-mesh-normals-array" count="463" stride="3">
              <param name="X" type="float"/>
              <param name="Y" type="float"/>
              <param name="Z" type="float"/>
            </accessor>
          </technique_common>
        </source>
        <vertices id="shape0_002-mesh-vertices">
          <input semantic="POSITION" source="#shape0_002-mesh-positions"/>
        </vertices>
        <triangles count="980">
          <input semantic="VERTEX" source="#shape0_002-mesh-vertices" offset="0"/>
          <input semantic="NORMAL" source="#shape0_002-mesh-normals" offset="1"/>
          <p>0 0 1 0 2 0 2 1 1 1 3 1 2 2 3 2 4 2 4 3 3 3 5 3 4 4 5 4 6 4 6 4 5 4 7 4 6 5 7 5 8 5 8 5 7 5 9 5 8 6 9 6 10 6 10 6 9 6 11 6 10 7 11 7 12 7 12 7 11 7 13 7 14 8 9 8 7 8 11 9 9 9 14 9 13 10 11 10 14 10 14 11 3 11 1 11 5 12 3 12 14 12 7 13 5 13 14 13 15 14 16 14 17 14 17 14 16 14 18 14 17 15 18 15 19 15 19 15 18 15 20 15 19 16 20 16 21 16 21 17 20 17 22 17 21 18 22 18 23 18 23 18 22 18 24 18 23 19 24 19 25 19 25 19 24 19 26 19 25 20 26 20 27 20 27 20 26 20 28 20 29 21 24 21 22 21 26 22 24 22 29 22 28 23 26 23 29 23 29 24 18 24 16 24 20 25 18 25 29 25 22 26 20 26 29 26 30 0 31 0 32 0 32 1 31 1 33 1 32 27 33 27 34 27 34 28 33 28 35 28 34 17 35 17 36 17 36 17 35 17 37 17 36 18 37 18 38 18 38 18 37 18 39 18 38 29 39 29 40 29 40 29 39 29 41 29 40 7 41 7 42 7 42 7 41 7 43 7 44 30 39 30 37 30 41 31 39 31 44 31 43 10 41 10 44 10 44 32 33 32 31 32 35 33 33 33 44 33 37 34 35 34 44 34 45 14 46 14 47 14 47 14 46 14 48 14 47 35 48 35 49 35 49 35 48 35 50 35 49 36 50 36 51 36 51 4 50 4 52 4 51 5 52 5 53 5 53 5 52 5 54 5 53 37 54 37 55 37 55 37 54 37 56 37 55 20 56 20 57 20 57 20 56 20 58 20 59 38 54 38 52 38 56 39 54 39 59 39 58 23 56 23 59 23 59 40 48 40 46 40 50 41 48 41 59 41 52 42 50 42 59 42 60 43 61 43 62 43 62 44 61 44 63 44 62 45 63 45 64 45 64 46 63 46 65 46 64 47 65 47 66 47 66 47 65 47 67 47 66 48 67 48 68 48 68 48 67 48 69 48 68 49 69 49 70 49 70 50 69 50 71 50 70 51 71 51 72 51 72 52 71 52 73 52 74 53 75 53 76 53 76 54 75 54 77 54 76 55 77 55 78 55 78 56 77 56 79 56 78 57 79 57 80 57 80 57 79 57 81 57 80 58 81 58 82 58 82 58 81 58 83 58 82 59 83 59 84 59 84 59 83 59 85 59 84 60 85 60 86 60 86 60 85 60 87 60 88 61 89 61 90 61 90 61 89 61 91 61 90 62 91 62 92 62 92 62 91 62 93 62 92 63 93 63 94 63 94 63 93 63 95 63 94 64 95 64 96 64 96 64 95 64 97 64 96 65 97 65 98 65 98 66 97 66 99 66 98 67 99 67 100 67 100 68 99 68 101 68 102 69 103 69 104 69 104 70 103 70 105 70 104 71 105 71 106 71 106 72 105 72 107 72 106 73 107 73 108 73 108 73 107 73 109 73 108 74 109 74 110 74 110 74 109 74 111 74 110 75 111 75 112 75 112 76 111 76 113 76 112 77 113 77 114 77 114 77 113 77 115 77 116 61 117 61 118 61 118 61 117 61 119 61 118 78 119 78 120 78 120 78 119 78 121 78 120 47 121 47 122 47 122 47 121 47 123 47 122 48 123 48 124 48 124 48 123 48 125 48 124 79 125 79 126 79 126 80 125 80 127 80 126 67 127 67 128 67 128 68 127 68 129 68 130 69 131 69 132 69 132 70 131 70 133 70 132 81 133 81 134 81 134 82 133 82 135 82 134 57 135 57 136 57 136 57 135 57 137 57 136 58 137 58 138 58 138 58 137 58 139 58 138 83 139 83 140 83 140 84 139 84 141 84 140 77 141 77 142 77 142 77 141 77 143 77 144 43 145 43 146 43 146 44 145 44 147 44 146 85 147 85 148 85 148 86 147 86 149 86 148 63 149 63 150 63 150 63 149 63 151 63 150 64 151 64 152 64 152 64 151 64 153 64 152 87 153 87 154 87 154 88 153 88 155 88 154 51 155 51 156 51 156 52 155 52 157 52 158 53 159 53 160 53 160 54 159 54 161 54 160 89 161 89 162 89 162 90 161 90 163 90 162 73 163 73 164 73 164 73 163 73 165 73 164 74 165 74 166 74 166 74 165 74 167 74 166 91 167 91 168 91 168 91 167 91 169 91 168 60 169 60 170 60 170 60 169 60 171 60 154 92 169 92 152 92 152 92 169 92 167 92 152 92 167 92 150 92 150 92 167 92 165 92 150 92 165 92 148 92 148 92 165 92 163 92 148 92 163 92 146 92 146 92 163 92 161 92 146 92 161 92 144 92 144 92 161 92 159 92 144 92 159 92 172 92 172 92 159 92 173 92 172 92 173 92 174 92 174 92 173 92 175 92 174 92 175 92 176 92 176 92 175 92 177 92 176 92 177 92 178 92 178 92 177 92 179 92 178 92 179 92 180 92 180 92 179 92 181 92 180 92 181 92 156 92 156 92 181 92 171 92 156 92 171 92 154 92 154 92 171 92 169 92 170 93 171 93 182 93 182 93 171 93 181 93 182 94 181 94 183 94 183 94 181 94 179 94 183 95 179 95 184 95 184 95 179 95 177 95 184 96 177 96 185 96 185 96 177 96 175 96 185 97 175 97 186 97 186 98 175 98 173 98 186 99 173 99 158 99 158 100 173 100 159 100 156 101 157 101 180 101 180 102 157 102 187 102 180 103 187 103 178 103 178 104 187 104 188 104 178 105 188 105 176 105 176 105 188 105 189 105 176 106 189 106 174 106 174 106 189 106 190 106 174 107 190 107 172 107 172 108 190 108 191 108 172 109 191 109 144 109 144 110 191 110 145 110 126 92 141 92 124 92 124 92 141 92 139 92 124 92 139 92 122 92 122 92 139 92 137 92 122 92 137 92 120 92 120 92 137 92 135 92 120 92 135 92 118 92 118 92 135 92 133 92 118 92 133 92 116 92 116 92 133 92 131 92 116 92 131 92 192 92 192 92 131 92 193 92 192 92 193 92 194 92 194 92 193 92 195 92 194 92 195 92 196 92 196 92 195 92 197 92 196 92 197 92 198 92 198 92 197 92 199 92 198 92 199 92 200 92 200 92 199 92 201 92 200 92 201 92 128 92 128 92 201 92 143 92 128 92 143 92 126 92 126 92 143 92 141 92 142 111 143 111 202 111 202 111 143 111 201 111 202 112 201 112 203 112 203 113 201 113 199 113 203 114 199 114 204 114 204 114 199 114 197 114 204 115 197 115 205 115 205 115 197 115 195 115 205 116 195 116 206 116 206 117 195 117 193 117 206 118 193 118 130 118 130 119 193 119 131 119 128 120 129 120 200 120 200 121 129 121 207 121 200 122 207 122 198 122 198 123 207 123 208 123 198 124 208 124 196 124 196 124 208 124 209 124 196 125 209 125 194 125 194 125 209 125 210 125 194 126 210 126 192 126 192 126 210 126 211 126 192 127 211 127 116 127 116 127 211 127 117 127 92 92 107 92 90 92 90 92 107 92 105 92 90 92 105 92 88 92 88 92 105 92 103 92 88 92 103 92 212 92 212 92 103 92 213 92 212 92 213 92 214 92 214 92 213 92 215 92 214 92 215 92 216 92 216 92 215 92 217 92 216 92 217 92 218 92 218 92 217 92 219 92 218 92 219 92 220 92 220 92 219 92 221 92 220 92 221 92 100 92 100 92 221 92 115 92 100 92 115 92 98 92 98 92 115 92 113 92 98 92 113 92 96 92 96 92 113 92 111 92 96 92 111 92 94 92 94 92 111 92 109 92 94 92 109 92 92 92 92 92 109 92 107 92 114 111 115 111 222 111 222 111 115 111 221 111 222 128 221 128 223 128 223 129 221 129 219 129 223 95 219 95 224 95 224 95 219 95 217 95 224 96 217 96 225 96 225 96 217 96 215 96 225 130 215 130 226 130 226 131 215 131 213 131 226 118 213 118 102 118 102 119 213 119 103 119 100 120 101 120 220 120 220 121 101 121 227 121 220 132 227 132 218 132 218 133 227 133 228 133 218 105 228 105 216 105 216 105 228 105 229 105 216 106 229 106 214 106 214 106 229 106 230 106 214 134 230 134 212 134 212 134 230 134 231 134 212 127 231 127 88 127 88 127 231 127 89 127 70 92 85 92 68 92 68 92 85 92 83 92 68 92 83 92 66 92 66 92 83 92 81 92 66 92 81 92 64 92 64 92 81 92 79 92 64 92 79 92 62 92 62 92 79 92 77 92 62 92 77 92 60 92 60 92 77 92 75 92 60 92 75 92 232 92 232 92 75 92 233 92 232 92 233 92 234 92 234 92 233 92 235 92 234 92 235 92 236 92 236 92 235 92 237 92 236 92 237 92 238 92 238 92 237 92 239 92 238 92 239 92 240 92 240 92 239 92 241 92 240 92 241 92 72 92 72 92 241 92 87 92 72 92 87 92 70 92 70 92 87 92 85 92 86 93 87 93 242 93 242 93 87 93 241 93 242 135 241 135 243 135 243 135 241 135 239 135 243 114 239 114 244 114 244 114 239 114 237 114 244 115 237 115 245 115 245 115 237 115 235 115 245 136 235 136 246 136 246 137 235 137 233 137 246 99 233 99 74 99 74 100 233 100 75 100 72 101 73 101 240 101 240 102 73 102 247 102 240 138 247 138 238 138 238 139 247 139 248 139 238 124 248 124 236 124 236 124 248 124 249 124 236 125 249 125 234 125 234 125 249 125 250 125 234 140 250 140 232 140 232 141 250 141 251 141 232 109 251 109 60 109 60 110 251 110 61 110 59 142 252 142 253 142 254 143 252 143 59 143 46 144 254 144 59 144 59 145 255 145 58 145 256 146 255 146 59 146 253 147 256 147 59 147 57 148 58 148 257 148 257 148 58 148 255 148 257 149 255 149 258 149 258 149 255 149 256 149 258 150 256 150 259 150 259 150 256 150 253 150 259 151 253 151 260 151 260 152 253 152 252 152 260 153 252 153 261 153 261 153 252 153 254 153 261 154 254 154 45 154 45 154 254 154 46 154 44 155 262 155 263 155 264 156 262 156 44 156 31 157 264 157 44 157 44 158 265 158 43 158 266 159 265 159 44 159 263 160 266 160 44 160 42 161 43 161 267 161 267 161 43 161 265 161 267 162 265 162 268 162 268 162 265 162 266 162 268 163 266 163 269 163 269 163 266 163 263 163 269 164 263 164 270 164 270 164 263 164 262 164 270 165 262 165 271 165 271 166 262 166 264 166 271 167 264 167 30 167 30 168 264 168 31 168 29 169 272 169 273 169 274 170 272 170 29 170 16 171 274 171 29 171 29 172 275 172 28 172 276 173 275 173 29 173 273 174 276 174 29 174 27 148 28 148 277 148 277 148 28 148 275 148 277 175 275 175 278 175 278 175 275 175 276 175 278 163 276 163 279 163 279 163 276 163 273 163 279 164 273 164 280 164 280 176 273 176 272 176 280 177 272 177 281 177 281 177 272 177 274 177 281 154 274 154 15 154 15 154 274 154 16 154 14 178 282 178 283 178 284 179 282 179 14 179 1 180 284 180 14 180 14 181 285 181 13 181 286 182 285 182 14 182 283 183 286 183 14 183 12 161 13 161 287 161 287 161 13 161 285 161 287 184 285 184 288 184 288 184 285 184 286 184 288 150 286 150 289 150 289 150 286 150 283 150 289 151 283 151 290 151 290 151 283 151 282 151 290 185 282 185 291 185 291 186 282 186 284 186 291 167 284 167 0 167 0 168 284 168 1 168 292 187 293 187 294 187 294 188 295 188 292 188 292 189 295 189 296 189 292 190 296 190 297 190 297 191 296 191 298 191 297 192 298 192 299 192 300 193 301 193 302 193 302 193 303 193 300 193 300 194 303 194 304 194 300 193 304 193 305 193 305 195 304 195 306 195 305 193 306 193 307 193 308 196 309 196 310 196 307 196 311 196 305 196 305 196 311 196 312 196 305 196 312 196 310 196 310 196 312 196 313 196 310 196 313 196 308 196 314 197 293 197 292 197 309 197 315 197 310 197 310 197 315 197 316 197 310 197 316 197 292 197 292 197 316 197 317 197 292 197 317 197 314 197 168 92 170 92 311 92 307 92 306 92 311 92 311 92 306 92 318 92 259 92 260 92 319 92 260 92 261 92 319 92 319 92 261 92 45 92 319 92 45 92 304 92 45 92 47 92 304 92 304 198 47 198 49 198 304 92 49 92 306 92 306 199 49 199 51 199 306 200 51 200 53 200 53 92 55 92 306 92 306 92 55 92 57 92 306 201 57 201 318 201 318 92 57 92 257 92 318 92 257 92 258 92 0 92 2 92 303 92 319 92 287 92 288 92 2 92 4 92 303 92 303 202 4 202 6 202 303 92 6 92 304 92 6 92 8 92 304 92 304 203 8 203 10 203 304 204 10 204 319 204 319 92 10 92 12 92 319 92 12 92 287 92 289 92 290 92 320 92 320 92 290 92 291 92 320 92 291 92 0 92 0 92 303 92 320 92 320 92 303 92 302 92 320 92 302 92 321 92 162 92 164 92 318 92 311 92 170 92 312 92 318 92 164 92 311 92 311 92 164 92 166 92 311 92 166 92 168 92 170 92 182 92 312 92 312 92 182 92 183 92 312 92 183 92 322 92 322 92 183 92 184 92 322 92 184 92 185 92 185 92 186 92 322 92 322 92 186 92 158 92 322 92 158 92 318 92 318 92 158 92 160 92 318 92 160 92 162 92 223 92 224 92 323 92 223 92 323 92 222 92 222 92 323 92 114 92 114 92 323 92 320 92 114 92 320 92 112 92 104 92 106 92 321 92 321 92 106 92 108 92 321 92 108 92 320 92 320 92 108 92 110 92 320 92 110 92 112 92 224 92 225 92 324 92 324 92 225 92 226 92 324 92 226 92 321 92 321 92 226 92 102 92 321 92 102 92 104 92 242 92 243 92 313 92 325 92 244 92 245 92 312 92 84 92 313 92 313 92 84 92 86 92 313 205 86 205 242 205 76 92 322 92 74 92 74 92 322 92 325 92 74 206 325 206 246 206 246 92 325 92 245 92 76 92 78 92 322 92 322 207 78 207 80 207 322 92 80 92 312 92 312 208 80 208 82 208 312 209 82 209 84 209 288 92 289 92 319 92 319 92 289 92 320 92 319 92 320 92 326 92 326 92 320 92 323 92 326 92 323 92 327 92 327 92 323 92 328 92 136 92 138 92 323 92 204 92 205 92 329 92 224 92 324 92 323 92 323 92 324 92 134 92 323 210 134 210 136 210 138 92 140 92 323 92 323 92 140 92 142 92 323 92 142 92 328 92 328 211 142 211 202 211 328 92 202 92 203 92 205 92 206 92 329 92 329 212 206 212 130 212 329 92 130 92 324 92 324 92 130 92 132 92 324 213 132 213 134 213 243 92 244 92 313 92 313 92 244 92 325 92 313 92 325 92 308 92 308 92 325 92 330 92 308 92 330 92 309 92 325 92 21 92 23 92 280 214 331 214 279 214 279 92 331 92 330 92 279 215 330 215 278 215 281 92 15 92 327 92 327 216 15 216 17 216 327 92 17 92 19 92 23 92 25 92 325 92 325 217 25 217 27 217 325 92 27 92 330 92 330 92 27 92 277 92 330 218 277 218 278 218 258 92 259 92 318 92 318 92 259 92 319 92 318 92 319 92 322 92 322 92 319 92 326 92 322 92 326 92 325 92 325 92 326 92 327 92 325 92 327 92 21 92 21 92 327 92 19 92 34 92 36 92 328 92 40 92 42 92 327 92 327 92 42 92 331 92 327 92 331 92 281 92 281 219 331 219 280 219 328 92 36 92 327 92 327 92 36 92 38 92 327 92 38 92 40 92 42 92 267 92 331 92 331 220 267 220 268 220 331 92 268 92 332 92 332 221 268 221 269 221 332 222 269 222 270 222 270 223 271 223 332 223 332 92 271 92 30 92 332 92 30 92 328 92 328 224 30 224 32 224 328 92 32 92 34 92 203 92 204 92 328 92 328 92 204 92 329 92 328 92 329 92 332 92 332 92 329 92 333 92 309 92 330 92 315 92 315 92 330 92 331 92 315 92 331 92 316 92 316 92 331 92 332 92 316 92 332 92 317 92 317 92 332 92 333 92 317 92 333 92 314 92 302 92 334 92 321 92 321 92 334 92 335 92 321 92 335 92 324 92 324 92 335 92 336 92 324 92 336 92 329 92 329 92 336 92 337 92 329 92 337 92 333 92 333 92 337 92 338 92 333 92 338 92 314 92 314 92 338 92 339 92 340 225 89 225 292 225 292 225 89 225 231 225 305 225 155 225 153 225 117 225 211 225 292 225 292 225 211 225 210 225 292 225 210 225 209 225 250 225 208 225 207 225 95 225 93 225 340 225 340 225 93 225 91 225 340 225 91 225 89 225 127 225 125 225 227 225 209 225 208 225 292 225 292 225 208 225 250 225 292 225 250 225 310 225 310 225 250 225 249 225 95 225 340 225 97 225 97 225 340 225 305 225 97 225 305 225 99 225 117 225 292 225 119 225 119 225 292 225 231 225 119 225 231 225 121 225 121 225 231 225 230 225 121 225 230 225 123 225 123 225 230 225 229 225 123 225 229 225 125 225 125 225 229 225 228 225 125 225 228 225 227 225 69 225 67 225 227 225 227 225 67 225 65 225 227 225 65 225 127 225 127 225 65 225 63 225 127 225 63 225 129 225 129 225 63 225 61 225 129 225 61 225 207 225 207 225 61 225 251 225 207 225 251 225 250 225 249 225 248 225 310 225 310 225 248 225 247 225 310 225 247 225 73 225 153 225 151 225 305 225 305 225 151 225 149 225 305 225 149 225 99 225 99 225 149 225 147 225 99 225 147 225 101 225 101 225 147 225 145 225 101 225 145 225 227 225 227 225 145 225 191 225 227 225 191 225 69 225 69 225 191 225 190 225 69 225 190 225 71 225 71 225 190 225 189 225 71 225 189 225 73 225 73 225 189 225 188 225 73 225 188 225 310 225 310 225 188 225 187 225 310 225 187 225 305 225 305 225 187 225 157 225 305 225 157 225 155 225 341 226 342 226 343 226 341 227 343 227 344 227 344 228 343 228 345 228 344 229 345 229 346 229 346 230 345 230 347 230 346 231 347 231 348 231 348 232 347 232 349 232 348 232 349 232 350 232 350 233 349 233 351 233 350 234 351 234 352 234 352 235 351 235 353 235 352 236 353 236 354 236 354 237 353 237 355 237 354 237 355 237 356 237 356 238 355 238 357 238 356 239 357 239 358 239 358 240 357 240 359 240 358 241 359 241 360 241 360 242 359 242 361 242 360 243 361 243 362 243 362 244 361 244 363 244 362 245 363 245 364 245 364 246 363 246 365 246 364 247 365 247 366 247 366 248 365 248 367 248 366 249 367 249 368 249 368 250 367 250 369 250 368 251 369 251 370 251 370 252 369 252 371 252 370 253 371 253 372 253 372 254 371 254 373 254 372 255 373 255 374 255 374 256 373 256 375 256 374 257 375 257 376 257 376 258 375 258 377 258 376 259 377 259 378 259 378 260 377 260 379 260 378 261 379 261 380 261 380 262 379 262 342 262 380 263 342 263 341 263 373 225 371 225 351 225 349 225 347 225 377 225 357 264 355 264 367 264 349 225 377 225 351 225 351 265 377 265 375 265 351 266 375 266 373 266 371 225 369 225 351 225 351 267 369 267 367 267 351 268 367 268 353 268 353 269 367 269 355 269 347 225 345 225 377 225 377 270 345 270 343 270 377 225 343 225 379 225 379 225 343 225 342 225 367 271 365 271 363 271 363 272 361 272 367 272 367 225 361 225 359 225 367 273 359 273 357 273 370 92 350 92 368 92 368 92 350 92 366 92 350 274 352 274 366 274 366 275 352 275 354 275 366 276 354 276 356 276 370 92 372 92 350 92 350 277 372 277 374 277 350 278 374 278 376 278 376 92 378 92 350 92 350 92 378 92 380 92 350 279 380 279 341 279 341 280 344 280 350 280 350 92 344 92 346 92 350 281 346 281 348 281 356 92 358 92 366 92 366 92 358 92 360 92 366 282 360 282 364 282 364 92 360 92 362 92 381 283 382 283 383 283 381 284 383 284 384 284 384 285 383 285 385 285 384 286 385 287 386 288 386 289 385 289 387 289 386 289 387 289 388 289 388 290 387 290 389 290 388 290 389 290 390 290 390 291 389 291 391 291 390 292 391 292 392 292 392 293 391 293 393 293 392 294 393 294 394 294 394 295 393 295 395 295 394 296 395 296 396 296 396 297 395 297 397 297 396 298 397 298 398 298 398 299 397 299 399 299 398 300 399 300 400 300 400 301 399 301 401 301 400 302 401 302 402 302 402 303 401 303 403 303 402 304 403 304 404 304 404 305 403 305 405 305 404 306 405 306 406 306 406 307 405 307 407 307 406 308 407 308 408 308 408 309 407 309 409 309 408 310 409 310 410 310 410 311 409 311 411 311 410 312 411 312 412 312 412 313 411 313 413 313 412 314 413 314 414 314 414 315 413 315 415 315 414 316 415 316 416 316 416 317 415 317 417 317 416 318 417 318 418 318 418 319 417 320 419 321 418 322 419 322 420 322 420 323 419 323 382 323 420 324 382 324 381 324 401 225 399 225 419 225 397 225 389 225 399 225 399 325 389 325 387 325 399 326 387 326 385 326 385 225 383 225 399 225 399 225 383 225 382 225 399 225 382 225 419 225 397 327 395 327 389 327 389 225 395 225 393 225 389 225 393 225 391 225 401 225 419 225 403 225 403 225 419 225 417 225 403 225 417 225 405 225 405 225 417 225 415 225 405 328 415 328 413 328 413 225 411 225 405 225 405 329 411 329 409 329 405 330 409 330 407 330 398 92 400 92 418 92 418 331 400 331 402 331 418 92 420 92 398 92 398 332 420 332 381 332 398 333 381 333 384 333 392 92 394 92 390 92 390 92 394 92 388 92 384 92 386 92 398 92 398 92 386 92 388 92 398 92 388 92 396 92 396 92 388 92 394 92 402 334 404 334 418 334 418 92 404 92 406 92 418 92 406 92 408 92 408 92 410 92 418 92 418 335 410 335 412 335 418 336 412 336 416 336 416 337 412 337 414 337 421 338 422 338 423 338 421 339 423 339 424 339 424 340 423 341 425 342 424 343 425 343 426 343 426 344 425 344 427 344 426 345 427 345 428 345 428 346 427 346 429 346 428 346 429 346 430 346 430 347 429 347 431 347 430 348 431 348 432 348 432 349 431 350 433 351 432 352 433 352 434 352 434 353 433 353 435 353 434 354 435 354 436 354 436 355 435 355 437 355 436 356 437 356 438 356 438 357 437 358 439 359 438 360 439 361 440 362 440 363 439 363 441 363 440 364 441 364 442 364 442 365 441 365 443 365 442 366 443 366 444 366 444 367 443 367 445 367 444 368 445 369 446 370 446 371 445 371 447 371 446 372 447 372 448 372 448 373 447 373 449 373 448 374 449 374 450 374 450 375 449 375 451 375 450 376 451 376 452 376 452 377 451 377 453 377 452 378 453 378 454 378 454 379 453 379 455 379 454 379 455 379 456 379 456 380 455 380 457 380 456 381 457 381 458 381 458 382 457 382 459 382 458 383 459 383 460 383 460 384 459 384 422 384 460 385 422 386 421 387 423 388 422 388 445 388 441 225 439 225 425 225 422 225 459 225 445 225 445 225 459 225 457 225 445 225 457 225 447 225 447 225 457 225 455 225 423 225 445 225 425 225 425 389 445 389 443 389 425 390 443 390 441 390 439 225 437 225 425 225 425 225 437 225 435 225 425 225 435 225 427 225 427 225 435 225 433 225 427 225 433 225 429 225 429 225 433 225 431 225 455 225 453 225 447 225 447 391 453 391 451 391 447 392 451 392 449 392 421 92 424 92 426 92 452 92 454 92 428 92 434 92 448 92 432 92 432 92 448 92 430 92 454 92 456 92 428 92 428 393 456 393 458 393 428 394 458 394 426 394 426 395 458 395 460 395 426 92 460 92 421 92 434 92 436 92 448 92 448 396 436 396 438 396 448 397 438 397 446 397 446 398 438 398 440 398 446 399 440 399 444 399 444 400 440 400 442 400 430 92 448 92 428 92 428 401 448 401 450 401 428 402 450 402 452 402 461 403 462 403 463 403 461 404 463 404 464 404 464 405 463 405 465 405 464 406 465 406 466 406 466 407 465 407 467 407 466 408 467 408 468 408 468 409 467 409 469 409 468 409 469 409 470 409 470 410 469 410 471 410 470 411 471 411 472 411 472 412 471 412 473 412 472 413 473 413 474 413 474 414 473 414 475 414 474 414 475 414 476 414 476 415 475 415 477 415 476 416 477 416 478 416 478 417 477 417 479 417 478 418 479 418 480 418 480 419 479 419 481 419 480 420 481 420 482 420 482 421 481 421 483 421 482 422 483 422 484 422 484 423 483 423 485 423 484 424 485 424 486 424 486 425 485 425 487 425 486 426 487 426 488 426 488 427 487 427 489 427 488 427 489 427 490 427 490 428 489 428 491 428 490 429 491 429 492 429 492 430 491 430 493 430 492 431 493 431 494 431 494 432 493 432 495 432 494 432 495 432 496 432 496 433 495 433 497 433 496 434 497 434 498 434 498 435 497 435 499 435 498 436 499 436 500 436 500 437 499 437 462 437 500 438 462 438 461 438 491 225 489 225 473 225 491 225 473 225 493 225 493 439 473 439 471 439 493 440 471 440 469 440 489 225 487 225 473 225 473 441 487 441 485 441 473 442 485 442 475 442 469 225 467 225 493 225 493 443 467 443 465 443 493 444 465 444 495 444 485 225 483 225 481 225 465 225 463 225 462 225 481 445 479 445 485 445 485 446 479 446 477 446 485 447 477 447 475 447 462 448 499 448 465 448 465 449 499 449 497 449 465 450 497 450 495 450 472 92 474 92 490 92 472 92 490 92 470 92 470 451 490 451 492 451 470 452 492 452 494 452 474 92 476 92 490 92 490 453 476 453 478 453 490 454 478 454 488 454 494 92 496 92 470 92 470 455 496 455 498 455 470 456 498 456 468 456 478 92 480 92 482 92 498 457 500 457 461 457 482 92 484 92 478 92 478 458 484 458 486 458 478 459 486 459 488 459 461 460 464 460 498 460 498 461 464 461 466 461 498 462 466 462 468 462</p>
        </triangles>
      </mesh>
    </geometry>
  </library_geometries>
  <library_visual_scenes>
    <visual_scene id="Scene" name="Scene">
      <node id="node" name="node" type="NODE">
        <matrix sid="transform">0.001 0 0 0 0 0.001 0 0 0 0 0.001 0 0 0 0 1</matrix>
        <instance_geometry url="#shape0_002-mesh" name="node"/>
      </node>
    </visual_scene>
  </library_visual_scenes>
  <scene>
    <instance_visual_scene url="#Scene"/>
  </scene>
</COLLADA>