<?xml version="1.0" encoding="utf-8"?>
<COLLADA xmlns="http://www.collada.org/2005/11/COLLADASchema" version="1.4.1" xmlns:xsi="http://www.w3.org/2001/XMLSchema-instance">
  <asset>
    <contributor>
      <author>Blender User</author>
      <authoring_tool>Blender 4.1.1 commit date:2024-04-15, commit time:15:11, hash:e1743a0317bc</authoring_tool>
    </contributor>
    <created>2024-07-11T21:30:00</created>
    <modified>2024-07-11T21:30:00</modified>
    <unit name="meter" meter="1"/>
    <up_axis>Z_UP</up_axis>
  </asset>
  <library_images/>
  <library_geometries>
    <geometry id="shape0-mesh" name="shape0">
      <mesh>
        <source id="shape0-mesh-positions">
          <float_array id="shape0-mesh-positions-array" count="2277">234.5 85.5 60.3 234.5 85.5 70.30001 234.299 86.25 60.3 234.299 86.25 70.30001 233.75 86.79901 60.3 233.75 86.79901 70.30001 233 87 60.3 233 87 70.30001 232.25 86.79901 60.3 232.25 86.79901 70.30001 231.701 86.25 60.3 231.701 86.25 70.30001 231.5 85.5 60.3 231.5 85.5 70.30001 93.5 5.5 60.3 93.5 5.5 70.30001 93.29901 6.25 60.3 93.29901 6.25 70.30001 92.75 6.79904 60.3 92.75 6.79904 70.30001 92 7 60.3 92 7 70.30001 91.25 6.79904 60.3 91.25 6.79904 70.30001 90.70101 6.25 60.3 90.70101 6.25 70.30001 90.5 5.5 60.3 90.5 5.5 70.30001 234.5 5.5 60.3 234.5 5.5 70.30001 234.299 6.25 60.3 234.299 6.25 70.30001 233.75 6.79904 60.3 233.75 6.79904 70.30001 233 7 60.3 233 7 70.30001 232.25 6.79904 60.3 232.25 6.79904 70.30001 231.701 6.25 60.3 231.701 6.25 70.30001 231.5 5.5 60.3 231.5 5.5 70.30001 93.5 86.5 60.3 93.5 86.5 70.30001 93.29901 87.25 60.3 93.29901 87.25 70.30001 92.75 87.79901 60.3 92.75 87.79901 70.30001 92 88 60.3 92 88 70.30001 91.25 87.79901 60.3 91.25 87.79901 70.30001 90.70101 87.25 60.3 90.70101 87.25 70.30001 90.5 86.5 60.3 90.5 86.5 70.30001 2.25 25.5 70.30001 2.25 25.5 60.3 2.61843 26.875 70.30001 2.61843 26.875 60.3 3.625 27.8816 70.30001 3.625 27.8816 60.3 5 28.25 70.30001 5 28.25 60.3 6.375 27.8816 70.30001 6.375 27.8816 60.3 7.38157 26.875 70.30001 7.38157 26.875 60.3 7.75 25.5 70.30001 7.75 25.5 60.3 2.25 75.5 70.30001 2.25 75.5 60.3 2.61843 76.875 70.30001 2.61843 76.875 60.3 3.625 77.8816 70.30001 3.625 77.8816 60.3 5 78.25 70.30001 5 78.25 60.3 6.375 77.8816 70.30001 6.375 77.8816 60.3 7.38157 76.875 70.30001 7.38157 76.875 60.3 7.75 75.5 70.30001 7.75 75.5 60.3 2.25 50.5 70.30001 2.25 50.5 60.3 2.61843 51.875 70.30001 2.61843 51.875 60.3 3.625 52.8816 70.30001 3.625 52.8816 60.3 5 53.25 70.30001 5 53.25 60.3 6.375 52.8816 70.30001 6.375 52.8816 60.3 7.38157 51.875 70.30001 7.38157 51.875 60.3 7.75 50.5 70.30001 7.75 50.5 60.3 7.38157 49.125 70.30001 7.38157 49.125 60.3 6.375 48.1184 70.30001 6.375 48.1184 60.3 5 47.75 70.30001 5 47.75 60.3 3.625 48.1184 70.30001 3.625 48.1184 60.3 2.61843 49.125 70.30001 2.61843 49.125 60.3 7.38157 74.125 70.30001 7.38157 74.125 60.3 6.375 73.1184 70.30001 6.375 73.1184 60.3 5 72.75 70.30001 5 72.75 60.3 3.625 73.1184 70.30001 3.625 73.1184 60.3 2.61843 74.125 70.30001 2.61843 74.125 60.3 7.38157 24.125 70.30001 7.38157 24.125 60.3 6.375 23.1184 70.30001 6.375 23.1184 60.3 5 22.75 70.30001 5 22.75 60.3 3.625 23.1184 70.30001 3.625 23.1184 60.3 2.61843 24.125 70.30001 2.61843 24.125 60.3 150 75.5 70.30001 150 75.5 60.3 162.5 75.5 70.30001 162.5 75.5 60.3 250 75.5 70.30001 250 75.5 60.3 250 100.5 60.3 250 100.5 70.30001 250 84.5 60.3 250 84.5 70.30001 250 81.12501 60.3 250 81.12501 70.30001 162.5 81.12501 60.3 49.125 81.12501 60.3 49.125 84.5 60.3 1.125 0.499998 60.3 0 0.499998 60.3 0 2.25 60.3 49.125 0.499998 60.3 1.125 2.25 60.3 150 40.5 60.3 162.5 40.5 60.3 162.5 38 60.3 250 40.5 60.3 250 38 60.3 150 63 60.3 49.125 38 60.3 234.299 84.75 60.3 162.5 100.5 60.3 162.5 84.5 60.3 231.701 84.75 60.3 233.75 84.20101 60.3 233 84 60.3 232.25 84.20101 60.3 49.125 2.25 60.3 162.5 0.499998 60.3 162.5 2.25 60.3 250 0.499998 60.3 250 2.25 60.3 231.701 4.75 60.3 250 14.875 60.3 162.5 14.875 60.3 232.25 4.20096 60.3 233 4 60.3 233.75 4.20096 60.3 234.299 4.75 60.3 90.70101 4.75 60.3 49.125 14.875 60.3 92.75 4.20096 60.3 92 4 60.3 91.25 4.20096 60.3 93.29901 4.75 60.3 1.125 38 60.3 1.125 14.875 60.3 1.125 63 60.3 49.125 63 60.3 1.125 81.12501 60.3 90.70101 85.75 60.3 91.25 85.20101 60.3 92 85 60.3 92.75 85.20101 60.3 49.125 100.5 60.3 93.29901 85.75 60.3 1.125 84.5 60.3 1.125 100.5 60.3 0 14.875 60.3 0 38 60.3 0 63 60.3 0 81.12501 60.3 0 84.5 60.3 0 100.5 60.3 90.70101 85.75 70.30001 91.25 85.20101 70.30001 92 85 70.30001 92.75 85.20101 70.30001 93.29901 85.75 70.30001 231.701 4.75 70.30001 232.25 4.20096 70.30001 233 4 70.30001 233.75 4.20096 70.30001 234.299 4.75 70.30001 90.70101 4.75 70.30001 91.25 4.20096 70.30001 92 4 70.30001 92.75 4.20096 70.30001 93.29901 4.75 70.30001 231.701 84.75 70.30001 232.25 84.20101 70.30001 233 84 70.30001 233.75 84.20101 70.30001 234.299 84.75 70.30001 0 100.5 70.30001 1.125 100.5 70.30001 49.125 100.5 70.30001 162.5 100.5 70.30001 150 40.5 70.30001 150 63 70.30001 250 40.5 70.30001 162.5 40.5 70.30001 250 0.499998 70.30001 250 2.25 70.30001 250 14.875 70.30001 250 38 70.30001 0 0.499998 60.3 0 0.499998 70.30001 0 2.25 60.3 0 2.25 70.30001 0 14.875 60.3 0 14.875 70.30001 0 38 60.3 0 38 70.30001 0 63 60.3 0 63 70.30001 0 81.12501 60.3 0 81.12501 70.30001 0 84.5 60.3 0 84.5 70.30001 0 100.5 60.3 0 100.5 70.30001 162.5 0.499998 70.30001 49.125 0.499998 70.30001 1.125 0.499998 70.30001 49.125 63 70.30001 49.125 81.12501 70.30001 162.5 81.12501 70.30001 162.5 84.5 70.30001 49.125 84.5 70.30001 1.125 84.5 70.30001 1.125 81.12501 70.30001 1.125 63 70.30001 49.125 38 70.30001 1.125 38 70.30001 1.125 14.875 70.30001 49.125 14.875 70.30001 162.5 2.25 70.30001 162.5 38 70.30001 162.5 14.875 70.30001 49.125 2.25 70.30001 1.125 2.25 70.30001 0 84.5 70.30001 0 81.12501 70.30001 0 63 70.30001 0 38 70.30001 0 14.875 70.30001 0 2.25 70.30001 0 0.499998 70.30001 2.23518e-7 59.5699 41.4369 10 59.5699 41.4369 2.23518e-7 59.8469 40.4034 10 59.8469 40.4034 2.23518e-7 60.6034 39.6469 10 60.6034 39.6469 2.23518e-7 61.6369 39.3699 10 61.6369 39.3699 2.23518e-7 62.6704 39.6469 10 62.6704 39.6469 2.23518e-7 63.427 40.4034 10 63.427 40.4034 2.23518e-7 63.7039 41.4369 10 63.7039 41.4369 2.23518e-7 37.2961 19.1631 10 37.2961 19.1631 2.23518e-7 37.573 18.1296 10 37.573 18.1296 2.23518e-7 38.3296 17.373 10 38.3296 17.373 2.23518e-7 39.3631 17.0961 10 39.3631 17.0961 2.23518e-7 40.3966 17.373 10 40.3966 17.373 2.23518e-7 41.1531 18.1296 10 41.1531 18.1296 2.23518e-7 41.4301 19.1631 10 41.4301 19.1631 2.23518e-7 59.5699 19.1631 10 59.5699 19.1631 2.23518e-7 59.8469 18.1296 10 59.8469 18.1296 2.23518e-7 60.6034 17.373 10 60.6034 17.373 2.23518e-7 61.6369 17.0961 10 61.6369 17.0961 2.23518e-7 62.6704 17.373 10 62.6704 17.373 2.23518e-7 63.427 18.1296 10 63.427 18.1296 2.23518e-7 63.7039 19.1631 10 63.7039 19.1631 2.23518e-7 37.2961 41.4369 10 37.2961 41.4369 2.23518e-7 37.573 40.4034 10 37.573 40.4034 2.23518e-7 38.3296 39.6469 10 38.3296 39.6469 2.23518e-7 39.3631 39.3699 10 39.3631 39.3699 2.23518e-7 40.3966 39.6469 10 40.3966 39.6469 2.23518e-7 41.1531 40.4034 10 41.1531 40.4034 2.23518e-7 41.4301 41.4369 10 41.4301 41.4369 2.23518e-7 47.8125 14.5511 10 47.8125 14.5511 2.23518e-7 48.1474 13.3011 10 48.1474 13.3011 2.23518e-7 49.0625 12.3861 10 49.0625 12.3861 2.23518e-7 50.3125 12.0511 10 50.3125 12.0511 2.23518e-7 51.5625 12.3861 10 51.5625 12.3861 2.23518e-7 52.4776 13.3011 10 52.4776 13.3011 2.23518e-7 52.8125 14.5511 10 52.8125 14.5511 5 73.43301 60.3 5 73.43301 46.1 3.9665 73.7099 60.3 3.9665 73.7099 46.1 3.20993 74.4665 60.3 3.20993 74.4665 46.1 2.933 75.5 60.3 2.933 75.5 46.1 3.20993 76.5335 60.3 3.20993 76.5335 46.1 3.9665 77.2901 60.3 3.9665 77.2901 46.1 5 77.567 60.3 5 77.567 46.1 5 75.5 44.858 5 23.433 60.3 5 23.433 46.1 3.9665 23.7099 60.3 3.9665 23.7099 46.1 3.20993 24.4665 60.3 3.20993 24.4665 46.1 2.933 25.5 60.3 2.933 25.5 46.1 3.20993 26.5335 60.3 3.20993 26.5335 46.1 3.9665 27.2901 60.3 3.9665 27.2901 46.1 5 27.567 60.3 5 27.567 46.1 5 25.5 44.858 5 48.433 60.3 5 48.433 46.1 3.9665 48.7099 60.3 3.9665 48.7099 46.1 3.20993 49.4665 60.3 3.20993 49.4665 46.1 2.933 50.5 60.3 2.933 50.5 46.1 3.20993 51.5335 60.3 3.20993 51.5335 46.1 3.9665 52.2901 60.3 3.9665 52.2901 46.1 5 52.567 60.3 5 52.567 46.1 5 50.5 44.858 6.79007 49.4665 46.1 7.067 50.5 46.1 6.0335 48.7099 46.1 6.0335 52.2901 46.1 6.79007 51.5335 46.1 6.0335 52.2901 60.3 6.79007 51.5335 60.3 7.067 50.5 60.3 6.79007 49.4665 60.3 6.0335 48.7099 60.3 6.79007 24.4665 46.1 7.067 25.5 46.1 6.0335 23.7099 46.1 6.0335 27.2901 46.1 6.79007 26.5335 46.1 6.0335 27.2901 60.3 6.79007 26.5335 60.3 7.067 25.5 60.3 6.79007 24.4665 60.3 6.0335 23.7099 60.3 6.79007 74.4665 46.1 7.067 75.5 46.1 6.0335 73.7099 46.1 6.0335 77.2901 46.1 6.79007 76.5335 46.1 6.0335 77.2901 60.3 6.79007 76.5335 60.3 7.067 75.5 60.3 6.79007 74.4665 60.3 6.0335 73.7099 60.3 2.23518e-7 52.4776 15.8011 10 52.4776 15.8011 2.23518e-7 51.5625 16.7162 10 51.5625 16.7162 2.23518e-7 50.3125 17.0511 10 50.3125 17.0511 2.23518e-7 49.0625 16.7162 10 49.0625 16.7162 2.23518e-7 48.1474 15.8011 10 48.1474 15.8011 2.23518e-7 41.1531 42.4704 10 41.1531 42.4704 2.23518e-7 40.3966 43.227 10 40.3966 43.227 2.23518e-7 39.3631 43.5039 10 39.3631 43.5039 2.23518e-7 38.3296 43.227 10 38.3296 43.227 2.23518e-7 37.573 42.4704 10 37.573 42.4704 2.23518e-7 63.427 20.1966 10 63.427 20.1966 2.23518e-7 62.6704 20.9531 10 62.6704 20.9531 2.23518e-7 61.6369 21.2301 10 61.6369 21.2301 2.23518e-7 60.6034 20.9531 10 60.6034 20.9531 2.23518e-7 59.8469 20.1966 10 59.8469 20.1966 2.23518e-7 41.1531 20.1966 10 41.1531 20.1966 2.23518e-7 40.3966 20.9531 10 40.3966 20.9531 2.23518e-7 39.3631 21.2301 10 39.3631 21.2301 2.23518e-7 38.3296 20.9531 10 38.3296 20.9531 2.23518e-7 37.573 20.1966 10 37.573 20.1966 2.23518e-7 63.427 42.4704 10 63.427 42.4704 2.23518e-7 62.6704 43.227 10 62.6704 43.227 2.23518e-7 61.6369 43.5039 10 61.6369 43.5039 2.23518e-7 60.6034 43.227 10 60.6034 43.227 2.23518e-7 59.8469 42.4704 10 59.8469 42.4704 10 0.499998 60.3 2.23518e-7 0.499998 60.3 10 0.499998 30.3 2.23518e-7 0.499998 30.3 10 0.499998 0.3 2.23517e-7 0.499998 0.3 10 44.6213 0.3 2.23518e-7 44.6213 0.3 10 100.5 0.3 2.23518e-7 100.5 0.3 10 100.5 30.3 2.23519e-7 100.5 30.3 10 100.5 60.3 2.23519e-7 100.5 60.3 10 44.6213 60.3 2.23518e-7 44.6213 60.3 2.23518e-7 44.6213 30.3 10 44.6213 30.3 92 2 70.30001 92 2 80.30001 91.3569 2.05959 80.30001 91.3569 2.05959 70.30001 90.7357 2.23635 80.30001 90.7357 2.23635 70.30001 90.1575 2.52424 80.30001 90.1575 2.52424 70.30001 89.6421 2.91347 80.30001 89.6421 2.91347 70.30001 89.2069 3.39078 80.30001 89.2069 3.39078 70.30001 88.8669 3.93991 80.30001 88.8669 3.93991 70.30001 88.6336 4.54218 80.30001 88.6336 4.54218 70.30001 88.5149 5.17706 80.30001 88.5149 5.17706 70.30001 88.5149 5.82294 80.30001 88.5149 5.82294 70.30001 88.6336 6.45782 80.30001 88.6336 6.45782 70.30001 88.8669 7.06008 80.30001 88.8669 7.06008 70.30001 89.2069 7.60922 80.30001 89.2069 7.60922 70.30001 89.6421 8.08653 80.30001 89.6421 8.08653 70.30001 90.1575 8.47576 80.30001 90.1575 8.47576 70.30001 90.7357 8.76365 80.30001 90.7357 8.76365 70.30001 91.3569 8.940401 80.30001 91.3569 8.940401 70.30001 92 9 80.30001 92 9 70.30001 92.6431 8.940401 80.30001 92.6431 8.940401 70.30001 93.2643 8.76365 80.30001 93.2643 8.76365 70.30001 93.8425 8.47576 80.30001 93.8425 8.47576 70.30001 94.3579 8.08653 80.30001 94.3579 8.08653 70.30001 94.7931 7.60922 80.30001 94.7931 7.60922 70.30001 95.1331 7.06008 80.30001 95.1331 7.06008 70.30001 95.3664 6.45782 80.30001 95.3664 6.45782 70.30001 95.4851 5.82294 80.30001 95.4851 5.82294 70.30001 95.4851 5.17706 80.30001 95.4851 5.17706 70.30001 95.3664 4.54218 80.30001 95.3664 4.54218 70.30001 95.1331 3.93991 80.30001 95.1331 3.93991 70.30001 94.7931 3.39078 80.30001 94.7931 3.39078 70.30001 94.3579 2.91347 80.30001 94.3579 2.91347 70.30001 93.8425 2.52424 80.30001 93.8425 2.52424 70.30001 93.2643 2.23635 80.30001 93.2643 2.23635 70.30001 92.6431 2.05959 80.30001 92.6431 2.05959 70.30001 92 83 70.30001 92 83 80.30001 91.3569 83.0596 80.30001 91.3569 83.0596 70.30001 90.7357 83.2363 80.30001 90.7357 83.2363 70.30001 90.1575 83.5242 80.30001 90.1575 83.5242 70.30001 89.6421 83.9135 80.30001 89.6421 83.9135 70.30001 89.2069 84.3908 80.30001 89.2069 84.3908 70.30001 88.8669 84.9399 80.30001 88.8669 84.9399 70.30001 88.6336 85.5422 80.30001 88.6336 85.5422 70.30001 88.5149 86.1771 80.30001 88.5149 86.1771 70.30001 88.5149 86.8229 80.30001 88.5149 86.8229 70.30001 88.6336 87.4578 80.30001 88.6336 87.4578 70.30001 88.8669 88.0601 80.30001 88.8669 88.0601 70.30001 89.2069 88.6092 80.30001 89.2069 88.6092 70.30001 89.6421 89.0865 80.30001 89.6421 89.0865 70.30001 90.1575 89.4758 80.30001 90.1575 89.4758 70.30001 90.7357 89.7636 80.30001 90.7357 89.7636 70.30001 91.3569 89.9404 80.30001 91.3569 89.9404 70.30001 92 90 80.30001 92 90 70.30001 92.6431 89.9404 80.30001 92.6431 89.9404 70.30001 93.2643 89.7636 80.30001 93.2643 89.7636 70.30001 93.8425 89.4758 80.30001 93.8425 89.4758 70.30001 94.3579 89.0865 80.30001 94.3579 89.0865 70.30001 94.7931 88.6092 80.30001 94.7931 88.6092 70.30001 95.1331 88.0601 80.30001 95.1331 88.0601 70.30001 95.3664 87.4578 80.30001 95.3664 87.4578 70.30001 95.4851 86.8229 80.30001 95.4851 86.8229 70.30001 95.4851 86.1771 80.30001 95.4851 86.1771 70.30001 95.3664 85.5422 80.30001 95.3664 85.5422 70.30001 95.1331 84.9399 80.30001 95.1331 84.9399 70.30001 94.7931 84.3908 80.30001 94.7931 84.3908 70.30001 94.3579 83.9135 80.30001 94.3579 83.9135 70.30001 93.8425 83.5242 80.30001 93.8425 83.5242 70.30001 93.2643 83.2363 80.30001 93.2643 83.2363 70.30001 92.6431 83.0596 80.30001 92.6431 83.0596 70.30001 233 2 70.30001 233 2 80.30001 232.357 2.05959 80.30001 232.357 2.05959 70.30001 231.736 2.23635 80.30001 231.736 2.23635 70.30001 231.157 2.52424 80.30001 231.157 2.52424 70.30001 230.642 2.91347 80.30001 230.642 2.91347 70.30001 230.207 3.39078 80.30001 230.207 3.39078 70.30001 229.867 3.93991 80.30001 229.867 3.93991 70.30001 229.634 4.54218 80.30001 229.634 4.54218 70.30001 229.515 5.17706 80.30001 229.515 5.17706 70.30001 229.515 5.82294 80.30001 229.515 5.82294 70.30001 229.634 6.45782 80.30001 229.634 6.45782 70.30001 229.867 7.06008 80.30001 229.867 7.06008 70.30001 230.207 7.60922 80.30001 230.207 7.60922 70.30001 230.642 8.08653 80.30001 230.642 8.08653 70.30001 231.157 8.47576 80.30001 231.157 8.47576 70.30001 231.736 8.76365 80.30001 231.736 8.76365 70.30001 232.357 8.940401 80.30001 232.357 8.940401 70.30001 233 9 80.30001 233 9 70.30001 233.643 8.940401 80.30001 233.643 8.940401 70.30001 234.264 8.76365 80.30001 234.264 8.76365 70.30001 234.843 8.47576 80.30001 234.843 8.47576 70.30001 235.358 8.08653 80.30001 235.358 8.08653 70.30001 235.793 7.60922 80.30001 235.793 7.60922 70.30001 236.133 7.06008 80.30001 236.133 7.06008 70.30001 236.366 6.45782 80.30001 236.366 6.45782 70.30001 236.485 5.82294 80.30001 236.485 5.82294 70.30001 236.485 5.17706 80.30001 236.485 5.17706 70.30001 236.366 4.54218 80.30001 236.366 4.54218 70.30001 236.133 3.93991 80.30001 236.133 3.93991 70.30001 235.793 3.39078 80.30001 235.793 3.39078 70.30001 235.358 2.91347 80.30001 235.358 2.91347 70.30001 234.843 2.52424 80.30001 234.843 2.52424 70.30001 234.264 2.23635 80.30001 234.264 2.23635 70.30001 233.643 2.05959 80.30001 233.643 2.05959 70.30001 233 83 70.30001 233 83 80.30001 232.357 83.0596 80.30001 232.357 83.0596 70.30001 231.736 83.2363 80.30001 231.736 83.2363 70.30001 231.157 83.5242 80.30001 231.157 83.5242 70.30001 230.642 83.9135 80.30001 230.642 83.9135 70.30001 230.207 84.3908 80.30001 230.207 84.3908 70.30001 229.867 84.9399 80.30001 229.867 84.9399 70.30001 229.634 85.5422 80.30001 229.634 85.5422 70.30001 229.515 86.1771 80.30001 229.515 86.1771 70.30001 229.515 86.8229 80.30001 229.515 86.8229 70.30001 229.634 87.4578 80.30001 229.634 87.4578 70.30001 229.867 88.0601 80.30001 229.867 88.0601 70.30001 230.207 88.6092 80.30001 230.207 88.6092 70.30001 230.642 89.0865 80.30001 230.642 89.0865 70.30001 231.157 89.4758 80.30001 231.157 89.4758 70.30001 231.736 89.7636 80.30001 231.736 89.7636 70.30001 232.357 89.9404 80.30001 232.357 89.9404 70.30001 233 90 80.30001 233 90 70.30001 233.643 89.9404 80.30001 233.643 89.9404 70.30001 234.264 89.7636 80.30001 234.264 89.7636 70.30001 234.843 89.4758 80.30001 234.843 89.4758 70.30001 235.358 89.0865 80.30001 235.358 89.0865 70.30001 235.793 88.6092 80.30001 235.793 88.6092 70.30001 236.133 88.0601 80.30001 236.133 88.0601 70.30001 236.366 87.4578 80.30001 236.366 87.4578 70.30001 236.485 86.8229 80.30001 236.485 86.8229 70.30001 236.485 86.1771 80.30001 236.485 86.1771 70.30001 236.366 85.5422 80.30001 236.366 85.5422 70.30001 236.133 84.9399 80.30001 236.133 84.9399 70.30001 235.793 84.3908 80.30001 235.793 84.3908 70.30001 235.358 83.9135 80.30001 235.358 83.9135 70.30001 234.843 83.5242 80.30001 234.843 83.5242 70.30001 234.264 83.2363 80.30001 234.264 83.2363 70.30001 233.643 83.0596 80.30001 233.643 83.0596 70.30001</float_array>
          <technique_common>
            <accessor source="#shape0-mesh-positions-array" count="759" stride="3">
              <param name="X" type="float"/>
              <param name="Y" type="float"/>
              <param name="Z" type="float"/>
            </accessor>
          </technique_common>
        </source>
        <source id="shape0-mesh-normals">
          <float_array id="shape0-mesh-normals-array" count="2964">-0.9659055 -0.2588951 0 -0.9659212 -0.2588367 0 -0.7070945 -0.7071191 0 -0.7071255 -0.7070881 0 -0.2588607 -0.9659147 0 -0.2588605 -0.9659148 0 0.2588607 -0.9659147 0 0.2588605 -0.9659148 0 0.7070945 -0.7071191 0 0.7071255 -0.7070881 0 0.9659055 -0.2588951 0 0.9659212 -0.2588367 0 -0.9659173 -0.2588511 0 -0.9659133 -0.258866 0 -0.7071333 -0.7070803 0 -0.2588172 -0.9659264 0 -0.258817 -0.9659264 0 0.2588172 -0.9659264 0 0.258817 -0.9659264 0 0.7071333 -0.7070803 0 0.9659133 -0.2588657 0 0.9659133 -0.258866 0 -0.7071176 -0.707096 0 -0.7071491 -0.7070646 0 0.7071176 -0.707096 0 0.7071491 -0.7070646 0 -0.7071102 -0.7071033 0 -0.7071019 -0.7071117 0 0.7071102 -0.7071033 0 0.7071098 -0.7071039 0 0.9659259 -0.2588189 0 0.965926 -0.2588184 0 0.7071163 -0.7070973 0 0.7071165 -0.7070972 0 0.2587997 -0.9659311 0 0.2587998 -0.9659311 0 -0.2587995 -0.9659311 0 -0.2587997 -0.9659311 0 -0.7071165 -0.7070972 0 -0.707117 -0.7070966 0 -0.9659261 -0.2588184 0 -0.9659259 -0.2588192 0 0.9659259 -0.2588192 0 0.9659259 -0.2588186 0 0.7071169 -0.7070968 0 0.7071176 -0.7070961 0 -0.7071181 -0.7070956 0 -0.965926 -0.2588187 0 -0.9659258 -0.2588194 0 0.9659261 -0.2588183 0 0.9659262 -0.2588181 0 0.7071152 -0.7070984 0 0.7071159 -0.7070977 0 -0.7071154 -0.7070983 0 -0.7071164 -0.7070972 0 -0.9659262 -0.2588179 0 -0.9659259 -0.2588189 0 -0.9659256 0.2588202 0 -0.9659258 0.2588192 0 -0.7071192 0.7070945 0 -0.7071186 0.707095 0 -0.2587994 0.9659312 0 -0.2587998 0.9659311 0 0.2587995 0.9659311 0 0.2587999 0.965931 0 0.7071186 0.707095 0 0.7071185 0.7070952 0 0.9659258 0.2588195 0 0.9659257 0.2588197 0 -0.9659257 0.2588196 0 -0.9659261 0.2588184 0 -0.7071176 0.7070961 0 0.707117 0.7070966 0 0.7071174 0.7070962 0 0.9659259 0.2588189 0 0.9659259 0.2588189 0 -0.9659256 0.2588199 0 -0.9659259 0.2588189 0 -0.2587981 0.9659315 0 -0.2587985 0.9659314 0 0.2587983 0.9659315 0 0.2587987 0.9659313 0 0.9659259 0.2588192 0 0.9659258 0.2588194 0 0 -1 0 1 0 0 0 0 -1 8.3382e-6 0 -1 1.61285e-7 0 -1 -3.94375e-6 0 -1 -1.66522e-7 0 -1 0 0 -1 -1.48003e-7 0 -1 5.56448e-7 0 -1 -5.47525e-6 0 -1 1.86902e-6 0 -1 2.9118e-7 0 -1 -5.97251e-7 0 -1 1.42841e-6 0 -1 2.46425e-7 0 -1 -8.06692e-7 0 -1 -1.24275e-6 0 -1 5.64753e-6 0 -1 -2.28498e-6 0 -1 4.81585e-7 0 -1 -1.0046e-6 0 -1 2.21447e-6 0 -1 -7.60134e-7 0 -1 -2.9118e-7 0 -1 1.42248e-6 0 -1 -7.14207e-7 0 -1 7.60134e-7 0 -1 1.05071e-6 0 -1 -1.24504e-6 0 -1 -9.61079e-6 0 -1 4.9604e-6 0 -1 -4.69219e-6 0 -1 -1.11757e-5 0 -1 4.23304e-6 0 -1 5.63391e-7 0 -1 1.00379e-6 0 -1 1.27582e-7 0 -1 -4.96253e-7 0 -1 1.72036e-6 0 -1 -1.02884e-6 0 -1 2.0573e-6 0 -1 0 0 -1 -2.33468e-6 0 -1 -2.48127e-7 0 -1 1.43363e-6 0 -1 -9.61078e-6 0 -1 2.4802e-6 0 -1 -7.44059e-6 0 -1 -1.20135e-6 0 -1 -1.02883e-6 0 -1 1.61341e-7 0 -1 0 0 -1 2.58784e-7 0 -1 -3.29584e-7 0 -1 -4.21595e-6 0 -1 -1.2401e-5 0 -1 1.20135e-6 0 -1 -2.53469e-7 0 -1 0 0 -1 0 0 -1 -1.9083e-7 0 -1 1.39824e-6 0 -1 1.68544e-7 0 -1 0.9659133 0.2588657 0 0.9659133 0.258866 0 0.7071049 0.7071088 0 0.2588699 0.9659122 0 0.2588697 0.9659123 0 -0.2588699 0.9659122 0 -0.2588697 0.9659123 0 -0.7070969 0.7071166 0 -0.7071049 0.7071088 0 -0.9659133 0.2588657 0 -0.9659172 0.2588514 0 0.9659212 0.2588365 0 0.9659054 0.2588953 0 0.7071491 0.7070646 0 0.7071176 0.707096 0 0.2588167 0.9659265 0 0.2588163 0.9659266 0 -0.2588167 0.9659265 0 -0.2588163 0.9659266 0 -0.7071491 0.7070646 0 -0.7071176 0.707096 0 -0.9659212 0.2588365 0 -0.9659054 0.2588953 0 0.7071333 0.7070803 0 -0.7071255 0.7070881 0 -0.7071333 0.7070803 0 0.7071205 0.7070931 0 0.7070891 0.7071245 0 -0.7071205 0.7070931 0 -0.7070891 0.7071245 0 0 1 0 -1 0 0 -1 0 0 -1 0 0 -1 0 0 -1 0 0 -1 0 0 -1 0 0 -1 0 0 -1 0 0 -1 0 0 -1 0 0 -1 0 0 -1 0 0 -1 0 0 0 0 1 -1.99826e-6 0 1 5.40236e-6 0 1 5.56776e-6 0 1 -1.2148e-7 0 1 1.9726e-7 0 1 -1.31123e-7 0 1 3.60672e-6 0 1 -3.24502e-7 0 1 2.42715e-7 0 1 -4.77035e-6 0 1 5.18479e-6 0 1 -6.74174e-7 0 1 -1.48581e-7 0 1 -1.46292e-7 0 1 1.29638e-7 0 1 1.8877e-7 0 1 6.59169e-7 0 1 1.14692e-6 0 1 3.18457e-7 0 1 -2.57162e-7 0 1 9.92079e-6 0 1 -5.27874e-6 0 1 1.28607e-7 0 1 -2.86728e-7 0 1 3.18457e-7 0 1 -2.57163e-7 0 1 -2.4802e-6 0 1 2.4802e-6 0 1 9.38438e-6 0 1 -2.52912e-7 0 1 -8.64091e-7 0 1 5.01893e-7 0 1 1.5563e-6 0 1 1.41101e-6 0 1 1.28606e-7 0 1 5.73453e-7 0 1 -1.9714e-6 0 1 4.56996e-6 0 1 -6.95365e-7 0 1 -6.21377e-7 0 1 1.4559e-7 0 1 1.28023e-6 0 1 -1.42841e-6 0 1 -3.07369e-6 0 1 1.42841e-6 0 1 -1.49313e-7 0 1 -1.4559e-7 0 1 2.40793e-7 0 1 2.08608e-6 0 1 -2.21447e-6 0 1 3.22677e-6 0 1 9.85699e-7 0 1 0 0.9659078 0.2588865 0 0.7071096 0.707104 0 0.7071039 0.7071096 0 0.2588853 0.9659081 0 -0.2588824 0.9659089 0 -0.2588853 0.9659081 0 -0.7070583 0.7071553 0 -0.9659306 0.2588013 0 -0.9659335 0.2587906 0 0.9659308 0.2588004 0 0.9659323 0.2587951 0 0.7071066 0.707107 0 0.7071095 0.7071042 0 0.2587974 0.9659317 0 0.2587974 0.9659317 0 -0.2587974 0.9659317 0 -0.2587974 0.9659317 0 -0.7071551 0.7070585 0 -0.7071495 0.7070642 0 -0.9659094 0.2588802 0 -0.9659081 0.2588856 0 0.9659081 0.2588856 0 0.7071551 0.7070585 0 0.7071495 0.7070642 0 0.2587988 0.9659312 0 -0.2587959 0.965932 0 -0.2587988 0.9659312 0 -0.7071037 0.7071098 0 -0.7071038 0.7071098 0 -0.9659308 0.2588004 0 -0.9659337 0.2587898 0 0.9659306 0.2588013 0 0.9659321 0.258796 0 0.7070611 0.7071524 0 0.707064 0.7071496 0 0.2588838 0.9659085 0 0.2588839 0.9659085 0 -0.2588838 0.9659085 0 -0.2588839 0.9659085 0 -0.7071096 0.707104 0 -0.7071039 0.7071096 0 -0.9659092 0.2588811 0 -0.9659078 0.2588865 0 0.965933 0.2587927 0 0.965933 0.2587926 0 0.7070681 0.7071455 0 0.2588648 0.9659136 0 0.2588649 0.9659136 0 -0.2588648 0.9659136 0 -0.2588649 0.9659136 0 -0.7070681 0.7071455 0 -0.965933 0.2587927 0 -0.965933 0.2587926 0.258791 0.9659334 0 0.2587913 0.9659333 0 0.7071206 0.707093 0 0.7071206 0.707093 0 0.965925 0.2588222 0 0.9659249 0.2588227 0 0.9659249 -0.2588226 0 0.965925 -0.2588223 0 0.7071204 -0.7070932 0 0.7071209 -0.7070928 0 0.2587979 -0.9659315 0 0.2587978 -0.9659315 0 0.5102005 -0.1367109 0.8491206 0.3735053 -0.3734931 0.8491153 0.1366947 -0.5102102 0.8491174 0.1366977 0.5102126 0.8491154 0.373506 0.3734908 0.849116 0.5102037 0.1367118 0.8491184 0.258796 0.9659321 0 0.2587962 0.965932 0 0.9659248 -0.2588233 0 0.9659249 -0.2588226 0 0.7071214 -0.7070922 0 0.7071216 -0.707092 0 0.5102064 -0.1367125 0.8491168 0.3735024 -0.3734903 0.8491178 0.1367007 0.5102097 0.8491166 0.373505 0.3734899 0.8491169 0.5102077 0.1367128 0.8491159 0.2587944 0.9659325 0 0.2587947 0.9659324 0 0.9659246 -0.2588236 0 0.9659247 -0.2588232 0 0.7071223 -0.7070912 0 0.7071226 -0.707091 0 0.5102113 -0.1367138 0.8491137 0.3735014 -0.3734893 0.8491186 0.136697 0.51021 0.8491171 0.5102064 0.1367125 0.8491168 -0.5102053 0.1367126 0.8491173 -0.3735033 0.3734915 0.8491168 -0.1366948 0.5102099 0.8491176 -0.1366978 -0.5102096 0.8491172 -0.373504 -0.3734892 0.8491176 -0.5102116 -0.1367142 0.8491133 -0.2587981 -0.9659315 0 -0.7071216 -0.707092 0 -0.7071226 -0.707091 0 -0.9659244 -0.2588246 0 -0.9659246 -0.2588236 0 -0.9659249 0.2588226 0 -0.9659246 0.2588237 0 -0.7071206 0.707093 0 -0.7071199 0.7070938 0 -0.2587947 0.9659324 0 -0.2587948 0.9659324 0 -0.5102058 0.1367127 0.849117 -0.3735023 0.3734906 0.8491176 -0.1367008 0.5102095 0.8491169 -0.3735049 -0.3734902 0.8491167 -0.5102077 -0.1367132 0.8491159 -0.7071207 -0.707093 0 -0.9659245 -0.2588242 0 -0.9659247 -0.2588231 0 -0.2587963 0.965932 0 -0.5102031 0.136712 0.8491188 -0.3735052 0.3734935 0.8491152 -0.1366955 0.5102124 0.8491158 -0.3735059 -0.3734911 0.8491159 -0.5102037 -0.1367121 0.8491184 -0.7071196 -0.707094 0 -0.7071209 -0.7070928 0 -0.9659247 -0.2588236 0 -0.9659249 -0.2588227 0 -0.2587912 0.9659333 0 -0.2587914 0.9659333 0 0 -0.965933 -0.2587927 0 -0.965933 -0.2587926 0 -0.7071068 -0.7071068 0 -0.2587926 -0.965933 0 0.2587926 -0.965933 0 0.7071068 -0.7071068 0 0.965933 -0.2587927 0 0.965933 -0.2587926 0 -0.9659081 -0.2588856 0 -0.9659094 -0.2588802 0 -0.7071521 -0.7070615 0 -0.7071577 -0.7070558 0 -0.258794 -0.9659326 0 -0.2587941 -0.9659326 0 0.258794 -0.9659326 0 0.2587941 -0.9659326 0 0.7071121 -0.7071015 0 0.7071093 -0.7071043 0 0.9659323 -0.2587951 0 0.9659308 -0.2588004 0 -0.9659337 -0.2587898 0 -0.9659308 -0.2588004 0 -0.7070583 -0.7071553 0 -0.2588836 -0.9659085 0 -0.2588808 -0.9659094 0 0.2588836 -0.9659085 0 0.2588837 -0.9659086 0 0.7071039 -0.7071096 0 0.7071096 -0.7071039 0 0.9659081 -0.2588856 0 -0.7071039 -0.7071096 0 -0.7071096 -0.7071039 0 -0.2588822 -0.965909 0 -0.2588822 -0.965909 0 0.2588822 -0.965909 0 0.2588822 -0.965909 0 0.707064 -0.7071496 0 0.7070612 -0.7071524 0 -0.7071064 -0.7071072 0 -0.7071065 -0.7071072 0 -0.2587954 -0.9659322 0 -0.2587926 -0.9659329 0 0.2587954 -0.9659322 0 0.2587955 -0.9659322 0 0.7071521 -0.7070615 0 0.7071577 -0.7070558 0 -1 0 0 1 0 4.59856e-6 0 1 5.78024e-6 0 1 7.57461e-5 0 1 -1.56322e-6 0 1 -1.8866e-6 0 1 -4.55537e-5 0 1 2.35394e-6 0 1 2.65339e-6 0 1 4.06834e-6 0 1 3.7241e-7 0 1 -3.27495e-6 0 1 1.25188e-6 0 1 -1.00187e-5 0 1 6.83737e-7 0 1 -6.08265e-7 0 1 1.72319e-7 0 1 1.42045e-6 0 1 -2.29069e-5 0 1 1.1874e-5 0 1 -4.59856e-6 0 1 1.8866e-6 0 1 -9.84454e-7 0 1 1.00579e-5 0 1 -1.62921e-5 0 1 -1.00293e-6 0 1 -1.85532e-6 0 1 1.07688e-5 0 1 -9.58016e-6 0 1 -1.05557e-5 0 1 8.80063e-6 0 1 -3.47436e-7 0 1 -1.25187e-6 0 1 3.27496e-6 0 1 -1 0 0 -1 0 0 -1 0 0 -1 0 0 -1 0 0 -1 0 0 -1 0 0 -1 0 0 -1 0 0 -1 0 0 -1 0 0 -1 0 0 -1 0 0 -1 0 0 -1 0 0 -1 0 0 -1 0 0 -1 0 0 -1 0 0 -1 0 0 -1 0 0 -1 0 0 -1 0 0 -1 0 0 -1 0 0 -1 0 0 -1 0 0 -1 0 0 -1 0 0 -1 0 0 -1 0 0 -1 0 0 -1 0 0 -1 0 0 -1 0 0 -1 0 0 -1 0 0 -1 0 0 -1 0 0 -1 0 0 -1 0 0 -1 0 0 -1 0 0 -1 0 0 -1 0 0 -1 0 0 -1 0 0 -1 0 0 -1 0 0 -1 0 0 -1 0 0 -1 0 0 -1 0 0 -1 0 0 -1 0 0 1 -3.71147e-7 0 1 -1.47609e-6 0 1 0 0 1 3.71147e-7 0 1 6.9137e-7 0 1 -5.42638e-7 0 1 -3.67332e-7 0 1 2.39052e-6 0 1 -7.05573e-7 0 1 3.67333e-7 0 1 9.59499e-7 0 1 -8.11002e-7 0 1 -8.23273e-7 0 1 3.58053e-6 0 1 0 0 1 -1.83667e-7 0 1 2.01787e-6 0 1 3.18768e-7 0 1 0 0 1 2.98436e-7 0 1 -2.29864e-7 0 1 1.02852e-6 0 1 9.63642e-7 0 1 -7.04451e-7 0 1 -6.37536e-7 0 1 1.83668e-7 0 1 0 0 -0.09226638 -0.9957344 0 -0.09226292 -0.9957347 0 -0.2736811 -0.9618206 0 -0.2736808 -0.9618206 0 -0.4457157 -0.8951747 0 -0.4457228 -0.8951711 0 -0.6026393 -0.7980138 0 -0.6026575 -0.798 0 -0.7389572 -0.6737524 0 -0.8502119 -0.5264407 0 -0.85022 -0.5264275 0 -0.9324827 -0.3612147 0 -0.9324889 -0.3611986 0 -0.9829671 -0.1837819 0 -0.9829671 0.1837817 0 -0.932487 0.3612038 0 -0.9324808 0.3612198 0 -0.8502246 0.5264201 0 -0.8502162 0.5264338 0 -0.7389572 0.6737524 0 -0.7389566 0.673753 0 -0.6026571 0.7980003 0 -0.6026393 0.7980138 0 -0.4457238 0.8951707 0 -0.4457157 0.8951747 0 -0.2736666 0.9618247 0 -0.0922783 0.9957333 0 -0.09228175 0.995733 0 0.09228175 0.995733 0 0.09228003 0.9957332 0 0.2736666 0.9618247 0 0.2736716 0.9618232 0 0.4457086 0.8951781 0 0.4457157 0.8951747 0 0.6026571 0.7980003 0 0.6026484 0.7980069 0 0.7389478 0.6737627 0 0.7389566 0.673753 0 0.8502246 0.5264201 0 0.8502331 0.5264065 0 0.9324806 0.3612203 0 0.9324808 0.3612198 0 0.9829637 0.1837999 0 0.9829671 0.1837817 0 0.9829671 -0.1837819 0 0.9829636 -0.1838002 0 0.9324827 -0.3612147 0 0.9324826 -0.3612151 0 0.8502288 -0.5264133 0 0.85022 -0.5264275 0 0.7389572 -0.6737524 0 0.7389478 -0.6737627 0 0.6026484 -0.7980069 0 0.6026575 -0.798 0 0.4457157 -0.8951747 0 0.4457077 -0.8951786 0 0.2736861 -0.9618191 0 0.2736808 -0.9618206 0 0.09226465 -0.9957346 0 0.09226638 -0.9957344 0 1.42781e-5 0 1 -8.46699e-6 0 1 2.82235e-6 0 1 1.43831e-5 0 1 6.77895e-6 0 1 -5.08414e-6 0 1 -1.61726e-5 0 1 8.31485e-6 0 1 -7.77255e-6 0 1 -1.2711e-5 0 1 2.48719e-6 0 1 6.65163e-6 0 1 1.55872e-6 0 1 -1.99477e-6 0 1 9.9526e-5 0 1 -9.9588e-5 0 1 1.04791e-5 0 1 -8.86861e-6 0 -1 -8.3131e-6 0 -1 -6.79604e-6 0 -1 1.05707e-5 0 -1 1.88142e-6 0 -1 1.78485e-6 0 -1 -3.44817e-6 0 -1 3.38945e-6 0 -1 -4.15658e-6 0 -1 -2.02165e-6 0 -1 -1.79797e-6 0 -1 1.26336e-5 0 -1 3.41354e-5 0 -1 -4.97537e-5 0 -1 -1.24358e-6 0 -1 2.21716e-6 0 -1 5.24001e-6 0 -1 -1.70706e-5 0 -1 2.93635e-5 0 -1 -4.97771e-5 0 -1 -0.09228324 -0.9957329 0 -0.09227973 -0.9957332 0 -0.2735901 -0.9618465 0 -0.4457313 -0.8951668 0 -0.4457389 -0.8951631 0 -0.6027059 -0.7979634 0 -0.6027241 -0.7979497 0 -0.7389518 -0.6737583 0 -0.8501968 -0.526465 0 -0.8502054 -0.5264514 0 -0.9324892 -0.361198 0 -0.9324955 -0.3611815 0 -0.9829683 -0.1837753 0 -0.9829679 0.1837774 0 -0.9324955 0.3611815 0 -0.9324892 0.361198 0 -0.8502085 0.5264461 0 -0.8502001 0.5264597 0 -0.7389464 0.6737642 0 -0.6027317 0.797944 0 -0.6027134 0.7979577 0 -0.4456063 0.895229 0 -0.4455988 0.8952329 0 -0.2737431 0.961803 0 -0.09227973 0.9957332 0 -0.09228324 0.9957329 0 0.09228324 0.9957329 0 0.09228146 0.995733 0 0.2737431 0.961803 0 0.273748 0.9618015 0 0.4455913 0.8952366 0 0.4455988 0.8952329 0 0.6027317 0.797944 0 0.6027225 0.7979509 0 0.7389371 0.6737746 0 0.7389464 0.6737642 0 0.8502085 0.5264461 0 0.8502171 0.5264324 0 0.9324892 0.361198 0 0.9829645 0.1837957 0 0.9829679 0.1837774 0 0.9829683 -0.1837753 0 0.9829649 -0.1837936 0 0.9324892 -0.361198 0 0.8502138 -0.5264376 0 0.8502054 -0.5264514 0 0.7389518 -0.6737583 0 0.7389425 -0.6737686 0 0.602715 -0.7979566 0 0.6027241 -0.7979497 0 0.4457313 -0.8951668 0 0.4457238 -0.8951706 0 0.273595 -0.961845 0 0.2735901 -0.9618465 0 0.09228146 -0.995733 0 0.09228324 -0.9957329 0 -9.40675e-7 0 1 -7.19118e-6 0 1 -6.77856e-6 0 1 5.08381e-6 0 1 -1.72418e-6 0 1 1.66284e-5 0 1 -1.80323e-5 0 1 2.28922e-5 0 1 -2.54238e-5 0 1 2.48719e-6 0 1 -3.11729e-6 0 1 3.98962e-6 0 1 -9.94975e-5 0 1 -9.96214e-5 0 1 -2.0958e-5 0 1 4.1565e-6 0 -1 -2.14614e-6 0 -1 -8.70484e-6 0 -1 -7.52594e-6 0 -1 7.13977e-6 0 -1 -3.4479e-6 0 -1 1.69468e-6 0 -1 -3.59642e-6 0 -1 3.98953e-6 0 -1 2.21712e-6 0 -1 2.62068e-6 0 -1 -8.39095e-6 0 -1 -2.48731e-5 0 -1 -0.09227681 -0.9957335 0 -0.09228372 -0.9957328 0 -0.2737657 -0.9617965 0 -0.2737654 -0.9617965 0 -0.4456477 -0.8952085 0 -0.4456477 -0.8952085 0 -0.4456477 -0.8952085 0 -0.4456472 -0.8952088 0 -0.4456472 -0.8952088 0 -0.4456472 -0.8952088 0 -0.6029576 -0.7977733 0 -0.7390984 -0.6735976 0 -0.8502288 -0.5264133 0 -0.8501946 -0.5264685 0 -0.9326609 -0.3607544 0 -0.9324622 -0.3612676 0 -0.9324622 -0.3612676 0 -0.9324622 -0.3612676 0 -0.9829732 -0.1837489 0 -0.9829732 -0.1837489 0 -0.9829733 -0.183749 0 -0.9829733 -0.183749 0 -0.9829732 -0.1837489 0 -0.9829732 -0.1837489 0 -0.9830085 0.1835602 0 -0.9830086 0.1835602 -2.25196e-7 -0.9830085 0.1835602 0 -0.9830085 0.1835602 0 -0.9830085 0.1835602 0 -0.9830085 0.1835602 0 -0.9325122 0.3611387 0 -0.9325122 0.3611387 0 -0.9325122 0.3611387 0 -0.9326589 0.3607596 0 -0.8501992 0.5264611 0 -0.8502331 0.5264065 0 -0.7390984 0.6735976 0 -0.7390978 0.6735982 0 -0.6025748 0.7980626 0 -0.6025748 0.7980626 0 -0.6025747 0.7980626 0 -0.6029576 0.7977733 0 -0.445734 0.8951655 0 -0.445734 0.8951655 -2.75727e-7 -0.445734 0.8951655 0 -0.4456477 0.8952085 0 -0.4456477 0.8952085 0 -0.4456477 0.8952085 0 -0.2737512 0.9618006 0 -0.0922991 0.9957314 0 -0.09229218 0.995732 0 0.09229218 0.995732 0 0.2737512 0.9618006 0 0.445734 0.8951655 0 0.445734 0.8951655 0 0.445734 0.8951655 0 0.4456477 0.8952085 0 0.4456477 0.8952085 0 0.4456477 0.8952085 0 0.6025384 0.7980901 0 0.6025383 0.7980901 0 0.6025383 0.7980901 0 0.6026115 0.7980347 0 0.6026115 0.7980347 0 0.6026115 0.7980347 0 0.7390984 0.6735976 0 0.7390978 0.6735982 0 0.9325122 0.3611387 0 0.9325122 0.3611387 0 0.9325122 0.3611387 0 0.9326335 0.3608254 0 0.9830085 0.1835602 0 0.9830085 0.1835602 0 0.9830085 0.1835602 0 0.9830085 0.1835602 0 0.9830085 0.1835602 0 0.9830086 0.1835602 2.25196e-7 0.9829732 -0.1837489 0 0.9829732 -0.1837489 0 0.9829733 -0.183749 0 0.9829733 -0.183749 0 0.9829732 -0.1837489 0 0.9829732 -0.1837489 0 0.9326355 -0.3608202 0 0.9324622 -0.3612676 0 0.9324622 -0.3612676 0 0.9324622 -0.3612676 0 0.8502284 -0.5264139 0 0.7390984 -0.6735976 0 0.6026115 -0.7980347 0 0.6026115 -0.7980347 0 0.6026115 -0.7980347 0 0.6025387 -0.7980898 0 0.6025388 -0.7980898 0 0.6025387 -0.7980898 0 0.4456477 -0.8952085 0 0.4456477 -0.8952085 0 0.4456477 -0.8952085 0 0.4456472 -0.8952088 0 0.4456472 -0.8952088 0 0.4456472 -0.8952088 0 0.2737657 -0.9617965 0 0.2737654 -0.9617965 0 0.09227681 -0.9957335 0 1.42809e-5 0 1 -8.47022e-6 0 1 2.82341e-6 0 1 1.43936e-5 0 1 6.78053e-6 0 1 -5.08536e-6 0 1 -1.61588e-5 0 1 8.31718e-6 0 1 -7.77363e-6 0 1 -1.27156e-5 0 1 2.48762e-6 0 1 6.65113e-6 0 1 1.55899e-6 0 1 -1.99506e-6 0 1 9.92975e-5 0 1 -9.97301e-5 0 1 1.04519e-5 0 1 -8.86144e-6 0 -1 -8.31785e-6 0 -1 -6.79695e-6 0 -1 1.05733e-5 0 -1 1.88169e-6 0 -1 1.78489e-6 0 -1 -3.4487e-6 0 -1 3.38912e-6 0 -1 -4.15574e-6 0 -1 -2.02179e-6 0 -1 -1.79871e-6 0 -1 1.2636e-5 0 -1 3.41277e-5 0 -1 -4.94774e-5 0 -1 -1.24389e-6 0 -1 2.21746e-6 0 -1 5.24016e-6 0 -1 -1.70713e-5 0 -1 2.93751e-5 0 -1 -4.99064e-5 0 -1 -0.09229362 -0.9957318 0 -0.09230059 -0.9957312 0 -0.2736747 -0.9618223 0 -0.4457492 -0.895158 0 -0.4457492 -0.895158 0 -0.4457492 -0.895158 0 -0.4457492 -0.895158 0 -0.4457492 -0.895158 0 -0.4457492 -0.895158 0 -0.6026417 -0.798012 0 -0.6026417 -0.798012 -1.60853e-7 -0.6026417 -0.798012 0 -0.6026417 -0.798012 0 -0.6026417 -0.798012 0 -0.6026417 -0.798012 0 -0.739093 -0.6736035 0 -0.8502138 -0.5264376 0 -0.8501799 -0.5264923 0 -0.9324943 -0.3611847 0 -0.9324943 -0.3611847 0 -0.9324943 -0.3611847 0 -0.9326419 -0.3608035 0 -0.9829745 -0.1837423 0 -0.9829745 -0.1837423 0 -0.9829745 -0.1837423 0 -0.9829745 -0.1837423 0 -0.9829745 -0.1837423 0 -0.9829745 -0.1837423 1.60854e-7 -0.9829477 0.1838858 0 -0.9829477 0.1838858 0 -0.9829477 0.1838858 0 -0.9829477 0.1838858 0 -0.9829477 0.1838858 0 -0.9829477 0.1838858 0 -0.9326419 0.3608035 0 -0.9324943 0.3611847 0 -0.9324943 0.3611847 0 -0.9324943 0.3611847 0 -0.8501832 0.526487 0 -0.8502171 0.5264324 0 -0.7390876 0.6736093 0 -0.6026492 0.7980064 0 -0.6026492 0.7980064 0 -0.6026492 0.7980064 0 -0.6026492 0.7980064 0 -0.6026492 0.7980064 0 -0.6026492 0.7980064 0 -0.4456167 0.8952239 0 -0.4456167 0.8952239 0 -0.4456167 0.8952239 0 -0.4456167 0.8952239 0 -0.4456167 0.8952239 0 -0.4456167 0.8952239 0 -0.2738277 0.9617788 0 -0.09230059 0.9957312 0 -0.09229362 0.9957318 0 0.09229362 0.9957318 0 0.2738277 0.9617788 0 0.4456167 0.8952239 0 0.4456167 0.8952239 0 0.4456167 0.8952239 0 0.4456167 0.8952239 0 0.4456167 0.8952239 0 0.4456167 0.8952239 0 0.6026128 0.7980337 0 0.6026128 0.7980337 0 0.6026128 0.7980337 0 0.602609 0.7980366 0 0.602609 0.7980366 0 0.602609 0.7980366 0 0.7390876 0.6736093 0 0.9326419 0.3608035 0 0.9829477 0.1838858 0 0.9829477 0.1838858 0 0.9829477 0.1838858 0 0.9829477 0.1838858 0 0.9829477 0.1838858 0 0.9829477 0.1838858 0 0.9829745 -0.1837423 0 0.9829745 -0.1837423 -1.60854e-7 0.9829745 -0.1837423 0 0.9829745 -0.1837423 0 0.9829745 -0.1837423 0 0.9829745 -0.1837423 0 0.9326419 -0.3608035 0 0.739093 -0.6736035 0 0.6026015 -0.7980423 0 0.6026015 -0.7980423 0 0.6026015 -0.7980423 0 0.6026053 -0.7980394 0 0.6026053 -0.7980394 0 0.6026053 -0.7980394 0 0.4457492 -0.895158 0 0.4457492 -0.895158 0 0.4457492 -0.895158 0 0.4457492 -0.895158 0 0.4457492 -0.895158 0 0.4457492 -0.895158 0 0.2736747 -0.9618223 0 0.09229362 -0.9957318 0 -9.4104e-7 0 1 -7.19641e-6 0 1 -6.78003e-6 0 1 5.08507e-6 0 1 -1.7243e-6 0 1 1.66329e-5 0 1 -1.80351e-5 0 1 2.28964e-5 0 1 -2.54332e-5 0 1 2.4876e-6 0 1 -3.11787e-6 0 1 3.99019e-6 0 1 -9.92654e-5 0 1 -9.97506e-5 0 1 -2.09039e-5 0 1 4.1588e-6 0 -1 -2.14638e-6 0 -1 -8.70712e-6 0 -1 -7.52703e-6 0 -1 7.13997e-6 0 -1 -3.44847e-6 0 -1 1.69464e-6 0 -1 -3.5979e-6 0 -1 3.99027e-6 0 -1 2.21748e-6 0 -1 2.62079e-6 0 -1 -8.39461e-6 0 -1 -2.49377e-5 0 -1</float_array>
          <technique_common>
            <accessor source="#shape0-mesh-normals-array" count="988" stride="3">
              <param name="X" type="float"/>
              <param name="Y" type="float"/>
              <param name="Z" type="float"/>
            </accessor>
          </technique_common>
        </source>
        <vertices id="shape0-mesh-vertices">
          <input semantic="POSITION" source="#shape0-mesh-positions"/>
        </vertices>
        <triangles count="1510">
          <input semantic="VERTEX" source="#shape0-mesh-vertices" offset="0"/>
          <input semantic="NORMAL" source="#shape0-mesh-normals" offset="1"/>
          <p>0 0 1 0 2 0 2 1 1 1 3 1 2 2 3 2 4 2 4 3 3 3 5 3 4 4 5 4 6 4 6 5 5 5 7 5 6 6 7 6 8 6 8 7 7 7 9 7 8 8 9 8 10 8 10 9 9 9 11 9 10 10 11 10 12 10 12 11 11 11 13 11 14 12 15 12 16 12 16 13 15 13 17 13 16 14 17 14 18 14 18 3 17 3 19 3 18 15 19 15 20 15 20 16 19 16 21 16 20 17 21 17 22 17 22 18 21 18 23 18 22 19 23 19 24 19 24 19 23 19 25 19 24 20 25 20 26 20 26 21 25 21 27 21 28 0 29 0 30 0 30 1 29 1 31 1 30 22 31 22 32 22 32 23 31 23 33 23 32 15 33 15 34 15 34 16 33 16 35 16 34 17 35 17 36 17 36 18 35 18 37 18 36 24 37 24 38 24 38 25 37 25 39 25 38 10 39 10 40 10 40 11 39 11 41 11 42 12 43 12 44 12 44 13 43 13 45 13 44 26 45 26 46 26 46 27 45 27 47 27 46 4 47 4 48 4 48 5 47 5 49 5 48 6 49 6 50 6 50 7 49 7 51 7 50 28 51 28 52 28 52 29 51 29 53 29 52 20 53 20 54 20 54 21 53 21 55 21 56 30 57 30 58 30 58 31 57 31 59 31 58 32 59 32 60 32 60 33 59 33 61 33 60 34 61 34 62 34 62 35 61 35 63 35 62 36 63 36 64 36 64 37 63 37 65 37 64 38 65 38 66 38 66 39 65 39 67 39 66 40 67 40 68 40 68 41 67 41 69 41 70 42 71 42 72 42 72 43 71 43 73 43 72 44 73 44 74 44 74 45 73 45 75 45 74 34 75 34 76 34 76 35 75 35 77 35 76 36 77 36 78 36 78 37 77 37 79 37 78 39 79 39 80 39 80 46 79 46 81 46 80 47 81 47 82 47 82 48 81 48 83 48 84 49 85 49 86 49 86 50 85 50 87 50 86 51 87 51 88 51 88 52 87 52 89 52 88 34 89 34 90 34 90 35 89 35 91 35 90 36 91 36 92 36 92 37 91 37 93 37 92 53 93 53 94 53 94 54 93 54 95 54 94 55 95 55 96 55 96 56 95 56 97 56 96 57 97 57 98 57 98 58 97 58 99 58 98 59 99 59 100 59 100 60 99 60 101 60 100 61 101 61 102 61 102 62 101 62 103 62 102 63 103 63 104 63 104 64 103 64 105 64 104 65 105 65 106 65 106 66 105 66 107 66 106 67 107 67 84 67 84 68 107 68 85 68 82 69 83 69 108 69 108 70 83 70 109 70 108 71 109 71 110 71 110 71 109 71 111 71 110 61 111 61 112 61 112 62 111 62 113 62 112 63 113 63 114 63 114 64 113 64 115 64 114 72 115 72 116 72 116 73 115 73 117 73 116 74 117 74 70 74 70 75 117 75 71 75 68 76 69 76 118 76 118 77 69 77 119 77 118 59 119 59 120 59 120 60 119 60 121 60 120 78 121 78 122 78 122 79 121 79 123 79 122 80 123 80 124 80 124 81 123 81 125 81 124 65 125 65 126 65 126 66 125 66 127 66 126 82 127 82 56 82 56 83 127 83 57 83 128 84 129 84 130 84 130 84 129 84 131 84 130 84 131 84 132 84 132 84 131 84 133 84 134 85 135 85 136 85 136 85 135 85 137 85 136 85 137 85 138 85 138 85 137 85 139 85 138 85 139 85 133 85 133 85 139 85 132 85 140 86 141 86 142 86 143 86 144 86 145 86 146 86 143 86 147 86 148 86 149 86 150 86 149 86 151 86 152 86 153 86 148 86 154 86 140 86 138 86 133 86 2 87 134 87 0 87 0 86 134 86 136 86 0 88 136 88 155 88 2 86 4 86 134 86 134 89 4 89 6 89 134 86 6 86 156 86 6 86 8 86 156 86 156 90 8 90 10 90 156 91 10 91 157 91 157 92 10 92 12 92 157 86 12 86 158 86 155 86 136 86 159 86 159 93 136 93 138 93 159 94 138 94 160 94 160 86 138 86 140 86 160 95 140 95 161 95 146 86 162 86 163 86 163 86 162 86 164 86 163 86 164 86 165 86 165 86 164 86 166 86 164 96 40 96 167 96 32 86 34 86 168 86 40 97 164 97 38 97 38 86 164 86 169 86 38 98 169 98 36 98 167 86 170 86 164 86 164 99 170 99 171 99 164 86 171 86 166 86 166 100 171 100 172 100 172 86 173 86 166 86 166 101 173 101 28 101 166 86 28 86 168 86 168 102 28 102 30 102 168 103 30 103 32 103 162 104 26 104 174 104 26 105 162 105 24 105 24 86 162 86 175 86 24 106 175 106 22 106 176 86 164 86 177 86 177 86 164 86 162 86 177 86 162 86 178 86 178 86 162 86 174 86 169 107 18 107 20 107 176 86 179 86 164 86 164 108 179 108 14 108 164 86 14 86 169 86 169 109 14 109 16 109 169 110 16 110 18 110 149 86 152 86 150 86 150 86 152 86 168 86 150 86 168 86 169 86 169 86 168 86 34 86 169 111 34 111 36 111 148 86 150 86 154 86 154 86 150 86 169 86 154 86 169 86 175 86 175 86 169 86 20 86 175 112 20 112 22 112 63 86 61 86 180 86 181 113 125 113 123 113 63 86 180 86 65 86 61 114 59 114 180 114 180 115 59 115 57 115 180 116 57 116 181 116 181 117 57 117 127 117 181 118 127 118 125 118 146 86 147 86 162 86 162 86 147 86 181 86 162 86 181 86 175 86 175 86 181 86 123 86 175 119 123 119 121 119 121 86 119 86 175 86 175 120 119 120 69 120 175 121 69 121 154 121 154 122 69 122 67 122 154 123 67 123 65 123 105 86 103 86 180 86 65 86 180 86 154 86 154 86 180 86 103 86 154 124 103 124 101 124 93 86 91 86 182 86 182 125 91 125 89 125 101 86 99 86 154 86 154 126 99 126 183 126 154 86 183 86 153 86 153 86 183 86 129 86 99 127 97 127 183 127 183 128 97 128 95 128 183 129 95 129 93 129 89 130 87 130 182 130 182 131 87 131 85 131 182 86 85 86 180 86 180 132 85 132 107 132 180 133 107 133 105 133 115 86 113 86 182 86 93 86 182 86 183 86 183 86 182 86 113 86 183 134 113 134 111 134 79 86 77 86 184 86 184 86 77 86 75 86 111 86 109 86 183 86 183 135 109 135 141 135 183 136 141 136 129 136 129 86 141 86 140 86 129 86 140 86 131 86 131 86 140 86 133 86 109 86 83 86 141 86 141 137 83 137 81 137 141 138 81 138 79 138 75 86 73 86 184 86 184 139 73 139 71 139 184 86 71 86 182 86 182 140 71 140 117 140 182 141 117 141 115 141 142 86 185 86 186 86 187 86 188 86 157 86 189 86 156 86 48 86 48 86 156 86 46 86 48 86 50 86 189 86 189 142 50 142 52 142 189 143 52 143 142 143 142 86 52 86 54 86 142 86 54 86 185 86 186 86 187 86 142 86 142 86 187 86 157 86 142 86 157 86 140 86 140 144 157 144 158 144 140 145 158 145 161 145 188 86 190 86 157 86 157 86 190 86 42 86 157 86 42 86 156 86 156 146 42 146 44 146 156 147 44 147 46 147 79 86 184 86 141 86 141 86 184 86 191 86 141 86 191 86 142 86 142 86 191 86 192 86 142 86 192 86 189 86 143 86 145 86 147 86 147 86 145 86 193 86 147 86 193 86 181 86 181 86 193 86 194 86 181 86 194 86 180 86 180 86 194 86 195 86 180 86 195 86 182 86 182 86 195 86 196 86 182 86 196 86 184 86 184 86 196 86 197 86 184 86 197 86 191 86 191 86 197 86 198 86 191 86 198 86 192 86 54 148 55 148 185 148 185 149 55 149 199 149 185 150 199 150 186 150 186 150 199 150 200 150 186 151 200 151 187 151 187 152 200 152 201 152 187 153 201 153 188 153 188 154 201 154 202 154 188 155 202 155 190 155 190 156 202 156 203 156 190 157 203 157 42 157 42 158 203 158 43 158 40 159 41 159 167 159 167 160 41 160 204 160 167 161 204 161 170 161 170 162 204 162 205 162 170 163 205 163 171 163 171 164 205 164 206 164 171 165 206 165 172 165 172 166 206 166 207 166 172 167 207 167 173 167 173 168 207 168 208 168 173 169 208 169 28 169 28 170 208 170 29 170 26 148 27 148 174 148 174 149 27 149 209 149 174 171 209 171 178 171 178 171 209 171 210 171 178 163 210 163 177 163 177 164 210 164 211 164 177 165 211 165 176 165 176 166 211 166 212 166 176 172 212 172 179 172 179 173 212 173 213 173 179 157 213 157 14 157 14 158 213 158 15 158 12 159 13 159 158 159 158 160 13 160 214 160 158 174 214 174 161 174 161 175 214 175 215 175 161 151 215 151 160 151 160 152 215 152 216 152 160 153 216 153 159 153 159 154 216 154 217 154 159 176 217 176 155 176 155 177 217 177 218 177 155 169 218 169 0 169 0 170 218 170 1 170 198 178 219 178 192 178 192 178 219 178 220 178 192 178 220 178 189 178 189 178 220 178 221 178 189 178 221 178 156 178 156 178 221 178 222 178 156 178 222 178 134 178 134 178 222 178 135 178 223 85 148 85 224 85 224 85 148 85 153 85 224 85 153 85 128 85 128 85 153 85 129 85 225 178 151 178 226 178 226 178 151 178 149 178 226 178 149 178 223 178 223 178 149 178 148 178 227 85 165 85 228 85 228 85 165 85 166 85 228 85 166 85 229 85 229 85 166 85 168 85 229 85 168 85 230 85 230 85 168 85 152 85 230 85 152 85 225 85 225 85 152 85 151 85 231 179 232 179 233 179 233 180 232 180 234 180 233 181 234 181 235 181 235 182 234 182 236 182 235 183 236 183 237 183 237 184 236 184 238 184 237 185 238 185 239 185 239 186 238 186 240 186 239 187 240 187 241 187 241 188 240 188 242 188 241 189 242 189 243 189 243 190 242 190 244 190 243 191 244 191 245 191 245 192 244 192 246 192 165 84 227 84 163 84 163 84 227 84 247 84 163 84 247 84 146 84 146 84 247 84 248 84 146 84 248 84 143 84 143 84 248 84 249 84 143 84 249 84 231 84 231 84 249 84 232 84 94 193 96 193 250 193 80 193 82 193 251 193 252 193 251 193 128 193 128 193 130 193 252 193 252 193 130 193 132 193 252 193 132 193 139 193 215 193 214 193 253 193 253 193 214 193 13 193 253 193 13 193 222 193 13 193 11 193 222 193 222 194 11 194 9 194 222 193 9 193 135 193 135 195 9 195 7 195 7 193 5 193 135 193 135 196 5 196 3 196 135 197 3 197 137 197 3 193 1 193 137 193 137 193 1 193 218 193 137 193 218 193 139 193 215 193 252 193 216 193 216 193 252 193 139 193 216 193 139 193 217 193 217 193 139 193 218 193 203 198 202 198 253 198 253 199 202 199 201 199 253 193 201 193 254 193 55 200 53 200 221 200 201 193 200 193 254 193 254 201 200 201 199 201 254 202 199 202 55 202 53 193 51 193 221 193 221 203 51 203 49 203 221 193 49 193 222 193 49 204 47 204 222 204 222 205 47 205 45 205 222 193 45 193 253 193 253 206 45 206 43 206 253 207 43 207 203 207 55 193 221 193 254 193 254 193 221 193 220 193 254 193 220 193 255 193 215 208 253 208 252 208 252 193 253 193 254 193 252 193 254 193 251 193 251 193 254 193 255 193 251 193 255 193 256 193 74 193 76 193 256 193 82 193 250 193 251 193 251 193 250 193 224 193 251 193 224 193 128 193 256 193 76 193 251 193 251 209 76 209 78 209 251 210 78 210 80 210 82 193 108 193 250 193 250 211 108 211 110 211 250 193 110 193 257 193 257 212 110 212 112 212 257 213 112 213 114 213 114 193 116 193 257 193 257 214 116 214 70 214 257 193 70 193 256 193 256 193 70 193 72 193 256 215 72 215 74 215 88 193 90 193 257 193 96 193 258 193 250 193 250 193 258 193 223 193 250 193 223 193 224 193 257 193 90 193 250 193 250 216 90 216 92 216 250 193 92 193 94 193 96 193 98 193 258 193 258 217 98 217 100 217 258 193 100 193 259 193 259 218 100 218 102 218 259 219 102 219 104 219 104 193 106 193 259 193 259 220 106 220 84 220 259 193 84 193 257 193 257 221 84 221 86 221 257 193 86 193 88 193 58 193 259 193 56 193 56 222 259 222 260 222 56 193 260 193 126 193 258 223 66 223 261 223 261 224 66 224 68 224 261 225 68 225 118 225 120 193 122 193 260 193 260 226 122 226 124 226 260 227 124 227 126 227 58 193 60 193 259 193 259 219 60 219 62 219 259 193 62 193 258 193 258 228 62 228 64 228 258 229 64 229 66 229 208 193 207 193 228 193 206 230 205 230 262 230 35 193 33 193 229 193 229 231 33 231 31 231 229 193 31 193 228 193 228 232 31 232 29 232 228 233 29 233 208 233 225 193 226 193 230 193 230 193 226 193 263 193 230 193 263 193 229 193 229 193 263 193 264 193 229 193 264 193 35 193 35 193 264 193 37 193 205 193 204 193 262 193 262 234 204 234 41 234 262 193 41 193 264 193 264 235 41 235 39 235 264 236 39 236 37 236 213 193 212 193 262 193 211 237 210 237 265 237 21 193 19 193 264 193 264 238 19 238 17 238 264 193 17 193 262 193 262 239 17 239 15 239 262 240 15 240 213 240 23 193 21 193 261 193 261 193 21 193 264 193 261 193 264 193 258 193 258 193 264 193 263 193 258 193 263 193 223 193 223 193 263 193 226 193 210 193 209 193 265 193 265 241 209 241 27 241 265 193 27 193 261 193 261 242 27 242 25 242 261 243 25 243 23 243 207 244 206 244 228 244 228 193 206 193 262 193 228 193 262 193 227 193 227 193 262 193 247 193 212 245 211 245 262 245 262 193 211 193 265 193 262 193 265 193 247 193 247 193 265 193 248 193 118 193 120 193 261 193 261 193 120 193 260 193 261 193 260 193 265 193 265 193 260 193 266 193 265 193 266 193 248 193 248 193 266 193 249 193 220 193 219 193 255 193 255 193 219 193 267 193 255 193 267 193 256 193 256 193 267 193 268 193 256 193 268 193 257 193 257 193 268 193 269 193 257 193 269 193 259 193 259 193 269 193 270 193 259 193 270 193 260 193 260 193 270 193 271 193 260 193 271 193 266 193 266 193 271 193 272 193 266 193 272 193 249 193 249 193 272 193 273 193 274 246 275 246 276 246 276 246 275 246 277 246 276 247 277 247 278 247 278 248 277 248 279 248 278 249 279 249 280 249 280 249 279 249 281 249 280 250 281 250 282 250 282 251 281 251 283 251 282 252 283 252 284 252 284 252 283 252 285 252 284 253 285 253 286 253 286 254 285 254 287 254 288 255 289 255 290 255 290 256 289 256 291 256 290 257 291 257 292 257 292 258 291 258 293 258 292 259 293 259 294 259 294 260 293 260 295 260 294 261 295 261 296 261 296 262 295 262 297 262 296 263 297 263 298 263 298 264 297 264 299 264 298 265 299 265 300 265 300 266 299 266 301 266 302 267 303 267 304 267 304 267 303 267 305 267 304 268 305 268 306 268 306 269 305 269 307 269 306 270 307 270 308 270 308 270 307 270 309 270 308 271 309 271 310 271 310 272 309 272 311 272 310 273 311 273 312 273 312 274 311 274 313 274 312 275 313 275 314 275 314 276 313 276 315 276 316 277 317 277 318 277 318 278 317 278 319 278 318 279 319 279 320 279 320 280 319 280 321 280 320 281 321 281 322 281 322 282 321 282 323 282 322 283 323 283 324 283 324 284 323 284 325 284 324 285 325 285 326 285 326 286 325 286 327 286 326 287 327 287 328 287 328 288 327 288 329 288 330 289 331 289 332 289 332 290 331 290 333 290 332 291 333 291 334 291 334 291 333 291 335 291 334 292 335 292 336 292 336 293 335 293 337 293 336 294 337 294 338 294 338 295 337 295 339 295 338 296 339 296 340 296 340 296 339 296 341 296 340 297 341 297 342 297 342 298 341 298 343 298 344 299 345 299 346 299 346 300 345 300 347 300 346 301 347 301 348 301 348 302 347 302 349 302 348 303 349 303 350 303 350 304 349 304 351 304 350 305 351 305 352 305 352 306 351 306 353 306 352 307 353 307 354 307 354 308 353 308 355 308 354 309 355 309 356 309 356 310 355 310 357 310 358 311 353 311 351 311 355 312 353 312 358 312 357 313 355 313 358 313 358 314 347 314 345 314 349 315 347 315 358 315 351 316 349 316 358 316 359 317 360 317 361 317 361 318 360 318 362 318 361 301 362 301 363 301 363 302 362 302 364 302 363 303 364 303 365 303 365 304 364 304 366 304 365 319 366 319 367 319 367 320 366 320 368 320 367 321 368 321 369 321 369 322 368 322 370 322 369 309 370 309 371 309 371 310 370 310 372 310 373 323 368 323 366 323 370 324 368 324 373 324 372 313 370 313 373 313 373 325 362 325 360 325 364 326 362 326 373 326 366 327 364 327 373 327 374 328 375 328 376 328 376 329 375 329 377 329 376 301 377 301 378 301 378 302 377 302 379 302 378 303 379 303 380 303 380 304 379 304 381 304 380 330 381 330 382 330 382 331 381 331 383 331 382 332 383 332 384 332 384 333 383 333 385 333 384 309 385 309 386 309 386 310 385 310 387 310 388 334 383 334 381 334 385 335 383 335 388 335 387 313 385 313 388 313 388 336 377 336 375 336 379 326 377 326 388 326 381 337 379 337 388 337 388 338 389 338 390 338 391 339 389 339 388 339 375 340 391 340 388 340 388 341 392 341 387 341 393 342 392 342 388 342 390 343 393 343 388 343 386 344 387 344 394 344 394 344 387 344 392 344 394 345 392 345 395 345 395 346 392 346 393 346 395 347 393 347 396 347 396 348 393 348 390 348 396 349 390 349 397 349 397 350 390 350 389 350 397 351 389 351 398 351 398 352 389 352 391 352 398 353 391 353 374 353 374 354 391 354 375 354 373 355 399 355 400 355 401 356 399 356 373 356 360 357 401 357 373 357 373 341 402 341 372 341 403 358 402 358 373 358 400 359 403 359 373 359 371 344 372 344 404 344 404 344 372 344 402 344 404 360 402 360 405 360 405 345 402 345 403 345 405 361 403 361 406 361 406 362 403 362 400 362 406 349 400 349 407 349 407 350 400 350 399 350 407 351 399 351 408 351 408 352 399 352 401 352 408 363 401 363 359 363 359 363 401 363 360 363 358 364 409 364 410 364 411 365 409 365 358 365 345 366 411 366 358 366 358 341 412 341 357 341 413 367 412 367 358 367 410 368 413 368 358 368 356 344 357 344 414 344 414 344 357 344 412 344 414 369 412 369 415 369 415 370 412 370 413 370 415 371 413 371 416 371 416 372 413 372 410 372 416 349 410 349 417 349 417 350 410 350 409 350 417 351 409 351 418 351 418 352 409 352 411 352 418 373 411 373 344 373 344 374 411 374 345 374 342 375 343 375 419 375 419 376 343 376 420 376 419 377 420 377 421 377 421 377 420 377 422 377 421 378 422 378 423 378 423 378 422 378 424 378 423 379 424 379 425 379 425 379 424 379 426 379 425 380 426 380 427 380 427 380 426 380 428 380 427 381 428 381 330 381 330 382 428 382 331 382 328 383 329 383 429 383 429 384 329 384 430 384 429 385 430 385 431 385 431 386 430 386 432 386 431 387 432 387 433 387 433 388 432 388 434 388 433 389 434 389 435 389 435 390 434 390 436 390 435 391 436 391 437 391 437 392 436 392 438 392 437 393 438 393 316 393 316 394 438 394 317 394 314 395 315 395 439 395 439 396 315 396 440 396 439 397 440 397 441 397 441 397 440 397 442 397 441 398 442 398 443 398 443 399 442 399 444 399 443 400 444 400 445 400 445 401 444 401 446 401 445 402 446 402 447 402 447 403 446 403 448 403 447 404 448 404 302 404 302 404 448 404 303 404 300 383 301 383 449 383 449 384 301 384 450 384 449 405 450 405 451 405 451 406 450 406 452 406 451 407 452 407 453 407 453 408 452 408 454 408 453 409 454 409 455 409 455 410 454 410 456 410 455 411 456 411 457 411 457 412 456 412 458 412 457 393 458 393 288 393 288 394 458 394 289 394 286 395 287 395 459 395 459 396 287 396 460 396 459 413 460 413 461 413 461 414 460 414 462 414 461 415 462 415 463 415 463 416 462 416 464 416 463 417 464 417 465 417 465 418 464 418 466 418 465 419 466 419 467 419 467 420 466 420 468 420 467 404 468 404 274 404 274 404 468 404 275 404 469 84 470 84 471 84 471 84 470 84 472 84 471 84 472 84 473 84 473 421 472 421 474 421 473 86 474 86 475 86 475 86 474 86 476 86 475 86 476 86 477 86 477 86 476 86 478 86 477 178 478 178 479 178 479 422 478 422 480 422 479 178 480 178 481 178 481 178 480 178 482 178 414 193 415 193 481 193 481 423 415 423 416 423 481 424 416 424 394 424 365 425 367 425 398 425 398 426 367 426 369 426 469 427 483 427 406 427 482 193 484 193 350 193 350 193 484 193 348 193 416 428 417 428 394 428 394 429 417 429 418 429 394 193 418 193 386 193 386 430 418 430 344 430 386 193 344 193 384 193 394 193 395 193 481 193 481 431 395 431 396 431 481 432 396 432 483 432 483 433 396 433 397 433 483 434 397 434 398 434 406 193 407 193 469 193 469 435 407 435 408 435 469 193 408 193 470 193 470 436 408 436 359 436 470 437 359 437 361 437 369 193 371 193 398 193 398 438 371 438 404 438 398 193 404 193 483 193 483 439 404 439 405 439 483 440 405 440 406 440 361 441 363 441 470 441 470 442 363 442 365 442 470 443 365 443 484 443 348 193 484 193 346 193 346 444 484 444 380 444 346 445 380 445 344 445 344 446 380 446 382 446 344 447 382 447 384 447 350 193 352 193 482 193 482 448 352 448 354 448 482 193 354 193 481 193 481 449 354 449 356 449 481 450 356 450 414 450 398 451 374 451 365 451 365 452 374 452 376 452 365 453 376 453 484 453 484 454 376 454 378 454 484 455 378 455 380 455 284 456 286 456 480 456 423 457 425 457 485 457 485 458 425 458 427 458 476 459 330 459 332 459 332 457 334 457 476 457 476 460 334 460 336 460 476 457 336 457 478 457 336 457 338 457 478 457 478 461 338 461 340 461 478 462 340 462 342 462 445 463 419 463 421 463 445 464 447 464 419 464 419 465 447 465 302 465 419 457 302 457 342 457 342 466 302 466 304 466 342 467 304 467 306 467 306 468 308 468 342 468 342 469 308 469 310 469 342 470 310 470 478 470 478 471 310 471 312 471 478 472 312 472 480 472 480 473 312 473 314 473 480 474 314 474 439 474 421 457 423 457 445 457 445 457 423 457 485 457 445 457 485 457 443 457 443 475 485 475 480 475 443 476 480 476 441 476 441 477 480 477 439 477 485 478 300 478 449 478 476 479 296 479 298 479 474 480 292 480 476 480 476 481 292 481 294 481 476 482 294 482 296 482 427 457 330 457 485 457 485 483 330 483 476 483 485 484 476 484 300 484 300 485 476 485 298 485 455 457 472 457 453 457 453 457 472 457 485 457 453 457 485 457 451 457 451 457 485 457 449 457 455 457 457 457 472 457 472 486 457 486 288 486 472 487 288 487 474 487 474 488 288 488 290 488 474 489 290 489 292 489 465 490 467 490 484 490 480 491 286 491 482 491 484 457 467 457 485 457 485 492 467 492 274 492 485 493 274 493 276 493 286 494 459 494 482 494 482 495 459 495 461 495 482 496 461 496 484 496 484 497 461 497 463 497 484 498 463 498 465 498 276 457 278 457 485 457 485 499 278 499 280 499 485 500 280 500 480 500 480 501 280 501 282 501 480 502 282 502 284 502 429 457 484 457 328 457 328 503 484 503 485 503 328 457 485 457 326 457 326 457 485 457 324 457 429 504 431 504 484 504 484 505 431 505 433 505 484 457 433 457 470 457 433 457 435 457 470 457 470 506 435 506 437 506 470 457 437 457 472 457 472 507 437 507 316 507 316 457 318 457 472 457 472 508 318 508 320 508 472 457 320 457 485 457 485 509 320 509 322 509 485 510 322 510 324 510 319 511 317 511 471 511 275 512 468 512 483 512 481 513 460 513 479 513 479 85 460 85 287 85 479 514 287 514 285 514 468 85 466 85 483 85 483 515 466 515 464 515 483 85 464 85 481 85 481 516 464 516 462 516 481 517 462 517 460 517 285 85 283 85 479 85 479 85 283 85 281 85 479 85 281 85 486 85 486 85 281 85 279 85 486 85 279 85 277 85 471 85 317 85 469 85 432 85 430 85 483 85 329 518 327 518 486 518 317 519 438 519 469 519 469 520 438 520 436 520 469 85 436 85 483 85 483 521 436 521 434 521 483 522 434 522 432 522 277 523 275 523 486 523 486 85 275 85 483 85 486 85 483 85 329 85 329 524 483 524 430 524 327 85 325 85 486 85 486 85 325 85 323 85 486 85 323 85 471 85 471 85 323 85 321 85 471 85 321 85 319 85 309 85 307 85 339 85 303 85 448 85 424 85 424 85 448 85 486 85 424 85 486 85 426 85 442 85 479 85 444 85 444 85 479 85 486 85 444 85 486 85 446 85 446 85 486 85 448 85 442 85 440 85 479 85 479 85 440 85 315 85 479 525 315 525 477 525 477 85 315 85 313 85 477 526 313 526 311 526 335 527 333 527 475 527 475 85 333 85 331 85 475 528 331 528 486 528 486 85 331 85 428 85 486 85 428 85 426 85 311 85 309 85 477 85 477 529 309 529 339 529 477 85 339 85 475 85 475 530 339 530 337 530 475 531 337 531 335 531 424 85 422 85 303 85 303 85 422 85 420 85 303 85 420 85 305 85 305 85 420 85 343 85 305 85 343 85 307 85 307 85 343 85 341 85 307 532 341 532 339 532 471 85 458 85 456 85 471 85 456 85 486 85 486 533 456 533 454 533 486 534 454 534 452 534 299 85 475 85 301 85 301 535 475 535 486 535 301 85 486 85 450 85 450 85 486 85 452 85 299 85 297 85 475 85 475 85 297 85 295 85 475 85 295 85 473 85 295 85 293 85 473 85 473 536 293 536 291 536 473 537 291 537 471 537 471 85 291 85 289 85 471 85 289 85 458 85 487 538 488 538 489 538 487 539 489 539 490 539 490 540 489 540 491 540 490 541 491 541 492 541 492 542 491 542 493 542 492 543 493 543 494 543 494 544 493 544 495 544 494 545 495 545 496 545 496 546 495 546 497 546 496 546 497 546 498 546 498 547 497 547 499 547 498 548 499 548 500 548 500 549 499 549 501 549 500 550 501 550 502 550 502 551 501 551 503 551 502 551 503 551 504 551 504 457 503 457 505 457 504 457 505 457 506 457 506 552 505 552 507 552 506 552 507 552 508 552 508 553 507 553 509 553 508 554 509 554 510 554 510 555 509 555 511 555 510 556 511 556 512 556 512 557 511 557 513 557 512 558 513 558 514 558 514 559 513 559 515 559 514 560 515 560 516 560 516 561 515 561 517 561 516 562 517 562 518 562 518 563 517 563 519 563 518 563 519 563 520 563 520 564 519 564 521 564 520 565 521 565 522 565 522 566 521 566 523 566 522 567 523 567 524 567 524 568 523 568 525 568 524 569 525 569 526 569 526 570 525 570 527 570 526 571 527 571 528 571 528 572 527 572 529 572 528 573 529 573 530 573 530 574 529 574 531 574 530 575 531 575 532 575 532 576 531 576 533 576 532 577 533 577 534 577 534 578 533 578 535 578 534 579 535 579 536 579 536 580 535 580 537 580 536 581 537 581 538 581 538 85 537 85 539 85 538 85 539 85 540 85 540 582 539 582 541 582 540 583 541 583 542 583 542 584 541 584 543 584 542 585 543 585 544 585 544 586 543 586 545 586 544 587 545 587 546 587 546 588 545 588 547 588 546 589 547 589 548 589 548 590 547 590 549 590 548 591 549 591 550 591 550 592 549 592 551 592 550 593 551 593 552 593 552 594 551 594 553 594 552 595 553 595 554 595 554 596 553 596 488 596 554 597 488 597 487 597 497 598 495 598 535 598 535 599 495 599 493 599 535 193 493 193 537 193 533 193 531 193 501 193 501 193 531 193 529 193 501 600 529 600 527 600 515 193 507 193 517 193 517 601 507 601 505 601 533 602 501 602 535 602 535 603 501 603 499 603 535 193 499 193 497 193 527 604 525 604 501 604 501 605 525 605 523 605 501 606 523 606 521 606 521 193 519 193 501 193 501 607 519 607 517 607 501 193 517 193 503 193 503 193 517 193 505 193 491 193 541 193 493 193 493 608 541 608 539 608 493 609 539 609 537 609 491 193 489 193 541 193 541 610 489 610 488 610 541 611 488 611 553 611 515 193 513 193 507 193 507 193 513 193 511 193 507 612 511 612 509 612 549 613 547 613 545 613 553 193 551 193 541 193 541 614 551 614 549 614 541 193 549 193 543 193 543 193 549 193 545 193 540 86 542 86 504 86 526 615 528 615 504 615 522 616 506 616 508 616 506 86 522 86 504 86 504 617 522 617 524 617 504 618 524 618 526 618 528 86 530 86 504 86 504 619 530 619 532 619 504 620 532 620 534 620 534 621 536 621 504 621 504 86 536 86 538 86 504 86 538 86 540 86 544 622 546 622 494 622 494 623 546 623 548 623 498 624 500 624 542 624 542 86 500 86 502 86 542 86 502 86 504 86 510 86 518 86 508 86 508 625 518 625 520 625 508 626 520 626 522 626 510 627 512 627 518 627 518 86 512 86 514 86 518 628 514 628 516 628 544 86 494 86 542 86 542 629 494 629 496 629 542 630 496 630 498 630 548 86 550 86 494 86 494 86 550 86 552 86 494 631 552 631 554 631 554 632 487 632 494 632 494 633 487 633 490 633 494 634 490 634 492 634 555 635 556 635 557 635 555 636 557 636 558 636 558 637 557 637 559 637 558 637 559 637 560 637 560 638 559 638 561 638 560 639 561 639 562 639 562 640 561 640 563 640 562 641 563 641 564 641 564 642 563 642 565 642 564 642 565 642 566 642 566 643 565 643 567 643 566 644 567 644 568 644 568 645 567 645 569 645 568 646 569 646 570 646 570 647 569 647 571 647 570 647 571 647 572 647 572 457 571 457 573 457 572 457 573 457 574 457 574 648 573 648 575 648 574 648 575 648 576 648 576 649 575 649 577 649 576 650 577 650 578 650 578 651 577 651 579 651 578 652 579 652 580 652 580 653 579 653 581 653 580 653 581 653 582 653 582 654 581 654 583 654 582 655 583 655 584 655 584 656 583 656 585 656 584 657 585 657 586 657 586 658 585 658 587 658 586 658 587 658 588 658 588 659 587 659 589 659 588 660 589 660 590 660 590 661 589 661 591 661 590 662 591 662 592 662 592 663 591 663 593 663 592 664 593 664 594 664 594 665 593 665 595 665 594 666 595 666 596 666 596 667 595 667 597 667 596 668 597 668 598 668 598 669 597 669 599 669 598 670 599 670 600 670 600 671 599 671 601 671 600 672 601 672 602 672 602 673 601 673 603 673 602 673 603 673 604 673 604 674 603 674 605 674 604 675 605 675 606 675 606 85 605 85 607 85 606 85 607 85 608 85 608 676 607 676 609 676 608 677 609 677 610 677 610 678 609 678 611 678 610 678 611 678 612 678 612 679 611 679 613 679 612 680 613 680 614 680 614 681 613 681 615 681 614 682 615 682 616 682 616 683 615 683 617 683 616 684 617 684 618 684 618 685 617 685 619 685 618 686 619 686 620 686 620 687 619 687 621 687 620 688 621 688 622 688 622 689 621 689 556 689 622 690 556 690 555 690 565 193 563 193 603 193 603 193 563 193 561 193 603 193 561 193 605 193 601 193 599 193 569 193 569 193 599 193 597 193 569 691 597 691 595 691 583 193 575 193 585 193 585 692 575 692 573 692 601 693 569 693 603 693 603 694 569 694 567 694 603 695 567 695 565 695 595 193 593 193 569 193 569 696 593 696 591 696 569 697 591 697 589 697 589 698 587 698 569 698 569 699 587 699 585 699 569 193 585 193 571 193 571 193 585 193 573 193 559 193 609 193 561 193 561 700 609 700 607 700 561 193 607 193 605 193 559 193 557 193 609 193 609 701 557 701 556 701 609 702 556 702 621 702 583 193 581 193 575 193 575 193 581 193 579 193 575 703 579 703 577 703 617 704 615 704 613 704 621 193 619 193 609 193 609 705 619 705 617 705 609 193 617 193 611 193 611 193 617 193 613 193 608 86 610 86 572 86 594 86 596 86 572 86 590 706 574 706 576 706 574 86 590 86 572 86 572 707 590 707 592 707 572 708 592 708 594 708 596 86 598 86 572 86 572 709 598 709 600 709 572 710 600 710 602 710 602 711 604 711 572 711 572 712 604 712 606 712 572 86 606 86 608 86 612 86 614 86 562 86 562 86 614 86 616 86 566 86 568 86 610 86 610 86 568 86 570 86 610 86 570 86 572 86 578 86 586 86 576 86 576 713 586 713 588 713 576 714 588 714 590 714 578 86 580 86 586 86 586 86 580 86 582 86 586 86 582 86 584 86 612 86 562 86 610 86 610 86 562 86 564 86 610 715 564 715 566 715 616 86 618 86 562 86 562 86 618 86 620 86 562 716 620 716 622 716 622 86 555 86 562 86 562 717 555 717 558 717 562 718 558 718 560 718 623 719 624 719 625 719 623 720 625 720 626 720 626 721 625 721 627 721 626 722 627 722 628 722 628 723 627 724 629 725 628 726 629 727 630 728 630 729 629 729 631 729 630 729 631 729 632 729 632 730 631 730 633 730 632 730 633 730 634 730 634 731 633 731 635 731 634 732 635 732 636 732 636 733 635 733 637 733 636 734 637 735 638 736 638 737 637 738 639 739 638 740 639 741 640 742 640 457 639 457 641 457 640 457 641 457 642 457 642 743 641 744 643 745 642 746 643 747 644 748 644 749 643 750 645 751 644 752 645 752 646 752 646 753 645 753 647 753 646 754 647 754 648 754 648 755 647 755 649 755 648 756 649 756 650 756 650 757 649 758 651 759 650 760 651 760 652 760 652 761 651 762 653 763 652 764 653 765 654 766 654 767 653 767 655 767 654 767 655 767 656 767 656 768 655 768 657 768 656 769 657 769 658 769 658 770 657 770 659 770 658 770 659 770 660 770 660 771 659 771 661 771 660 771 661 771 662 771 662 772 661 773 663 774 662 775 663 776 664 777 664 778 663 779 665 780 664 781 665 782 666 783 666 784 665 784 667 784 666 785 667 785 668 785 668 577 667 577 669 577 668 577 669 577 670 577 670 786 669 787 671 788 670 789 671 789 672 789 672 790 671 791 673 792 672 793 673 794 674 795 674 85 673 85 675 85 674 85 675 85 676 85 676 796 675 797 677 798 676 799 677 800 678 801 678 802 677 802 679 802 678 803 679 804 680 805 680 586 679 586 681 586 680 806 681 806 682 806 682 807 681 807 683 807 682 807 683 807 684 807 684 808 683 809 685 810 684 811 685 812 686 813 686 814 685 815 687 816 686 817 687 818 688 819 688 820 687 820 689 820 688 821 689 821 690 821 690 822 689 822 624 822 690 822 624 822 623 822 633 823 631 823 671 823 671 824 631 824 629 824 671 193 629 193 673 193 669 193 667 193 637 193 637 193 667 193 665 193 637 825 665 825 663 825 651 193 643 193 653 193 653 826 643 826 641 826 669 827 637 827 671 827 671 828 637 828 635 828 671 193 635 193 633 193 663 829 661 829 637 829 637 830 661 830 659 830 637 831 659 831 657 831 657 193 655 193 637 193 637 832 655 832 653 832 637 193 653 193 639 193 639 193 653 193 641 193 627 193 677 193 629 193 629 833 677 833 675 833 629 834 675 834 673 834 627 193 625 193 677 193 677 835 625 835 624 835 677 836 624 836 689 836 651 193 649 193 643 193 643 193 649 193 647 193 643 837 647 837 645 837 685 838 683 838 681 838 689 193 687 193 677 193 677 839 687 839 685 839 677 193 685 193 679 193 679 193 685 193 681 193 676 86 678 86 640 86 662 840 664 840 640 840 658 841 642 841 644 841 642 86 658 86 640 86 640 842 658 842 660 842 640 843 660 843 662 843 664 86 666 86 640 86 640 844 666 844 668 844 640 845 668 845 670 845 670 846 672 846 640 846 640 86 672 86 674 86 640 86 674 86 676 86 680 847 682 847 630 847 630 848 682 848 684 848 634 849 636 849 678 849 678 86 636 86 638 86 678 86 638 86 640 86 646 86 654 86 644 86 644 850 654 850 656 850 644 851 656 851 658 851 646 852 648 852 654 852 654 86 648 86 650 86 654 853 650 853 652 853 680 86 630 86 678 86 678 854 630 854 632 854 678 855 632 855 634 855 684 86 686 86 630 86 630 86 686 86 688 86 630 856 688 856 690 856 690 857 623 857 630 857 630 858 623 858 626 858 630 859 626 859 628 859 691 860 692 860 693 860 691 861 693 861 694 861 694 862 693 862 695 862 694 862 695 862 696 862 696 863 695 864 697 865 696 866 697 867 698 868 698 869 697 870 699 871 698 872 699 873 700 874 700 875 699 875 701 875 700 875 701 875 702 875 702 876 701 876 703 876 702 877 703 877 704 877 704 878 703 879 705 880 704 881 705 881 706 881 706 882 705 883 707 884 706 885 707 886 708 887 708 457 707 457 709 457 708 457 709 457 710 457 710 888 709 889 711 890 710 891 711 892 712 893 712 894 711 894 713 894 712 895 713 896 714 897 714 898 713 898 715 898 714 899 715 899 716 899 716 900 715 900 717 900 716 900 717 900 718 900 718 901 717 902 719 903 718 904 719 905 720 906 720 907 719 908 721 909 720 910 721 911 722 912 722 913 721 913 723 913 722 913 723 913 724 913 724 914 723 914 725 914 724 915 725 915 726 915 726 916 725 916 727 916 726 916 727 916 728 916 728 917 727 917 729 917 728 917 729 917 730 917 730 918 729 919 731 920 730 921 731 922 732 923 732 924 731 925 733 926 732 927 733 928 734 929 734 930 733 930 735 930 734 930 735 930 736 930 736 672 735 672 737 672 736 672 737 672 738 672 738 931 737 931 739 931 738 931 739 931 740 931 740 932 739 933 741 934 740 935 741 936 742 937 742 85 741 85 743 85 742 85 743 85 744 85 744 938 743 939 745 940 744 941 745 942 746 943 746 944 745 944 747 944 746 944 747 944 748 944 748 679 747 679 749 679 748 679 749 679 750 679 750 945 749 945 751 945 750 945 751 945 752 945 752 946 751 947 753 948 752 949 753 950 754 951 754 952 753 953 755 954 754 955 755 956 756 957 756 958 755 958 757 958 756 958 757 958 758 958 758 959 757 959 692 959 758 959 692 959 691 959 701 193 699 193 739 193 739 193 699 193 697 193 739 193 697 193 741 193 737 193 735 193 705 193 705 193 735 193 733 193 705 960 733 960 731 960 719 193 711 193 721 193 721 961 711 961 709 961 737 962 705 962 739 962 739 963 705 963 703 963 739 964 703 964 701 964 731 193 729 193 705 193 705 965 729 965 727 965 705 966 727 966 725 966 725 967 723 967 705 967 705 968 723 968 721 968 705 193 721 193 707 193 707 193 721 193 709 193 695 193 745 193 697 193 697 969 745 969 743 969 697 193 743 193 741 193 695 193 693 193 745 193 745 970 693 970 692 970 745 971 692 971 757 971 719 193 717 193 711 193 711 193 717 193 715 193 711 972 715 972 713 972 753 973 751 973 749 973 757 193 755 193 745 193 745 974 755 974 753 974 745 193 753 193 747 193 747 193 753 193 749 193 744 86 746 86 708 86 730 86 732 86 708 86 726 975 710 975 712 975 710 86 726 86 708 86 708 976 726 976 728 976 708 977 728 977 730 977 732 86 734 86 708 86 708 978 734 978 736 978 708 979 736 979 738 979 738 980 740 980 708 980 708 981 740 981 742 981 708 86 742 86 744 86 748 86 750 86 698 86 698 86 750 86 752 86 702 86 704 86 746 86 746 86 704 86 706 86 746 86 706 86 708 86 714 86 722 86 712 86 712 982 722 982 724 982 712 983 724 983 726 983 714 86 716 86 722 86 722 86 716 86 718 86 722 86 718 86 720 86 748 86 698 86 746 86 746 86 698 86 700 86 746 984 700 984 702 984 752 86 754 86 698 86 698 86 754 86 756 86 698 985 756 985 758 985 758 86 691 86 698 86 698 986 691 986 694 986 698 987 694 987 696 987</p>
        </triangles>
      </mesh>
    </geometry>
  </library_geometries>
  <library_visual_scenes>
    <visual_scene id="Scene" name="Scene">
      <node id="node" name="node" type="NODE">
        <matrix sid="transform">-0.001 0 -8.74228e-11 -0.005 0 0.001 0 -0.05048 8.74228e-11 0 -0.001 0.0304066 0 0 0 1</matrix>
        <instance_geometry url="#shape0-mesh" name="node"/>
      </node>
    </visual_scene>
  </library_visual_scenes>
  <scene>
    <instance_visual_scene url="#Scene"/>
  </scene>
</COLLADA>