<?xml version="1.0" encoding="utf-8"?>
<COLLADA xmlns="http://www.collada.org/2005/11/COLLADASchema" version="1.4.1" xmlns:xsi="http://www.w3.org/2001/XMLSchema-instance">
  <asset>
    <contributor>
      <author>Blender User</author>
      <authoring_tool>Blender 4.2.0 commit date:2024-07-16, commit time:06:20, hash:a51f293548ad</authoring_tool>
    </contributor>
    <created>2024-07-17T12:13:14</created>
    <modified>2024-07-17T12:13:14</modified>
    <unit name="meter" meter="1"/>
    <up_axis>Z_UP</up_axis>
  </asset>
  <library_effects>
    <effect id="Part__Feature_001-effect">
      <profile_COMMON>
        <technique sid="common">
          <lambert>
            <emission>
              <color sid="emission">0 0 0 1</color>
            </emission>
            <diffuse>
              <color sid="diffuse">0.2746773 0.2746773 0.4286905 1</color>
            </diffuse>
            <index_of_refraction>
              <float sid="ior">1.5</float>
            </index_of_refraction>
          </lambert>
        </technique>
      </profile_COMMON>
    </effect>
    <effect id="Part__Feature_008-effect">
      <profile_COMMON>
        <technique sid="common">
          <lambert>
            <emission>
              <color sid="emission">0 0 0 1</color>
            </emission>
            <diffuse>
              <color sid="diffuse">0.2746773 0.2746773 0.4286905 1</color>
            </diffuse>
            <index_of_refraction>
              <float sid="ior">1.5</float>
            </index_of_refraction>
          </lambert>
        </technique>
      </profile_COMMON>
    </effect>
  </library_effects>
  <library_images/>
  <library_materials>
    <material id="Part__Feature_001-material" name="Part__Feature.001">
      <instance_effect url="#Part__Feature_001-effect"/>
    </material>
    <material id="Part__Feature_008-material" name="Part__Feature.008">
      <instance_effect url="#Part__Feature_008-effect"/>
    </material>
  </library_materials>
  <library_geometries>
    <geometry id="Part__Feature_001-mesh" name="Part__Feature.001">
      <mesh>
        <source id="Part__Feature_001-mesh-positions">
          <float_array id="Part__Feature_001-mesh-positions-array" count="246">0.07500243 0.08588933 0.04903215 0.07125246 0.08588933 0.04903215 0.07500243 0.08588933 -0.04903233 0.07125246 0.08588933 -0.04903233 0.07500243 0.08684933 0.04999989 0.07500243 0.08684933 -0.05000007 0.07050246 0.08684933 0.04999989 0.07050246 0.08684933 -0.05000007 0.07125246 0.08268934 -0.04580646 0.07125246 0.08268934 0.04580628 0.001127362 0.08268934 -0.04580646 0.001127362 0.08268934 0.04580628 0.001127362 0.08364933 0.04999989 0.001127362 0.08364933 0.04645144 2.45869e-6 0.08364933 0.04999989 0.07050246 0.08364933 0.04645144 0.07050246 0.08364933 -0.04645162 0.001127362 0.08364933 -0.04645162 0.001127362 0.08364933 -0.05000007 2.45869e-6 0.08364933 -0.05000007 2.45869e-6 -0.06439065 -0.05000007 2.45869e-6 -0.06439065 0.04999989 0.001127362 -0.06421238 -0.05000007 0.003082752 -0.06855064 -0.05000007 0.001877427 -0.06855064 -0.05000007 0.001127362 -0.06421238 -0.04645162 0.04094201 -0.07815057 -0.04645162 0.01875245 -0.07815057 -0.04645162 0.03937745 -0.07671064 -0.04645162 0.03937745 -0.07247978 -0.04645162 0.07050246 -0.07394647 -0.04645162 0.001877427 -0.06855064 -0.04645162 0.003082752 -0.06855064 -0.04645162 0.07050246 -0.07394647 0.04999989 0.07050246 -0.07394647 0.04645144 0.07050246 -0.07394647 -0.05000007 0.07500243 -0.07655066 -0.05000007 0.04125243 -0.08135068 -0.05000007 0.04094201 -0.07815057 -0.05000007 0.01875245 -0.08235687 -0.05000007 0.01875245 -0.07815057 -0.05000007 0.07500243 -0.07655066 0.04999989 0.07500243 -0.07655066 0.04903215 0.07500243 -0.07655066 -0.04903233 0.01987743 -0.08230656 -0.04903233 0.04125243 -0.08135068 -0.04903233 0.01987743 -0.08038657 -0.04903233 0.04125243 -0.07943058 -0.04903233 0.07125246 -0.07516396 -0.04903233 0.07125246 -0.07516396 0.04903215 0.07125246 -0.07516396 0.04580628 0.07125246 -0.07516396 -0.04580646 0.002684891 -0.06766808 -0.04580646 0.04012739 -0.07159107 -0.04580646 0.001127362 -0.06421238 -0.04580646 0.04012739 -0.07399064 -0.04580646 0.04125243 -0.07399064 -0.04580646 0.04125243 -0.07943058 -0.04580646 0.001127362 -0.06421238 0.04580628 0.04125243 -0.07943058 0.04580628 0.04125243 -0.07399064 0.04580628 0.04012739 -0.07399064 0.04580628 0.04012739 -0.07159107 0.04580628 0.002684891 -0.06766808 0.04580628 0.04125243 -0.08135068 0.04903215 0.04125243 -0.07943058 0.04903215 0.01987743 -0.08038657 0.04903215 0.01987743 -0.08230656 0.04903215 0.01875245 -0.08235687 0.04999989 0.04094201 -0.07815057 0.04999989 0.01875245 -0.07815057 0.04999989 0.04125243 -0.08135068 0.04999989 0.04094201 -0.07815057 0.04645144 0.03937745 -0.07671064 0.04645144 0.01875245 -0.07815057 0.04645144 0.03937745 -0.07247978 0.04645144 0.001127362 -0.06421238 0.04645144 0.001877427 -0.06855064 0.04645144 0.003082752 -0.06855064 0.04645144 0.001127362 -0.06421238 0.04999989 0.001877427 -0.06855064 0.04999989 0.003082752 -0.06855064 0.04999989</float_array>
          <technique_common>
            <accessor source="#Part__Feature_001-mesh-positions-array" count="82" stride="3">
              <param name="X" type="float"/>
              <param name="Y" type="float"/>
              <param name="Z" type="float"/>
            </accessor>
          </technique_common>
        </source>
        <source id="Part__Feature_001-mesh-normals">
          <float_array id="Part__Feature_001-mesh-normals-array" count="210">0 -1 0 0 1 0 -1 0 0 0 0 -1 -3.50605e-6 0 -1 1 0 0 4.39672e-6 0 -1 0 0 -1 0 0 -1 1.9432e-7 0 -1 -1 4.00178e-6 0 2.53319e-6 0 -1 4.0246e-7 0 -1 1 9.89275e-6 0 0 0 1 -5.05246e-7 0 1 2.24562e-7 0 1 3.0578e-6 0 1 -1.62558e-7 0 1 1.33751e-7 0 1 1.89556e-7 0 1 -1.33751e-7 0 -1 1.89556e-7 0 -1 -1.62558e-7 0 -1 -7.5787e-7 0 -1 8.98247e-7 0 -1 1.77282e-7 0 -1 -3.03476e-7 0 1 -2.19836e-6 0 1 0 0 1 0 0 1 -3.8864e-7 0 1 -0.06964516 0.9975718 0 -0.06964522 0.9975718 0 -1 -5.53529e-7 0 -1 2.97906e-7 0 0.04467517 -0.9990016 -1.20176e-5 0.04467481 -0.9990016 0 0.04467934 -0.9990014 0 0.04467952 -0.9990015 0 0.04467499 -0.9990016 1.20176e-5 0.04467999 -0.9990014 0 0.04468005 -0.9990014 0 0.04468005 -0.9990014 0 0.04467999 -0.9990014 0 -0.9116774 -0.4109067 0 -0.9116775 -0.4109066 0 -0.9116774 -0.4109066 0 -0.9116777 -0.4109063 0 0.9116768 0.4109081 0 0.9116762 0.4109093 0 -0.1042065 -0.9945558 0 -0.1042065 -0.9945558 0 0.9116781 0.4109054 0 0.9116781 0.4109054 0 0.1042034 0.994556 0 0.1042034 0.9945561 0 0.1408058 -0.9900373 0 0.1408059 -0.9900373 0 -0.1408038 0.9900376 0 -0.1408033 0.9900376 0 0.1408039 -0.9900375 0 0.1408036 -0.9900376 0 0.1408034 -0.9900376 0 0.1408038 -0.9900376 0 -0.1408037 0.9900376 0 -0.1408038 0.9900376 0 0.9116764 0.4109091 0 0.9116764 0.4109092 0 -3.11285e-6 0 1</float_array>
          <technique_common>
            <accessor source="#Part__Feature_001-mesh-normals-array" count="70" stride="3">
              <param name="X" type="float"/>
              <param name="Y" type="float"/>
              <param name="Z" type="float"/>
            </accessor>
          </technique_common>
        </source>
        <vertices id="Part__Feature_001-mesh-vertices">
          <input semantic="POSITION" source="#Part__Feature_001-mesh-positions"/>
        </vertices>
        <triangles material="Part__Feature_001-material" count="160">
          <input semantic="VERTEX" source="#Part__Feature_001-mesh-vertices" offset="0"/>
          <input semantic="NORMAL" source="#Part__Feature_001-mesh-normals" offset="1"/>
          <p>0 0 1 0 2 0 2 0 1 0 3 0 4 1 5 1 6 1 6 1 5 1 7 1 8 0 9 0 10 0 9 0 11 0 10 0 12 1 13 1 14 1 15 1 16 1 13 1 16 1 17 1 13 1 18 1 19 1 17 1 19 1 14 1 17 1 17 1 14 1 13 1 20 2 21 2 19 2 19 2 21 2 14 2 22 3 23 3 24 3 22 3 24 3 20 3 19 4 22 4 20 4 18 3 22 3 19 3 22 5 18 5 17 5 22 5 17 5 25 5 26 3 27 3 28 3 29 6 26 6 28 6 30 3 26 3 29 3 16 3 25 3 17 3 16 7 29 7 25 7 16 8 30 8 29 8 29 3 31 3 32 3 29 9 32 9 25 9 6 2 16 2 15 2 6 10 7 10 16 10 15 2 33 2 6 2 15 2 34 2 33 2 16 2 35 2 30 2 7 2 35 2 16 2 36 11 35 11 5 11 5 3 35 3 7 3 35 3 37 3 38 3 36 3 37 3 35 3 38 3 39 3 40 3 37 12 39 12 38 12 0 13 2 13 4 13 2 5 5 5 4 5 4 5 41 5 0 5 41 5 42 5 0 5 43 5 36 5 2 5 2 5 36 5 5 5 44 14 45 14 46 14 45 14 47 14 46 14 45 15 48 15 47 15 45 16 43 16 48 16 48 14 2 14 3 14 43 17 2 17 48 17 8 5 1 5 9 5 3 5 1 5 8 5 49 5 9 5 1 5 50 5 9 5 49 5 48 5 8 5 51 5 48 5 3 5 8 5 52 14 53 14 54 14 54 18 53 18 10 18 10 14 53 14 8 14 55 14 56 14 53 14 57 19 51 19 56 19 53 20 51 20 8 20 56 14 51 14 53 14 11 5 58 5 10 5 58 5 54 5 10 5 59 21 60 21 50 21 61 3 62 3 60 3 60 3 62 3 50 3 63 3 58 3 62 3 62 22 9 22 50 22 58 23 11 23 62 23 62 3 11 3 9 3 42 3 49 3 0 3 0 3 49 3 1 3 49 24 64 24 65 24 42 25 64 25 49 25 64 26 66 26 65 26 64 3 67 3 66 3 68 14 69 14 70 14 68 14 71 14 69 14 6 14 33 14 4 14 71 27 33 27 69 27 33 14 41 14 4 14 71 14 41 14 33 14 72 14 73 14 74 14 75 28 73 28 72 28 34 14 75 14 72 14 15 14 13 14 76 14 15 29 76 29 75 29 15 30 75 30 34 30 77 14 75 14 78 14 78 31 75 31 76 31 12 5 79 5 13 5 13 5 79 5 76 5 73 2 75 2 29 2 73 2 29 2 28 2 27 32 73 32 28 32 27 33 74 33 73 33 40 2 39 2 27 2 74 2 68 2 70 2 39 34 68 34 27 34 27 35 68 35 74 35 71 36 68 36 67 36 64 37 71 37 67 37 44 38 68 38 39 38 44 39 67 39 68 39 37 37 45 37 44 37 37 40 44 40 39 40 67 5 44 5 66 5 66 5 44 5 46 5 59 41 65 41 66 41 57 42 66 42 46 42 57 43 59 43 66 43 47 44 57 44 46 44 24 45 31 45 20 45 31 46 21 46 20 46 31 47 77 47 21 47 77 48 80 48 21 48 79 49 81 49 76 49 76 50 81 50 78 50 78 0 81 0 77 0 77 0 81 0 80 0 31 51 29 51 75 51 31 52 75 52 77 52 55 5 53 5 62 5 55 5 62 5 61 5 60 1 55 1 61 1 60 1 56 1 55 1 58 53 63 53 54 53 54 54 63 54 52 54 62 55 53 55 63 55 53 56 52 56 63 56 72 1 74 1 69 1 69 1 74 1 70 1 57 5 56 5 60 5 57 5 60 5 59 5 71 57 64 57 41 57 41 58 64 58 42 58 69 59 33 59 72 59 33 60 34 60 72 60 50 61 49 61 65 61 50 62 65 62 59 62 43 58 45 58 36 58 45 57 37 57 36 57 48 63 51 63 57 63 48 64 57 64 47 64 38 1 40 1 27 1 26 1 38 1 27 1 38 65 26 65 30 65 38 66 30 66 35 66 32 67 23 67 22 67 32 68 22 68 25 68 23 0 32 0 24 0 24 0 32 0 31 0 79 14 21 14 80 14 79 14 80 14 81 14 14 69 21 69 79 69 12 14 14 14 79 14</p>
        </triangles>
      </mesh>
    </geometry>
    <geometry id="Part__Feature_008-mesh" name="Part__Feature.008">
      <mesh>
        <source id="Part__Feature_008-mesh-positions">
          <float_array id="Part__Feature_008-mesh-positions-array" count="246">0.07500243 0.08588933 0.04903215 0.07125246 0.08588933 0.04903215 0.07500243 0.08588933 -0.04903233 0.07125246 0.08588933 -0.04903233 0.07500243 0.08684933 0.04999989 0.07500243 0.08684933 -0.05000007 0.07050246 0.08684933 0.04999989 0.07050246 0.08684933 -0.05000007 0.07125246 0.08268934 -0.04580646 0.07125246 0.08268934 0.04580628 0.001127362 0.08268934 -0.04580646 0.001127362 0.08268934 0.04580628 0.001127362 0.08364933 0.04999989 0.001127362 0.08364933 0.04645144 2.45869e-6 0.08364933 0.04999989 0.07050246 0.08364933 0.04645144 0.07050246 0.08364933 -0.04645162 0.001127362 0.08364933 -0.04645162 0.001127362 0.08364933 -0.05000007 2.45869e-6 0.08364933 -0.05000007 2.45869e-6 -0.06439065 -0.05000007 2.45869e-6 -0.06439065 0.04999989 0.001127362 -0.06421238 -0.05000007 0.003082752 -0.06855064 -0.05000007 0.001877427 -0.06855064 -0.05000007 0.001127362 -0.06421238 -0.04645162 0.04094201 -0.07815057 -0.04645162 0.01875245 -0.07815057 -0.04645162 0.03937745 -0.07671064 -0.04645162 0.03937745 -0.07247978 -0.04645162 0.07050246 -0.07394647 -0.04645162 0.001877427 -0.06855064 -0.04645162 0.003082752 -0.06855064 -0.04645162 0.07050246 -0.07394647 0.04999989 0.07050246 -0.07394647 0.04645144 0.07050246 -0.07394647 -0.05000007 0.07500243 -0.07655066 -0.05000007 0.04125243 -0.08135068 -0.05000007 0.04094201 -0.07815057 -0.05000007 0.01875245 -0.08235687 -0.05000007 0.01875245 -0.07815057 -0.05000007 0.07500243 -0.07655066 0.04999989 0.07500243 -0.07655066 0.04903215 0.07500243 -0.07655066 -0.04903233 0.01987743 -0.08230656 -0.04903233 0.04125243 -0.08135068 -0.04903233 0.01987743 -0.08038657 -0.04903233 0.04125243 -0.07943058 -0.04903233 0.07125246 -0.07516396 -0.04903233 0.07125246 -0.07516396 0.04903215 0.07125246 -0.07516396 0.04580628 0.07125246 -0.07516396 -0.04580646 0.002684891 -0.06766808 -0.04580646 0.04012739 -0.07159107 -0.04580646 0.001127362 -0.06421238 -0.04580646 0.04012739 -0.07399064 -0.04580646 0.04125243 -0.07399064 -0.04580646 0.04125243 -0.07943058 -0.04580646 0.001127362 -0.06421238 0.04580628 0.04125243 -0.07943058 0.04580628 0.04125243 -0.07399064 0.04580628 0.04012739 -0.07399064 0.04580628 0.04012739 -0.07159107 0.04580628 0.002684891 -0.06766808 0.04580628 0.04125243 -0.08135068 0.04903215 0.04125243 -0.07943058 0.04903215 0.01987743 -0.08038657 0.04903215 0.01987743 -0.08230656 0.04903215 0.01875245 -0.08235687 0.04999989 0.04094201 -0.07815057 0.04999989 0.01875245 -0.07815057 0.04999989 0.04125243 -0.08135068 0.04999989 0.04094201 -0.07815057 0.04645144 0.03937745 -0.07671064 0.04645144 0.01875245 -0.07815057 0.04645144 0.03937745 -0.07247978 0.04645144 0.001127362 -0.06421238 0.04645144 0.001877427 -0.06855064 0.04645144 0.003082752 -0.06855064 0.04645144 0.001127362 -0.06421238 0.04999989 0.001877427 -0.06855064 0.04999989 0.003082752 -0.06855064 0.04999989</float_array>
          <technique_common>
            <accessor source="#Part__Feature_008-mesh-positions-array" count="82" stride="3">
              <param name="X" type="float"/>
              <param name="Y" type="float"/>
              <param name="Z" type="float"/>
            </accessor>
          </technique_common>
        </source>
        <source id="Part__Feature_008-mesh-normals">
          <float_array id="Part__Feature_008-mesh-normals-array" count="210">0 -1 0 0 1 0 -1 0 0 0 0 -1 -3.50605e-6 0 -1 1 0 0 4.39672e-6 0 -1 0 0 -1 0 0 -1 1.9432e-7 0 -1 -1 4.00178e-6 0 2.53319e-6 0 -1 4.0246e-7 0 -1 1 9.89275e-6 0 0 0 1 -5.05246e-7 0 1 2.24562e-7 0 1 3.0578e-6 0 1 -1.62558e-7 0 1 1.33751e-7 0 1 1.89556e-7 0 1 -1.33751e-7 0 -1 1.89556e-7 0 -1 -1.62558e-7 0 -1 -7.5787e-7 0 -1 8.98247e-7 0 -1 1.77282e-7 0 -1 -3.03476e-7 0 1 -2.19836e-6 0 1 0 0 1 0 0 1 -3.8864e-7 0 1 -0.06964516 0.9975718 0 -0.06964522 0.9975718 0 -1 -5.53529e-7 0 -1 2.97906e-7 0 0.04467517 -0.9990016 -1.20176e-5 0.04467481 -0.9990016 0 0.04467934 -0.9990014 0 0.04467952 -0.9990015 0 0.04467499 -0.9990016 1.20176e-5 0.04467999 -0.9990014 0 0.04468005 -0.9990014 0 0.04468005 -0.9990014 0 0.04467999 -0.9990014 0 -0.9116774 -0.4109067 0 -0.9116775 -0.4109066 0 -0.9116774 -0.4109066 0 -0.9116777 -0.4109063 0 0.9116768 0.4109081 0 0.9116762 0.4109093 0 -0.1042065 -0.9945558 0 -0.1042065 -0.9945558 0 0.9116781 0.4109054 0 0.9116781 0.4109054 0 0.1042034 0.994556 0 0.1042034 0.9945561 0 0.1408058 -0.9900373 0 0.1408059 -0.9900373 0 -0.1408038 0.9900376 0 -0.1408033 0.9900376 0 0.1408039 -0.9900375 0 0.1408036 -0.9900376 0 0.1408034 -0.9900376 0 0.1408038 -0.9900376 0 -0.1408037 0.9900376 0 -0.1408038 0.9900376 0 0.9116764 0.4109091 0 0.9116764 0.4109092 0 -3.11285e-6 0 1</float_array>
          <technique_common>
            <accessor source="#Part__Feature_008-mesh-normals-array" count="70" stride="3">
              <param name="X" type="float"/>
              <param name="Y" type="float"/>
              <param name="Z" type="float"/>
            </accessor>
          </technique_common>
        </source>
        <vertices id="Part__Feature_008-mesh-vertices">
          <input semantic="POSITION" source="#Part__Feature_008-mesh-positions"/>
        </vertices>
        <triangles material="Part__Feature_008-material" count="160">
          <input semantic="VERTEX" source="#Part__Feature_008-mesh-vertices" offset="0"/>
          <input semantic="NORMAL" source="#Part__Feature_008-mesh-normals" offset="1"/>
          <p>0 0 1 0 2 0 2 0 1 0 3 0 4 1 5 1 6 1 6 1 5 1 7 1 8 0 9 0 10 0 9 0 11 0 10 0 12 1 13 1 14 1 15 1 16 1 13 1 16 1 17 1 13 1 18 1 19 1 17 1 19 1 14 1 17 1 17 1 14 1 13 1 20 2 21 2 19 2 19 2 21 2 14 2 22 3 23 3 24 3 22 3 24 3 20 3 19 4 22 4 20 4 18 3 22 3 19 3 22 5 18 5 17 5 22 5 17 5 25 5 26 3 27 3 28 3 29 6 26 6 28 6 30 3 26 3 29 3 16 3 25 3 17 3 16 7 29 7 25 7 16 8 30 8 29 8 29 3 31 3 32 3 29 9 32 9 25 9 6 2 16 2 15 2 6 10 7 10 16 10 15 2 33 2 6 2 15 2 34 2 33 2 16 2 35 2 30 2 7 2 35 2 16 2 36 11 35 11 5 11 5 3 35 3 7 3 35 3 37 3 38 3 36 3 37 3 35 3 38 3 39 3 40 3 37 12 39 12 38 12 0 13 2 13 4 13 2 5 5 5 4 5 4 5 41 5 0 5 41 5 42 5 0 5 43 5 36 5 2 5 2 5 36 5 5 5 44 14 45 14 46 14 45 14 47 14 46 14 45 15 48 15 47 15 45 16 43 16 48 16 48 14 2 14 3 14 43 17 2 17 48 17 8 5 1 5 9 5 3 5 1 5 8 5 49 5 9 5 1 5 50 5 9 5 49 5 48 5 8 5 51 5 48 5 3 5 8 5 52 14 53 14 54 14 54 18 53 18 10 18 10 14 53 14 8 14 55 14 56 14 53 14 57 19 51 19 56 19 53 20 51 20 8 20 56 14 51 14 53 14 11 5 58 5 10 5 58 5 54 5 10 5 59 21 60 21 50 21 61 3 62 3 60 3 60 3 62 3 50 3 63 3 58 3 62 3 62 22 9 22 50 22 58 23 11 23 62 23 62 3 11 3 9 3 42 3 49 3 0 3 0 3 49 3 1 3 49 24 64 24 65 24 42 25 64 25 49 25 64 26 66 26 65 26 64 3 67 3 66 3 68 14 69 14 70 14 68 14 71 14 69 14 6 14 33 14 4 14 71 27 33 27 69 27 33 14 41 14 4 14 71 14 41 14 33 14 72 14 73 14 74 14 75 28 73 28 72 28 34 14 75 14 72 14 15 14 13 14 76 14 15 29 76 29 75 29 15 30 75 30 34 30 77 14 75 14 78 14 78 31 75 31 76 31 12 5 79 5 13 5 13 5 79 5 76 5 73 2 75 2 29 2 73 2 29 2 28 2 27 32 73 32 28 32 27 33 74 33 73 33 40 2 39 2 27 2 74 2 68 2 70 2 39 34 68 34 27 34 27 35 68 35 74 35 71 36 68 36 67 36 64 37 71 37 67 37 44 38 68 38 39 38 44 39 67 39 68 39 37 37 45 37 44 37 37 40 44 40 39 40 67 5 44 5 66 5 66 5 44 5 46 5 59 41 65 41 66 41 57 42 66 42 46 42 57 43 59 43 66 43 47 44 57 44 46 44 24 45 31 45 20 45 31 46 21 46 20 46 31 47 77 47 21 47 77 48 80 48 21 48 79 49 81 49 76 49 76 50 81 50 78 50 78 0 81 0 77 0 77 0 81 0 80 0 31 51 29 51 75 51 31 52 75 52 77 52 55 5 53 5 62 5 55 5 62 5 61 5 60 1 55 1 61 1 60 1 56 1 55 1 58 53 63 53 54 53 54 54 63 54 52 54 62 55 53 55 63 55 53 56 52 56 63 56 72 1 74 1 69 1 69 1 74 1 70 1 57 5 56 5 60 5 57 5 60 5 59 5 71 57 64 57 41 57 41 58 64 58 42 58 69 59 33 59 72 59 33 60 34 60 72 60 50 61 49 61 65 61 50 62 65 62 59 62 43 58 45 58 36 58 45 57 37 57 36 57 48 63 51 63 57 63 48 64 57 64 47 64 38 1 40 1 27 1 26 1 38 1 27 1 38 65 26 65 30 65 38 66 30 66 35 66 32 67 23 67 22 67 32 68 22 68 25 68 23 0 32 0 24 0 24 0 32 0 31 0 79 14 21 14 80 14 79 14 80 14 81 14 14 69 21 69 79 69 12 14 14 14 79 14</p>
        </triangles>
      </mesh>
    </geometry>
  </library_geometries>
  <library_visual_scenes>
    <visual_scene id="Scene" name="Scene">
      <node id="node0_001" name="node0.001" type="NODE">
        <matrix sid="transform">7.54979e-8 0 -1 1.803 0 1 0 -0.208 1 0 7.54979e-8 0.119 0 0 0 1</matrix>
        <instance_geometry url="#Part__Feature_001-mesh" name="node0.001">
          <bind_material>
            <technique_common>
              <instance_material symbol="Part__Feature_001-material" target="#Part__Feature_001-material"/>
            </technique_common>
          </bind_material>
        </instance_geometry>
      </node>
      <node id="node0" name="node0" type="NODE">
        <matrix sid="transform">7.54979e-8 0 -1 1.903 0 1 0 -0.208 1 0 7.54979e-8 0.119 0 0 0 1</matrix>
        <instance_geometry url="#Part__Feature_008-mesh" name="node0">
          <bind_material>
            <technique_common>
              <instance_material symbol="Part__Feature_008-material" target="#Part__Feature_008-material"/>
            </technique_common>
          </bind_material>
        </instance_geometry>
      </node>
    </visual_scene>
  </library_visual_scenes>
  <scene>
    <instance_visual_scene url="#Scene"/>
  </scene>
</COLLADA>