<?xml version="1.0" encoding="utf-8"?>
<COLLADA xmlns="http://www.collada.org/2005/11/COLLADASchema" version="1.4.1" xmlns:xsi="http://www.w3.org/2001/XMLSchema-instance">
  <asset>
    <contributor>
      <author>Blender User</author>
      <authoring_tool>Blender 4.0.2 commit date:2023-12-05, commit time:07:41, hash:9be62e85b727</authoring_tool>
    </contributor>
    <created>2024-01-29T11:26:37</created>
    <modified>2024-01-29T11:26:37</modified>
    <unit name="meter" meter="1"/>
    <up_axis>Z_UP</up_axis>
  </asset>
  <library_effects>
    <effect id="Material_001-effect">
      <profile_COMMON>
        <technique sid="common">
          <lambert>
            <emission>
              <color sid="emission">0 0 0 1</color>
            </emission>
            <diffuse>
              <color sid="diffuse">0.8020487 0.1233479 0.02902633 1</color>
            </diffuse>
            <reflectivity>
              <float sid="specular">0.5</float>
            </reflectivity>
          </lambert>
        </technique>
      </profile_COMMON>
    </effect>
  </library_effects>
  <library_images/>
  <library_materials>
    <material id="Material_001-material" name="Material.001">
      <instance_effect url="#Material_001-effect"/>
    </material>
  </library_materials>
  <library_geometries>
    <geometry id="shape0-mesh" name="shape0">
      <mesh>
        <source id="shape0-mesh-positions">
          <float_array id="shape0-mesh-positions-array" count="450">54.802 4.664303 60 55 3.8147e-6 60 55 3.8147e-6 0 54.802 -4.664299 0 54.802 -4.664299 60 53.22501 -13.8588 60 53.22501 -13.8588 0 50.11801 -22.6546 60 50.11801 -22.6546 0 45.56801 -30.7986 60 45.56801 -30.7986 0 39.7076 -38.05659 60 39.7076 -38.05659 0 32.7048 -44.21979 60 32.7048 -44.21979 0 24.7612 -49.11091 60 24.7612 -49.11091 0 16.10531 -52.58916 60 16.10531 -52.58916 0 6.986008 -54.55452 60 6.986008 -54.55452 0 -2.334297 -54.95044 60 -2.334297 -54.95044 0 -11.5874 -53.76554 60 -11.5874 -53.76554 0 -20.5071 -51.0339 60 -20.5071 -51.0339 0 -28.8369 -46.83409 60 -28.8369 -46.83409 0 -36.3371 -41.28699 60 -36.3371 -41.28699 0 -42.79199 -34.5521 60 -42.79199 -34.5521 0 -48.01578 -26.8232 60 -48.01578 -26.8232 0 -51.85826 -18.3227 60 -51.85826 -18.3227 0 -54.20887 -9.294995 60 -54.20887 -9.294995 0 -55 3.8147e-6 60 -55 3.8147e-6 0 -54.20887 9.29501 60 -54.20887 9.29501 0 -51.85826 18.32271 60 -51.85826 18.32271 0 -48.01578 26.8232 60 -48.01578 26.8232 0 -42.79199 34.5521 60 -42.79199 34.5521 0 -36.3371 41.28701 60 -36.3371 41.28701 0 -28.8369 46.83401 60 -28.8369 46.83401 0 -20.5071 51.03401 60 -20.5071 51.03401 0 -11.5874 53.76601 60 -11.5874 53.76601 0 -2.334297 54.95 60 -2.334297 54.95 0 6.986008 54.55501 60 6.986008 54.55501 0 16.10531 52.58901 60 16.10531 52.58901 0 24.7612 49.11101 60 24.7612 49.11101 0 32.7048 44.2198 60 32.7048 44.2198 0 39.7076 38.0566 60 39.7076 38.0566 0 45.56801 30.7986 60 45.56801 30.7986 0 50.11801 22.6546 60 50.11801 22.6546 0 53.22501 13.8588 60 53.22501 13.8588 0 54.802 4.664303 0 50 3.8147e-6 60 49.24 8.682404 60 46.98501 17.10101 60 43.3013 25 60 38.3022 32.1394 60 32.1394 38.3022 60 25 43.3013 60 17.10101 46.98501 60 8.682404 49.24 60 3.8147e-6 50 60 -8.682396 49.24 60 -17.10099 46.98501 60 -25 43.3013 60 -32.1394 38.3022 60 -38.3022 32.1394 60 -43.3013 25 60 -46.98463 17.10101 60 -49.24039 8.682404 60 -50 3.8147e-6 60 -49.24039 -8.682396 60 -46.98463 -17.10099 60 -43.3013 -25 60 -38.3022 -32.1394 60 -32.1394 -38.3022 60 -25 -43.3013 60 -17.10099 -46.98463 60 -8.682396 -49.24039 60 3.8147e-6 -50 60 8.682404 -49.24039 60 17.10101 -46.98463 60 25 -43.3013 60 32.1394 -38.3022 60 38.3022 -32.1394 60 43.3013 -25 60 46.98501 -17.10099 60 49.24 -8.682396 60 3.8147e-6 3.8147e-6 0 50 3.8147e-6 10 49.24 8.682404 10 46.98501 17.10101 10 43.3013 25 10 38.3022 32.1394 10 32.1394 38.3022 10 25 43.3013 10 17.10101 46.98501 10 8.682404 49.24 10 3.8147e-6 50 10 -8.682396 49.24 10 -17.10099 46.98501 10 -25 43.3013 10 -32.1394 38.3022 10 -38.3022 32.1394 10 -43.3013 25 10 -46.98463 17.10101 10 -49.24039 8.682404 10 -50 3.8147e-6 10 -49.24039 -8.682396 10 -46.98463 -17.10099 10 -43.3013 -25 10 -38.3022 -32.1394 10 -32.1394 -38.3022 10 -25 -43.3013 10 -17.10099 -46.98463 10 -8.682396 -49.24039 10 3.8147e-6 -50 10 8.682404 -49.24039 10 17.10101 -46.98463 10 25 -43.3013 10 32.1394 -38.3022 10 38.3022 -32.1394 10 43.3013 -25 10 46.98501 -17.10099 10 49.24 -8.682396 10 3.8147e-6 3.8147e-6 10</float_array>
          <technique_common>
            <accessor source="#shape0-mesh-positions-array" count="150" stride="3">
              <param name="X" type="float"/>
              <param name="Y" type="float"/>
              <param name="Z" type="float"/>
            </accessor>
          </technique_common>
        </source>
        <source id="shape0-mesh-normals">
          <float_array id="shape0-mesh-normals-array" count="486">0.9991002 0.04241144 0 0.9991003 -0.04241144 0 0.9856082 -0.1690465 0 0.9856081 -0.1690473 0 0.9429029 -0.3330678 0 0.8729918 -0.4877349 0 0.8729922 -0.4877343 0 0.7780362 -0.6282196 0 0.7780366 -0.628219 0 0.6606724 -0.7506743 0 0.6606722 -0.7506746 0 0.5243116 -0.8515265 0 0.3728585 -0.9278883 0 0.3728586 -0.9278882 0 0.2106792 -0.9775553 0 0.04244059 -0.9990991 0 -0.1270174 -0.9919005 0 -0.1270174 -0.9919005 0 -0.292824 -0.9561663 0 -0.4502042 -0.8929257 0 -0.5946319 -0.8039982 0 -0.7219554 -0.6919397 0 -0.7219545 -0.6919406 0 -0.828512 -0.5599714 0 -0.8285116 -0.5599721 0 -0.911228 -0.4119024 0 -0.9112284 -0.4119017 0 -0.9677336 -0.251976 0 -0.9677334 -0.2519769 0 -0.9963976 -0.08480596 0 -0.9963974 -0.08480679 0 -0.9963974 0.08480674 0 -0.9963976 0.0848059 0 -0.9677333 0.251977 0 -0.9677335 0.2519762 0 -0.9112282 0.4119018 0 -0.911228 0.4119025 0 -0.8285117 0.5599719 0 -0.8285121 0.5599713 0 -0.7219547 0.6919404 0 -0.7219555 0.6919395 0 -0.5946253 0.804003 0 -0.4502208 0.8929173 0 -0.2928596 0.9561555 0 -0.1269212 0.9919129 0 -0.1269212 0.9919129 0 0.04234141 0.9991033 0 0.2107453 0.977541 0 0.3728353 0.9278975 0 0.3728353 0.9278976 0 0.5243188 0.8515222 0 0.6606722 0.7506746 0 0.6606724 0.7506743 0 0.7780364 0.6282191 0 0.7780361 0.6282197 0 0.8729923 0.487734 0 0.8729919 0.4877346 0 0.9429029 0.3330678 0 0.9856079 0.1690474 0 0.9856082 0.1690465 0 0 0 1 -6.74604e-7 0 1 -1.34971e-6 0 1 1.33229e-6 0 1 -1.32796e-6 0 1 1.32332e-6 0 1 1.42696e-6 0 1 -7.17406e-7 0 1 -6.31855e-7 0 1 7.35439e-7 0 1 -6.28284e-7 0 1 -6.24621e-7 0 1 1.4919e-6 0 1 -6.20875e-7 0 1 -1.23411e-6 0 1 1.22628e-6 0 1 -3.08147e-6 0 1 2.38724e-6 0 1 -3.1679e-6 0 1 2.36995e-6 0 1 0 0 -1 -0.9961909 -0.08719998 0 -0.9961907 -0.08720105 0 -0.9659479 -0.2587368 0 -0.9659479 -0.2587368 0 -0.906293 -0.4226503 0 -0.9062924 -0.4226512 0 -0.8191499 -0.5735797 0 -0.8191501 -0.5735793 0 -0.7071068 -0.7071068 0 -0.7071066 -0.707107 0 -0.5735797 -0.8191498 0 -0.4226509 -0.9062926 0 -0.4226509 -0.9062926 0 -0.2587367 -0.9659479 0 -0.08720022 -0.9961909 0 0.08720022 -0.9961909 0 0.08720016 -0.9961909 0 0.2587369 -0.9659479 0 0.258737 -0.9659479 0 0.4226505 -0.9062928 0 0.4226508 -0.9062926 0 0.5735791 -0.8191502 0 0.5735794 -0.81915 0 0.7071071 -0.7071065 0 0.7071068 -0.7071067 0 0.8191501 -0.5735794 0 0.8191501 -0.5735793 0 0.9063093 -0.4226153 0 0.9063088 -0.4226163 0 0.9659261 -0.2588183 0 0.9659258 -0.2588194 0 0.9961947 -0.08715659 0 0.9961949 -0.08715438 0 0.9961948 0.08715438 0 0.9961947 0.08715659 0 0.9659257 0.2588196 0 0.965926 0.2588185 0 0.906309 0.4226158 0 0.9063094 0.422615 0 0.8191502 0.5735791 0 0.8191502 0.5735791 0 0.7071067 0.707107 0 0.707107 0.7071067 0 0.5735794 0.81915 0 0.5735791 0.8191502 0 0.4226151 0.9063093 0 0.4226149 0.9063094 0 0.2588195 0.9659258 0 0.2588194 0.9659258 0 0.08715546 0.9961948 0 0.08715546 0.9961947 0 -0.08715546 0.9961947 0 -0.2588192 0.9659259 0 -0.4226152 0.9063093 0 -0.4226154 0.9063092 0 -0.5735797 0.8191498 0 -0.7071064 0.7071072 0 -0.7071067 0.707107 0 -0.8191502 0.5735791 0 -0.81915 0.5735795 0 -0.9062927 0.4226509 0 -0.9062931 0.42265 0 -0.9659479 0.258737 0 -0.9961908 0.08720105 0 -0.9961909 0.08719998 0 0 0 1 0 0 1 1.40595e-7 0 1 0 0 1 0 0 1 0 0 1 0 0 1 0 0 1 1.40598e-7 0 1 0 0 1 -1.40598e-7 0 1 0 0 1 0 0 1 -1.40596e-7 0 1 0 0 1 0 0 1</float_array>
          <technique_common>
            <accessor source="#shape0-mesh-normals-array" count="162" stride="3">
              <param name="X" type="float"/>
              <param name="Y" type="float"/>
              <param name="Z" type="float"/>
            </accessor>
          </technique_common>
        </source>
        <vertices id="shape0-mesh-vertices">
          <input semantic="POSITION" source="#shape0-mesh-positions"/>
        </vertices>
        <triangles material="Material_001-material" count="296">
          <input semantic="VERTEX" source="#shape0-mesh-vertices" offset="0"/>
          <input semantic="NORMAL" source="#shape0-mesh-normals" offset="1"/>
          <p>0 0 1 0 2 0 2 1 1 1 3 1 1 1 4 1 3 1 3 2 4 2 5 2 3 3 5 3 6 3 6 4 5 4 7 4 6 4 7 4 8 4 8 5 7 5 9 5 8 6 9 6 10 6 10 7 9 7 11 7 10 8 11 8 12 8 12 9 11 9 13 9 12 10 13 10 14 10 14 11 13 11 15 11 14 11 15 11 16 11 16 12 15 12 17 12 16 13 17 13 18 13 18 14 17 14 19 14 18 14 19 14 20 14 20 15 19 15 21 15 20 15 21 15 22 15 22 16 21 16 23 16 22 17 23 17 24 17 24 18 23 18 25 18 24 18 25 18 26 18 26 19 25 19 27 19 26 19 27 19 28 19 28 20 27 20 29 20 28 20 29 20 30 20 30 21 29 21 31 21 30 22 31 22 32 22 32 23 31 23 33 23 32 24 33 24 34 24 34 25 33 25 35 25 34 26 35 26 36 26 36 27 35 27 37 27 36 28 37 28 38 28 38 29 37 29 39 29 38 30 39 30 40 30 40 31 39 31 41 31 40 32 41 32 42 32 42 33 41 33 43 33 42 34 43 34 44 34 44 35 43 35 45 35 44 36 45 36 46 36 46 37 45 37 47 37 46 38 47 38 48 38 48 39 47 39 49 39 48 40 49 40 50 40 50 41 49 41 51 41 50 41 51 41 52 41 52 42 51 42 53 42 52 42 53 42 54 42 54 43 53 43 55 43 54 43 55 43 56 43 56 44 55 44 57 44 56 45 57 45 58 45 58 46 57 46 59 46 58 46 59 46 60 46 60 47 59 47 61 47 60 47 61 47 62 47 62 48 61 48 63 48 62 49 63 49 64 49 64 50 63 50 65 50 64 50 65 50 66 50 66 51 65 51 67 51 66 52 67 52 68 52 68 53 67 53 69 53 68 54 69 54 70 54 70 55 69 55 71 55 70 56 71 56 72 56 72 57 71 57 73 57 72 57 73 57 74 57 74 58 73 58 0 58 74 59 0 59 75 59 75 0 0 0 2 0 4 60 1 60 76 60 76 60 1 60 0 60 76 61 0 61 77 61 77 60 0 60 73 60 77 62 73 62 78 62 78 60 73 60 71 60 78 60 71 60 79 60 79 60 71 60 69 60 79 60 69 60 80 60 80 60 69 60 67 60 80 60 67 60 81 60 81 60 67 60 65 60 81 60 65 60 82 60 82 60 65 60 63 60 82 60 63 60 83 60 83 60 63 60 61 60 83 60 61 60 84 60 84 60 61 60 59 60 84 60 59 60 85 60 85 60 59 60 57 60 85 60 57 60 86 60 86 60 57 60 55 60 86 60 55 60 87 60 87 60 55 60 53 60 87 60 53 60 88 60 88 60 53 60 51 60 88 60 51 60 89 60 89 60 51 60 49 60 89 60 49 60 90 60 90 63 49 63 47 63 90 60 47 60 91 60 91 64 47 64 45 64 91 60 45 60 92 60 92 65 45 65 43 65 92 60 43 60 93 60 93 60 43 60 41 60 93 60 41 60 94 60 94 60 41 60 39 60 94 60 39 60 95 60 95 60 39 60 37 60 95 60 37 60 96 60 96 60 37 60 35 60 96 60 35 60 97 60 97 60 35 60 33 60 97 66 33 66 98 66 98 60 33 60 31 60 98 67 31 67 99 67 99 60 31 60 29 60 99 60 29 60 100 60 100 60 29 60 27 60 100 60 27 60 101 60 101 60 27 60 25 60 101 60 25 60 102 60 102 68 25 68 23 68 102 69 23 69 103 69 103 70 23 70 21 70 103 60 21 60 104 60 104 71 21 71 19 71 104 72 19 72 105 72 105 73 19 73 17 73 105 60 17 60 106 60 106 74 17 74 15 74 106 60 15 60 107 60 107 75 15 75 13 75 107 60 13 60 108 60 108 60 13 60 11 60 108 76 11 76 109 76 109 60 11 60 9 60 109 60 9 60 110 60 110 60 9 60 7 60 110 60 7 60 111 60 111 77 7 77 5 77 111 78 5 78 76 78 76 79 5 79 4 79 2 80 3 80 112 80 2 80 112 80 75 80 70 80 72 80 112 80 112 80 72 80 74 80 112 80 74 80 75 80 64 80 66 80 112 80 112 80 66 80 68 80 112 80 68 80 70 80 58 80 60 80 112 80 112 80 60 80 62 80 112 80 62 80 64 80 52 80 54 80 112 80 112 80 54 80 56 80 112 80 56 80 58 80 46 80 48 80 112 80 112 80 48 80 50 80 112 80 50 80 52 80 40 80 42 80 112 80 112 80 42 80 44 80 112 80 44 80 46 80 34 80 36 80 112 80 112 80 36 80 38 80 112 80 38 80 40 80 28 80 30 80 112 80 112 80 30 80 32 80 112 80 32 80 34 80 22 80 24 80 112 80 112 80 24 80 26 80 112 80 26 80 28 80 16 80 18 80 112 80 112 80 18 80 20 80 112 80 20 80 22 80 10 80 12 80 112 80 112 80 12 80 14 80 112 80 14 80 16 80 3 80 6 80 112 80 112 80 6 80 8 80 112 80 8 80 10 80 113 81 76 81 114 81 114 82 76 82 77 82 114 83 77 83 115 83 115 84 77 84 78 84 115 85 78 85 116 85 116 86 78 86 79 86 116 87 79 87 117 87 117 88 79 88 80 88 117 89 80 89 118 89 118 90 80 90 81 90 118 91 81 91 119 91 119 91 81 91 82 91 119 92 82 92 120 92 120 93 82 93 83 93 120 94 83 94 121 94 121 94 83 94 84 94 121 95 84 95 122 95 122 95 84 95 85 95 122 96 85 96 123 96 123 97 85 97 86 97 123 98 86 98 124 98 124 99 86 99 87 99 124 100 87 100 125 100 125 101 87 101 88 101 125 102 88 102 126 102 126 103 88 103 89 103 126 104 89 104 127 104 127 105 89 105 90 105 127 106 90 106 128 106 128 107 90 107 91 107 128 108 91 108 129 108 129 109 91 109 92 109 129 110 92 110 130 110 130 111 92 111 93 111 130 112 93 112 131 112 131 113 93 113 94 113 131 114 94 114 132 114 132 115 94 115 95 115 132 116 95 116 133 116 133 117 95 117 96 117 133 118 96 118 134 118 134 119 96 119 97 119 134 120 97 120 135 120 135 121 97 121 98 121 135 122 98 122 136 122 136 123 98 123 99 123 136 124 99 124 137 124 137 125 99 125 100 125 137 126 100 126 138 126 138 127 100 127 101 127 138 128 101 128 139 128 139 129 101 129 102 129 139 130 102 130 140 130 140 131 102 131 103 131 140 132 103 132 141 132 141 132 103 132 104 132 141 133 104 133 142 133 142 133 104 133 105 133 142 134 105 134 143 134 143 135 105 135 106 135 143 136 106 136 144 136 144 136 106 136 107 136 144 137 107 137 145 137 145 138 107 138 108 138 145 139 108 139 146 139 146 140 108 140 109 140 146 141 109 141 147 141 147 142 109 142 110 142 147 143 110 143 148 143 148 143 110 143 111 143 148 144 111 144 113 144 113 145 111 145 76 145 147 60 148 60 149 60 149 60 148 60 113 60 149 60 113 60 114 60 144 60 145 60 149 60 149 146 145 146 146 146 149 60 146 60 147 60 141 60 142 60 149 60 149 147 142 147 143 147 149 60 143 60 144 60 138 148 139 148 149 148 149 149 139 149 140 149 149 150 140 150 141 150 135 60 136 60 149 60 149 60 136 60 137 60 149 151 137 151 138 151 132 60 133 60 149 60 149 60 133 60 134 60 149 152 134 152 135 152 129 60 130 60 149 60 149 60 130 60 131 60 149 60 131 60 132 60 126 60 127 60 149 60 149 153 127 153 128 153 149 60 128 60 129 60 123 154 124 154 149 154 149 155 124 155 125 155 149 60 125 60 126 60 120 156 121 156 149 156 149 157 121 157 122 157 149 158 122 158 123 158 117 159 118 159 149 159 149 60 118 60 119 60 149 160 119 160 120 160 114 60 115 60 149 60 149 60 115 60 116 60 149 161 116 161 117 161</p>
        </triangles>
      </mesh>
    </geometry>
  </library_geometries>
  <library_visual_scenes>
    <visual_scene id="Scene" name="Scene">
      <node id="node" name="node" type="NODE">
        <matrix sid="transform">0.001 0 0 0 0 0.001 0 0 0 0 0.001 0 0 0 0 1</matrix>
        <instance_geometry url="#shape0-mesh" name="node">
          <bind_material>
            <technique_common>
              <instance_material symbol="Material_001-material" target="#Material_001-material"/>
            </technique_common>
          </bind_material>
        </instance_geometry>
      </node>
    </visual_scene>
  </library_visual_scenes>
  <scene>
    <instance_visual_scene url="#Scene"/>
  </scene>
</COLLADA>