<?xml version="1.0" encoding="utf-8"?>
<COLLADA xmlns="http://www.collada.org/2005/11/COLLADASchema" version="1.4.1" xmlns:xsi="http://www.w3.org/2001/XMLSchema-instance">
  <asset>
    <contributor>
      <author>Blender User</author>
      <authoring_tool>Blender 4.2.2 LTS commit date:2024-09-23, commit time:12:18, hash:c03d7d98a413</authoring_tool>
    </contributor>
    <created>2024-10-08T11:10:26</created>
    <modified>2024-10-08T11:10:26</modified>
    <unit name="meter" meter="1"/>
    <up_axis>Z_UP</up_axis>
  </asset>
  <library_effects>
    <effect id="BLUE_001-effect">
      <profile_COMMON>
        <technique sid="common">
          <lambert>
            <emission>
              <color sid="emission">0 0 0 1</color>
            </emission>
            <diffuse>
              <color sid="diffuse">0 0.003124297 0.8001261 1</color>
            </diffuse>
            <index_of_refraction>
              <float sid="ior">1.5</float>
            </index_of_refraction>
          </lambert>
        </technique>
      </profile_COMMON>
    </effect>
  </library_effects>
  <library_images/>
  <library_materials>
    <material id="BLUE_001-material" name="BLUE.001">
      <instance_effect url="#BLUE_001-effect"/>
    </material>
  </library_materials>
  <library_geometries>
    <geometry id="shape0_002-mesh" name="shape0.002">
      <mesh>
        <source id="shape0_002-mesh-positions">
          <float_array id="shape0_002-mesh-positions-array" count="1365">19.9454 -1.47705 -4.999998 19.9454 -1.47705 10 20 0 -4.999998 20 0 10 19.9454 1.47705 -4.999998 19.9454 1.47705 10 19.7818 2.94603 -4.999998 19.7818 2.94603 10 19.5102 4.39893 -4.999998 19.5102 4.39893 10 19.1321 5.8278 -4.999998 19.1321 5.8278 10 18.6494 7.22483 -4.999998 18.6494 7.22483 10 18.0649 8.58241 -4.999998 18.0649 8.58241 10 17.3818 9.89312 -4.999998 17.3818 9.89312 10 16.6037 11.1498 -4.999998 16.6037 11.1498 10 15.7349 12.3456 -4.999998 15.7349 12.3456 10 14.7802 13.4739 -4.999998 14.7802 13.4739 10 13.7447 14.5287 -4.999998 13.7447 14.5287 10 12.6342 15.5041 -4.999998 12.6342 15.5041 10 11.4547 16.3948 -4.999998 11.4547 16.3948 10 10.2126 17.196 -4.999998 10.2126 17.196 10 8.914772 17.9033 -4.999998 8.914772 17.9033 10 7.56822 18.5128 -4.999998 7.56822 18.5128 10 6.18034 19.0211 -4.999998 6.18034 19.0211 10 4.7587 19.4256 -4.999998 4.7587 19.4256 10 3.31108 19.724 -4.999998 3.31108 19.724 10 1.84537 19.9147 -4.999998 1.84537 19.9147 10 0.369578 19.9966 -4.999998 0.369578 19.9966 10 -1.10823 19.9693 -4.999998 -1.10823 19.9693 10 -2.57998 19.8329 -4.999998 -2.57998 19.8329 10 -4.03765 19.5882 -4.999998 -4.03765 19.5882 10 -5.47326 19.2365 -4.999998 -5.47326 19.2365 10 -6.87898 18.7798 -4.999998 -6.87898 18.7798 10 -8.24713 18.2205 -4.999998 -8.24713 18.2205 10 -9.57023 17.5616 -4.999998 -9.57023 17.5616 10 -10.8411 16.8069 -4.999998 -10.8411 16.8069 10 -12.0527 15.9603 -4.999998 -12.0527 15.9603 10 -13.1985 15.0266 -4.999998 -13.1985 15.0266 10 -14.2722 14.0109 -4.999998 -14.2722 14.0109 10 -15.268 12.9186 -4.999998 -15.268 12.9186 10 -16.1803 11.7557 -4.999998 -16.1803 11.7557 10 -17.0043 10.5286 -4.999998 -17.0043 10.5286 10 -17.7355 9.24408 -4.999998 -17.7355 9.24408 10 -18.3697 7.90902 -4.999998 -18.3697 7.90902 10 -18.9037 6.53077 -4.999998 -18.9037 6.53077 10 -19.3344 5.11686 -4.999998 -19.3344 5.11686 10 -19.6595 3.67499 -4.999998 -19.6595 3.67499 10 -19.8772 2.21305 -4.999998 -19.8772 2.21305 10 -19.9863 0.73903 -4.999998 -19.9863 0.73903 10 -19.9863 -0.73903 -4.999998 -19.9863 -0.73903 10 -19.8772 -2.21305 -4.999998 -19.8772 -2.21305 10 -19.6595 -3.67499 -4.999998 -19.6595 -3.67499 10 -19.3344 -5.11686 -4.999998 -19.3344 -5.11686 10 -18.9037 -6.53077 -4.999998 -18.9037 -6.53077 10 -18.3697 -7.90902 -4.999998 -18.3697 -7.90902 10 -17.7355 -9.24408 -4.999998 -17.7355 -9.24408 10 -17.0043 -10.5286 -4.999998 -17.0043 -10.5286 10 -16.1803 -11.7557 -4.999998 -16.1803 -11.7557 10 -15.268 -12.9186 -4.999998 -15.268 -12.9186 10 -14.2722 -14.0109 -4.999998 -14.2722 -14.0109 10 -13.1985 -15.0266 -4.999998 -13.1985 -15.0266 10 -12.0527 -15.9603 -4.999998 -12.0527 -15.9603 10 -10.8411 -16.8069 -4.999998 -10.8411 -16.8069 10 -9.57023 -17.5616 -4.999998 -9.57023 -17.5616 10 -8.24713 -18.2205 -4.999998 -8.24713 -18.2205 10 -6.87898 -18.7798 -4.999998 -6.87898 -18.7798 10 -5.47326 -19.2365 -4.999998 -5.47326 -19.2365 10 -4.03765 -19.5882 -4.999998 -4.03765 -19.5882 10 -2.57998 -19.8329 -4.999998 -2.57998 -19.8329 10 -1.10823 -19.9693 -4.999998 -1.10823 -19.9693 10 0.369578 -19.9966 -4.999998 0.369578 -19.9966 10 1.84537 -19.9147 -4.999998 1.84537 -19.9147 10 3.31108 -19.724 -4.999998 3.31108 -19.724 10 4.7587 -19.4256 -4.999998 4.7587 -19.4256 10 6.18034 -19.0211 -4.999998 6.18034 -19.0211 10 7.56822 -18.5128 -4.999998 7.56822 -18.5128 10 8.914772 -17.9033 -4.999998 8.914772 -17.9033 10 10.2126 -17.196 -4.999998 10.2126 -17.196 10 11.4547 -16.3948 -4.999998 11.4547 -16.3948 10 12.6342 -15.5041 -4.999998 12.6342 -15.5041 10 13.7447 -14.5287 -4.999998 13.7447 -14.5287 10 14.7802 -13.4739 -4.999998 14.7802 -13.4739 10 15.7349 -12.3456 -4.999998 15.7349 -12.3456 10 16.6037 -11.1498 -4.999998 16.6037 -11.1498 10 17.3818 -9.89312 -4.999998 17.3818 -9.89312 10 18.0649 -8.58241 -4.999998 18.0649 -8.58241 10 18.6494 -7.22483 -4.999998 18.6494 -7.22483 10 19.1321 -5.8278 -4.999998 19.1321 -5.8278 10 19.5102 -4.39893 -4.999998 19.5102 -4.39893 10 19.7818 -2.94603 -4.999998 19.7818 -2.94603 10 -24.9453 1.65226 10 -24.9453 1.65226 -15 -25 0 10 -25 0 -15 -24.9453 -1.65226 10 -24.9453 -1.65226 -15 -24.7816 -3.2973 10 -24.7816 -3.2973 -15 -24.5095 -4.92793 10 -24.5095 -4.92793 -15 -24.1302 -6.537 10 -24.1302 -6.537 -15 -23.6454 -8.11749 10 -23.6454 -8.11749 -15 -23.0572 -9.66248 10 -23.0572 -9.66248 -15 -22.3682 -11.1652 10 -22.3682 -11.1652 -15 -21.5814 -12.6191 10 -21.5814 -12.6191 -15 -20.7002 -14.0179 10 -20.7002 -14.0179 -15 -19.7285 -15.3553 10 -19.7285 -15.3553 -15 -18.6705 -16.6256 10 -18.6705 -16.6256 -15 -17.5309 -17.8232 10 -17.5309 -17.8232 -15 -16.3146 -18.9429 10 -16.3146 -18.9429 -15 -15.027 -19.9797 10 -15.027 -19.9797 -15 -13.6737 -20.9292 10 -13.6737 -20.9292 -15 -12.2606 -21.7871 10 -12.2606 -21.7871 -15 -10.7939 -22.5498 10 -10.7939 -22.5498 -15 -9.279932 -23.2139 10 -9.279932 -23.2139 -15 -7.72542 -23.7764 10 -7.72542 -23.7764 -15 -6.13714 -24.235 10 -6.13714 -24.235 -15 -4.52201 -24.5876 10 -4.52201 -24.5876 -15 -2.88712 -24.8327 10 -2.88712 -24.8327 -15 -1.23959 -24.9692 10 -1.23959 -24.9692 -15 0.413349 -24.9966 10 0.413349 -24.9966 -15 2.06448 -24.9146 10 2.06448 -24.9146 -15 3.70659 -24.7237 10 3.70659 -24.7237 -15 5.33249 -24.4247 10 5.33249 -24.4247 -15 6.93507 -24.0188 10 6.93507 -24.0188 -15 8.50733 -23.508 10 8.50733 -23.508 -15 10.0424 -22.8943 10 10.0424 -22.8943 -15 11.5335 -22.1806 10 11.5335 -22.1806 -15 12.9742 -21.3698 10 12.9742 -21.3698 -15 14.3582 -20.4656 10 14.3582 -20.4656 -15 15.6794 -19.4719 10 15.6794 -19.4719 -15 16.932 -18.3931 10 16.932 -18.3931 -15 18.1106 -17.2338 10 18.1106 -17.2338 -15 19.21 -15.9992 10 19.21 -15.9992 -15 20.2254 -14.6946 10 20.2254 -14.6946 -15 21.1524 -13.3258 10 21.1524 -13.3258 -15 21.9868 -11.8987 10 21.9868 -11.8987 -15 22.7252 -10.4195 10 22.7252 -10.4195 -15 23.3641 -8.89485 10 23.3641 -8.89485 -15 23.9009 -7.33125 10 23.9009 -7.33125 -15 24.3332 -5.7356 10 24.3332 -5.7356 -15 24.659 -4.11486 10 24.659 -4.11486 -15 24.8771 -2.47614 10 24.8771 -2.47614 -15 24.9863 -0.826584 10 24.9863 -0.826584 -15 24.9863 0.826584 10 24.9863 0.826584 -15 24.8771 2.47614 10 24.8771 2.47614 -15 24.659 4.11486 10 24.659 4.11486 -15 24.3332 5.7356 10 24.3332 5.7356 -15 23.9009 7.33125 10 23.9009 7.33125 -15 23.3641 8.89485 10 23.3641 8.89485 -15 22.7252 10.4195 10 22.7252 10.4195 -15 21.9868 11.8987 10 21.9868 11.8987 -15 21.1524 13.3258 10 21.1524 13.3258 -15 20.2254 14.6946 10 20.2254 14.6946 -15 19.21 15.9992 10 19.21 15.9992 -15 18.1106 17.2338 10 18.1106 17.2338 -15 16.932 18.3931 10 16.932 18.3931 -15 15.6794 19.4719 10 15.6794 19.4719 -15 14.3582 20.4656 10 14.3582 20.4656 -15 12.9742 21.3698 10 12.9742 21.3698 -15 11.5335 22.1806 10 11.5335 22.1806 -15 10.0424 22.8943 10 10.0424 22.8943 -15 8.50733 23.508 10 8.50733 23.508 -15 6.93507 24.0188 10 6.93507 24.0188 -15 5.33249 24.4247 10 5.33249 24.4247 -15 3.70659 24.7237 10 3.70659 24.7237 -15 2.06448 24.9146 10 2.06448 24.9146 -15 0.413349 24.9966 10 0.413349 24.9966 -15 -1.23959 24.9692 10 -1.23959 24.9692 -15 -2.88712 24.8327 10 -2.88712 24.8327 -15 -4.52201 24.5876 10 -4.52201 24.5876 -15 -6.13714 24.235 10 -6.13714 24.235 -15 -7.72542 23.7764 10 -7.72542 23.7764 -15 -9.279932 23.2139 10 -9.279932 23.2139 -15 -10.7939 22.5498 10 -10.7939 22.5498 -15 -12.2606 21.7871 10 -12.2606 21.7871 -15 -13.6737 20.9292 10 -13.6737 20.9292 -15 -15.027 19.9797 10 -15.027 19.9797 -15 -16.3146 18.9429 10 -16.3146 18.9429 -15 -17.5309 17.8232 10 -17.5309 17.8232 -15 -18.6705 16.6256 10 -18.6705 16.6256 -15 -19.7285 15.3553 10 -19.7285 15.3553 -15 -20.7002 14.0179 10 -20.7002 14.0179 -15 -21.5814 12.6191 10 -21.5814 12.6191 -15 -22.3682 11.1652 10 -22.3682 11.1652 -15 -23.0572 9.66248 10 -23.0572 9.66248 -15 -23.6454 8.11749 10 -23.6454 8.11749 -15 -24.1302 6.537 10 -24.1302 6.537 -15 -24.5095 4.92793 10 -24.5095 4.92793 -15 -24.7816 3.2973 10 -24.7816 3.2973 -15 -24.9453 -1.65226 -40 -25 0 -40 -24.9453 1.65226 -40 -24.7816 3.2973 -40 -24.5095 4.92793 -40 -24.1302 6.537 -40 -23.6454 8.11749 -40 -23.0572 9.66248 -40 -22.3682 11.1652 -40 -21.5814 12.6191 -40 -20.7002 14.0179 -40 -19.7285 15.3553 -40 -18.6705 16.6256 -40 -17.5309 17.8232 -40 -16.3146 18.9429 -40 -15.027 19.9797 -40 -13.6737 20.9292 -40 -12.2606 21.7871 -40 -10.7939 22.5498 -40 -9.279932 23.2139 -40 -7.72542 23.7764 -40 -6.13714 24.235 -40 -4.52201 24.5876 -40 -2.88712 24.8327 -40 -1.23959 24.9692 -40 0.413349 24.9966 -40 2.06448 24.9146 -40 3.70659 24.7237 -40 5.33249 24.4247 -40 6.93507 24.0188 -40 8.50733 23.508 -40 10.0424 22.8943 -40 11.5335 22.1806 -40 12.9742 21.3698 -40 14.3582 20.4656 -40 15.6794 19.4719 -40 16.932 18.3931 -40 18.1106 17.2338 -40 19.21 15.9992 -40 20.2254 14.6946 -40 21.1524 13.3258 -40 21.9868 11.8987 -40 22.7252 10.4195 -40 23.3641 8.89485 -40 23.9009 7.33125 -40 24.3332 5.7356 -40 24.659 4.11486 -40 24.8771 2.47614 -40 24.9863 0.826584 -40 24.9863 -0.826584 -40 24.8771 -2.47614 -40 24.659 -4.11486 -40 24.3332 -5.7356 -40 23.9009 -7.33125 -40 23.3641 -8.89485 -40 22.7252 -10.4195 -40 21.9868 -11.8987 -40 21.1524 -13.3258 -40 20.2254 -14.6946 -40 19.21 -15.9992 -40 18.1106 -17.2338 -40 16.932 -18.3931 -40 15.6794 -19.4719 -40 14.3582 -20.4656 -40 12.9742 -21.3698 -40 11.5335 -22.1806 -40 10.0424 -22.8943 -40 8.50733 -23.508 -40 6.93507 -24.0188 -40 5.33249 -24.4247 -40 3.70659 -24.7237 -40 2.06448 -24.9146 -40 0.413349 -24.9966 -40 -1.23959 -24.9692 -40 -2.88712 -24.8327 -40 -4.52201 -24.5876 -40 -6.13714 -24.235 -40 -7.72542 -23.7764 -40 -9.279932 -23.2139 -40 -10.7939 -22.5498 -40 -12.2606 -21.7871 -40 -13.6737 -20.9292 -40 -15.027 -19.9797 -40 -16.3146 -18.9429 -40 -17.5309 -17.8232 -40 -18.6705 -16.6256 -40 -19.7285 -15.3553 -40 -20.7002 -14.0179 -40 -21.5814 -12.6191 -40 -22.3682 -11.1652 -40 -23.0572 -9.66248 -40 -23.6454 -8.11749 -40 -24.1302 -6.537 -40 -24.5095 -4.92793 -40 -24.7816 -3.2973 -40</float_array>
          <technique_common>
            <accessor source="#shape0_002-mesh-positions-array" count="455" stride="3">
              <param name="X" type="float"/>
              <param name="Y" type="float"/>
              <param name="Z" type="float"/>
            </accessor>
          </technique_common>
        </source>
        <source id="shape0_002-mesh-normals">
          <float_array id="shape0_002-mesh-normals-array" count="1797">-0.9993174 0.0369417 0 -0.9993175 0.03693896 0 -0.9993175 -0.03693896 0 -0.9993174 -0.0369417 0 -0.9938556 -0.1106845 0 -0.9938553 -0.1106873 0 -0.9829726 -0.1837522 0 -0.9829722 -0.1837549 0 -0.9667269 -0.2558106 0 -0.966727 -0.2558106 0 -0.9451718 -0.3265736 0 -0.9451709 -0.3265761 0 -0.918488 -0.3954489 0 -0.9184871 -0.3954513 0 -0.8867933 -0.4621664 0 -0.8867921 -0.4621685 0 -0.8502173 -0.526432 0 -0.8502185 -0.52643 0 -0.8090181 -0.5877838 0 -0.8090168 -0.5877856 0 -0.7633908 -0.645937 0 -0.7633921 -0.6459354 0 -0.7136045 -0.7005488 0 -0.7136052 -0.7005482 0 -0.659926 -0.7513306 0 -0.6599267 -0.75133 0 -0.6026273 -0.7980228 0 -0.6026273 -0.7980228 0 -0.5420533 -0.8403441 0 -0.5420534 -0.8403442 0 -0.4785348 -0.8780686 0 -0.4785354 -0.8780683 0 -0.4123623 -0.91102 0 -0.4123626 -0.9110199 0 -0.3439026 -0.9390054 0 -0.3439024 -0.9390054 0 -0.273669 -0.961824 0 -0.2736691 -0.9618239 0 -0.2018876 -0.9794087 0 -0.2018874 -0.9794088 0 -0.1290192 -0.9916421 0 -0.05541008 -0.9984637 0 0.01847004 -0.9998295 0 0.01847004 -0.9998295 0 0.09228342 -0.9957328 0 0.09228342 -0.9957328 0 0.1655538 -0.9862008 0 0.2379465 -0.9712783 0 0.3089884 -0.9510659 0 0.3089886 -0.9510658 0 0.3784031 -0.9256409 0 0.4457779 -0.8951437 0 0.445779 -0.8951431 0 0.5105985 -0.8598194 0 0.5105991 -0.859819 0 0.5727727 -0.8197143 0 0.572772 -0.8197149 0 0.6317072 -0.7752072 0 0.6317079 -0.7752066 0 0.6872135 -0.7264555 0 0.738996 -0.6737098 0 0.738996 -0.6737098 0 0.7867811 -0.6172322 0 0.7867805 -0.617233 0 0.8301927 -0.5574765 0 0.8301941 -0.5574747 0 0.8690611 -0.4947049 0 0.9032652 -0.4290826 0 0.9324578 -0.3612791 0 0.956603 -0.2913945 0 0.9566023 -0.2913971 0 0.975511 -0.2199507 0 0.975511 -0.2199507 0 0.9890942 -0.1472851 0 0.9890937 -0.1472877 0 0.9972723 -0.07381224 0 0.997272 -0.07381492 0 1 0 0 0.997272 0.07381492 0 0.9972723 0.07381224 0 0.9890937 0.1472877 0 0.9890942 0.1472851 0 0.975511 0.2199507 0 0.975511 0.2199507 0 0.9566023 0.2913971 0 0.956603 0.2913945 0 0.9324578 0.3612791 0 0.9032652 0.4290826 0 0.8690611 0.4947049 0 0.8301941 0.5574747 0 0.8301927 0.5574765 0 0.7867805 0.617233 0 0.7867811 0.6172322 0 0.738996 0.6737098 0 0.738996 0.6737098 0 0.6872135 0.7264555 0 0.6317078 0.7752066 0 0.6317072 0.7752071 0 0.572772 0.8197149 0 0.5727727 0.8197143 0 0.5105991 0.859819 0 0.5105985 0.8598194 0 0.445779 0.8951431 0 0.4457779 0.8951437 0 0.3784031 0.9256409 0 0.3089886 0.9510658 0 0.3089884 0.9510659 0 0.2379465 0.9712783 0 0.1655538 0.9862008 0 0.09228342 0.9957328 0 0.09228342 0.9957328 0 0.01847004 0.9998295 0 0.01847004 0.9998295 0 -0.05541008 0.9984637 0 -0.1290192 0.9916421 0 -0.2018874 0.9794088 0 -0.2018876 0.9794087 0 -0.2736691 0.9618239 0 -0.273669 0.961824 0 -0.3439024 0.9390054 0 -0.3439026 0.9390054 0 -0.4123626 0.9110199 0 -0.4123623 0.91102 0 -0.4785354 0.8780683 0 -0.4785348 0.8780686 0 -0.5420533 0.8403441 0 -0.5420534 0.8403442 0 -0.6026273 0.7980228 0 -0.6026273 0.7980228 0 -0.6599267 0.75133 0 -0.659926 0.7513306 0 -0.7136052 0.7005482 0 -0.7136045 0.7005488 0 -0.7633921 0.6459354 0 -0.7633908 0.645937 0 -0.8090168 0.5877856 0 -0.8090181 0.5877838 0 -0.8502185 0.52643 0 -0.8502173 0.526432 0 -0.8867921 0.4621686 0 -0.8867933 0.4621664 0 -0.9184871 0.3954513 0 -0.918488 0.3954489 0 -0.9451709 0.3265761 0 -0.9451718 0.3265736 0 -0.9667269 0.2558106 0 -0.966727 0.2558106 0 -0.9829722 0.1837549 0 -0.9829726 0.1837522 0 -0.9938553 0.1106873 0 -0.9938556 0.1106845 0 0 0 1 0 0 1 0 0 1 0 0 1 0 0 1 0 0 1 0 0 1 -1.58243e-7 0 1 1.70926e-7 0 1 -1.78606e-7 0 1 3.94524e-7 0 1 -4.1719e-7 0 1 4.43145e-7 0 1 7.1134e-7 0 1 -9.03426e-7 0 1 1.73082e-6 0 1 -2.29382e-6 0 1 3.19332e-6 0 1 3.9602e-6 0 1 -3.94647e-6 0 1 5.91052e-6 0 1 0 0 1 0 0 1 0 0 1 0 0 1 0 0 1 0 0 1 0 0 1 0 0 1 0 0 1 0 0 1 0 0 1 -3.69481e-7 0 1 -0.9994526 0.03308635 0 -0.9994524 0.03308933 0 -0.9994524 -0.03308933 0 -0.9994526 -0.03308635 0 -0.9950852 -0.09902286 0 -0.9863618 -0.164592 0 -0.9733232 -0.2294388 0 -0.9733238 -0.229436 0 -0.9560337 -0.293257 0 -0.9560353 -0.2932516 0 -0.9345611 -0.3558029 0 -0.934562 -0.3558003 0 -0.909007 -0.4167809 0 -0.8794763 -0.4759429 0 -0.8794775 -0.4759405 0 -0.8461032 -0.5330192 0 -0.809011 -0.5877936 0 -0.8090109 -0.5877936 0 -0.7683951 -0.6399758 0 -0.7683936 -0.6399775 0 -0.7244325 -0.6893457 0 -0.7244304 -0.6893481 0 -0.6772873 -0.7357187 0 -0.6271714 -0.7788814 0 -0.6271707 -0.778882 0 -0.5743498 -0.81861 0 -0.5743512 -0.8186091 0 -0.5189546 -0.8548019 0 -0.5189552 -0.8548014 0 -0.4613601 -0.8872131 0 -0.4613595 -0.8872134 0 -0.4017015 -0.9157708 0 -0.4017021 -0.9157705 0 -0.3402592 -0.9403317 0 -0.340259 -0.9403318 0 -0.2774084 -0.9607521 0 -0.277408 -0.9607523 0 -0.213286 -0.9769898 0 -0.2132862 -0.9769898 0 -0.1482615 -0.9889482 0 -0.1482614 -0.9889482 0 -0.08256918 -0.9965854 0 -0.01657366 -0.9998627 0 0.04960221 -0.9987691 0 0.04960221 -0.9987691 0 0.1154745 -0.9933105 0 0.1154745 -0.9933105 0 0.1808652 -0.9835079 0 0.1808651 -0.9835079 0 0.2455268 -0.9693899 0 0.2455267 -0.9693899 0 0.3089838 -0.9510673 0 0.3712214 -0.9285445 0 0.3712209 -0.9285446 0 0.4317331 -0.9020014 0 0.4317337 -0.9020012 0 0.4904486 -0.8714702 0 0.490448 -0.8714706 0 0.5469424 -0.8371703 0 0.6010838 -0.7991861 0 0.6525822 -0.7577179 0 0.652583 -0.7577174 0 0.7012451 -0.7129203 0 0.7012466 -0.7129188 0 0.7468149 -0.665032 0 0.7891435 -0.6142089 0 0.8279888 -0.5607446 0 0.8279903 -0.5607426 0 0.8632718 -0.5047393 0 0.8947178 -0.446632 0 0.8947166 -0.4466344 0 0.9222953 -0.3864861 0 0.9222963 -0.3864835 0 0.9458141 -0.3247088 0 0.9652043 -0.261497 0 0.965205 -0.2614943 0 0.9803875 -0.1970802 0 0.980388 -0.1970773 0 0.9912592 -0.1319287 0 0.9912596 -0.1319258 0 0.9978161 -0.06605458 0 0.9978159 -0.0660575 0 0.9978159 0.0660575 0 0.9978161 0.06605458 0 0.9912596 0.1319258 0 0.9912593 0.1319287 0 0.9803881 0.1970773 0 0.9803875 0.1970802 0 0.965205 0.2614943 0 0.9652043 0.261497 0 0.9458141 0.3247088 0 0.9222964 0.3864835 0 0.9222953 0.3864861 0 0.8947166 0.4466344 0 0.8947178 0.446632 0 0.8632718 0.5047393 0 0.8279903 0.5607426 0 0.8279888 0.5607446 0 0.7891435 0.6142089 0 0.7468149 0.665032 0 0.7012466 0.7129188 0 0.7012451 0.7129203 0 0.652583 0.7577174 0 0.6525822 0.7577179 0 0.6010838 0.7991861 0 0.5469424 0.8371703 0 0.490448 0.8714706 0 0.4904486 0.8714702 0 0.4317337 0.9020012 0 0.4317331 0.9020014 0 0.3712209 0.9285447 0 0.3712214 0.9285445 0 0.3089838 0.9510673 0 0.2455267 0.9693899 0 0.2455268 0.9693899 0 0.1808651 0.9835079 0 0.1808652 0.9835079 0 0.1154745 0.9933105 0 0.1154745 0.9933105 0 0.04960221 0.9987691 0 -0.01657366 0.9998627 0 -0.08256918 0.9965854 0 -0.1482614 0.9889482 0 -0.1482615 0.9889482 0 -0.2132862 0.9769898 0 -0.213286 0.9769898 0 -0.277408 0.9607523 0 -0.2774084 0.9607521 0 -0.340259 0.9403318 0 -0.3402593 0.9403317 0 -0.4017021 0.9157704 0 -0.4017015 0.9157708 0 -0.4613595 0.8872134 0 -0.4613601 0.8872131 0 -0.5189552 0.8548014 0 -0.5189546 0.8548019 0 -0.5743512 0.8186091 0 -0.5743498 0.81861 0 -0.6271707 0.778882 0 -0.6271714 0.7788814 0 -0.6772873 0.7357187 0 -0.7244303 0.6893481 0 -0.7244326 0.6893457 0 -0.7683938 0.6399775 0 -0.7683951 0.6399758 0 -0.809011 0.5877936 0 -0.8090109 0.5877936 0 -0.8461032 0.5330192 0 -0.8794775 0.4759405 0 -0.8794763 0.4759429 0 -0.909007 0.4167809 0 -0.934562 0.3558003 0 -0.9345611 0.3558029 0 -0.9560353 0.2932516 0 -0.9560337 0.293257 0 -0.9733238 0.229436 0 -0.9733232 0.2294388 0 -0.9863618 0.164592 0 -0.9950852 0.09902286 0 -0.9994526 -0.03308635 0 -0.9994524 -0.03309226 0 -0.9994523 0.03309226 0 -0.9994526 0.03308635 0 -0.9950852 0.09902286 0 -0.9950855 0.09901994 0 -0.9863618 0.1645919 0 -0.9863613 0.1645948 0 -0.9733231 0.2294387 0 -0.9560346 0.2932543 0 -0.9560345 0.2932542 0 -0.9345621 0.3558002 0 -0.934561 0.3558028 0 -0.909007 0.4167808 0 -0.9090071 0.4167808 0 -0.8794763 0.4759428 0 -0.8794775 0.4759405 0 -0.8461033 0.5330191 0 -0.8461033 0.5330191 0 -0.8090111 0.5877935 0 -0.8090111 0.5877934 0 -0.7683951 0.6399757 0 -0.7683937 0.6399774 0 -0.7244319 0.6893464 0 -0.7244311 0.6893472 0 -0.6772867 0.7357193 0 -0.6772873 0.7357186 0 -0.6271708 0.7788819 0 -0.6271715 0.7788813 0 -0.5743498 0.81861 0 -0.5743506 0.8186094 0 -0.5189552 0.8548014 0 -0.5189546 0.8548018 0 -0.4613602 0.8872129 0 -0.4613596 0.8872132 0 -0.4017016 0.9157707 0 -0.4017018 0.9157705 0 -0.3402595 0.9403316 0 -0.3402588 0.9403319 0 -0.2774083 0.9607522 0 -0.2774081 0.9607523 0 -0.2132861 0.9769899 0 -0.2132862 0.9769898 0 -0.1482616 0.9889482 0 -0.1482614 0.9889483 0 -0.08256918 0.9965854 0 -0.01657366 0.9998627 0 -0.01657366 0.9998627 0 0.04960221 0.9987691 0 0.04960221 0.9987691 0 0.1154745 0.9933105 0 0.1154745 0.9933105 0 0.1808652 0.9835079 0 0.1808651 0.9835079 0 0.2455267 0.9693899 0 0.2455269 0.9693899 0 0.3089837 0.9510674 0 0.3712214 0.9285444 0 0.371221 0.9285446 0 0.4317333 0.9020015 0 0.4317338 0.9020011 0 0.490448 0.8714705 0 0.4904481 0.8714705 0 0.5469431 0.8371699 0 0.5469425 0.8371703 0 0.6010832 0.7991866 0 0.6010839 0.7991859 0 0.6525824 0.7577179 0 0.6525831 0.7577172 0 0.7012453 0.7129202 0 0.7012467 0.7129188 0 0.7468143 0.6650328 0 0.746815 0.6650319 0 0.7891436 0.6142088 0 0.7891444 0.6142078 0 0.8279882 0.5607455 0 0.8279903 0.5607426 0 0.8632719 0.5047392 0 0.8632718 0.5047393 0 0.8947167 0.4466344 0 0.8947179 0.4466319 0 0.9222954 0.3864859 0 0.9222954 0.386486 0 0.945815 0.3247061 0 0.9458141 0.3247087 0 0.9652043 0.261497 0 0.9652044 0.261497 0 0.9803881 0.1970773 0 0.980388 0.1970773 0 0.9912593 0.1319287 0 0.9912593 0.1319287 0 0.9978161 0.06605452 0 0.9978161 -0.06605452 0 0.9912593 -0.1319287 0 0.9912593 -0.1319287 0 0.9803881 -0.1970773 0 0.980388 -0.1970773 0 0.9652043 -0.261497 0 0.9652044 -0.261497 0 0.9458141 -0.3247088 0 0.9458151 -0.3247061 0 0.9222954 -0.3864859 0 0.9222954 -0.386486 0 0.8947178 -0.446632 0 0.8947166 -0.4466342 0 0.8632719 -0.5047392 0 0.8632718 -0.5047393 0 0.8279903 -0.5607426 0 0.8279882 -0.5607455 0 0.7891443 -0.6142079 0 0.7891436 -0.6142087 0 0.746815 -0.6650319 0 0.7468143 -0.6650328 0 0.7012467 -0.7129187 0 0.7012452 -0.7129202 0 0.6525831 -0.7577172 0 0.6525824 -0.7577179 0 0.6010838 -0.799186 0 0.6010832 -0.7991865 0 0.5469424 -0.8371703 0 0.5469431 -0.8371698 0 0.490448 -0.8714705 0 0.4904481 -0.8714705 0 0.4317338 -0.9020011 0 0.4317332 -0.9020014 0 0.371221 -0.9285446 0 0.3712214 -0.9285444 0 0.3089837 -0.9510674 0 0.2455269 -0.9693899 0 0.2455267 -0.9693899 0 0.1808651 -0.9835079 0 0.1808652 -0.9835079 0 0.1154745 -0.9933105 0 0.1154745 -0.9933105 0 0.04960221 -0.9987691 0 0.04960221 -0.9987691 0 -0.01657366 -0.9998627 0 -0.01657366 -0.9998627 0 -0.08256918 -0.9965854 0 -0.1482614 -0.9889483 0 -0.1482616 -0.9889482 0 -0.2132862 -0.9769898 0 -0.2132861 -0.9769899 0 -0.2774081 -0.9607523 0 -0.2774083 -0.9607522 0 -0.3402588 -0.9403319 0 -0.3402595 -0.9403316 0 -0.4017018 -0.9157705 0 -0.4017015 -0.9157707 0 -0.4613596 -0.8872132 0 -0.4613602 -0.8872129 0 -0.5189546 -0.8548018 0 -0.5189553 -0.8548014 0 -0.5743505 -0.8186095 0 -0.5743499 -0.81861 0 -0.6271715 -0.7788813 0 -0.6271708 -0.7788819 0 -0.6772874 -0.7357186 0 -0.6772866 -0.7357193 0 -0.7244312 -0.6893472 0 -0.7244319 -0.6893465 0 -0.7683938 -0.6399775 0 -0.7683953 -0.6399757 0 -0.8090111 -0.5877935 0 -0.8090111 -0.5877934 0 -0.8461033 -0.5330191 0 -0.8461033 -0.5330191 0 -0.8794775 -0.4759405 0 -0.8794763 -0.4759427 0 -0.909007 -0.4167808 0 -0.9090071 -0.4167808 0 -0.9345611 -0.3558028 0 -0.934562 -0.3558002 0 -0.9560346 -0.2932543 0 -0.9560345 -0.2932542 0 -0.9733238 -0.2294359 0 -0.9863613 -0.1645948 0 -0.9863618 -0.1645919 0 -0.9950855 -0.09901994 0 -0.9950852 -0.09902286 0 -2.57397e-7 0 1 -1.28698e-7 0 1 -1.28735e-7 0 1 -1.28813e-7 0 1 0 0 1 2.31356e-7 0 1 2.3127e-7 0 1 -2.57627e-7 0 1 -2.31129e-7 0 1 2.58005e-7 0 1 -4.62094e-7 0 1 2.57732e-7 0 1 -2.57547e-7 0 1 -2.57423e-7 0 1 5.1487e-7 0 1 -9.24189e-7 0 1 5.1603e-7 0 1 5.15718e-7 0 1 -9.24517e-7 0 1 3.86446e-7 0 1 2.57474e-7 0 1 2.57399e-7 0 1 2.57395e-7 0 1 1.28735e-7 0 1 0 0 1 0 0 1 0 0 1 0 0 1 -1.28771e-7 0 1 -1.93068e-7 0 1 -2.57388e-7 0 1 -2.57424e-7 0 1 -3.86303e-7 0 1 -3.86599e-7 0 1 -4.61876e-7 0 1 -5.15282e-7 0 1 4.62548e-7 0 1 -4.62713e-7 0 1 5.14796e-7 0 1 5.14774e-7 0 1 -2.57473e-7 0 1 -5.1527e-7 0 1 4.62268e-7 0 1 2.57858e-7 0 1 -2.30937e-7 0 1 0 0 1 0 0 1 0 0 1 2.31322e-7 0 1 0 0 1 -4.61873e-7 0 1 9.25097e-7 0 1 9.23258e-7 0 1 9.2418e-7 0 1 -9.23729e-7 0 1 -4.62094e-7 0 1 -4.62753e-7 0 1 4.62654e-7 0 1 0 0 -1 0 0 -1 0 0 -1 0 0 -1 0 0 -1 0 0 -1 -3.96412e-7 0 -1 -8.457e-7 0 -1 -1.5478e-6 0 -1 2.37242e-6 0 -1 3.22144e-6 0 -1 4.4808e-6 0 -1 7.93374e-6 0 -1 -9.16828e-6 0 -1 1.27842e-5 0 -1 -7.75481e-6 0 -1 1.70081e-5 0 -1 4.22376e-5 0 -1</float_array>
          <technique_common>
            <accessor source="#shape0_002-mesh-normals-array" count="599" stride="3">
              <param name="X" type="float"/>
              <param name="Y" type="float"/>
              <param name="Z" type="float"/>
            </accessor>
          </technique_common>
        </source>
        <vertices id="shape0_002-mesh-vertices">
          <input semantic="POSITION" source="#shape0_002-mesh-positions"/>
        </vertices>
        <triangles material="BLUE_001-material" count="906">
          <input semantic="VERTEX" source="#shape0_002-mesh-vertices" offset="0"/>
          <input semantic="NORMAL" source="#shape0_002-mesh-normals" offset="1"/>
          <p>0 0 1 0 2 0 2 1 1 1 3 1 2 2 3 2 4 2 4 3 3 3 5 3 4 4 5 4 6 4 6 5 5 5 7 5 6 6 7 6 8 6 8 7 7 7 9 7 8 8 9 8 10 8 10 9 9 9 11 9 10 10 11 10 12 10 12 11 11 11 13 11 12 12 13 12 14 12 14 13 13 13 15 13 14 14 15 14 16 14 16 15 15 15 17 15 16 16 17 16 18 16 18 17 17 17 19 17 18 18 19 18 20 18 20 19 19 19 21 19 20 20 21 20 22 20 22 21 21 21 23 21 22 22 23 22 24 22 24 23 23 23 25 23 24 24 25 24 26 24 26 25 25 25 27 25 26 26 27 26 28 26 28 27 27 27 29 27 28 28 29 28 30 28 30 29 29 29 31 29 30 30 31 30 32 30 32 31 31 31 33 31 32 32 33 32 34 32 34 33 33 33 35 33 34 34 35 34 36 34 36 35 35 35 37 35 36 36 37 36 38 36 38 37 37 37 39 37 38 38 39 38 40 38 40 39 39 39 41 39 40 40 41 40 42 40 42 40 41 40 43 40 42 41 43 41 44 41 44 41 43 41 45 41 44 42 45 42 46 42 46 43 45 43 47 43 46 44 47 44 48 44 48 45 47 45 49 45 48 46 49 46 50 46 50 46 49 46 51 46 50 47 51 47 52 47 52 47 51 47 53 47 52 48 53 48 54 48 54 49 53 49 55 49 54 50 55 50 56 50 56 50 55 50 57 50 56 51 57 51 58 51 58 52 57 52 59 52 58 53 59 53 60 53 60 54 59 54 61 54 60 55 61 55 62 55 62 56 61 56 63 56 62 57 63 57 64 57 64 58 63 58 65 58 64 59 65 59 66 59 66 59 65 59 67 59 66 60 67 60 68 60 68 61 67 61 69 61 68 62 69 62 70 62 70 63 69 63 71 63 70 64 71 64 72 64 72 65 71 65 73 65 72 66 73 66 74 66 74 66 73 66 75 66 74 67 75 67 76 67 76 67 75 67 77 67 76 68 77 68 78 68 78 68 77 68 79 68 78 69 79 69 80 69 80 70 79 70 81 70 80 71 81 71 82 71 82 72 81 72 83 72 82 73 83 73 84 73 84 74 83 74 85 74 84 75 85 75 86 75 86 76 85 76 87 76 86 77 87 77 88 77 88 77 87 77 89 77 88 78 89 78 90 78 90 79 89 79 91 79 90 80 91 80 92 80 92 81 91 81 93 81 92 82 93 82 94 82 94 83 93 83 95 83 94 84 95 84 96 84 96 85 95 85 97 85 96 86 97 86 98 86 98 86 97 86 99 86 98 87 99 87 100 87 100 87 99 87 101 87 100 88 101 88 102 88 102 88 101 88 103 88 102 89 103 89 104 89 104 90 103 90 105 90 104 91 105 91 106 91 106 92 105 92 107 92 106 93 107 93 108 93 108 94 107 94 109 94 108 95 109 95 110 95 110 95 109 95 111 95 110 96 111 96 112 96 112 97 111 97 113 97 112 98 113 98 114 98 114 99 113 99 115 99 114 100 115 100 116 100 116 101 115 101 117 101 116 102 117 102 118 102 118 103 117 103 119 103 118 104 119 104 120 104 120 104 119 104 121 104 120 105 121 105 122 105 122 106 121 106 123 106 122 107 123 107 124 107 124 107 123 107 125 107 124 108 125 108 126 108 126 108 125 108 127 108 126 109 127 109 128 109 128 110 127 110 129 110 128 111 129 111 130 111 130 112 129 112 131 112 130 113 131 113 132 113 132 113 131 113 133 113 132 114 133 114 134 114 134 114 133 114 135 114 134 115 135 115 136 115 136 116 135 116 137 116 136 117 137 117 138 117 138 118 137 118 139 118 138 119 139 119 140 119 140 120 139 120 141 120 140 121 141 121 142 121 142 122 141 122 143 122 142 123 143 123 144 123 144 124 143 124 145 124 144 125 145 125 146 125 146 126 145 126 147 126 146 127 147 127 148 127 148 128 147 128 149 128 148 129 149 129 150 129 150 130 149 130 151 130 150 131 151 131 152 131 152 132 151 132 153 132 152 133 153 133 154 133 154 134 153 134 155 134 154 135 155 135 156 135 156 136 155 136 157 136 156 137 157 137 158 137 158 138 157 138 159 138 158 139 159 139 160 139 160 140 159 140 161 140 160 141 161 141 162 141 162 142 161 142 163 142 162 143 163 143 164 143 164 144 163 144 165 144 164 145 165 145 166 145 166 146 165 146 167 146 166 147 167 147 168 147 168 148 167 148 169 148 168 149 169 149 0 149 0 150 169 150 1 150 4 151 86 151 2 151 2 152 86 152 88 152 2 153 88 153 0 153 0 152 88 152 90 152 0 154 90 154 168 154 168 155 90 155 92 155 168 156 92 156 166 156 166 152 92 152 164 152 164 152 92 152 162 152 162 157 92 157 160 157 160 152 92 152 158 152 158 152 92 152 156 152 156 152 92 152 154 152 154 158 92 158 152 158 152 152 92 152 150 152 150 159 92 159 148 159 148 160 92 160 146 160 146 152 92 152 144 152 144 161 92 161 142 161 142 162 92 162 140 162 140 163 92 163 138 163 138 152 92 152 136 152 136 152 92 152 134 152 134 152 92 152 132 152 132 152 92 152 130 152 130 152 92 152 128 152 128 164 92 164 126 164 126 152 92 152 124 152 124 152 92 152 122 152 122 152 92 152 120 152 120 152 92 152 118 152 118 152 92 152 116 152 116 152 92 152 114 152 114 165 92 165 112 165 112 152 92 152 110 152 110 152 92 152 108 152 108 166 92 166 106 166 106 167 92 167 104 167 104 168 92 168 102 168 102 152 92 152 100 152 100 169 92 169 98 169 98 170 92 170 96 170 96 171 92 171 94 171 86 152 4 152 84 152 84 172 4 172 6 172 84 173 6 173 82 173 82 174 6 174 8 174 82 175 8 175 80 175 80 152 8 152 10 152 80 152 10 152 78 152 78 152 10 152 12 152 78 176 12 176 76 176 76 152 12 152 14 152 76 152 14 152 74 152 74 152 14 152 16 152 74 152 16 152 72 152 72 152 16 152 18 152 72 152 18 152 70 152 70 152 18 152 20 152 70 152 20 152 68 152 68 177 20 177 22 177 68 152 22 152 66 152 66 152 22 152 24 152 66 152 24 152 64 152 64 152 24 152 26 152 64 152 26 152 62 152 62 152 26 152 28 152 62 152 28 152 60 152 60 152 28 152 30 152 60 152 30 152 58 152 58 152 30 152 32 152 58 152 32 152 56 152 56 152 32 152 34 152 56 178 34 178 54 178 54 152 34 152 36 152 54 179 36 179 52 179 52 152 36 152 38 152 52 180 38 180 50 180 50 181 38 181 40 181 50 182 40 182 48 182 48 152 40 152 42 152 48 152 42 152 46 152 46 183 42 183 44 183 170 184 171 184 172 184 172 185 171 185 173 185 172 186 173 186 174 186 174 187 173 187 175 187 174 188 175 188 176 188 176 188 175 188 177 188 176 189 177 189 178 189 178 189 177 189 179 189 178 190 179 190 180 190 180 191 179 191 181 191 180 192 181 192 182 192 182 193 181 193 183 193 182 194 183 194 184 194 184 195 183 195 185 195 184 196 185 196 186 196 186 196 185 196 187 196 186 197 187 197 188 197 188 198 187 198 189 198 188 199 189 199 190 199 190 199 189 199 191 199 190 200 191 200 192 200 192 201 191 201 193 201 192 202 193 202 194 202 194 203 193 203 195 203 194 204 195 204 196 204 196 205 195 205 197 205 196 206 197 206 198 206 198 206 197 206 199 206 198 207 199 207 200 207 200 208 199 208 201 208 200 209 201 209 202 209 202 210 201 210 203 210 202 211 203 211 204 211 204 212 203 212 205 212 204 213 205 213 206 213 206 214 205 214 207 214 206 215 207 215 208 215 208 216 207 216 209 216 208 217 209 217 210 217 210 218 209 218 211 218 210 219 211 219 212 219 212 220 211 220 213 220 212 221 213 221 214 221 214 222 213 222 215 222 214 223 215 223 216 223 216 224 215 224 217 224 216 225 217 225 218 225 218 225 217 225 219 225 218 226 219 226 220 226 220 226 219 226 221 226 220 227 221 227 222 227 222 228 221 228 223 228 222 229 223 229 224 229 224 230 223 230 225 230 224 231 225 231 226 231 226 232 225 232 227 232 226 233 227 233 228 233 228 234 227 234 229 234 228 235 229 235 230 235 230 235 229 235 231 235 230 236 231 236 232 236 232 237 231 237 233 237 232 238 233 238 234 238 234 239 233 239 235 239 234 240 235 240 236 240 236 241 235 241 237 241 236 242 237 242 238 242 238 242 237 242 239 242 238 243 239 243 240 243 240 243 239 243 241 243 240 244 241 244 242 244 242 245 241 245 243 245 242 246 243 246 244 246 244 247 243 247 245 247 244 248 245 248 246 248 246 248 245 248 247 248 246 249 247 249 248 249 248 249 247 249 249 249 248 250 249 250 250 250 250 251 249 251 251 251 250 252 251 252 252 252 252 252 251 252 253 252 252 253 253 253 254 253 254 254 253 254 255 254 254 255 255 255 256 255 256 256 255 256 257 256 256 257 257 257 258 257 258 257 257 257 259 257 258 258 259 258 260 258 260 259 259 259 261 259 260 260 261 260 262 260 262 261 261 261 263 261 262 262 263 262 264 262 264 263 263 263 265 263 264 264 265 264 266 264 266 265 265 265 267 265 266 77 267 77 268 77 268 77 267 77 269 77 268 266 269 266 270 266 270 267 269 267 271 267 270 268 271 268 272 268 272 269 271 269 273 269 272 270 273 270 274 270 274 271 273 271 275 271 274 272 275 272 276 272 276 273 275 273 277 273 276 274 277 274 278 274 278 274 277 274 279 274 278 275 279 275 280 275 280 276 279 276 281 276 280 277 281 277 282 277 282 278 281 278 283 278 282 279 283 279 284 279 284 279 283 279 285 279 284 280 285 280 286 280 286 281 285 281 287 281 286 282 287 282 288 282 288 282 287 282 289 282 288 283 289 283 290 283 290 283 289 283 291 283 290 284 291 284 292 284 292 285 291 285 293 285 292 286 293 286 294 286 294 287 293 287 295 287 294 288 295 288 296 288 296 288 295 288 297 288 296 289 297 289 298 289 298 289 297 289 299 289 298 290 299 290 300 290 300 291 299 291 301 291 300 292 301 292 302 292 302 293 301 293 303 293 302 294 303 294 304 294 304 295 303 295 305 295 304 296 305 296 306 296 306 296 305 296 307 296 306 297 307 297 308 297 308 298 307 298 309 298 308 299 309 299 310 299 310 300 309 300 311 300 310 301 311 301 312 301 312 302 311 302 313 302 312 303 313 303 314 303 314 303 313 303 315 303 314 304 315 304 316 304 316 304 315 304 317 304 316 305 317 305 318 305 318 305 317 305 319 305 318 306 319 306 320 306 320 307 319 307 321 307 320 308 321 308 322 308 322 309 321 309 323 309 322 310 323 310 324 310 324 311 323 311 325 311 324 312 325 312 326 312 326 313 325 313 327 313 326 314 327 314 328 314 328 315 327 315 329 315 328 316 329 316 330 316 330 317 329 317 331 317 330 318 331 318 332 318 332 319 331 319 333 319 332 320 333 320 334 320 334 321 333 321 335 321 334 322 335 322 336 322 336 323 335 323 337 323 336 324 337 324 338 324 338 324 337 324 339 324 338 325 339 325 340 325 340 326 339 326 341 326 340 327 341 327 342 327 342 328 341 328 343 328 342 329 343 329 344 329 344 330 343 330 345 330 344 331 345 331 346 331 346 331 345 331 347 331 346 332 347 332 348 332 348 333 347 333 349 333 348 334 349 334 350 334 350 334 349 334 351 334 350 335 351 335 352 335 352 336 351 336 353 336 352 337 353 337 354 337 354 338 353 338 355 338 354 339 355 339 356 339 356 340 355 340 357 340 356 341 357 341 358 341 358 341 357 341 359 341 358 342 359 342 170 342 170 342 359 342 171 342 360 343 175 343 361 343 361 344 175 344 173 344 361 345 173 345 362 345 362 346 173 346 171 346 362 347 171 347 363 347 363 348 171 348 359 348 363 349 359 349 364 349 364 350 359 350 357 350 364 339 357 339 365 339 365 351 357 351 355 351 365 352 355 352 366 352 366 353 355 353 353 353 366 354 353 354 367 354 367 355 353 355 351 355 367 356 351 356 368 356 368 357 351 357 349 357 368 358 349 358 369 358 369 359 349 359 347 359 369 360 347 360 370 360 370 361 347 361 345 361 370 362 345 362 371 362 371 363 345 363 343 363 371 364 343 364 372 364 372 365 343 365 341 365 372 366 341 366 373 366 373 367 341 367 339 367 373 368 339 368 374 368 374 369 339 369 337 369 374 370 337 370 375 370 375 371 337 371 335 371 375 372 335 372 376 372 376 373 335 373 333 373 376 374 333 374 377 374 377 375 333 375 331 375 377 376 331 376 378 376 378 377 331 377 329 377 378 378 329 378 379 378 379 379 329 379 327 379 379 380 327 380 380 380 380 381 327 381 325 381 380 382 325 382 381 382 381 383 325 383 323 383 381 384 323 384 382 384 382 385 323 385 321 385 382 386 321 386 383 386 383 387 321 387 319 387 383 388 319 388 384 388 384 388 319 388 317 388 384 389 317 389 385 389 385 390 317 390 315 390 385 391 315 391 386 391 386 392 315 392 313 392 386 393 313 393 387 393 387 394 313 394 311 394 387 395 311 395 388 395 388 396 311 396 309 396 388 397 309 397 389 397 389 398 309 398 307 398 389 399 307 399 390 399 390 399 307 399 305 399 390 400 305 400 391 400 391 401 305 401 303 401 391 402 303 402 392 402 392 403 303 403 301 403 392 404 301 404 393 404 393 405 301 405 299 405 393 406 299 406 394 406 394 407 299 407 297 407 394 408 297 408 395 408 395 409 297 409 295 409 395 410 295 410 396 410 396 411 295 411 293 411 396 412 293 412 397 412 397 413 293 413 291 413 397 414 291 414 398 414 398 415 291 415 289 415 398 416 289 416 399 416 399 417 289 417 287 417 399 418 287 418 400 418 400 419 287 419 285 419 400 420 285 420 401 420 401 421 285 421 283 421 401 422 283 422 402 422 402 423 283 423 281 423 402 424 281 424 403 424 403 425 281 425 279 425 403 426 279 426 404 426 404 427 279 427 277 427 404 428 277 428 405 428 405 429 277 429 275 429 405 430 275 430 406 430 406 431 275 431 273 431 406 432 273 432 407 432 407 433 273 433 271 433 407 267 271 267 408 267 408 434 271 434 269 434 408 77 269 77 409 77 409 77 269 77 267 77 409 264 267 264 410 264 410 435 267 435 265 435 410 436 265 436 411 436 411 437 265 437 263 437 411 438 263 438 412 438 412 439 263 439 261 439 412 440 261 440 413 440 413 441 261 441 259 441 413 442 259 442 414 442 414 443 259 443 257 443 414 444 257 444 415 444 415 445 257 445 255 445 415 446 255 446 416 446 416 447 255 447 253 447 416 448 253 448 417 448 417 449 253 449 251 449 417 450 251 450 418 450 418 451 251 451 249 451 418 452 249 452 419 452 419 453 249 453 247 453 419 454 247 454 420 454 420 455 247 455 245 455 420 456 245 456 421 456 421 457 245 457 243 457 421 458 243 458 422 458 422 459 243 459 241 459 422 460 241 460 423 460 423 461 241 461 239 461 423 462 239 462 424 462 424 463 239 463 237 463 424 464 237 464 425 464 425 465 237 465 235 465 425 466 235 466 426 466 426 467 235 467 233 467 426 468 233 468 427 468 427 469 233 469 231 469 427 470 231 470 428 470 428 470 231 470 229 470 428 471 229 471 429 471 429 472 229 472 227 472 429 473 227 473 430 473 430 474 227 474 225 474 430 475 225 475 431 475 431 476 225 476 223 476 431 477 223 477 432 477 432 478 223 478 221 478 432 479 221 479 433 479 433 480 221 480 219 480 433 481 219 481 434 481 434 481 219 481 217 481 434 482 217 482 435 482 435 483 217 483 215 483 435 484 215 484 436 484 436 485 215 485 213 485 436 486 213 486 437 486 437 487 213 487 211 487 437 488 211 488 438 488 438 489 211 489 209 489 438 490 209 490 439 490 439 491 209 491 207 491 439 492 207 492 440 492 440 493 207 493 205 493 440 494 205 494 441 494 441 495 205 495 203 495 441 496 203 496 442 496 442 497 203 497 201 497 442 498 201 498 443 498 443 499 201 499 199 499 443 500 199 500 444 500 444 501 199 501 197 501 444 502 197 502 445 502 445 503 197 503 195 503 445 504 195 504 446 504 446 505 195 505 193 505 446 506 193 506 447 506 447 507 193 507 191 507 447 508 191 508 448 508 448 509 191 509 189 509 448 510 189 510 449 510 449 511 189 511 187 511 449 512 187 512 450 512 450 513 187 513 185 513 450 514 185 514 451 514 451 515 185 515 183 515 451 516 183 516 452 516 452 517 183 517 181 517 452 190 181 190 453 190 453 518 181 518 179 518 453 519 179 519 454 519 454 520 179 520 177 520 454 521 177 521 360 521 360 522 177 522 175 522 1 523 266 523 3 523 3 152 266 152 268 152 3 524 268 524 5 524 5 152 268 152 270 152 5 525 270 525 7 525 7 152 270 152 272 152 7 526 272 526 9 526 9 152 272 152 274 152 9 527 274 527 11 527 11 152 274 152 276 152 11 152 276 152 278 152 266 528 1 528 264 528 264 152 1 152 169 152 264 529 169 529 262 529 262 530 169 530 167 530 262 531 167 531 260 531 260 152 167 152 165 152 260 152 165 152 258 152 258 152 165 152 256 152 256 532 165 532 163 532 256 533 163 533 254 533 254 534 163 534 161 534 254 152 161 152 252 152 252 535 161 535 159 535 252 152 159 152 250 152 250 536 159 536 157 536 250 152 157 152 248 152 248 152 157 152 155 152 248 152 155 152 246 152 246 537 155 537 153 537 246 152 153 152 244 152 244 152 153 152 151 152 244 152 151 152 242 152 242 152 151 152 149 152 242 538 149 538 240 538 240 539 149 539 147 539 240 152 147 152 238 152 238 152 147 152 236 152 236 540 147 540 145 540 236 541 145 541 234 541 234 542 145 542 143 542 234 152 143 152 232 152 232 543 143 543 141 543 232 152 141 152 230 152 230 544 141 544 139 544 230 152 139 152 228 152 228 545 139 545 137 545 228 152 137 152 226 152 226 546 137 546 135 546 226 152 135 152 224 152 224 547 135 547 133 547 224 152 133 152 222 152 222 548 133 548 131 548 222 152 131 152 220 152 220 152 131 152 218 152 218 549 131 549 129 549 218 152 129 152 216 152 216 550 129 550 127 550 216 152 127 152 214 152 214 551 127 551 125 551 214 152 125 152 212 152 212 552 125 552 123 552 212 152 123 152 210 152 210 553 123 553 121 553 210 152 121 152 208 152 208 554 121 554 119 554 208 152 119 152 206 152 206 555 119 555 117 555 206 152 117 152 204 152 204 556 117 556 115 556 204 152 115 152 202 152 202 152 115 152 113 152 202 152 113 152 200 152 200 557 113 557 198 557 198 152 113 152 111 152 198 152 111 152 196 152 196 558 111 558 109 558 196 559 109 559 194 559 194 152 109 152 107 152 194 560 107 560 192 560 192 561 107 561 105 561 192 152 105 152 190 152 190 562 105 562 103 562 190 152 103 152 188 152 188 563 103 563 101 563 188 152 101 152 186 152 186 564 101 564 99 564 186 565 99 565 184 565 184 566 99 566 97 566 184 567 97 567 182 567 182 568 97 568 180 568 180 152 97 152 95 152 180 569 95 569 178 569 178 152 95 152 93 152 178 570 93 570 176 570 176 152 93 152 91 152 176 571 91 571 174 571 174 152 91 152 89 152 174 572 89 572 172 572 172 152 89 152 87 152 172 152 87 152 170 152 170 152 87 152 85 152 170 571 85 571 358 571 358 152 85 152 83 152 358 152 83 152 356 152 356 152 83 152 81 152 356 152 81 152 354 152 354 152 81 152 79 152 354 152 79 152 352 152 352 573 79 573 350 573 350 566 79 566 77 566 350 152 77 152 348 152 348 564 77 564 75 564 348 152 75 152 346 152 346 563 75 563 73 563 346 152 73 152 344 152 344 562 73 562 71 562 344 152 71 152 342 152 342 561 71 561 69 561 342 152 69 152 340 152 340 152 69 152 67 152 340 574 67 574 338 574 338 558 67 558 65 558 338 152 65 152 336 152 336 152 65 152 63 152 336 152 63 152 334 152 334 575 63 575 332 575 332 152 63 152 61 152 332 576 61 576 330 576 330 556 61 556 59 556 330 152 59 152 328 152 328 555 59 555 57 555 328 152 57 152 326 152 326 554 57 554 55 554 326 152 55 152 324 152 324 553 55 553 53 553 324 152 53 152 322 152 322 552 53 552 51 552 322 152 51 152 320 152 320 551 51 551 49 551 320 152 49 152 318 152 318 550 49 550 47 550 318 152 47 152 316 152 316 549 47 549 45 549 316 152 45 152 314 152 314 152 45 152 312 152 312 548 45 548 43 548 312 152 43 152 310 152 310 547 43 547 41 547 310 152 41 152 308 152 308 546 41 546 39 546 308 152 39 152 306 152 306 545 39 545 37 545 306 152 37 152 304 152 304 544 37 544 35 544 304 152 35 152 302 152 302 543 35 543 33 543 302 152 33 152 300 152 300 542 33 542 31 542 300 152 31 152 298 152 298 540 31 540 29 540 298 577 29 577 296 577 296 152 29 152 294 152 294 539 29 539 27 539 294 578 27 578 292 578 292 152 27 152 25 152 292 152 25 152 290 152 290 152 25 152 23 152 290 152 23 152 288 152 288 537 23 537 21 537 288 579 21 579 286 579 286 152 21 152 19 152 286 152 19 152 284 152 284 536 19 536 17 536 284 580 17 580 282 580 282 535 17 535 15 535 282 152 15 152 280 152 280 534 15 534 13 534 280 533 13 533 278 533 278 532 13 532 11 532 362 581 408 581 361 581 361 582 408 582 409 582 361 581 409 581 360 581 360 582 409 582 410 582 360 582 410 582 454 582 454 582 410 582 411 582 454 583 411 583 453 583 453 582 411 582 412 582 453 584 412 584 452 584 452 582 412 582 413 582 452 582 413 582 451 582 451 582 413 582 414 582 451 582 414 582 450 582 450 582 414 582 415 582 450 582 415 582 449 582 449 582 415 582 416 582 449 582 416 582 448 582 448 582 416 582 417 582 448 582 417 582 447 582 447 582 417 582 418 582 447 582 418 582 446 582 446 582 418 582 419 582 446 582 419 582 445 582 445 582 419 582 420 582 445 582 420 582 444 582 444 582 420 582 421 582 444 582 421 582 443 582 443 582 421 582 422 582 443 582 422 582 442 582 442 582 422 582 423 582 442 582 423 582 441 582 441 582 423 582 424 582 441 582 424 582 440 582 440 582 424 582 425 582 440 582 425 582 439 582 439 582 425 582 426 582 439 582 426 582 438 582 438 582 426 582 427 582 438 582 427 582 437 582 437 582 427 582 428 582 437 582 428 582 436 582 436 582 428 582 429 582 436 582 429 582 435 582 435 582 429 582 430 582 435 582 430 582 434 582 434 582 430 582 431 582 434 582 431 582 433 582 433 582 431 582 432 582 408 585 362 585 407 585 407 582 362 582 363 582 407 586 363 586 406 586 406 582 363 582 364 582 406 582 364 582 405 582 405 582 364 582 404 582 404 587 364 587 403 587 403 582 364 582 402 582 402 582 364 582 401 582 401 588 364 588 400 588 400 582 364 582 399 582 399 582 364 582 398 582 398 582 364 582 397 582 397 582 364 582 396 582 396 582 364 582 395 582 395 589 364 589 365 589 395 582 365 582 394 582 394 582 365 582 393 582 393 590 365 590 392 590 392 582 365 582 391 582 391 582 365 582 390 582 390 582 365 582 389 582 389 582 365 582 388 582 388 591 365 591 387 591 387 582 365 582 386 582 386 582 365 582 385 582 385 582 365 582 384 582 384 592 365 592 383 592 383 582 365 582 382 582 382 582 365 582 381 582 381 582 365 582 380 582 380 582 365 582 379 582 379 593 365 593 378 593 378 594 365 594 377 594 377 582 365 582 376 582 376 595 365 595 375 595 375 596 365 596 374 596 374 582 365 582 373 582 373 582 365 582 372 582 372 582 365 582 371 582 371 582 365 582 370 582 370 597 365 597 369 597 369 582 365 582 368 582 368 582 365 582 367 582 367 598 365 598 366 598</p>
        </triangles>
      </mesh>
    </geometry>
  </library_geometries>
  <library_visual_scenes>
    <visual_scene id="Scene" name="Scene">
      <node id="node" name="node" type="NODE">
        <matrix sid="transform">0.001 0 0 0 0 0.001 0 0 0 0 0.001 -9.31323e-10 0 0 0 1</matrix>
        <instance_geometry url="#shape0_002-mesh" name="node">
          <bind_material>
            <technique_common>
              <instance_material symbol="BLUE_001-material" target="#BLUE_001-material"/>
            </technique_common>
          </bind_material>
        </instance_geometry>
      </node>
    </visual_scene>
  </library_visual_scenes>
  <scene>
    <instance_visual_scene url="#Scene"/>
  </scene>
</COLLADA>