<?xml version="1.0" encoding="utf-8"?>
<COLLADA xmlns="http://www.collada.org/2005/11/COLLADASchema" version="1.4.1" xmlns:xsi="http://www.w3.org/2001/XMLSchema-instance">
  <asset>
    <contributor>
      <author>Blender User</author>
      <authoring_tool>Blender 4.3.2 commit date:2024-12-16, commit time:21:10, hash:32f5fdce0a0a</authoring_tool>
    </contributor>
    <created>2025-02-10T17:08:39</created>
    <modified>2025-02-10T17:08:39</modified>
    <unit name="meter" meter="1"/>
    <up_axis>Z_UP</up_axis>
  </asset>
  <library_effects>
    <effect id="BLACK-effect">
      <profile_COMMON>
        <technique sid="common">
          <lambert>
            <emission>
              <color sid="emission">0 0 0 1</color>
            </emission>
            <diffuse>
              <color sid="diffuse">0.1087898 0.1087898 0.1087898 1</color>
            </diffuse>
            <index_of_refraction>
              <float sid="ior">1.5</float>
            </index_of_refraction>
          </lambert>
        </technique>
      </profile_COMMON>
    </effect>
  </library_effects>
  <library_images/>
  <library_materials>
    <material id="BLACK-material" name="BLACK">
      <instance_effect url="#BLACK-effect"/>
    </material>
  </library_materials>
  <library_geometries>
    <geometry id="shape0-mesh" name="shape0">
      <mesh>
        <source id="shape0-mesh-positions">
          <float_array id="shape0-mesh-positions-array" count="2172">79.8919 52.5442 5 20.1081 52.5442 5 80 50 5 20 50 5 79.8919 47.4558 5 20.1081 47.4558 5 79.5685 44.93 5 20.4315 44.93 5 79.03201 42.4407 5 20.968 42.4407 5 78.2863 40.0058 5 21.7137 40.0058 5 77.3369 37.643 5 22.6631 37.643 5 76.1904 35.3692 5 23.8096 35.3692 5 74.8553 33.2008 5 25.1447 33.2008 5 73.3411 31.1534 5 26.6589 31.1534 5 71.6587 29.2418 5 28.3413 29.2418 5 69.8202 27.4798 5 30.1798 27.4798 5 67.83901 25.8801 5 32.161 25.8801 5 65.7292 24.4541 5 34.2708 24.4541 5 63.5061 23.2122 5 36.4939 23.2122 5 61.1857 22.1633 5 38.8143 22.1633 5 58.7847 21.315 5 41.2153 21.315 5 56.3204 20.6733 5 43.6796 20.6733 5 53.8105 20.243 5 46.1895 20.243 5 51.2732 20.027 5 48.7268 20.027 5 20.4315 55.07 5 79.5685 55.07 5 20.968 57.5593 5 79.03201 57.5593 5 21.7137 59.9942 5 78.2863 59.9942 5 22.6631 62.357 5 77.3369 62.357 5 23.8096 64.6309 5 76.1904 64.6309 5 25.1447 66.7992 5 74.8553 66.7992 5 26.6589 68.8466 5 73.3411 68.8466 5 28.3413 70.7582 5 71.6587 70.7582 5 30.1798 72.5202 5 69.8202 72.5202 5 32.161 74.1199 5 67.83901 74.1199 5 34.2708 75.5459 5 65.7292 75.5459 5 36.4939 76.7878 5 63.5061 76.7878 5 38.8143 77.8367 5 61.1857 77.8367 5 41.2153 78.68501 5 58.7847 78.68501 5 43.6796 79.3267 5 56.3204 79.3267 5 46.1895 79.75701 5 53.8105 79.75701 5 48.7268 79.97301 5 51.2732 79.97301 5 8.39535 101.33 25 8.39535 101.33 15 8.5 100 25 8.5 100 15 8.39535 98.6703 25 8.39535 98.6703 15 8.08398 97.3734 25 8.08398 97.3734 15 7.57356 96.1411 25 7.57356 96.1411 15 6.87664 95.0038 25 6.87664 95.0038 15 6.01041 93.9896 25 6.01041 93.9896 15 4.99617 93.1234 25 4.99617 93.1234 15 3.85892 92.4264 25 3.85892 92.4264 15 2.62664 91.91601 25 2.62664 91.91601 15 1.32969 91.6047 25 1.32969 91.6047 15 0 91.5 25 0 91.5 15 -1.32969 91.6047 25 -1.32969 91.6047 15 -2.62664 91.91601 25 -2.62664 91.91601 15 -3.85892 92.4264 25 -3.85892 92.4264 15 -4.99617 93.1234 25 -4.99617 93.1234 15 -6.01041 93.9896 25 -6.01041 93.9896 15 -6.87664 95.0038 25 -6.87664 95.0038 15 -7.57356 96.1411 25 -7.57356 96.1411 15 -8.08398 97.3734 25 -8.08398 97.3734 15 -8.39535 98.6703 25 -8.39535 98.6703 15 -8.5 100 25 -8.5 100 15 -8.39535 101.33 25 -8.39535 101.33 15 -8.08398 102.627 25 -8.08398 102.627 15 -7.57356 103.859 25 -7.57356 103.859 15 -6.87664 104.996 25 -6.87664 104.996 15 -6.01041 106.01 25 -6.01041 106.01 15 -4.99617 106.877 25 -4.99617 106.877 15 -3.85892 107.574 25 -3.85892 107.574 15 -2.62664 108.084 25 -2.62664 108.084 15 -1.32969 108.395 25 -1.32969 108.395 15 0 108.5 25 0 108.5 15 1.32969 108.395 25 1.32969 108.395 15 2.62664 108.084 25 2.62664 108.084 15 3.85892 107.574 25 3.85892 107.574 15 4.99617 106.877 25 4.99617 106.877 15 6.01041 106.01 25 6.01041 106.01 15 6.87664 104.996 25 6.87664 104.996 15 7.57356 103.859 25 7.57356 103.859 15 8.08398 102.627 25 8.08398 102.627 15 108.395 101.33 25 108.395 101.33 15 108.5 100 25 108.5 100 15 108.395 98.6703 25 108.395 98.6703 15 108.084 97.3734 25 108.084 97.3734 15 107.574 96.1411 25 107.574 96.1411 15 106.877 95.0038 25 106.877 95.0038 15 106.01 93.9896 25 106.01 93.9896 15 104.996 93.1234 25 104.996 93.1234 15 103.859 92.4264 25 103.859 92.4264 15 102.627 91.91601 25 102.627 91.91601 15 101.33 91.6047 25 101.33 91.6047 15 100 91.5 25 100 91.5 15 98.6703 91.6047 25 98.6703 91.6047 15 97.3734 91.91601 25 97.3734 91.91601 15 96.1411 92.4264 25 96.1411 92.4264 15 95.0038 93.1234 25 95.0038 93.1234 15 93.9896 93.9896 25 93.9896 93.9896 15 93.1234 95.0038 25 93.1234 95.0038 15 92.4264 96.1411 25 92.4264 96.1411 15 91.91601 97.3734 25 91.91601 97.3734 15 91.6047 98.6703 25 91.6047 98.6703 15 91.5 100 25 91.5 100 15 91.6047 101.33 25 91.6047 101.33 15 91.91601 102.627 25 91.91601 102.627 15 92.4264 103.859 25 92.4264 103.859 15 93.1234 104.996 25 93.1234 104.996 15 93.9896 106.01 25 93.9896 106.01 15 95.0038 106.877 25 95.0038 106.877 15 96.1411 107.574 25 96.1411 107.574 15 97.3734 108.084 25 97.3734 108.084 15 98.6703 108.395 25 98.6703 108.395 15 100 108.5 25 100 108.5 15 101.33 108.395 25 101.33 108.395 15 102.627 108.084 25 102.627 108.084 15 103.859 107.574 25 103.859 107.574 15 104.996 106.877 25 104.996 106.877 15 106.01 106.01 25 106.01 106.01 15 106.877 104.996 25 106.877 104.996 15 107.574 103.859 25 107.574 103.859 15 108.084 102.627 25 108.084 102.627 15 79.8919 47.4558 25 80 50 25 79.8919 52.5442 25 79.5685 55.07 25 79.03201 57.5593 25 78.2863 59.9942 25 77.3369 62.357 25 76.1904 64.6309 25 74.8553 66.7992 25 73.3411 68.8466 25 71.6587 70.7582 25 69.8202 72.5202 25 67.83901 74.1199 25 65.7292 75.5459 25 63.5061 76.7878 25 61.1857 77.8367 25 58.7847 78.68501 25 56.3204 79.3267 25 53.8105 79.75701 25 51.2732 79.97301 25 48.7268 79.97301 25 46.1895 79.75701 25 43.6796 79.3267 25 41.2153 78.68501 25 38.8143 77.8367 25 36.4939 76.7878 25 34.2708 75.5459 25 32.161 74.1199 25 30.1798 72.5202 25 28.3413 70.7582 25 26.6589 68.8466 25 25.1447 66.7992 25 23.8096 64.6309 25 22.6631 62.357 25 21.7137 59.9942 25 20.968 57.5593 25 20.4315 55.07 25 20.1081 52.5442 25 20 50 25 20.1081 47.4558 25 20.4315 44.93 25 20.968 42.4407 25 21.7137 40.0058 25 22.6631 37.643 25 23.8096 35.3692 25 25.1447 33.2008 25 26.6589 31.1534 25 28.3413 29.2418 25 30.1798 27.4798 25 32.161 25.8801 25 34.2708 24.4541 25 36.4939 23.2122 25 38.8143 22.1633 25 41.2153 21.315 25 43.6796 20.6733 25 46.1895 20.243 25 48.7268 20.027 25 51.2732 20.027 25 53.8105 20.243 25 56.3204 20.6733 25 58.7847 21.315 25 61.1857 22.1633 25 63.5061 23.2122 25 65.7292 24.4541 25 67.83901 25.8801 25 69.8202 27.4798 25 71.6587 29.2418 25 73.3411 31.1534 25 74.8553 33.2008 25 76.1904 35.3692 25 77.3369 37.643 25 78.2863 40.0058 25 79.03201 42.4407 25 79.5685 44.93 25 8.39535 1.32969 25 8.39535 1.32969 15 8.5 0 25 8.5 0 15 8.39535 -1.32969 25 8.39535 -1.32969 15 8.08398 -2.62664 25 8.08398 -2.62664 15 7.57356 -3.85892 25 7.57356 -3.85892 15 6.87664 -4.99617 25 6.87664 -4.99617 15 6.01041 -6.01041 25 6.01041 -6.01041 15 4.99617 -6.87664 25 4.99617 -6.87664 15 3.85892 -7.57356 25 3.85892 -7.57356 15 2.62664 -8.08398 25 2.62664 -8.08398 15 1.32969 -8.39535 25 1.32969 -8.39535 15 0 -8.5 25 0 -8.5 15 -1.32969 -8.39535 25 -1.32969 -8.39535 15 -2.62664 -8.08398 25 -2.62664 -8.08398 15 -3.85892 -7.57356 25 -3.85892 -7.57356 15 -4.99617 -6.87664 25 -4.99617 -6.87664 15 -6.01041 -6.01041 25 -6.01041 -6.01041 15 -6.87664 -4.99617 25 -6.87664 -4.99617 15 -7.57356 -3.85892 25 -7.57356 -3.85892 15 -8.08398 -2.62664 25 -8.08398 -2.62664 15 -8.39535 -1.32969 25 -8.39535 -1.32969 15 -8.5 0 25 -8.5 0 15 -8.39535 1.32969 25 -8.39535 1.32969 15 -8.08398 2.62664 25 -8.08398 2.62664 15 -7.57356 3.85892 25 -7.57356 3.85892 15 -6.87664 4.99617 25 -6.87664 4.99617 15 -6.01041 6.01041 25 -6.01041 6.01041 15 -4.99617 6.87664 25 -4.99617 6.87664 15 -3.85892 7.57356 25 -3.85892 7.57356 15 -2.62664 8.08398 25 -2.62664 8.08398 15 -1.32969 8.39535 25 -1.32969 8.39535 15 0 8.5 25 0 8.5 15 1.32969 8.39535 25 1.32969 8.39535 15 2.62664 8.08398 25 2.62664 8.08398 15 3.85892 7.57356 25 3.85892 7.57356 15 4.99617 6.87664 25 4.99617 6.87664 15 6.01041 6.01041 25 6.01041 6.01041 15 6.87664 4.99617 25 6.87664 4.99617 15 7.57356 3.85892 25 7.57356 3.85892 15 8.08398 2.62664 25 8.08398 2.62664 15 108.395 1.32969 25 108.395 1.32969 15 108.5 0 25 108.5 0 15 108.395 -1.32969 25 108.395 -1.32969 15 108.084 -2.62664 25 108.084 -2.62664 15 107.574 -3.85892 25 107.574 -3.85892 15 106.877 -4.99617 25 106.877 -4.99617 15 106.01 -6.01041 25 106.01 -6.01041 15 104.996 -6.87664 25 104.996 -6.87664 15 103.859 -7.57356 25 103.859 -7.57356 15 102.627 -8.08398 25 102.627 -8.08398 15 101.33 -8.39535 25 101.33 -8.39535 15 100 -8.5 25 100 -8.5 15 98.6703 -8.39535 25 98.6703 -8.39535 15 97.3734 -8.08398 25 97.3734 -8.08398 15 96.1411 -7.57356 25 96.1411 -7.57356 15 95.0038 -6.87664 25 95.0038 -6.87664 15 93.9896 -6.01041 25 93.9896 -6.01041 15 93.1234 -4.99617 25 93.1234 -4.99617 15 92.4264 -3.85892 25 92.4264 -3.85892 15 91.91601 -2.62664 25 91.91601 -2.62664 15 91.6047 -1.32969 25 91.6047 -1.32969 15 91.5 0 25 91.5 0 15 91.6047 1.32969 25 91.6047 1.32969 15 91.91601 2.62664 25 91.91601 2.62664 15 92.4264 3.85892 25 92.4264 3.85892 15 93.1234 4.99617 25 93.1234 4.99617 15 93.9896 6.01041 25 93.9896 6.01041 15 95.0038 6.87664 25 95.0038 6.87664 15 96.1411 7.57356 25 96.1411 7.57356 15 97.3734 8.08398 25 97.3734 8.08398 15 98.6703 8.39535 25 98.6703 8.39535 15 100 8.5 25 100 8.5 15 101.33 8.39535 25 101.33 8.39535 15 102.627 8.08398 25 102.627 8.08398 15 103.859 7.57356 25 103.859 7.57356 15 104.996 6.87664 25 104.996 6.87664 15 106.01 6.01041 25 106.01 6.01041 15 106.877 4.99617 25 106.877 4.99617 15 107.574 3.85892 25 107.574 3.85892 15 108.084 2.62664 25 108.084 2.62664 15 110 -10 25 -10 -10 25 110 110 25 -10 110 25 104.974 0.505842 15 104.974 -0.505842 15 104.771 -1.49682 15 104.372 -2.42651 15 103.794 -3.25686 15 103.061 -3.95388 15 102.202 -4.48902 15 101.253 -4.84039 15 100.253 -4.99358 15 99.2429 -4.94234 15 98.2635 -4.68876 15 97.3552 -4.24322 15 96.5552 -3.62396 15 95.8962 -2.85634 15 95.4052 -1.97178 15 95.1023 -1.00649 15 95 0 15 95.1023 1.00649 15 95.4052 1.97178 15 95.8962 2.85634 15 96.5552 3.62396 15 97.3552 4.24322 15 98.2635 4.68876 15 99.2429 4.94234 15 100.253 4.99358 15 101.253 4.84039 15 102.202 4.48902 15 103.061 3.95388 15 103.794 3.25686 15 104.372 2.42651 15 104.771 1.49682 15 -4.89765 1.00649 15 -5 0 15 -4.59479 1.97178 15 -4.10382 2.85634 15 -3.44483 3.62396 15 -2.64482 4.24322 15 -1.73653 4.68876 15 -0.757139 4.94234 15 0.253246 4.99358 15 1.25326 4.84039 15 2.20197 4.48902 15 3.06053 3.95388 15 3.79379 3.25686 15 4.37173 2.42651 15 4.7707 1.49682 15 4.97435 0.505842 15 4.97435 -0.505842 15 4.7707 -1.49682 15 4.37173 -2.42651 15 3.79379 -3.25686 15 3.06053 -3.95388 15 2.20197 -4.48902 15 1.25326 -4.84039 15 0.253246 -4.99358 15 -0.757139 -4.94234 15 -1.73653 -4.68876 15 -2.64482 -4.24322 15 -3.44483 -3.62396 15 -4.10382 -2.85634 15 -4.59479 -1.97178 15 -4.89765 -1.00649 15 95.1023 101.006 15 95 100 15 95.4052 101.972 15 95.8962 102.856 15 96.5552 103.624 15 97.3552 104.243 15 98.2635 104.689 15 99.2429 104.942 15 100.253 104.994 15 101.253 104.84 15 102.202 104.489 15 103.061 103.954 15 103.794 103.257 15 104.372 102.427 15 104.771 101.497 15 104.974 100.506 15 104.974 99.4942 15 104.771 98.5032 15 104.372 97.5735 15 103.794 96.7431 15 103.061 96.0461 15 102.202 95.511 15 101.253 95.1596 15 100.253 95.0064 15 99.2429 95.0577 15 98.2635 95.3112 15 97.3552 95.7568 15 96.5552 96.37601 15 95.8962 97.1437 15 95.4052 98.0282 15 95.1023 98.9935 15 -4.89765 98.9935 15 -4.89765 98.9935 0 -5 100 15 -5 100 0 -4.89765 101.006 15 -4.89765 101.006 0 -4.59479 101.972 15 -4.59479 101.972 0 -4.10382 102.856 15 -4.10382 102.856 0 -3.44483 103.624 15 -3.44483 103.624 0 -2.64482 104.243 15 -2.64482 104.243 0 -1.73653 104.689 15 -1.73653 104.689 0 -0.757139 104.942 15 -0.757139 104.942 0 0.253246 104.994 15 0.253246 104.994 0 1.25326 104.84 15 1.25326 104.84 0 2.20197 104.489 15 2.20197 104.489 0 3.06053 103.954 15 3.06053 103.954 0 3.79379 103.257 15 3.79379 103.257 0 4.37173 102.427 15 4.37173 102.427 0 4.7707 101.497 15 4.7707 101.497 0 4.97435 100.506 15 4.97435 100.506 0 4.97435 99.4942 15 4.97435 99.4942 0 4.7707 98.5032 15 4.7707 98.5032 0 4.37173 97.5735 15 4.37173 97.5735 0 3.79379 96.7431 15 3.79379 96.7431 0 3.06053 96.0461 15 3.06053 96.0461 0 2.20197 95.511 15 2.20197 95.511 0 1.25326 95.1596 15 1.25326 95.1596 0 0.253246 95.0064 15 0.253246 95.0064 0 -0.757139 95.0577 15 -0.757139 95.0577 0 -1.73653 95.3112 15 -1.73653 95.3112 0 -2.64482 95.7568 15 -2.64482 95.7568 0 -3.44483 96.37601 15 -3.44483 96.37601 0 -4.10382 97.1437 15 -4.10382 97.1437 0 -4.59479 98.0282 15 -4.59479 98.0282 0 95.1023 -1.00649 0 95 0 0 95.1023 1.00649 0 95.4052 1.97178 0 95.8962 2.85634 0 96.5552 3.62396 0 97.3552 4.24322 0 98.2635 4.68876 0 99.2429 4.94234 0 100.253 4.99358 0 101.253 4.84039 0 102.202 4.48902 0 103.061 3.95388 0 103.794 3.25686 0 104.372 2.42651 0 104.771 1.49682 0 104.974 0.505842 0 104.974 -0.505842 0 104.771 -1.49682 0 104.372 -2.42651 0 103.794 -3.25686 0 103.061 -3.95388 0 102.202 -4.48902 0 101.253 -4.84039 0 100.253 -4.99358 0 99.2429 -4.94234 0 98.2635 -4.68876 0 97.3552 -4.24322 0 96.5552 -3.62396 0 95.8962 -2.85634 0 95.4052 -1.97178 0 -4.89765 -1.00649 0 -5 0 0 -4.89765 1.00649 0 -4.59479 1.97178 0 -4.10382 2.85634 0 -3.44483 3.62396 0 -2.64482 4.24322 0 -1.73653 4.68876 0 -0.757139 4.94234 0 0.253246 4.99358 0 1.25326 4.84039 0 2.20197 4.48902 0 3.06053 3.95388 0 3.79379 3.25686 0 4.37173 2.42651 0 4.7707 1.49682 0 4.97435 0.505842 0 4.97435 -0.505842 0 4.7707 -1.49682 0 4.37173 -2.42651 0 3.79379 -3.25686 0 3.06053 -3.95388 0 2.20197 -4.48902 0 1.25326 -4.84039 0 0.253246 -4.99358 0 -0.757139 -4.94234 0 -1.73653 -4.68876 0 -2.64482 -4.24322 0 -3.44483 -3.62396 0 -4.10382 -2.85634 0 -4.59479 -1.97178 0 95.1023 98.9935 0 95 100 0 95.1023 101.006 0 95.4052 101.972 0 95.8962 102.856 0 96.5552 103.624 0 97.3552 104.243 0 98.2635 104.689 0 99.2429 104.942 0 100.253 104.994 0 101.253 104.84 0 102.202 104.489 0 103.061 103.954 0 103.794 103.257 0 104.372 102.427 0 104.771 101.497 0 104.974 100.506 0 104.974 99.4942 0 104.771 98.5032 0 104.372 97.5735 0 103.794 96.7431 0 103.061 96.0461 0 102.202 95.511 0 101.253 95.1596 0 100.253 95.0064 0 99.2429 95.0577 0 98.2635 95.3112 0 97.3552 95.7568 0 96.5552 96.37601 0 95.8962 97.1437 0 95.4052 98.0282 0 -10 110 0 -10 -10 0 110 110 0 110 -10 0</float_array>
          <technique_common>
            <accessor source="#shape0-mesh-positions-array" count="724" stride="3">
              <param name="X" type="float"/>
              <param name="Y" type="float"/>
              <param name="Z" type="float"/>
            </accessor>
          </technique_common>
        </source>
        <source id="shape0-mesh-normals">
          <float_array id="shape0-mesh-normals-array" count="2643">0 0 1 -0.9969187 -0.07844275 0 -0.9969174 0.07845973 0 -0.9723677 0.2334547 0 -0.9723682 0.2334526 0 -0.9238836 0.3826738 0 -0.8526458 0.5224895 0 -0.8526463 0.5224887 0 -0.7603978 0.6494576 0 -0.7603976 0.649458 0 -0.6494312 0.7604205 0 -0.6494308 0.7604207 0 -0.5225482 0.8526098 0 -0.522548 0.8526099 0 -0.3826603 0.9238892 0 -0.3826608 0.9238891 0 -0.2334026 0.9723802 0 -0.2334026 0.9723802 0 -0.0784958 0.9969145 0 0.0784958 0.9969145 0 0.2334026 0.9723802 0 0.2334026 0.9723802 0 0.3826608 0.9238891 0 0.3826603 0.9238892 0 0.522548 0.8526099 0 0.5225482 0.8526098 0 0.6494308 0.7604207 0 0.6494312 0.7604205 0 0.7603976 0.649458 0 0.7603978 0.6494576 0 0.8526463 0.5224887 0 0.8526458 0.5224895 0 0.9238836 0.3826738 0 0.9723682 0.2334526 0 0.9723677 0.2334547 0 0.9969174 0.07845973 0 0.9969187 -0.07844275 0 0.9723724 -0.2334352 0 0.972373 -0.2334331 0 0.9238501 -0.3827548 0 0.8525848 -0.5225889 0 0.8525854 -0.5225881 0 0.7603327 -0.6495339 0 0.7603324 -0.6495342 0 0.6497815 -0.7601211 0 0.6497812 -0.7601212 0 0.5225482 -0.8526098 0 0.522548 -0.8526099 0 0.3824113 -0.9239923 0 0.3824116 -0.923992 0 0.2331808 -0.9724335 0 0.2331808 -0.9724334 0 0.07871752 -0.9968971 0 -0.07871752 -0.9968971 0 -0.2331808 -0.9724334 0 -0.2331808 -0.9724335 0 -0.3824116 -0.923992 0 -0.3824113 -0.9239923 0 -0.522548 -0.8526099 0 -0.5225482 -0.8526098 0 -0.6497812 -0.7601212 0 -0.6497815 -0.7601211 0 -0.7603324 -0.6495342 0 -0.7603327 -0.6495339 0 -0.8525854 -0.5225881 0 -0.8525848 -0.5225889 0 -0.9238501 -0.3827548 0 -0.972373 -0.2334331 0 -0.9723724 -0.2334352 0 -0.9968994 -0.07868826 0 -0.9968979 -0.07870644 0 -0.9968966 0.07872349 0 -0.9968979 0.07870531 0 -0.972429 0.2331994 0 -0.9724332 0.2331821 0 -0.9239923 0.3824111 0 -0.8526284 0.5225178 0 -0.8526121 0.5225444 0 -0.7601063 0.6497988 0 -0.7601153 0.6497882 0 -0.7604267 0.6494238 0 -0.7604267 0.6494238 0 -0.6495238 0.7603414 0 -0.6495148 0.7603491 0 -0.5226359 0.852556 0 -0.5226278 0.8525611 0 -0.3827394 0.9238564 0 -0.3827329 0.9238591 0 -0.2333946 0.9723821 0 -0.2333904 0.9723832 0 -0.07847732 0.9969159 0 -0.07847875 0.9969158 0 0.07849454 0.9969146 0 0.07849526 0.9969145 0 0.2334133 0.9723777 0 0.2334112 0.9723781 0 0.3826553 0.9238913 0 0.5225299 0.8526211 0 0.6494515 0.7604031 0 0.6494424 0.7604108 0 0.7604136 0.6494391 0 0.7604046 0.6494497 0 0.8526203 0.5225311 0 0.8526163 0.5225377 0 0.9238921 0.3826533 0 0.972377 0.2334157 0 0.9723792 0.2334071 0 0.9969152 0.07848703 0 0.9969137 0.07850521 0 0.9969151 -0.07848823 0 0.9969165 -0.07846999 0 0.9723839 -0.2333877 0 0.9723817 -0.2333963 0 0.9238585 -0.3827342 0 0.8525553 -0.5226371 0 0.8525594 -0.5226305 0 0.7603395 -0.649526 0 0.7603484 -0.6495154 0 0.6497929 -0.7601114 0 0.6498019 -0.7601037 0 0.5225299 -0.8526211 0 0.3831148 -0.9237008 0 0.3831148 -0.9237008 0 0.3831148 -0.9237008 0 0.3831148 -0.9237008 0 0.3831148 -0.9237008 0 0.3831148 -0.9237008 0 0.2331894 -0.9724314 0 0.2331915 -0.9724308 0 0.07871693 -0.996897 0 0.07804715 -0.9969497 0 0.07804715 -0.9969497 7.98676e-7 0.07804715 -0.9969497 0 -0.07870042 -0.9968984 0 -0.07802993 -0.9969511 0 -0.07812547 -0.9969436 0 -0.07812547 -0.9969436 0 -0.2331687 -0.9724363 0 -0.2331728 -0.9724354 0 -0.3824838 -0.9239622 0 -0.3828004 -0.9238312 0 -0.3828004 -0.9238311 0 -0.3828004 -0.9238311 0 -0.5226278 -0.8525611 0 -0.5226359 -0.852556 0 -0.6498652 -0.7600496 0 -0.6498742 -0.7600418 0 -0.7600502 -0.6498645 0 -0.7603525 -0.6495106 0 -0.7600411 -0.6498751 0 -0.8525512 -0.5226438 0 -0.8525675 -0.5226172 0 -0.9236653 -0.3832006 0 -0.9236285 -0.3832891 0 -0.9236653 -0.3832006 -1.00366e-6 -0.9235917 -0.3833777 0 -0.9236653 -0.3832006 0 -0.9236653 -0.3832006 0 -0.9724378 -0.2331627 0 -0.9724336 -0.2331799 0 -0.9990985 0.04245257 0 -0.9990987 0.0424478 0 -0.9990987 -0.04244786 0 -0.9990985 -0.04245269 0 -0.9919019 -0.1270067 0 -0.9919025 -0.127002 0 -0.9775542 -0.2106845 0 -0.9775562 -0.2106753 0 -0.9561628 -0.2928357 0 -0.9561655 -0.292827 0 -0.9278943 -0.3728433 0 -0.9278976 -0.3728351 0 -0.8929204 -0.4502147 0 -0.8929223 -0.4502109 0 -0.8515262 -0.5243122 0 -0.851524 -0.5243157 0 -0.8040061 -0.5946211 0 -0.8040038 -0.5946242 0 -0.7506753 -0.6606714 0 -0.75068 -0.6606661 0 -0.6919252 -0.7219693 0 -0.6282206 -0.7780352 0 -0.6282183 -0.7780371 0 -0.5599838 -0.8285036 0 -0.5599771 -0.8285081 0 -0.4876955 -0.8730138 0 -0.4119073 -0.9112258 0 -0.3331318 -0.9428803 0 -0.2519931 -0.9677292 0 -0.2519919 -0.9677293 0 -0.1689808 -0.9856194 0 -0.08482122 -0.9963962 0 -0.08482164 -0.9963963 0 0 -1 0 0.08482122 -0.9963962 0 0.08482146 -0.9963962 0 0.1689804 -0.9856195 0 0.1689812 -0.9856193 0 0.2519925 -0.9677292 0 0.3331326 -0.94288 0 0.3331318 -0.9428803 0 0.4119064 -0.9112262 0 0.4119073 -0.9112258 0 0.4876945 -0.8730144 0 0.5599827 -0.8285043 0 0.5599838 -0.8285036 0 0.6282183 -0.7780371 0 0.6282171 -0.7780381 0 0.6919252 -0.7219693 0 0.7506764 -0.6606701 0 0.7506777 -0.6606687 0 0.804005 -0.5946226 0 0.8040061 -0.5946211 0 0.8515256 -0.5243131 0 0.8515251 -0.524314 0 0.8929218 -0.4502118 0 0.9278964 -0.3728382 0 0.927896 -0.3728392 0 0.9561648 -0.2928292 0 0.9561645 -0.2928302 0 0.9775539 -0.2106856 0 0.9775542 -0.2106845 0 0.9919023 -0.1270032 0 0.9919027 -0.1270009 0 0.9990986 -0.04245024 0 0.9990987 0.04245018 0 0.9919026 0.1270011 0 0.9919024 0.1270034 0 0.9775542 0.2106845 0 0.9775539 0.2106856 0 0.9561647 0.2928298 0 0.9561649 0.2928287 0 0.9278956 0.3728402 0 0.927896 0.3728392 0 0.8929146 0.4502263 0 0.8515354 0.5242972 0 0.8515359 0.5242964 0 0.8040069 0.59462 0 0.8040058 0.5946215 0 0.7506767 0.6606698 0 0.7506755 0.6606712 0 0.6919264 0.7219682 0 0.6919264 0.7219681 0 0.6282167 0.7780386 0 0.6282179 0.7780376 0 0.5599833 0.8285039 0 0.5599822 0.8285047 0 0.4876951 0.8730142 0 0.411906 0.9112264 0 0.4119051 0.9112268 0 0.3331298 0.9428811 0 0.3331306 0.9428808 0 0.2519953 0.9677285 0 0.1689761 0.9856202 0 0.1689753 0.9856204 0 0.08482295 0.9963961 0 0.08482271 0.9963961 0 0 1 0 -0.08482313 0.9963961 0 -0.08482271 0.9963961 0 -0.1689757 0.9856203 0 -0.2519947 0.9677287 0 -0.2519959 0.9677283 0 -0.3331298 0.9428811 0 -0.411906 0.9112264 0 -0.4876961 0.8730136 0 -0.5599766 0.8285084 0 -0.5599833 0.8285039 0 -0.6282178 0.7780376 0 -0.6282202 0.7780357 0 -0.6919264 0.7219682 0 -0.6919264 0.7219681 0 -0.750679 0.6606671 0 -0.7506743 0.6606726 0 -0.8040046 0.5946231 0 -0.8040069 0.5946199 0 -0.8515343 0.524299 0 -0.8515365 0.5242955 0 -0.8929151 0.4502254 0 -0.8929131 0.4502292 0 -0.9278972 0.3728361 0 -0.9278939 0.3728444 0 -0.9561656 0.2928265 0 -0.9561629 0.2928353 0 -0.9775562 0.2106753 0 -0.9775542 0.2106845 0 -0.9919025 0.1270022 0 -0.9919019 0.127007 0 -0.9969173 -0.07846057 0 -0.9969173 0.07846057 0 -0.9723699 0.2334458 0 -0.9723704 0.2334437 0 -0.9238814 0.3826789 0 -0.9238814 0.3826791 0 -0.8526359 0.5225055 0 -0.8526363 0.5225048 0 -0.760411 0.6494423 0 -0.7604107 0.6494426 0 -0.6494427 0.7604106 0 -0.6494424 0.7604109 0 -0.5225054 0.852636 0 -0.5225051 0.8526362 0 -0.3826786 0.9238815 0 -0.3826791 0.9238814 0 -0.2334451 0.97237 0 -0.2334452 0.97237 0 -0.07846027 0.9969173 0 0.07846027 0.9969173 0 0.2334452 0.97237 0 0.2334451 0.97237 0 0.3826791 0.9238814 0 0.3826786 0.9238815 0 0.5225051 0.8526362 0 0.5225054 0.852636 0 0.6494424 0.7604109 0 0.6494427 0.7604106 0 0.7604107 0.6494426 0 0.760411 0.6494423 0 0.8526365 0.5225048 0 0.8526359 0.5225057 0 0.9238814 0.3826789 0 0.9238814 0.3826791 0 0.9723704 0.2334437 0 0.9723698 0.2334459 0 0.9969173 0.07846057 0 0.9969173 -0.07846057 0 0.9723699 -0.2334458 0 0.9723704 -0.2334437 0 0.9238814 -0.3826789 0 0.9238814 -0.3826791 0 0.8526359 -0.5225055 0 0.8526363 -0.5225048 0 0.760411 -0.6494423 0 0.7604107 -0.6494426 0 0.6494427 -0.7604106 0 0.6494424 -0.7604109 0 0.5225054 -0.852636 0 0.5225051 -0.8526362 0 0.3826786 -0.9238815 0 0.3826791 -0.9238814 0 0.2334451 -0.97237 0 0.2334452 -0.97237 0 0.07846027 -0.9969173 0 -0.07846027 -0.9969173 0 -0.2334452 -0.97237 0 -0.2334451 -0.97237 0 -0.3826791 -0.9238814 0 -0.3826786 -0.9238815 0 -0.5225051 -0.8526362 0 -0.5225054 -0.852636 0 -0.6494424 -0.7604109 0 -0.6494427 -0.7604106 0 -0.7604107 -0.6494426 0 -0.760411 -0.6494423 0 -0.8526365 -0.5225048 0 -0.8526359 -0.5225057 0 -0.9238814 -0.3826789 0 -0.9238814 -0.3826791 0 -0.9723704 -0.2334437 0 -0.9723698 -0.2334459 0 -0.9969505 -0.07803708 0 -0.9969505 -0.07803708 0 -0.9969505 -0.07803708 0 -0.9968965 -0.07872438 0 -0.9968965 0.07872438 0 -0.9969505 0.07803708 0 -0.9969505 0.07803708 0 -0.9969505 0.07803708 0 -0.9724311 0.2331905 0 -0.972301 0.2337327 0 -0.972301 0.2337327 5.94606e-7 -0.972301 0.2337327 0 -0.9239903 0.3824163 0 -0.9239901 0.3824163 0 -0.8526186 0.5225338 0 -0.8526022 0.5225605 0 -0.7604308 0.649419 0 -0.7604309 0.649419 0 -0.7604308 0.649419 0 -0.7601284 0.6497728 0 -0.6495354 0.7603315 0 -0.6495264 0.7603392 0 -0.522593 0.8525823 0 -0.5225849 0.8525873 0 -0.3827577 0.9238488 0 -0.3827512 0.9238516 0 -0.2334371 0.9723719 0 -0.233433 0.972373 0 -0.07844185 0.9969188 0 -0.07844322 0.9969186 0 0.07845902 0.9969174 0 0.07845973 0.9969174 0 0.2334558 0.9723675 0 0.2334538 0.9723679 0 0.3826736 0.9238837 0 0.522487 0.8526473 0 0.6494631 0.7603932 0 0.649454 0.7604009 0 0.7604268 0.6494237 0 0.7604177 0.6494343 0 0.8526104 0.5225471 0 0.8526064 0.5225539 0 0.9238899 0.3826584 0 0.9238899 0.3826586 0 0.9723792 0.2334069 0 0.9723812 0.2333983 0 0.9969151 0.07848787 0 0.9969137 0.07850605 0 0.9969137 -0.07850605 0 0.9969151 -0.07848787 0 0.9723813 -0.2333982 0 0.9723792 -0.233407 0 0.9238899 -0.3826584 0 0.9238899 -0.3826586 0 0.8526064 -0.5225538 0 0.8526104 -0.5225473 0 0.7604177 -0.6494343 0 0.7604268 -0.6494237 0 0.649454 -0.7604009 0 0.6494631 -0.7603932 0 0.522487 -0.8526473 0 0.3826736 -0.9238837 0 0.2334538 -0.9723679 0 0.2334558 -0.9723675 0 0.07845973 -0.9969174 0 0.07845902 -0.9969174 0 -0.07844322 -0.9969186 0 -0.07844185 -0.9969188 0 -0.233433 -0.972373 0 -0.2334371 -0.9723719 0 -0.3827512 -0.9238516 0 -0.3827577 -0.9238488 0 -0.5225849 -0.8525873 0 -0.522593 -0.8525823 0 -0.6495264 -0.7603392 0 -0.6495354 -0.7603315 0 -0.7601284 -0.6497728 0 -0.7604309 -0.649419 0 -0.7604308 -0.649419 0 -0.7604308 -0.649419 0 -0.8526023 -0.5225604 0 -0.8526186 -0.522534 0 -0.9239903 -0.3824163 0 -0.9239901 -0.3824163 0 -0.9724352 -0.2331732 0 -0.9724311 -0.2331906 0 -1.59676e-6 0 1 3.25149e-6 0 1 2.03405e-6 0 1 -5.41965e-7 0 1 -6.22924e-7 0 1 1.59583e-6 0 1 -1.25422e-6 0 1 4.02375e-6 0 1 -4.02382e-6 0 1 1.2544e-6 0 1 -3.13529e-6 0 1 1.65413e-6 0 1 -2.15674e-6 0 1 2.95788e-6 0 1 -1.54657e-6 0 1 3.70404e-6 0 1 -2.5484e-6 0 1 8.80774e-7 0 1 1.06184e-6 0 1 5.33463e-7 0 1 -1.16119e-6 0 1 2.96582e-6 0 1 -3.18029e-7 0 1 4.63813e-7 0 1 -4.81288e-7 0 1 1.53198e-6 0 1 -3.30942e-6 0 1 3.33469e-6 0 1 -3.41139e-6 0 1 2.41186e-7 0 1 -1.8697e-6 0 1 8.26988e-7 0 1 -1.50291e-6 0 1 1.15512e-6 0 1 -1.11312e-6 0 1 1.4879e-6 0 1 -1.45389e-6 0 1 -7.19001e-7 0 1 -1.78636e-6 0 1 3.55646e-7 0 1 1.48761e-6 0 1 -1.76978e-6 0 1 1.49189e-6 0 1 -1.40921e-6 0 1 1.49738e-6 0 1 -1.5062e-6 0 1 1.76388e-6 0 1 3.5794e-7 0 1 1.10892e-6 0 1 -7.84224e-7 0 1 7.84244e-7 0 1 -1.10891e-6 0 1 -3.57945e-7 0 1 -1.76384e-6 0 1 1.50618e-6 0 1 -1.49739e-6 0 1 1.40924e-6 0 1 1.76976e-6 0 1 -1.48761e-6 0 1 -3.55638e-7 0 1 1.78641e-6 0 1 7.19005e-7 0 1 -1.48217e-6 0 1 1.45384e-6 0 1 1.11313e-6 0 1 -1.15539e-6 0 1 1.503e-6 0 1 -8.26728e-7 0 1 -2.41186e-7 0 1 -1.86971e-6 0 1 3.41033e-6 0 1 -3.33486e-6 0 1 3.30944e-6 0 1 -1.532e-6 0 1 4.81405e-7 0 1 -4.63817e-7 0 1 3.18018e-7 0 1 -2.96587e-6 0 1 1.16122e-6 0 1 -5.3345e-7 0 1 -1.06183e-6 0 1 -8.80808e-7 0 1 2.54836e-6 0 1 -3.70393e-6 0 1 1.54657e-6 0 1 -2.9578e-6 0 1 2.15681e-6 0 1 -1.65413e-6 0 1 3.13536e-6 0 1 -1.98393e-6 0 1 -5.72994e-6 0 1 6.40125e-6 0 1 9.77655e-7 0 1 -7.78321e-6 0 1 3.20261e-6 0 1 -1.03748e-5 0 1 4.81563e-6 0 1 -5.29248e-6 0 1 6.33804e-7 0 1 -1.59584e-6 0 1 6.22848e-7 0 1 5.41914e-7 0 1 -2.03388e-6 0 1 -3.25148e-6 0 1 1.59583e-6 0 1 1.60949e-5 0 1 -4.81169e-6 0 1 1.03663e-5 0 1 -3.20297e-6 0 1 7.78409e-6 0 1 -9.78538e-7 0 1 -6.40703e-6 0 1 5.72854e-6 0 1 1.9835e-6 0 1 -1.61535e-5 0 1 2.16788e-6 0 1 -6.38699e-6 0 1 6.38329e-6 0 1 -2.16786e-6 0 1 -4.11477e-7 0 1 1.63765e-6 0 1 5.34978e-7 0 1 1.07066e-6 0 1 5.37865e-7 0 1 1.64218e-6 0 1 -1.07126e-6 0 1 1.64611e-6 0 1 -1.87165e-6 0 1 1.64532e-6 0 1 5.36551e-7 0 1 1.07426e-6 0 1 -1.64489e-6 0 1 -8.02332e-7 0 1 1.6465e-6 0 1 5.35344e-7 0 1 -1.6433e-6 0 1 2.15393e-6 0 1 -1.63517e-6 0 1 4.1064e-7 0 1 -5.35546e-7 0 1 5.36774e-7 0 1 -1.63517e-6 0 1 -1.6433e-6 0 1 -1.64023e-6 0 1 1.64611e-6 0 1 -8.23036e-7 0 1 8.18823e-7 0 1 -2.05172e-7 0 1 -5.35557e-7 0 1 -1.63514e-6 0 1 2.15396e-6 0 1 -1.64327e-6 0 1 5.35342e-7 0 1 1.64655e-6 0 1 -8.02342e-7 0 1 1.07427e-6 0 1 -1.64025e-6 0 1 5.36403e-7 0 1 -1.87167e-6 0 1 1.64625e-6 0 1 -1.07161e-6 0 1 5.38008e-7 0 1 1.07031e-6 0 1 -8.23305e-7 0 1 5.35012e-7 0 1 8.1868e-7 0 1 -2.05138e-7 0 1 -4.11502e-7 0 1 1.63736e-6 0 1 1.64188e-6 0 1 1.64625e-6 0 1 1.6457e-6 0 1 -1.64491e-6 0 1 1.64655e-6 0 1 -1.63514e-6 0 1 4.10652e-7 0 1 5.36755e-7 0 1 0.9948694 0.1011681 0 0.9948695 0.1011671 0 0.9948645 -0.1012165 0 0.9948644 -0.1012175 0 0.9542031 -0.2991599 0 0.8742155 -0.4855383 0 0.8742151 -0.4855391 0 0.7585402 -0.6516263 0 0.7586026 -0.6515536 0 0.7585402 -0.6516263 0 0.7586026 -0.6515536 0 0.7585402 -0.6516263 1.67925e-7 0.7585402 -0.6516263 0 0.6119466 -0.7908992 0 0.6119463 -0.7908993 0 0.4403316 -0.8978353 0 0.4402456 -0.8978775 0 0.4403316 -0.8978353 0 0.4401593 -0.8979198 0 0.4403313 -0.8978354 2.77891e-7 0.4403313 -0.8978354 0 0.2506688 -0.968073 0 0.2506688 -0.968073 0 0.2506688 -0.968073 0 0.2504367 -0.968133 0 0.2504367 -0.968133 0 0.2504367 -0.968133 0 0.05053764 -0.9987223 0 0.05053764 -0.9987223 0 0.05053764 -0.9987223 0 0.05053764 -0.9987223 0 0.05053764 -0.9987223 2.42424e-7 0.05053764 -0.9987223 0 -0.1513101 -0.9884864 0 -0.1513101 -0.9884864 0 -0.1513101 -0.9884864 0 -0.1522103 -0.9883482 0 -0.3469808 -0.9378723 0 -0.3472954 -0.9377558 0 -0.3469807 -0.9378724 0 -0.5288637 -0.8487069 0 -0.5288639 -0.8487067 0 -0.6889581 -0.7248013 0 -0.8206515 -0.5714291 0 -0.8206512 -0.5714294 0 -0.9190026 -0.3942515 0 -0.9190023 -0.3942524 0 -0.9795311 -0.2012935 0 -1 0 0 -0.9795311 0.2012935 0 -0.9189565 0.3943589 0 -0.9189569 0.3943581 0 -0.8207793 0.5712456 0 -0.8207796 0.5712452 0 -0.6889581 0.7248013 0 -0.5289291 0.8486661 0 -0.5289288 0.8486662 0 -0.3473388 0.9377397 0 -0.347339 0.9377397 0 -0.1514294 0.9884681 0 -0.1514294 0.9884681 0 0.05070745 0.9987136 0 0.2505713 0.9680982 0 0.2505714 0.9680982 0 0.4404457 0.8977792 0 0.440446 0.8977792 0 0.6120784 0.7907971 0 0.6120786 0.7907969 0 0.7587838 0.6513426 0 0.8743324 0.4853277 0 0.8743328 0.485327 0 0.954141 0.2993579 0 0.9948748 0.1011144 0 0.9948748 -0.1011144 0 0.9541293 -0.299395 0 0.9541247 -0.2994097 0 0.8743348 -0.4853236 0 0.8743415 -0.4853112 0 0.7587482 -0.6513841 0 0.7587402 -0.6513934 0 0.6121145 -0.7907692 0 0.6121223 -0.7907631 0 0.4403919 -0.8978058 0 0.2506461 -0.9680788 0 0.25065 -0.9680778 0 0.05066126 -0.9987159 0 0.05066287 -0.9987159 0 -0.1514237 -0.988469 0 -0.3472151 -0.9377856 0 -0.3472203 -0.9377836 0 -0.5287654 -0.8487682 0 -0.6888504 -0.7249036 0 -0.6887462 -0.7250026 0 -0.6888504 -0.7249036 0 -0.6887462 -0.7250026 0 -0.6888504 -0.7249036 0 -0.6888504 -0.7249036 0 -0.8207385 -0.5713042 0 -0.9189472 -0.3943805 0 -0.9189414 -0.3943941 0 -0.9795614 -0.2011455 0 -0.9795614 -0.2011455 0 -0.9795614 -0.2011455 -1.31251e-7 -0.979481 -0.2015365 0 -0.979481 -0.2015365 0 -0.979481 -0.2015366 0 -0.979481 0.2015366 0 -0.979481 0.2015365 0 -0.979481 0.2015365 0 -0.9795614 0.2011455 0 -0.9795614 0.2011455 1.31251e-7 -0.9795614 0.2011455 0 -0.9189414 0.3943941 0 -0.9189472 0.3943805 0 -0.8207385 0.5713042 0 -0.6888504 0.7249036 0 -0.6887462 0.7250026 0 -0.6888504 0.7249036 0 -0.6887462 0.7250026 0 -0.6888504 0.7249036 0 -0.6888504 0.7249036 0 -0.5287654 0.8487682 0 -0.3472203 0.9377836 0 -0.3472151 0.9377856 0 -0.1514237 0.988469 0 0.05066287 0.9987159 0 0.05066126 0.9987159 0 0.25065 0.9680778 0 0.2506461 0.9680788 0 0.4403919 0.8978058 0 0.6121223 0.7907631 0 0.6121145 0.7907692 0 0.7587402 0.6513934 0 0.7587482 0.6513841 0 0.8743415 0.4853112 0 0.8743348 0.4853236 0 0.9541247 0.2994097 0 0.9541293 0.299395 0 0.9948692 0.1011691 0 0.9948694 0.1011681 0 0.9948694 -0.1011681 0 0.9948692 -0.1011691 0 0.9541399 -0.2993612 0 0.874347 -0.4853012 0 0.8743466 -0.485302 0 0.7587534 -0.651378 0 0.6121099 -0.7907728 0 0.6121096 -0.7907729 0 0.4403963 -0.8978036 0 0.440396 -0.8978037 0 0.250651 -0.9680776 0 0.2506508 -0.9680776 0 0.05064821 -0.9987165 0 -0.1514216 -0.9884693 0 -0.1514216 -0.9884694 0 -0.3473109 -0.9377501 0 -0.3473107 -0.9377502 0 -0.5289607 -0.8486464 0 -0.528961 -0.8486462 0 -0.6889691 -0.7247908 0 -0.8207639 -0.5712676 0 -0.8207637 -0.571268 0 -0.9189549 -0.3943627 0 -0.9189546 -0.3943635 0 -0.9795302 -0.2012973 0 -0.9795302 0.2012973 0 -0.9189546 0.3943635 0 -0.9189549 0.3943627 0 -0.8207637 0.571268 0 -0.8207639 0.5712676 0 -0.6889691 0.7247908 0 -0.528961 0.8486462 0 -0.5289607 0.8486464 0 -0.3473107 0.9377502 0 -0.3473109 0.9377501 0 -0.1514216 0.9884694 0 -0.1514216 0.9884693 0 0.05064821 0.9987165 0 0.2506508 0.9680776 0 0.250651 0.9680776 0 0.440396 0.8978037 0 0.4403963 0.8978036 0 0.6121096 0.7907729 0 0.6121099 0.7907728 0 0.7587534 0.651378 0 0.8743466 0.485302 0 0.874347 0.4853012 0 0.9541399 0.2993612 0 0.994875 0.1011134 0 0.9948699 -0.1011627 0 0.9541924 -0.2991937 0 0.9541879 -0.2992084 0 0.8744358 -0.4851415 0 0.8744357 -0.4851414 0 0.8744358 -0.4851415 0 0.8745356 -0.4849615 0 0.8745356 -0.4849615 0 0.8745356 -0.4849615 0 0.7589097 -0.651196 0 0.7589017 -0.6512052 0 0.6119512 -0.7908956 0 0.6124896 -0.7904787 0 0.6124897 -0.7904787 0 0.6124897 -0.7904787 0 0.4407576 -0.8976262 0 0.2505713 -0.9680982 0 0.2505712 -0.9680982 0 0.2505713 -0.9680982 0 0.250111 -0.9682172 0 0.05141264 -0.9986775 0 0.05050468 -0.9987239 0 0.05050468 -0.9987239 3.77718e-7 0.05050468 -0.9987239 0 -0.1513595 -0.9884788 0 -0.1513595 -0.9884788 0 -0.1513595 -0.9884788 0 -0.1513595 -0.9884788 0 -0.1513595 -0.9884788 0 -0.1513595 -0.9884788 0 -0.3468852 -0.9379076 0 -0.3473347 -0.9377412 0 -0.3468904 -0.9379057 0 -0.5286683 -0.8488286 0 -0.6890826 -0.7246828 0 -0.820626 -0.5714657 0 -0.918995 -0.3942694 0 -0.9189891 -0.3942829 0 -0.9795236 -0.2013296 0 -0.9795237 -0.2013296 0 -0.9795236 -0.2013296 0 -0.9796553 -0.2006876 0 -0.9796553 0.2006876 0 -0.9795237 0.2013296 0 -0.9795236 0.2013296 0 -0.9795236 0.2013296 0 -0.9189434 0.3943895 0 -0.9189493 0.3943759 0 -0.8207541 0.5712818 0 -0.6890826 0.7246828 0 -0.5287334 0.848788 0 -0.3472484 0.9377732 0 -0.3472433 0.9377752 0 -0.1514315 0.9884678 0 0.05072218 0.9987129 0 0.05072051 0.998713 0 0.2505705 0.9680984 0 0.2505666 0.9680994 0 0.4404417 0.8977813 0 0.6120911 0.7907874 0 0.6120833 0.7907934 0 0.7587706 0.651358 0 0.7587786 0.6513488 0 0.8743273 0.485337 0 0.8743205 0.4853492 0 0.9541258 0.2994064 0 0.9541303 0.2993918 0 1 0 0 0 0 -1</float_array>
          <technique_common>
            <accessor source="#shape0-mesh-normals-array" count="881" stride="3">
              <param name="X" type="float"/>
              <param name="Y" type="float"/>
              <param name="Z" type="float"/>
            </accessor>
          </technique_common>
        </source>
        <vertices id="shape0-mesh-vertices">
          <input semantic="POSITION" source="#shape0-mesh-positions"/>
        </vertices>
        <triangles material="BLACK-material" count="1460">
          <input semantic="VERTEX" source="#shape0-mesh-vertices" offset="0"/>
          <input semantic="NORMAL" source="#shape0-mesh-normals" offset="1"/>
          <p>0 0 1 0 2 0 2 0 1 0 3 0 2 0 3 0 4 0 4 0 3 0 5 0 4 0 5 0 6 0 6 0 5 0 7 0 6 0 7 0 8 0 8 0 7 0 9 0 8 0 9 0 10 0 10 0 9 0 11 0 10 0 11 0 12 0 12 0 11 0 13 0 12 0 13 0 14 0 14 0 13 0 15 0 14 0 15 0 16 0 16 0 15 0 17 0 16 0 17 0 18 0 18 0 17 0 19 0 18 0 19 0 20 0 20 0 19 0 21 0 20 0 21 0 22 0 22 0 21 0 23 0 22 0 23 0 24 0 24 0 23 0 25 0 24 0 25 0 26 0 26 0 25 0 27 0 26 0 27 0 28 0 28 0 27 0 29 0 28 0 29 0 30 0 30 0 29 0 31 0 30 0 31 0 32 0 32 0 31 0 33 0 32 0 33 0 34 0 34 0 33 0 35 0 34 0 35 0 36 0 36 0 35 0 37 0 36 0 37 0 38 0 38 0 37 0 39 0 1 0 0 0 40 0 40 0 0 0 41 0 40 0 41 0 42 0 42 0 41 0 43 0 42 0 43 0 44 0 44 0 43 0 45 0 44 0 45 0 46 0 46 0 45 0 47 0 46 0 47 0 48 0 48 0 47 0 49 0 48 0 49 0 50 0 50 0 49 0 51 0 50 0 51 0 52 0 52 0 51 0 53 0 52 0 53 0 54 0 54 0 53 0 55 0 54 0 55 0 56 0 56 0 55 0 57 0 56 0 57 0 58 0 58 0 57 0 59 0 58 0 59 0 60 0 60 0 59 0 61 0 60 0 61 0 62 0 62 0 61 0 63 0 62 0 63 0 64 0 64 0 63 0 65 0 64 0 65 0 66 0 66 0 65 0 67 0 66 0 67 0 68 0 68 0 67 0 69 0 68 0 69 0 70 0 70 0 69 0 71 0 70 0 71 0 72 0 72 0 71 0 73 0 74 1 75 1 76 1 76 1 75 1 77 1 76 2 77 2 78 2 78 2 77 2 79 2 78 3 79 3 80 3 80 4 79 4 81 4 80 5 81 5 82 5 82 5 81 5 83 5 82 6 83 6 84 6 84 7 83 7 85 7 84 8 85 8 86 8 86 9 85 9 87 9 86 10 87 10 88 10 88 11 87 11 89 11 88 12 89 12 90 12 90 13 89 13 91 13 90 14 91 14 92 14 92 15 91 15 93 15 92 16 93 16 94 16 94 17 93 17 95 17 94 18 95 18 96 18 96 18 95 18 97 18 96 19 97 19 98 19 98 19 97 19 99 19 98 20 99 20 100 20 100 21 99 21 101 21 100 22 101 22 102 22 102 23 101 23 103 23 102 24 103 24 104 24 104 25 103 25 105 25 104 26 105 26 106 26 106 27 105 27 107 27 106 28 107 28 108 28 108 29 107 29 109 29 108 30 109 30 110 30 110 31 109 31 111 31 110 32 111 32 112 32 112 32 111 32 113 32 112 33 113 33 114 33 114 34 113 34 115 34 114 35 115 35 116 35 116 35 115 35 117 35 116 36 117 36 118 36 118 36 117 36 119 36 118 37 119 37 120 37 120 38 119 38 121 38 120 39 121 39 122 39 122 39 121 39 123 39 122 40 123 40 124 40 124 41 123 41 125 41 124 42 125 42 126 42 126 43 125 43 127 43 126 44 127 44 128 44 128 45 127 45 129 45 128 46 129 46 130 46 130 47 129 47 131 47 130 48 131 48 132 48 132 49 131 49 133 49 132 50 133 50 134 50 134 51 133 51 135 51 134 52 135 52 136 52 136 52 135 52 137 52 136 53 137 53 138 53 138 53 137 53 139 53 138 54 139 54 140 54 140 55 139 55 141 55 140 56 141 56 142 56 142 57 141 57 143 57 142 58 143 58 144 58 144 59 143 59 145 59 144 60 145 60 146 60 146 61 145 61 147 61 146 62 147 62 148 62 148 63 147 63 149 63 148 64 149 64 150 64 150 65 149 65 151 65 150 66 151 66 152 66 152 66 151 66 153 66 152 67 153 67 74 67 74 68 153 68 75 68 154 69 155 69 156 69 156 70 155 70 157 70 156 71 157 71 158 71 158 72 157 72 159 72 158 73 159 73 160 73 160 74 159 74 161 74 160 75 161 75 162 75 162 75 161 75 163 75 162 76 163 76 164 76 164 77 163 77 165 77 164 78 165 78 166 78 166 79 165 80 167 81 166 82 167 82 168 82 168 83 167 83 169 83 168 84 169 84 170 84 170 85 169 85 171 85 170 86 171 86 172 86 172 87 171 87 173 87 172 88 173 88 174 88 174 89 173 89 175 89 174 90 175 90 176 90 176 91 175 91 177 91 176 92 177 92 178 92 178 93 177 93 179 93 178 94 179 94 180 94 180 95 179 95 181 95 180 96 181 96 182 96 182 96 181 96 183 96 182 97 183 97 184 97 184 97 183 97 185 97 184 98 185 98 186 98 186 99 185 99 187 99 186 100 187 100 188 100 188 101 187 101 189 101 188 102 189 102 190 102 190 103 189 103 191 103 190 104 191 104 192 104 192 104 191 104 193 104 192 105 193 105 194 105 194 106 193 106 195 106 194 107 195 107 196 107 196 108 195 108 197 108 196 109 197 109 198 109 198 110 197 110 199 110 198 111 199 111 200 111 200 112 199 112 201 112 200 113 201 113 202 113 202 113 201 113 203 113 202 114 203 114 204 114 204 115 203 115 205 115 204 116 205 116 206 116 206 117 205 117 207 117 206 118 207 118 208 118 208 119 207 119 209 119 208 120 209 120 210 120 210 120 209 120 211 120 210 121 211 122 212 123 212 124 211 125 213 126 212 127 213 127 214 127 214 128 213 128 215 128 214 129 215 129 216 129 216 130 215 131 217 132 216 133 217 133 218 133 218 134 217 135 219 136 218 137 219 137 220 137 220 138 219 138 221 138 220 139 221 139 222 139 222 140 221 141 223 142 222 143 223 143 224 143 224 144 223 144 225 144 224 145 225 145 226 145 226 146 225 146 227 146 226 147 227 147 228 147 228 148 227 149 229 149 228 150 229 150 230 150 230 151 229 151 231 151 230 152 231 153 232 154 232 155 231 156 233 157 232 158 233 158 154 158 154 159 233 159 155 159 4 160 234 160 2 160 2 161 234 161 235 161 2 162 235 162 0 162 0 163 235 163 236 163 0 164 236 164 41 164 41 165 236 165 237 165 41 166 237 166 43 166 43 167 237 167 238 167 43 168 238 168 45 168 45 169 238 169 239 169 45 170 239 170 47 170 47 171 239 171 240 171 47 172 240 172 49 172 49 173 240 173 241 173 49 174 241 174 51 174 51 175 241 175 242 175 51 176 242 176 53 176 53 177 242 177 243 177 53 178 243 178 55 178 55 179 243 179 244 179 55 180 244 180 57 180 57 180 244 180 245 180 57 181 245 181 59 181 59 182 245 182 246 182 59 183 246 183 61 183 61 184 246 184 247 184 61 185 247 185 63 185 63 185 247 185 248 185 63 186 248 186 65 186 65 186 248 186 249 186 65 187 249 187 67 187 67 187 249 187 250 187 67 188 250 188 69 188 69 189 250 189 251 189 69 190 251 190 71 190 71 190 251 190 252 190 71 191 252 191 73 191 73 192 252 192 253 192 73 193 253 193 72 193 72 193 253 193 254 193 72 194 254 194 70 194 70 195 254 195 255 195 70 196 255 196 68 196 68 197 255 197 256 197 68 198 256 198 66 198 66 198 256 198 257 198 66 199 257 199 64 199 64 200 257 200 258 200 64 201 258 201 62 201 62 202 258 202 259 202 62 203 259 203 60 203 60 203 259 203 260 203 60 204 260 204 58 204 58 205 260 205 261 205 58 206 261 206 56 206 56 207 261 207 262 207 56 208 262 208 54 208 54 208 262 208 263 208 54 209 263 209 52 209 52 210 263 210 264 210 52 211 264 211 50 211 50 212 264 212 265 212 50 213 265 213 48 213 48 214 265 214 266 214 48 215 266 215 46 215 46 215 266 215 267 215 46 216 267 216 44 216 44 217 267 217 268 217 44 218 268 218 42 218 42 219 268 219 269 219 42 220 269 220 40 220 40 221 269 221 270 221 40 222 270 222 1 222 1 223 270 223 271 223 1 224 271 224 3 224 3 224 271 224 272 224 3 225 272 225 5 225 5 225 272 225 273 225 5 226 273 226 7 226 7 227 273 227 274 227 7 228 274 228 9 228 9 229 274 229 275 229 9 230 275 230 11 230 11 231 275 231 276 231 11 232 276 232 13 232 13 233 276 233 277 233 13 234 277 234 15 234 15 234 277 234 278 234 15 235 278 235 17 235 17 236 278 236 279 236 17 237 279 237 19 237 19 238 279 238 280 238 19 239 280 239 21 239 21 240 280 240 281 240 21 241 281 241 23 241 23 242 281 242 282 242 23 243 282 243 25 243 25 244 282 244 283 244 25 245 283 245 27 245 27 246 283 246 284 246 27 247 284 247 29 247 29 247 284 247 285 247 29 248 285 248 31 248 31 249 285 249 286 249 31 250 286 250 33 250 33 251 286 251 287 251 33 252 287 252 35 252 35 252 287 252 288 252 35 253 288 253 37 253 37 254 288 254 289 254 37 255 289 255 39 255 39 256 289 256 290 256 39 257 290 257 38 257 38 257 290 257 291 257 38 258 291 258 36 258 36 259 291 259 292 259 36 260 292 260 34 260 34 260 292 260 293 260 34 261 293 261 32 261 32 262 293 262 294 262 32 263 294 263 30 263 30 263 294 263 295 263 30 264 295 264 28 264 28 264 295 264 296 264 28 265 296 265 26 265 26 265 296 265 297 265 26 266 297 266 24 266 24 267 297 267 298 267 24 268 298 268 22 268 22 269 298 269 299 269 22 270 299 270 20 270 20 271 299 271 300 271 20 272 300 272 18 272 18 273 300 273 301 273 18 274 301 274 16 274 16 275 301 275 302 275 16 276 302 276 14 276 14 277 302 277 303 277 14 278 303 278 12 278 12 279 303 279 304 279 12 280 304 280 10 280 10 281 304 281 305 281 10 282 305 282 8 282 8 283 305 283 306 283 8 284 306 284 6 284 6 285 306 285 307 285 6 286 307 286 4 286 4 287 307 287 234 287 308 288 309 288 310 288 310 288 309 288 311 288 310 289 311 289 312 289 312 289 311 289 313 289 312 290 313 290 314 290 314 291 313 291 315 291 314 292 315 292 316 292 316 293 315 293 317 293 316 294 317 294 318 294 318 295 317 295 319 295 318 296 319 296 320 296 320 297 319 297 321 297 320 298 321 298 322 298 322 299 321 299 323 299 322 300 323 300 324 300 324 301 323 301 325 301 324 302 325 302 326 302 326 303 325 303 327 303 326 304 327 304 328 304 328 305 327 305 329 305 328 306 329 306 330 306 330 306 329 306 331 306 330 307 331 307 332 307 332 307 331 307 333 307 332 308 333 308 334 308 334 309 333 309 335 309 334 310 335 310 336 310 336 311 335 311 337 311 336 312 337 312 338 312 338 313 337 313 339 313 338 314 339 314 340 314 340 315 339 315 341 315 340 316 341 316 342 316 342 317 341 317 343 317 342 318 343 318 344 318 344 319 343 319 345 319 344 320 345 320 346 320 346 321 345 321 347 321 346 322 347 322 348 322 348 323 347 323 349 323 348 324 349 324 350 324 350 324 349 324 351 324 350 325 351 325 352 325 352 325 351 325 353 325 352 326 353 326 354 326 354 327 353 327 355 327 354 328 355 328 356 328 356 329 355 329 357 329 356 330 357 330 358 330 358 331 357 331 359 331 358 332 359 332 360 332 360 333 359 333 361 333 360 334 361 334 362 334 362 335 361 335 363 335 362 336 363 336 364 336 364 337 363 337 365 337 364 338 365 338 366 338 366 339 365 339 367 339 366 340 367 340 368 340 368 341 367 341 369 341 368 342 369 342 370 342 370 342 369 342 371 342 370 343 371 343 372 343 372 343 371 343 373 343 372 344 373 344 374 344 374 345 373 345 375 345 374 346 375 346 376 346 376 347 375 347 377 347 376 348 377 348 378 348 378 349 377 349 379 349 378 350 379 350 380 350 380 351 379 351 381 351 380 352 381 352 382 352 382 353 381 353 383 353 382 354 383 354 384 354 384 355 383 355 385 355 384 356 385 356 386 356 386 357 385 357 387 357 386 358 387 358 308 358 308 359 387 359 309 359 388 360 389 361 390 362 390 363 389 363 391 363 390 364 391 364 392 364 392 365 391 366 393 367 392 368 393 368 394 368 394 369 393 370 395 371 394 372 395 372 396 372 396 373 395 373 397 373 396 374 397 374 398 374 398 375 397 375 399 375 398 376 399 377 400 378 400 379 399 379 401 379 400 380 401 380 402 380 402 381 401 381 403 381 402 382 403 382 404 382 404 383 403 383 405 383 404 384 405 384 406 384 406 385 405 385 407 385 406 386 407 386 408 386 408 387 407 387 409 387 408 388 409 388 410 388 410 389 409 389 411 389 410 390 411 390 412 390 412 391 411 391 413 391 412 392 413 392 414 392 414 393 413 393 415 393 414 394 415 394 416 394 416 394 415 394 417 394 416 395 417 395 418 395 418 395 417 395 419 395 418 396 419 396 420 396 420 397 419 397 421 397 420 398 421 398 422 398 422 399 421 399 423 399 422 400 423 400 424 400 424 401 423 401 425 401 424 402 425 402 426 402 426 403 425 403 427 403 426 404 427 404 428 404 428 405 427 405 429 405 428 406 429 406 430 406 430 407 429 407 431 407 430 408 431 408 432 408 432 409 431 409 433 409 432 410 433 410 434 410 434 411 433 411 435 411 434 412 435 412 436 412 436 413 435 413 437 413 436 414 437 414 438 414 438 415 437 415 439 415 438 416 439 416 440 416 440 417 439 417 441 417 440 418 441 418 442 418 442 419 441 419 443 419 442 420 443 420 444 420 444 420 443 420 445 420 444 421 445 421 446 421 446 421 445 421 447 421 446 422 447 422 448 422 448 423 447 423 449 423 448 424 449 424 450 424 450 425 449 425 451 425 450 426 451 426 452 426 452 427 451 427 453 427 452 428 453 428 454 428 454 429 453 429 455 429 454 430 455 430 456 430 456 431 455 431 457 431 456 432 457 432 458 432 458 433 457 433 459 433 458 434 459 434 460 434 460 435 459 435 461 435 460 436 461 436 462 436 462 437 461 438 463 439 462 440 463 440 464 440 464 441 463 441 465 441 464 442 465 442 466 442 466 443 465 443 467 443 466 444 467 444 388 444 388 445 467 445 389 445 388 0 390 0 468 0 468 0 390 0 392 0 468 446 392 446 394 446 394 0 396 0 468 0 468 447 396 447 398 447 468 0 398 0 400 0 400 448 402 448 468 448 468 449 402 449 404 449 468 450 404 450 406 450 406 451 408 451 468 451 468 452 408 452 410 452 468 453 410 453 412 453 414 0 326 0 412 0 412 0 326 0 328 0 412 0 328 0 468 0 468 0 328 0 469 0 469 454 328 454 330 454 469 455 330 455 332 455 326 0 414 0 324 0 324 0 414 0 416 0 324 0 416 0 322 0 322 0 416 0 418 0 322 0 418 0 320 0 320 0 418 0 420 0 320 0 420 0 318 0 318 0 420 0 422 0 318 0 422 0 316 0 316 0 422 0 424 0 316 0 424 0 290 0 290 0 424 0 291 0 291 0 424 0 292 0 292 456 424 456 426 456 292 457 426 457 293 457 293 458 426 458 428 458 293 0 428 0 294 0 294 459 428 459 430 459 294 460 430 460 295 460 295 0 430 0 432 0 295 0 432 0 296 0 296 461 432 461 434 461 296 0 434 0 297 0 297 462 434 462 436 462 297 0 436 0 298 0 298 463 436 463 438 463 298 0 438 0 299 0 299 464 438 464 440 464 299 0 440 0 300 0 300 465 440 465 442 465 300 0 442 0 301 0 301 466 442 466 444 466 301 0 444 0 302 0 302 467 444 467 446 467 302 0 446 0 303 0 303 468 446 468 448 468 303 0 448 0 304 0 304 469 448 469 450 469 304 0 450 0 305 0 305 470 450 470 452 470 305 471 452 471 306 471 306 472 452 472 307 472 307 473 452 473 454 473 307 0 454 0 234 0 234 474 454 474 456 474 234 0 456 0 235 0 235 475 456 475 170 475 235 476 170 476 236 476 236 477 170 477 172 477 236 0 172 0 237 0 237 478 172 478 174 478 237 0 174 0 238 0 238 0 174 0 239 0 239 479 174 479 176 479 239 0 176 0 240 0 240 480 176 480 178 480 240 481 178 481 241 481 241 482 178 482 180 482 241 0 180 0 242 0 242 483 180 483 182 483 242 0 182 0 243 0 243 484 182 484 184 484 243 0 184 0 244 0 244 485 184 485 186 485 244 486 186 486 245 486 245 487 186 487 188 487 245 488 188 488 246 488 246 489 188 489 190 489 246 490 190 490 247 490 247 0 190 0 192 0 247 491 192 491 248 491 248 492 192 492 194 492 248 0 194 0 249 0 249 493 194 493 196 493 249 0 196 0 250 0 250 494 196 494 198 494 250 0 198 0 251 0 251 495 198 495 200 495 251 0 200 0 252 0 252 0 200 0 202 0 252 0 202 0 253 0 253 0 202 0 150 0 253 0 150 0 254 0 254 0 150 0 255 0 255 0 150 0 152 0 255 0 152 0 256 0 256 496 152 496 74 496 256 0 74 0 257 0 257 497 74 497 76 497 257 0 76 0 258 0 258 498 76 498 78 498 258 0 78 0 259 0 259 499 78 499 80 499 259 500 80 500 260 500 260 0 80 0 82 0 260 501 82 501 261 501 261 502 82 502 84 502 261 0 84 0 262 0 262 503 84 503 86 503 262 504 86 504 263 504 263 505 86 505 88 505 263 0 88 0 264 0 264 506 88 506 90 506 264 0 90 0 265 0 265 507 90 507 92 507 265 508 92 508 266 508 266 509 92 509 94 509 266 0 94 0 267 0 267 510 94 510 96 510 267 0 96 0 268 0 268 511 96 511 98 511 268 0 98 0 269 0 269 0 98 0 270 0 270 512 98 512 100 512 270 0 100 0 271 0 271 513 100 513 102 513 271 0 102 0 272 0 272 514 102 514 364 514 272 515 364 515 273 515 273 516 364 516 366 516 273 0 366 0 274 0 274 517 366 517 368 517 274 518 368 518 275 518 275 519 368 519 276 519 276 520 368 520 370 520 276 0 370 0 277 0 277 521 370 521 372 521 277 0 372 0 278 0 278 522 372 522 374 522 278 0 374 0 279 0 279 523 374 523 376 523 279 0 376 0 280 0 280 524 376 524 378 524 280 0 378 0 281 0 281 525 378 525 380 525 281 0 380 0 282 0 282 526 380 526 382 526 282 0 382 0 283 0 283 527 382 527 384 527 283 0 384 0 284 0 284 528 384 528 386 528 284 0 386 0 285 0 285 529 386 529 308 529 285 0 308 0 286 0 286 0 308 0 310 0 286 530 310 530 287 530 287 531 310 531 312 531 287 0 312 0 288 0 288 532 312 532 314 532 288 533 314 533 289 533 289 534 314 534 316 534 289 0 316 0 290 0 170 0 456 0 168 0 168 535 456 535 458 535 168 0 458 0 166 0 166 536 458 536 460 536 166 537 460 537 164 537 164 538 460 538 462 538 164 539 462 539 162 539 162 540 462 540 464 540 162 541 464 541 160 541 160 542 464 542 466 542 160 0 466 0 158 0 158 543 466 543 388 543 158 0 388 0 470 0 470 544 388 544 468 544 332 545 334 545 469 545 469 546 334 546 336 546 469 547 336 547 338 547 338 548 340 548 469 548 469 0 340 0 342 0 469 549 342 549 344 549 344 0 346 0 469 0 469 550 346 550 348 550 469 0 348 0 350 0 350 0 352 0 469 0 469 0 352 0 471 0 471 0 352 0 114 0 471 551 114 551 116 551 352 0 354 0 114 0 114 0 354 0 112 0 112 552 354 552 356 552 112 553 356 553 110 553 110 554 356 554 358 554 110 555 358 555 108 555 108 556 358 556 360 556 108 557 360 557 106 557 106 558 360 558 362 558 106 0 362 0 104 0 104 559 362 559 364 559 104 0 364 0 102 0 154 0 156 0 470 0 470 560 156 560 158 560 150 0 202 0 148 0 148 0 202 0 204 0 148 0 204 0 146 0 146 0 204 0 206 0 146 0 206 0 144 0 144 0 206 0 208 0 144 0 208 0 142 0 142 0 208 0 210 0 142 0 210 0 140 0 140 0 210 0 212 0 140 0 212 0 138 0 138 0 212 0 214 0 138 0 214 0 471 0 471 0 214 0 470 0 470 0 214 0 216 0 470 0 216 0 218 0 218 0 220 0 470 0 470 0 220 0 222 0 470 0 222 0 224 0 224 0 226 0 470 0 470 0 226 0 228 0 470 561 228 561 230 561 230 0 232 0 470 0 470 562 232 562 154 562 116 0 118 0 471 0 471 563 118 563 120 563 471 0 120 0 122 0 122 564 124 564 471 564 471 0 124 0 126 0 471 0 126 0 128 0 128 0 130 0 471 0 471 0 130 0 132 0 471 0 132 0 134 0 134 0 136 0 471 0 471 0 136 0 138 0 389 565 472 565 391 565 391 0 472 0 473 0 391 565 473 565 393 565 393 0 473 0 474 0 393 0 474 0 395 0 395 566 474 566 397 566 397 0 474 0 475 0 397 0 475 0 399 0 399 567 475 567 476 567 399 0 476 0 401 0 401 568 476 568 477 568 401 0 477 0 403 0 403 569 477 569 478 569 403 0 478 0 405 0 405 570 478 570 407 570 407 571 478 571 479 571 407 572 479 572 409 572 409 573 479 573 480 573 409 574 480 574 411 574 411 575 480 575 481 575 411 0 481 0 413 0 413 0 481 0 415 0 415 576 481 576 482 576 415 577 482 577 417 577 417 578 482 578 483 578 417 579 483 579 419 579 419 580 483 580 484 580 419 581 484 581 421 581 421 582 484 582 485 582 421 583 485 583 423 583 423 584 485 584 425 584 425 585 485 585 486 585 425 0 486 0 427 0 427 0 486 0 487 0 427 0 487 0 429 0 429 586 487 586 488 586 429 0 488 0 431 0 431 0 488 0 433 0 433 586 488 586 489 586 433 0 489 0 435 0 435 0 489 0 490 0 435 0 490 0 437 0 437 585 490 585 491 585 437 0 491 0 439 0 439 587 491 587 441 587 441 582 491 582 492 582 441 588 492 588 443 588 443 580 492 580 493 580 443 579 493 579 445 579 445 578 493 578 494 578 445 0 494 0 447 0 447 576 494 576 495 576 447 0 495 0 449 0 449 589 495 589 451 589 451 575 495 575 496 575 451 0 496 0 453 0 453 573 496 573 497 573 453 590 497 590 455 590 455 571 497 571 498 571 455 0 498 0 457 0 457 0 498 0 459 0 459 569 498 569 499 569 459 0 499 0 461 0 461 568 499 568 500 568 461 591 500 591 463 591 463 567 500 567 501 567 463 0 501 0 465 0 465 0 501 0 502 0 465 592 502 592 467 592 467 593 502 593 389 593 389 0 502 0 472 0 503 0 353 0 504 0 504 0 353 0 351 0 504 0 351 0 349 0 353 0 503 0 355 0 355 0 503 0 505 0 355 0 505 0 357 0 357 594 505 594 506 594 357 0 506 0 359 0 359 595 506 595 361 595 361 596 506 596 507 596 361 597 507 597 363 597 363 598 507 598 508 598 363 599 508 599 365 599 365 600 508 600 509 600 365 0 509 0 367 0 367 601 509 601 510 601 367 0 510 0 369 0 369 602 510 602 371 602 371 603 510 603 511 603 371 0 511 0 373 0 373 604 511 604 512 604 373 605 512 605 375 605 375 606 512 606 513 606 375 0 513 0 377 0 377 0 513 0 379 0 379 607 513 607 514 607 379 0 514 0 381 0 381 608 514 608 515 608 381 609 515 609 383 609 383 610 515 610 516 610 383 0 516 0 385 0 385 0 516 0 517 0 385 611 517 611 387 611 387 612 517 612 309 612 309 0 517 0 518 0 309 613 518 613 311 613 311 0 518 0 519 0 311 613 519 613 313 613 313 0 519 0 520 0 313 0 520 0 315 0 315 614 520 614 317 614 317 0 520 0 521 0 317 0 521 0 319 0 319 610 521 610 522 610 319 0 522 0 321 0 321 608 522 608 523 608 321 0 523 0 323 0 323 607 523 607 524 607 323 0 524 0 325 0 325 615 524 615 327 615 327 606 524 606 525 606 327 616 525 616 329 616 329 604 525 604 526 604 329 617 526 617 331 617 331 603 526 603 527 603 331 0 527 0 333 0 333 0 527 0 335 0 335 601 527 601 528 601 335 618 528 618 337 618 337 600 528 600 529 600 337 619 529 619 339 619 339 598 529 598 530 598 339 597 530 597 341 597 341 596 530 596 531 596 341 620 531 620 343 620 343 621 531 621 345 621 345 594 531 594 532 594 345 0 532 0 347 0 347 0 532 0 533 0 347 0 533 0 349 0 349 622 533 622 504 622 534 0 199 0 535 0 535 0 199 0 197 0 535 0 197 0 195 0 199 0 534 0 201 0 201 0 534 0 536 0 201 0 536 0 203 0 203 0 536 0 537 0 203 0 537 0 205 0 205 0 537 0 207 0 207 0 537 0 538 0 207 0 538 0 209 0 209 0 538 0 539 0 209 0 539 0 211 0 211 0 539 0 540 0 211 0 540 0 213 0 213 0 540 0 541 0 213 0 541 0 215 0 215 0 541 0 217 0 217 0 541 0 542 0 217 0 542 0 219 0 219 0 542 0 543 0 219 0 543 0 221 0 221 0 543 0 544 0 221 0 544 0 223 0 223 0 544 0 225 0 225 0 544 0 545 0 225 0 545 0 227 0 227 0 545 0 546 0 227 0 546 0 229 0 229 0 546 0 547 0 229 0 547 0 231 0 231 0 547 0 548 0 231 0 548 0 233 0 233 0 548 0 155 0 155 0 548 0 549 0 155 0 549 0 157 0 157 0 549 0 550 0 157 0 550 0 159 0 159 0 550 0 551 0 159 0 551 0 161 0 161 0 551 0 163 0 163 0 551 0 552 0 163 0 552 0 165 0 165 0 552 0 553 0 165 0 553 0 167 0 167 0 553 0 554 0 167 0 554 0 169 0 169 0 554 0 555 0 169 0 555 0 171 0 171 0 555 0 173 0 173 0 555 0 556 0 173 0 556 0 175 0 175 0 556 0 557 0 175 0 557 0 177 0 177 0 557 0 558 0 177 0 558 0 179 0 179 0 558 0 181 0 181 0 558 0 559 0 181 0 559 0 183 0 183 0 559 0 560 0 183 0 560 0 185 0 185 0 560 0 561 0 185 0 561 0 187 0 187 0 561 0 562 0 187 0 562 0 189 0 189 0 562 0 191 0 191 0 562 0 563 0 191 0 563 0 193 0 193 0 563 0 564 0 193 0 564 0 195 0 195 0 564 0 535 0 565 623 566 623 567 623 567 624 566 624 568 624 567 625 568 625 569 625 569 626 568 626 570 626 569 627 570 627 571 627 571 627 570 627 572 627 571 628 572 628 573 628 573 629 572 629 574 629 573 630 574 631 575 632 575 633 574 634 576 635 575 636 576 636 577 636 577 637 576 637 578 637 577 638 578 639 579 640 579 641 578 642 580 643 579 644 580 645 581 646 581 647 580 648 582 649 581 650 582 651 583 652 583 653 582 654 584 655 583 656 584 657 585 658 585 659 584 659 586 659 585 660 586 660 587 660 587 661 586 662 588 662 587 663 588 663 589 663 589 664 588 664 590 664 589 665 590 665 591 665 591 665 590 665 592 665 591 666 592 666 593 666 593 667 592 667 594 667 593 668 594 668 595 668 595 669 594 669 596 669 595 670 596 670 597 670 597 670 596 670 598 670 597 671 598 671 599 671 599 671 598 671 600 671 599 672 600 672 601 672 601 672 600 672 602 672 601 673 602 673 603 673 603 674 602 674 604 674 603 675 604 675 605 675 605 676 604 676 606 676 605 677 606 677 607 677 607 677 606 677 608 677 607 678 608 678 609 678 609 679 608 679 610 679 609 680 610 680 611 680 611 681 610 681 612 681 611 682 612 682 613 682 613 683 612 683 614 683 613 684 614 684 615 684 615 684 614 684 616 684 615 685 616 685 617 685 617 686 616 686 618 686 617 687 618 687 619 687 619 688 618 688 620 688 619 689 620 689 621 689 621 690 620 690 622 690 621 691 622 691 623 691 623 691 622 691 624 691 623 692 624 692 625 692 625 693 624 693 626 693 625 694 626 694 565 694 565 694 626 694 566 694 487 695 627 695 488 695 488 695 627 695 628 695 488 696 628 696 489 696 489 696 628 696 629 696 489 697 629 697 490 697 490 698 629 698 630 698 490 699 630 699 491 699 491 700 630 700 631 700 491 701 631 701 492 701 492 702 631 702 632 702 492 703 632 703 493 703 493 704 632 704 633 704 493 705 633 705 494 705 494 705 633 705 634 705 494 706 634 706 495 706 495 707 634 707 635 707 495 708 635 708 496 708 496 709 635 709 636 709 496 710 636 710 497 710 497 710 636 710 637 710 497 711 637 711 498 711 498 712 637 712 638 712 498 713 638 713 499 713 499 713 638 713 639 713 499 714 639 715 500 716 500 717 639 718 640 719 500 720 640 720 501 720 501 720 640 720 641 720 501 721 641 721 502 721 502 722 641 722 642 722 502 723 642 724 472 725 472 726 642 727 643 728 472 671 643 671 473 671 473 671 643 671 644 671 473 729 644 730 474 731 474 732 644 733 645 734 474 735 645 735 475 735 475 736 645 736 646 736 475 737 646 737 476 737 476 737 646 737 647 737 476 738 647 739 477 740 477 741 647 742 648 743 477 744 648 744 478 744 478 744 648 744 649 744 478 745 649 745 479 745 479 746 649 746 650 746 479 747 650 747 480 747 480 747 650 747 651 747 480 748 651 748 481 748 481 749 651 749 652 749 481 750 652 750 482 750 482 751 652 751 653 751 482 752 653 752 483 752 483 752 653 752 654 752 483 753 654 753 484 753 484 754 654 754 655 754 484 755 655 755 485 755 485 756 655 756 656 756 485 757 656 757 486 757 486 758 656 758 657 758 486 759 657 759 487 759 487 760 657 760 627 760 533 761 658 761 504 761 504 762 658 762 659 762 504 763 659 763 503 763 503 764 659 764 660 764 503 765 660 765 505 765 505 765 660 765 661 765 505 766 661 766 506 766 506 767 661 767 662 767 506 768 662 768 507 768 507 768 662 768 663 768 507 769 663 769 508 769 508 770 663 770 664 770 508 771 664 771 509 771 509 772 664 772 665 772 509 773 665 773 510 773 510 774 665 774 666 774 510 775 666 775 511 775 511 775 666 775 667 775 511 776 667 776 512 776 512 777 667 777 668 777 512 778 668 778 513 778 513 779 668 779 669 779 513 780 669 780 514 780 514 781 669 781 670 781 514 782 670 782 515 782 515 782 670 782 671 782 515 783 671 783 516 783 516 784 671 784 672 784 516 785 672 785 517 785 517 786 672 786 673 786 517 787 673 787 518 787 518 787 673 787 674 787 518 671 674 671 519 671 519 671 674 671 675 671 519 788 675 788 520 788 520 788 675 788 676 788 520 789 676 789 521 789 521 790 676 790 677 790 521 791 677 791 522 791 522 792 677 792 678 792 522 793 678 793 523 793 523 793 678 793 679 793 523 794 679 794 524 794 524 795 679 795 680 795 524 796 680 796 525 796 525 797 680 797 681 797 525 798 681 798 526 798 526 799 681 799 682 799 526 800 682 800 527 800 527 800 682 800 683 800 527 801 683 801 528 801 528 802 683 802 684 802 528 803 684 803 529 803 529 804 684 804 685 804 529 805 685 805 530 805 530 806 685 806 686 806 530 807 686 807 531 807 531 807 686 807 687 807 531 808 687 808 532 808 532 809 687 809 688 809 532 810 688 810 533 810 533 810 688 810 658 810 564 811 689 811 535 811 535 811 689 811 690 811 535 812 690 812 534 812 534 812 690 812 691 812 534 813 691 813 536 813 536 814 691 814 692 814 536 815 692 816 537 817 537 818 692 819 693 820 537 821 693 821 538 821 538 822 693 822 694 822 538 823 694 823 539 823 539 824 694 825 695 826 539 827 695 827 540 827 540 827 695 827 696 827 540 828 696 829 541 830 541 831 696 831 697 831 541 832 697 832 542 832 542 833 697 834 698 835 542 836 698 837 543 838 543 839 698 840 699 841 543 842 699 843 544 842 544 844 699 844 700 844 544 845 700 845 545 845 545 845 700 845 701 845 545 846 701 846 546 846 546 846 701 846 702 846 546 847 702 847 547 847 547 847 702 847 703 847 547 848 703 848 548 848 548 849 703 849 704 849 548 850 704 851 549 852 549 853 704 853 705 853 549 671 705 671 550 671 550 671 705 671 706 671 550 854 706 854 551 854 551 855 706 856 707 857 551 858 707 858 552 858 552 859 707 859 708 859 552 860 708 860 553 860 553 860 708 860 709 860 553 861 709 861 554 861 554 861 709 861 710 861 554 862 710 862 555 862 555 862 710 862 711 862 555 863 711 863 556 863 556 864 711 864 712 864 556 865 712 865 557 865 557 865 712 865 713 865 557 866 713 866 558 866 558 867 713 867 714 867 558 868 714 868 559 868 559 869 714 869 715 869 559 870 715 870 560 870 560 870 715 870 716 870 560 871 716 871 561 871 561 872 716 872 717 872 561 873 717 873 562 873 562 874 717 874 718 874 562 875 718 875 563 875 563 876 718 876 719 876 563 877 719 877 564 877 564 878 719 878 689 878 720 671 721 671 471 671 471 671 721 671 469 671 722 257 720 257 470 257 470 257 720 257 471 257 723 879 722 879 468 879 468 879 722 879 470 879 721 193 723 193 469 193 469 193 723 193 468 193 75 0 597 0 77 0 77 0 597 0 599 0 77 0 599 0 79 0 79 0 599 0 601 0 79 0 601 0 81 0 81 0 601 0 83 0 83 0 601 0 603 0 83 0 603 0 85 0 85 0 603 0 605 0 85 0 605 0 87 0 87 0 605 0 607 0 87 0 607 0 89 0 89 0 607 0 609 0 89 0 609 0 91 0 91 0 609 0 93 0 93 0 609 0 611 0 93 0 611 0 95 0 95 0 611 0 613 0 95 0 613 0 97 0 97 0 613 0 615 0 97 0 615 0 99 0 99 0 615 0 101 0 101 0 615 0 617 0 101 0 617 0 103 0 103 0 617 0 619 0 103 0 619 0 105 0 105 0 619 0 621 0 105 0 621 0 107 0 107 0 621 0 623 0 107 0 623 0 109 0 109 0 623 0 111 0 111 0 623 0 625 0 111 0 625 0 113 0 113 0 625 0 565 0 113 0 565 0 115 0 115 0 565 0 567 0 115 0 567 0 117 0 117 0 567 0 119 0 119 0 567 0 569 0 119 0 569 0 121 0 121 0 569 0 571 0 121 0 571 0 123 0 123 0 571 0 573 0 123 0 573 0 125 0 125 0 573 0 127 0 127 0 573 0 575 0 127 0 575 0 129 0 129 0 575 0 577 0 129 0 577 0 131 0 131 0 577 0 579 0 131 0 579 0 133 0 133 0 579 0 581 0 133 0 581 0 135 0 135 0 581 0 137 0 137 0 581 0 583 0 137 0 583 0 139 0 139 0 583 0 585 0 139 0 585 0 141 0 141 0 585 0 587 0 141 0 587 0 143 0 143 0 587 0 145 0 145 0 587 0 589 0 145 0 589 0 147 0 147 0 589 0 591 0 147 0 591 0 149 0 149 0 591 0 593 0 149 0 593 0 151 0 151 0 593 0 595 0 151 0 595 0 153 0 153 0 595 0 75 0 75 0 595 0 597 0 689 880 600 880 690 880 690 880 600 880 598 880 690 880 598 880 691 880 691 880 598 880 596 880 691 880 596 880 692 880 692 880 596 880 594 880 692 880 594 880 693 880 693 880 594 880 592 880 693 880 592 880 694 880 694 880 592 880 590 880 694 880 590 880 695 880 695 880 590 880 588 880 695 880 588 880 696 880 696 880 588 880 720 880 696 880 720 880 722 880 600 880 689 880 602 880 602 880 689 880 719 880 602 880 719 880 604 880 604 880 719 880 718 880 604 880 718 880 606 880 606 880 718 880 717 880 606 880 717 880 671 880 671 880 717 880 632 880 671 880 632 880 631 880 717 880 716 880 632 880 632 880 716 880 633 880 633 880 716 880 715 880 633 880 715 880 634 880 634 880 715 880 714 880 634 880 714 880 635 880 635 880 714 880 713 880 635 880 713 880 636 880 636 880 713 880 637 880 637 880 713 880 712 880 637 880 712 880 638 880 638 880 712 880 711 880 638 880 711 880 639 880 639 880 711 880 710 880 639 880 710 880 640 880 640 880 710 880 709 880 640 880 709 880 641 880 641 880 709 880 708 880 641 880 708 880 707 880 706 880 722 880 707 880 707 880 722 880 723 880 707 880 723 880 642 880 642 880 723 880 643 880 643 880 723 880 644 880 644 880 723 880 645 880 645 880 723 880 646 880 646 880 723 880 647 880 647 880 723 880 648 880 648 880 723 880 649 880 649 880 723 880 650 880 650 880 723 880 651 880 651 880 723 880 652 880 652 880 723 880 653 880 653 880 723 880 721 880 653 880 721 880 680 880 680 880 721 880 681 880 681 880 721 880 682 880 682 880 721 880 683 880 683 880 721 880 684 880 684 880 721 880 685 880 685 880 721 880 686 880 686 880 721 880 687 880 687 880 721 880 688 880 688 880 721 880 658 880 658 880 721 880 659 880 659 880 721 880 660 880 660 880 721 880 661 880 661 880 721 880 626 880 661 880 626 880 624 880 706 880 705 880 722 880 722 880 705 880 704 880 722 880 704 880 703 880 703 880 702 880 722 880 722 880 702 880 701 880 722 880 701 880 700 880 700 880 699 880 722 880 722 880 699 880 698 880 722 880 698 880 697 880 697 880 696 880 722 880 653 880 680 880 654 880 654 880 680 880 679 880 654 880 679 880 655 880 655 880 679 880 678 880 655 880 678 880 656 880 656 880 678 880 677 880 656 880 677 880 657 880 657 880 677 880 676 880 657 880 676 880 627 880 627 880 676 880 675 880 627 880 675 880 628 880 628 880 675 880 674 880 628 880 674 880 629 880 629 880 674 880 673 880 629 880 673 880 630 880 630 880 673 880 672 880 630 880 672 880 631 880 631 880 672 880 671 880 606 880 671 880 608 880 608 880 671 880 670 880 608 880 670 880 610 880 610 880 670 880 669 880 610 880 669 880 612 880 612 880 669 880 668 880 612 880 668 880 614 880 614 880 668 880 667 880 614 880 667 880 666 880 614 880 666 880 616 880 616 880 666 880 665 880 616 880 665 880 618 880 618 880 665 880 664 880 618 880 664 880 620 880 620 880 664 880 663 880 620 880 663 880 622 880 622 880 663 880 662 880 622 880 662 880 624 880 624 880 662 880 661 880 642 880 641 880 707 880 570 880 568 880 720 880 720 880 568 880 566 880 720 880 566 880 626 880 588 880 586 880 720 880 720 880 586 880 584 880 720 880 584 880 582 880 582 880 580 880 720 880 720 880 580 880 578 880 720 880 578 880 576 880 576 880 574 880 720 880 720 880 574 880 572 880 720 880 572 880 570 880 721 880 720 880 626 880</p>
        </triangles>
      </mesh>
    </geometry>
  </library_geometries>
  <library_visual_scenes>
    <visual_scene id="Scene" name="Scene">
      <node id="node_001" name="node.001" type="NODE">
        <matrix sid="transform">0.001 0 0 0.7099996 0 0.001 0 0.05 0 0 0.001 0.12 0 0 0 1</matrix>
        <instance_geometry url="#shape0-mesh" name="node.001">
          <bind_material>
            <technique_common>
              <instance_material symbol="BLACK-material" target="#BLACK-material"/>
            </technique_common>
          </bind_material>
        </instance_geometry>
      </node>
    </visual_scene>
  </library_visual_scenes>
  <scene>
    <instance_visual_scene url="#Scene"/>
  </scene>
</COLLADA>