<?xml version="1.0" encoding="utf-8"?>
<COLLADA xmlns="http://www.collada.org/2005/11/COLLADASchema" version="1.4.1" xmlns:xsi="http://www.w3.org/2001/XMLSchema-instance">
  <asset>
    <contributor>
      <author>Blender User</author>
      <authoring_tool>Blender 4.2.2 LTS commit date:2024-09-23, commit time:12:18, hash:c03d7d98a413</authoring_tool>
    </contributor>
    <created>2024-10-01T15:05:36</created>
    <modified>2024-10-01T15:05:36</modified>
    <unit name="meter" meter="1"/>
    <up_axis>Z_UP</up_axis>
  </asset>
  <library_effects>
    <effect id="BLACK-effect">
      <profile_COMMON>
        <technique sid="common">
          <lambert>
            <emission>
              <color sid="emission">0 0 0 1</color>
            </emission>
            <diffuse>
              <color sid="diffuse">0.1087898 0.1087898 0.1087898 1</color>
            </diffuse>
            <index_of_refraction>
              <float sid="ior">1.5</float>
            </index_of_refraction>
          </lambert>
        </technique>
      </profile_COMMON>
    </effect>
  </library_effects>
  <library_images/>
  <library_materials>
    <material id="BLACK-material" name="BLACK">
      <instance_effect url="#BLACK-effect"/>
    </material>
  </library_materials>
  <library_geometries>
    <geometry id="shape0-mesh" name="shape0">
      <mesh>
        <source id="shape0-mesh-positions">
          <float_array id="shape0-mesh-positions-array" count="2172">29.8919 2.544201 5 -29.8919 2.544201 5 30 3.8147e-6 5 -30 3.8147e-6 5 29.8919 -2.544197 5 -29.8919 -2.544197 5 29.5685 -5.069996 5 -29.5685 -5.069996 5 29.03201 -7.559296 5 -29.032 -7.559296 5 28.28631 -9.994198 5 -28.2863 -9.994198 5 27.3369 -12.35699 5 -27.3369 -12.35699 5 26.1904 -14.6308 5 -26.1904 -14.6308 5 24.85531 -16.7992 5 -24.8553 -16.7992 5 23.3411 -18.8466 5 -23.3411 -18.8466 5 21.6587 -20.7582 5 -21.6587 -20.7582 5 19.8202 -22.5202 5 -19.8202 -22.5202 5 17.83901 -24.1199 5 -17.83899 -24.1199 5 15.7292 -25.5459 5 -15.7292 -25.5459 5 13.5061 -26.7878 5 -13.5061 -26.7878 5 11.1857 -27.8367 5 -11.1857 -27.8367 5 8.784703 -28.685 5 -8.784699 -28.685 5 6.320404 -29.3267 5 -6.320396 -29.3267 5 3.810501 -29.757 5 -3.810497 -29.757 5 1.273201 -29.973 5 -1.273197 -29.973 5 -29.5685 5.070003 5 29.5685 5.070003 5 -29.032 7.559303 5 29.03201 7.559303 5 -28.2863 9.994202 5 28.28631 9.994202 5 -27.3369 12.35701 5 27.3369 12.35701 5 -26.1904 14.6309 5 26.1904 14.6309 5 -24.8553 16.79921 5 24.85531 16.79921 5 -23.3411 18.8466 5 23.3411 18.8466 5 -21.6587 20.75821 5 21.6587 20.75821 5 -19.8202 22.5202 5 19.8202 22.5202 5 -17.83899 24.1199 5 17.83901 24.1199 5 -15.7292 25.5459 5 15.7292 25.5459 5 -13.5061 26.7878 5 13.5061 26.7878 5 -11.1857 27.8367 5 11.1857 27.8367 5 -8.784699 28.68501 5 8.784703 28.68501 5 -6.320396 29.3267 5 6.320404 29.3267 5 -3.810497 29.75702 5 3.810501 29.75702 5 -1.273197 29.97301 5 1.273201 29.97301 5 -41.60464 51.33 25 -41.60464 51.33 15 -41.5 50 25 -41.5 50 15 -41.60464 48.6703 25 -41.60464 48.6703 15 -41.91601 47.3734 25 -41.91601 47.3734 15 -42.42644 46.1411 25 -42.42644 46.1411 15 -43.12335 45.0038 25 -43.12335 45.0038 15 -43.98958 43.9896 25 -43.98958 43.9896 15 -45.00382 43.1234 25 -45.00382 43.1234 15 -46.14107 42.4264 25 -46.14107 42.4264 15 -47.37335 41.91601 25 -47.37335 41.91601 15 -48.67031 41.6047 25 -48.67031 41.6047 15 -50 41.5 25 -50 41.5 15 -51.32968 41.6047 25 -51.32968 41.6047 15 -52.62664 41.91601 25 -52.62664 41.91601 15 -53.85892 42.4264 25 -53.85892 42.4264 15 -54.99617 43.1234 25 -54.99617 43.1234 15 -56.01041 43.9896 25 -56.01041 43.9896 15 -56.87664 45.0038 25 -56.87664 45.0038 15 -57.57355 46.1411 25 -57.57355 46.1411 15 -58.08398 47.3734 25 -58.08398 47.3734 15 -58.39535 48.6703 25 -58.39535 48.6703 15 -58.5 50 25 -58.5 50 15 -58.39535 51.33 25 -58.39535 51.33 15 -58.08398 52.62701 25 -58.08398 52.62701 15 -57.57355 53.859 25 -57.57355 53.859 15 -56.87664 54.996 25 -56.87664 54.996 15 -56.01041 56.01 25 -56.01041 56.01 15 -54.99617 56.87701 25 -54.99617 56.87701 15 -53.85892 57.57401 25 -53.85892 57.57401 15 -52.62664 58.08401 25 -52.62664 58.08401 15 -51.32968 58.39501 25 -51.32968 58.39501 15 -50 58.5 25 -50 58.5 15 -48.67031 58.39501 25 -48.67031 58.39501 15 -47.37335 58.08401 25 -47.37335 58.08401 15 -46.14107 57.57401 25 -46.14107 57.57401 15 -45.00382 56.87701 25 -45.00382 56.87701 15 -43.98958 56.01 25 -43.98958 56.01 15 -43.12335 54.996 25 -43.12335 54.996 15 -42.42644 53.859 25 -42.42644 53.859 15 -41.91601 52.62701 25 -41.91601 52.62701 15 58.39501 51.33 25 58.39501 51.33 15 58.5 50 25 58.5 50 15 58.39501 48.6703 25 58.39501 48.6703 15 58.08401 47.3734 25 58.08401 47.3734 15 57.57401 46.1411 25 57.57401 46.1411 15 56.87701 45.0038 25 56.87701 45.0038 15 56.01 43.9896 25 56.01 43.9896 15 54.996 43.1234 25 54.996 43.1234 15 53.859 42.4264 25 53.859 42.4264 15 52.62701 41.91601 25 52.62701 41.91601 15 51.33 41.6047 25 51.33 41.6047 15 50 41.5 25 50 41.5 15 48.6703 41.6047 25 48.6703 41.6047 15 47.3734 41.91601 25 47.3734 41.91601 15 46.1411 42.4264 25 46.1411 42.4264 15 45.0038 43.1234 25 45.0038 43.1234 15 43.9896 43.9896 25 43.9896 43.9896 15 43.1234 45.0038 25 43.1234 45.0038 15 42.4264 46.1411 25 42.4264 46.1411 15 41.91601 47.3734 25 41.91601 47.3734 15 41.6047 48.6703 25 41.6047 48.6703 15 41.5 50 25 41.5 50 15 41.6047 51.33 25 41.6047 51.33 15 41.91601 52.62701 25 41.91601 52.62701 15 42.4264 53.859 25 42.4264 53.859 15 43.1234 54.996 25 43.1234 54.996 15 43.9896 56.01 25 43.9896 56.01 15 45.0038 56.87701 25 45.0038 56.87701 15 46.1411 57.57401 25 46.1411 57.57401 15 47.3734 58.08401 25 47.3734 58.08401 15 48.6703 58.39501 25 48.6703 58.39501 15 50 58.5 25 50 58.5 15 51.33 58.39501 25 51.33 58.39501 15 52.62701 58.08401 25 52.62701 58.08401 15 53.859 57.57401 25 53.859 57.57401 15 54.996 56.87701 25 54.996 56.87701 15 56.01 56.01 25 56.01 56.01 15 56.87701 54.996 25 56.87701 54.996 15 57.57401 53.859 25 57.57401 53.859 15 58.08401 52.62701 25 58.08401 52.62701 15 29.8919 -2.544197 25 30 3.8147e-6 25 29.8919 2.544201 25 29.5685 5.070003 25 29.03201 7.559303 25 28.28631 9.994202 25 27.3369 12.35701 25 26.1904 14.6309 25 24.85531 16.79921 25 23.3411 18.8466 25 21.6587 20.75821 25 19.8202 22.5202 25 17.83901 24.1199 25 15.7292 25.5459 25 13.5061 26.7878 25 11.1857 27.8367 25 8.784703 28.68501 25 6.320404 29.3267 25 3.810501 29.75702 25 1.273201 29.97301 25 -1.273197 29.97301 25 -3.810497 29.75702 25 -6.320396 29.3267 25 -8.784699 28.68501 25 -11.1857 27.8367 25 -13.5061 26.7878 25 -15.7292 25.5459 25 -17.83899 24.1199 25 -19.8202 22.5202 25 -21.6587 20.75821 25 -23.3411 18.8466 25 -24.8553 16.79921 25 -26.1904 14.6309 25 -27.3369 12.35701 25 -28.2863 9.994202 25 -29.032 7.559303 25 -29.5685 5.070003 25 -29.8919 2.544201 25 -30 3.8147e-6 25 -29.8919 -2.544197 25 -29.5685 -5.069996 25 -29.032 -7.559296 25 -28.2863 -9.994198 25 -27.3369 -12.35699 25 -26.1904 -14.6308 25 -24.8553 -16.7992 25 -23.3411 -18.8466 25 -21.6587 -20.7582 25 -19.8202 -22.5202 25 -17.83899 -24.1199 25 -15.7292 -25.5459 25 -13.5061 -26.7878 25 -11.1857 -27.8367 25 -8.784699 -28.685 25 -6.320396 -29.3267 25 -3.810497 -29.757 25 -1.273197 -29.973 25 1.273201 -29.973 25 3.810501 -29.757 25 6.320404 -29.3267 25 8.784703 -28.685 25 11.1857 -27.8367 25 13.5061 -26.7878 25 15.7292 -25.5459 25 17.83901 -24.1199 25 19.8202 -22.5202 25 21.6587 -20.7582 25 23.3411 -18.8466 25 24.85531 -16.7992 25 26.1904 -14.6308 25 27.3369 -12.35699 25 28.28631 -9.994198 25 29.03201 -7.559296 25 29.5685 -5.069996 25 -41.60464 -48.67031 25 -41.60464 -48.67031 15 -41.5 -50 25 -41.5 -50 15 -41.60464 -51.32968 25 -41.60464 -51.32968 15 -41.91601 -52.62664 25 -41.91601 -52.62664 15 -42.42644 -53.85892 25 -42.42644 -53.85892 15 -43.12335 -54.99617 25 -43.12335 -54.99617 15 -43.98958 -56.01041 25 -43.98958 -56.01041 15 -45.00382 -56.87664 25 -45.00382 -56.87664 15 -46.14107 -57.57355 25 -46.14107 -57.57355 15 -47.37335 -58.08398 25 -47.37335 -58.08398 15 -48.67031 -58.39535 25 -48.67031 -58.39535 15 -50 -58.5 25 -50 -58.5 15 -51.32968 -58.39535 25 -51.32968 -58.39535 15 -52.62664 -58.08398 25 -52.62664 -58.08398 15 -53.85892 -57.57355 25 -53.85892 -57.57355 15 -54.99617 -56.87664 25 -54.99617 -56.87664 15 -56.01041 -56.01041 25 -56.01041 -56.01041 15 -56.87664 -54.99617 25 -56.87664 -54.99617 15 -57.57355 -53.85892 25 -57.57355 -53.85892 15 -58.08398 -52.62664 25 -58.08398 -52.62664 15 -58.39535 -51.32968 25 -58.39535 -51.32968 15 -58.5 -50 25 -58.5 -50 15 -58.39535 -48.67031 25 -58.39535 -48.67031 15 -58.08398 -47.37335 25 -58.08398 -47.37335 15 -57.57355 -46.14107 25 -57.57355 -46.14107 15 -56.87664 -45.00382 25 -56.87664 -45.00382 15 -56.01041 -43.98958 25 -56.01041 -43.98958 15 -54.99617 -43.12335 25 -54.99617 -43.12335 15 -53.85892 -42.42644 25 -53.85892 -42.42644 15 -52.62664 -41.91601 25 -52.62664 -41.91601 15 -51.32968 -41.60464 25 -51.32968 -41.60464 15 -50 -41.5 25 -50 -41.5 15 -48.67031 -41.60464 25 -48.67031 -41.60464 15 -47.37335 -41.91601 25 -47.37335 -41.91601 15 -46.14107 -42.42644 25 -46.14107 -42.42644 15 -45.00382 -43.12335 25 -45.00382 -43.12335 15 -43.98958 -43.98958 25 -43.98958 -43.98958 15 -43.12335 -45.00382 25 -43.12335 -45.00382 15 -42.42644 -46.14107 25 -42.42644 -46.14107 15 -41.91601 -47.37335 25 -41.91601 -47.37335 15 58.39501 -48.67031 25 58.39501 -48.67031 15 58.5 -50 25 58.5 -50 15 58.39501 -51.32968 25 58.39501 -51.32968 15 58.08401 -52.62664 25 58.08401 -52.62664 15 57.57401 -53.85892 25 57.57401 -53.85892 15 56.87701 -54.99617 25 56.87701 -54.99617 15 56.01 -56.01041 25 56.01 -56.01041 15 54.996 -56.87664 25 54.996 -56.87664 15 53.859 -57.57355 25 53.859 -57.57355 15 52.62701 -58.08398 25 52.62701 -58.08398 15 51.33 -58.39535 25 51.33 -58.39535 15 50 -58.5 25 50 -58.5 15 48.6703 -58.39535 25 48.6703 -58.39535 15 47.3734 -58.08398 25 47.3734 -58.08398 15 46.1411 -57.57355 25 46.1411 -57.57355 15 45.0038 -56.87664 25 45.0038 -56.87664 15 43.9896 -56.01041 25 43.9896 -56.01041 15 43.1234 -54.99617 25 43.1234 -54.99617 15 42.4264 -53.85892 25 42.4264 -53.85892 15 41.91601 -52.62664 25 41.91601 -52.62664 15 41.6047 -51.32968 25 41.6047 -51.32968 15 41.5 -50 25 41.5 -50 15 41.6047 -48.67031 25 41.6047 -48.67031 15 41.91601 -47.37335 25 41.91601 -47.37335 15 42.4264 -46.14107 25 42.4264 -46.14107 15 43.1234 -45.00382 25 43.1234 -45.00382 15 43.9896 -43.98958 25 43.9896 -43.98958 15 45.0038 -43.12335 25 45.0038 -43.12335 15 46.1411 -42.42644 25 46.1411 -42.42644 15 47.3734 -41.91601 25 47.3734 -41.91601 15 48.6703 -41.60464 25 48.6703 -41.60464 15 50 -41.5 25 50 -41.5 15 51.33 -41.60464 25 51.33 -41.60464 15 52.62701 -41.91601 25 52.62701 -41.91601 15 53.859 -42.42644 25 53.859 -42.42644 15 54.996 -43.12335 25 54.996 -43.12335 15 56.01 -43.98958 25 56.01 -43.98958 15 56.87701 -45.00382 25 56.87701 -45.00382 15 57.57401 -46.14107 25 57.57401 -46.14107 15 58.08401 -47.37335 25 58.08401 -47.37335 15 60 -60 25 -60 -60 25 60 60 25 -60 60 25 54.97401 -49.49415 15 54.97401 -50.50584 15 54.77101 -51.49681 15 54.372 -52.4265 15 53.79401 -53.25685 15 53.06101 -53.95388 15 52.20201 -54.48902 15 51.25301 -54.84038 15 50.25301 -54.99357 15 49.2429 -54.94234 15 48.2635 -54.68875 15 47.3552 -54.24322 15 46.5552 -53.62395 15 45.8962 -52.85633 15 45.4052 -51.97177 15 45.1023 -51.00648 15 45 -50 15 45.1023 -48.99351 15 45.4052 -48.02822 15 45.8962 -47.14366 15 46.5552 -46.37604 15 47.3552 -45.75677 15 48.2635 -45.31124 15 49.2429 -45.05765 15 50.25301 -45.00642 15 51.25301 -45.15961 15 52.20201 -45.51097 15 53.06101 -46.04611 15 53.79401 -46.74314 15 54.372 -47.57349 15 54.77101 -48.50318 15 -54.89764 -48.99351 15 -55 -50 15 -54.59479 -48.02822 15 -54.10382 -47.14366 15 -53.44482 -46.37604 15 -52.64482 -45.75677 15 -51.73653 -45.31124 15 -50.75713 -45.05765 15 -49.74675 -45.00642 15 -48.74673 -45.15961 15 -47.79803 -45.51097 15 -46.93946 -46.04611 15 -46.20621 -46.74314 15 -45.62826 -47.57349 15 -45.2293 -48.50318 15 -45.02565 -49.49415 15 -45.02565 -50.50584 15 -45.2293 -51.49681 15 -45.62826 -52.4265 15 -46.20621 -53.25685 15 -46.93946 -53.95388 15 -47.79803 -54.48902 15 -48.74673 -54.84038 15 -49.74675 -54.99357 15 -50.75713 -54.94234 15 -51.73653 -54.68875 15 -52.64482 -54.24322 15 -53.44482 -53.62395 15 -54.10382 -52.85633 15 -54.59479 -51.97177 15 -54.89764 -51.00648 15 45.1023 51.00601 15 45 50 15 45.4052 51.97201 15 45.8962 52.85601 15 46.5552 53.62401 15 47.3552 54.24301 15 48.2635 54.68901 15 49.2429 54.942 15 50.25301 54.99401 15 51.25301 54.84 15 52.20201 54.48901 15 53.06101 53.95401 15 53.79401 53.25701 15 54.372 52.427 15 54.77101 51.497 15 54.97401 50.50601 15 54.97401 49.4942 15 54.77101 48.5032 15 54.372 47.5735 15 53.79401 46.7431 15 53.06101 46.0461 15 52.20201 45.511 15 51.25301 45.1596 15 50.25301 45.0064 15 49.2429 45.0577 15 48.2635 45.3112 15 47.3552 45.7568 15 46.5552 46.37601 15 45.8962 47.1437 15 45.4052 48.0282 15 45.1023 48.9935 15 -54.89764 48.9935 15 -54.89764 48.9935 0 -55 50 15 -55 50 0 -54.89764 51.00601 15 -54.89764 51.00601 0 -54.59479 51.97201 15 -54.59479 51.97201 0 -54.10382 52.85601 15 -54.10382 52.85601 0 -53.44482 53.62401 15 -53.44482 53.62401 0 -52.64482 54.24301 15 -52.64482 54.24301 0 -51.73653 54.68901 15 -51.73653 54.68901 0 -50.75713 54.942 15 -50.75713 54.942 0 -49.74675 54.99401 15 -49.74675 54.99401 0 -48.74673 54.84 15 -48.74673 54.84 0 -47.79803 54.48901 15 -47.79803 54.48901 0 -46.93946 53.95401 15 -46.93946 53.95401 0 -46.20621 53.25701 15 -46.20621 53.25701 0 -45.62826 52.427 15 -45.62826 52.427 0 -45.2293 51.497 15 -45.2293 51.497 0 -45.02565 50.50601 15 -45.02565 50.50601 0 -45.02565 49.4942 15 -45.02565 49.4942 0 -45.2293 48.5032 15 -45.2293 48.5032 0 -45.62826 47.5735 15 -45.62826 47.5735 0 -46.20621 46.7431 15 -46.20621 46.7431 0 -46.93946 46.0461 15 -46.93946 46.0461 0 -47.79803 45.511 15 -47.79803 45.511 0 -48.74673 45.1596 15 -48.74673 45.1596 0 -49.74675 45.0064 15 -49.74675 45.0064 0 -50.75713 45.0577 15 -50.75713 45.0577 0 -51.73653 45.3112 15 -51.73653 45.3112 0 -52.64482 45.7568 15 -52.64482 45.7568 0 -53.44482 46.37601 15 -53.44482 46.37601 0 -54.10382 47.1437 15 -54.10382 47.1437 0 -54.59479 48.0282 15 -54.59479 48.0282 0 45.1023 -51.00648 0 45 -50 0 45.1023 -48.99351 0 45.4052 -48.02822 0 45.8962 -47.14366 0 46.5552 -46.37604 0 47.3552 -45.75677 0 48.2635 -45.31124 0 49.2429 -45.05765 0 50.25301 -45.00642 0 51.25301 -45.15961 0 52.20201 -45.51097 0 53.06101 -46.04611 0 53.79401 -46.74314 0 54.372 -47.57349 0 54.77101 -48.50318 0 54.97401 -49.49415 0 54.97401 -50.50584 0 54.77101 -51.49681 0 54.372 -52.4265 0 53.79401 -53.25685 0 53.06101 -53.95388 0 52.20201 -54.48902 0 51.25301 -54.84038 0 50.25301 -54.99357 0 49.2429 -54.94234 0 48.2635 -54.68875 0 47.3552 -54.24322 0 46.5552 -53.62395 0 45.8962 -52.85633 0 45.4052 -51.97177 0 -54.89764 -51.00648 0 -55 -50 0 -54.89764 -48.99351 0 -54.59479 -48.02822 0 -54.10382 -47.14366 0 -53.44482 -46.37604 0 -52.64482 -45.75677 0 -51.73653 -45.31124 0 -50.75713 -45.05765 0 -49.74675 -45.00642 0 -48.74673 -45.15961 0 -47.79803 -45.51097 0 -46.93946 -46.04611 0 -46.20621 -46.74314 0 -45.62826 -47.57349 0 -45.2293 -48.50318 0 -45.02565 -49.49415 0 -45.02565 -50.50584 0 -45.2293 -51.49681 0 -45.62826 -52.4265 0 -46.20621 -53.25685 0 -46.93946 -53.95388 0 -47.79803 -54.48902 0 -48.74673 -54.84038 0 -49.74675 -54.99357 0 -50.75713 -54.94234 0 -51.73653 -54.68875 0 -52.64482 -54.24322 0 -53.44482 -53.62395 0 -54.10382 -52.85633 0 -54.59479 -51.97177 0 45.1023 48.9935 0 45 50 0 45.1023 51.00601 0 45.4052 51.97201 0 45.8962 52.85601 0 46.5552 53.62401 0 47.3552 54.24301 0 48.2635 54.68901 0 49.2429 54.942 0 50.25301 54.99401 0 51.25301 54.84 0 52.20201 54.48901 0 53.06101 53.95401 0 53.79401 53.25701 0 54.372 52.427 0 54.77101 51.497 0 54.97401 50.50601 0 54.97401 49.4942 0 54.77101 48.5032 0 54.372 47.5735 0 53.79401 46.7431 0 53.06101 46.0461 0 52.20201 45.511 0 51.25301 45.1596 0 50.25301 45.0064 0 49.2429 45.0577 0 48.2635 45.3112 0 47.3552 45.7568 0 46.5552 46.37601 0 45.8962 47.1437 0 45.4052 48.0282 0 -60 60 0 -60 -60 0 60 60 0 60 -60 0</float_array>
          <technique_common>
            <accessor source="#shape0-mesh-positions-array" count="724" stride="3">
              <param name="X" type="float"/>
              <param name="Y" type="float"/>
              <param name="Z" type="float"/>
            </accessor>
          </technique_common>
        </source>
        <source id="shape0-mesh-normals">
          <float_array id="shape0-mesh-normals-array" count="2313">0 0 1 -0.996919 -0.07843816 0 -0.9969187 -0.07844275 0 -0.9969174 0.07845973 0 -0.9969177 0.0784552 0 -0.9723677 0.2334547 0 -0.9238823 0.3826767 0 -0.923884 0.3826729 0 -0.8526468 0.5224878 0 -0.7603955 0.6494603 0 -0.7603978 0.6494576 0 -0.6494334 0.7604185 0 -0.6494289 0.7604224 0 -0.5225502 0.8526085 0 -0.5225462 0.8526111 0 -0.3826602 0.9238893 0 -0.3826617 0.9238886 0 -0.2334018 0.9723804 0 -0.2334029 0.9723802 0 -0.07849597 0.9969145 0 -0.07849562 0.9969145 0 0.07849597 0.9969145 0 0.07849562 0.9969145 0 0.2334029 0.9723802 0 0.3826617 0.9238886 0 0.3826585 0.9238899 0 0.5225462 0.8526111 0 0.5225502 0.8526085 0 0.6494289 0.7604224 0 0.6494334 0.7604185 0 0.7604001 0.649455 0 0.7603955 0.6494603 0 0.8526447 0.5224911 0 0.8526489 0.5224846 0 0.9238823 0.3826767 0 0.9723688 0.2334504 0 0.9723667 0.2334591 0 0.996918 0.07845062 0 0.9969174 0.07845973 0 0.9969187 -0.07844275 0 0.9969194 -0.07843363 0 0.9723714 -0.2334396 0 0.9723734 -0.2334309 0 0.9238489 -0.3827577 0 0.8525879 -0.5225839 0 0.8525838 -0.5225906 0 0.7603304 -0.6495366 0 0.7603349 -0.6495313 0 0.6497838 -0.7601191 0 0.6497793 -0.760123 0 0.5225502 -0.8526085 0 0.5225462 -0.8526111 0 0.3824094 -0.923993 0 0.3824127 -0.9239916 0 0.2331811 -0.9724333 0 0.07871729 -0.9968971 0 0.07871764 -0.9968969 0 -0.07871729 -0.9968971 0 -0.07871764 -0.9968969 0 -0.2331811 -0.9724333 0 -0.2331801 -0.9724336 0 -0.3824127 -0.9239916 0 -0.3824111 -0.9239924 0 -0.5225462 -0.8526111 0 -0.5225502 -0.8526085 0 -0.6497793 -0.760123 0 -0.6497838 -0.7601191 0 -0.7603327 -0.6495339 0 -0.7603304 -0.6495366 0 -0.8525859 -0.5225872 0 -0.9238504 -0.3827537 0 -0.9238489 -0.3827577 0 -0.9723724 -0.2334352 0 -0.9968987 -0.07869738 0 -0.9968979 -0.07870644 0 -0.9968966 0.07872349 0 -0.9968972 0.07871443 0 -0.972431 0.2331907 0 -0.9239956 0.3824033 0 -0.8526203 0.5225311 0 -0.8526163 0.5225377 0 -0.7601108 0.6497935 0 -0.7601063 0.6497988 0 -0.7604176 0.6494343 0 -0.7604176 0.6494343 0 -0.6495238 0.7603414 0 -0.5226278 0.8525611 0 -0.5226318 0.8525586 0 -0.3827362 0.9238578 0 -0.2333925 0.9723826 0 -0.07847803 0.9969159 0 -0.07847768 0.9969159 0 0.0784949 0.9969145 0 0.07849526 0.9969145 0 0.2334112 0.9723781 0 0.3826553 0.9238913 0 0.5225319 0.8526198 0 0.649447 0.760407 0 0.7604069 0.6494471 0 0.8526203 0.5225311 0 0.9238904 0.3826572 0 0.9238921 0.3826533 0 0.9723781 0.2334114 0 0.9969145 0.07849609 0 0.9969158 -0.07847911 0 0.9723828 -0.233392 0 0.9238585 -0.3827342 0 0.923857 -0.3827381 0 0.8525594 -0.5226305 0 0.7603417 -0.6495234 0 0.6497974 -0.7601076 0 0.649433 -0.760419 0 0.649433 -0.760419 0 0.649433 -0.760419 0 0.5225319 -0.8526198 0 0.3830263 -0.9237375 0 0.3831148 -0.9237008 0 0.3830263 -0.9237375 0 0.3831148 -0.9237008 0 0.3830263 -0.9237375 0 0.3830263 -0.9237375 0 0.2331894 -0.9724314 0 0.07871693 -0.996897 0 0.07804751 -0.9969497 0 0.07804751 -0.9969497 7.98676e-7 0.07804751 -0.9969497 0 -0.07869935 -0.9968985 0 -0.07812625 -0.9969435 0 -0.07812625 -0.9969435 0 -0.07812625 -0.9969435 0 -0.2331708 -0.9724359 0 -0.3824871 -0.9239609 0 -0.3827971 -0.9238325 0 -0.3827971 -0.9238325 0 -0.3827971 -0.9238325 0 -0.5226318 -0.8525586 0 -0.5226278 -0.8525611 0 -0.6498742 -0.7600418 0 -0.7600411 -0.6498751 0 -0.760357 -0.6495053 0 -0.7600457 -0.6498697 0 -0.8525553 -0.5226371 0 -0.8525594 -0.5226305 0 -0.9236685 -0.3831928 0 -0.923595 -0.3833698 0 -0.9236685 -0.3831928 -1.00366e-6 -0.9236133 -0.3833255 0 -0.9236685 -0.3831928 0 -0.9236685 -0.3831928 0 -0.9724357 -0.2331713 0 -0.9990987 0.04245018 0 -0.9990986 -0.04245024 0 -0.9919022 -0.1270044 0 -0.9919025 -0.127002 0 -0.9775552 -0.2106799 0 -0.9775547 -0.2106822 0 -0.9561635 -0.2928336 0 -0.9561641 -0.2928314 0 -0.927896 -0.3728392 0 -0.8929223 -0.4502109 0 -0.8929213 -0.4502127 0 -0.8515262 -0.5243122 0 -0.8515251 -0.524314 0 -0.804005 -0.5946226 0 -0.8040038 -0.5946242 0 -0.7506783 -0.6606681 0 -0.6919252 -0.7219693 0 -0.6282195 -0.7780363 0 -0.5599805 -0.8285058 0 -0.4876955 -0.8730138 0 -0.4119068 -0.911226 0 -0.411907 -0.9112259 0 -0.3331318 -0.9428803 0 -0.2519926 -0.9677292 0 -0.2519928 -0.9677292 0 -0.1689806 -0.9856194 0 -0.0848214 -0.9963962 0 0 -1 0 0.0848214 -0.9963962 0 0.1689808 -0.9856193 0 0.2519923 -0.9677293 0 0.3331322 -0.9428802 0 0.3331324 -0.9428802 0 0.411907 -0.9112259 0 0.4119068 -0.911226 0 0.4876945 -0.8730144 0 0.4876939 -0.8730146 0 0.5599833 -0.828504 0 0.6282183 -0.7780371 0 0.6282171 -0.7780381 0 0.6919252 -0.7219693 0 0.7506777 -0.6606687 0 0.7506771 -0.6606694 0 0.804005 -0.5946226 0 0.8040056 -0.5946218 0 0.8515262 -0.5243122 0 0.8515251 -0.524314 0 0.8929213 -0.4502127 0 0.8929223 -0.4502109 0 0.927896 -0.3728392 0 0.9561648 -0.2928292 0 0.9775537 -0.2106868 0 0.9775542 -0.2106845 0 0.9919025 -0.127002 0 0.9990986 -0.04245024 0 0.9990987 0.04245018 0 0.9919025 0.1270022 0 0.9775542 0.2106845 0 0.9775537 0.2106868 0 0.9561649 0.2928287 0 0.9278956 0.3728402 0 0.8929151 0.4502254 0 0.8929141 0.4502272 0 0.8515354 0.5242972 0 0.8515365 0.5242955 0 0.8040063 0.5946208 0 0.8040058 0.5946215 0 0.750676 0.6606705 0 0.7506766 0.6606699 0 0.6919264 0.7219682 0 0.6919264 0.7219681 0 0.6282167 0.7780386 0 0.6282179 0.7780376 0 0.5599827 0.8285044 0 0.5599828 0.8285044 0 0.4876946 0.8730144 0 0.4876951 0.8730142 0 0.4119055 0.9112266 0 0.4119058 0.9112265 0 0.3331304 0.9428809 0 0.3331302 0.9428809 0 0.2519952 0.9677286 0 0.1689757 0.9856203 0 0.08482289 0.9963961 0 0 1 0 -0.08482289 0.9963961 0 -0.1689755 0.9856203 0 -0.2519956 0.9677284 0 -0.2519954 0.9677284 0 -0.3331298 0.9428811 0 -0.4119058 0.9112265 0 -0.4119055 0.9112266 0 -0.4876961 0.8730136 0 -0.55998 0.8285062 0 -0.55998 0.8285062 0 -0.628219 0.7780366 0 -0.628219 0.7780365 0 -0.6919264 0.7219682 0 -0.6919264 0.7219681 0 -0.7506772 0.6606691 0 -0.7506772 0.6606692 0 -0.8040046 0.5946231 0 -0.8040058 0.5946215 0 -0.8515354 0.5242972 0 -0.8515365 0.5242955 0 -0.8929141 0.4502272 0 -0.8929151 0.4502254 0 -0.9278956 0.3728402 0 -0.9561643 0.292831 0 -0.9561636 0.2928331 0 -0.9775547 0.2106822 0 -0.9775552 0.2106799 0 -0.9919025 0.1270022 0 -0.9919022 0.1270046 0 -0.9969176 -0.0784561 0 -0.9969173 -0.07846063 0 -0.9969173 0.07846063 0 -0.9969176 0.0784561 0 -0.9723699 0.2334456 0 -0.9238802 0.3826818 0 -0.9238819 0.3826779 0 -0.8526367 0.5225044 0 -0.7604088 0.6494447 0 -0.7604111 0.6494421 0 -0.649445 0.7604086 0 -0.6494405 0.7604125 0 -0.5225066 0.8526353 0 -0.5225025 0.8526378 0 -0.3826796 0.9238811 0 -0.3826813 0.9238805 0 -0.2334451 0.97237 0 -0.2334461 0.9723697 0 -0.07845902 0.9969174 0 -0.07845866 0.9969174 0 0.07845902 0.9969174 0 0.07845866 0.9969174 0 0.2334461 0.9723697 0 0.3826813 0.9238805 0 0.382678 0.9238818 0 0.5225025 0.8526378 0 0.5225066 0.8526353 0 0.6494405 0.7604125 0 0.649445 0.7604086 0 0.7604134 0.6494395 0 0.7604088 0.6494447 0 0.8526346 0.5225077 0 0.8526387 0.5225011 0 0.9238802 0.3826818 0 0.972371 0.2334413 0 0.9723688 0.2334499 0 0.996918 0.07845151 0 0.9969173 0.07846063 0 0.9969173 -0.07846063 0 0.996918 -0.07845151 0 0.9723688 -0.2334499 0 0.972371 -0.2334413 0 0.9238802 -0.3826818 0 0.8526387 -0.5225011 0 0.8526346 -0.5225077 0 0.7604088 -0.6494447 0 0.7604134 -0.6494395 0 0.649445 -0.7604086 0 0.6494405 -0.7604125 0 0.5225066 -0.8526353 0 0.5225025 -0.8526378 0 0.382678 -0.9238818 0 0.3826813 -0.9238805 0 0.2334461 -0.9723697 0 0.07845866 -0.9969174 0 0.07845902 -0.9969174 0 -0.07845866 -0.9969174 0 -0.07845902 -0.9969174 0 -0.2334461 -0.9723697 0 -0.2334451 -0.97237 0 -0.3826813 -0.9238805 0 -0.3826796 -0.9238811 0 -0.5225025 -0.8526378 0 -0.5225066 -0.8526353 0 -0.6494405 -0.7604125 0 -0.649445 -0.7604086 0 -0.7604111 -0.6494421 0 -0.7604088 -0.6494447 0 -0.8526367 -0.5225044 0 -0.9238819 -0.3826779 0 -0.9238802 -0.3826818 0 -0.9723699 -0.2334456 0 -0.9969497 -0.0780462 0 -0.9969497 -0.0780462 0 -0.9969497 -0.0780462 0 -0.9968965 -0.07872438 0 -0.9968965 0.07872438 0 -0.9969497 0.0780462 0 -0.9969497 0.0780462 0 -0.9969497 0.0780462 0 -0.9724332 0.2331817 0 -0.9722766 0.2338343 0 -0.9722766 0.2338343 6.94029e-7 -0.9722766 0.2338343 0 -0.9239935 0.3824083 0 -0.8526101 0.5225476 0 -0.8526061 0.5225543 0 -0.7604355 0.6494135 0 -0.7604355 0.6494135 0 -0.7604355 0.6494135 0 -0.7601196 0.6497833 0 -0.6495354 0.7603315 0 -0.5225841 0.8525878 0 -0.5225881 0.8525854 0 -0.3827557 0.9238497 0 -0.2334358 0.9723723 0 -0.07844114 0.9969189 0 -0.07844078 0.9969189 0 0.07845795 0.9969175 0 0.0784583 0.9969175 0 0.2334545 0.9723678 0 0.3826748 0.9238832 0 0.5224882 0.8526465 0 0.6494585 0.760397 0 0.7604202 0.6494315 0 0.8526101 0.5225476 0 0.9238883 0.3826622 0 0.92389 0.3826584 0 0.9723802 0.2334023 0 0.9969143 0.07849699 0 0.9969143 -0.07849699 0 0.9723802 -0.2334023 0 0.92389 -0.3826584 0 0.9238883 -0.3826622 0 0.8526101 -0.5225476 0 0.7604202 -0.6494315 0 0.6494585 -0.760397 0 0.5224882 -0.8526465 0 0.3826748 -0.9238832 0 0.2334545 -0.9723678 0 0.0784583 -0.9969175 0 0.07845795 -0.9969175 0 -0.07844078 -0.9969189 0 -0.07844114 -0.9969189 0 -0.2334358 -0.9723723 0 -0.3827557 -0.9238497 0 -0.5225881 -0.8525854 0 -0.5225841 -0.8525878 0 -0.6495354 -0.7603315 0 -0.7601196 -0.6497833 0 -0.7604355 -0.6494135 0 -0.7604355 -0.6494135 0 -0.7604355 -0.6494135 0 -0.8526061 -0.5225543 0 -0.8526101 -0.5225476 0 -0.9239935 -0.3824083 0 -0.9724332 -0.2331817 0 5.01192e-6 0 1 -6.38706e-6 0 1 4.98532e-6 0 1 -1.08383e-6 0 1 1.01646e-6 0 1 -2.03406e-6 0 1 -1.75654e-6 0 1 -6.48684e-7 0 1 1.65413e-6 0 1 -7.84266e-7 0 1 1.1092e-6 0 1 -1.54658e-6 0 1 1.07383e-6 0 1 2.11659e-6 0 1 -5.27256e-7 0 1 -5.28463e-7 0 1 5.30918e-7 0 1 5.33462e-7 0 1 5.35933e-7 0 1 7.18988e-7 0 1 -1.45385e-6 0 1 2.78288e-6 0 1 1.92515e-7 0 1 -1.50296e-6 0 1 -8.27003e-7 0 1 -1.86971e-6 0 1 8.26988e-7 0 1 -1.50291e-6 0 1 1.15512e-6 0 1 -1.11312e-6 0 1 1.48789e-6 0 1 -1.4539e-6 0 1 -7.18999e-7 0 1 -1.78637e-6 0 1 3.55646e-7 0 1 1.48761e-6 0 1 -1.76977e-6 0 1 1.49189e-6 0 1 -1.4092e-6 0 1 1.49739e-6 0 1 -1.50619e-6 0 1 1.76389e-6 0 1 3.57938e-7 0 1 1.10893e-6 0 1 -7.84226e-7 0 1 7.84255e-7 0 1 -1.10891e-6 0 1 -3.57949e-7 0 1 -1.76384e-6 0 1 1.50618e-6 0 1 -1.49739e-6 0 1 1.40925e-6 0 1 1.76975e-6 0 1 -1.48761e-6 0 1 -3.55639e-7 0 1 1.78642e-6 0 1 7.19008e-7 0 1 -1.48216e-6 0 1 1.45384e-6 0 1 1.11313e-6 0 1 -1.1554e-6 0 1 1.50299e-6 0 1 -8.26733e-7 0 1 -1.86971e-6 0 1 8.26749e-7 0 1 1.50304e-6 0 1 -1.92562e-7 0 1 -2.7829e-6 0 1 1.45379e-6 0 1 -7.18996e-7 0 1 -5.35948e-7 0 1 -5.3345e-7 0 1 -5.30912e-7 0 1 5.28484e-7 0 1 5.27248e-7 0 1 -2.11653e-6 0 1 -1.07386e-6 0 1 1.54658e-6 0 1 -1.10918e-6 0 1 7.84295e-7 0 1 -1.65412e-6 0 1 6.48699e-7 0 1 1.75654e-6 0 1 5.06107e-6 0 1 -2.72304e-6 0 1 -2.56565e-7 0 1 1.27095e-6 0 1 -7.78321e-6 0 1 2.25369e-6 0 1 -1.03748e-5 0 1 5.52614e-6 0 1 -3.02427e-6 0 1 3.16902e-7 0 1 -1.01694e-6 0 1 1.08383e-6 0 1 -4.98277e-6 0 1 6.38333e-6 0 1 -5.01764e-6 0 1 1.60946e-5 0 1 -5.5216e-6 0 1 1.03663e-5 0 1 -2.25395e-6 0 1 7.78411e-6 0 1 -1.2721e-6 0 1 2.56502e-7 0 1 2.72245e-6 0 1 -5.05997e-6 0 1 -1.61537e-5 0 1 2.16787e-6 0 1 -6.38704e-6 0 1 6.38331e-6 0 1 -2.16786e-6 0 1 0.9948692 0.1011691 0 0.9948643 -0.1012185 0 0.9542039 -0.2991571 0 0.8742167 -0.485536 0 0.8742133 -0.4855421 0 0.7586053 -0.6515504 0 0.7586054 -0.6515505 0 0.7586053 -0.6515504 0 0.7585974 -0.6515597 0 0.7585974 -0.6515597 0 0.7585974 -0.6515597 0 0.6119512 -0.7908956 0 0.6119434 -0.7909017 0 0.4404628 -0.897771 0 0.4402476 -0.8978765 0 0.4404628 -0.897771 0 0.4399861 -0.8980047 0 0.4403305 -0.8978358 2.77891e-7 0.4403305 -0.8978358 0 0.2506679 -0.9680731 0 0.2506679 -0.9680731 0 0.2506679 -0.9680731 0 0.2505751 -0.9680972 0 0.2505751 -0.9680972 0 0.2505751 -0.9680972 0 0.0505377 -0.9987223 0 0.0505377 -0.9987223 0 0.0505377 -0.9987223 0 0.0505377 -0.9987223 0 0.0505377 -0.9987223 2.42424e-7 0.0505377 -0.9987223 0 -0.1513097 -0.9884864 0 -0.1513097 -0.9884864 0 -0.1513097 -0.9884864 -2.5915e-7 -0.1522112 -0.9883481 0 -0.3469793 -0.9378728 0 -0.3472967 -0.9377553 0 -0.346982 -0.9378718 0 -0.5288596 -0.8487094 0 -0.5288668 -0.8487049 0 -0.6889621 -0.7247974 0 -0.6889581 -0.7248013 0 -0.8206487 -0.5714332 0 -0.9188714 -0.3945574 0 -0.9188714 -0.3945574 0 -0.9188714 -0.3945574 0 -0.9190038 -0.394249 0 -0.9795318 -0.2012897 0 -0.9795302 -0.2012974 0 -1 0 0 -0.9795302 0.2012974 0 -0.9795318 0.2012897 0 -0.918958 0.3943555 0 -0.8207767 0.5712493 0 -0.6889581 0.7248013 0 -0.6889621 0.7247974 0 -0.528932 0.8486642 0 -0.5289248 0.8486687 0 -0.3473402 0.9377393 0 -0.3473376 0.9377402 0 -0.1514303 0.988468 0 -0.1514291 0.9884681 0 0.05070745 0.9987136 0 0.2505705 0.9680984 0 0.4404448 0.8977798 0 0.4404481 0.8977782 0 0.6120755 0.7907994 0 0.6120833 0.7907934 0 0.7587786 0.6513488 0 0.7587865 0.6513395 0 0.8743307 0.4853308 0 0.874334 0.4853247 0 0.9541419 0.2993552 0 0.9948748 0.1011145 0 0.9948748 -0.1011145 0 0.954127 -0.2994023 0 0.9541293 -0.299395 0 0.8743347 -0.4853237 0 0.7587482 -0.6513841 0 0.7587442 -0.6513888 0 0.6121202 -0.7907649 0 0.4403868 -0.8978083 0 0.4403899 -0.8978066 0 0.2506498 -0.9680779 0 0.2506518 -0.9680773 0 0.05066072 -0.9987159 0 0.05066114 -0.9987159 0 -0.1514241 -0.9884689 0 -0.3472186 -0.9377843 0 -0.347216 -0.9377853 0 -0.528766 -0.8487677 0 -0.6888512 -0.7249028 0 -0.688747 -0.7250018 0 -0.6888512 -0.7249028 0 -0.6887511 -0.724998 0 -0.6888552 -0.7248989 0 -0.6888552 -0.7248989 0 -0.820738 -0.5713047 0 -0.9189445 -0.3943868 0 -0.9189417 -0.3943936 0 -0.9795598 -0.2011532 0 -0.9795598 -0.2011532 0 -0.9795598 -0.2011532 0 -0.9794729 -0.2015758 0 -0.9794729 -0.2015758 0 -0.9794729 -0.2015758 0 -0.9794729 0.2015758 0 -0.9794729 0.2015758 0 -0.9794729 0.2015758 0 -0.9795598 0.2011532 0 -0.9795598 0.2011532 0 -0.9795598 0.2011532 0 -0.9189417 0.3943936 0 -0.9189445 0.3943868 0 -0.820738 0.5713047 0 -0.6888552 0.7248989 0 -0.6887511 0.724998 0 -0.6888552 0.7248989 0 -0.688747 0.7250018 0 -0.6888512 0.7249028 0 -0.6888512 0.7249028 0 -0.528766 0.8487677 0 -0.347216 0.9377853 0 -0.3472186 0.9377843 0 -0.1514241 0.9884689 0 0.05066114 0.9987159 0 0.05066072 0.9987159 0 0.2506518 0.9680773 0 0.2506498 0.9680779 0 0.4403899 0.8978066 0 0.4403868 0.8978083 0 0.6121202 0.7907649 0 0.7587442 0.6513888 0 0.7587482 0.6513841 0 0.8743347 0.4853237 0 0.9541293 0.299395 0 0.954127 0.2994023 0 0.9948692 0.1011703 0 0.9948692 -0.1011703 0 0.9541408 -0.2993584 0 0.8743482 -0.4852991 0 0.8743449 -0.4853052 0 0.7587562 -0.6513749 0 0.6121162 -0.7907678 0 0.6121085 -0.7907739 0 0.4403963 -0.8978035 0 0.4403932 -0.897805 0 0.05064731 -0.9987167 0 -0.1514217 -0.9884693 0 -0.1514229 -0.9884691 0 -0.3473077 -0.9377512 0 -0.3473103 -0.9377503 0 -0.5289574 -0.8486485 0 -0.5289646 -0.848644 0 -0.688974 -0.7247862 0 -0.68897 -0.7247899 0 -0.8207607 -0.5712723 0 -0.9189562 -0.3943596 0 -0.979531 -0.2012934 0 -0.9795295 -0.2013011 0 -0.9795295 0.2013011 0 -0.979531 0.2012934 0 -0.9189562 0.3943596 0 -0.8207607 0.5712723 0 -0.68897 0.7247899 0 -0.688974 0.7247862 0 -0.5289646 0.848644 0 -0.5289574 0.8486485 0 -0.3473103 0.9377503 0 -0.3473077 0.9377512 0 -0.1514229 0.9884691 0 -0.1514217 0.9884693 0 0.05064731 0.9987167 0 0.4403932 0.897805 0 0.4403963 0.8978035 0 0.6121085 0.7907739 0 0.6121162 0.7907678 0 0.7587562 0.6513749 0 0.8743449 0.4853052 0 0.8743482 0.4852991 0 0.9541408 0.2993584 0 0.994875 0.1011134 0 0.9948699 -0.1011627 0 0.9541901 -0.299201 0 0.9541924 -0.2991937 0 0.8745288 -0.4849737 0 0.8744357 -0.4851414 0 0.8745288 -0.4849737 0 0.8745288 -0.4849737 0 0.8745288 -0.4849737 0 0.8745288 -0.4849737 0 0.7589097 -0.651196 0 0.7589057 -0.6512005 0 0.6119551 -0.7908926 0 0.6124857 -0.7904817 0 0.6125615 -0.790423 0 0.6125615 -0.790423 0 0.4407544 -0.8976277 0 0.4407576 -0.8976262 0 0.2507588 -0.9680496 0 0.2505732 -0.9680977 0 0.2507588 -0.9680496 0 0.250111 -0.9682172 0 0.05083858 -0.9987069 0 0.05083858 -0.9987069 0 0.05083858 -0.9987069 0 0.05050384 -0.9987239 0 0.05050384 -0.9987239 0 0.05050384 -0.9987239 0 -0.1513595 -0.9884788 0 -0.1513595 -0.9884788 0 -0.1513595 -0.9884788 0 -0.1513595 -0.9884788 0 -0.1513595 -0.9884788 0 -0.1513595 -0.9884788 0 -0.3472051 -0.9377893 0 -0.3473399 -0.9377393 0 -0.3472051 -0.9377893 0 -0.3468878 -0.9379067 0 -0.5286683 -0.8488286 0 -0.6890826 -0.7246828 0 -0.6890866 -0.7246791 0 -0.820626 -0.5714657 0 -0.9189921 -0.3942762 0 -0.9189891 -0.3942829 0 -0.9795221 -0.2013373 0 -0.979522 -0.2013373 0 -0.9795221 -0.2013373 0 -0.9795896 -0.2010086 0 -0.9795896 -0.2010086 0 -0.9795896 -0.2010086 0 -0.9795896 0.2010086 0 -0.9795896 0.2010086 0 -0.9795896 0.2010086 0 -0.979522 0.2013373 0 -0.9795221 0.2013373 0 -0.9795221 0.2013373 0 -0.9189434 0.3943895 0 -0.9189463 0.3943827 0 -0.8207541 0.5712818 0 -0.6890866 0.7246791 0 -0.6890826 0.7246828 0 -0.5287334 0.848788 0 -0.3472459 0.9377743 0 -0.3472484 0.9377732 0 -0.1514315 0.9884678 0 0.05072134 0.9987129 0 0.05072093 0.9987129 0 0.2505686 0.9680989 0 0.4404417 0.8977813 0 0.4404385 0.8977829 0 0.6120871 0.7907903 0 0.7587746 0.6513534 0 0.8743205 0.4853492 0 0.9541303 0.2993918 0 0.954128 0.2993991 0 1 0 0 0 0 -1</float_array>
          <technique_common>
            <accessor source="#shape0-mesh-normals-array" count="771" stride="3">
              <param name="X" type="float"/>
              <param name="Y" type="float"/>
              <param name="Z" type="float"/>
            </accessor>
          </technique_common>
        </source>
        <vertices id="shape0-mesh-vertices">
          <input semantic="POSITION" source="#shape0-mesh-positions"/>
        </vertices>
        <triangles material="BLACK-material" count="1460">
          <input semantic="VERTEX" source="#shape0-mesh-vertices" offset="0"/>
          <input semantic="NORMAL" source="#shape0-mesh-normals" offset="1"/>
          <p>0 0 1 0 2 0 2 0 1 0 3 0 2 0 3 0 4 0 4 0 3 0 5 0 4 0 5 0 6 0 6 0 5 0 7 0 6 0 7 0 8 0 8 0 7 0 9 0 8 0 9 0 10 0 10 0 9 0 11 0 10 0 11 0 12 0 12 0 11 0 13 0 12 0 13 0 14 0 14 0 13 0 15 0 14 0 15 0 16 0 16 0 15 0 17 0 16 0 17 0 18 0 18 0 17 0 19 0 18 0 19 0 20 0 20 0 19 0 21 0 20 0 21 0 22 0 22 0 21 0 23 0 22 0 23 0 24 0 24 0 23 0 25 0 24 0 25 0 26 0 26 0 25 0 27 0 26 0 27 0 28 0 28 0 27 0 29 0 28 0 29 0 30 0 30 0 29 0 31 0 30 0 31 0 32 0 32 0 31 0 33 0 32 0 33 0 34 0 34 0 33 0 35 0 34 0 35 0 36 0 36 0 35 0 37 0 36 0 37 0 38 0 38 0 37 0 39 0 1 0 0 0 40 0 40 0 0 0 41 0 40 0 41 0 42 0 42 0 41 0 43 0 42 0 43 0 44 0 44 0 43 0 45 0 44 0 45 0 46 0 46 0 45 0 47 0 46 0 47 0 48 0 48 0 47 0 49 0 48 0 49 0 50 0 50 0 49 0 51 0 50 0 51 0 52 0 52 0 51 0 53 0 52 0 53 0 54 0 54 0 53 0 55 0 54 0 55 0 56 0 56 0 55 0 57 0 56 0 57 0 58 0 58 0 57 0 59 0 58 0 59 0 60 0 60 0 59 0 61 0 60 0 61 0 62 0 62 0 61 0 63 0 62 0 63 0 64 0 64 0 63 0 65 0 64 0 65 0 66 0 66 0 65 0 67 0 66 0 67 0 68 0 68 0 67 0 69 0 68 0 69 0 70 0 70 0 69 0 71 0 70 0 71 0 72 0 72 0 71 0 73 0 74 1 75 1 76 1 76 2 75 2 77 2 76 3 77 3 78 3 78 4 77 4 79 4 78 5 79 5 80 5 80 5 79 5 81 5 80 6 81 6 82 6 82 7 81 7 83 7 82 8 83 8 84 8 84 8 83 8 85 8 84 9 85 9 86 9 86 10 85 10 87 10 86 11 87 11 88 11 88 12 87 12 89 12 88 13 89 13 90 13 90 14 89 14 91 14 90 15 91 15 92 15 92 16 91 16 93 16 92 17 93 17 94 17 94 18 93 18 95 18 94 19 95 19 96 19 96 20 95 20 97 20 96 21 97 21 98 21 98 22 97 22 99 22 98 23 99 23 100 23 100 23 99 23 101 23 100 24 101 24 102 24 102 25 101 25 103 25 102 26 103 26 104 26 104 27 103 27 105 27 104 28 105 28 106 28 106 29 105 29 107 29 106 30 107 30 108 30 108 31 107 31 109 31 108 32 109 32 110 32 110 33 109 33 111 33 110 34 111 34 112 34 112 34 111 34 113 34 112 35 113 35 114 35 114 36 113 36 115 36 114 37 115 37 116 37 116 38 115 38 117 38 116 39 117 39 118 39 118 40 117 40 119 40 118 41 119 41 120 41 120 42 119 42 121 42 120 43 121 43 122 43 122 43 121 43 123 43 122 44 123 44 124 44 124 45 123 45 125 45 124 46 125 46 126 46 126 47 125 47 127 47 126 48 127 48 128 48 128 49 127 49 129 49 128 50 129 50 130 50 130 51 129 51 131 51 130 52 131 52 132 52 132 53 131 53 133 53 132 54 133 54 134 54 134 54 133 54 135 54 134 55 135 55 136 55 136 56 135 56 137 56 136 57 137 57 138 57 138 58 137 58 139 58 138 59 139 59 140 59 140 60 139 60 141 60 140 61 141 61 142 61 142 62 141 62 143 62 142 63 143 63 144 63 144 64 143 64 145 64 144 65 145 65 146 65 146 66 145 66 147 66 146 67 147 67 148 67 148 68 147 68 149 68 148 69 149 69 150 69 150 69 149 69 151 69 150 70 151 70 152 70 152 71 151 71 153 71 152 72 153 72 74 72 74 72 153 72 75 72 154 73 155 73 156 73 156 74 155 74 157 74 156 75 157 75 158 75 158 76 157 76 159 76 158 77 159 77 160 77 160 77 159 77 161 77 160 78 161 78 162 78 162 78 161 78 163 78 162 79 163 79 164 79 164 80 163 80 165 80 164 81 165 81 166 81 166 82 165 83 167 84 166 85 167 85 168 85 168 85 167 85 169 85 168 86 169 86 170 86 170 87 169 87 171 87 170 88 171 88 172 88 172 88 171 88 173 88 172 89 173 89 174 89 174 89 173 89 175 89 174 90 175 90 176 90 176 91 175 91 177 91 176 92 177 92 178 92 178 93 177 93 179 93 178 94 179 94 180 94 180 94 179 94 181 94 180 95 181 95 182 95 182 95 181 95 183 95 182 96 183 96 184 96 184 96 183 96 185 96 184 97 185 97 186 97 186 97 185 97 187 97 186 98 187 98 188 98 188 98 187 98 189 98 188 99 189 99 190 99 190 99 189 99 191 99 190 100 191 100 192 100 192 101 191 101 193 101 192 102 193 102 194 102 194 102 193 102 195 102 194 103 195 103 196 103 196 103 195 103 197 103 196 104 197 104 198 104 198 104 197 104 199 104 198 105 199 105 200 105 200 105 199 105 201 105 200 106 201 106 202 106 202 107 201 107 203 107 202 108 203 108 204 108 204 108 203 108 205 108 204 109 205 109 206 109 206 109 205 109 207 109 206 110 207 110 208 110 208 111 207 112 209 113 208 114 209 114 210 114 210 114 209 114 211 114 210 115 211 116 212 117 212 118 211 119 213 120 212 121 213 121 214 121 214 121 213 121 215 121 214 122 215 122 216 122 216 123 215 124 217 125 216 126 217 126 218 126 218 127 217 128 219 129 218 130 219 130 220 130 220 130 219 130 221 130 220 131 221 131 222 131 222 132 221 133 223 134 222 135 223 135 224 135 224 136 223 136 225 136 224 137 225 137 226 137 226 137 225 137 227 137 226 138 227 138 228 138 228 139 227 140 229 140 228 141 229 141 230 141 230 142 229 142 231 142 230 143 231 144 232 145 232 146 231 147 233 148 232 149 233 149 154 149 154 149 233 149 155 149 4 150 234 150 2 150 2 150 234 150 235 150 2 151 235 151 0 151 0 151 235 151 236 151 0 152 236 152 41 152 41 153 236 153 237 153 41 154 237 154 43 154 43 155 237 155 238 155 43 156 238 156 45 156 45 157 238 157 239 157 45 158 239 158 47 158 47 158 239 158 240 158 47 159 240 159 49 159 49 160 240 160 241 160 49 161 241 161 51 161 51 162 241 162 242 162 51 163 242 163 53 163 53 164 242 164 243 164 53 165 243 165 55 165 55 165 243 165 244 165 55 166 244 166 57 166 57 166 244 166 245 166 57 167 245 167 59 167 59 167 245 167 246 167 59 168 246 168 61 168 61 168 246 168 247 168 61 169 247 169 63 169 63 169 247 169 248 169 63 170 248 170 65 170 65 171 248 171 249 171 65 172 249 172 67 172 67 172 249 172 250 172 67 173 250 173 69 173 69 174 250 174 251 174 69 175 251 175 71 175 71 175 251 175 252 175 71 176 252 176 73 176 73 176 252 176 253 176 73 177 253 177 72 177 72 177 253 177 254 177 72 178 254 178 70 178 70 178 254 178 255 178 70 179 255 179 68 179 68 179 255 179 256 179 68 180 256 180 66 180 66 180 256 180 257 180 66 181 257 181 64 181 64 182 257 182 258 182 64 183 258 183 62 183 62 184 258 184 259 184 62 185 259 185 60 185 60 186 259 186 260 186 60 187 260 187 58 187 58 187 260 187 261 187 58 188 261 188 56 188 56 189 261 189 262 189 56 190 262 190 54 190 54 190 262 190 263 190 54 191 263 191 52 191 52 192 263 192 264 192 52 193 264 193 50 193 50 194 264 194 265 194 50 195 265 195 48 195 48 196 265 196 266 196 48 197 266 197 46 197 46 198 266 198 267 198 46 199 267 199 44 199 44 199 267 199 268 199 44 200 268 200 42 200 42 200 268 200 269 200 42 201 269 201 40 201 40 202 269 202 270 202 40 203 270 203 1 203 1 203 270 203 271 203 1 204 271 204 3 204 3 204 271 204 272 204 3 205 272 205 5 205 5 205 272 205 273 205 5 206 273 206 7 206 7 206 273 206 274 206 7 207 274 207 9 207 9 208 274 208 275 208 9 209 275 209 11 209 11 209 275 209 276 209 11 210 276 210 13 210 13 210 276 210 277 210 13 211 277 211 15 211 15 212 277 212 278 212 15 213 278 213 17 213 17 214 278 214 279 214 17 215 279 215 19 215 19 216 279 216 280 216 19 217 280 217 21 217 21 218 280 218 281 218 21 219 281 219 23 219 23 220 281 220 282 220 23 221 282 221 25 221 25 222 282 222 283 222 25 223 283 223 27 223 27 224 283 224 284 224 27 225 284 225 29 225 29 226 284 226 285 226 29 227 285 227 31 227 31 228 285 228 286 228 31 229 286 229 33 229 33 230 286 230 287 230 33 231 287 231 35 231 35 231 287 231 288 231 35 232 288 232 37 232 37 232 288 232 289 232 37 233 289 233 39 233 39 233 289 233 290 233 39 234 290 234 38 234 38 234 290 234 291 234 38 235 291 235 36 235 36 235 291 235 292 235 36 236 292 236 34 236 34 236 292 236 293 236 34 237 293 237 32 237 32 238 293 238 294 238 32 239 294 239 30 239 30 239 294 239 295 239 30 240 295 240 28 240 28 241 295 241 296 241 28 242 296 242 26 242 26 242 296 242 297 242 26 243 297 243 24 243 24 244 297 244 298 244 24 245 298 245 22 245 22 246 298 246 299 246 22 247 299 247 20 247 20 248 299 248 300 248 20 249 300 249 18 249 18 250 300 250 301 250 18 251 301 251 16 251 16 252 301 252 302 252 16 253 302 253 14 253 14 254 302 254 303 254 14 255 303 255 12 255 12 256 303 256 304 256 12 257 304 257 10 257 10 257 304 257 305 257 10 258 305 258 8 258 8 259 305 259 306 259 8 260 306 260 6 260 6 261 306 261 307 261 6 262 307 262 4 262 4 263 307 263 234 263 308 264 309 264 310 264 310 265 309 265 311 265 310 266 311 266 312 266 312 267 311 267 313 267 312 268 313 268 314 268 314 268 313 268 315 268 314 269 315 269 316 269 316 270 315 270 317 270 316 271 317 271 318 271 318 271 317 271 319 271 318 272 319 272 320 272 320 273 319 273 321 273 320 274 321 274 322 274 322 275 321 275 323 275 322 276 323 276 324 276 324 277 323 277 325 277 324 278 325 278 326 278 326 279 325 279 327 279 326 280 327 280 328 280 328 281 327 281 329 281 328 282 329 282 330 282 330 283 329 283 331 283 330 284 331 284 332 284 332 285 331 285 333 285 332 286 333 286 334 286 334 286 333 286 335 286 334 287 335 287 336 287 336 288 335 288 337 288 336 289 337 289 338 289 338 290 337 290 339 290 338 291 339 291 340 291 340 292 339 292 341 292 340 293 341 293 342 293 342 294 341 294 343 294 342 295 343 295 344 295 344 296 343 296 345 296 344 297 345 297 346 297 346 297 345 297 347 297 346 298 347 298 348 298 348 299 347 299 349 299 348 300 349 300 350 300 350 301 349 301 351 301 350 302 351 302 352 302 352 303 351 303 353 303 352 304 353 304 354 304 354 305 353 305 355 305 354 306 355 306 356 306 356 306 355 306 357 306 356 307 357 307 358 307 358 308 357 308 359 308 358 309 359 309 360 309 360 310 359 310 361 310 360 311 361 311 362 311 362 312 361 312 363 312 362 313 363 313 364 313 364 314 363 314 365 314 364 315 365 315 366 315 366 316 365 316 367 316 366 317 367 317 368 317 368 317 367 317 369 317 368 318 369 318 370 318 370 319 369 319 371 319 370 320 371 320 372 320 372 321 371 321 373 321 372 322 373 322 374 322 374 323 373 323 375 323 374 324 375 324 376 324 376 325 375 325 377 325 376 326 377 326 378 326 378 327 377 327 379 327 378 328 379 328 380 328 380 329 379 329 381 329 380 330 381 330 382 330 382 331 381 331 383 331 382 332 383 332 384 332 384 332 383 332 385 332 384 333 385 333 386 333 386 334 385 334 387 334 386 335 387 335 308 335 308 335 387 335 309 335 388 336 389 337 390 338 390 339 389 339 391 339 390 340 391 340 392 340 392 341 391 342 393 343 392 344 393 344 394 344 394 345 393 346 395 347 394 348 395 348 396 348 396 348 395 348 397 348 396 349 397 349 398 349 398 350 397 350 399 350 398 351 399 352 400 353 400 354 399 354 401 354 400 355 401 355 402 355 402 355 401 355 403 355 402 356 403 356 404 356 404 357 403 357 405 357 404 358 405 358 406 358 406 358 405 358 407 358 406 359 407 359 408 359 408 359 407 359 409 359 408 360 409 360 410 360 410 361 409 361 411 361 410 362 411 362 412 362 412 363 411 363 413 363 412 364 413 364 414 364 414 364 413 364 415 364 414 365 415 365 416 365 416 365 415 365 417 365 416 366 417 366 418 366 418 366 417 366 419 366 418 367 419 367 420 367 420 367 419 367 421 367 420 368 421 368 422 368 422 368 421 368 423 368 422 369 423 369 424 369 424 369 423 369 425 369 424 370 425 370 426 370 426 371 425 371 427 371 426 372 427 372 428 372 428 372 427 372 429 372 428 373 429 373 430 373 430 373 429 373 431 373 430 374 431 374 432 374 432 374 431 374 433 374 432 375 433 375 434 375 434 375 433 375 435 375 434 376 435 376 436 376 436 377 435 377 437 377 436 378 437 378 438 378 438 378 437 378 439 378 438 379 439 379 440 379 440 379 439 379 441 379 440 380 441 380 442 380 442 380 441 380 443 380 442 381 443 381 444 381 444 381 443 381 445 381 444 382 445 382 446 382 446 382 445 382 447 382 446 383 447 383 448 383 448 383 447 383 449 383 448 384 449 384 450 384 450 385 449 385 451 385 450 386 451 386 452 386 452 387 451 387 453 387 452 388 453 388 454 388 454 388 453 388 455 388 454 389 455 389 456 389 456 389 455 389 457 389 456 390 457 390 458 390 458 391 457 391 459 391 458 392 459 392 460 392 460 392 459 392 461 392 460 393 461 393 462 393 462 394 461 395 463 396 462 397 463 397 464 397 464 398 463 398 465 398 464 399 465 399 466 399 466 399 465 399 467 399 466 400 467 400 388 400 388 400 467 400 389 400 388 0 390 0 468 0 468 401 390 401 392 401 468 402 392 402 394 402 394 403 396 403 468 403 468 404 396 404 398 404 468 405 398 405 400 405 400 406 402 406 468 406 468 0 402 0 404 0 468 0 404 0 406 0 406 0 408 0 468 0 468 0 408 0 410 0 468 0 410 0 412 0 414 0 326 0 412 0 412 0 326 0 328 0 412 0 328 0 468 0 468 0 328 0 469 0 469 0 328 0 330 0 469 0 330 0 332 0 326 0 414 0 324 0 324 0 414 0 416 0 324 0 416 0 322 0 322 0 416 0 418 0 322 0 418 0 320 0 320 0 418 0 420 0 320 0 420 0 318 0 318 0 420 0 422 0 318 0 422 0 316 0 316 0 422 0 424 0 316 0 424 0 290 0 290 0 424 0 291 0 291 407 424 407 292 407 292 408 424 408 426 408 292 409 426 409 293 409 293 410 426 410 428 410 293 0 428 0 294 0 294 411 428 411 430 411 294 412 430 412 295 412 295 413 430 413 432 413 295 0 432 0 296 0 296 414 432 414 434 414 296 0 434 0 297 0 297 415 434 415 436 415 297 0 436 0 298 0 298 416 436 416 438 416 298 0 438 0 299 0 299 417 438 417 440 417 299 0 440 0 300 0 300 418 440 418 442 418 300 0 442 0 301 0 301 419 442 419 444 419 301 0 444 0 302 0 302 420 444 420 446 420 302 0 446 0 303 0 303 421 446 421 448 421 303 0 448 0 304 0 304 422 448 422 450 422 304 0 450 0 305 0 305 423 450 423 452 423 305 0 452 0 306 0 306 0 452 0 307 0 307 424 452 424 454 424 307 0 454 0 234 0 234 425 454 425 456 425 234 0 456 0 235 0 235 0 456 0 170 0 235 426 170 426 236 426 236 427 170 427 172 427 236 0 172 0 237 0 237 428 172 428 174 428 237 0 174 0 238 0 238 0 174 0 239 0 239 429 174 429 176 429 239 0 176 0 240 0 240 430 176 430 178 430 240 431 178 431 241 431 241 432 178 432 180 432 241 0 180 0 242 0 242 433 180 433 182 433 242 0 182 0 243 0 243 434 182 434 184 434 243 0 184 0 244 0 244 435 184 435 186 435 244 436 186 436 245 436 245 437 186 437 188 437 245 438 188 438 246 438 246 439 188 439 190 439 246 440 190 440 247 440 247 0 190 0 192 0 247 441 192 441 248 441 248 442 192 442 194 442 248 0 194 0 249 0 249 443 194 443 196 443 249 0 196 0 250 0 250 444 196 444 198 444 250 0 198 0 251 0 251 445 198 445 200 445 251 0 200 0 252 0 252 0 200 0 202 0 252 0 202 0 253 0 253 0 202 0 150 0 253 0 150 0 254 0 254 0 150 0 255 0 255 0 150 0 152 0 255 0 152 0 256 0 256 446 152 446 74 446 256 0 74 0 257 0 257 447 74 447 76 447 257 0 76 0 258 0 258 448 76 448 78 448 258 0 78 0 259 0 259 449 78 449 80 449 259 450 80 450 260 450 260 0 80 0 82 0 260 451 82 451 261 451 261 452 82 452 84 452 261 0 84 0 262 0 262 453 84 453 86 453 262 454 86 454 263 454 263 455 86 455 88 455 263 0 88 0 264 0 264 456 88 456 90 456 264 0 90 0 265 0 265 457 90 457 92 457 265 458 92 458 266 458 266 459 92 459 94 459 266 0 94 0 267 0 267 460 94 460 96 460 267 0 96 0 268 0 268 461 96 461 98 461 268 0 98 0 269 0 269 0 98 0 270 0 270 462 98 462 100 462 270 0 100 0 271 0 271 463 100 463 102 463 271 0 102 0 272 0 272 0 102 0 364 0 272 464 364 464 273 464 273 465 364 465 366 465 273 0 366 0 274 0 274 466 366 466 368 466 274 0 368 0 275 0 275 0 368 0 276 0 276 467 368 467 370 467 276 0 370 0 277 0 277 468 370 468 372 468 277 0 372 0 278 0 278 469 372 469 374 469 278 0 374 0 279 0 279 470 374 470 376 470 279 0 376 0 280 0 280 471 376 471 378 471 280 0 378 0 281 0 281 472 378 472 380 472 281 0 380 0 282 0 282 473 380 473 382 473 282 0 382 0 283 0 283 474 382 474 384 474 283 0 384 0 284 0 284 475 384 475 386 475 284 0 386 0 285 0 285 476 386 476 308 476 285 0 308 0 286 0 286 477 308 477 310 477 286 478 310 478 287 478 287 479 310 479 312 479 287 0 312 0 288 0 288 480 312 480 314 480 288 481 314 481 289 481 289 482 314 482 316 482 289 483 316 483 290 483 170 484 456 484 168 484 168 485 456 485 458 485 168 0 458 0 166 0 166 486 458 486 460 486 166 0 460 0 164 0 164 487 460 487 462 487 164 488 462 488 162 488 162 489 462 489 464 489 162 490 464 490 160 490 160 491 464 491 466 491 160 0 466 0 158 0 158 492 466 492 388 492 158 0 388 0 470 0 470 493 388 493 468 493 332 0 334 0 469 0 469 0 334 0 336 0 469 0 336 0 338 0 338 0 340 0 469 0 469 494 340 494 342 494 469 495 342 495 344 495 344 496 346 496 469 496 469 497 346 497 348 497 469 498 348 498 350 498 350 0 352 0 469 0 469 0 352 0 471 0 471 0 352 0 114 0 471 499 114 499 116 499 352 0 354 0 114 0 114 0 354 0 112 0 112 500 354 500 356 500 112 501 356 501 110 501 110 502 356 502 358 502 110 503 358 503 108 503 108 504 358 504 360 504 108 0 360 0 106 0 106 505 360 505 362 505 106 0 362 0 104 0 104 506 362 506 364 506 104 507 364 507 102 507 154 0 156 0 470 0 470 508 156 508 158 508 150 0 202 0 148 0 148 0 202 0 204 0 148 0 204 0 146 0 146 0 204 0 206 0 146 0 206 0 144 0 144 0 206 0 208 0 144 0 208 0 142 0 142 0 208 0 210 0 142 0 210 0 140 0 140 0 210 0 212 0 140 0 212 0 138 0 138 0 212 0 214 0 138 0 214 0 471 0 471 0 214 0 470 0 470 0 214 0 216 0 470 0 216 0 218 0 218 0 220 0 470 0 470 0 220 0 222 0 470 0 222 0 224 0 224 0 226 0 470 0 470 0 226 0 228 0 470 509 228 509 230 509 230 0 232 0 470 0 470 510 232 510 154 510 116 0 118 0 471 0 471 511 118 511 120 511 471 0 120 0 122 0 122 512 124 512 471 512 471 0 124 0 126 0 471 0 126 0 128 0 128 0 130 0 471 0 471 0 130 0 132 0 471 0 132 0 134 0 134 0 136 0 471 0 471 0 136 0 138 0 389 0 472 0 391 0 391 0 472 0 473 0 391 0 473 0 393 0 393 0 473 0 474 0 393 0 474 0 395 0 395 0 474 0 397 0 397 0 474 0 475 0 397 0 475 0 399 0 399 0 475 0 476 0 399 0 476 0 401 0 401 0 476 0 477 0 401 0 477 0 403 0 403 0 477 0 478 0 403 0 478 0 405 0 405 0 478 0 407 0 407 0 478 0 479 0 407 0 479 0 409 0 409 0 479 0 480 0 409 0 480 0 411 0 411 0 480 0 481 0 411 0 481 0 413 0 413 0 481 0 415 0 415 0 481 0 482 0 415 0 482 0 417 0 417 0 482 0 483 0 417 0 483 0 419 0 419 0 483 0 484 0 419 0 484 0 421 0 421 0 484 0 485 0 421 0 485 0 423 0 423 0 485 0 425 0 425 0 485 0 486 0 425 0 486 0 427 0 427 0 486 0 487 0 427 0 487 0 429 0 429 0 487 0 488 0 429 0 488 0 431 0 431 0 488 0 433 0 433 0 488 0 489 0 433 0 489 0 435 0 435 0 489 0 490 0 435 0 490 0 437 0 437 0 490 0 491 0 437 0 491 0 439 0 439 0 491 0 441 0 441 0 491 0 492 0 441 0 492 0 443 0 443 0 492 0 493 0 443 0 493 0 445 0 445 0 493 0 494 0 445 0 494 0 447 0 447 0 494 0 495 0 447 0 495 0 449 0 449 0 495 0 451 0 451 0 495 0 496 0 451 0 496 0 453 0 453 0 496 0 497 0 453 0 497 0 455 0 455 0 497 0 498 0 455 0 498 0 457 0 457 0 498 0 459 0 459 0 498 0 499 0 459 0 499 0 461 0 461 0 499 0 500 0 461 0 500 0 463 0 463 0 500 0 501 0 463 0 501 0 465 0 465 0 501 0 502 0 465 0 502 0 467 0 467 0 502 0 389 0 389 0 502 0 472 0 503 0 353 0 504 0 504 0 353 0 351 0 504 0 351 0 349 0 353 0 503 0 355 0 355 0 503 0 505 0 355 0 505 0 357 0 357 0 505 0 506 0 357 0 506 0 359 0 359 0 506 0 361 0 361 0 506 0 507 0 361 0 507 0 363 0 363 0 507 0 508 0 363 0 508 0 365 0 365 0 508 0 509 0 365 0 509 0 367 0 367 0 509 0 510 0 367 0 510 0 369 0 369 0 510 0 371 0 371 0 510 0 511 0 371 0 511 0 373 0 373 0 511 0 512 0 373 0 512 0 375 0 375 0 512 0 513 0 375 0 513 0 377 0 377 0 513 0 379 0 379 0 513 0 514 0 379 0 514 0 381 0 381 0 514 0 515 0 381 0 515 0 383 0 383 0 515 0 516 0 383 0 516 0 385 0 385 0 516 0 517 0 385 0 517 0 387 0 387 0 517 0 309 0 309 0 517 0 518 0 309 0 518 0 311 0 311 0 518 0 519 0 311 0 519 0 313 0 313 0 519 0 520 0 313 0 520 0 315 0 315 0 520 0 317 0 317 0 520 0 521 0 317 0 521 0 319 0 319 0 521 0 522 0 319 0 522 0 321 0 321 0 522 0 523 0 321 0 523 0 323 0 323 0 523 0 524 0 323 0 524 0 325 0 325 0 524 0 327 0 327 0 524 0 525 0 327 0 525 0 329 0 329 0 525 0 526 0 329 0 526 0 331 0 331 0 526 0 527 0 331 0 527 0 333 0 333 0 527 0 335 0 335 0 527 0 528 0 335 0 528 0 337 0 337 0 528 0 529 0 337 0 529 0 339 0 339 0 529 0 530 0 339 0 530 0 341 0 341 0 530 0 531 0 341 0 531 0 343 0 343 0 531 0 345 0 345 0 531 0 532 0 345 0 532 0 347 0 347 0 532 0 533 0 347 0 533 0 349 0 349 0 533 0 504 0 534 0 199 0 535 0 535 0 199 0 197 0 535 0 197 0 195 0 199 0 534 0 201 0 201 0 534 0 536 0 201 0 536 0 203 0 203 0 536 0 537 0 203 0 537 0 205 0 205 0 537 0 207 0 207 0 537 0 538 0 207 0 538 0 209 0 209 0 538 0 539 0 209 0 539 0 211 0 211 0 539 0 540 0 211 0 540 0 213 0 213 0 540 0 541 0 213 0 541 0 215 0 215 0 541 0 217 0 217 0 541 0 542 0 217 0 542 0 219 0 219 0 542 0 543 0 219 0 543 0 221 0 221 0 543 0 544 0 221 0 544 0 223 0 223 0 544 0 225 0 225 0 544 0 545 0 225 0 545 0 227 0 227 0 545 0 546 0 227 0 546 0 229 0 229 0 546 0 547 0 229 0 547 0 231 0 231 0 547 0 548 0 231 0 548 0 233 0 233 0 548 0 155 0 155 0 548 0 549 0 155 0 549 0 157 0 157 0 549 0 550 0 157 0 550 0 159 0 159 0 550 0 551 0 159 0 551 0 161 0 161 0 551 0 163 0 163 0 551 0 552 0 163 0 552 0 165 0 165 0 552 0 553 0 165 0 553 0 167 0 167 0 553 0 554 0 167 0 554 0 169 0 169 0 554 0 555 0 169 0 555 0 171 0 171 0 555 0 173 0 173 0 555 0 556 0 173 0 556 0 175 0 175 0 556 0 557 0 175 0 557 0 177 0 177 0 557 0 558 0 177 0 558 0 179 0 179 0 558 0 181 0 181 0 558 0 559 0 181 0 559 0 183 0 183 0 559 0 560 0 183 0 560 0 185 0 185 0 560 0 561 0 185 0 561 0 187 0 187 0 561 0 562 0 187 0 562 0 189 0 189 0 562 0 191 0 191 0 562 0 563 0 191 0 563 0 193 0 193 0 563 0 564 0 193 0 564 0 195 0 195 0 564 0 535 0 565 513 566 513 567 513 567 513 566 513 568 513 567 514 568 514 569 514 569 514 568 514 570 514 569 515 570 515 571 515 571 515 570 515 572 515 571 516 572 516 573 516 573 517 572 517 574 517 573 518 574 519 575 520 575 521 574 522 576 523 575 524 576 524 577 524 577 525 576 525 578 525 577 526 578 527 579 528 579 529 578 530 580 531 579 532 580 533 581 534 581 535 580 536 582 537 581 538 582 539 583 540 583 541 582 542 584 543 583 544 584 545 585 546 585 547 584 547 586 547 585 548 586 548 587 548 587 549 586 550 588 550 587 551 588 551 589 551 589 552 588 552 590 552 589 553 590 553 591 553 591 554 590 554 592 554 591 555 592 555 593 555 593 555 592 555 594 555 593 556 594 557 595 558 595 559 594 559 596 559 595 560 596 560 597 560 597 561 596 561 598 561 597 562 598 562 599 562 599 562 598 562 600 562 599 563 600 563 601 563 601 564 600 564 602 564 601 565 602 565 603 565 603 565 602 565 604 565 603 566 604 566 605 566 605 566 604 566 606 566 605 567 606 567 607 567 607 568 606 568 608 568 607 569 608 569 609 569 609 570 608 570 610 570 609 571 610 571 611 571 611 572 610 572 612 572 611 573 612 573 613 573 613 574 612 574 614 574 613 575 614 575 615 575 615 575 614 575 616 575 615 576 616 576 617 576 617 576 616 576 618 576 617 577 618 577 619 577 619 578 618 578 620 578 619 579 620 579 621 579 621 580 620 580 622 580 621 581 622 581 623 581 623 582 622 582 624 582 623 583 624 583 625 583 625 584 624 584 626 584 625 585 626 585 565 585 565 585 626 585 566 585 487 586 627 586 488 586 488 586 627 586 628 586 488 587 628 587 489 587 489 587 628 587 629 587 489 588 629 588 490 588 490 589 629 589 630 589 490 590 630 590 491 590 491 590 630 590 631 590 491 591 631 591 492 591 492 592 631 592 632 592 492 593 632 593 493 593 493 593 632 593 633 593 493 594 633 594 494 594 494 595 633 595 634 595 494 596 634 596 495 596 495 597 634 597 635 597 495 598 635 598 496 598 496 599 635 599 636 599 496 600 636 600 497 600 497 600 636 600 637 600 497 601 637 601 498 601 498 602 637 602 638 602 498 603 638 603 499 603 499 603 638 603 639 603 499 604 639 605 500 606 500 607 639 608 640 609 500 610 640 610 501 610 501 610 640 610 641 610 501 611 641 611 502 611 502 612 641 612 642 612 502 613 642 614 472 615 472 616 642 617 643 618 472 562 643 562 473 562 473 562 643 562 644 562 473 619 644 620 474 621 474 622 644 623 645 624 474 625 645 625 475 625 475 626 645 626 646 626 475 627 646 627 476 627 476 627 646 627 647 627 476 628 647 629 477 630 477 631 647 632 648 633 477 634 648 634 478 634 478 634 648 634 649 634 478 635 649 635 479 635 479 636 649 636 650 636 479 637 650 637 480 637 480 637 650 637 651 637 480 638 651 638 481 638 481 639 651 639 652 639 481 640 652 640 482 640 482 641 652 641 653 641 482 642 653 642 483 642 483 643 653 643 654 643 483 644 654 644 484 644 484 644 654 644 655 644 484 645 655 645 485 645 485 646 655 646 656 646 485 647 656 647 486 647 486 647 656 647 657 647 486 648 657 648 487 648 487 649 657 649 627 649 533 650 658 650 504 650 504 650 658 650 659 650 504 651 659 651 503 651 503 651 659 651 660 651 503 652 660 652 505 652 505 652 660 652 661 652 505 653 661 653 506 653 506 654 661 654 662 654 506 655 662 655 507 655 507 591 662 591 663 591 507 656 663 656 508 656 508 657 663 657 664 657 508 658 664 658 509 658 509 659 664 659 665 659 509 597 665 597 510 597 510 597 665 597 666 597 510 660 666 660 511 660 511 660 666 660 667 660 511 661 667 661 512 661 512 662 667 662 668 662 512 663 668 663 513 663 513 664 668 664 669 664 513 665 669 665 514 665 514 666 669 666 670 666 514 667 670 667 515 667 515 668 670 668 671 668 515 669 671 669 516 669 516 669 671 669 672 669 516 670 672 670 517 670 517 670 672 670 673 670 517 671 673 671 518 671 518 672 673 672 674 672 518 562 674 562 519 562 519 562 674 562 675 562 519 673 675 673 520 673 520 674 675 674 676 674 520 675 676 675 521 675 521 675 676 675 677 675 521 676 677 676 522 676 522 676 677 676 678 676 522 677 678 677 523 677 523 678 678 678 679 678 523 679 679 679 524 679 524 680 679 680 680 680 524 681 680 681 525 681 525 682 680 682 681 682 525 683 681 683 526 683 526 684 681 684 682 684 526 685 682 685 527 685 527 685 682 685 683 685 527 640 683 640 528 640 528 640 683 640 684 640 528 686 684 686 529 686 529 687 684 687 685 687 529 688 685 688 530 688 530 689 685 689 686 689 530 646 686 646 531 646 531 690 686 690 687 690 531 691 687 691 532 691 532 692 687 692 688 692 532 693 688 693 533 693 533 693 688 693 658 693 564 694 689 694 535 694 535 694 689 694 690 694 535 695 690 695 534 695 534 695 690 695 691 695 534 696 691 696 536 696 536 697 691 697 692 697 536 698 692 699 537 700 537 701 692 702 693 703 537 704 693 704 538 704 538 705 693 705 694 705 538 706 694 706 539 706 539 707 694 708 695 709 539 710 695 710 540 710 540 711 695 711 696 711 540 712 696 713 541 714 541 715 696 715 697 715 541 716 697 717 542 718 542 719 697 720 698 721 542 722 698 723 543 724 543 725 698 726 699 727 543 728 699 729 544 730 544 731 699 731 700 731 544 732 700 732 545 732 545 732 700 732 701 732 545 733 701 733 546 733 546 734 701 734 702 734 546 735 702 735 547 735 547 735 702 735 703 735 547 736 703 736 548 736 548 737 703 737 704 737 548 738 704 739 549 740 549 741 704 742 705 743 549 562 705 562 550 562 550 562 705 562 706 562 550 744 706 745 551 746 551 747 706 748 707 749 551 750 707 750 552 750 552 751 707 751 708 751 552 752 708 752 553 752 553 752 708 752 709 752 553 753 709 753 554 753 554 754 709 754 710 754 554 755 710 755 555 755 555 755 710 755 711 755 555 756 711 756 556 756 556 757 711 757 712 757 556 758 712 758 557 758 557 758 712 758 713 758 557 759 713 759 558 759 558 760 713 760 714 760 558 576 714 576 559 576 559 761 714 761 715 761 559 762 715 762 560 762 560 763 715 763 716 763 560 764 716 764 561 764 561 764 716 764 717 764 561 765 717 765 562 765 562 581 717 581 718 581 562 766 718 766 563 766 563 766 718 766 719 766 563 767 719 767 564 767 564 768 719 768 689 768 720 562 721 562 471 562 471 562 721 562 469 562 722 234 720 234 470 234 470 234 720 234 471 234 723 769 722 769 468 769 468 769 722 769 470 769 721 177 723 177 469 177 469 177 723 177 468 177 75 0 597 0 77 0 77 0 597 0 599 0 77 0 599 0 79 0 79 0 599 0 601 0 79 0 601 0 81 0 81 0 601 0 83 0 83 0 601 0 603 0 83 0 603 0 85 0 85 0 603 0 605 0 85 0 605 0 87 0 87 0 605 0 607 0 87 0 607 0 89 0 89 0 607 0 609 0 89 0 609 0 91 0 91 0 609 0 93 0 93 0 609 0 611 0 93 0 611 0 95 0 95 0 611 0 613 0 95 0 613 0 97 0 97 0 613 0 615 0 97 0 615 0 99 0 99 0 615 0 101 0 101 0 615 0 617 0 101 0 617 0 103 0 103 0 617 0 619 0 103 0 619 0 105 0 105 0 619 0 621 0 105 0 621 0 107 0 107 0 621 0 623 0 107 0 623 0 109 0 109 0 623 0 111 0 111 0 623 0 625 0 111 0 625 0 113 0 113 0 625 0 565 0 113 0 565 0 115 0 115 0 565 0 567 0 115 0 567 0 117 0 117 0 567 0 119 0 119 0 567 0 569 0 119 0 569 0 121 0 121 0 569 0 571 0 121 0 571 0 123 0 123 0 571 0 573 0 123 0 573 0 125 0 125 0 573 0 127 0 127 0 573 0 575 0 127 0 575 0 129 0 129 0 575 0 577 0 129 0 577 0 131 0 131 0 577 0 579 0 131 0 579 0 133 0 133 0 579 0 581 0 133 0 581 0 135 0 135 0 581 0 137 0 137 0 581 0 583 0 137 0 583 0 139 0 139 0 583 0 585 0 139 0 585 0 141 0 141 0 585 0 587 0 141 0 587 0 143 0 143 0 587 0 145 0 145 0 587 0 589 0 145 0 589 0 147 0 147 0 589 0 591 0 147 0 591 0 149 0 149 0 591 0 593 0 149 0 593 0 151 0 151 0 593 0 595 0 151 0 595 0 153 0 153 0 595 0 75 0 75 0 595 0 597 0 689 770 600 770 690 770 690 770 600 770 598 770 690 770 598 770 691 770 691 770 598 770 596 770 691 770 596 770 692 770 692 770 596 770 594 770 692 770 594 770 693 770 693 770 594 770 592 770 693 770 592 770 694 770 694 770 592 770 590 770 694 770 590 770 695 770 695 770 590 770 588 770 695 770 588 770 696 770 696 770 588 770 720 770 696 770 720 770 722 770 600 770 689 770 602 770 602 770 689 770 719 770 602 770 719 770 604 770 604 770 719 770 718 770 604 770 718 770 606 770 606 770 718 770 717 770 606 770 717 770 671 770 671 770 717 770 632 770 671 770 632 770 631 770 717 770 716 770 632 770 632 770 716 770 633 770 633 770 716 770 715 770 633 770 715 770 634 770 634 770 715 770 714 770 634 770 714 770 635 770 635 770 714 770 713 770 635 770 713 770 636 770 636 770 713 770 637 770 637 770 713 770 712 770 637 770 712 770 638 770 638 770 712 770 711 770 638 770 711 770 639 770 639 770 711 770 710 770 639 770 710 770 640 770 640 770 710 770 709 770 640 770 709 770 641 770 641 770 709 770 708 770 641 770 708 770 707 770 706 770 722 770 707 770 707 770 722 770 723 770 707 770 723 770 642 770 642 770 723 770 643 770 643 770 723 770 644 770 644 770 723 770 645 770 645 770 723 770 646 770 646 770 723 770 647 770 647 770 723 770 648 770 648 770 723 770 649 770 649 770 723 770 650 770 650 770 723 770 651 770 651 770 723 770 652 770 652 770 723 770 653 770 653 770 723 770 721 770 653 770 721 770 680 770 680 770 721 770 681 770 681 770 721 770 682 770 682 770 721 770 683 770 683 770 721 770 684 770 684 770 721 770 685 770 685 770 721 770 686 770 686 770 721 770 687 770 687 770 721 770 688 770 688 770 721 770 658 770 658 770 721 770 659 770 659 770 721 770 660 770 660 770 721 770 661 770 661 770 721 770 626 770 661 770 626 770 624 770 706 770 705 770 722 770 722 770 705 770 704 770 722 770 704 770 703 770 703 770 702 770 722 770 722 770 702 770 701 770 722 770 701 770 700 770 700 770 699 770 722 770 722 770 699 770 698 770 722 770 698 770 697 770 697 770 696 770 722 770 653 770 680 770 654 770 654 770 680 770 679 770 654 770 679 770 655 770 655 770 679 770 678 770 655 770 678 770 656 770 656 770 678 770 677 770 656 770 677 770 657 770 657 770 677 770 676 770 657 770 676 770 627 770 627 770 676 770 675 770 627 770 675 770 628 770 628 770 675 770 674 770 628 770 674 770 629 770 629 770 674 770 673 770 629 770 673 770 630 770 630 770 673 770 672 770 630 770 672 770 631 770 631 770 672 770 671 770 606 770 671 770 608 770 608 770 671 770 670 770 608 770 670 770 610 770 610 770 670 770 669 770 610 770 669 770 612 770 612 770 669 770 668 770 612 770 668 770 614 770 614 770 668 770 667 770 614 770 667 770 666 770 614 770 666 770 616 770 616 770 666 770 665 770 616 770 665 770 618 770 618 770 665 770 664 770 618 770 664 770 620 770 620 770 664 770 663 770 620 770 663 770 622 770 622 770 663 770 662 770 622 770 662 770 624 770 624 770 662 770 661 770 642 770 641 770 707 770 570 770 568 770 720 770 720 770 568 770 566 770 720 770 566 770 626 770 588 770 586 770 720 770 720 770 586 770 584 770 720 770 584 770 582 770 582 770 580 770 720 770 720 770 580 770 578 770 720 770 578 770 576 770 576 770 574 770 720 770 720 770 574 770 572 770 720 770 572 770 570 770 721 770 720 770 626 770</p>
        </triangles>
      </mesh>
    </geometry>
  </library_geometries>
  <library_visual_scenes>
    <visual_scene id="Scene" name="Scene">
      <node id="node" name="node" type="NODE">
        <matrix sid="transform">0.001 0 0 -3.72529e-9 0 0.001 0 -3.72529e-9 0 0 0.001 0 0 0 0 1</matrix>
        <instance_geometry url="#shape0-mesh" name="node">
          <bind_material>
            <technique_common>
              <instance_material symbol="BLACK-material" target="#BLACK-material"/>
            </technique_common>
          </bind_material>
        </instance_geometry>
      </node>
    </visual_scene>
  </library_visual_scenes>
  <scene>
    <instance_visual_scene url="#Scene"/>
  </scene>
</COLLADA>