<?xml version="1.0" encoding="utf-8"?>
<COLLADA xmlns="http://www.collada.org/2005/11/COLLADASchema" version="1.4.1" xmlns:xsi="http://www.w3.org/2001/XMLSchema-instance">
  <asset>
    <contributor>
      <author>Blender User</author>
      <authoring_tool>Blender 4.3.2 commit date:2024-12-16, commit time:21:10, hash:32f5fdce0a0a</authoring_tool>
    </contributor>
    <created>2025-01-28T15:47:16</created>
    <modified>2025-01-28T15:47:16</modified>
    <unit name="meter" meter="1"/>
    <up_axis>Z_UP</up_axis>
  </asset>
  <library_effects>
    <effect id="BATTERY-effect">
      <profile_COMMON>
        <technique sid="common">
          <lambert>
            <emission>
              <color sid="emission">0 0 0 1</color>
            </emission>
            <diffuse>
              <color sid="diffuse">0.02433822 0.03515613 0.800149 1</color>
            </diffuse>
            <reflectivity>
              <float sid="specular">0.5</float>
            </reflectivity>
            <index_of_refraction>
              <float sid="ior">1.5</float>
            </index_of_refraction>
          </lambert>
        </technique>
      </profile_COMMON>
    </effect>
  </library_effects>
  <library_images/>
  <library_materials>
    <material id="BATTERY-material" name="BATTERY">
      <instance_effect url="#BATTERY-effect"/>
    </material>
  </library_materials>
  <library_geometries>
    <geometry id="shape0_001-mesh" name="shape0.001">
      <mesh>
        <source id="shape0_001-mesh-positions">
          <float_array id="shape0_001-mesh-positions-array" count="630">-10.65 3.8147e-6 10.40664 -10.65 3.8147e-6 -59.99336 -10.28711 -2.756416 -59.99336 -10.28711 -2.756416 10.40664 -9.223173 -5.324995 -59.99336 -9.223173 -5.324995 10.40664 -7.530692 -7.530686 -59.99336 -7.530692 -7.530686 10.40664 -5.325001 -9.223166 -59.99336 -5.325001 -9.223166 10.40664 -2.756422 -10.28711 -59.99336 -2.756422 -10.28711 10.40664 -1.90735e-6 -10.65 -59.99336 -1.90735e-6 -10.65 10.40664 2.756398 -10.28711 -59.99336 2.756398 -10.28711 10.40664 5.324999 -9.223166 -59.99336 5.324999 -9.223166 10.40664 7.530699 -7.530686 -59.99336 7.530699 -7.530686 10.40664 9.223198 -5.324995 -59.99336 9.223198 -5.324995 10.40664 10.2871 -2.756416 -59.99336 10.2871 -2.756416 10.40664 10.65 3.8147e-6 -59.99336 10.65 3.8147e-6 10.40664 -8.150002 3.8147e-6 9.40664 -8.150002 3.8147e-6 10.40664 -7.819872 -2.296116 9.40664 -7.819872 -2.296116 10.40664 -6.856222 -4.406216 9.40664 -6.856222 -4.406216 10.40664 -5.337121 -6.159356 9.40664 -5.337121 -6.159356 10.40664 -3.385632 -7.413496 9.40664 -3.385632 -7.413496 10.40664 -1.159872 -8.067036 9.40664 -1.159872 -8.067036 10.40664 1.159898 -8.067036 9.40664 1.159898 -8.067036 10.40664 3.385598 -7.413496 9.40664 3.385598 -7.413496 10.40664 5.337098 -6.159356 9.40664 5.337098 -6.159356 10.40664 6.856197 -4.406216 9.40664 6.856197 -4.406216 10.40664 7.819899 -2.296116 9.40664 7.819899 -2.296116 10.40664 8.15 3.8147e-6 9.40664 8.15 3.8147e-6 10.40664 3.999998 3.8147e-6 9.65664 3.999998 3.8147e-6 10.40664 3.837999 -1.126926 9.65664 3.695498 -1.530726 10.40664 3.695498 -1.530726 9.65664 1.530698 -3.695516 9.65664 1.661698 -3.638526 9.65664 1.530698 -3.695516 10.40664 2.619398 -3.022995 9.65664 2.828398 -2.828426 10.40664 2.828398 -2.828426 9.65664 3.364999 -2.162556 9.65664 0.5692978 -3.959286 9.65664 -1.90735e-6 -3.999996 10.40664 -1.90735e-6 -3.999996 9.65664 -2.828432 -2.828426 9.65664 -2.619442 -3.022995 9.65664 -2.828432 -2.828426 10.40664 -1.661662 -3.638526 9.65664 -1.530732 -3.695516 10.40664 -1.530732 -3.695516 9.65664 -0.5693016 -3.959286 9.65664 -3.365012 -2.162556 9.65664 -3.695522 -1.530726 10.40664 -3.695522 -1.530726 9.65664 -3.837972 -1.126926 9.65664 -4.000002 3.8147e-6 10.40664 -4.000002 3.8147e-6 9.65664 3.870098 -1.136366 9.53164 4.033498 3.8147e-6 9.53164 3.393198 -2.180666 9.53164 2.641398 -3.048306 9.53164 1.675598 -3.668995 9.53164 0.5739994 -3.992436 9.53164 -0.5740013 -3.992436 9.53164 -1.675571 -3.668995 9.53164 -2.641381 -3.048306 9.53164 -3.393192 -2.180666 9.53164 -4.033492 3.8147e-6 9.53164 -3.870111 -1.136366 9.53164 -4.125001 3.8147e-6 9.440133 -3.957911 -1.162146 9.440133 -3.470172 -2.230136 9.440133 -2.701302 -3.117466 9.440133 -1.713592 -3.752226 9.440133 -0.5870009 -4.083006 9.440133 0.5869989 -4.083006 9.440133 1.713598 -3.752226 9.440133 2.701298 -3.117466 9.440133 3.470198 -2.230136 9.440133 3.957898 -1.162146 9.440133 4.124999 3.8147e-6 9.440133 -4.250001 3.8147e-6 9.40664 -4.077852 -1.197356 9.40664 -3.575332 -2.297716 9.40664 -2.783162 -3.211936 9.40664 -1.765511 -3.865936 9.40664 -0.6048021 -4.206736 9.40664 0.6047983 -4.206736 9.40664 1.765498 -3.865936 9.40664 2.783198 -3.211936 9.40664 3.575298 -2.297716 9.40664 4.077798 -1.197356 9.40664 4.249999 3.8147e-6 9.40664 -3.870111 1.136404 9.53164 -3.837972 1.126904 9.65664 -3.695522 1.530704 9.65664 -3.393192 2.180704 9.53164 -3.365012 2.162604 9.65664 -2.641381 3.048304 9.53164 -2.828432 2.828403 9.65664 -2.619442 3.023005 9.65664 -1.675571 3.669004 9.53164 -1.661662 3.638504 9.65664 -1.530732 3.695504 9.65664 -0.5740013 3.992404 9.53164 -0.5693016 3.959304 9.65664 -1.90735e-6 4.000004 9.65664 0.5739994 3.992404 9.53164 0.5692978 3.959304 9.65664 1.675598 3.669004 9.53164 1.530698 3.695504 9.65664 1.661698 3.638504 9.65664 2.641398 3.048304 9.53164 2.619398 3.023005 9.65664 2.828398 2.828403 9.65664 3.393198 2.180704 9.53164 3.837999 1.126904 9.65664 3.870098 1.136404 9.53164 3.695498 1.530704 9.65664 3.364999 2.162604 9.65664 3.957898 1.162104 9.440133 3.470198 2.230103 9.440133 2.701298 3.117504 9.440133 1.713598 3.752204 9.440133 0.5869989 4.083005 9.440133 -0.5870009 4.083005 9.440133 -1.713592 3.752204 9.440133 -2.701302 3.117504 9.440133 -3.470172 2.230103 9.440133 -3.957911 1.162104 9.440133 4.077798 1.197404 9.40664 3.575298 2.297704 9.40664 2.783198 3.211904 9.40664 1.765498 3.865904 9.40664 0.6047983 4.206704 9.40664 -0.6048021 4.206704 9.40664 -1.765511 3.865904 9.40664 -2.783162 3.211904 9.40664 -3.575332 2.297704 9.40664 -4.077852 1.197404 9.40664 -3.695522 1.530704 10.40664 -1.530732 3.695504 10.40664 -2.828432 2.828403 10.40664 -1.90735e-6 4.000004 10.40664 2.828398 2.828403 10.40664 1.530698 3.695504 10.40664 3.695498 1.530704 10.40664 7.819899 2.296103 9.40664 7.819899 2.296103 10.40664 6.856197 4.406204 9.40664 6.856197 4.406204 10.40664 5.337098 6.159403 9.40664 5.337098 6.159403 10.40664 3.385598 7.413504 9.40664 3.385598 7.413504 10.40664 1.159898 8.067007 9.40664 1.159898 8.067007 10.40664 -1.159872 8.067007 9.40664 -1.159872 8.067007 10.40664 -3.385632 7.413504 9.40664 -3.385632 7.413504 10.40664 -5.337121 6.159403 9.40664 -5.337121 6.159403 10.40664 -6.856222 4.406204 9.40664 -6.856222 4.406204 10.40664 -7.819872 2.296103 9.40664 -7.819872 2.296103 10.40664 10.2871 2.756404 -59.99336 10.2871 2.756404 10.40664 9.223198 5.325005 -59.99336 9.223198 5.325005 10.40664 7.530699 7.530704 -59.99336 7.530699 7.530704 10.40664 5.324999 9.223204 -59.99336 5.324999 9.223204 10.40664 2.756398 10.2871 -59.99336 2.756398 10.2871 10.40664 -1.90735e-6 10.65001 -59.99336 -1.90735e-6 10.65001 10.40664 -2.756422 10.2871 -59.99336 -2.756422 10.2871 10.40664 -5.325001 9.223204 -59.99336 -5.325001 9.223204 10.40664 -7.530692 7.530704 -59.99336 -7.530692 7.530704 10.40664 -9.223173 5.325005 -59.99336 -9.223173 5.325005 10.40664 -10.28711 2.756404 -59.99336 -10.28711 2.756404 10.40664</float_array>
          <technique_common>
            <accessor source="#shape0_001-mesh-positions-array" count="210" stride="3">
              <param name="X" type="float"/>
              <param name="Y" type="float"/>
              <param name="Z" type="float"/>
            </accessor>
          </technique_common>
        </source>
        <source id="shape0_001-mesh-normals">
          <float_array id="shape0_001-mesh-normals-array" count="1047">-0.9914448 -0.1305265 0 -0.9914449 -0.1305258 0 -0.9238799 -0.3826829 0 -0.9238801 -0.3826823 0 -0.7933543 -0.6087602 0 -0.7933546 -0.6087598 0 -0.6087598 -0.7933546 0 -0.6087599 -0.7933545 0 -0.3826846 -0.9238791 0 -0.3826845 -0.9238791 0 -0.1305264 -0.9914449 0 -0.1305264 -0.9914449 0 0.1305273 -0.9914447 0 0.1305273 -0.9914447 0 0.3826817 -0.9238802 0 0.3826818 -0.9238803 0 0.6087585 -0.7933557 0 0.793351 -0.6087645 0 0.7933513 -0.6087642 0 0.9238843 -0.3826722 0 0.9238844 -0.3826716 0 0.9914445 -0.1305295 0 0.9914444 -0.1305295 0 0.9898216 0.1423137 0 0.9096321 0.4154148 0 0.7557502 0.65486 0 0.5406394 0.8412545 0 0.5406386 0.841255 0 0.2817316 0.9594933 0 0 1 0 -0.2817386 0.9594913 0 -0.5406371 0.841256 0 -0.5406366 0.8412563 0 -0.7557508 0.6548594 0 -0.7557506 0.6548596 0 -0.9096236 0.4154335 0 -0.9898235 0.1423013 0 -0.9898234 0.1423016 0 0.9898251 -0.1422895 0 0.977557 -0.1944604 0.08103978 0.9430029 -0.3327844 0 0.3989244 -0.9169839 0 0.5404238 -0.84084 0.03050076 0.5545408 -0.8299345 0.06077396 0.6813857 -0.7319246 0 0.8314685 -0.555572 0 0.7655769 -0.6169515 0.1823815 0.8860962 -0.4635014 0 0.2645826 -0.964363 0 0.1942217 -0.9764022 0.09442812 0.07132673 -0.997453 0 -0.6814035 -0.731908 0 -0.5394127 -0.8393368 0.06743633 -0.5552502 -0.8309968 0.03378701 -0.3991035 -0.9169059 0 -0.1950893 -0.9807855 0 -0.2617062 -0.9539066 0.1468747 -0.07132673 -0.997453 0 -0.7786484 -0.6274604 0 -0.8272114 -0.5527207 0.101099 -0.88609 -0.4635133 0 -0.9430398 -0.3326801 0 -0.9775645 -0.1944481 0.08098053 -0.9898212 -0.1423169 0 0.9567313 -0.1375676 0.2563989 0.9568169 -0.1375463 0.2560909 0.9110217 -0.3214995 0.2582199 0.90891 -0.4150757 -0.03993666 0.8560979 -0.4478056 0.2580047 0.7304759 -0.6329448 0.2564878 0.7771827 -0.6263142 -0.06097316 0.6582373 -0.7069776 0.2586625 0.6582373 -0.7069776 0.2586625 0.522547 -0.8130791 0.2566072 0.52261 -0.8131304 0.2563158 0.385335 -0.8857553 0.2587557 0.2796112 -0.9523216 0.1220702 0.255711 -0.9320257 0.256788 0.0689091 -0.9636449 0.2581475 0 -0.9981763 -0.06036657 -0.0689091 -0.9636449 0.2581475 -0.2723217 -0.9274697 0.2562049 -0.2632112 -0.9593916 0.101428 -0.3855055 -0.8856731 0.2587831 -0.5225753 -0.8131415 0.2563512 -0.522572 -0.8131378 0.2563697 -0.6582137 -0.7069936 0.2586791 -0.7555806 -0.6547189 0.02100694 -0.9567491 -0.1375625 0.2563352 -0.9567399 -0.1375529 0.256375 -0.9109882 -0.3213726 0.2584961 -0.9089 -0.4150847 -0.04006791 -0.8561192 -0.4478338 0.2578856 -0.7523951 -0.6063107 0.2574666 -0.7034704 -0.1011421 0.7034911 -0.7034865 -0.1011437 0.7034748 -0.6464944 -0.2952424 0.7034749 -0.6464868 -0.2952481 0.7034796 -0.5371302 -0.4654227 0.7034721 -0.5371286 -0.4654163 0.7034775 -0.3842362 -0.5978859 0.7034878 -0.3842406 -0.5978973 0.7034758 -0.2002294 -0.6819446 0.7034627 -0.2002335 -0.681968 0.7034388 0 -0.7107396 0.7034553 0 -0.7107337 0.7034613 0.2002315 -0.6819697 0.7034379 0.2002329 -0.6819706 0.7034365 0.3842698 -0.5979322 0.7034301 0.3842615 -0.597924 0.7034416 0.5371838 -0.4654511 0.7034124 0.5370824 -0.4653942 0.7035273 0.646432 -0.2952077 0.7035469 0.6464974 -0.295224 0.7034798 0.7034767 -0.1011547 0.7034829 0.7035064 -0.1011528 0.7034536 -0.2586315 -0.03718572 0.96526 -0.258634 -0.03718411 0.9652594 -0.2376816 -0.108546 0.9652591 -0.2376734 -0.1085441 0.9652614 -0.1974645 -0.1711083 0.9652615 -0.197474 -0.1711078 0.9652596 -0.1412654 -0.219812 0.96526 -0.141268 -0.2198138 0.9652591 -0.07361304 -0.250705 0.9652607 -0.07360726 -0.2507026 0.9652617 0 -0.2612909 0.9652602 0 -0.2612891 0.9652606 0.07361435 -0.2507004 0.9652617 0.07361167 -0.2507156 0.965258 0.1412785 -0.21983 0.965254 0.1412397 -0.2197803 0.9652709 0.1974157 -0.1710727 0.9652778 0.1975478 -0.1711565 0.9652359 0.2377796 -0.1085821 0.965231 0.2377442 -0.1085722 0.9652408 0.2587035 -0.03719842 0.9652403 0.2586397 -0.03719633 0.9652575 -0.9567506 0.1375529 0.2563344 -0.9567219 0.13756 0.2564381 -0.9109506 0.3213623 0.2586416 -0.9089085 0.4150855 -0.03986877 -0.8561461 0.4478024 0.2578509 -0.7304847 0.6329954 0.2563374 -0.7771624 0.6263265 -0.06110596 -0.6582798 0.7069538 0.2586194 -0.5225875 0.813151 0.2562963 -0.5225264 0.8131124 0.2565433 -0.3855382 0.8856001 0.2589843 -0.2796891 0.9523409 0.1217415 -0.2796891 0.9523409 0.1217415 -0.2796891 0.9523408 0.1217415 -0.2557557 0.9321091 0.2564405 -0.06889903 0.9637407 0.2577922 0 0.9981914 -0.06011617 0 0.9981914 -0.06011617 0 0.9981914 -0.06011617 0.06889903 0.9637407 0.2577922 0.2723113 0.9275681 0.2558591 0.2723194 0.9274767 0.2561819 0.2632386 0.9593482 0.1017673 0.3853678 0.8856824 0.2589569 0.5225616 0.8131019 0.2565052 0.52256 0.8130927 0.2565373 0.6582078 0.706912 0.2589169 0.7555668 0.6547201 0.02146077 0.9567353 0.1375356 0.2564013 0.9567964 0.1375756 0.2561521 0.9567093 0.1375763 0.2564762 0.9109839 0.3214892 0.258366 0.9089183 0.4150764 -0.03973752 0.8561244 0.4477743 0.2579718 0.7523449 0.6063501 0.2575204 0.7035023 0.1011542 0.7034575 0.7035176 0.1011621 0.703441 0.6466084 0.2952883 0.7033509 0.6465489 0.2952417 0.7034251 0.5372194 0.4655098 0.7033464 0.5371046 0.4653807 0.7035195 0.3842032 0.5978087 0.7035715 0.3842986 0.5980306 0.7033306 0.2002434 0.6820873 0.7033204 0.2002109 0.6818634 0.7035467 0 0.7106106 0.7035856 0 0.7106169 0.7035793 -0.2001832 0.6818642 0.7035539 -0.2002675 0.6820515 0.7033482 -0.384118 0.5978274 0.7036021 -0.3841179 0.5978274 0.7036021 -0.3840364 0.5977628 0.7037014 -0.3841437 0.5977957 0.7036148 -0.5370448 0.46536 0.7035787 -0.5372843 0.4655183 0.7032911 -0.6465952 0.2952939 0.7033607 -0.6466122 0.2952943 0.7033449 -0.703527 0.1011465 0.7034338 -0.7034672 0.1011481 0.7034934 0.2586418 0.03718978 0.9652572 0.2586767 0.03720146 0.9652473 0.2376818 0.1085376 0.96526 0.2377549 0.1085825 0.9652371 0.1975109 0.1711442 0.9652457 0.1974955 0.1711218 0.9652528 0.141298 0.2198802 0.9652397 0.1412768 0.2198477 0.9652502 0.07362335 0.2507311 0.9652532 0.07362389 0.2507573 0.9652463 0 0.2613532 0.9652433 0 0.2613496 0.9652442 -0.07362562 0.2507587 0.9652458 -0.07361906 0.2507219 0.9652559 -0.1412602 0.2198333 0.9652559 -0.1413289 0.2199085 0.9652287 -0.1975374 0.1711606 0.9652373 -0.1974558 0.1710919 0.9652662 -0.2376491 0.108537 0.9652682 -0.2379253 0.1086291 0.9651898 -0.2379253 0.1086291 0.9651898 -0.2379253 0.1086291 0.9651898 -0.2586104 0.03718245 0.9652659 -0.2586317 0.037184 0.9652602 -0.9898206 0.1423207 0 -0.9775638 0.1944522 0.08097863 -0.9430398 0.3326801 0 -0.3991606 0.916881 0 -0.5403732 0.8408752 0.03042805 -0.5545437 0.8299294 0.06081569 -0.6814655 0.7318503 0 -0.831471 0.5555683 0 -0.7655451 0.6169689 0.1824555 -0.8861114 0.4634723 0 -0.2646028 0.9643575 0 -0.1942297 0.9763988 0.09444701 -0.07130885 0.9974543 0 0.6814478 0.7318668 0 0.5394241 0.8393276 0.06746017 0.5552541 0.8309925 0.03382956 0.3989814 0.9169591 0 0.1951056 0.9807823 0 0.2617394 0.9538916 0.1469123 0.07130885 0.9974543 0 0.7786035 0.6275163 0 0.827202 0.5527223 0.1011674 0.8861176 0.4634604 0 0.9430029 0.3327844 0 0.9775564 0.1944645 0.08103787 0.9898245 0.1422933 0 -0.9898232 -0.1423028 0 -0.9898233 -0.1423024 0 -0.9096236 -0.4154335 0 -0.9096239 -0.4154329 0 -0.7557613 -0.6548474 0 -0.7557621 -0.6548463 0 -0.5406255 -0.8412634 0 -0.5406249 -0.8412639 0 -0.2817238 -0.9594956 0 -0.2817234 -0.9594957 0 0 -1 0 0.2817168 -0.9594977 0 0.2817165 -0.9594978 0 0.5406276 -0.8412621 0 0.5406272 -0.8412623 0 0.7557608 -0.6548479 0 0.7557615 -0.654847 0 0.9096321 -0.4154148 0 0.9096325 -0.4154142 0 0.9898214 -0.1423149 0 0.9914443 0.1305304 0 0.9914444 0.1305305 0 0.9238857 0.3826688 0 0.9238855 0.3826694 0 0.7933524 0.6087628 0 0.7933521 0.6087631 0 0.608763 0.7933523 0 0.608763 0.7933523 0 0.3826671 0.9238863 0 0.3826671 0.9238863 0 0.1305344 0.9914439 0 -0.1305335 0.991444 0 -0.3826699 0.9238852 0 -0.3826699 0.9238852 0 -0.6087645 0.7933511 0 -0.6087644 0.7933512 0 -0.7933557 0.6087585 0 -0.7933554 0.6087588 0 -0.9238812 0.3826794 0 -0.923881 0.38268 0 -0.9914448 0.1305268 0 -0.9914448 0.1305274 0 -5.62548e-7 0 -1 0 0 -1 1.61435e-6 0 -1 -2.07914e-6 0 -1 5.38122e-7 0 -1 -1.93228e-6 0 -1 1.50012e-6 0 -1 -3.05093e-5 0 -1 5.20307e-6 0 -1 2.6933e-6 0 -1 -6.77231e-6 0 -1 2.99295e-6 0 -1 -9.18625e-7 0 -1 8.46534e-7 0 -1 1.98861e-7 0 1 -4.09228e-6 0 1 -3.81988e-7 0 1 0 0 1 8.95608e-7 0 1 -6.74348e-7 0 1 1.79629e-7 0 1 1.55543e-6 0 1 4.09232e-6 0 1 -5.38905e-7 0 1 2.84181e-7 0 1 -6.39637e-7 0 1 5.662e-7 0 1 -5.6298e-7 0 1 -6.48754e-7 0 1 6.55792e-7 0 1 5.47488e-7 0 1 5.32827e-7 0 1 0 0 1 -5.24423e-7 0 1 6.37404e-7 0 1 -2.84185e-7 0 1 5.66207e-7 0 1 -6.55786e-7 0 1 -5.47477e-7 0 1 6.75205e-7 0 1 0 0 1 -3.60193e-7 0 1 -1.26471e-7 0 1 1.42366e-7 0 1 -1.61552e-7 0 1 4.08466e-7 0 1 2.12995e-7 0 1 -5.32503e-7 0 1 1.63375e-6 0 1 -3.19494e-7 0 1 -1.63378e-6 0 1 2.12994e-7 0 1 8.16935e-7 0 1 0 0 1 4.25991e-7 0 1 -4.25992e-7 0 1 1.63376e-6 0 1 -4.26004e-7 0 1 4.25993e-7 0 1 -4.2599e-7 0 1</float_array>
          <technique_common>
            <accessor source="#shape0_001-mesh-normals-array" count="349" stride="3">
              <param name="X" type="float"/>
              <param name="Y" type="float"/>
              <param name="Z" type="float"/>
            </accessor>
          </technique_common>
        </source>
        <vertices id="shape0_001-mesh-vertices">
          <input semantic="POSITION" source="#shape0_001-mesh-positions"/>
        </vertices>
        <triangles material="BATTERY-material" count="416">
          <input semantic="VERTEX" source="#shape0_001-mesh-vertices" offset="0"/>
          <input semantic="NORMAL" source="#shape0_001-mesh-normals" offset="1"/>
          <p>0 0 1 0 2 0 0 1 2 1 3 1 3 2 2 2 4 2 3 3 4 3 5 3 5 4 4 4 6 4 5 5 6 5 7 5 7 6 6 6 8 6 7 7 8 7 9 7 9 8 8 8 10 8 9 9 10 9 11 9 11 10 10 10 12 10 11 11 12 11 13 11 13 12 12 12 14 12 13 13 14 13 15 13 15 14 14 14 16 14 15 15 16 15 17 15 17 16 16 16 18 16 17 16 18 16 19 16 19 17 18 17 20 17 19 18 20 18 21 18 21 19 20 19 22 19 21 20 22 20 23 20 23 21 22 21 24 21 23 22 24 22 25 22 26 23 27 23 28 23 28 23 27 23 29 23 28 24 29 24 30 24 30 24 29 24 31 24 30 25 31 25 32 25 32 25 31 25 33 25 32 26 33 26 34 26 34 27 33 27 35 27 34 28 35 28 36 28 36 28 35 28 37 28 36 29 37 29 38 29 38 29 37 29 39 29 38 30 39 30 40 30 40 30 39 30 41 30 40 31 41 31 42 31 42 32 41 32 43 32 42 33 43 33 44 33 44 34 43 34 45 34 44 35 45 35 46 35 46 35 45 35 47 35 46 36 47 36 48 36 48 37 47 37 49 37 50 38 51 38 52 38 52 39 51 39 53 39 52 40 53 40 54 40 55 41 56 41 57 41 57 42 56 42 58 42 57 43 58 43 59 43 59 44 58 44 60 44 59 45 60 45 53 45 53 46 60 46 61 46 53 47 61 47 54 47 55 48 57 48 62 48 62 49 57 49 63 49 62 50 63 50 64 50 65 51 66 51 67 51 67 52 66 52 68 52 67 53 68 53 69 53 69 54 68 54 70 54 69 55 70 55 63 55 63 56 70 56 71 56 63 57 71 57 64 57 65 58 67 58 72 58 72 59 67 59 73 59 72 60 73 60 74 60 74 61 73 61 75 61 75 62 73 62 76 62 75 63 76 63 77 63 78 64 79 64 50 64 50 65 52 65 78 65 78 66 52 66 54 66 78 67 54 67 80 67 80 68 54 68 61 68 80 69 61 69 81 69 61 70 60 70 81 70 81 71 60 72 58 71 81 73 58 73 82 73 58 74 56 74 82 74 82 75 56 75 55 75 82 76 55 76 83 76 55 77 62 77 83 77 83 78 62 78 64 78 83 79 64 79 84 79 84 80 64 80 71 80 84 81 71 81 85 81 71 82 70 82 85 82 85 83 70 83 68 83 85 84 68 84 86 84 68 85 66 85 86 85 86 86 66 86 65 86 86 87 65 87 87 87 77 88 88 88 75 88 75 89 88 89 89 89 75 90 89 90 74 90 74 91 89 91 87 91 74 92 87 92 72 92 72 93 87 93 65 93 88 94 90 94 89 94 89 95 90 95 91 95 89 96 91 96 87 96 87 97 91 97 92 97 87 98 92 98 86 98 86 99 92 99 93 99 86 100 93 100 85 100 85 101 93 101 94 101 85 102 94 102 84 102 84 103 94 103 95 103 84 104 95 104 83 104 83 105 95 105 96 105 83 106 96 106 82 106 82 107 96 107 97 107 82 108 97 108 81 108 81 109 97 109 98 109 81 110 98 110 80 110 80 111 98 111 99 111 80 112 99 112 78 112 78 113 99 113 100 113 78 114 100 114 79 114 79 115 100 115 101 115 90 116 102 116 91 116 91 117 102 117 103 117 91 118 103 118 92 118 92 119 103 119 104 119 92 120 104 120 93 120 93 121 104 121 105 121 93 122 105 122 94 122 94 123 105 123 106 123 94 124 106 124 95 124 95 125 106 125 107 125 95 126 107 126 96 126 96 127 107 127 108 127 96 128 108 128 97 128 97 129 108 129 109 129 97 130 109 130 98 130 98 131 109 131 110 131 98 132 110 132 99 132 99 133 110 133 111 133 99 134 111 134 100 134 100 135 111 135 112 135 100 136 112 136 101 136 101 137 112 137 113 137 114 138 88 138 77 138 77 139 115 139 114 139 114 140 115 140 116 140 114 141 116 141 117 141 117 142 116 142 118 142 117 143 118 143 119 143 118 144 120 144 119 144 119 145 120 145 121 145 119 146 121 146 122 146 121 147 123 147 122 147 122 148 123 148 124 148 122 149 124 150 125 151 124 152 126 152 125 152 125 153 126 153 127 153 125 154 127 155 128 156 128 157 127 157 129 157 128 158 129 158 130 159 129 160 131 160 130 160 130 161 131 161 132 161 130 162 132 162 133 162 132 163 134 163 133 163 133 164 134 164 135 164 133 165 135 165 136 165 50 166 79 166 137 166 137 167 79 167 138 168 137 169 138 169 139 169 139 170 138 170 136 170 139 171 136 171 140 171 140 172 136 172 135 172 79 173 101 173 138 173 138 174 101 174 141 174 138 175 141 175 136 175 136 176 141 176 142 176 136 177 142 177 133 177 133 178 142 178 143 178 133 179 143 179 130 179 130 180 143 180 144 180 130 181 144 181 128 181 128 182 144 182 145 182 128 183 145 183 125 183 125 184 145 184 146 184 125 185 146 185 122 185 122 186 146 186 147 186 122 187 147 188 119 189 119 190 147 190 148 190 119 191 148 191 117 191 117 192 148 192 149 192 117 193 149 193 114 193 114 194 149 194 150 194 114 195 150 195 88 195 88 196 150 196 90 196 101 197 113 197 141 197 141 198 113 198 151 198 141 199 151 199 142 199 142 200 151 200 152 200 142 201 152 201 143 201 143 202 152 202 153 202 143 203 153 203 144 203 144 204 153 204 154 204 144 205 154 205 145 205 145 206 154 206 155 206 145 207 155 207 146 207 146 208 155 208 156 208 146 209 156 209 147 209 147 210 156 210 157 210 147 211 157 211 148 211 148 212 157 212 158 212 148 213 158 213 149 213 149 214 158 214 159 214 149 215 159 215 150 215 150 216 159 217 160 218 150 219 160 219 90 219 90 220 160 220 102 220 77 221 76 221 115 221 115 222 76 222 161 222 115 223 161 223 116 223 124 224 123 224 162 224 162 225 123 225 121 225 162 226 121 226 163 226 163 227 121 227 120 227 163 228 120 228 161 228 161 229 120 229 118 229 161 230 118 230 116 230 124 231 162 231 126 231 126 232 162 232 164 232 126 233 164 233 127 233 135 234 134 234 165 234 165 235 134 235 132 235 165 236 132 236 166 236 166 237 132 237 131 237 166 238 131 238 164 238 164 239 131 239 129 239 164 240 129 240 127 240 135 241 165 241 140 241 140 242 165 242 167 242 140 243 167 243 139 243 139 244 167 244 137 244 137 245 167 245 51 245 137 246 51 246 50 246 48 247 49 247 168 247 168 248 49 248 169 248 168 249 169 249 170 249 170 250 169 250 171 250 170 251 171 251 172 251 172 252 171 252 173 252 172 253 173 253 174 253 174 254 173 254 175 254 174 255 175 255 176 255 176 256 175 256 177 256 176 257 177 257 178 257 178 257 177 257 179 257 178 258 179 258 180 258 180 259 179 259 181 259 180 260 181 260 182 260 182 261 181 261 183 261 182 262 183 262 184 262 184 263 183 263 185 263 184 264 185 264 186 264 186 265 185 265 187 265 186 266 187 266 26 266 26 266 187 266 27 266 25 267 24 267 188 267 25 268 188 268 189 268 189 269 188 269 190 269 189 270 190 270 191 270 191 271 190 271 192 271 191 272 192 272 193 272 193 273 192 273 194 273 193 274 194 274 195 274 195 275 194 275 196 275 195 276 196 276 197 276 197 277 196 277 198 277 197 277 198 277 199 277 199 278 198 278 200 278 199 278 200 278 201 278 201 279 200 279 202 279 201 280 202 280 203 280 203 281 202 281 204 281 203 282 204 282 205 282 205 283 204 283 206 283 205 284 206 284 207 284 207 285 206 285 208 285 207 286 208 286 209 286 209 287 208 287 1 287 209 288 1 288 0 288 4 289 200 289 198 289 194 290 192 290 8 290 8 291 192 291 190 291 8 292 6 292 194 292 194 293 6 293 4 293 194 290 4 290 196 290 196 290 4 290 198 290 190 290 188 290 8 290 8 294 188 294 24 294 8 295 24 295 22 295 14 290 12 290 16 290 16 290 12 290 18 290 2 296 1 296 4 296 4 297 1 297 208 297 4 298 208 298 206 298 206 299 204 299 4 299 4 300 204 300 202 300 4 301 202 301 200 301 12 290 10 290 18 290 18 302 10 302 8 302 18 290 8 290 20 290 20 290 8 290 22 290 164 303 59 303 53 303 163 304 161 304 162 304 162 305 161 305 63 305 162 306 63 306 164 306 164 307 63 307 57 307 164 308 57 308 59 308 67 306 69 306 73 306 73 309 69 309 63 309 73 310 63 310 76 310 76 306 63 306 161 306 165 311 166 311 167 311 167 312 166 312 164 312 167 306 164 306 51 306 51 306 164 306 53 306 39 306 15 306 41 306 41 313 15 313 17 313 41 314 17 314 43 314 43 315 17 315 19 315 43 306 19 306 45 306 45 316 19 316 21 316 45 317 21 317 47 317 47 306 21 306 23 306 47 318 23 318 49 318 49 306 23 306 25 306 49 306 25 306 169 306 169 319 25 319 189 319 169 306 189 306 171 306 171 306 189 306 191 306 171 306 191 306 173 306 173 320 191 320 193 320 173 321 193 321 175 321 175 322 193 322 195 322 175 306 195 306 177 306 177 306 195 306 197 306 177 306 197 306 179 306 197 306 199 306 179 306 179 306 199 306 201 306 179 323 201 323 181 323 181 324 201 324 203 324 181 306 203 306 183 306 183 325 203 325 205 325 183 306 205 306 185 306 185 306 205 306 207 306 185 306 207 306 187 306 187 306 207 306 209 306 187 326 209 326 27 326 27 306 209 306 0 306 27 306 0 306 29 306 29 327 0 327 3 327 29 328 3 328 31 328 31 306 3 306 5 306 31 306 5 306 33 306 33 306 5 306 7 306 33 329 7 329 35 329 35 306 7 306 9 306 35 330 9 330 37 330 37 306 9 306 11 306 37 306 11 306 39 306 39 331 11 331 13 331 39 332 13 332 15 332 151 333 168 333 152 333 152 306 168 306 170 306 152 334 170 334 153 334 153 306 170 306 172 306 153 306 172 306 154 306 154 335 172 335 174 335 154 306 174 306 155 306 155 336 174 336 176 336 155 306 176 306 156 306 156 306 176 306 178 306 156 337 178 337 157 337 157 338 178 338 180 338 157 339 180 339 158 339 158 340 180 340 182 340 158 306 182 306 159 306 159 306 182 306 184 306 159 341 184 341 160 341 160 306 184 306 186 306 160 306 186 306 102 306 102 306 186 306 26 306 102 306 26 306 103 306 103 306 26 306 28 306 103 342 28 342 104 342 104 306 28 306 30 306 104 306 30 306 105 306 105 343 30 343 32 343 105 306 32 306 106 306 106 306 32 306 34 306 106 306 34 306 107 306 107 344 34 344 36 344 107 306 36 306 108 306 108 306 36 306 38 306 108 345 38 345 109 345 109 346 38 346 40 346 109 306 40 306 110 306 110 347 40 347 42 347 110 306 42 306 111 306 111 348 42 348 44 348 111 306 44 306 112 306 112 306 44 306 46 306 112 306 46 306 113 306 113 306 46 306 48 306 113 306 48 306 151 306 151 306 48 306 168 306</p>
        </triangles>
      </mesh>
    </geometry>
  </library_geometries>
  <library_visual_scenes>
    <visual_scene id="Scene" name="Scene">
      <node id="node" name="node" type="NODE">
        <matrix sid="transform">0.001 0 0 0 0 0.001 0 0 0 0 0.001 0 0 0 0 1</matrix>
        <instance_geometry url="#shape0_001-mesh" name="node">
          <bind_material>
            <technique_common>
              <instance_material symbol="BATTERY-material" target="#BATTERY-material"/>
            </technique_common>
          </bind_material>
        </instance_geometry>
      </node>
    </visual_scene>
  </library_visual_scenes>
  <scene>
    <instance_visual_scene url="#Scene"/>
  </scene>
</COLLADA>