<?xml version="1.0" encoding="utf-8"?>
<COLLADA xmlns="http://www.collada.org/2005/11/COLLADASchema" version="1.4.1" xmlns:xsi="http://www.w3.org/2001/XMLSchema-instance">
  <asset>
    <contributor>
      <author>Blender User</author>
      <authoring_tool>Blender 4.1.1 commit date:2024-04-15, commit time:15:11, hash:e1743a0317bc</authoring_tool>
    </contributor>
    <created>2024-07-11T21:41:18</created>
    <modified>2024-07-11T21:41:18</modified>
    <unit name="meter" meter="1"/>
    <up_axis>Z_UP</up_axis>
  </asset>
  <library_effects>
    <effect id="CASE-effect">
      <profile_COMMON>
        <technique sid="common">
          <lambert>
            <emission>
              <color sid="emission">0 0 0 1</color>
            </emission>
            <diffuse>
              <color sid="diffuse">0.02 0.02 0.02 1</color>
            </diffuse>
            <reflectivity>
              <float sid="specular">1</float>
            </reflectivity>
          </lambert>
        </technique>
      </profile_COMMON>
    </effect>
  </library_effects>
  <library_images/>
  <library_materials>
    <material id="CASE-material" name="CASE">
      <instance_effect url="#CASE-effect"/>
    </material>
  </library_materials>
  <library_geometries>
    <geometry id="shape0_006-mesh" name="shape0.006">
      <mesh>
        <source id="shape0_006-mesh-positions">
          <float_array id="shape0_006-mesh-positions-array" count="396">12.9793 -14.75 0 8.485589 -20 0 10.9586 -11.25 0 3.000009 -20 0 1.499999 -19.59808 0 0.4019281 -18.5 0 -8.74228e-7 -17 0 12.9793 -7.749998 0 -8.74228e-7 1.90735e-6 0 17.0207 -7.749998 0 90 1.90735e-6 0 52.9793 -7.749998 0 57.0207 -7.749998 0 19.7 -18.79878 0 18.4683 -18.72121 0 17.0207 -14.75 0 15.0661 -18.25017 0 11.6592 -18.68659 0 19.0415 -11.25 0 23.2149 -13.26268 0 27.3351 -8.249999 0 24.9572 -10.49517 0 50.9586 -11.25 0 52.9793 -14.75 0 47.7817 -16.37746 0 50.3 -18.79878 0 51.5317 -18.72121 0 55 -18.25 0 59.0415 -11.25 0 71.2653 -6.297997 0 68.0356 -7.772899 0 49.1413 -18.37394 0 48.2517 -17.51858 0 58.4683 -18.72121 0 57.0207 -14.75 0 59.7 -18.79878 0 46.7851 -13.26268 0 45.0428 -10.49517 0 42.6649 -8.249999 0 20.8587 -18.37394 0 21.7483 -17.51858 0 22.2183 -16.37746 0 39.802 -6.669398 0 36.6352 -5.853198 0 33.3649 -5.853198 0 30.198 -6.669398 0 65.3255 -10.06649 0 63.3369 -13.00782 0 62.2183 -16.37746 0 84.3661 -9.734699 0 81.5777 -7.536899 0 78.2986 -6.175399 0 61.7483 -17.51858 0 60.8587 -18.37394 0 74.7735 -5.751997 0 89.93301 -19.75 0 89.75 -19.93301 0 90 -19.5 0 89.5 -20 0 87.9799 -19.47222 0 87.6912 -15.93353 0 86.4559 -12.60491 0 88.1159 -19.84359 0 88.0096 -19.67192 0 88.2814 -19.95923 0 88.4792 -20 0 19.0415 -11.25 49.8 24.9572 -10.49517 49.8 17.0207 -7.749998 49.8 27.3351 -8.249999 49.8 59.0415 -11.25 49.8 57.0207 -14.75 49.8 62.2183 -16.37746 49.8 61.7483 -17.51858 49.8 60.8587 -18.37394 49.8 59.7 -18.79878 49.8 50.3 -18.79878 49.8 51.5317 -18.72121 49.8 52.9793 -14.75 49.8 55 -18.25 49.8 58.4683 -18.72121 49.8 63.3369 -13.00782 49.8 65.3255 -10.06649 49.8 57.0207 -7.749998 49.8 47.7817 -16.37746 49.8 46.7851 -13.26268 49.8 50.9586 -11.25 49.8 45.0428 -10.49517 49.8 0.4019281 -18.5 49.8 1.499999 -19.59808 49.8 3.000009 -20 49.8 90 1.90735e-6 49.8 52.9793 -7.749998 49.8 -8.74228e-7 1.90735e-6 49.8 78.2986 -6.175399 49.8 81.5777 -7.536899 49.8 84.3661 -9.734699 49.8 87.9799 -19.47222 49.8 90 -19.5 49.8 87.6912 -15.93353 49.8 86.4559 -12.60491 49.8 48.2517 -17.51858 49.8 49.1413 -18.37394 49.8 68.0356 -7.772899 49.8 71.2653 -6.297997 49.8 74.7735 -5.751997 49.8 88.0096 -19.67192 49.8 88.1159 -19.84359 49.8 20.8587 -18.37394 49.8 21.7483 -17.51858 49.8 17.0207 -14.75 49.8 22.2183 -16.37746 49.8 23.2149 -13.26268 49.8 12.9793 -14.75 49.8 11.6592 -18.68659 49.8 15.0661 -18.25017 49.8 18.4683 -18.72121 49.8 19.7 -18.79878 49.8 -8.74228e-7 -17 49.8 10.9586 -11.25 49.8 8.485589 -20 49.8 12.9793 -7.749998 49.8 30.198 -6.669398 49.8 33.3649 -5.853198 49.8 36.6352 -5.853198 49.8 39.802 -6.669398 49.8 42.6649 -8.249999 49.8 89.75 -19.93301 49.8 89.93301 -19.75 49.8 89.5 -20 49.8 88.4792 -20 49.8 88.2814 -19.95923 49.8</float_array>
          <technique_common>
            <accessor source="#shape0_006-mesh-positions-array" count="132" stride="3">
              <param name="X" type="float"/>
              <param name="Y" type="float"/>
              <param name="Z" type="float"/>
            </accessor>
          </technique_common>
        </source>
        <source id="shape0_006-mesh-normals">
          <float_array id="shape0_006-mesh-normals-array" count="387">0 0 -1 1.37279e-6 0 1 -6.26733e-7 0 1 0 0 1 -6.38568e-6 0 1 -5.82787e-7 0 1 5.82787e-7 0 1 3.29262e-6 0 1 1.892e-6 0 1 6.25729e-7 0 1 -8.56691e-7 0 1 5.06705e-7 0 1 3.16362e-6 0 1 7.72081e-7 0 1 1.67155e-6 0 1 1.17254e-6 0 1 1.30874e-6 0 1 0 0 1 -4.50093e-6 0 1 1.71298e-6 0 1 1.1394e-6 0 1 -6.89089e-7 0 1 3.29262e-6 0 1 -1.30874e-6 0 1 -8.80202e-7 0 1 1.34036e-6 0 1 -2.83637e-6 0 1 4.99568e-7 0 1 4.30203e-7 0 1 5.82939e-7 0 1 -6.3178e-7 0 1 -6.79712e-7 0 1 4.53911e-5 0 1 -0.06285321 -0.9980228 0 0.3442441 -0.9388802 0 0.693101 -0.7208405 0 0.693097 -0.7208443 0 0.9246404 -0.3808416 0 0.9246431 -0.3808348 0 0.949072 -0.3150594 0 0.9490728 -0.3150569 0 0.8284304 -0.5600922 0 0.8284291 -0.560094 0 0.6460127 -0.7633267 0 0.415402 -0.9096381 0 0.415404 -0.909637 0 0.1537844 -0.9881045 0 0.1537836 -0.9881046 0 -0.1192536 -0.9928639 0 -0.1192532 -0.992864 0 -0.3834658 -0.9235551 0 -0.3834648 -0.9235555 0 -0.6190276 -0.7853693 0 -0.6190223 -0.7853736 0 -0.8084198 -0.5886063 0 -0.8084172 -0.5886099 0 -0.9375202 -0.3479309 0 -0.937522 -0.3479261 0 -0.9966883 -0.08131736 0 -0.9966888 -0.08131188 0 -0.9891148 -0.1471462 0 -0.9891289 -0.1470512 0 -0.8502333 -0.5264062 0 -0.8501463 -0.5265466 0 -0.5728111 -0.8196875 0 -0.5727655 -0.8197193 0 -0.2018608 -0.9794142 0 -0.2018416 -0.9794183 0 0 -1 0 0.2588298 -0.965923 0 0.2588109 -0.9659281 0 0.7070967 -0.7071169 0 0.7071346 -0.707079 0 0.9659075 -0.2588876 0 0.9659265 -0.2588169 0 1 0 0 0 1 0 -1 0 0 -0.965925 -0.2588222 0 -0.965925 -0.2588222 0 -0.707109 -0.7071046 0 -0.7071089 -0.7071047 0 -0.2588165 -0.9659266 0 -0.2588165 -0.9659265 0 0.3823996 -0.9239971 0 0.3823993 -0.9239972 0 0.1270608 -0.991895 0 0.1270607 -0.991895 0 -0.1371436 -0.9905512 0 -0.1371434 -0.9905512 0 -0.06285333 -0.9980228 0 -0.06285345 -0.9980229 0 0.3442435 -0.9388805 0 0.693099 -0.7208424 0 0.9246417 -0.3808382 0 0.9524359 -0.3047394 0 0.8462611 -0.5327684 0 0.6865234 -0.7271077 0 0.686522 -0.7271091 0 0.4833276 -0.8754396 0 0.2495732 -0.968356 0 -0.2495804 -0.9683542 0 -0.24958 -0.9683542 0 -0.4833282 -0.8754392 0 -0.6865227 -0.7271084 0 -0.8462611 -0.5327684 0 -0.9524353 -0.3047407 0 -0.9524363 -0.3047381 0 -0.9246404 -0.3808416 0 -0.9246431 -0.3808348 0 -0.693097 -0.7208443 0 -0.3442441 -0.9388802 0 0.06285369 -0.9980227 0 0.06285321 -0.9980228 0 0.134625 -0.9908967 0 0.1346254 -0.9908966 0 -0.1346254 -0.9908966 0 0.8660282 0.4999952 0 0.8660282 -0.4999952 0 -0.8660179 -0.5000129 0 -0.8660172 -0.5000143 0 -0.8660172 0.5000143 0 -0.8660179 0.5000129 0 0.8660293 0.4999933 0 0.8660293 -0.4999933 0 -0.8660167 -0.5000152 0 -0.8660188 -0.5000116 0 -0.8660188 0.5000116 0 -0.8660167 0.5000152 0</float_array>
          <technique_common>
            <accessor source="#shape0_006-mesh-normals-array" count="129" stride="3">
              <param name="X" type="float"/>
              <param name="Y" type="float"/>
              <param name="Z" type="float"/>
            </accessor>
          </technique_common>
        </source>
        <vertices id="shape0_006-mesh-vertices">
          <input semantic="POSITION" source="#shape0_006-mesh-positions"/>
        </vertices>
        <triangles material="CASE-material" count="268">
          <input semantic="VERTEX" source="#shape0_006-mesh-vertices" offset="0"/>
          <input semantic="NORMAL" source="#shape0_006-mesh-normals" offset="1"/>
          <p>0 0 1 0 2 0 2 0 1 0 3 0 2 0 3 0 4 0 4 0 5 0 2 0 2 0 5 0 6 0 2 0 6 0 7 0 7 0 6 0 8 0 7 0 8 0 9 0 8 0 10 0 11 0 11 0 10 0 12 0 13 0 14 0 15 0 15 0 14 0 16 0 15 0 16 0 0 0 0 0 16 0 17 0 0 0 17 0 1 0 15 0 18 0 19 0 9 0 20 0 18 0 18 0 20 0 21 0 18 0 21 0 19 0 22 0 23 0 24 0 25 0 23 0 26 0 26 0 23 0 27 0 28 0 29 0 30 0 25 0 31 0 23 0 23 0 31 0 32 0 23 0 32 0 24 0 27 0 23 0 33 0 33 0 23 0 34 0 33 0 34 0 35 0 24 0 36 0 22 0 22 0 36 0 37 0 22 0 37 0 11 0 11 0 37 0 38 0 39 0 13 0 40 0 40 0 13 0 15 0 40 0 15 0 41 0 41 0 15 0 19 0 38 0 42 0 11 0 11 0 42 0 43 0 11 0 43 0 8 0 8 0 43 0 44 0 8 0 44 0 9 0 9 0 44 0 45 0 9 0 45 0 20 0 30 0 46 0 28 0 28 0 46 0 47 0 28 0 47 0 34 0 34 0 47 0 48 0 49 0 50 0 10 0 10 0 50 0 51 0 48 0 52 0 34 0 34 0 52 0 53 0 34 0 53 0 35 0 51 0 54 0 10 0 10 0 54 0 29 0 10 0 29 0 12 0 12 0 29 0 28 0 55 0 56 0 57 0 57 0 56 0 58 0 58 0 59 0 57 0 57 0 59 0 60 0 57 0 60 0 10 0 10 0 60 0 61 0 10 0 61 0 49 0 62 0 63 0 64 0 64 0 63 0 59 0 64 0 59 0 65 0 65 0 59 0 58 0 66 1 67 1 68 1 68 2 67 2 69 2 70 3 71 3 72 3 73 3 72 3 74 3 74 3 72 3 71 3 74 3 71 3 75 3 76 4 77 4 78 4 78 5 77 5 79 5 78 3 79 3 71 3 71 6 79 6 80 6 71 7 80 7 75 7 72 3 81 3 70 3 70 8 81 8 82 8 70 9 82 9 83 9 84 10 78 10 85 10 85 3 78 3 86 3 85 11 86 11 87 11 88 12 89 12 90 12 83 3 91 3 92 3 92 3 91 3 93 3 94 3 95 3 91 3 91 13 95 13 96 13 97 3 98 3 99 3 99 3 98 3 91 3 99 3 91 3 100 3 100 14 91 14 96 14 84 3 101 3 78 3 78 15 101 15 102 15 78 16 102 16 76 16 82 17 103 17 83 17 83 3 103 3 104 3 83 3 104 3 91 3 91 18 104 18 105 18 91 19 105 19 94 19 97 3 106 3 107 3 108 3 109 3 110 3 110 20 109 20 111 20 110 3 111 3 66 3 66 3 111 3 112 3 66 3 112 3 67 3 113 3 114 3 110 3 110 21 114 21 115 21 115 3 116 3 110 3 110 22 116 22 117 22 110 23 117 23 108 23 118 3 88 3 119 3 119 24 88 24 90 24 119 25 90 25 113 25 113 3 90 3 120 3 113 26 120 26 114 26 118 3 119 3 93 3 93 27 119 27 121 27 93 3 121 3 68 3 69 28 122 28 68 28 68 3 122 3 123 3 68 3 123 3 93 3 93 3 123 3 124 3 93 29 124 29 92 29 92 3 124 3 125 3 92 30 125 30 86 30 86 3 125 3 126 3 86 3 126 3 87 3 127 3 128 3 129 3 129 3 128 3 98 3 129 3 98 3 130 3 130 31 98 31 97 31 130 32 97 32 131 32 131 3 97 3 107 3 80 33 33 33 35 33 80 33 35 33 75 33 75 34 35 34 53 34 75 34 53 34 74 34 74 35 53 35 52 35 74 36 52 36 73 36 73 37 52 37 48 37 73 38 48 38 72 38 72 39 48 39 81 39 81 40 48 40 47 40 81 41 47 41 82 41 82 42 47 42 46 42 82 43 46 43 103 43 103 43 46 43 30 43 103 44 30 44 104 44 104 45 30 45 29 45 104 46 29 46 105 46 105 47 29 47 54 47 105 48 54 48 94 48 94 49 54 49 51 49 94 50 51 50 95 50 95 51 51 51 50 51 95 52 50 52 96 52 96 53 50 53 49 53 96 54 49 54 100 54 100 55 49 55 61 55 100 56 61 56 99 56 99 57 61 57 60 57 99 58 60 58 97 58 97 59 60 59 59 59 97 60 59 60 63 60 97 61 63 61 106 61 106 62 63 62 62 62 106 63 62 63 107 63 107 64 62 64 64 64 107 65 64 65 131 65 131 66 64 66 65 66 131 67 65 67 130 67 129 68 130 68 58 68 58 68 130 68 65 68 129 69 58 69 56 69 129 70 56 70 127 70 127 71 56 71 55 71 127 72 55 72 128 72 128 73 55 73 57 73 128 74 57 74 98 74 91 75 98 75 10 75 10 75 98 75 57 75 93 76 91 76 8 76 8 76 91 76 10 76 118 77 93 77 6 77 6 77 93 77 8 77 118 78 6 78 5 78 118 79 5 79 88 79 88 80 5 80 4 80 88 81 4 81 89 81 89 82 4 82 3 82 89 83 3 83 90 83 120 68 90 68 1 68 1 68 90 68 3 68 120 84 1 84 114 84 114 85 1 85 17 85 114 86 17 86 115 86 115 87 17 87 16 87 115 88 16 88 116 88 116 89 16 89 14 89 116 90 14 90 13 90 116 91 13 91 117 91 117 92 13 92 39 92 117 34 39 34 108 34 108 93 39 93 40 93 108 36 40 36 109 36 109 94 40 94 41 94 109 94 41 94 111 94 111 95 41 95 112 95 112 95 41 95 19 95 112 96 19 96 67 96 67 96 19 96 21 96 67 97 21 97 69 97 69 98 21 98 20 98 69 99 20 99 122 99 122 99 20 99 45 99 122 100 45 100 123 100 123 100 45 100 44 100 123 68 44 68 124 68 124 68 44 68 43 68 124 101 43 101 125 101 125 102 43 102 42 102 125 103 42 103 126 103 126 103 42 103 38 103 126 104 38 104 87 104 87 104 38 104 37 104 87 105 37 105 85 105 85 105 37 105 36 105 85 106 36 106 84 106 84 107 36 107 24 107 84 108 24 108 32 108 84 109 32 109 101 109 101 110 32 110 31 110 101 110 31 110 102 110 102 111 31 111 25 111 102 111 25 111 76 111 76 112 25 112 26 112 76 113 26 113 77 113 77 114 26 114 79 114 79 115 26 115 27 115 79 116 27 116 80 116 80 116 27 116 33 116 113 76 110 76 0 76 0 76 110 76 15 76 119 117 113 117 2 117 2 117 113 117 0 117 121 118 119 118 7 118 7 118 119 118 2 118 68 68 121 68 9 68 9 68 121 68 7 68 66 119 68 119 18 119 18 120 68 120 9 120 110 121 66 121 15 121 15 122 66 122 18 122 78 76 71 76 23 76 23 76 71 76 34 76 86 117 78 117 22 117 22 123 78 123 23 123 92 124 86 124 11 124 11 118 86 118 22 118 83 68 92 68 12 68 12 68 92 68 11 68 70 125 83 125 28 125 28 126 83 126 12 126 71 127 70 127 34 127 34 128 70 128 28 128</p>
        </triangles>
      </mesh>
    </geometry>
  </library_geometries>
  <library_visual_scenes>
    <visual_scene id="Scene" name="Scene">
      <node id="node" name="node" type="NODE">
        <matrix sid="transform">-4.37114e-11 -0.001 0 0 0.001 -4.37114e-11 0 0 0 0 0.001 0 0 0 0 1</matrix>
        <instance_geometry url="#shape0_006-mesh" name="node">
          <bind_material>
            <technique_common>
              <instance_material symbol="CASE-material" target="#CASE-material"/>
            </technique_common>
          </bind_material>
        </instance_geometry>
      </node>
    </visual_scene>
  </library_visual_scenes>
  <scene>
    <instance_visual_scene url="#Scene"/>
  </scene>
</COLLADA>