<?xml version="1.0" encoding="utf-8"?>
<COLLADA xmlns="http://www.collada.org/2005/11/COLLADASchema" version="1.4.1" xmlns:xsi="http://www.w3.org/2001/XMLSchema-instance">
  <asset>
    <contributor>
      <author>Blender User</author>
      <authoring_tool>Blender 4.1.1 commit date:2024-04-15, commit time:15:11, hash:e1743a0317bc</authoring_tool>
    </contributor>
    <created>2024-07-10T16:43:05</created>
    <modified>2024-07-10T16:43:05</modified>
    <unit name="meter" meter="1"/>
    <up_axis>Z_UP</up_axis>
  </asset>
  <library_effects>
    <effect id="Part__Feature_008-effect">
      <profile_COMMON>
        <technique sid="common">
          <lambert>
            <emission>
              <color sid="emission">0 0 0 1</color>
            </emission>
            <diffuse>
              <color sid="diffuse">0.2746773 0.2746773 0.4286905 1</color>
            </diffuse>
            <index_of_refraction>
              <float sid="ior">1.5</float>
            </index_of_refraction>
          </lambert>
        </technique>
      </profile_COMMON>
    </effect>
  </library_effects>
  <library_images/>
  <library_materials>
    <material id="Part__Feature_008-material" name="Part__Feature.008">
      <instance_effect url="#Part__Feature_008-effect"/>
    </material>
  </library_materials>
  <library_geometries>
    <geometry id="Part__Feature_008-mesh" name="Part__Feature.008">
      <mesh>
        <source id="Part__Feature_008-mesh-positions">
          <float_array id="Part__Feature_008-mesh-positions-array" count="246">0.07500243 0.08588933 0.04903215 0.07125246 0.08588933 0.04903215 0.07500243 0.08588933 -0.04903233 0.07125246 0.08588933 -0.04903233 0.07500243 0.08684933 0.04999989 0.07500243 0.08684933 -0.05000007 0.07050246 0.08684933 0.04999989 0.07050246 0.08684933 -0.05000007 0.07125246 0.08268934 -0.04580652 0.07125246 0.08268934 0.04580634 0.001127421 0.08268934 -0.04580652 0.001127421 0.08268934 0.04580634 0.001127421 0.08364933 0.04999989 0.001127421 0.08364933 0.0464515 2.45869e-6 0.08364933 0.04999989 0.07050246 0.08364933 0.0464515 0.07050246 0.08364933 -0.04645168 0.001127421 0.08364933 -0.04645168 0.001127421 0.08364933 -0.05000007 2.45869e-6 0.08364933 -0.05000007 2.45869e-6 -0.06439065 -0.05000007 2.45869e-6 -0.06439065 0.04999989 0.001127421 -0.06421238 -0.05000007 0.003082752 -0.06855064 -0.05000007 0.001877427 -0.06855064 -0.05000007 0.001127421 -0.06421238 -0.04645168 0.04094201 -0.07815057 -0.04645168 0.01875245 -0.07815057 -0.04645168 0.03937745 -0.07671064 -0.04645168 0.03937745 -0.07247978 -0.04645168 0.07050246 -0.07394647 -0.04645168 0.001877427 -0.06855064 -0.04645168 0.003082752 -0.06855064 -0.04645168 0.07050246 -0.07394647 0.04999989 0.07050246 -0.07394647 0.0464515 0.07050246 -0.07394647 -0.05000007 0.07500243 -0.07655066 -0.05000007 0.04125243 -0.08135068 -0.05000007 0.04094201 -0.07815057 -0.05000007 0.01875245 -0.08235687 -0.05000007 0.01875245 -0.07815057 -0.05000007 0.07500243 -0.07655066 0.04999989 0.07500243 -0.07655066 0.04903215 0.07500243 -0.07655066 -0.04903233 0.01987743 -0.08230656 -0.04903233 0.04125243 -0.08135068 -0.04903233 0.01987743 -0.08038657 -0.04903233 0.04125243 -0.07943058 -0.04903233 0.07125246 -0.07516396 -0.04903233 0.07125246 -0.07516396 0.04903215 0.07125246 -0.07516396 0.04580634 0.07125246 -0.07516396 -0.04580652 0.00268495 -0.06766808 -0.04580652 0.04012745 -0.07159107 -0.04580652 0.001127421 -0.06421238 -0.04580652 0.04012745 -0.07399064 -0.04580652 0.04125243 -0.07399064 -0.04580652 0.04125243 -0.07943058 -0.04580652 0.001127421 -0.06421238 0.04580634 0.04125243 -0.07943058 0.04580634 0.04125243 -0.07399064 0.04580634 0.04012745 -0.07399064 0.04580634 0.04012745 -0.07159107 0.04580634 0.00268495 -0.06766808 0.04580634 0.04125243 -0.08135068 0.04903215 0.04125243 -0.07943058 0.04903215 0.01987743 -0.08038657 0.04903215 0.01987743 -0.08230656 0.04903215 0.01875245 -0.08235687 0.04999989 0.04094201 -0.07815057 0.04999989 0.01875245 -0.07815057 0.04999989 0.04125243 -0.08135068 0.04999989 0.04094201 -0.07815057 0.0464515 0.03937745 -0.07671064 0.0464515 0.01875245 -0.07815057 0.0464515 0.03937745 -0.07247978 0.0464515 0.001127421 -0.06421238 0.0464515 0.001877427 -0.06855064 0.0464515 0.003082752 -0.06855064 0.0464515 0.001127421 -0.06421238 0.04999989 0.001877427 -0.06855064 0.04999989 0.003082752 -0.06855064 0.04999989</float_array>
          <technique_common>
            <accessor source="#Part__Feature_008-mesh-positions-array" count="82" stride="3">
              <param name="X" type="float"/>
              <param name="Y" type="float"/>
              <param name="Z" type="float"/>
            </accessor>
          </technique_common>
        </source>
        <source id="Part__Feature_008-mesh-normals">
          <float_array id="Part__Feature_008-mesh-normals-array" count="198">0 -1 0 0 1 0 -1 0 0 0 0 -1 -5.8041e-6 0 -1 -3.53867e-6 0 -1 1 0 0 2.19829e-6 0 -1 0 0 -1 -1.51299e-7 0 -1 -1.94317e-7 0 -1 -1 -3.13271e-6 0 -1 9.09496e-7 0 1.7729e-7 0 1 0 0 1 5.05246e-7 0 1 1 1.98551e-7 0 1 -2.96782e-6 0 0 0 1 1.89556e-7 0 1 0 0 -1 -3.05777e-6 0 -1 -5.05246e-7 0 -1 1.7728e-7 0 -1 -3.03478e-7 0 1 2.65808e-7 0 1 -4.39657e-6 0 1 3.34126e-7 0 1 0 0 1 0 0 1 -0.06964379 0.997572 0 -0.06964379 0.997572 0 -1 5.53528e-7 0 -1 0 0 0.0446754 -0.9990016 1.06823e-5 0.04467618 -0.9990016 0 0.04465931 -0.9990023 0 0.04465913 -0.9990023 0 0.04467529 -0.9990016 -1.06823e-5 0.04468095 -0.9990014 0 0.04468107 -0.9990014 0 0.04468107 -0.9990014 0 0.04468101 -0.9990013 0 -0.9116744 -0.4109135 0 -0.9116743 -0.4109136 0 -0.9116743 -0.4109135 0 -0.911674 -0.4109145 0 0.9116804 0.4109002 0 0.9116807 0.4108996 0 -0.1042054 -0.9945559 0 -0.1042054 -0.9945559 0 0.911681 0.4108988 0 0.911681 0.4108988 0 0.1042039 0.994556 0 0.1042039 0.994556 0 0.140805 -0.9900374 0 -0.1408035 0.9900376 0 -0.1408038 0.9900376 0 0.1408029 -0.9900377 0 0.140803 -0.9900377 0 0.1408028 -0.9900377 0 -0.1408037 0.9900376 0 -0.1408034 0.9900376 0 0.9116808 0.4108992 0 0.9116805 0.4108999 0 2.41372e-6 0 1</float_array>
          <technique_common>
            <accessor source="#Part__Feature_008-mesh-normals-array" count="66" stride="3">
              <param name="X" type="float"/>
              <param name="Y" type="float"/>
              <param name="Z" type="float"/>
            </accessor>
          </technique_common>
        </source>
        <vertices id="Part__Feature_008-mesh-vertices">
          <input semantic="POSITION" source="#Part__Feature_008-mesh-positions"/>
        </vertices>
        <triangles material="Part__Feature_008-material" count="160">
          <input semantic="VERTEX" source="#Part__Feature_008-mesh-vertices" offset="0"/>
          <input semantic="NORMAL" source="#Part__Feature_008-mesh-normals" offset="1"/>
          <p>0 0 1 0 2 0 2 0 1 0 3 0 4 1 5 1 6 1 6 1 5 1 7 1 8 0 9 0 10 0 9 0 11 0 10 0 12 1 13 1 14 1 15 1 16 1 13 1 16 1 17 1 13 1 18 1 19 1 17 1 19 1 14 1 17 1 17 1 14 1 13 1 20 2 21 2 19 2 19 2 21 2 14 2 22 3 23 3 24 3 22 4 24 4 20 4 19 5 22 5 20 5 18 3 22 3 19 3 22 6 18 6 17 6 22 6 17 6 25 6 26 3 27 3 28 3 29 7 26 7 28 7 30 3 26 3 29 3 16 3 25 3 17 3 16 8 29 8 25 8 16 9 30 9 29 9 29 3 31 3 32 3 29 10 32 10 25 10 6 11 16 11 15 11 6 12 7 12 16 12 15 2 33 2 6 2 15 2 34 2 33 2 16 2 35 2 30 2 7 2 35 2 16 2 36 3 35 3 5 3 5 3 35 3 7 3 35 3 37 3 38 3 36 3 37 3 35 3 38 3 39 3 40 3 37 3 39 3 38 3 0 6 2 6 4 6 2 6 5 6 4 6 4 6 41 6 0 6 41 6 42 6 0 6 43 6 36 6 2 6 2 6 36 6 5 6 44 13 45 13 46 13 45 14 47 14 46 14 45 15 48 15 47 15 45 14 43 14 48 14 48 14 2 14 3 14 43 14 2 14 48 14 8 16 1 16 9 16 3 17 1 17 8 17 49 6 9 6 1 6 50 6 9 6 49 6 48 6 8 6 51 6 48 6 3 6 8 6 52 14 53 14 54 14 54 14 53 14 10 14 10 14 53 14 8 14 55 14 56 14 53 14 57 18 51 18 56 18 53 19 51 19 8 19 56 14 51 14 53 14 11 6 58 6 10 6 58 6 54 6 10 6 59 20 60 20 50 20 61 3 62 3 60 3 60 3 62 3 50 3 63 3 58 3 62 3 62 3 9 3 50 3 58 3 11 3 62 3 62 3 11 3 9 3 42 21 49 21 0 21 0 3 49 3 1 3 49 22 64 22 65 22 42 3 64 3 49 3 64 23 66 23 65 23 64 3 67 3 66 3 68 14 69 14 70 14 68 14 71 14 69 14 6 14 33 14 4 14 71 24 33 24 69 24 33 14 41 14 4 14 71 25 41 25 33 25 72 14 73 14 74 14 75 26 73 26 72 26 34 27 75 27 72 27 15 14 13 14 76 14 15 28 76 28 75 28 15 29 75 29 34 29 77 14 75 14 78 14 78 14 75 14 76 14 12 6 79 6 13 6 13 6 79 6 76 6 73 2 75 2 29 2 73 2 29 2 28 2 27 30 73 30 28 30 27 31 74 31 73 31 40 2 39 2 27 2 74 2 68 2 70 2 39 32 68 32 27 32 27 33 68 33 74 33 71 34 68 34 67 34 64 35 71 35 67 35 44 36 68 36 39 36 44 37 67 37 68 37 37 35 45 35 44 35 37 38 44 38 39 38 67 6 44 6 66 6 66 6 44 6 46 6 59 39 65 39 66 39 57 40 66 40 46 40 57 41 59 41 66 41 47 42 57 42 46 42 24 43 31 43 20 43 31 44 21 44 20 44 31 45 77 45 21 45 77 46 80 46 21 46 79 47 81 47 76 47 76 48 81 48 78 48 78 0 81 0 77 0 77 0 81 0 80 0 31 49 29 49 75 49 31 50 75 50 77 50 55 6 53 6 62 6 55 6 62 6 61 6 60 1 55 1 61 1 60 1 56 1 55 1 58 51 63 51 54 51 54 52 63 52 52 52 62 53 53 53 63 53 53 54 52 54 63 54 72 1 74 1 69 1 69 1 74 1 70 1 57 6 56 6 60 6 57 6 60 6 59 6 71 55 64 55 41 55 41 55 64 55 42 55 69 56 33 56 72 56 33 57 34 57 72 57 50 58 49 58 65 58 50 58 65 58 59 58 43 55 45 55 36 55 45 55 37 55 36 55 48 59 51 59 57 59 48 60 57 60 47 60 38 1 40 1 27 1 26 1 38 1 27 1 38 61 26 61 30 61 38 62 30 62 35 62 32 63 23 63 22 63 32 64 22 64 25 64 23 0 32 0 24 0 24 0 32 0 31 0 79 14 21 14 80 14 79 14 80 14 81 14 14 65 21 65 79 65 12 14 14 14 79 14</p>
        </triangles>
      </mesh>
    </geometry>
  </library_geometries>
  <library_visual_scenes>
    <visual_scene id="Scene" name="Scene">
      <node id="node0" name="node0" type="NODE">
        <matrix sid="transform">-4.37114e-8 0 -1 0 0 1 0 0 1 0 -4.37114e-8 0 0 0 0 1</matrix>
        <instance_geometry url="#Part__Feature_008-mesh" name="node0">
          <bind_material>
            <technique_common>
              <instance_material symbol="Part__Feature_008-material" target="#Part__Feature_008-material"/>
            </technique_common>
          </bind_material>
        </instance_geometry>
      </node>
    </visual_scene>
  </library_visual_scenes>
  <scene>
    <instance_visual_scene url="#Scene"/>
  </scene>
</COLLADA>