<?xml version="1.0" encoding="utf-8"?>
<COLLADA xmlns="http://www.collada.org/2005/11/COLLADASchema" version="1.4.1" xmlns:xsi="http://www.w3.org/2001/XMLSchema-instance">
  <asset>
    <contributor>
      <author>Blender User</author>
      <authoring_tool>Blender 4.0.2 commit date:2023-12-05, commit time:07:41, hash:9be62e85b727</authoring_tool>
    </contributor>
    <created>2024-01-26T18:01:43</created>
    <modified>2024-01-26T18:01:43</modified>
    <unit name="meter" meter="1"/>
    <up_axis>Z_UP</up_axis>
  </asset>
  <library_images/>
  <library_geometries>
    <geometry id="shape0_001-mesh" name="shape0.001">
      <mesh>
        <source id="shape0_001-mesh-positions">
          <float_array id="shape0_001-mesh-positions-array" count="312">-37.5 3.8147e-6 0 -36.41032 8.974305 210 -36.41032 8.974305 0 -33.2046 17.4271 210 -33.2046 17.4271 0 -28.06915 24.8671 210 -28.06915 24.8671 0 -21.3024 30.8619 210 -21.3024 30.8619 0 -13.2977 35.0631 210 -13.2977 35.0631 0 -4.520096 37.2266 210 -4.520096 37.2266 0 4.520103 37.2266 210 4.520103 37.2266 0 13.2977 35.0631 210 13.2977 35.0631 0 21.3024 30.8619 210 21.3024 30.8619 0 28.0692 24.8671 210 28.0692 24.8671 0 33.2046 17.4271 210 33.2046 17.4271 0 36.4103 8.974305 210 36.4103 8.974305 0 37.5 3.8147e-6 210 37.5 3.8147e-6 0 36.4103 -8.974297 210 36.4103 -8.974297 0 33.2046 -17.4271 210 33.2046 -17.4271 0 28.0692 -24.8671 210 28.0692 -24.8671 0 21.3024 -30.86189 210 21.3024 -30.86189 0 13.2977 -35.06311 210 13.2977 -35.06311 0 4.520103 -37.22658 210 4.520103 -37.22658 0 -4.520096 -37.22658 210 -4.520096 -37.22658 0 -13.2977 -35.06311 210 -13.2977 -35.06311 0 -21.3024 -30.86189 210 -21.3024 -30.86189 0 -28.06915 -24.8671 210 -28.06915 -24.8671 0 -33.2046 -17.4271 210 -33.2046 -17.4271 0 -36.41032 -8.974297 210 -36.41032 -8.974297 0 -37.5 3.8147e-6 210 -34.72401 -4.386696 210 -32.54217 -12.8844 210 -28.31559 -20.5725 210 -22.3098 -26.968 210 -14.9023 -31.66894 210 -6.558296 -34.38005 210 2.197704 -34.93093 210 10.8156 -33.28697 210 18.7539 -29.55148 210 25.5139 -23.9591 210 30.6707 -16.8614 210 33.9004 -8.704098 210 35 3.8147e-6 210 33.9004 8.704102 210 30.6707 16.8614 210 25.5139 23.9591 210 18.7539 29.5515 210 10.8156 33.28701 210 2.197704 34.9309 210 -6.558296 34.3801 210 -14.9023 31.6689 210 -22.3098 26.96801 210 -28.31559 20.5725 210 -32.54217 12.8844 210 -34.72401 4.386703 210 3.8147e-6 3.8147e-6 0 35 3.8147e-6 10 33.9004 8.704102 10 30.6707 16.8614 10 25.5139 23.9591 10 18.7539 29.5515 10 10.8156 33.28701 10 2.197704 34.9309 10 -6.558296 34.3801 10 -14.9023 31.6689 10 -22.3098 26.96801 10 -28.31559 20.5725 10 -32.54217 12.8844 10 -34.72401 4.386703 10 -34.72401 -4.386696 10 -32.54217 -12.8844 10 -28.31559 -20.5725 10 -22.3098 -26.968 10 -14.9023 -31.66894 10 -6.558296 -34.38005 10 2.197704 -34.93093 10 10.8156 -33.28697 10 18.7539 -29.55148 10 25.5139 -23.9591 10 30.6707 -16.8614 10 33.9004 -8.704098 10 3.8147e-6 3.8147e-6 10</float_array>
          <technique_common>
            <accessor source="#shape0_001-mesh-positions-array" count="104" stride="3">
              <param name="X" type="float"/>
              <param name="Y" type="float"/>
              <param name="Z" type="float"/>
            </accessor>
          </technique_common>
        </source>
        <source id="shape0_001-mesh-normals">
          <float_array id="shape0_001-mesh-normals-array" count="330">-0.9927089 0.1205366 0 -0.9350163 0.3546046 0 -0.8229847 0.5680637 0 -0.8229843 0.5680641 0 -0.6631218 0.7485115 0 -0.6631217 0.7485117 0 -0.4647235 0.885456 0 -0.4647236 0.8854559 0 -0.2393179 0.9709413 0 -0.2393178 0.9709413 0 0 1 0 0.2393179 0.9709413 0 0.2393179 0.9709413 0 0.4647236 0.8854559 0 0.6631188 0.7485142 0 0.8229873 0.5680599 0 0.9350171 0.3546028 0 0.9350169 0.3546032 0 0.9927086 0.1205391 0 0.9927086 -0.1205391 0 0.9350169 -0.3546031 0 0.9350172 -0.3546026 0 0.8229871 -0.5680601 0 0.6631182 -0.7485147 0 0.4647257 -0.8854547 0 0.2393143 -0.9709421 0 0.2393143 -0.9709422 0 0 -1 0 -0.2393143 -0.9709422 0 -0.2393143 -0.9709422 0 -0.4647257 -0.8854547 0 -0.4647256 -0.8854548 0 -0.6631211 -0.7485122 0 -0.6631213 -0.748512 0 -0.8229842 -0.5680643 0 -0.8229845 -0.568064 0 -0.9350164 -0.3546044 0 -0.9927089 -0.1205366 0 -0.9927089 -0.1205371 0 -0.9927089 0.1205371 0 -8.22225e-6 0 1 0 0 1 5.02494e-6 0 1 -5.04082e-6 0 1 2.53171e-6 0 1 2.54624e-6 0 1 2.91196e-6 0 1 1.10561e-5 0 1 5.97554e-6 0 1 -1.57417e-6 0 1 4.63769e-6 0 1 -8.63993e-6 0 1 8.4301e-6 0 1 0 0 -1 -0.9921144 -0.1253356 0 -0.9921146 -0.125335 0 -0.9297766 -0.3681245 0 -0.9297767 -0.368124 0 -0.809016 -0.5877868 0 -0.8090159 -0.5877867 0 -0.6374268 -0.770511 0 -0.637427 -0.7705109 0 -0.4257815 -0.9048261 0 -0.1873754 -0.9822884 0 0.06278181 -0.9980274 0 0.06278181 -0.9980274 0 0.3090239 -0.9510543 0 0.3090239 -0.9510543 0 0.5358233 -0.8443303 0 0.5358232 -0.8443304 0 0.728968 -0.6845479 0 0.7289679 -0.684548 0 0.8763056 -0.4817557 0 0.8763058 -0.4817553 0 0.9685834 -0.2486891 0 0.9685834 -0.2486891 0 1 0 0 0.9685834 0.248689 0 0.8763058 0.4817553 0 0.8763056 0.4817557 0 0.7289676 0.6845482 0 0.5358268 0.8443281 0 0.5358268 0.8443279 0 0.3090151 0.9510571 0 0.309015 0.9510573 0 0.06279134 0.9980268 0 0.06279128 0.9980267 0 -0.1873821 0.9822871 0 -0.1873821 0.9822871 0 -0.4257811 0.9048262 0 -0.4257811 0.9048262 0 -0.6374256 0.7705121 0 -0.6374254 0.7705121 0 -0.8090158 0.5877868 0 -0.8090159 0.5877869 0 -0.9297767 0.368124 0 -0.9297766 0.3681245 0 -0.9921146 0.125335 0 -0.9921144 0.1253355 0 0 0 1 0 0 1 0 0 1 0 0 1 0 0 1 0 0 1 0 0 1 0 0 1 0 0 1 0 0 1 0 0 1</float_array>
          <technique_common>
            <accessor source="#shape0_001-mesh-normals-array" count="110" stride="3">
              <param name="X" type="float"/>
              <param name="Y" type="float"/>
              <param name="Z" type="float"/>
            </accessor>
          </technique_common>
        </source>
        <vertices id="shape0_001-mesh-vertices">
          <input semantic="POSITION" source="#shape0_001-mesh-positions"/>
        </vertices>
        <triangles count="204">
          <input semantic="VERTEX" source="#shape0_001-mesh-vertices" offset="0"/>
          <input semantic="NORMAL" source="#shape0_001-mesh-normals" offset="1"/>
          <p>0 0 1 0 2 0 2 1 1 1 3 1 2 1 3 1 4 1 4 2 3 2 5 2 4 3 5 3 6 3 6 4 5 4 7 4 6 5 7 5 8 5 8 6 7 6 9 6 8 7 9 7 10 7 10 8 9 8 11 8 10 9 11 9 12 9 12 10 11 10 13 10 12 10 13 10 14 10 14 11 13 11 15 11 14 12 15 12 16 12 16 13 15 13 17 13 16 13 17 13 18 13 18 14 17 14 19 14 18 14 19 14 20 14 20 15 19 15 21 15 20 15 21 15 22 15 22 16 21 16 23 16 22 17 23 17 24 17 24 18 23 18 25 18 24 18 25 18 26 18 26 19 25 19 27 19 26 19 27 19 28 19 28 20 27 20 29 20 28 21 29 21 30 21 30 22 29 22 31 22 30 22 31 22 32 22 32 23 31 23 33 23 32 23 33 23 34 23 34 24 33 24 35 24 34 24 35 24 36 24 36 25 35 25 37 25 36 26 37 26 38 26 38 27 37 27 39 27 38 27 39 27 40 27 40 28 39 28 41 28 40 29 41 29 42 29 42 30 41 30 43 30 42 31 43 31 44 31 44 32 43 32 45 32 44 33 45 33 46 33 46 34 45 34 47 34 46 35 47 35 48 35 48 36 47 36 49 36 48 36 49 36 50 36 50 37 49 37 51 37 50 38 51 38 0 38 0 39 51 39 1 39 1 40 51 40 52 40 52 41 51 41 49 41 52 41 49 41 53 41 53 41 49 41 47 41 53 42 47 42 54 42 54 41 47 41 45 41 54 43 45 43 55 43 55 41 45 41 43 41 55 44 43 44 56 44 56 41 43 41 41 41 56 45 41 45 57 45 57 41 41 41 39 41 57 41 39 41 58 41 58 41 39 41 37 41 58 41 37 41 59 41 59 46 37 46 35 46 59 41 35 41 60 41 60 41 35 41 33 41 60 41 33 41 61 41 61 41 33 41 31 41 61 41 31 41 62 41 62 41 31 41 29 41 62 41 29 41 63 41 63 47 29 47 27 47 63 41 27 41 64 41 64 41 27 41 25 41 64 41 25 41 65 41 65 41 25 41 23 41 65 41 23 41 66 41 66 41 23 41 21 41 66 41 21 41 67 41 67 41 21 41 19 41 67 48 19 48 68 48 68 41 19 41 17 41 68 41 17 41 69 41 69 41 17 41 15 41 69 49 15 49 70 49 70 41 15 41 13 41 70 41 13 41 71 41 71 41 13 41 11 41 71 41 11 41 72 41 72 50 11 50 9 50 72 41 9 41 73 41 73 41 9 41 7 41 73 41 7 41 74 41 74 41 7 41 5 41 74 41 5 41 75 41 75 51 5 51 3 51 75 41 3 41 76 41 76 52 3 52 1 52 76 41 1 41 52 41 26 53 28 53 77 53 26 53 77 53 24 53 18 53 20 53 77 53 77 53 20 53 22 53 77 53 22 53 24 53 12 53 14 53 77 53 77 53 14 53 16 53 77 53 16 53 18 53 6 53 8 53 77 53 77 53 8 53 10 53 77 53 10 53 12 53 0 53 2 53 77 53 77 53 2 53 4 53 77 53 4 53 6 53 46 53 48 53 77 53 77 53 48 53 50 53 77 53 50 53 0 53 40 53 42 53 77 53 77 53 42 53 44 53 77 53 44 53 46 53 34 53 36 53 77 53 77 53 36 53 38 53 77 53 38 53 40 53 28 53 30 53 77 53 77 53 30 53 32 53 77 53 32 53 34 53 78 54 64 54 79 54 79 55 64 55 65 55 79 56 65 56 80 56 80 57 65 57 66 57 80 58 66 58 81 58 81 59 66 59 67 59 81 60 67 60 82 60 82 61 67 61 68 61 82 62 68 62 83 62 83 62 68 62 69 62 83 63 69 63 84 63 84 63 69 63 70 63 84 64 70 64 85 64 85 65 70 65 71 65 85 66 71 66 86 66 86 67 71 67 72 67 86 68 72 68 87 68 87 69 72 69 73 69 87 70 73 70 88 70 88 71 73 71 74 71 88 72 74 72 89 72 89 73 74 73 75 73 89 74 75 74 90 74 90 75 75 75 76 75 90 76 76 76 91 76 91 76 76 76 52 76 91 77 52 77 92 77 92 77 52 77 53 77 92 78 53 78 93 78 93 79 53 79 54 79 93 80 54 80 94 80 94 80 54 80 55 80 94 81 55 81 95 81 95 82 55 82 56 82 95 83 56 83 96 83 96 84 56 84 57 84 96 85 57 85 97 85 97 86 57 86 58 86 97 87 58 87 98 87 98 88 58 88 59 88 98 89 59 89 99 89 99 90 59 90 60 90 99 91 60 91 100 91 100 92 60 92 61 92 100 93 61 93 101 93 101 94 61 94 62 94 101 95 62 95 102 95 102 96 62 96 63 96 102 97 63 97 78 97 78 98 63 98 64 98 78 41 79 41 103 41 100 99 101 99 103 99 103 100 101 100 102 100 103 41 102 41 78 41 97 41 98 41 103 41 103 101 98 101 99 101 103 102 99 102 100 102 94 41 95 41 103 41 103 103 95 103 96 103 103 41 96 41 97 41 91 104 92 104 103 104 103 105 92 105 93 105 103 106 93 106 94 106 88 41 89 41 103 41 103 41 89 41 90 41 103 41 90 41 91 41 85 41 86 41 103 41 103 41 86 41 87 41 103 107 87 107 88 107 82 41 83 41 103 41 103 108 83 108 84 108 103 109 84 109 85 109 79 41 80 41 103 41 103 41 80 41 81 41 103 41 81 41 82 41</p>
        </triangles>
      </mesh>
    </geometry>
  </library_geometries>
  <library_visual_scenes>
    <visual_scene id="Scene" name="Scene">
      <node id="node" name="node" type="NODE">
        <matrix sid="transform">0.001 0 0 -3.72529e-9 0 0.001 0 -3.72529e-9 0 0 0.001 0 0 0 0 1</matrix>
        <instance_geometry url="#shape0_001-mesh" name="node"/>
      </node>
    </visual_scene>
  </library_visual_scenes>
  <scene>
    <instance_visual_scene url="#Scene"/>
  </scene>
</COLLADA>