<?xml version="1.0" encoding="utf-8"?>
<COLLADA xmlns="http://www.collada.org/2005/11/COLLADASchema" version="1.4.1" xmlns:xsi="http://www.w3.org/2001/XMLSchema-instance">
  <asset>
    <contributor>
      <author>Blender User</author>
      <authoring_tool>Blender 4.2.1 LTS commit date:2024-08-19, commit time:11:21, hash:396f546c9d82</authoring_tool>
    </contributor>
    <created>2024-09-16T17:23:31</created>
    <modified>2024-09-16T17:23:31</modified>
    <unit name="meter" meter="1"/>
    <up_axis>Z_UP</up_axis>
  </asset>
  <library_effects>
    <effect id="BLACK-effect">
      <profile_COMMON>
        <technique sid="common">
          <lambert>
            <emission>
              <color sid="emission">0 0 0 1</color>
            </emission>
            <diffuse>
              <color sid="diffuse">0.1087898 0.1087898 0.1087898 1</color>
            </diffuse>
            <index_of_refraction>
              <float sid="ior">1.5</float>
            </index_of_refraction>
          </lambert>
        </technique>
      </profile_COMMON>
    </effect>
  </library_effects>
  <library_images/>
  <library_materials>
    <material id="BLACK-material" name="BLACK">
      <instance_effect url="#BLACK-effect"/>
    </material>
  </library_materials>
  <library_geometries>
    <geometry id="shape0-mesh" name="shape0">
      <mesh>
        <source id="shape0-mesh-positions">
          <float_array id="shape0-mesh-positions-array" count="2172">79.8919 52.5442 5 20.1081 52.5442 5 80 50 5 20 50 5 79.8919 47.4558 5 20.1081 47.4558 5 79.5685 44.93 5 20.4315 44.93 5 79.03201 42.4407 5 20.968 42.4407 5 78.2863 40.0058 5 21.7137 40.0058 5 77.3369 37.643 5 22.6631 37.643 5 76.1904 35.3692 5 23.8096 35.3692 5 74.8553 33.2008 5 25.1447 33.2008 5 73.3411 31.1534 5 26.6589 31.1534 5 71.6587 29.2418 5 28.3413 29.2418 5 69.8202 27.4798 5 30.1798 27.4798 5 67.83901 25.8801 5 32.161 25.8801 5 65.7292 24.4541 5 34.2708 24.4541 5 63.5061 23.2122 5 36.4939 23.2122 5 61.1857 22.1633 5 38.8143 22.1633 5 58.7847 21.315 5 41.2153 21.315 5 56.3204 20.6733 5 43.6796 20.6733 5 53.8105 20.243 5 46.1895 20.243 5 51.2732 20.027 5 48.7268 20.027 5 20.4315 55.07 5 79.5685 55.07 5 20.968 57.5593 5 79.03201 57.5593 5 21.7137 59.9942 5 78.2863 59.9942 5 22.6631 62.357 5 77.3369 62.357 5 23.8096 64.6309 5 76.1904 64.6309 5 25.1447 66.7992 5 74.8553 66.7992 5 26.6589 68.8466 5 73.3411 68.8466 5 28.3413 70.7582 5 71.6587 70.7582 5 30.1798 72.5202 5 69.8202 72.5202 5 32.161 74.1199 5 67.83901 74.1199 5 34.2708 75.5459 5 65.7292 75.5459 5 36.4939 76.7878 5 63.5061 76.7878 5 38.8143 77.8367 5 61.1857 77.8367 5 41.2153 78.68501 5 58.7847 78.68501 5 43.6796 79.3267 5 56.3204 79.3267 5 46.1895 79.75701 5 53.8105 79.75701 5 48.7268 79.97301 5 51.2732 79.97301 5 8.39535 101.33 25 8.39535 101.33 15 8.5 100 25 8.5 100 15 8.39535 98.6703 25 8.39535 98.6703 15 8.08398 97.3734 25 8.08398 97.3734 15 7.57356 96.1411 25 7.57356 96.1411 15 6.87664 95.0038 25 6.87664 95.0038 15 6.01041 93.9896 25 6.01041 93.9896 15 4.99617 93.1234 25 4.99617 93.1234 15 3.85892 92.4264 25 3.85892 92.4264 15 2.62664 91.91601 25 2.62664 91.91601 15 1.32969 91.6047 25 1.32969 91.6047 15 0 91.5 25 0 91.5 15 -1.32969 91.6047 25 -1.32969 91.6047 15 -2.62664 91.91601 25 -2.62664 91.91601 15 -3.85892 92.4264 25 -3.85892 92.4264 15 -4.99617 93.1234 25 -4.99617 93.1234 15 -6.01041 93.9896 25 -6.01041 93.9896 15 -6.87664 95.0038 25 -6.87664 95.0038 15 -7.57356 96.1411 25 -7.57356 96.1411 15 -8.08398 97.3734 25 -8.08398 97.3734 15 -8.39535 98.6703 25 -8.39535 98.6703 15 -8.5 100 25 -8.5 100 15 -8.39535 101.33 25 -8.39535 101.33 15 -8.08398 102.627 25 -8.08398 102.627 15 -7.57356 103.859 25 -7.57356 103.859 15 -6.87664 104.996 25 -6.87664 104.996 15 -6.01041 106.01 25 -6.01041 106.01 15 -4.99617 106.877 25 -4.99617 106.877 15 -3.85892 107.574 25 -3.85892 107.574 15 -2.62664 108.084 25 -2.62664 108.084 15 -1.32969 108.395 25 -1.32969 108.395 15 0 108.5 25 0 108.5 15 1.32969 108.395 25 1.32969 108.395 15 2.62664 108.084 25 2.62664 108.084 15 3.85892 107.574 25 3.85892 107.574 15 4.99617 106.877 25 4.99617 106.877 15 6.01041 106.01 25 6.01041 106.01 15 6.87664 104.996 25 6.87664 104.996 15 7.57356 103.859 25 7.57356 103.859 15 8.08398 102.627 25 8.08398 102.627 15 108.395 101.33 25 108.395 101.33 15 108.5 100 25 108.5 100 15 108.395 98.6703 25 108.395 98.6703 15 108.084 97.3734 25 108.084 97.3734 15 107.574 96.1411 25 107.574 96.1411 15 106.877 95.0038 25 106.877 95.0038 15 106.01 93.9896 25 106.01 93.9896 15 104.996 93.1234 25 104.996 93.1234 15 103.859 92.4264 25 103.859 92.4264 15 102.627 91.91601 25 102.627 91.91601 15 101.33 91.6047 25 101.33 91.6047 15 100 91.5 25 100 91.5 15 98.6703 91.6047 25 98.6703 91.6047 15 97.3734 91.91601 25 97.3734 91.91601 15 96.1411 92.4264 25 96.1411 92.4264 15 95.0038 93.1234 25 95.0038 93.1234 15 93.9896 93.9896 25 93.9896 93.9896 15 93.1234 95.0038 25 93.1234 95.0038 15 92.4264 96.1411 25 92.4264 96.1411 15 91.91601 97.3734 25 91.91601 97.3734 15 91.6047 98.6703 25 91.6047 98.6703 15 91.5 100 25 91.5 100 15 91.6047 101.33 25 91.6047 101.33 15 91.91601 102.627 25 91.91601 102.627 15 92.4264 103.859 25 92.4264 103.859 15 93.1234 104.996 25 93.1234 104.996 15 93.9896 106.01 25 93.9896 106.01 15 95.0038 106.877 25 95.0038 106.877 15 96.1411 107.574 25 96.1411 107.574 15 97.3734 108.084 25 97.3734 108.084 15 98.6703 108.395 25 98.6703 108.395 15 100 108.5 25 100 108.5 15 101.33 108.395 25 101.33 108.395 15 102.627 108.084 25 102.627 108.084 15 103.859 107.574 25 103.859 107.574 15 104.996 106.877 25 104.996 106.877 15 106.01 106.01 25 106.01 106.01 15 106.877 104.996 25 106.877 104.996 15 107.574 103.859 25 107.574 103.859 15 108.084 102.627 25 108.084 102.627 15 79.8919 47.4558 25 80 50 25 79.8919 52.5442 25 79.5685 55.07 25 79.03201 57.5593 25 78.2863 59.9942 25 77.3369 62.357 25 76.1904 64.6309 25 74.8553 66.7992 25 73.3411 68.8466 25 71.6587 70.7582 25 69.8202 72.5202 25 67.83901 74.1199 25 65.7292 75.5459 25 63.5061 76.7878 25 61.1857 77.8367 25 58.7847 78.68501 25 56.3204 79.3267 25 53.8105 79.75701 25 51.2732 79.97301 25 48.7268 79.97301 25 46.1895 79.75701 25 43.6796 79.3267 25 41.2153 78.68501 25 38.8143 77.8367 25 36.4939 76.7878 25 34.2708 75.5459 25 32.161 74.1199 25 30.1798 72.5202 25 28.3413 70.7582 25 26.6589 68.8466 25 25.1447 66.7992 25 23.8096 64.6309 25 22.6631 62.357 25 21.7137 59.9942 25 20.968 57.5593 25 20.4315 55.07 25 20.1081 52.5442 25 20 50 25 20.1081 47.4558 25 20.4315 44.93 25 20.968 42.4407 25 21.7137 40.0058 25 22.6631 37.643 25 23.8096 35.3692 25 25.1447 33.2008 25 26.6589 31.1534 25 28.3413 29.2418 25 30.1798 27.4798 25 32.161 25.8801 25 34.2708 24.4541 25 36.4939 23.2122 25 38.8143 22.1633 25 41.2153 21.315 25 43.6796 20.6733 25 46.1895 20.243 25 48.7268 20.027 25 51.2732 20.027 25 53.8105 20.243 25 56.3204 20.6733 25 58.7847 21.315 25 61.1857 22.1633 25 63.5061 23.2122 25 65.7292 24.4541 25 67.83901 25.8801 25 69.8202 27.4798 25 71.6587 29.2418 25 73.3411 31.1534 25 74.8553 33.2008 25 76.1904 35.3692 25 77.3369 37.643 25 78.2863 40.0058 25 79.03201 42.4407 25 79.5685 44.93 25 8.39535 1.32969 25 8.39535 1.32969 15 8.5 0 25 8.5 0 15 8.39535 -1.32969 25 8.39535 -1.32969 15 8.08398 -2.62664 25 8.08398 -2.62664 15 7.57356 -3.85892 25 7.57356 -3.85892 15 6.87664 -4.99617 25 6.87664 -4.99617 15 6.01041 -6.01041 25 6.01041 -6.01041 15 4.99617 -6.87664 25 4.99617 -6.87664 15 3.85892 -7.57356 25 3.85892 -7.57356 15 2.62664 -8.08398 25 2.62664 -8.08398 15 1.32969 -8.39535 25 1.32969 -8.39535 15 0 -8.5 25 0 -8.5 15 -1.32969 -8.39535 25 -1.32969 -8.39535 15 -2.62664 -8.08398 25 -2.62664 -8.08398 15 -3.85892 -7.57356 25 -3.85892 -7.57356 15 -4.99617 -6.87664 25 -4.99617 -6.87664 15 -6.01041 -6.01041 25 -6.01041 -6.01041 15 -6.87664 -4.99617 25 -6.87664 -4.99617 15 -7.57356 -3.85892 25 -7.57356 -3.85892 15 -8.08398 -2.62664 25 -8.08398 -2.62664 15 -8.39535 -1.32969 25 -8.39535 -1.32969 15 -8.5 0 25 -8.5 0 15 -8.39535 1.32969 25 -8.39535 1.32969 15 -8.08398 2.62664 25 -8.08398 2.62664 15 -7.57356 3.85892 25 -7.57356 3.85892 15 -6.87664 4.99617 25 -6.87664 4.99617 15 -6.01041 6.01041 25 -6.01041 6.01041 15 -4.99617 6.87664 25 -4.99617 6.87664 15 -3.85892 7.57356 25 -3.85892 7.57356 15 -2.62664 8.08398 25 -2.62664 8.08398 15 -1.32969 8.39535 25 -1.32969 8.39535 15 0 8.5 25 0 8.5 15 1.32969 8.39535 25 1.32969 8.39535 15 2.62664 8.08398 25 2.62664 8.08398 15 3.85892 7.57356 25 3.85892 7.57356 15 4.99617 6.87664 25 4.99617 6.87664 15 6.01041 6.01041 25 6.01041 6.01041 15 6.87664 4.99617 25 6.87664 4.99617 15 7.57356 3.85892 25 7.57356 3.85892 15 8.08398 2.62664 25 8.08398 2.62664 15 108.395 1.32969 25 108.395 1.32969 15 108.5 0 25 108.5 0 15 108.395 -1.32969 25 108.395 -1.32969 15 108.084 -2.62664 25 108.084 -2.62664 15 107.574 -3.85892 25 107.574 -3.85892 15 106.877 -4.99617 25 106.877 -4.99617 15 106.01 -6.01041 25 106.01 -6.01041 15 104.996 -6.87664 25 104.996 -6.87664 15 103.859 -7.57356 25 103.859 -7.57356 15 102.627 -8.08398 25 102.627 -8.08398 15 101.33 -8.39535 25 101.33 -8.39535 15 100 -8.5 25 100 -8.5 15 98.6703 -8.39535 25 98.6703 -8.39535 15 97.3734 -8.08398 25 97.3734 -8.08398 15 96.1411 -7.57356 25 96.1411 -7.57356 15 95.0038 -6.87664 25 95.0038 -6.87664 15 93.9896 -6.01041 25 93.9896 -6.01041 15 93.1234 -4.99617 25 93.1234 -4.99617 15 92.4264 -3.85892 25 92.4264 -3.85892 15 91.91601 -2.62664 25 91.91601 -2.62664 15 91.6047 -1.32969 25 91.6047 -1.32969 15 91.5 0 25 91.5 0 15 91.6047 1.32969 25 91.6047 1.32969 15 91.91601 2.62664 25 91.91601 2.62664 15 92.4264 3.85892 25 92.4264 3.85892 15 93.1234 4.99617 25 93.1234 4.99617 15 93.9896 6.01041 25 93.9896 6.01041 15 95.0038 6.87664 25 95.0038 6.87664 15 96.1411 7.57356 25 96.1411 7.57356 15 97.3734 8.08398 25 97.3734 8.08398 15 98.6703 8.39535 25 98.6703 8.39535 15 100 8.5 25 100 8.5 15 101.33 8.39535 25 101.33 8.39535 15 102.627 8.08398 25 102.627 8.08398 15 103.859 7.57356 25 103.859 7.57356 15 104.996 6.87664 25 104.996 6.87664 15 106.01 6.01041 25 106.01 6.01041 15 106.877 4.99617 25 106.877 4.99617 15 107.574 3.85892 25 107.574 3.85892 15 108.084 2.62664 25 108.084 2.62664 15 110 -10 25 -10 -10 25 110 110 25 -10 110 25 104.974 0.505842 15 104.974 -0.505842 15 104.771 -1.49682 15 104.372 -2.42651 15 103.794 -3.25686 15 103.061 -3.95388 15 102.202 -4.48902 15 101.253 -4.84039 15 100.253 -4.99358 15 99.2429 -4.94234 15 98.2635 -4.68876 15 97.3552 -4.24322 15 96.5552 -3.62396 15 95.8962 -2.85634 15 95.4052 -1.97178 15 95.1023 -1.00649 15 95 0 15 95.1023 1.00649 15 95.4052 1.97178 15 95.8962 2.85634 15 96.5552 3.62396 15 97.3552 4.24322 15 98.2635 4.68876 15 99.2429 4.94234 15 100.253 4.99358 15 101.253 4.84039 15 102.202 4.48902 15 103.061 3.95388 15 103.794 3.25686 15 104.372 2.42651 15 104.771 1.49682 15 -4.89765 1.00649 15 -5 0 15 -4.59479 1.97178 15 -4.10382 2.85634 15 -3.44483 3.62396 15 -2.64482 4.24322 15 -1.73653 4.68876 15 -0.757139 4.94234 15 0.253246 4.99358 15 1.25326 4.84039 15 2.20197 4.48902 15 3.06053 3.95388 15 3.79379 3.25686 15 4.37173 2.42651 15 4.7707 1.49682 15 4.97435 0.505842 15 4.97435 -0.505842 15 4.7707 -1.49682 15 4.37173 -2.42651 15 3.79379 -3.25686 15 3.06053 -3.95388 15 2.20197 -4.48902 15 1.25326 -4.84039 15 0.253246 -4.99358 15 -0.757139 -4.94234 15 -1.73653 -4.68876 15 -2.64482 -4.24322 15 -3.44483 -3.62396 15 -4.10382 -2.85634 15 -4.59479 -1.97178 15 -4.89765 -1.00649 15 95.1023 101.006 15 95 100 15 95.4052 101.972 15 95.8962 102.856 15 96.5552 103.624 15 97.3552 104.243 15 98.2635 104.689 15 99.2429 104.942 15 100.253 104.994 15 101.253 104.84 15 102.202 104.489 15 103.061 103.954 15 103.794 103.257 15 104.372 102.427 15 104.771 101.497 15 104.974 100.506 15 104.974 99.4942 15 104.771 98.5032 15 104.372 97.5735 15 103.794 96.7431 15 103.061 96.0461 15 102.202 95.511 15 101.253 95.1596 15 100.253 95.0064 15 99.2429 95.0577 15 98.2635 95.3112 15 97.3552 95.7568 15 96.5552 96.37601 15 95.8962 97.1437 15 95.4052 98.0282 15 95.1023 98.9935 15 -4.89765 98.9935 15 -4.89765 98.9935 0 -5 100 15 -5 100 0 -4.89765 101.006 15 -4.89765 101.006 0 -4.59479 101.972 15 -4.59479 101.972 0 -4.10382 102.856 15 -4.10382 102.856 0 -3.44483 103.624 15 -3.44483 103.624 0 -2.64482 104.243 15 -2.64482 104.243 0 -1.73653 104.689 15 -1.73653 104.689 0 -0.757139 104.942 15 -0.757139 104.942 0 0.253246 104.994 15 0.253246 104.994 0 1.25326 104.84 15 1.25326 104.84 0 2.20197 104.489 15 2.20197 104.489 0 3.06053 103.954 15 3.06053 103.954 0 3.79379 103.257 15 3.79379 103.257 0 4.37173 102.427 15 4.37173 102.427 0 4.7707 101.497 15 4.7707 101.497 0 4.97435 100.506 15 4.97435 100.506 0 4.97435 99.4942 15 4.97435 99.4942 0 4.7707 98.5032 15 4.7707 98.5032 0 4.37173 97.5735 15 4.37173 97.5735 0 3.79379 96.7431 15 3.79379 96.7431 0 3.06053 96.0461 15 3.06053 96.0461 0 2.20197 95.511 15 2.20197 95.511 0 1.25326 95.1596 15 1.25326 95.1596 0 0.253246 95.0064 15 0.253246 95.0064 0 -0.757139 95.0577 15 -0.757139 95.0577 0 -1.73653 95.3112 15 -1.73653 95.3112 0 -2.64482 95.7568 15 -2.64482 95.7568 0 -3.44483 96.37601 15 -3.44483 96.37601 0 -4.10382 97.1437 15 -4.10382 97.1437 0 -4.59479 98.0282 15 -4.59479 98.0282 0 95.1023 -1.00649 0 95 0 0 95.1023 1.00649 0 95.4052 1.97178 0 95.8962 2.85634 0 96.5552 3.62396 0 97.3552 4.24322 0 98.2635 4.68876 0 99.2429 4.94234 0 100.253 4.99358 0 101.253 4.84039 0 102.202 4.48902 0 103.061 3.95388 0 103.794 3.25686 0 104.372 2.42651 0 104.771 1.49682 0 104.974 0.505842 0 104.974 -0.505842 0 104.771 -1.49682 0 104.372 -2.42651 0 103.794 -3.25686 0 103.061 -3.95388 0 102.202 -4.48902 0 101.253 -4.84039 0 100.253 -4.99358 0 99.2429 -4.94234 0 98.2635 -4.68876 0 97.3552 -4.24322 0 96.5552 -3.62396 0 95.8962 -2.85634 0 95.4052 -1.97178 0 -4.89765 -1.00649 0 -5 0 0 -4.89765 1.00649 0 -4.59479 1.97178 0 -4.10382 2.85634 0 -3.44483 3.62396 0 -2.64482 4.24322 0 -1.73653 4.68876 0 -0.757139 4.94234 0 0.253246 4.99358 0 1.25326 4.84039 0 2.20197 4.48902 0 3.06053 3.95388 0 3.79379 3.25686 0 4.37173 2.42651 0 4.7707 1.49682 0 4.97435 0.505842 0 4.97435 -0.505842 0 4.7707 -1.49682 0 4.37173 -2.42651 0 3.79379 -3.25686 0 3.06053 -3.95388 0 2.20197 -4.48902 0 1.25326 -4.84039 0 0.253246 -4.99358 0 -0.757139 -4.94234 0 -1.73653 -4.68876 0 -2.64482 -4.24322 0 -3.44483 -3.62396 0 -4.10382 -2.85634 0 -4.59479 -1.97178 0 95.1023 98.9935 0 95 100 0 95.1023 101.006 0 95.4052 101.972 0 95.8962 102.856 0 96.5552 103.624 0 97.3552 104.243 0 98.2635 104.689 0 99.2429 104.942 0 100.253 104.994 0 101.253 104.84 0 102.202 104.489 0 103.061 103.954 0 103.794 103.257 0 104.372 102.427 0 104.771 101.497 0 104.974 100.506 0 104.974 99.4942 0 104.771 98.5032 0 104.372 97.5735 0 103.794 96.7431 0 103.061 96.0461 0 102.202 95.511 0 101.253 95.1596 0 100.253 95.0064 0 99.2429 95.0577 0 98.2635 95.3112 0 97.3552 95.7568 0 96.5552 96.37601 0 95.8962 97.1437 0 95.4052 98.0282 0 -10 110 0 -10 -10 0 110 110 0 110 -10 0</float_array>
          <technique_common>
            <accessor source="#shape0-mesh-positions-array" count="724" stride="3">
              <param name="X" type="float"/>
              <param name="Y" type="float"/>
              <param name="Z" type="float"/>
            </accessor>
          </technique_common>
        </source>
        <source id="shape0-mesh-normals">
          <float_array id="shape0-mesh-normals-array" count="2697">0 0 1 -0.9969187 -0.07844275 0 -0.9969174 0.07845973 0 -0.9723677 0.2334547 0 -0.9723682 0.2334526 0 -0.9238836 0.3826738 0 -0.8526458 0.5224895 0 -0.8526463 0.5224887 0 -0.7603978 0.6494576 0 -0.7603976 0.649458 0 -0.6494312 0.7604205 0 -0.6494308 0.7604207 0 -0.5225482 0.8526098 0 -0.522548 0.8526099 0 -0.3826603 0.9238892 0 -0.3826608 0.9238891 0 -0.2334026 0.9723802 0 -0.2334026 0.9723802 0 -0.0784958 0.9969145 0 0.0784958 0.9969145 0 0.2334026 0.9723802 0 0.2334026 0.9723802 0 0.3826608 0.9238891 0 0.3826603 0.9238892 0 0.522548 0.8526099 0 0.5225482 0.8526098 0 0.6494308 0.7604207 0 0.6494312 0.7604205 0 0.7603976 0.649458 0 0.7603978 0.6494576 0 0.8526463 0.5224887 0 0.8526458 0.5224895 0 0.9238836 0.3826738 0 0.9723682 0.2334526 0 0.9723677 0.2334547 0 0.9969174 0.07845973 0 0.9969187 -0.07844275 0 0.9723724 -0.2334352 0 0.972373 -0.2334331 0 0.9238501 -0.3827548 0 0.8525848 -0.5225889 0 0.8525854 -0.5225881 0 0.7603327 -0.6495339 0 0.7603324 -0.6495342 0 0.6497815 -0.7601211 0 0.6497812 -0.7601212 0 0.5225482 -0.8526098 0 0.522548 -0.8526099 0 0.3824113 -0.9239923 0 0.3824116 -0.923992 0 0.2331808 -0.9724335 0 0.2331808 -0.9724334 0 0.07871752 -0.9968971 0 -0.07871752 -0.9968971 0 -0.2331808 -0.9724334 0 -0.2331808 -0.9724335 0 -0.3824116 -0.923992 0 -0.3824113 -0.9239923 0 -0.522548 -0.8526099 0 -0.5225482 -0.8526098 0 -0.6497812 -0.7601212 0 -0.6497815 -0.7601211 0 -0.7603324 -0.6495342 0 -0.7603327 -0.6495339 0 -0.8525854 -0.5225881 0 -0.8525848 -0.5225889 0 -0.9238501 -0.3827548 0 -0.972373 -0.2334331 0 -0.9723724 -0.2334352 0 -0.9968994 -0.07868826 0 -0.9968979 -0.07870644 0 -0.9968966 0.07872349 0 -0.9968979 0.07870531 0 -0.972429 0.2331994 0 -0.9724332 0.2331821 0 -0.9239923 0.3824111 0 -0.8526284 0.5225178 0 -0.8526121 0.5225444 0 -0.7601063 0.6497988 0 -0.7601153 0.6497882 0 -0.7604267 0.6494238 0 -0.7604267 0.6494238 0 -0.6495238 0.7603414 0 -0.6495148 0.7603491 0 -0.5226359 0.852556 0 -0.5226278 0.8525611 0 -0.3827394 0.9238564 0 -0.3827329 0.9238591 0 -0.2333946 0.9723821 0 -0.2333904 0.9723832 0 -0.07847732 0.9969159 0 -0.07847875 0.9969158 0 0.07849454 0.9969146 0 0.07849526 0.9969145 0 0.2334133 0.9723777 0 0.2334112 0.9723781 0 0.3826553 0.9238913 0 0.5225299 0.8526211 0 0.6494515 0.7604031 0 0.6494424 0.7604108 0 0.7604136 0.6494391 0 0.7604046 0.6494497 0 0.8526203 0.5225311 0 0.8526163 0.5225377 0 0.9238921 0.3826533 0 0.972377 0.2334157 0 0.9723792 0.2334071 0 0.9969152 0.07848703 0 0.9969137 0.07850521 0 0.9969151 -0.07848823 0 0.9969165 -0.07846999 0 0.9723839 -0.2333877 0 0.9723817 -0.2333963 0 0.9238585 -0.3827342 0 0.8525553 -0.5226371 0 0.8525594 -0.5226305 0 0.7603395 -0.649526 0 0.7603484 -0.6495154 0 0.6497929 -0.7601114 0 0.6494375 -0.7604151 0 0.6494375 -0.7604151 0 0.6494375 -0.7604151 0 0.5225299 -0.8526211 0 0.3829377 -0.9237742 0 0.3829377 -0.9237743 0 0.3829377 -0.9237742 0 0.3829377 -0.9237743 0 0.3829377 -0.9237742 0 0.3829377 -0.9237742 0 0.2331894 -0.9724314 0 0.2331915 -0.9724308 0 0.07871693 -0.996897 0 0.07814276 -0.9969422 0 0.07814276 -0.9969422 5.99408e-7 0.07814276 -0.9969422 0 -0.07870042 -0.9968984 0 -0.07822108 -0.9969361 0 -0.07822108 -0.9969361 0 -0.07822108 -0.9969361 0 -0.2331687 -0.9724363 0 -0.2331728 -0.9724354 0 -0.3824838 -0.9239622 0 -0.3828004 -0.9238312 0 -0.3828004 -0.9238311 0 -0.3828004 -0.9238311 0 -0.5226278 -0.8525611 0 -0.5226359 -0.852556 0 -0.6498652 -0.7600496 0 -0.6498742 -0.7600418 0 -0.6496191 -0.7602599 0 -0.6496191 -0.7602599 0 -0.7600502 -0.6498645 0 -0.7603525 -0.6495106 0 -0.7600411 -0.6498751 0 -0.8525512 -0.5226438 0 -0.8525675 -0.5226172 0 -0.9237387 -0.3830235 0 -0.9236653 -0.3832005 0 -0.9237387 -0.3830235 -6.67574e-7 -0.9236653 -0.3832006 0 -0.9237387 -0.3830235 0 -0.9237387 -0.3830235 0 -0.9724378 -0.2331627 0 -0.9724336 -0.2331799 0 -0.9990985 0.04245257 0 -0.9990987 0.0424478 0 -0.9990987 -0.04244786 0 -0.9990985 -0.04245269 0 -0.9919019 -0.1270067 0 -0.9919025 -0.127002 0 -0.9775542 -0.2106845 0 -0.9775562 -0.2106753 0 -0.9561628 -0.2928357 0 -0.9561655 -0.292827 0 -0.9278943 -0.3728433 0 -0.9278976 -0.3728351 0 -0.8929204 -0.4502147 0 -0.8929223 -0.4502109 0 -0.8515262 -0.5243122 0 -0.851524 -0.5243157 0 -0.8040061 -0.5946211 0 -0.8040038 -0.5946242 0 -0.7506753 -0.6606714 0 -0.75068 -0.6606661 0 -0.6919252 -0.7219693 0 -0.6282206 -0.7780352 0 -0.6282183 -0.7780371 0 -0.5599838 -0.8285036 0 -0.5599771 -0.8285081 0 -0.4876955 -0.8730138 0 -0.4119073 -0.9112258 0 -0.3331318 -0.9428803 0 -0.2519931 -0.9677292 0 -0.2519919 -0.9677293 0 -0.1689808 -0.9856194 0 -0.08482122 -0.9963962 0 -0.08482164 -0.9963963 0 0 -1 0 0.08482122 -0.9963962 0 0.08482146 -0.9963962 0 0.1689804 -0.9856195 0 0.1689812 -0.9856193 0 0.2519925 -0.9677292 0 0.3331326 -0.94288 0 0.3331318 -0.9428803 0 0.4119064 -0.9112262 0 0.4119073 -0.9112258 0 0.4876945 -0.8730144 0 0.5599827 -0.8285043 0 0.5599838 -0.8285036 0 0.6282183 -0.7780371 0 0.6282171 -0.7780381 0 0.6919252 -0.7219693 0 0.7506764 -0.6606701 0 0.7506777 -0.6606687 0 0.804005 -0.5946226 0 0.8040061 -0.5946211 0 0.8515256 -0.5243131 0 0.8515251 -0.524314 0 0.8929218 -0.4502118 0 0.9278964 -0.3728382 0 0.927896 -0.3728392 0 0.9561648 -0.2928292 0 0.9561645 -0.2928302 0 0.9775539 -0.2106856 0 0.9775542 -0.2106845 0 0.9919023 -0.1270032 0 0.9919027 -0.1270009 0 0.9990986 -0.04245024 0 0.9990987 0.04245018 0 0.9919026 0.1270011 0 0.9919024 0.1270034 0 0.9775542 0.2106845 0 0.9775539 0.2106856 0 0.9561647 0.2928298 0 0.9561649 0.2928287 0 0.9278956 0.3728402 0 0.927896 0.3728392 0 0.8929146 0.4502263 0 0.8515354 0.5242972 0 0.8515359 0.5242964 0 0.8040069 0.59462 0 0.8040058 0.5946215 0 0.7506767 0.6606698 0 0.7506755 0.6606712 0 0.6919264 0.7219682 0 0.6919264 0.7219681 0 0.6282167 0.7780386 0 0.6282179 0.7780376 0 0.5599833 0.8285039 0 0.5599822 0.8285047 0 0.4876951 0.8730142 0 0.411906 0.9112264 0 0.4119051 0.9112268 0 0.3331298 0.9428811 0 0.3331306 0.9428808 0 0.2519953 0.9677285 0 0.1689761 0.9856202 0 0.1689753 0.9856204 0 0.08482295 0.9963961 0 0.08482271 0.9963961 0 0 1 0 -0.08482313 0.9963961 0 -0.08482271 0.9963961 0 -0.1689757 0.9856203 0 -0.2519947 0.9677287 0 -0.2519959 0.9677283 0 -0.3331298 0.9428811 0 -0.411906 0.9112264 0 -0.4876961 0.8730136 0 -0.5599766 0.8285084 0 -0.5599833 0.8285039 0 -0.6282178 0.7780376 0 -0.6282202 0.7780357 0 -0.6919264 0.7219682 0 -0.6919264 0.7219681 0 -0.750679 0.6606671 0 -0.7506743 0.6606726 0 -0.8040046 0.5946231 0 -0.8040069 0.5946199 0 -0.8515343 0.524299 0 -0.8515365 0.5242955 0 -0.8929151 0.4502254 0 -0.8929131 0.4502292 0 -0.9278972 0.3728361 0 -0.9278939 0.3728444 0 -0.9561656 0.2928265 0 -0.9561629 0.2928353 0 -0.9775562 0.2106753 0 -0.9775542 0.2106845 0 -0.9919025 0.1270022 0 -0.9919019 0.127007 0 -0.9969173 -0.07846057 0 -0.9969173 0.07846057 0 -0.9723699 0.2334458 0 -0.9723704 0.2334437 0 -0.9238814 0.3826789 0 -0.9238814 0.3826791 0 -0.8526359 0.5225055 0 -0.8526363 0.5225048 0 -0.760411 0.6494423 0 -0.7604107 0.6494426 0 -0.6494427 0.7604106 0 -0.6494424 0.7604109 0 -0.5225054 0.852636 0 -0.5225051 0.8526362 0 -0.3826786 0.9238815 0 -0.3826791 0.9238814 0 -0.2334451 0.97237 0 -0.2334452 0.97237 0 -0.07846027 0.9969173 0 0.07846027 0.9969173 0 0.2334452 0.97237 0 0.2334451 0.97237 0 0.3826791 0.9238814 0 0.3826786 0.9238815 0 0.5225051 0.8526362 0 0.5225054 0.852636 0 0.6494424 0.7604109 0 0.6494427 0.7604106 0 0.7604107 0.6494426 0 0.760411 0.6494423 0 0.8526365 0.5225048 0 0.8526359 0.5225057 0 0.9238814 0.3826789 0 0.9238814 0.3826791 0 0.9723704 0.2334437 0 0.9723698 0.2334459 0 0.9969173 0.07846057 0 0.9969173 -0.07846057 0 0.9723699 -0.2334458 0 0.9723704 -0.2334437 0 0.9238814 -0.3826789 0 0.9238814 -0.3826791 0 0.8526359 -0.5225055 0 0.8526363 -0.5225048 0 0.760411 -0.6494423 0 0.7604107 -0.6494426 0 0.6494427 -0.7604106 0 0.6494424 -0.7604109 0 0.5225054 -0.852636 0 0.5225051 -0.8526362 0 0.3826786 -0.9238815 0 0.3826791 -0.9238814 0 0.2334451 -0.97237 0 0.2334452 -0.97237 0 0.07846027 -0.9969173 0 -0.07846027 -0.9969173 0 -0.2334452 -0.97237 0 -0.2334451 -0.97237 0 -0.3826791 -0.9238814 0 -0.3826786 -0.9238815 0 -0.5225051 -0.8526362 0 -0.5225054 -0.852636 0 -0.6494424 -0.7604109 0 -0.6494427 -0.7604106 0 -0.7604107 -0.6494426 0 -0.760411 -0.6494423 0 -0.8526365 -0.5225048 0 -0.8526359 -0.5225057 0 -0.9238814 -0.3826789 0 -0.9238814 -0.3826791 0 -0.9723704 -0.2334437 0 -0.9723698 -0.2334459 0 -0.996943 -0.07813268 0 -0.9969431 -0.07813268 0 -0.996943 -0.07813268 0 -0.9968965 -0.07872438 0 -0.9968965 0.07872438 0 -0.9969431 0.07813268 0 -0.996943 0.07813268 0 -0.996943 0.07813268 0 -0.9724311 0.2331905 0 -0.9723234 0.2336394 0 -0.9723234 0.2336394 4.24643e-7 -0.9723234 0.2336394 0 -0.9239903 0.3824163 0 -0.9239901 0.3824163 0 -0.8526186 0.5225338 0 -0.8526022 0.5225605 0 -0.7604308 0.649419 0 -0.7604309 0.649419 0 -0.7604308 0.649419 0 -0.7601284 0.6497728 0 -0.6495354 0.7603315 0 -0.6495264 0.7603392 0 -0.522593 0.8525823 0 -0.5225849 0.8525873 0 -0.3827577 0.9238488 0 -0.3827512 0.9238516 0 -0.2334371 0.9723719 0 -0.233433 0.972373 0 -0.07844185 0.9969188 0 -0.07844322 0.9969186 0 0.07845902 0.9969174 0 0.07845973 0.9969174 0 0.2334558 0.9723675 0 0.2334538 0.9723679 0 0.3826736 0.9238837 0 0.522487 0.8526473 0 0.6494631 0.7603932 0 0.649454 0.7604009 0 0.7604268 0.6494237 0 0.7604177 0.6494343 0 0.8526104 0.5225471 0 0.8526064 0.5225539 0 0.9238899 0.3826584 0 0.9238899 0.3826586 0 0.9723792 0.2334069 0 0.9723812 0.2333983 0 0.9969151 0.07848787 0 0.9969137 0.07850605 0 0.9969137 -0.07850605 0 0.9969151 -0.07848787 0 0.9723813 -0.2333982 0 0.9723792 -0.233407 0 0.9238899 -0.3826584 0 0.9238899 -0.3826586 0 0.8526064 -0.5225538 0 0.8526104 -0.5225473 0 0.7604177 -0.6494343 0 0.7604268 -0.6494237 0 0.649454 -0.7604009 0 0.6494631 -0.7603932 0 0.522487 -0.8526473 0 0.3826736 -0.9238837 0 0.2334538 -0.9723679 0 0.2334558 -0.9723675 0 0.07845973 -0.9969174 0 0.07845902 -0.9969174 0 -0.07844322 -0.9969186 0 -0.07844185 -0.9969188 0 -0.233433 -0.972373 0 -0.2334371 -0.9723719 0 -0.3827512 -0.9238516 0 -0.3827577 -0.9238488 0 -0.5225849 -0.8525873 0 -0.522593 -0.8525823 0 -0.6495264 -0.7603392 0 -0.6495354 -0.7603315 0 -0.7601284 -0.6497728 0 -0.7604309 -0.649419 0 -0.7604308 -0.649419 0 -0.7604308 -0.649419 0 -0.8526023 -0.5225604 0 -0.8526186 -0.522534 0 -0.9239903 -0.3824163 0 -0.9239901 -0.3824163 0 -0.9724352 -0.2331732 0 -0.9724311 -0.2331906 0 -1.59676e-6 0 1 3.25149e-6 0 1 2.03405e-6 0 1 -5.41965e-7 0 1 -6.22924e-7 0 1 1.59583e-6 0 1 -1.25422e-6 0 1 4.02375e-6 0 1 -4.02382e-6 0 1 1.2544e-6 0 1 -3.13529e-6 0 1 1.65413e-6 0 1 -2.15674e-6 0 1 2.95788e-6 0 1 -1.54657e-6 0 1 3.70404e-6 0 1 -2.5484e-6 0 1 8.80774e-7 0 1 1.06184e-6 0 1 5.33463e-7 0 1 -1.16119e-6 0 1 2.96582e-6 0 1 -3.18029e-7 0 1 4.63813e-7 0 1 -4.81288e-7 0 1 1.53198e-6 0 1 -3.30942e-6 0 1 3.33469e-6 0 1 -3.41139e-6 0 1 2.41186e-7 0 1 -1.8697e-6 0 1 8.26988e-7 0 1 -1.50291e-6 0 1 1.15512e-6 0 1 -1.11312e-6 0 1 1.4879e-6 0 1 -1.45389e-6 0 1 -7.19001e-7 0 1 -1.78636e-6 0 1 3.55646e-7 0 1 1.48761e-6 0 1 -1.76978e-6 0 1 1.49189e-6 0 1 -1.40921e-6 0 1 1.49738e-6 0 1 -1.5062e-6 0 1 1.76388e-6 0 1 3.5794e-7 0 1 1.10892e-6 0 1 -7.84224e-7 0 1 7.84244e-7 0 1 -1.10891e-6 0 1 -3.57945e-7 0 1 -1.76384e-6 0 1 1.50618e-6 0 1 -1.49739e-6 0 1 1.40924e-6 0 1 1.76976e-6 0 1 -1.48761e-6 0 1 -3.55638e-7 0 1 1.78641e-6 0 1 7.19005e-7 0 1 -1.48217e-6 0 1 1.45384e-6 0 1 1.11313e-6 0 1 -1.15539e-6 0 1 1.503e-6 0 1 -8.26728e-7 0 1 -2.41186e-7 0 1 -1.86971e-6 0 1 3.41033e-6 0 1 -3.33486e-6 0 1 3.30944e-6 0 1 -1.532e-6 0 1 4.81405e-7 0 1 -4.63817e-7 0 1 3.18018e-7 0 1 -2.96587e-6 0 1 1.16122e-6 0 1 -5.3345e-7 0 1 -1.06183e-6 0 1 -8.80808e-7 0 1 2.54836e-6 0 1 -3.70393e-6 0 1 1.54657e-6 0 1 -2.9578e-6 0 1 2.15681e-6 0 1 -1.65413e-6 0 1 3.13536e-6 0 1 -1.98393e-6 0 1 -5.72994e-6 0 1 6.40125e-6 0 1 9.77655e-7 0 1 -7.78321e-6 0 1 3.20261e-6 0 1 -1.03748e-5 0 1 4.81563e-6 0 1 -5.29248e-6 0 1 6.33804e-7 0 1 -1.59584e-6 0 1 6.22848e-7 0 1 5.41914e-7 0 1 -2.03388e-6 0 1 -3.25148e-6 0 1 1.59583e-6 0 1 1.60949e-5 0 1 -4.81169e-6 0 1 1.03663e-5 0 1 -3.20297e-6 0 1 7.78409e-6 0 1 -9.78538e-7 0 1 -6.40703e-6 0 1 5.72854e-6 0 1 1.9835e-6 0 1 -1.61535e-5 0 1 2.16788e-6 0 1 -6.38699e-6 0 1 6.38329e-6 0 1 -2.16786e-6 0 1 -4.11477e-7 0 1 1.63765e-6 0 1 5.34978e-7 0 1 1.07066e-6 0 1 5.37865e-7 0 1 1.64218e-6 0 1 -1.07126e-6 0 1 1.64611e-6 0 1 -1.87165e-6 0 1 1.64532e-6 0 1 5.36551e-7 0 1 1.07426e-6 0 1 -1.64489e-6 0 1 -8.02332e-7 0 1 1.6465e-6 0 1 5.35344e-7 0 1 -1.6433e-6 0 1 2.15393e-6 0 1 -1.63517e-6 0 1 4.1064e-7 0 1 -5.35546e-7 0 1 5.36774e-7 0 1 -1.63517e-6 0 1 -1.6433e-6 0 1 -1.64023e-6 0 1 1.64611e-6 0 1 -8.23036e-7 0 1 8.18823e-7 0 1 -2.05172e-7 0 1 -5.35557e-7 0 1 -1.63514e-6 0 1 2.15396e-6 0 1 -1.64327e-6 0 1 5.35342e-7 0 1 1.64655e-6 0 1 -8.02342e-7 0 1 1.07427e-6 0 1 -1.64025e-6 0 1 5.36403e-7 0 1 -1.87167e-6 0 1 1.64625e-6 0 1 -1.07161e-6 0 1 5.38008e-7 0 1 1.07031e-6 0 1 -8.23305e-7 0 1 5.35012e-7 0 1 8.1868e-7 0 1 -2.05138e-7 0 1 -4.11502e-7 0 1 1.63736e-6 0 1 1.64188e-6 0 1 1.64625e-6 0 1 1.6457e-6 0 1 -1.64491e-6 0 1 1.64655e-6 0 1 -1.63514e-6 0 1 4.10652e-7 0 1 5.36755e-7 0 1 0.9948694 0.1011681 0 0.9948695 0.1011671 0 0.9948645 -0.1012165 0 0.9948644 -0.1012175 0 0.9542031 -0.2991599 0 0.8742155 -0.4855383 0 0.8742151 -0.4855391 0 0.7585402 -0.6516263 0 0.7586026 -0.6515536 0 0.7585402 -0.6516263 0 0.7586026 -0.6515536 0 0.7585402 -0.6516263 2.51863e-7 0.7585402 -0.6516263 0 0.6119466 -0.7908992 0 0.6119463 -0.7908993 0 0.4403316 -0.8978353 0 0.4403317 -0.8978353 0 0.4403316 -0.8978353 0 0.4401593 -0.8979198 0 0.4403313 -0.8978354 2.77891e-7 0.4403313 -0.8978354 0 0.2506688 -0.968073 0 0.2506688 -0.968073 0 0.2506688 -0.968073 0 0.2504367 -0.968133 0 0.2504367 -0.968133 0 0.2504367 -0.968133 0 0.05053764 -0.9987223 0 0.05053764 -0.9987223 0 0.05053764 -0.9987223 0 0.05053764 -0.9987223 0 0.05053764 -0.9987223 0 0.05053764 -0.9987223 0 -0.1513574 -0.9884791 0 -0.1513574 -0.9884791 0 -0.1513574 -0.9884791 -2.4551e-7 -0.1517365 -0.988421 0 -0.1517365 -0.988421 0 -0.1517365 -0.988421 0 -0.3469808 -0.9378723 0 -0.3472954 -0.9377558 0 -0.3472954 -0.9377559 0 -0.3472954 -0.9377559 0 -0.5288637 -0.8487069 0 -0.5288639 -0.8487067 0 -0.6889581 -0.7248013 0 -0.8206515 -0.5714291 0 -0.8206512 -0.5714294 0 -0.9188135 -0.394692 0 -0.9188135 -0.394692 0 -0.9188135 -0.394692 -1.39823e-7 -0.9190023 -0.3942524 0 -0.9795311 -0.2012935 0 -1 0 0 -0.9795311 0.2012935 0 -0.9189565 0.3943589 0 -0.9189569 0.3943581 0 -0.8207793 0.5712456 0 -0.8207796 0.5712452 0 -0.6889581 0.7248013 0 -0.5289291 0.8486661 0 -0.5289288 0.8486662 0 -0.3473388 0.9377397 0 -0.347339 0.9377397 0 -0.1514294 0.9884681 0 -0.1514294 0.9884681 0 0.05070745 0.9987136 0 0.2505713 0.9680982 0 0.2505714 0.9680982 0 0.4404457 0.8977792 0 0.440446 0.8977792 0 0.6120784 0.7907971 0 0.6120786 0.7907969 0 0.7587838 0.6513426 0 0.8743324 0.4853277 0 0.8743328 0.485327 0 0.954141 0.2993579 0 0.9948748 0.1011144 0 0.9948748 -0.1011144 0 0.9541293 -0.299395 0 0.9541247 -0.2994097 0 0.8743348 -0.4853236 0 0.8743415 -0.4853112 0 0.7587482 -0.6513841 0 0.7587402 -0.6513934 0 0.6121145 -0.7907692 0 0.6121223 -0.7907631 0 0.4403919 -0.8978058 0 0.2506461 -0.9680788 0 0.25065 -0.9680778 0 0.05066126 -0.9987159 0 0.05066287 -0.9987159 0 -0.1514237 -0.988469 0 -0.3472151 -0.9377856 0 -0.3472203 -0.9377836 0 -0.5287654 -0.8487682 0 -0.6888504 -0.7249036 0 -0.6887462 -0.7250026 0 -0.6888504 -0.7249036 0 -0.6887462 -0.7250026 0 -0.6888504 -0.7249036 0 -0.6888504 -0.7249036 0 -0.8207385 -0.5713042 0 -0.9189472 -0.3943805 0 -0.9189414 -0.3943941 0 -0.9795421 -0.2012394 0 -0.9795614 -0.2011455 0 -0.9795421 -0.2012394 0 -0.979481 -0.2015365 0 -0.979481 -0.2015365 0 -0.979481 -0.2015366 0 -0.979481 0.2015366 0 -0.979481 0.2015365 0 -0.979481 0.2015365 0 -0.9795614 0.2011455 0 -0.9795421 0.2012394 0 -0.9795421 0.2012394 0 -0.9189414 0.3943941 0 -0.9189472 0.3943805 0 -0.8207385 0.5713042 0 -0.6888504 0.7249036 0 -0.6887462 0.7250026 0 -0.6888504 0.7249036 0 -0.6887462 0.7250026 0 -0.6888504 0.7249036 0 -0.6888504 0.7249036 0 -0.5287654 0.8487682 0 -0.3472203 0.9377836 0 -0.3472151 0.9377856 0 -0.1514237 0.988469 0 0.05066287 0.9987159 0 0.05066126 0.9987159 0 0.25065 0.9680778 0 0.2506461 0.9680788 0 0.4403919 0.8978058 0 0.6121223 0.7907631 0 0.6121145 0.7907692 0 0.7587402 0.6513934 0 0.7587482 0.6513841 0 0.8743415 0.4853112 0 0.8743348 0.4853236 0 0.9541247 0.2994097 0 0.9541293 0.299395 0 0.9948692 0.1011691 0 0.9948694 0.1011681 0 0.9948694 -0.1011681 0 0.9948692 -0.1011691 0 0.9541399 -0.2993612 0 0.874347 -0.4853012 0 0.8743466 -0.485302 0 0.7587534 -0.651378 0 0.6121099 -0.7907728 0 0.6121096 -0.7907729 0 0.4403963 -0.8978036 0 0.440396 -0.8978037 0 0.250651 -0.9680776 0 0.2506508 -0.9680776 0 0.05064821 -0.9987165 0 -0.1514216 -0.9884693 0 -0.1514216 -0.9884694 0 -0.3473109 -0.9377501 0 -0.3473107 -0.9377502 0 -0.5289607 -0.8486464 0 -0.528961 -0.8486462 0 -0.6889691 -0.7247908 0 -0.8207639 -0.5712676 0 -0.8207637 -0.571268 0 -0.9189549 -0.3943627 0 -0.9189546 -0.3943635 0 -0.9795302 -0.2012973 0 -0.9795302 0.2012973 0 -0.9189546 0.3943635 0 -0.9189549 0.3943627 0 -0.8207637 0.571268 0 -0.8207639 0.5712676 0 -0.6889691 0.7247908 0 -0.528961 0.8486462 0 -0.5289607 0.8486464 0 -0.3473107 0.9377502 0 -0.3473109 0.9377501 0 -0.1514216 0.9884694 0 -0.1514216 0.9884693 0 0.05064821 0.9987165 0 0.2506508 0.9680776 0 0.250651 0.9680776 0 0.440396 0.8978037 0 0.4403963 0.8978036 0 0.6121096 0.7907729 0 0.6121099 0.7907728 0 0.7587534 0.651378 0 0.8743466 0.485302 0 0.874347 0.4853012 0 0.9541399 0.2993612 0 0.994875 0.1011134 0 0.9948699 -0.1011627 0 0.9541924 -0.2991937 0 0.9541879 -0.2992084 0 0.8744823 -0.4850576 0 0.8744357 -0.4851414 0 0.8744823 -0.4850576 0 0.8744891 -0.4850453 0 0.8744891 -0.4850453 0 0.8744891 -0.4850453 0 0.7589097 -0.651196 0 0.7589017 -0.6512052 0 0.6119512 -0.7908956 0 0.6124896 -0.7904787 0 0.6124897 -0.7904787 0 0.6124897 -0.7904787 0 0.4407576 -0.8976262 0 0.2505713 -0.9680982 0 0.2505712 -0.9680982 0 0.2505713 -0.9680982 0 0.2504359 -0.9681332 0 0.2504359 -0.9681332 0 0.2504359 -0.9681332 0 0.05083817 -0.998707 0 0.05083817 -0.998707 0 0.05083817 -0.998707 0 0.05055254 -0.9987215 0 0.05055254 -0.9987215 0 0.05055254 -0.9987215 0 -0.1513595 -0.9884788 0 -0.1513595 -0.9884788 0 -0.1513595 -0.9884788 0 -0.1513595 -0.9884788 0 -0.1513595 -0.9884788 0 -0.1513595 -0.9884788 0 -0.3473348 -0.9377412 0 -0.3473347 -0.9377412 0 -0.3473348 -0.9377412 0 -0.3468904 -0.9379057 0 -0.5286683 -0.8488286 0 -0.6890826 -0.7246828 0 -0.820626 -0.5714657 0 -0.918995 -0.3942694 0 -0.9189891 -0.3942829 0 -0.9795236 -0.2013296 0 -0.9795237 -0.2013296 0 -0.9795236 -0.2013296 0 -0.979559 -0.2011572 0 -0.979559 -0.2011572 0 -0.979559 -0.2011572 0 -0.979559 0.2011572 0 -0.979559 0.2011572 0 -0.979559 0.2011572 0 -0.9795237 0.2013296 0 -0.9795236 0.2013296 0 -0.9795236 0.2013296 0 -0.9189434 0.3943895 0 -0.9189493 0.3943759 0 -0.8207541 0.5712818 0 -0.6890826 0.7246828 0 -0.5287334 0.848788 0 -0.3472484 0.9377732 0 -0.3472433 0.9377752 0 -0.1514315 0.9884678 0 0.05072218 0.9987129 0 0.05072051 0.998713 0 0.2505705 0.9680984 0 0.2505666 0.9680994 0 0.4404417 0.8977813 0 0.6120911 0.7907874 0 0.6120833 0.7907934 0 0.7587706 0.651358 0 0.7587786 0.6513488 0 0.8743273 0.485337 0 0.8743205 0.4853492 0 0.9541258 0.2994064 0 0.9541303 0.2993918 0 1 0 0 0 0 -1</float_array>
          <technique_common>
            <accessor source="#shape0-mesh-normals-array" count="899" stride="3">
              <param name="X" type="float"/>
              <param name="Y" type="float"/>
              <param name="Z" type="float"/>
            </accessor>
          </technique_common>
        </source>
        <vertices id="shape0-mesh-vertices">
          <input semantic="POSITION" source="#shape0-mesh-positions"/>
        </vertices>
        <triangles material="BLACK-material" count="1460">
          <input semantic="VERTEX" source="#shape0-mesh-vertices" offset="0"/>
          <input semantic="NORMAL" source="#shape0-mesh-normals" offset="1"/>
          <p>0 0 1 0 2 0 2 0 1 0 3 0 2 0 3 0 4 0 4 0 3 0 5 0 4 0 5 0 6 0 6 0 5 0 7 0 6 0 7 0 8 0 8 0 7 0 9 0 8 0 9 0 10 0 10 0 9 0 11 0 10 0 11 0 12 0 12 0 11 0 13 0 12 0 13 0 14 0 14 0 13 0 15 0 14 0 15 0 16 0 16 0 15 0 17 0 16 0 17 0 18 0 18 0 17 0 19 0 18 0 19 0 20 0 20 0 19 0 21 0 20 0 21 0 22 0 22 0 21 0 23 0 22 0 23 0 24 0 24 0 23 0 25 0 24 0 25 0 26 0 26 0 25 0 27 0 26 0 27 0 28 0 28 0 27 0 29 0 28 0 29 0 30 0 30 0 29 0 31 0 30 0 31 0 32 0 32 0 31 0 33 0 32 0 33 0 34 0 34 0 33 0 35 0 34 0 35 0 36 0 36 0 35 0 37 0 36 0 37 0 38 0 38 0 37 0 39 0 1 0 0 0 40 0 40 0 0 0 41 0 40 0 41 0 42 0 42 0 41 0 43 0 42 0 43 0 44 0 44 0 43 0 45 0 44 0 45 0 46 0 46 0 45 0 47 0 46 0 47 0 48 0 48 0 47 0 49 0 48 0 49 0 50 0 50 0 49 0 51 0 50 0 51 0 52 0 52 0 51 0 53 0 52 0 53 0 54 0 54 0 53 0 55 0 54 0 55 0 56 0 56 0 55 0 57 0 56 0 57 0 58 0 58 0 57 0 59 0 58 0 59 0 60 0 60 0 59 0 61 0 60 0 61 0 62 0 62 0 61 0 63 0 62 0 63 0 64 0 64 0 63 0 65 0 64 0 65 0 66 0 66 0 65 0 67 0 66 0 67 0 68 0 68 0 67 0 69 0 68 0 69 0 70 0 70 0 69 0 71 0 70 0 71 0 72 0 72 0 71 0 73 0 74 1 75 1 76 1 76 1 75 1 77 1 76 2 77 2 78 2 78 2 77 2 79 2 78 3 79 3 80 3 80 4 79 4 81 4 80 5 81 5 82 5 82 5 81 5 83 5 82 6 83 6 84 6 84 7 83 7 85 7 84 8 85 8 86 8 86 9 85 9 87 9 86 10 87 10 88 10 88 11 87 11 89 11 88 12 89 12 90 12 90 13 89 13 91 13 90 14 91 14 92 14 92 15 91 15 93 15 92 16 93 16 94 16 94 17 93 17 95 17 94 18 95 18 96 18 96 18 95 18 97 18 96 19 97 19 98 19 98 19 97 19 99 19 98 20 99 20 100 20 100 21 99 21 101 21 100 22 101 22 102 22 102 23 101 23 103 23 102 24 103 24 104 24 104 25 103 25 105 25 104 26 105 26 106 26 106 27 105 27 107 27 106 28 107 28 108 28 108 29 107 29 109 29 108 30 109 30 110 30 110 31 109 31 111 31 110 32 111 32 112 32 112 32 111 32 113 32 112 33 113 33 114 33 114 34 113 34 115 34 114 35 115 35 116 35 116 35 115 35 117 35 116 36 117 36 118 36 118 36 117 36 119 36 118 37 119 37 120 37 120 38 119 38 121 38 120 39 121 39 122 39 122 39 121 39 123 39 122 40 123 40 124 40 124 41 123 41 125 41 124 42 125 42 126 42 126 43 125 43 127 43 126 44 127 44 128 44 128 45 127 45 129 45 128 46 129 46 130 46 130 47 129 47 131 47 130 48 131 48 132 48 132 49 131 49 133 49 132 50 133 50 134 50 134 51 133 51 135 51 134 52 135 52 136 52 136 52 135 52 137 52 136 53 137 53 138 53 138 53 137 53 139 53 138 54 139 54 140 54 140 55 139 55 141 55 140 56 141 56 142 56 142 57 141 57 143 57 142 58 143 58 144 58 144 59 143 59 145 59 144 60 145 60 146 60 146 61 145 61 147 61 146 62 147 62 148 62 148 63 147 63 149 63 148 64 149 64 150 64 150 65 149 65 151 65 150 66 151 66 152 66 152 66 151 66 153 66 152 67 153 67 74 67 74 68 153 68 75 68 154 69 155 69 156 69 156 70 155 70 157 70 156 71 157 71 158 71 158 72 157 72 159 72 158 73 159 73 160 73 160 74 159 74 161 74 160 75 161 75 162 75 162 75 161 75 163 75 162 76 163 76 164 76 164 77 163 77 165 77 164 78 165 78 166 78 166 79 165 80 167 81 166 82 167 82 168 82 168 83 167 83 169 83 168 84 169 84 170 84 170 85 169 85 171 85 170 86 171 86 172 86 172 87 171 87 173 87 172 88 173 88 174 88 174 89 173 89 175 89 174 90 175 90 176 90 176 91 175 91 177 91 176 92 177 92 178 92 178 93 177 93 179 93 178 94 179 94 180 94 180 95 179 95 181 95 180 96 181 96 182 96 182 96 181 96 183 96 182 97 183 97 184 97 184 97 183 97 185 97 184 98 185 98 186 98 186 99 185 99 187 99 186 100 187 100 188 100 188 101 187 101 189 101 188 102 189 102 190 102 190 103 189 103 191 103 190 104 191 104 192 104 192 104 191 104 193 104 192 105 193 105 194 105 194 106 193 106 195 106 194 107 195 107 196 107 196 108 195 108 197 108 196 109 197 109 198 109 198 110 197 110 199 110 198 111 199 111 200 111 200 112 199 112 201 112 200 113 201 113 202 113 202 113 201 113 203 113 202 114 203 114 204 114 204 115 203 115 205 115 204 116 205 116 206 116 206 117 205 117 207 117 206 118 207 118 208 118 208 119 207 120 209 121 208 122 209 122 210 122 210 122 209 122 211 122 210 123 211 124 212 125 212 126 211 127 213 128 212 129 213 129 214 129 214 130 213 130 215 130 214 131 215 131 216 131 216 132 215 133 217 134 216 135 217 135 218 135 218 136 217 137 219 138 218 139 219 139 220 139 220 140 219 140 221 140 220 141 221 141 222 141 222 142 221 143 223 144 222 145 223 145 224 145 224 146 223 146 225 146 224 147 225 147 226 147 226 148 225 149 227 150 226 151 227 151 228 151 228 152 227 153 229 153 228 154 229 154 230 154 230 155 229 155 231 155 230 156 231 157 232 158 232 159 231 160 233 161 232 162 233 162 154 162 154 163 233 163 155 163 4 164 234 164 2 164 2 165 234 165 235 165 2 166 235 166 0 166 0 167 235 167 236 167 0 168 236 168 41 168 41 169 236 169 237 169 41 170 237 170 43 170 43 171 237 171 238 171 43 172 238 172 45 172 45 173 238 173 239 173 45 174 239 174 47 174 47 175 239 175 240 175 47 176 240 176 49 176 49 177 240 177 241 177 49 178 241 178 51 178 51 179 241 179 242 179 51 180 242 180 53 180 53 181 242 181 243 181 53 182 243 182 55 182 55 183 243 183 244 183 55 184 244 184 57 184 57 184 244 184 245 184 57 185 245 185 59 185 59 186 245 186 246 186 59 187 246 187 61 187 61 188 246 188 247 188 61 189 247 189 63 189 63 189 247 189 248 189 63 190 248 190 65 190 65 190 248 190 249 190 65 191 249 191 67 191 67 191 249 191 250 191 67 192 250 192 69 192 69 193 250 193 251 193 69 194 251 194 71 194 71 194 251 194 252 194 71 195 252 195 73 195 73 196 252 196 253 196 73 197 253 197 72 197 72 197 253 197 254 197 72 198 254 198 70 198 70 199 254 199 255 199 70 200 255 200 68 200 68 201 255 201 256 201 68 202 256 202 66 202 66 202 256 202 257 202 66 203 257 203 64 203 64 204 257 204 258 204 64 205 258 205 62 205 62 206 258 206 259 206 62 207 259 207 60 207 60 207 259 207 260 207 60 208 260 208 58 208 58 209 260 209 261 209 58 210 261 210 56 210 56 211 261 211 262 211 56 212 262 212 54 212 54 212 262 212 263 212 54 213 263 213 52 213 52 214 263 214 264 214 52 215 264 215 50 215 50 216 264 216 265 216 50 217 265 217 48 217 48 218 265 218 266 218 48 219 266 219 46 219 46 219 266 219 267 219 46 220 267 220 44 220 44 221 267 221 268 221 44 222 268 222 42 222 42 223 268 223 269 223 42 224 269 224 40 224 40 225 269 225 270 225 40 226 270 226 1 226 1 227 270 227 271 227 1 228 271 228 3 228 3 228 271 228 272 228 3 229 272 229 5 229 5 229 272 229 273 229 5 230 273 230 7 230 7 231 273 231 274 231 7 232 274 232 9 232 9 233 274 233 275 233 9 234 275 234 11 234 11 235 275 235 276 235 11 236 276 236 13 236 13 237 276 237 277 237 13 238 277 238 15 238 15 238 277 238 278 238 15 239 278 239 17 239 17 240 278 240 279 240 17 241 279 241 19 241 19 242 279 242 280 242 19 243 280 243 21 243 21 244 280 244 281 244 21 245 281 245 23 245 23 246 281 246 282 246 23 247 282 247 25 247 25 248 282 248 283 248 25 249 283 249 27 249 27 250 283 250 284 250 27 251 284 251 29 251 29 251 284 251 285 251 29 252 285 252 31 252 31 253 285 253 286 253 31 254 286 254 33 254 33 255 286 255 287 255 33 256 287 256 35 256 35 256 287 256 288 256 35 257 288 257 37 257 37 258 288 258 289 258 37 259 289 259 39 259 39 260 289 260 290 260 39 261 290 261 38 261 38 261 290 261 291 261 38 262 291 262 36 262 36 263 291 263 292 263 36 264 292 264 34 264 34 264 292 264 293 264 34 265 293 265 32 265 32 266 293 266 294 266 32 267 294 267 30 267 30 267 294 267 295 267 30 268 295 268 28 268 28 268 295 268 296 268 28 269 296 269 26 269 26 269 296 269 297 269 26 270 297 270 24 270 24 271 297 271 298 271 24 272 298 272 22 272 22 273 298 273 299 273 22 274 299 274 20 274 20 275 299 275 300 275 20 276 300 276 18 276 18 277 300 277 301 277 18 278 301 278 16 278 16 279 301 279 302 279 16 280 302 280 14 280 14 281 302 281 303 281 14 282 303 282 12 282 12 283 303 283 304 283 12 284 304 284 10 284 10 285 304 285 305 285 10 286 305 286 8 286 8 287 305 287 306 287 8 288 306 288 6 288 6 289 306 289 307 289 6 290 307 290 4 290 4 291 307 291 234 291 308 292 309 292 310 292 310 292 309 292 311 292 310 293 311 293 312 293 312 293 311 293 313 293 312 294 313 294 314 294 314 295 313 295 315 295 314 296 315 296 316 296 316 297 315 297 317 297 316 298 317 298 318 298 318 299 317 299 319 299 318 300 319 300 320 300 320 301 319 301 321 301 320 302 321 302 322 302 322 303 321 303 323 303 322 304 323 304 324 304 324 305 323 305 325 305 324 306 325 306 326 306 326 307 325 307 327 307 326 308 327 308 328 308 328 309 327 309 329 309 328 310 329 310 330 310 330 310 329 310 331 310 330 311 331 311 332 311 332 311 331 311 333 311 332 312 333 312 334 312 334 313 333 313 335 313 334 314 335 314 336 314 336 315 335 315 337 315 336 316 337 316 338 316 338 317 337 317 339 317 338 318 339 318 340 318 340 319 339 319 341 319 340 320 341 320 342 320 342 321 341 321 343 321 342 322 343 322 344 322 344 323 343 323 345 323 344 324 345 324 346 324 346 325 345 325 347 325 346 326 347 326 348 326 348 327 347 327 349 327 348 328 349 328 350 328 350 328 349 328 351 328 350 329 351 329 352 329 352 329 351 329 353 329 352 330 353 330 354 330 354 331 353 331 355 331 354 332 355 332 356 332 356 333 355 333 357 333 356 334 357 334 358 334 358 335 357 335 359 335 358 336 359 336 360 336 360 337 359 337 361 337 360 338 361 338 362 338 362 339 361 339 363 339 362 340 363 340 364 340 364 341 363 341 365 341 364 342 365 342 366 342 366 343 365 343 367 343 366 344 367 344 368 344 368 345 367 345 369 345 368 346 369 346 370 346 370 346 369 346 371 346 370 347 371 347 372 347 372 347 371 347 373 347 372 348 373 348 374 348 374 349 373 349 375 349 374 350 375 350 376 350 376 351 375 351 377 351 376 352 377 352 378 352 378 353 377 353 379 353 378 354 379 354 380 354 380 355 379 355 381 355 380 356 381 356 382 356 382 357 381 357 383 357 382 358 383 358 384 358 384 359 383 359 385 359 384 360 385 360 386 360 386 361 385 361 387 361 386 362 387 362 308 362 308 363 387 363 309 363 388 364 389 365 390 366 390 367 389 367 391 367 390 368 391 368 392 368 392 369 391 370 393 371 392 372 393 372 394 372 394 373 393 374 395 375 394 376 395 376 396 376 396 377 395 377 397 377 396 378 397 378 398 378 398 379 397 379 399 379 398 380 399 381 400 382 400 383 399 383 401 383 400 384 401 384 402 384 402 385 401 385 403 385 402 386 403 386 404 386 404 387 403 387 405 387 404 388 405 388 406 388 406 389 405 389 407 389 406 390 407 390 408 390 408 391 407 391 409 391 408 392 409 392 410 392 410 393 409 393 411 393 410 394 411 394 412 394 412 395 411 395 413 395 412 396 413 396 414 396 414 397 413 397 415 397 414 398 415 398 416 398 416 398 415 398 417 398 416 399 417 399 418 399 418 399 417 399 419 399 418 400 419 400 420 400 420 401 419 401 421 401 420 402 421 402 422 402 422 403 421 403 423 403 422 404 423 404 424 404 424 405 423 405 425 405 424 406 425 406 426 406 426 407 425 407 427 407 426 408 427 408 428 408 428 409 427 409 429 409 428 410 429 410 430 410 430 411 429 411 431 411 430 412 431 412 432 412 432 413 431 413 433 413 432 414 433 414 434 414 434 415 433 415 435 415 434 416 435 416 436 416 436 417 435 417 437 417 436 418 437 418 438 418 438 419 437 419 439 419 438 420 439 420 440 420 440 421 439 421 441 421 440 422 441 422 442 422 442 423 441 423 443 423 442 424 443 424 444 424 444 424 443 424 445 424 444 425 445 425 446 425 446 425 445 425 447 425 446 426 447 426 448 426 448 427 447 427 449 427 448 428 449 428 450 428 450 429 449 429 451 429 450 430 451 430 452 430 452 431 451 431 453 431 452 432 453 432 454 432 454 433 453 433 455 433 454 434 455 434 456 434 456 435 455 435 457 435 456 436 457 436 458 436 458 437 457 437 459 437 458 438 459 438 460 438 460 439 459 439 461 439 460 440 461 440 462 440 462 441 461 442 463 443 462 444 463 444 464 444 464 445 463 445 465 445 464 446 465 446 466 446 466 447 465 447 467 447 466 448 467 448 388 448 388 449 467 449 389 449 388 0 390 0 468 0 468 0 390 0 392 0 468 450 392 450 394 450 394 0 396 0 468 0 468 451 396 451 398 451 468 0 398 0 400 0 400 452 402 452 468 452 468 453 402 453 404 453 468 454 404 454 406 454 406 455 408 455 468 455 468 456 408 456 410 456 468 457 410 457 412 457 414 0 326 0 412 0 412 0 326 0 328 0 412 0 328 0 468 0 468 0 328 0 469 0 469 458 328 458 330 458 469 459 330 459 332 459 326 0 414 0 324 0 324 0 414 0 416 0 324 0 416 0 322 0 322 0 416 0 418 0 322 0 418 0 320 0 320 0 418 0 420 0 320 0 420 0 318 0 318 0 420 0 422 0 318 0 422 0 316 0 316 0 422 0 424 0 316 0 424 0 290 0 290 0 424 0 291 0 291 0 424 0 292 0 292 460 424 460 426 460 292 461 426 461 293 461 293 462 426 462 428 462 293 0 428 0 294 0 294 463 428 463 430 463 294 464 430 464 295 464 295 0 430 0 432 0 295 0 432 0 296 0 296 465 432 465 434 465 296 0 434 0 297 0 297 466 434 466 436 466 297 0 436 0 298 0 298 467 436 467 438 467 298 0 438 0 299 0 299 468 438 468 440 468 299 0 440 0 300 0 300 469 440 469 442 469 300 0 442 0 301 0 301 470 442 470 444 470 301 0 444 0 302 0 302 471 444 471 446 471 302 0 446 0 303 0 303 472 446 472 448 472 303 0 448 0 304 0 304 473 448 473 450 473 304 0 450 0 305 0 305 474 450 474 452 474 305 475 452 475 306 475 306 476 452 476 307 476 307 477 452 477 454 477 307 0 454 0 234 0 234 478 454 478 456 478 234 0 456 0 235 0 235 479 456 479 170 479 235 480 170 480 236 480 236 481 170 481 172 481 236 0 172 0 237 0 237 482 172 482 174 482 237 0 174 0 238 0 238 0 174 0 239 0 239 483 174 483 176 483 239 0 176 0 240 0 240 484 176 484 178 484 240 485 178 485 241 485 241 486 178 486 180 486 241 0 180 0 242 0 242 487 180 487 182 487 242 0 182 0 243 0 243 488 182 488 184 488 243 0 184 0 244 0 244 489 184 489 186 489 244 490 186 490 245 490 245 491 186 491 188 491 245 492 188 492 246 492 246 493 188 493 190 493 246 494 190 494 247 494 247 0 190 0 192 0 247 495 192 495 248 495 248 496 192 496 194 496 248 0 194 0 249 0 249 497 194 497 196 497 249 0 196 0 250 0 250 498 196 498 198 498 250 0 198 0 251 0 251 499 198 499 200 499 251 0 200 0 252 0 252 0 200 0 202 0 252 0 202 0 253 0 253 0 202 0 150 0 253 0 150 0 254 0 254 0 150 0 255 0 255 0 150 0 152 0 255 0 152 0 256 0 256 500 152 500 74 500 256 0 74 0 257 0 257 501 74 501 76 501 257 0 76 0 258 0 258 502 76 502 78 502 258 0 78 0 259 0 259 503 78 503 80 503 259 504 80 504 260 504 260 0 80 0 82 0 260 505 82 505 261 505 261 506 82 506 84 506 261 0 84 0 262 0 262 507 84 507 86 507 262 508 86 508 263 508 263 509 86 509 88 509 263 0 88 0 264 0 264 510 88 510 90 510 264 0 90 0 265 0 265 511 90 511 92 511 265 512 92 512 266 512 266 513 92 513 94 513 266 0 94 0 267 0 267 514 94 514 96 514 267 0 96 0 268 0 268 515 96 515 98 515 268 0 98 0 269 0 269 0 98 0 270 0 270 516 98 516 100 516 270 0 100 0 271 0 271 517 100 517 102 517 271 0 102 0 272 0 272 518 102 518 364 518 272 519 364 519 273 519 273 520 364 520 366 520 273 0 366 0 274 0 274 521 366 521 368 521 274 522 368 522 275 522 275 523 368 523 276 523 276 524 368 524 370 524 276 0 370 0 277 0 277 525 370 525 372 525 277 0 372 0 278 0 278 526 372 526 374 526 278 0 374 0 279 0 279 527 374 527 376 527 279 0 376 0 280 0 280 528 376 528 378 528 280 0 378 0 281 0 281 529 378 529 380 529 281 0 380 0 282 0 282 530 380 530 382 530 282 0 382 0 283 0 283 531 382 531 384 531 283 0 384 0 284 0 284 532 384 532 386 532 284 0 386 0 285 0 285 533 386 533 308 533 285 0 308 0 286 0 286 0 308 0 310 0 286 534 310 534 287 534 287 535 310 535 312 535 287 0 312 0 288 0 288 536 312 536 314 536 288 537 314 537 289 537 289 538 314 538 316 538 289 0 316 0 290 0 170 0 456 0 168 0 168 539 456 539 458 539 168 0 458 0 166 0 166 540 458 540 460 540 166 541 460 541 164 541 164 542 460 542 462 542 164 543 462 543 162 543 162 544 462 544 464 544 162 545 464 545 160 545 160 546 464 546 466 546 160 0 466 0 158 0 158 547 466 547 388 547 158 0 388 0 470 0 470 548 388 548 468 548 332 549 334 549 469 549 469 550 334 550 336 550 469 551 336 551 338 551 338 552 340 552 469 552 469 0 340 0 342 0 469 553 342 553 344 553 344 0 346 0 469 0 469 554 346 554 348 554 469 0 348 0 350 0 350 0 352 0 469 0 469 0 352 0 471 0 471 0 352 0 114 0 471 555 114 555 116 555 352 0 354 0 114 0 114 0 354 0 112 0 112 556 354 556 356 556 112 557 356 557 110 557 110 558 356 558 358 558 110 559 358 559 108 559 108 560 358 560 360 560 108 561 360 561 106 561 106 562 360 562 362 562 106 0 362 0 104 0 104 563 362 563 364 563 104 0 364 0 102 0 154 0 156 0 470 0 470 564 156 564 158 564 150 0 202 0 148 0 148 0 202 0 204 0 148 0 204 0 146 0 146 0 204 0 206 0 146 0 206 0 144 0 144 0 206 0 208 0 144 0 208 0 142 0 142 0 208 0 210 0 142 0 210 0 140 0 140 0 210 0 212 0 140 0 212 0 138 0 138 0 212 0 214 0 138 0 214 0 471 0 471 0 214 0 470 0 470 0 214 0 216 0 470 0 216 0 218 0 218 0 220 0 470 0 470 0 220 0 222 0 470 0 222 0 224 0 224 0 226 0 470 0 470 0 226 0 228 0 470 565 228 565 230 565 230 0 232 0 470 0 470 566 232 566 154 566 116 0 118 0 471 0 471 567 118 567 120 567 471 0 120 0 122 0 122 568 124 568 471 568 471 0 124 0 126 0 471 0 126 0 128 0 128 0 130 0 471 0 471 0 130 0 132 0 471 0 132 0 134 0 134 0 136 0 471 0 471 0 136 0 138 0 389 569 472 569 391 569 391 0 472 0 473 0 391 569 473 569 393 569 393 0 473 0 474 0 393 0 474 0 395 0 395 570 474 570 397 570 397 0 474 0 475 0 397 0 475 0 399 0 399 571 475 571 476 571 399 0 476 0 401 0 401 572 476 572 477 572 401 0 477 0 403 0 403 573 477 573 478 573 403 0 478 0 405 0 405 574 478 574 407 574 407 575 478 575 479 575 407 576 479 576 409 576 409 577 479 577 480 577 409 578 480 578 411 578 411 579 480 579 481 579 411 0 481 0 413 0 413 0 481 0 415 0 415 580 481 580 482 580 415 581 482 581 417 581 417 582 482 582 483 582 417 583 483 583 419 583 419 584 483 584 484 584 419 585 484 585 421 585 421 586 484 586 485 586 421 587 485 587 423 587 423 588 485 588 425 588 425 589 485 589 486 589 425 0 486 0 427 0 427 0 486 0 487 0 427 0 487 0 429 0 429 590 487 590 488 590 429 0 488 0 431 0 431 0 488 0 433 0 433 590 488 590 489 590 433 0 489 0 435 0 435 0 489 0 490 0 435 0 490 0 437 0 437 589 490 589 491 589 437 0 491 0 439 0 439 591 491 591 441 591 441 586 491 586 492 586 441 592 492 592 443 592 443 584 492 584 493 584 443 583 493 583 445 583 445 582 493 582 494 582 445 0 494 0 447 0 447 580 494 580 495 580 447 0 495 0 449 0 449 593 495 593 451 593 451 579 495 579 496 579 451 0 496 0 453 0 453 577 496 577 497 577 453 594 497 594 455 594 455 575 497 575 498 575 455 0 498 0 457 0 457 0 498 0 459 0 459 573 498 573 499 573 459 0 499 0 461 0 461 572 499 572 500 572 461 595 500 595 463 595 463 571 500 571 501 571 463 0 501 0 465 0 465 0 501 0 502 0 465 596 502 596 467 596 467 597 502 597 389 597 389 0 502 0 472 0 503 0 353 0 504 0 504 0 353 0 351 0 504 0 351 0 349 0 353 0 503 0 355 0 355 0 503 0 505 0 355 0 505 0 357 0 357 598 505 598 506 598 357 0 506 0 359 0 359 599 506 599 361 599 361 600 506 600 507 600 361 601 507 601 363 601 363 602 507 602 508 602 363 603 508 603 365 603 365 604 508 604 509 604 365 0 509 0 367 0 367 605 509 605 510 605 367 0 510 0 369 0 369 606 510 606 371 606 371 607 510 607 511 607 371 0 511 0 373 0 373 608 511 608 512 608 373 609 512 609 375 609 375 610 512 610 513 610 375 0 513 0 377 0 377 0 513 0 379 0 379 611 513 611 514 611 379 0 514 0 381 0 381 612 514 612 515 612 381 613 515 613 383 613 383 614 515 614 516 614 383 0 516 0 385 0 385 0 516 0 517 0 385 615 517 615 387 615 387 616 517 616 309 616 309 0 517 0 518 0 309 617 518 617 311 617 311 0 518 0 519 0 311 617 519 617 313 617 313 0 519 0 520 0 313 0 520 0 315 0 315 618 520 618 317 618 317 0 520 0 521 0 317 0 521 0 319 0 319 614 521 614 522 614 319 0 522 0 321 0 321 612 522 612 523 612 321 0 523 0 323 0 323 611 523 611 524 611 323 0 524 0 325 0 325 619 524 619 327 619 327 610 524 610 525 610 327 620 525 620 329 620 329 608 525 608 526 608 329 621 526 621 331 621 331 607 526 607 527 607 331 0 527 0 333 0 333 0 527 0 335 0 335 605 527 605 528 605 335 622 528 622 337 622 337 604 528 604 529 604 337 623 529 623 339 623 339 602 529 602 530 602 339 601 530 601 341 601 341 600 530 600 531 600 341 624 531 624 343 624 343 625 531 625 345 625 345 598 531 598 532 598 345 0 532 0 347 0 347 0 532 0 533 0 347 0 533 0 349 0 349 626 533 626 504 626 534 0 199 0 535 0 535 0 199 0 197 0 535 0 197 0 195 0 199 0 534 0 201 0 201 0 534 0 536 0 201 0 536 0 203 0 203 0 536 0 537 0 203 0 537 0 205 0 205 0 537 0 207 0 207 0 537 0 538 0 207 0 538 0 209 0 209 0 538 0 539 0 209 0 539 0 211 0 211 0 539 0 540 0 211 0 540 0 213 0 213 0 540 0 541 0 213 0 541 0 215 0 215 0 541 0 217 0 217 0 541 0 542 0 217 0 542 0 219 0 219 0 542 0 543 0 219 0 543 0 221 0 221 0 543 0 544 0 221 0 544 0 223 0 223 0 544 0 225 0 225 0 544 0 545 0 225 0 545 0 227 0 227 0 545 0 546 0 227 0 546 0 229 0 229 0 546 0 547 0 229 0 547 0 231 0 231 0 547 0 548 0 231 0 548 0 233 0 233 0 548 0 155 0 155 0 548 0 549 0 155 0 549 0 157 0 157 0 549 0 550 0 157 0 550 0 159 0 159 0 550 0 551 0 159 0 551 0 161 0 161 0 551 0 163 0 163 0 551 0 552 0 163 0 552 0 165 0 165 0 552 0 553 0 165 0 553 0 167 0 167 0 553 0 554 0 167 0 554 0 169 0 169 0 554 0 555 0 169 0 555 0 171 0 171 0 555 0 173 0 173 0 555 0 556 0 173 0 556 0 175 0 175 0 556 0 557 0 175 0 557 0 177 0 177 0 557 0 558 0 177 0 558 0 179 0 179 0 558 0 181 0 181 0 558 0 559 0 181 0 559 0 183 0 183 0 559 0 560 0 183 0 560 0 185 0 185 0 560 0 561 0 185 0 561 0 187 0 187 0 561 0 562 0 187 0 562 0 189 0 189 0 562 0 191 0 191 0 562 0 563 0 191 0 563 0 193 0 193 0 563 0 564 0 193 0 564 0 195 0 195 0 564 0 535 0 565 627 566 627 567 627 567 628 566 628 568 628 567 629 568 629 569 629 569 630 568 630 570 630 569 631 570 631 571 631 571 631 570 631 572 631 571 632 572 632 573 632 573 633 572 633 574 633 573 634 574 635 575 636 575 637 574 638 576 639 575 640 576 640 577 640 577 641 576 641 578 641 577 642 578 643 579 644 579 645 578 646 580 647 579 648 580 649 581 650 581 651 580 652 582 653 581 654 582 655 583 656 583 657 582 658 584 659 583 660 584 661 585 662 585 663 584 664 586 665 585 666 586 666 587 666 587 667 586 668 588 669 587 670 588 670 589 670 589 671 588 671 590 671 589 672 590 672 591 672 591 672 590 672 592 672 591 673 592 673 593 673 593 674 592 674 594 674 593 675 594 676 595 677 595 678 594 678 596 678 595 679 596 679 597 679 597 679 596 679 598 679 597 680 598 680 599 680 599 680 598 680 600 680 599 681 600 681 601 681 601 681 600 681 602 681 601 682 602 682 603 682 603 683 602 683 604 683 603 684 604 684 605 684 605 685 604 685 606 685 605 686 606 686 607 686 607 686 606 686 608 686 607 687 608 687 609 687 609 688 608 688 610 688 609 689 610 689 611 689 611 690 610 690 612 690 611 691 612 691 613 691 613 692 612 692 614 692 613 693 614 693 615 693 615 693 614 693 616 693 615 694 616 694 617 694 617 695 616 695 618 695 617 696 618 696 619 696 619 697 618 697 620 697 619 698 620 698 621 698 621 699 620 699 622 699 621 700 622 700 623 700 623 700 622 700 624 700 623 701 624 701 625 701 625 702 624 702 626 702 625 703 626 703 565 703 565 703 626 703 566 703 487 704 627 704 488 704 488 704 627 704 628 704 488 705 628 705 489 705 489 705 628 705 629 705 489 706 629 706 490 706 490 707 629 707 630 707 490 708 630 708 491 708 491 709 630 709 631 709 491 710 631 710 492 710 492 711 631 711 632 711 492 712 632 712 493 712 493 713 632 713 633 713 493 714 633 714 494 714 494 714 633 714 634 714 494 715 634 715 495 715 495 716 634 716 635 716 495 717 635 717 496 717 496 718 635 718 636 718 496 719 636 719 497 719 497 719 636 719 637 719 497 720 637 720 498 720 498 721 637 721 638 721 498 722 638 722 499 722 499 722 638 722 639 722 499 723 639 724 500 725 500 726 639 727 640 728 500 729 640 729 501 729 501 729 640 729 641 729 501 730 641 730 502 730 502 731 641 731 642 731 502 732 642 733 472 734 472 735 642 736 643 737 472 680 643 680 473 680 473 680 643 680 644 680 473 738 644 739 474 740 474 741 644 742 645 743 474 744 645 744 475 744 475 745 645 745 646 745 475 746 646 746 476 746 476 746 646 746 647 746 476 747 647 748 477 749 477 750 647 751 648 752 477 753 648 753 478 753 478 753 648 753 649 753 478 754 649 754 479 754 479 755 649 755 650 755 479 756 650 756 480 756 480 756 650 756 651 756 480 757 651 757 481 757 481 758 651 758 652 758 481 759 652 759 482 759 482 760 652 760 653 760 482 761 653 761 483 761 483 761 653 761 654 761 483 762 654 762 484 762 484 763 654 763 655 763 484 764 655 764 485 764 485 765 655 765 656 765 485 766 656 766 486 766 486 767 656 767 657 767 486 768 657 768 487 768 487 769 657 769 627 769 533 770 658 770 504 770 504 771 658 771 659 771 504 772 659 772 503 772 503 773 659 773 660 773 503 774 660 774 505 774 505 774 660 774 661 774 505 775 661 775 506 775 506 776 661 776 662 776 506 777 662 777 507 777 507 777 662 777 663 777 507 778 663 778 508 778 508 779 663 779 664 779 508 780 664 780 509 780 509 781 664 781 665 781 509 782 665 782 510 782 510 783 665 783 666 783 510 784 666 784 511 784 511 784 666 784 667 784 511 785 667 785 512 785 512 786 667 786 668 786 512 787 668 787 513 787 513 788 668 788 669 788 513 789 669 789 514 789 514 790 669 790 670 790 514 791 670 791 515 791 515 791 670 791 671 791 515 792 671 792 516 792 516 793 671 793 672 793 516 794 672 794 517 794 517 795 672 795 673 795 517 796 673 796 518 796 518 796 673 796 674 796 518 680 674 680 519 680 519 680 674 680 675 680 519 797 675 797 520 797 520 797 675 797 676 797 520 798 676 798 521 798 521 799 676 799 677 799 521 800 677 800 522 800 522 801 677 801 678 801 522 802 678 802 523 802 523 802 678 802 679 802 523 803 679 803 524 803 524 804 679 804 680 804 524 805 680 805 525 805 525 806 680 806 681 806 525 807 681 807 526 807 526 808 681 808 682 808 526 809 682 809 527 809 527 809 682 809 683 809 527 810 683 810 528 810 528 811 683 811 684 811 528 812 684 812 529 812 529 813 684 813 685 813 529 814 685 814 530 814 530 815 685 815 686 815 530 816 686 816 531 816 531 816 686 816 687 816 531 817 687 817 532 817 532 818 687 818 688 818 532 819 688 819 533 819 533 819 688 819 658 819 564 820 689 820 535 820 535 820 689 820 690 820 535 821 690 821 534 821 534 821 690 821 691 821 534 822 691 822 536 822 536 823 691 823 692 823 536 824 692 825 537 826 537 827 692 828 693 829 537 830 693 830 538 830 538 831 693 831 694 831 538 832 694 832 539 832 539 833 694 834 695 835 539 836 695 836 540 836 540 836 695 836 696 836 540 837 696 838 541 839 541 840 696 841 697 842 541 843 697 844 542 845 542 846 697 847 698 848 542 849 698 850 543 851 543 852 698 853 699 854 543 855 699 856 544 857 544 858 699 858 700 858 544 859 700 859 545 859 545 859 700 859 701 859 545 860 701 860 546 860 546 860 701 860 702 860 546 861 702 861 547 861 547 861 702 861 703 861 547 862 703 862 548 862 548 863 703 863 704 863 548 864 704 865 549 866 549 867 704 868 705 869 549 680 705 680 550 680 550 680 705 680 706 680 550 870 706 871 551 872 551 873 706 874 707 875 551 876 707 876 552 876 552 877 707 877 708 877 552 878 708 878 553 878 553 878 708 878 709 878 553 879 709 879 554 879 554 879 709 879 710 879 554 880 710 880 555 880 555 880 710 880 711 880 555 881 711 881 556 881 556 882 711 882 712 882 556 883 712 883 557 883 557 883 712 883 713 883 557 884 713 884 558 884 558 885 713 885 714 885 558 886 714 886 559 886 559 887 714 887 715 887 559 888 715 888 560 888 560 888 715 888 716 888 560 889 716 889 561 889 561 890 716 890 717 890 561 891 717 891 562 891 562 892 717 892 718 892 562 893 718 893 563 893 563 894 718 894 719 894 563 895 719 895 564 895 564 896 719 896 689 896 720 680 721 680 471 680 471 680 721 680 469 680 722 261 720 261 470 261 470 261 720 261 471 261 723 897 722 897 468 897 468 897 722 897 470 897 721 197 723 197 469 197 469 197 723 197 468 197 75 0 597 0 77 0 77 0 597 0 599 0 77 0 599 0 79 0 79 0 599 0 601 0 79 0 601 0 81 0 81 0 601 0 83 0 83 0 601 0 603 0 83 0 603 0 85 0 85 0 603 0 605 0 85 0 605 0 87 0 87 0 605 0 607 0 87 0 607 0 89 0 89 0 607 0 609 0 89 0 609 0 91 0 91 0 609 0 93 0 93 0 609 0 611 0 93 0 611 0 95 0 95 0 611 0 613 0 95 0 613 0 97 0 97 0 613 0 615 0 97 0 615 0 99 0 99 0 615 0 101 0 101 0 615 0 617 0 101 0 617 0 103 0 103 0 617 0 619 0 103 0 619 0 105 0 105 0 619 0 621 0 105 0 621 0 107 0 107 0 621 0 623 0 107 0 623 0 109 0 109 0 623 0 111 0 111 0 623 0 625 0 111 0 625 0 113 0 113 0 625 0 565 0 113 0 565 0 115 0 115 0 565 0 567 0 115 0 567 0 117 0 117 0 567 0 119 0 119 0 567 0 569 0 119 0 569 0 121 0 121 0 569 0 571 0 121 0 571 0 123 0 123 0 571 0 573 0 123 0 573 0 125 0 125 0 573 0 127 0 127 0 573 0 575 0 127 0 575 0 129 0 129 0 575 0 577 0 129 0 577 0 131 0 131 0 577 0 579 0 131 0 579 0 133 0 133 0 579 0 581 0 133 0 581 0 135 0 135 0 581 0 137 0 137 0 581 0 583 0 137 0 583 0 139 0 139 0 583 0 585 0 139 0 585 0 141 0 141 0 585 0 587 0 141 0 587 0 143 0 143 0 587 0 145 0 145 0 587 0 589 0 145 0 589 0 147 0 147 0 589 0 591 0 147 0 591 0 149 0 149 0 591 0 593 0 149 0 593 0 151 0 151 0 593 0 595 0 151 0 595 0 153 0 153 0 595 0 75 0 75 0 595 0 597 0 689 898 600 898 690 898 690 898 600 898 598 898 690 898 598 898 691 898 691 898 598 898 596 898 691 898 596 898 692 898 692 898 596 898 594 898 692 898 594 898 693 898 693 898 594 898 592 898 693 898 592 898 694 898 694 898 592 898 590 898 694 898 590 898 695 898 695 898 590 898 588 898 695 898 588 898 696 898 696 898 588 898 720 898 696 898 720 898 722 898 600 898 689 898 602 898 602 898 689 898 719 898 602 898 719 898 604 898 604 898 719 898 718 898 604 898 718 898 606 898 606 898 718 898 717 898 606 898 717 898 671 898 671 898 717 898 632 898 671 898 632 898 631 898 717 898 716 898 632 898 632 898 716 898 633 898 633 898 716 898 715 898 633 898 715 898 634 898 634 898 715 898 714 898 634 898 714 898 635 898 635 898 714 898 713 898 635 898 713 898 636 898 636 898 713 898 637 898 637 898 713 898 712 898 637 898 712 898 638 898 638 898 712 898 711 898 638 898 711 898 639 898 639 898 711 898 710 898 639 898 710 898 640 898 640 898 710 898 709 898 640 898 709 898 641 898 641 898 709 898 708 898 641 898 708 898 707 898 706 898 722 898 707 898 707 898 722 898 723 898 707 898 723 898 642 898 642 898 723 898 643 898 643 898 723 898 644 898 644 898 723 898 645 898 645 898 723 898 646 898 646 898 723 898 647 898 647 898 723 898 648 898 648 898 723 898 649 898 649 898 723 898 650 898 650 898 723 898 651 898 651 898 723 898 652 898 652 898 723 898 653 898 653 898 723 898 721 898 653 898 721 898 680 898 680 898 721 898 681 898 681 898 721 898 682 898 682 898 721 898 683 898 683 898 721 898 684 898 684 898 721 898 685 898 685 898 721 898 686 898 686 898 721 898 687 898 687 898 721 898 688 898 688 898 721 898 658 898 658 898 721 898 659 898 659 898 721 898 660 898 660 898 721 898 661 898 661 898 721 898 626 898 661 898 626 898 624 898 706 898 705 898 722 898 722 898 705 898 704 898 722 898 704 898 703 898 703 898 702 898 722 898 722 898 702 898 701 898 722 898 701 898 700 898 700 898 699 898 722 898 722 898 699 898 698 898 722 898 698 898 697 898 697 898 696 898 722 898 653 898 680 898 654 898 654 898 680 898 679 898 654 898 679 898 655 898 655 898 679 898 678 898 655 898 678 898 656 898 656 898 678 898 677 898 656 898 677 898 657 898 657 898 677 898 676 898 657 898 676 898 627 898 627 898 676 898 675 898 627 898 675 898 628 898 628 898 675 898 674 898 628 898 674 898 629 898 629 898 674 898 673 898 629 898 673 898 630 898 630 898 673 898 672 898 630 898 672 898 631 898 631 898 672 898 671 898 606 898 671 898 608 898 608 898 671 898 670 898 608 898 670 898 610 898 610 898 670 898 669 898 610 898 669 898 612 898 612 898 669 898 668 898 612 898 668 898 614 898 614 898 668 898 667 898 614 898 667 898 666 898 614 898 666 898 616 898 616 898 666 898 665 898 616 898 665 898 618 898 618 898 665 898 664 898 618 898 664 898 620 898 620 898 664 898 663 898 620 898 663 898 622 898 622 898 663 898 662 898 622 898 662 898 624 898 624 898 662 898 661 898 642 898 641 898 707 898 570 898 568 898 720 898 720 898 568 898 566 898 720 898 566 898 626 898 588 898 586 898 720 898 720 898 586 898 584 898 720 898 584 898 582 898 582 898 580 898 720 898 720 898 580 898 578 898 720 898 578 898 576 898 576 898 574 898 720 898 720 898 574 898 572 898 720 898 572 898 570 898 721 898 720 898 626 898</p>
        </triangles>
      </mesh>
    </geometry>
  </library_geometries>
  <library_visual_scenes>
    <visual_scene id="Scene" name="Scene">
      <node id="node" name="node" type="NODE">
        <matrix sid="transform">0.001 0 0 -0.525847 0 0.001 0 1.073694 0 0 0.001 0.8605 0 0 0 1</matrix>
        <instance_geometry url="#shape0-mesh" name="node">
          <bind_material>
            <technique_common>
              <instance_material symbol="BLACK-material" target="#BLACK-material"/>
            </technique_common>
          </bind_material>
        </instance_geometry>
      </node>
    </visual_scene>
  </library_visual_scenes>
  <scene>
    <instance_visual_scene url="#Scene"/>
  </scene>
</COLLADA>