<?xml version="1.0" encoding="utf-8"?>
<COLLADA xmlns="http://www.collada.org/2005/11/COLLADASchema" version="1.4.1" xmlns:xsi="http://www.w3.org/2001/XMLSchema-instance">
  <asset>
    <contributor>
      <author>Blender User</author>
      <authoring_tool>Blender 4.0.2 commit date:2023-12-05, commit time:07:41, hash:9be62e85b727</authoring_tool>
    </contributor>
    <created>2024-01-26T18:05:31</created>
    <modified>2024-01-26T18:05:31</modified>
    <unit name="meter" meter="1"/>
    <up_axis>Z_UP</up_axis>
  </asset>
  <library_effects>
    <effect id="BLACK-effect">
      <profile_COMMON>
        <technique sid="common">
          <lambert>
            <emission>
              <color sid="emission">0 0 0 1</color>
            </emission>
            <diffuse>
              <color sid="diffuse">0.2585328 0.00781368 0.01458429 1</color>
            </diffuse>
            <reflectivity>
              <float sid="specular">0.5</float>
            </reflectivity>
          </lambert>
        </technique>
      </profile_COMMON>
    </effect>
  </library_effects>
  <library_images/>
  <library_materials>
    <material id="BLACK-material" name="BLACK">
      <instance_effect url="#BLACK-effect"/>
    </material>
  </library_materials>
  <library_geometries>
    <geometry id="shape0_002-mesh" name="shape0.002">
      <mesh>
        <source id="shape0_002-mesh-positions">
          <float_array id="shape0_002-mesh-positions-array" count="330">-25 1.90735e-6 -80 -24.3732 5.563004 40.00001 -24.3732 5.563004 -80 -22.52422 10.8471 40.00001 -22.52422 10.8471 -80 -19.54579 15.5872 40.00001 -19.54579 15.5872 -80 -15.58724 19.5458 40.00001 -15.58724 19.5458 -80 -10.8471 22.5242 40.00001 -10.8471 22.5242 -80 -5.562998 24.3732 40.00001 -5.562998 24.3732 -80 1.90735e-6 25 40.00001 1.90735e-6 25 -80 5.563004 24.3732 40.00001 5.563004 24.3732 -80 10.8471 22.5242 40.00001 10.8471 22.5242 -80 15.5872 19.5458 40.00001 15.5872 19.5458 -80 19.5458 15.5872 40.00001 19.5458 15.5872 -80 22.5242 10.8471 40.00001 22.5242 10.8471 -80 24.3732 5.563004 40.00001 24.3732 5.563004 -80 25 1.90735e-6 40.00001 25 1.90735e-6 -80 24.3732 -5.562998 40.00001 24.3732 -5.562998 -80 22.5242 -10.8471 40.00001 22.5242 -10.8471 -80 19.5458 -15.58724 40.00001 19.5458 -15.58724 -80 15.5872 -19.54579 40.00001 15.5872 -19.54579 -80 10.8471 -22.52422 40.00001 10.8471 -22.52422 -80 5.563004 -24.3732 40.00001 5.563004 -24.3732 -80 1.90735e-6 -25 40.00001 1.90735e-6 -25 -80 -5.562998 -24.3732 40.00001 -5.562998 -24.3732 -80 -10.8471 -22.52422 40.00001 -10.8471 -22.52422 -80 -15.58724 -19.54579 40.00001 -15.58724 -19.54579 -80 -19.54579 -15.58724 40.00001 -19.54579 -15.58724 -80 -22.52422 -10.8471 40.00001 -22.52422 -10.8471 -80 -24.3732 -5.562998 40.00001 -24.3732 -5.562998 -80 -25 1.90735e-6 40.00001 -2.712099 22.3359 40.00001 -7.978598 21.0379 40.00001 -12.7815 18.5171 40.00001 -16.84149 14.9203 40.00001 -19.92276 10.4563 40.00001 -21.84619 5.384602 40.00001 -22.5 1.90735e-6 40.00001 -21.84619 -5.384598 40.00001 -19.92276 -10.4563 40.00001 -16.84149 -14.9203 40.00001 -12.7815 -18.51714 40.00001 -7.978598 -21.03787 40.00001 -2.712099 -22.33595 40.00001 2.712101 -22.33595 40.00001 7.978601 -21.03787 40.00001 12.7815 -18.51714 40.00001 16.8415 -14.9203 40.00001 19.9228 -10.4563 40.00001 21.8462 -5.384598 40.00001 22.5 1.90735e-6 40.00001 21.8462 5.384602 40.00001 19.9228 10.4563 40.00001 16.8415 14.9203 40.00001 12.7815 18.5171 40.00001 7.978601 21.0379 40.00001 2.712101 22.3359 40.00001 1.90735e-6 1.90735e-6 -80 22.5 1.90735e-6 30.00001 21.8462 5.384602 30.00001 19.9228 10.4563 30.00001 16.8415 14.9203 30.00001 12.7815 18.5171 30.00001 7.978601 21.0379 30.00001 2.712101 22.3359 30.00001 -2.712099 22.3359 30.00001 -7.978598 21.0379 30.00001 -12.7815 18.5171 30.00001 -16.84149 14.9203 30.00001 -19.92276 10.4563 30.00001 -21.84619 5.384602 30.00001 -22.5 1.90735e-6 30.00001 -21.84619 -5.384598 30.00001 -19.92276 -10.4563 30.00001 -16.84149 -14.9203 30.00001 -12.7815 -18.51714 30.00001 -7.978598 -21.03787 30.00001 -2.712099 -22.33595 30.00001 2.712101 -22.33595 30.00001 7.978601 -21.03787 30.00001 12.7815 -18.51714 30.00001 16.8415 -14.9203 30.00001 19.9228 -10.4563 30.00001 21.8462 -5.384598 30.00001 1.90735e-6 1.90735e-6 30.00001</float_array>
          <technique_common>
            <accessor source="#shape0_002-mesh-positions-array" count="110" stride="3">
              <param name="X" type="float"/>
              <param name="Y" type="float"/>
              <param name="Z" type="float"/>
            </accessor>
          </technique_common>
        </source>
        <source id="shape0_002-mesh-normals">
          <float_array id="shape0_002-mesh-normals-array" count="444">-0.9937122 0.111965 0 -0.943884 0.3302773 0 -0.9438835 0.3302786 0 -0.8467223 0.5320351 0 -0.8467221 0.5320356 0 -0.707111 0.7071027 0 -0.7071114 0.7071021 0 -0.5320289 0.8467262 0 -0.5320287 0.8467264 0 -0.3302809 0.9438828 0 -0.3302811 0.9438827 0 -0.1119647 0.9937122 0 -0.1119647 0.9937122 0 0.1119646 0.9937123 0 0.3302812 0.9438827 0 0.5320318 0.8467244 0 0.532032 0.8467243 0 0.7071067 0.7071069 0 0.7071069 0.7071067 0 0.8467243 0.532032 0 0.8467243 0.532032 0 0.9438827 0.3302811 0 0.9937123 0.1119642 0 0.9937122 0.111965 0 0.9937123 -0.111965 0 0.9937123 -0.1119643 0 0.9438827 -0.330281 0 0.8467262 -0.5320288 0 0.7071025 -0.7071111 0 0.7071023 -0.7071113 0 0.5320356 -0.846722 0 0.5320355 -0.8467221 0 0.3302779 -0.9438838 0 0.111965 -0.9937122 0 -0.111965 -0.9937123 0 -0.111965 -0.9937122 0 -0.3302778 -0.9438838 0 -0.3302776 -0.9438838 0 -0.5320323 -0.846724 0 -0.5320326 -0.846724 0 -0.7071071 -0.7071066 0 -0.7071065 -0.7071071 0 -0.846724 -0.5320325 0 -0.8467243 -0.532032 0 -0.9438836 -0.3302785 0 -0.9438841 -0.3302772 0 -0.9937123 -0.111965 0 -0.9937122 -0.111965 0 -0.9937122 0.111965 0 0 0 1 2.16025e-6 0 1 -2.26137e-6 0 1 -2.31908e-6 0 1 1.22711e-6 0 1 -6.35093e-7 0 1 -2.47677e-7 0 1 2.90751e-7 0 1 -2.13889e-6 0 1 2.18839e-6 0 1 2.31908e-6 0 1 -2.10922e-6 0 1 6.35075e-7 0 1 2.47688e-7 0 1 2.30909e-7 0 1 -2.90744e-7 0 1 0 0 -1 8.77736e-7 0 -1 -1.75544e-6 0 -1 2.19434e-7 0 -1 -4.38857e-7 0 -1 1.75544e-6 0 -1 0 0 -1 0 0 -1 4.3886e-7 0 -1 -2.19433e-7 0 -1 -4.38864e-7 0 -1 2.1943e-7 0 -1 1.09716e-6 0 -1 -1.75547e-6 0 -1 -2.19431e-7 0 -1 -3.84007e-7 0 -1 4.38865e-7 0 -1 4.3886e-7 0 -1 -0.9927091 -0.120535 0 -0.9927091 -0.1205355 0 -0.9350187 -0.3545984 0 -0.9350188 -0.3545982 0 -0.822982 -0.5680677 0 -0.8229821 -0.5680674 0 -0.6631176 -0.7485153 0 -0.6631177 -0.7485151 0 -0.4647297 -0.8854526 0 -0.4647299 -0.8854526 0 -0.2393026 -0.9709451 0 -0.2393025 -0.9709451 0 0 -1 0 0.2393026 -0.9709451 0 0.2393026 -0.9709451 0 0.4647297 -0.8854526 0 0.4647297 -0.8854526 0 0.6631186 -0.7485144 0 0.6631186 -0.7485144 0 0.8229846 -0.5680639 0 0.8229845 -0.568064 0 0.9350171 -0.3546028 0 0.9350169 -0.3546031 0 0.9927089 -0.1205366 0 0.9927088 -0.1205372 0 0.9927088 0.1205372 0 0.9927089 0.1205366 0 0.9350169 0.3546031 0 0.9350171 0.3546026 0 0.8229842 0.5680642 0 0.8229848 0.5680636 0 0.663123 0.7485105 0 0.663123 0.7485105 0 0.4647192 0.8854582 0 0.4647193 0.8854581 0 0.2393165 0.9709416 0 0.2393165 0.9709417 0 0 1 0 -0.2393164 0.9709416 0 -0.2393165 0.9709416 0 -0.4647193 0.8854581 0 -0.6631221 0.7485113 0 -0.663122 0.7485114 0 -0.822982 0.5680677 0 -0.8229821 0.5680674 0 -0.9350188 0.3545982 0 -0.9927091 0.1205355 0 -0.9927091 0.120535 0 5.03787e-7 0 1 2.5189e-7 0 1 -2.5189e-7 0 1 -6.92706e-7 0 1 -1.25945e-7 0 1 1.25945e-7 0 1 6.92707e-7 0 1 2.5189e-7 0 1 -2.51891e-7 0 1 5.03782e-7 0 1 -2.5189e-7 0 1 -2.51888e-7 0 1 1.25948e-7 0 1 -3.14868e-7 0 1 5.03781e-7 0 1 -2.5189e-7 0 1 -1.25948e-7 0 1</float_array>
          <technique_common>
            <accessor source="#shape0_002-mesh-normals-array" count="148" stride="3">
              <param name="X" type="float"/>
              <param name="Y" type="float"/>
              <param name="Z" type="float"/>
            </accessor>
          </technique_common>
        </source>
        <vertices id="shape0_002-mesh-vertices">
          <input semantic="POSITION" source="#shape0_002-mesh-positions"/>
        </vertices>
        <triangles material="BLACK-material" count="216">
          <input semantic="VERTEX" source="#shape0_002-mesh-vertices" offset="0"/>
          <input semantic="NORMAL" source="#shape0_002-mesh-normals" offset="1"/>
          <p>0 0 1 0 2 0 2 1 1 1 3 1 2 2 3 2 4 2 4 3 3 3 5 3 4 4 5 4 6 4 6 5 5 5 7 5 6 6 7 6 8 6 8 7 7 7 9 7 8 8 9 8 10 8 10 9 9 9 11 9 10 10 11 10 12 10 12 11 11 11 13 11 12 12 13 12 14 12 14 13 13 13 15 13 14 13 15 13 16 13 16 14 15 14 17 14 16 14 17 14 18 14 18 15 17 15 19 15 18 16 19 16 20 16 20 17 19 17 21 17 20 18 21 18 22 18 22 19 21 19 23 19 22 20 23 20 24 20 24 21 23 21 25 21 24 21 25 21 26 21 26 22 25 22 27 22 26 23 27 23 28 23 28 24 27 24 29 24 28 25 29 25 30 25 30 26 29 26 31 26 30 26 31 26 32 26 32 27 31 27 33 27 32 27 33 27 34 27 34 28 33 28 35 28 34 29 35 29 36 29 36 30 35 30 37 30 36 31 37 31 38 31 38 32 37 32 39 32 38 32 39 32 40 32 40 33 39 33 41 33 40 33 41 33 42 33 42 34 41 34 43 34 42 35 43 35 44 35 44 36 43 36 45 36 44 37 45 37 46 37 46 38 45 38 47 38 46 39 47 39 48 39 48 40 47 40 49 40 48 41 49 41 50 41 50 42 49 42 51 42 50 43 51 43 52 43 52 44 51 44 53 44 52 45 53 45 54 45 54 46 53 46 55 46 54 47 55 47 0 47 0 48 55 48 1 48 56 49 11 49 57 49 57 49 11 49 9 49 57 49 9 49 58 49 58 49 9 49 7 49 58 49 7 49 59 49 59 49 7 49 5 49 59 50 5 50 60 50 60 51 5 51 3 51 60 49 3 49 61 49 61 49 3 49 1 49 61 49 1 49 62 49 62 49 1 49 55 49 62 49 55 49 63 49 63 49 55 49 53 49 63 52 53 52 64 52 64 49 53 49 51 49 64 49 51 49 65 49 65 49 51 49 49 49 65 53 49 53 66 53 66 49 49 49 47 49 66 54 47 54 67 54 67 49 47 49 45 49 67 55 45 55 68 55 68 49 45 49 43 49 68 49 43 49 69 49 43 49 41 49 69 49 69 56 41 56 39 56 69 49 39 49 70 49 70 49 39 49 37 49 70 49 37 49 71 49 71 49 37 49 35 49 71 57 35 57 72 57 72 49 35 49 33 49 72 49 33 49 73 49 73 49 33 49 31 49 73 58 31 58 74 58 74 49 31 49 29 49 74 49 29 49 75 49 75 49 29 49 27 49 75 49 27 49 76 49 76 49 27 49 25 49 76 59 25 59 77 59 77 60 25 60 23 60 77 49 23 49 78 49 78 49 23 49 21 49 78 49 21 49 79 49 79 49 21 49 19 49 79 61 19 61 80 61 80 49 19 49 17 49 80 62 17 62 81 62 81 49 17 49 15 49 81 49 15 49 56 49 56 63 15 63 13 63 56 64 13 64 11 64 28 65 30 65 82 65 22 66 24 66 82 66 82 65 24 65 26 65 82 65 26 65 28 65 16 67 18 67 82 67 82 68 18 68 20 68 82 69 20 69 22 69 10 70 12 70 82 70 82 71 12 71 14 71 82 72 14 72 16 72 4 65 6 65 82 65 82 73 6 73 8 73 82 74 8 74 10 74 54 65 0 65 82 65 82 65 0 65 2 65 82 65 2 65 4 65 48 65 50 65 82 65 82 75 50 75 52 75 82 65 52 65 54 65 42 65 44 65 82 65 82 76 44 76 46 76 82 77 46 77 48 77 36 78 38 78 82 78 82 79 38 79 40 79 82 80 40 80 42 80 30 65 32 65 82 65 82 81 32 81 34 81 82 82 34 82 36 82 83 83 75 83 84 83 84 84 75 84 76 84 84 85 76 85 85 85 85 86 76 86 77 86 85 87 77 87 86 87 86 88 77 88 78 88 86 89 78 89 87 89 87 90 78 90 79 90 87 91 79 91 88 91 88 92 79 92 80 92 88 93 80 93 89 93 89 94 80 94 81 94 89 95 81 95 90 95 90 95 81 95 56 95 90 96 56 96 91 96 91 97 56 97 57 97 91 98 57 98 92 98 92 99 57 99 58 99 92 100 58 100 93 100 93 101 58 101 59 101 93 102 59 102 94 102 94 103 59 103 60 103 94 104 60 104 95 104 95 105 60 105 61 105 95 106 61 106 96 106 96 107 61 107 62 107 96 108 62 108 97 108 97 109 62 109 63 109 97 110 63 110 98 110 98 111 63 111 64 111 98 112 64 112 99 112 99 113 64 113 65 113 99 114 65 114 100 114 100 115 65 115 66 115 100 116 66 116 101 116 101 117 66 117 67 117 101 118 67 118 102 118 102 119 67 119 68 119 102 120 68 120 103 120 103 120 68 120 69 120 103 121 69 121 104 121 104 122 69 122 70 122 104 123 70 123 105 123 105 123 70 123 71 123 105 124 71 124 106 124 106 125 71 125 72 125 106 126 72 126 107 126 107 127 72 127 73 127 107 128 73 128 108 128 108 128 73 128 74 128 108 129 74 129 83 129 83 130 74 130 75 130 83 49 84 49 109 49 83 49 109 49 108 49 105 131 106 131 109 131 109 132 106 132 107 132 109 133 107 133 108 133 102 49 103 49 109 49 109 134 103 134 104 134 109 135 104 135 105 135 99 49 100 49 109 49 109 136 100 136 101 136 109 137 101 137 102 137 96 49 97 49 109 49 109 138 97 138 98 138 109 139 98 139 99 139 93 140 94 140 109 140 109 141 94 141 95 141 109 49 95 49 96 49 90 49 91 49 109 49 109 142 91 142 92 142 109 143 92 143 93 143 87 49 88 49 109 49 109 144 88 144 89 144 109 49 89 49 90 49 84 145 85 145 109 145 109 146 85 146 86 146 109 147 86 147 87 147</p>
        </triangles>
      </mesh>
    </geometry>
  </library_geometries>
  <library_visual_scenes>
    <visual_scene id="Scene" name="Scene">
      <node id="node" name="node" type="NODE">
        <matrix sid="transform">0.001 0 0 -1.86265e-9 0 0.001 0 -1.86265e-9 0 0 0.001 0 0 0 0 1</matrix>
        <instance_geometry url="#shape0_002-mesh" name="node">
          <bind_material>
            <technique_common>
              <instance_material symbol="BLACK-material" target="#BLACK-material"/>
            </technique_common>
          </bind_material>
        </instance_geometry>
      </node>
    </visual_scene>
  </library_visual_scenes>
  <scene>
    <instance_visual_scene url="#Scene"/>
  </scene>
</COLLADA>