<?xml version="1.0" encoding="utf-8"?>
<COLLADA xmlns="http://www.collada.org/2005/11/COLLADASchema" version="1.4.1" xmlns:xsi="http://www.w3.org/2001/XMLSchema-instance">
  <asset>
    <contributor>
      <author>Blender User</author>
      <authoring_tool>Blender 4.0.2 commit date:2023-12-05, commit time:07:41, hash:9be62e85b727</authoring_tool>
    </contributor>
    <created>2024-01-26T17:56:52</created>
    <modified>2024-01-26T17:56:52</modified>
    <unit name="meter" meter="1"/>
    <up_axis>Z_UP</up_axis>
  </asset>
  <library_images/>
  <library_geometries>
    <geometry id="shape0-mesh" name="shape0">
      <mesh>
        <source id="shape0-mesh-positions">
          <float_array id="shape0-mesh-positions-array" count="141">200 0 200 0 0 200 200 0 0 0 0 0 200 200 200 200 200 0 0 200 200 0 200 0 73.6158 114.278 200 79.6816 122.072 200 116.408 125.115 200 123.674 118.426 200 87.9491 127.473 200 97.5226 129.898 200 107.365 129.082 200 128.375 109.741 200 130 100 200 128.375 90.25901 200 123.674 81.5736 200 87.9491 72.5268 200 79.6816 77.9283 200 73.6158 85.7216 200 70.4092 95.0622 200 70.4092 104.938 200 116.408 74.885 200 107.365 70.91801 200 97.5226 70.1025 200 130 100 190 128.375 109.741 190 123.674 118.426 190 116.408 125.115 190 107.365 129.082 190 97.5226 129.898 190 87.9491 127.473 190 79.6816 122.072 190 73.6158 114.278 190 70.4092 104.938 190 70.4092 95.0622 190 73.6158 85.7216 190 79.6816 77.9283 190 87.9491 72.5268 190 97.5226 70.1025 190 107.365 70.91801 190 116.408 74.885 190 123.674 81.5736 190 128.375 90.25901 190 100 100 190</float_array>
          <technique_common>
            <accessor source="#shape0-mesh-positions-array" count="47" stride="3">
              <param name="X" type="float"/>
              <param name="Y" type="float"/>
              <param name="Z" type="float"/>
            </accessor>
          </technique_common>
        </source>
        <source id="shape0-mesh-normals">
          <float_array id="shape0-mesh-normals-array" count="183">0 -1 0 1 0 0 0 1 0 -1 0 0 0 0 1 -1.34496e-6 0 1 1.89356e-6 0 1 -7.26035e-7 0 1 -5.78279e-7 0 1 5.78279e-7 0 1 -1.39989e-6 0 1 -2.27177e-7 0 1 -3.57166e-6 0 1 2.53655e-6 0 1 1.05332e-6 0 1 -1.52199e-6 0 1 1.21006e-6 0 1 -1.19981e-6 0 1 1.47956e-6 0 1 0 0 -1 -0.9863694 -0.1645465 0 -0.9863693 -0.1645469 0 -0.8794357 -0.4760177 0 -0.8794343 -0.4760205 0 -0.6772924 -0.735714 0 -0.677291 -0.7357152 0 -0.4017258 -0.9157601 0 -0.4017266 -0.9157596 0 -0.08262401 -0.9965808 0 0.245549 -0.9693843 0 0.2455483 -0.9693843 0 0.5469177 -0.8371865 0 0.7891657 -0.6141804 0 0.7891667 -0.6141792 0 0.9458123 -0.324714 0 0.9458112 -0.324717 0 0.9458178 0.324698 0 0.9458186 0.3246958 0 0.7891387 0.6142151 0 0.7891396 0.614214 0 0.5469523 0.8371638 0 0.5469541 0.8371626 0 0.245481 0.9694014 0 -0.08257335 0.996585 0 -0.4017266 0.9157596 0 -0.4017258 0.9157601 0 -0.6772696 0.7357349 0 -0.8794432 0.4760039 0 -0.8794453 0.4760001 0 -0.9863693 0.1645469 0 1.04425e-6 0 1 -8.35509e-7 0 1 1.67088e-6 0 1 8.35441e-7 0 1 -1.67089e-6 0 1 1.67079e-6 0 1 -8.35489e-7 0 1 6.26566e-7 0 1 -1.67094e-6 0 1 8.35414e-7 0 1 -8.3551e-7 0 1</float_array>
          <technique_common>
            <accessor source="#shape0-mesh-normals-array" count="61" stride="3">
              <param name="X" type="float"/>
              <param name="Y" type="float"/>
              <param name="Z" type="float"/>
            </accessor>
          </technique_common>
        </source>
        <vertices id="shape0-mesh-vertices">
          <input semantic="POSITION" source="#shape0-mesh-positions"/>
        </vertices>
        <triangles count="90">
          <input semantic="VERTEX" source="#shape0-mesh-vertices" offset="0"/>
          <input semantic="NORMAL" source="#shape0-mesh-normals" offset="1"/>
          <p>0 0 1 0 2 0 2 0 1 0 3 0 4 1 0 1 5 1 5 1 0 1 2 1 6 2 4 2 7 2 7 2 4 2 5 2 1 3 6 3 3 3 3 3 6 3 7 3 8 4 9 4 6 4 10 4 11 4 4 4 9 4 12 4 6 4 6 5 12 5 13 5 6 4 13 4 4 4 4 6 13 6 14 6 4 7 14 7 10 7 11 4 15 4 4 4 4 8 15 8 16 8 4 4 16 4 0 4 0 9 16 9 17 9 0 10 17 10 18 10 1 11 19 11 20 11 20 12 21 12 1 12 1 13 21 13 22 13 1 4 22 4 6 4 6 14 22 14 23 14 6 15 23 15 8 15 18 4 24 4 0 4 0 16 24 16 25 16 0 4 25 4 1 4 1 17 25 17 26 17 1 18 26 18 19 18 7 19 5 19 3 19 3 19 5 19 2 19 27 20 16 20 28 20 28 21 16 21 15 21 28 22 15 22 29 22 29 23 15 23 11 23 29 24 11 24 30 24 30 25 11 25 10 25 30 26 10 26 31 26 31 27 10 27 14 27 31 28 14 28 32 28 32 28 14 28 13 28 32 29 13 29 33 29 33 30 13 30 12 30 33 31 12 31 34 31 34 31 12 31 9 31 34 32 9 32 35 32 35 33 9 33 8 33 35 34 8 34 36 34 36 35 8 35 23 35 36 1 23 1 37 1 37 1 23 1 22 1 37 36 22 36 38 36 38 37 22 37 21 37 38 38 21 38 39 38 39 39 21 39 20 39 39 40 20 40 40 40 40 41 20 41 19 41 40 42 19 42 41 42 41 42 19 42 26 42 41 43 26 43 42 43 42 43 26 43 25 43 42 44 25 44 43 44 43 45 25 45 24 45 43 46 24 46 44 46 44 46 24 46 18 46 44 47 18 47 45 47 45 48 18 48 17 48 45 49 17 49 27 49 27 49 17 49 16 49 27 4 28 4 46 4 43 4 44 4 46 4 46 4 44 4 45 4 46 4 45 4 27 4 40 4 41 4 46 4 46 50 41 50 42 50 46 51 42 51 43 51 37 52 38 52 46 52 46 53 38 53 39 53 46 54 39 54 40 54 34 55 35 55 46 55 46 56 35 56 36 56 46 4 36 4 37 4 31 4 32 4 46 4 46 57 32 57 33 57 46 58 33 58 34 58 28 4 29 4 46 4 46 59 29 59 30 59 46 60 30 60 31 60</p>
        </triangles>
      </mesh>
    </geometry>
  </library_geometries>
  <library_visual_scenes>
    <visual_scene id="Scene" name="Scene">
      <node id="node" name="node" type="NODE">
        <matrix sid="transform">0.001 0 0 0 0 0.001 0 0 0 0 0.001 0 0 0 0 1</matrix>
        <instance_geometry url="#shape0-mesh" name="node"/>
      </node>
    </visual_scene>
  </library_visual_scenes>
  <scene>
    <instance_visual_scene url="#Scene"/>
  </scene>
</COLLADA>