<?xml version="1.0" encoding="utf-8"?>
<COLLADA xmlns="http://www.collada.org/2005/11/COLLADASchema" version="1.4.1" xmlns:xsi="http://www.w3.org/2001/XMLSchema-instance">
  <asset>
    <contributor>
      <author>Blender User</author>
      <authoring_tool>Blender 4.1.1 commit date:2024-04-15, commit time:15:11, hash:e1743a0317bc</authoring_tool>
    </contributor>
    <created>2024-07-16T10:02:47</created>
    <modified>2024-07-16T10:02:47</modified>
    <unit name="meter" meter="1"/>
    <up_axis>Z_UP</up_axis>
  </asset>
  <library_images/>
  <library_geometries>
    <geometry id="shape0_012-mesh" name="shape0.012">
      <mesh>
        <source id="shape0_012-mesh-positions">
          <float_array id="shape0_012-mesh-positions-array" count="1503">65.92501 170.86 15 65.92501 170.86 7 66.5949 173.36 15 66.5949 173.36 7 68.42501 175.19 15 68.42501 175.19 7 70.92501 175.86 15 70.92501 175.86 7 73.42501 175.19 15 73.42501 175.19 7 75.2551 173.36 15 75.2551 173.36 7 75.92501 170.86 15 75.92501 170.86 7 70.92501 170.86 3.9957 124.075 29.14 15 124.075 29.14 7 124.745 31.64 15 124.745 31.64 7 126.575 33.4701 15 126.575 33.4701 7 129.075 34.14 15 129.075 34.14 7 131.575 33.4701 15 131.575 33.4701 7 133.405 31.64 15 133.405 31.64 7 134.075 29.14 15 134.075 29.14 7 129.075 29.14 3.9957 65.92501 29.14 15 65.92501 29.14 7 66.5949 31.64 15 66.5949 31.64 7 68.42501 33.4701 15 68.42501 33.4701 7 70.92501 34.14 15 70.92501 34.14 7 73.42501 33.4701 15 73.42501 33.4701 7 75.2551 31.64 15 75.2551 31.64 7 75.92501 29.14 15 75.92501 29.14 7 70.92501 29.14 3.9957 124.075 170.86 15 124.075 170.86 7 124.745 173.36 15 124.745 173.36 7 126.575 175.19 15 126.575 175.19 7 129.075 175.86 15 129.075 175.86 7 131.575 175.19 15 131.575 175.19 7 133.405 173.36 15 133.405 173.36 7 134.075 170.86 15 134.075 170.86 7 129.075 170.86 3.9957 145.5 50 6 145.5 50 0 146.103 52.25 6 146.103 52.25 0 147.75 53.8971 6 147.75 53.8971 0 150 54.5 6 150 54.5 0 152.25 53.8971 6 152.25 53.8971 0 153.897 52.25 6 153.897 52.25 0 154.5 50 6 154.5 50 0 142.5 50 15 142.5 50 6 143.505 53.75 15 143.505 53.75 6 146.25 56.4952 15 146.25 56.4952 6 150 57.5 15 150 57.5 6 153.75 56.4952 15 153.75 56.4952 6 156.495 53.75 15 156.495 53.75 6 157.5 50 15 157.5 50 6 45.5 150 6 45.5 150 0 46.1029 152.25 6 46.1029 152.25 0 47.75 153.897 6 47.75 153.897 0 50 154.5 6 50 154.5 0 52.25 153.897 6 52.25 153.897 0 53.8971 152.25 6 53.8971 152.25 0 54.5 150 6 54.5 150 0 42.5 150 15 42.5 150 6 43.5048 153.75 15 43.5048 153.75 6 46.25 156.495 15 46.25 156.495 6 50 157.5 15 50 157.5 6 53.75 156.495 15 53.75 156.495 6 56.4952 153.75 15 56.4952 153.75 6 57.5 150 15 57.5 150 6 45.5 50 6 45.5 50 0 46.1029 52.25 6 46.1029 52.25 0 47.75 53.8971 6 47.75 53.8971 0 50 54.5 6 50 54.5 0 52.25 53.8971 6 52.25 53.8971 0 53.8971 52.25 6 53.8971 52.25 0 54.5 50 6 54.5 50 0 42.5 50 15 42.5 50 6 43.5048 53.75 15 43.5048 53.75 6 46.25 56.4952 15 46.25 56.4952 6 50 57.5 15 50 57.5 6 53.75 56.4952 15 53.75 56.4952 6 56.4952 53.75 15 56.4952 53.75 6 57.5 50 15 57.5 50 6 145.5 150 6 145.5 150 0 146.103 152.25 6 146.103 152.25 0 147.75 153.897 6 147.75 153.897 0 150 154.5 6 150 154.5 0 152.25 153.897 6 152.25 153.897 0 153.897 152.25 6 153.897 152.25 0 154.5 150 6 154.5 150 0 142.5 150 15 142.5 150 6 143.505 153.75 15 143.505 153.75 6 146.25 156.495 15 146.25 156.495 6 150 157.5 15 150 157.5 6 153.75 156.495 15 153.75 156.495 6 156.495 153.75 15 156.495 153.75 6 157.5 150 15 157.5 150 6 146.103 147.75 6 143.505 146.25 6 147.75 146.103 6 146.25 143.505 6 150 145.5 6 150 142.5 6 152.25 146.103 6 153.75 143.505 6 153.897 147.75 6 156.495 146.25 6 156.495 146.25 15 153.75 143.505 15 150 142.5 15 146.25 143.505 15 143.505 146.25 15 153.897 147.75 0 152.25 146.103 0 150 145.5 0 147.75 146.103 0 146.103 147.75 0 46.1029 47.75 6 43.5048 46.25 6 47.75 46.1029 6 46.25 43.5048 6 50 45.5 6 50 42.5 6 52.25 46.1029 6 53.75 43.5048 6 53.8971 47.75 6 56.4952 46.25 6 56.4952 46.25 15 53.75 43.5048 15 50 42.5 15 46.25 43.5048 15 43.5048 46.25 15 53.8971 47.75 0 52.25 46.1029 0 50 45.5 0 47.75 46.1029 0 46.1029 47.75 0 46.1029 147.75 6 43.5048 146.25 6 47.75 146.103 6 46.25 143.505 6 50 145.5 6 50 142.5 6 52.25 146.103 6 53.75 143.505 6 53.8971 147.75 6 56.4952 146.25 6 56.4952 146.25 15 53.75 143.505 15 50 142.5 15 46.25 143.505 15 43.5048 146.25 15 53.8971 147.75 0 52.25 146.103 0 50 145.5 0 47.75 146.103 0 46.1029 147.75 0 146.103 47.75 6 143.505 46.25 6 147.75 46.1029 6 146.25 43.5048 6 150 45.5 6 150 42.5 6 152.25 46.1029 6 153.75 43.5048 6 153.897 47.75 6 156.495 46.25 6 156.495 46.25 15 153.75 43.5048 15 150 42.5 15 146.25 43.5048 15 143.505 46.25 15 153.897 47.75 0 152.25 46.1029 0 150 45.5 0 147.75 46.1029 0 146.103 47.75 0 126.575 166.53 7 129.075 165.86 7 124.745 168.36 7 133.405 168.36 7 131.575 166.53 7 133.405 168.36 15 131.575 166.53 15 129.075 165.86 15 126.575 166.53 15 124.745 168.36 15 68.42501 24.8099 7 70.92501 24.14 7 66.5949 26.64 7 75.2551 26.64 7 73.42501 24.8099 7 75.2551 26.64 15 73.42501 24.8099 15 70.92501 24.14 15 68.42501 24.8099 15 66.5949 26.64 15 126.575 24.8099 7 129.075 24.14 7 124.745 26.64 7 133.405 26.64 7 131.575 24.8099 7 133.405 26.64 15 131.575 24.8099 15 129.075 24.14 15 126.575 24.8099 15 124.745 26.64 15 68.42501 166.53 7 70.92501 165.86 7 66.5949 168.36 7 75.2551 168.36 7 73.42501 166.53 7 75.2551 168.36 15 73.42501 166.53 15 70.92501 165.86 15 68.42501 166.53 15 66.5949 168.36 15 0 0 0 0 0 15 0 12.07 15 0 38.32 15 0 100 15 0 200 0 0 161.68 15 0 200 15 0 200 0 0 200 15 21.25 200 15 61.7125 200 15 100 200 15 200 200 0 138.288 200 15 200 200 15 200 12.07 15 200 0 15 200 0 0 200 161.68 15 200 100 15 200 38.32 15 21.25 0 15 138.288 0 15 100 0 15 61.7125 0 15 138.288 161.68 15 100 161.68 15 61.7125 161.68 15 21.25 161.68 15 138.288 100 15 61.7125 100 15 21.25 100 15 138.288 38.32 15 100 100 15 100 38.32 15 61.7125 38.32 15 21.25 38.32 15 138.288 12.07 15 100 12.07 15 61.7125 12.07 15 21.25 12.07 15 0 200 15 0 161.68 15 0 100 15 0 38.32 15 0 12.07 15 0 0 15 0 200 0 65.92501 29.14 55.4978 65.92501 29.14 5.49785 66.1697 27.5949 5.49785 66.1697 27.5949 55.4978 66.8799 26.2011 5.49785 66.8799 26.2011 55.4978 67.9861 25.0949 5.49785 67.9861 25.0949 55.4978 69.3799 24.3847 5.49785 69.3799 24.3847 55.4978 70.92501 24.14 5.49785 70.92501 24.14 55.4978 72.4701 24.3847 5.49785 72.4701 24.3847 55.4978 73.8639 25.0949 5.49785 73.8639 25.0949 55.4978 74.9701 26.2011 5.49785 74.9701 26.2011 55.4978 75.6803 27.5949 5.49785 75.6803 27.5949 55.4978 75.92501 29.14 5.49785 75.92501 29.14 55.4978 75.6803 30.6851 5.49785 75.6803 30.6851 55.4978 74.9701 32.0789 5.49785 74.9701 32.0789 55.4978 73.8639 33.1851 5.49785 73.8639 33.1851 55.4978 72.4701 33.8953 5.49785 72.4701 33.8953 55.4978 70.92501 34.14 5.49785 70.92501 34.14 55.4978 69.3799 33.8953 5.49785 69.3799 33.8953 55.4978 67.9861 33.1851 5.49785 67.9861 33.1851 55.4978 66.8799 32.0789 5.49785 66.8799 32.0789 55.4978 66.1697 30.6851 5.49785 66.1697 30.6851 55.4978 124.075 29.14 55.4978 124.075 29.14 5.49785 124.32 27.5949 5.49785 124.32 27.5949 55.4978 125.03 26.2011 5.49785 125.03 26.2011 55.4978 126.136 25.0949 5.49785 126.136 25.0949 55.4978 127.53 24.3847 5.49785 127.53 24.3847 55.4978 129.075 24.14 5.49785 129.075 24.14 55.4978 130.62 24.3847 5.49785 130.62 24.3847 55.4978 132.014 25.0949 5.49785 132.014 25.0949 55.4978 133.12 26.2011 5.49785 133.12 26.2011 55.4978 133.83 27.5949 5.49785 133.83 27.5949 55.4978 134.075 29.14 5.49785 134.075 29.14 55.4978 133.83 30.6851 5.49785 133.83 30.6851 55.4978 133.12 32.0789 5.49785 133.12 32.0789 55.4978 132.014 33.1851 5.49785 132.014 33.1851 55.4978 130.62 33.8953 5.49785 130.62 33.8953 55.4978 129.075 34.14 5.49785 129.075 34.14 55.4978 127.53 33.8953 5.49785 127.53 33.8953 55.4978 126.136 33.1851 5.49785 126.136 33.1851 55.4978 125.03 32.0789 5.49785 125.03 32.0789 55.4978 124.32 30.6851 5.49785 124.32 30.6851 55.4978 124.075 170.86 55.4978 124.075 170.86 5.49785 124.32 169.315 5.49785 124.32 169.315 55.4978 125.03 167.921 5.49785 125.03 167.921 55.4978 126.136 166.815 5.49785 126.136 166.815 55.4978 127.53 166.105 5.49785 127.53 166.105 55.4978 129.075 165.86 5.49785 129.075 165.86 55.4978 130.62 166.105 5.49785 130.62 166.105 55.4978 132.014 166.815 5.49785 132.014 166.815 55.4978 133.12 167.921 5.49785 133.12 167.921 55.4978 133.83 169.315 5.49785 133.83 169.315 55.4978 134.075 170.86 5.49785 134.075 170.86 55.4978 133.83 172.405 5.49785 133.83 172.405 55.4978 133.12 173.799 5.49785 133.12 173.799 55.4978 132.014 174.905 5.49785 132.014 174.905 55.4978 130.62 175.615 5.49785 130.62 175.615 55.4978 129.075 175.86 5.49785 129.075 175.86 55.4978 127.53 175.615 5.49785 127.53 175.615 55.4978 126.136 174.905 5.49785 126.136 174.905 55.4978 125.03 173.799 5.49785 125.03 173.799 55.4978 124.32 172.405 5.49785 124.32 172.405 55.4978 65.92501 170.86 55.4978 65.92501 170.86 5.49785 66.1697 169.315 5.49785 66.1697 169.315 55.4978 66.8799 167.921 5.49785 66.8799 167.921 55.4978 67.9861 166.815 5.49785 67.9861 166.815 55.4978 69.3799 166.105 5.49785 69.3799 166.105 55.4978 70.92501 165.86 5.49785 70.92501 165.86 55.4978 72.4701 166.105 5.49785 72.4701 166.105 55.4978 73.8639 166.815 5.49785 73.8639 166.815 55.4978 74.9701 167.921 5.49785 74.9701 167.921 55.4978 75.6803 169.315 5.49785 75.6803 169.315 55.4978 75.92501 170.86 5.49785 75.92501 170.86 55.4978 75.6803 172.405 5.49785 75.6803 172.405 55.4978 74.9701 173.799 5.49785 74.9701 173.799 55.4978 73.8639 174.905 5.49785 73.8639 174.905 55.4978 72.4701 175.615 5.49785 72.4701 175.615 55.4978 70.92501 175.86 5.49785 70.92501 175.86 55.4978 69.3799 175.615 5.49785 69.3799 175.615 55.4978 67.9861 174.905 5.49785 67.9861 174.905 55.4978 66.8799 173.799 5.49785 66.8799 173.799 55.4978 66.1697 172.405 5.49785 66.1697 172.405 55.4978</float_array>
          <technique_common>
            <accessor source="#shape0_012-mesh-positions-array" count="501" stride="3">
              <param name="X" type="float"/>
              <param name="Y" type="float"/>
              <param name="Z" type="float"/>
            </accessor>
          </technique_common>
        </source>
        <source id="shape0_012-mesh-normals">
          <float_array id="shape0_012-mesh-normals-array" count="1350">0.965924 -0.2588257 0 0.7070862 -0.7071274 0 0.2588642 -0.9659138 0 -0.2588642 -0.9659138 0 -0.7070891 -0.7071245 0 -0.7070921 -0.7071216 0 -0.9659212 -0.2588367 0 -0.9659227 -0.2588312 0 -0.1367333 -0.5102 0.8491172 -0.3734885 -0.3735085 0.8491159 -0.5102017 -0.1367152 0.8491191 0.5102011 -0.1367109 0.8491201 0.3734882 -0.3735103 0.8491152 0.1367333 -0.5102 0.8491172 0.9659138 -0.2588642 0 0.707126 -0.7070876 0 0.258827 -0.9659238 0 0.2588284 -0.9659233 0 -0.2588284 -0.9659233 0 -0.707129 -0.7070847 0 -0.9659123 -0.2588697 0 -0.1367132 -0.5102045 0.8491177 -0.3735091 -0.3734839 0.8491176 -0.5102002 -0.1367376 0.8491165 0.5102003 -0.1367293 0.8491177 0.3735063 -0.3734894 0.8491165 0.1367131 -0.5102001 0.8491204 0.7071053 -0.7071083 0 -0.7071083 -0.7071053 0 -0.7071112 -0.7071024 0 -0.1367135 -0.5102015 0.8491196 -0.3734964 -0.3734961 0.8491179 -0.5102013 -0.1367151 0.8491194 0.5102022 -0.1367112 0.8491194 0.3734938 -0.3734956 0.8491193 0.1367135 -0.5102015 0.8491196 0.7071068 -0.7071068 0 0.2588627 -0.9659141 0 -0.7071098 -0.7071039 0 -0.136733 -0.5102031 0.8491154 -0.3735026 -0.3734976 0.8491146 0.5102025 -0.1367299 0.8491163 0.3734987 -0.3735021 0.8491142 0.9659107 -0.2588758 0 0.965915 -0.2588595 0 0.7071251 -0.7070885 0 0.7071338 -0.7070798 0 0.2588254 -0.9659242 0 -0.2588254 -0.9659242 0 -0.7071251 -0.7070885 0 -0.7071294 -0.7070841 0 -0.9659129 -0.2588676 0 -0.965915 -0.2588595 0 0.9659141 -0.2588627 0 0.9659124 -0.2588692 0 0.7071346 -0.707079 0 0.7071311 -0.7070825 0 0.2588174 -0.9659264 0 -0.2588174 -0.9659264 0 -0.7071311 -0.7070825 0 -0.9659141 -0.2588627 0 0.9659249 -0.2588228 0 0.707085 -0.7071287 0 0.2588636 -0.9659139 0 -0.2588636 -0.9659139 0 -0.7070872 -0.7071264 0 -0.707085 -0.7071287 0 -0.9659249 -0.2588228 0 -0.9659238 -0.2588269 0 0.9659264 -0.2588171 0 0.9659268 -0.2588155 0 0.7070817 -0.7071319 0 0.7070826 -0.7071311 0 0.2588624 -0.9659143 0 -0.2588624 -0.9659143 0 -0.7070834 -0.7071301 0 -0.7070817 -0.7071319 0 -0.9659264 -0.2588171 0 0.7071055 -0.7071082 0 -0.7071076 -0.707106 0 -0.7071055 -0.7071082 0 0.7071058 -0.7071078 0 0.7071066 -0.707107 0 -0.7071076 -0.7071061 0 -0.7071058 -0.7071078 0 0.7071046 -0.707109 0 0.7071134 -0.7071003 0 -0.7071046 -0.707109 0 -0.707109 -0.7071046 0 0.7071105 -0.7071031 0 0.707107 -0.7071066 0 -0.707107 -0.7071066 0 0 0 1 -0.9659141 0.2588627 0 -0.7071051 0.7071085 0 -0.258866 0.9659133 0 0.258866 0.9659133 0 0.7071051 0.7071085 0 0.7071086 0.7071051 0 0.9659124 0.2588692 0 0.9659141 0.2588627 0 -0.965915 0.2588595 0 -0.9659129 0.2588676 0 -0.7071057 0.7071079 0 -0.7071014 0.7071123 0 -0.2588697 0.9659123 0 0.2588697 0.9659123 0 0.7071101 0.7071036 0 0.7071014 0.7071123 0 0.965915 0.2588595 0 0.9659107 0.2588758 0 -0.9659264 0.2588171 0 -0.7071062 0.7071074 0 -0.707108 0.7071056 0 -0.2588165 0.9659266 0 0.2588165 0.9659266 0 0.7071071 0.7071065 0 0.7071062 0.7071074 0 0.9659268 0.2588155 0 0.9659264 0.2588171 0 -0.9659238 0.2588269 0 -0.9659249 0.2588228 0 -0.7071063 0.7071074 0 -0.7071084 0.7071052 0 -0.2588238 0.9659246 0 0.2588238 0.9659246 0 0.7071063 0.7071074 0 0.9659249 0.2588228 0 -0.7070797 0.7071338 0 -0.7070814 0.7071321 0 0.7070806 0.707133 0 0.7070797 0.7071338 0 -0.7070817 0.7071319 0 -0.7070839 0.7071298 0 0.7070817 0.7071319 0 -0.7071316 0.707082 0 0.7071316 0.707082 0 0.7071351 0.7070785 0 -0.7071303 0.7070833 0 -0.7071259 0.7070877 0 0.7071347 0.707079 0 0.7071259 0.7070877 0 0.1367333 0.5102 0.8491172 0.3735001 0.3735035 0.8491131 0.5101971 0.1367285 0.8491198 -0.5101992 0.1367373 0.849117 -0.3735052 0.3735002 0.8491123 -0.136733 0.5102031 0.8491154 -0.9659123 0.2588697 0 -0.7071098 0.7071039 0 -0.2588642 0.9659138 0 0.2588642 0.9659138 0 0.2588627 0.9659141 0 0.7071068 0.7071068 0 0.9659138 0.2588642 0 0.1367137 0.5102014 0.8491195 0.3734939 0.373496 0.8491191 0.510202 0.1367111 0.8491196 -0.5102018 0.1367152 0.8491191 -0.3734962 0.3734962 0.849118 -0.1367137 0.5102014 0.8491195 -0.9659227 0.2588312 0 -0.9659212 0.2588367 0 -0.7071108 0.7071027 0 -0.7071079 0.7071057 0 -0.2588291 0.9659231 0 0.2588291 0.9659231 0 0.7071049 0.7071086 0 0.965924 0.2588257 0 0.1367134 0.5102003 0.8491202 0.373506 0.3734894 0.8491166 0.5101998 0.1367292 0.8491181 -0.5102 0.1367375 0.8491165 -0.3735088 0.373484 0.8491177 -0.1367134 0.5102045 0.8491177 -0.7071286 0.7070851 0 0.2588276 0.9659236 0 0.7071256 0.7070881 0 0.3734869 0.3735089 0.8491165 0.5102056 0.1367121 0.8491172 -0.5102022 0.1367153 0.8491188 -0.3734912 0.3735111 0.8491136 -0.1367333 0.5102 0.8491172 -0.7070921 0.7071216 0 -0.7070891 0.7071245 0 0.7070862 0.7071274 0 -1 0 0 0 1 0 0 1 -1.7004e-6 0 1 -1.70038e-6 1 0 0 0 -1 0 -3.24535e-7 0 1 5.63286e-7 0 1 -4.58754e-7 0 1 -1.89031e-7 0 1 4.58758e-7 0 1 3.24528e-7 0 1 0 0 1 0 0 1 5.54192e-7 0 1 -2.22895e-7 0 1 1.81986e-7 0 1 -1.54826e-7 0 1 -2.58437e-7 0 1 -5.54201e-7 0 1 1.66902e-7 0 1 2.02845e-7 0 1 6.14625e-7 0 1 -8.39623e-7 0 1 2.30015e-7 0 1 -9.14618e-7 0 1 5.35783e-7 0 1 -4.24155e-7 0 1 2.65094e-7 0 1 -7.94612e-7 0 1 5.24769e-7 0 1 -8.57236e-7 0 1 9.14747e-7 0 1 0 0 -1 -0.9876915 -0.1564145 0 -0.9876916 -0.1564145 0 -0.8910017 -0.4540002 0 -0.8909992 -0.4540051 0 -0.707109 -0.7071047 0 -0.7071058 -0.7071078 0 -0.454003 -0.8910002 0 -0.1564209 -0.9876906 0 -0.1564199 -0.9876908 0 0.1564228 -0.9876903 0 0.454003 -0.8910002 0 0.707109 -0.7071047 0 0.7071058 -0.7071078 0 0.8910017 -0.4540002 0 0.8909992 -0.4540051 0 0.9876887 -0.1564328 0 0.9876896 -0.1564267 0 0.9876896 0.1564267 0 0.9876887 0.1564328 0 0.8909991 0.4540052 0 0.8910017 0.4540002 0 0.7071065 0.7071072 0 0.7071096 0.707104 0 0.454001 0.8910012 0 0.454001 0.8910012 0 0.156424 0.98769 0 0.156424 0.98769 0 -0.1564211 0.9876905 0 -0.1564221 0.9876904 0 -0.454001 0.8910012 0 -0.454001 0.8910012 0 -0.7071065 0.7071072 0 -0.7071096 0.707104 0 -0.8909991 0.4540052 0 -0.8910017 0.4540002 0 -0.9876915 0.1564145 0 -0.9876916 0.1564145 0 8.52504e-7 0 -1 -2.87756e-7 0 -1 1.62253e-7 0 -1 -1.62253e-7 0 -1 5.75528e-7 0 -1 -6.76598e-7 0 -1 -2.28458e-7 0 -1 -1.26114e-6 0 -1 1.73811e-6 0 -1 -4.40033e-7 0 -1 4.60423e-6 0 1 -3.72116e-6 0 1 8.52574e-7 0 1 6.48981e-7 0 1 -5.75549e-7 0 1 2.34688e-6 0 1 -7.31037e-6 0 1 1.00891e-5 0 1 -1.39054e-5 0 1 -0.9876607 -0.1566094 0 -0.9876626 -0.1565972 0 -0.8910471 -0.453911 0 -0.8908395 -0.4543182 0 -0.8908395 -0.4543182 0 -0.8908395 -0.4543182 -4.36529e-7 -0.7071651 -0.7070484 0 -0.4539551 -0.8910247 0 -0.1564295 -0.9876891 0 -0.1564315 -0.9876888 0 0.1564334 -0.9876886 0 0.1564334 -0.9876886 0 0.4539449 -0.8910298 0 0.45395 -0.8910272 0 0.7071776 -0.707036 0 0.7071714 -0.7070422 0 0.8910471 -0.453911 0 0.8910522 -0.4539011 0 0.9876587 -0.1566216 0 0.9876607 -0.1566094 0 0.9876607 0.1566094 0 0.9876587 0.1566216 0 0.8910521 0.4539011 0 0.8910471 0.453911 0 0.707172 0.7070416 0 0.7071783 0.7070354 0 0.453948 0.8910282 0 0.453943 0.8910309 0 0.1564346 0.9876883 0 0.1564346 0.9876883 0 -0.1564327 0.9876887 0 -0.1564307 0.987689 0 -0.4539531 0.8910256 0 -0.453953 0.8910256 0 -0.7071658 0.7070479 0 -0.7071658 0.7070478 0 -0.8909048 0.4541901 0 -0.8909048 0.4541901 0 -0.8909048 0.4541901 0 -0.8910471 0.453911 0 -0.9876626 0.1565972 0 -0.9876607 0.1566094 0 -1.59847e-7 0 -1 0 0 -1 0 0 -1 0 0 -1 3.25929e-7 0 -1 -6.30244e-7 0 -1 -1.03833e-6 0 1 1.03834e-6 0 1 1.15114e-6 0 1 -1.15114e-6 0 1 1.37082e-6 0 1 3.47582e-6 0 1 -7.5675e-6 0 1 -0.9876591 -0.1566194 0 -0.987661 -0.1566072 0 -0.891073 -0.4538602 0 -0.891083 -0.4538403 0 -0.7071024 -0.7071113 0 -0.7071024 -0.7071112 0 -0.4538486 -0.891079 0 -0.1566234 -0.9876585 0 -0.1566254 -0.9876582 0 0.1561538 -0.9877328 0 0.1561538 -0.9877328 4.3653e-7 0.1561538 -0.9877328 0 0.1566273 -0.9876579 0 0.4538384 -0.891084 0 0.4538434 -0.8910815 0 0.7071148 -0.7070988 0 0.7071086 -0.707105 0 0.891073 -0.4538602 0 0.8908603 -0.4542774 0 0.8908604 -0.4542774 0 0.8908604 -0.4542774 0 0.9876571 -0.1566316 0 0.987659 -0.1566194 0 0.9876593 0.1566179 0 0.9876574 0.15663 0 0.8910781 0.4538503 0 0.891073 0.4538602 0 0.7071086 0.707105 0 0.7071148 0.7070987 0 0.4538434 0.8910815 0 0.4538384 0.891084 0 0.1566178 0.9876593 0 0.1566178 0.9876593 0 -0.1566159 0.9876596 0 -0.156614 0.9876599 0 -0.4538486 0.891079 0 -0.7071024 0.7071113 0 -0.7071024 0.7071112 0 -0.891083 0.4538403 0 -0.891073 0.4538602 0 -0.9876613 0.1566057 0 -0.9877118 0.1562864 0 -0.9877118 0.1562864 0 -0.9877118 0.1562864 0 -2.59608e-7 0 -1 -1.23445e-7 0 -1 1.29798e-7 0 -1 0 0 -1 -3.15606e-7 0 -1 -3.41068e-6 0 1 9.38839e-6 0 1 -3.65621e-6 0 1 3.41076e-6 0 1 -9.38857e-6 0 1 3.65619e-6 0 1 -1.39099e-5 0 1 2.01546e-5 0 1 -9.87572e-7 0 1 -1.42781e-6 0 1 -0.98769 -0.1564245 0 -0.98769 -0.1564245 0 -0.8910276 -0.4539494 0 -0.891025 -0.4539543 0 -0.7070462 -0.7071675 0 -0.7070431 -0.7071706 0 -0.4538964 -0.8910544 0 -0.1566147 -0.9876598 0 -0.1566138 -0.98766 0 0.1566167 -0.9876595 0 0.1566167 -0.9876595 0 0.4538964 -0.8910544 0 0.7070462 -0.7071675 0 0.7070431 -0.7071706 0 0.8910276 -0.4539494 0 0.891025 -0.4539543 0 0.9876871 -0.1564428 0 0.9876881 -0.1564367 0 0.9876883 0.1564352 0 0.9876874 0.1564413 0 0.891025 0.4539543 0 0.8910276 0.4539494 0 0.707043 0.7071706 0 0.7070462 0.7071674 0 0.4538964 0.8910544 0 0.1566072 0.9876611 0 0.1566072 0.9876611 0 -0.1566042 0.9876615 0 -0.1566053 0.9876614 0 -0.4538964 0.8910544 0 -0.707043 0.7071706 0 -0.7070462 0.7071674 0 -0.891025 0.4539543 0 -0.8910276 0.4539494 0 -0.9876902 0.156423 0 -0.9876902 0.156423 0 0 0 -1 0 0 -1 -2.53725e-7 0 -1 8.5255e-7 0 -1 2.53724e-7 0 -1 -8.5255e-7 0 -1 1.73827e-6 0 -1 -4.56901e-7 0 -1 -4.40004e-7 0 -1 -1.73833e-6 0 -1 4.56898e-7 0 -1 4.40004e-7 0 -1 -1.35791e-6 0 1 1.42785e-6 0 1 -2.70639e-6 0 1 6.8204e-6 0 1 2.7064e-6 0 1 -6.8204e-6 0 1 -2.01784e-5 0 1 3.65518e-6 0 1 -4.69338e-6 0 1 1.39068e-5 0 1 -3.65521e-6 0 1 4.69338e-6 0 1</float_array>
          <technique_common>
            <accessor source="#shape0_012-mesh-normals-array" count="450" stride="3">
              <param name="X" type="float"/>
              <param name="Y" type="float"/>
              <param name="Z" type="float"/>
            </accessor>
          </technique_common>
        </source>
        <vertices id="shape0_012-mesh-vertices">
          <input semantic="POSITION" source="#shape0_012-mesh-positions"/>
        </vertices>
        <triangles count="980">
          <input semantic="VERTEX" source="#shape0_012-mesh-vertices" offset="0"/>
          <input semantic="NORMAL" source="#shape0_012-mesh-normals" offset="1"/>
          <p>0 0 1 0 2 0 2 0 1 0 3 0 2 1 3 1 4 1 4 1 3 1 5 1 4 2 5 2 6 2 6 2 5 2 7 2 6 3 7 3 8 3 8 3 7 3 9 3 8 4 9 4 10 4 10 5 9 5 11 5 10 6 11 6 12 6 12 7 11 7 13 7 14 8 9 8 7 8 11 9 9 9 14 9 13 10 11 10 14 10 14 11 3 11 1 11 5 12 3 12 14 12 7 13 5 13 14 13 15 14 16 14 17 14 17 14 16 14 18 14 17 15 18 15 19 15 19 15 18 15 20 15 19 16 20 16 21 16 21 17 20 17 22 17 21 18 22 18 23 18 23 18 22 18 24 18 23 19 24 19 25 19 25 19 24 19 26 19 25 20 26 20 27 20 27 20 26 20 28 20 29 21 24 21 22 21 26 22 24 22 29 22 28 23 26 23 29 23 29 24 18 24 16 24 20 25 18 25 29 25 22 26 20 26 29 26 30 0 31 0 32 0 32 0 31 0 33 0 32 27 33 27 34 27 34 27 33 27 35 27 34 17 35 17 36 17 36 17 35 17 37 17 36 18 37 18 38 18 38 18 37 18 39 18 38 28 39 28 40 28 40 29 39 29 41 29 40 6 41 6 42 6 42 7 41 7 43 7 44 30 39 30 37 30 41 31 39 31 44 31 43 32 41 32 44 32 44 33 33 33 31 33 35 34 33 34 44 34 37 35 35 35 44 35 45 14 46 14 47 14 47 14 46 14 48 14 47 36 48 36 49 36 49 36 48 36 50 36 49 37 50 37 51 37 51 2 50 2 52 2 51 3 52 3 53 3 53 3 52 3 54 3 53 38 54 38 55 38 55 38 54 38 56 38 55 20 56 20 57 20 57 20 56 20 58 20 59 39 54 39 52 39 56 40 54 40 59 40 58 23 56 23 59 23 59 41 48 41 46 41 50 42 48 42 59 42 52 13 50 13 59 13 60 43 61 43 62 43 62 44 61 44 63 44 62 45 63 45 64 45 64 46 63 46 65 46 64 47 65 47 66 47 66 47 65 47 67 47 66 48 67 48 68 48 68 48 67 48 69 48 68 49 69 49 70 49 70 50 69 50 71 50 70 51 71 51 72 51 72 52 71 52 73 52 74 53 75 53 76 53 76 54 75 54 77 54 76 55 77 55 78 55 78 56 77 56 79 56 78 57 79 57 80 57 80 57 79 57 81 57 80 58 81 58 82 58 82 58 81 58 83 58 82 59 83 59 84 59 84 59 83 59 85 59 84 60 85 60 86 60 86 60 85 60 87 60 88 61 89 61 90 61 90 61 89 61 91 61 90 62 91 62 92 62 92 62 91 62 93 62 92 63 93 63 94 63 94 63 93 63 95 63 94 64 95 64 96 64 96 64 95 64 97 64 96 65 97 65 98 65 98 66 97 66 99 66 98 67 99 67 100 67 100 68 99 68 101 68 102 69 103 69 104 69 104 70 103 70 105 70 104 71 105 71 106 71 106 72 105 72 107 72 106 73 107 73 108 73 108 73 107 73 109 73 108 74 109 74 110 74 110 74 109 74 111 74 110 75 111 75 112 75 112 76 111 76 113 76 112 77 113 77 114 77 114 77 113 77 115 77 116 61 117 61 118 61 118 61 117 61 119 61 118 78 119 78 120 78 120 78 119 78 121 78 120 47 121 47 122 47 122 47 121 47 123 47 122 48 123 48 124 48 124 48 123 48 125 48 124 79 125 79 126 79 126 80 125 80 127 80 126 67 127 67 128 67 128 68 127 68 129 68 130 69 131 69 132 69 132 70 131 70 133 70 132 81 133 81 134 81 134 82 133 82 135 82 134 57 135 57 136 57 136 57 135 57 137 57 136 58 137 58 138 58 138 58 137 58 139 58 138 83 139 83 140 83 140 84 139 84 141 84 140 77 141 77 142 77 142 77 141 77 143 77 144 43 145 43 146 43 146 44 145 44 147 44 146 85 147 85 148 85 148 86 147 86 149 86 148 63 149 63 150 63 150 63 149 63 151 63 150 64 151 64 152 64 152 64 151 64 153 64 152 87 153 87 154 87 154 88 153 88 155 88 154 51 155 51 156 51 156 52 155 52 157 52 158 53 159 53 160 53 160 54 159 54 161 54 160 89 161 89 162 89 162 90 161 90 163 90 162 73 163 73 164 73 164 73 163 73 165 73 164 74 165 74 166 74 166 74 165 74 167 74 166 91 167 91 168 91 168 91 167 91 169 91 168 60 169 60 170 60 170 60 169 60 171 60 154 92 169 92 152 92 152 92 169 92 167 92 152 92 167 92 150 92 150 92 167 92 165 92 150 92 165 92 148 92 148 92 165 92 163 92 148 92 163 92 146 92 146 92 163 92 161 92 146 92 161 92 144 92 144 92 161 92 159 92 144 92 159 92 172 92 172 92 159 92 173 92 172 92 173 92 174 92 174 92 173 92 175 92 174 92 175 92 176 92 176 92 175 92 177 92 176 92 177 92 178 92 178 92 177 92 179 92 178 92 179 92 180 92 180 92 179 92 181 92 180 92 181 92 156 92 156 92 181 92 171 92 156 92 171 92 154 92 154 92 171 92 169 92 170 93 171 93 182 93 182 93 171 93 181 93 182 94 181 94 183 94 183 94 181 94 179 94 183 95 179 95 184 95 184 95 179 95 177 95 184 96 177 96 185 96 185 96 177 96 175 96 185 97 175 97 186 97 186 98 175 98 173 98 186 99 173 99 158 99 158 100 173 100 159 100 156 101 157 101 180 101 180 102 157 102 187 102 180 103 187 103 178 103 178 104 187 104 188 104 178 105 188 105 176 105 176 105 188 105 189 105 176 106 189 106 174 106 174 106 189 106 190 106 174 107 190 107 172 107 172 108 190 108 191 108 172 109 191 109 144 109 144 110 191 110 145 110 126 92 141 92 124 92 124 92 141 92 139 92 124 92 139 92 122 92 122 92 139 92 137 92 122 92 137 92 120 92 120 92 137 92 135 92 120 92 135 92 118 92 118 92 135 92 133 92 118 92 133 92 116 92 116 92 133 92 131 92 116 92 131 92 192 92 192 92 131 92 193 92 192 92 193 92 194 92 194 92 193 92 195 92 194 92 195 92 196 92 196 92 195 92 197 92 196 92 197 92 198 92 198 92 197 92 199 92 198 92 199 92 200 92 200 92 199 92 201 92 200 92 201 92 128 92 128 92 201 92 143 92 128 92 143 92 126 92 126 92 143 92 141 92 142 111 143 111 202 111 202 111 143 111 201 111 202 112 201 112 203 112 203 113 201 113 199 113 203 114 199 114 204 114 204 114 199 114 197 114 204 115 197 115 205 115 205 115 197 115 195 115 205 116 195 116 206 116 206 117 195 117 193 117 206 118 193 118 130 118 130 119 193 119 131 119 128 120 129 120 200 120 200 121 129 121 207 121 200 122 207 122 198 122 198 123 207 123 208 123 198 124 208 124 196 124 196 124 208 124 209 124 196 125 209 125 194 125 194 125 209 125 210 125 194 126 210 126 192 126 192 126 210 126 211 126 192 127 211 127 116 127 116 127 211 127 117 127 92 92 107 92 90 92 90 92 107 92 105 92 90 92 105 92 88 92 88 92 105 92 103 92 88 92 103 92 212 92 212 92 103 92 213 92 212 92 213 92 214 92 214 92 213 92 215 92 214 92 215 92 216 92 216 92 215 92 217 92 216 92 217 92 218 92 218 92 217 92 219 92 218 92 219 92 220 92 220 92 219 92 221 92 220 92 221 92 100 92 100 92 221 92 115 92 100 92 115 92 98 92 98 92 115 92 113 92 98 92 113 92 96 92 96 92 113 92 111 92 96 92 111 92 94 92 94 92 111 92 109 92 94 92 109 92 92 92 92 92 109 92 107 92 114 111 115 111 222 111 222 111 115 111 221 111 222 128 221 128 223 128 223 129 221 129 219 129 223 95 219 95 224 95 224 95 219 95 217 95 224 96 217 96 225 96 225 96 217 96 215 96 225 130 215 130 226 130 226 131 215 131 213 131 226 118 213 118 102 118 102 119 213 119 103 119 100 120 101 120 220 120 220 121 101 121 227 121 220 132 227 132 218 132 218 133 227 133 228 133 218 105 228 105 216 105 216 105 228 105 229 105 216 106 229 106 214 106 214 106 229 106 230 106 214 134 230 134 212 134 212 134 230 134 231 134 212 127 231 127 88 127 88 127 231 127 89 127 70 92 85 92 68 92 68 92 85 92 83 92 68 92 83 92 66 92 66 92 83 92 81 92 66 92 81 92 64 92 64 92 81 92 79 92 64 92 79 92 62 92 62 92 79 92 77 92 62 92 77 92 60 92 60 92 77 92 75 92 60 92 75 92 232 92 232 92 75 92 233 92 232 92 233 92 234 92 234 92 233 92 235 92 234 92 235 92 236 92 236 92 235 92 237 92 236 92 237 92 238 92 238 92 237 92 239 92 238 92 239 92 240 92 240 92 239 92 241 92 240 92 241 92 72 92 72 92 241 92 87 92 72 92 87 92 70 92 70 92 87 92 85 92 86 93 87 93 242 93 242 93 87 93 241 93 242 135 241 135 243 135 243 135 241 135 239 135 243 114 239 114 244 114 244 114 239 114 237 114 244 115 237 115 245 115 245 115 237 115 235 115 245 136 235 136 246 136 246 137 235 137 233 137 246 99 233 99 74 99 74 100 233 100 75 100 72 101 73 101 240 101 240 102 73 102 247 102 240 138 247 138 238 138 238 139 247 139 248 139 238 124 248 124 236 124 236 124 248 124 249 124 236 125 249 125 234 125 234 125 249 125 250 125 234 140 250 140 232 140 232 141 250 141 251 141 232 109 251 109 60 109 60 110 251 110 61 110 59 142 252 142 253 142 254 143 252 143 59 143 46 144 254 144 59 144 59 145 255 145 58 145 256 146 255 146 59 146 253 147 256 147 59 147 57 148 58 148 257 148 257 148 58 148 255 148 257 149 255 149 258 149 258 149 255 149 256 149 258 150 256 150 259 150 259 150 256 150 253 150 259 151 253 151 260 151 260 152 253 152 252 152 260 153 252 153 261 153 261 153 252 153 254 153 261 154 254 154 45 154 45 154 254 154 46 154 44 155 262 155 263 155 264 156 262 156 44 156 31 157 264 157 44 157 44 158 265 158 43 158 266 159 265 159 44 159 263 160 266 160 44 160 42 161 43 161 267 161 267 162 43 162 265 162 267 163 265 163 268 163 268 164 265 164 266 164 268 165 266 165 269 165 269 165 266 165 263 165 269 166 263 166 270 166 270 166 263 166 262 166 270 167 262 167 271 167 271 167 262 167 264 167 271 168 264 168 30 168 30 168 264 168 31 168 29 169 272 169 273 169 274 170 272 170 29 170 16 171 274 171 29 171 29 172 275 172 28 172 276 173 275 173 29 173 273 174 276 174 29 174 27 148 28 148 277 148 277 148 28 148 275 148 277 175 275 175 278 175 278 175 275 175 276 175 278 165 276 165 279 165 279 165 276 165 273 165 279 166 273 166 280 166 280 176 273 176 272 176 280 177 272 177 281 177 281 177 272 177 274 177 281 154 274 154 15 154 15 154 274 154 16 154 14 142 282 142 283 142 284 178 282 178 14 178 1 179 284 179 14 179 14 180 285 180 13 180 286 181 285 181 14 181 283 182 286 182 14 182 12 161 13 161 287 161 287 162 13 162 285 162 287 183 285 183 288 183 288 184 285 184 286 184 288 150 286 150 289 150 289 150 286 150 283 150 289 151 283 151 290 151 290 151 283 151 282 151 290 185 282 185 291 185 291 185 282 185 284 185 291 168 284 168 0 168 0 168 284 168 1 168 292 186 293 186 294 186 294 186 295 186 292 186 292 186 295 186 296 186 292 186 296 186 297 186 297 186 296 186 298 186 297 186 298 186 299 186 300 187 301 187 302 187 302 187 303 187 300 187 300 188 303 188 304 188 300 187 304 187 305 187 305 189 304 189 306 189 305 187 306 187 307 187 308 190 309 190 310 190 307 190 311 190 305 190 305 190 311 190 312 190 305 190 312 190 310 190 310 190 312 190 313 190 310 190 313 190 308 190 314 191 293 191 292 191 309 191 315 191 310 191 310 191 315 191 316 191 310 191 316 191 292 191 292 191 316 191 317 191 292 191 317 191 314 191 168 92 170 92 311 92 307 92 306 92 311 92 311 92 306 92 318 92 259 92 260 92 319 92 260 92 261 92 319 92 319 92 261 92 45 92 319 92 45 92 304 92 45 92 47 92 304 92 304 192 47 192 49 192 304 92 49 92 306 92 306 193 49 193 51 193 306 194 51 194 53 194 53 92 55 92 306 92 306 92 55 92 57 92 306 195 57 195 318 195 318 92 57 92 257 92 318 92 257 92 258 92 0 92 2 92 303 92 319 92 287 92 288 92 2 92 4 92 303 92 303 196 4 196 6 196 303 92 6 92 304 92 6 92 8 92 304 92 304 197 8 197 10 197 304 198 10 198 319 198 319 92 10 92 12 92 319 92 12 92 287 92 289 92 290 92 320 92 320 92 290 92 291 92 320 92 291 92 0 92 0 92 303 92 320 92 320 92 303 92 302 92 320 92 302 92 321 92 162 92 164 92 318 92 311 92 170 92 312 92 318 92 164 92 311 92 311 92 164 92 166 92 311 92 166 92 168 92 170 92 182 92 312 92 312 92 182 92 183 92 312 92 183 92 322 92 322 92 183 92 184 92 322 92 184 92 185 92 185 92 186 92 322 92 322 92 186 92 158 92 322 92 158 92 318 92 318 92 158 92 160 92 318 92 160 92 162 92 223 92 224 92 323 92 223 92 323 92 222 92 222 92 323 92 114 92 114 92 323 92 320 92 114 92 320 92 112 92 104 92 106 92 321 92 321 92 106 92 108 92 321 92 108 92 320 92 320 92 108 92 110 92 320 92 110 92 112 92 224 92 225 92 324 92 324 92 225 92 226 92 324 92 226 92 321 92 321 92 226 92 102 92 321 92 102 92 104 92 242 92 243 92 313 92 325 92 244 92 245 92 312 92 84 92 313 92 313 92 84 92 86 92 313 199 86 199 242 199 76 92 322 92 74 92 74 92 322 92 325 92 74 200 325 200 246 200 246 92 325 92 245 92 76 92 78 92 322 92 322 201 78 201 80 201 322 92 80 92 312 92 312 202 80 202 82 202 312 203 82 203 84 203 288 92 289 92 319 92 319 92 289 92 320 92 319 92 320 92 326 92 326 92 320 92 323 92 326 92 323 92 327 92 327 92 323 92 328 92 136 92 138 92 323 92 204 92 205 92 329 92 224 92 324 92 323 92 323 92 324 92 134 92 323 204 134 204 136 204 138 92 140 92 323 92 323 92 140 92 142 92 323 92 142 92 328 92 328 205 142 205 202 205 328 92 202 92 203 92 205 92 206 92 329 92 329 206 206 206 130 206 329 92 130 92 324 92 324 92 130 92 132 92 324 207 132 207 134 207 243 92 244 92 313 92 313 92 244 92 325 92 313 92 325 92 308 92 308 92 325 92 330 92 308 92 330 92 309 92 325 92 21 92 23 92 280 208 331 208 279 208 279 92 331 92 330 92 279 209 330 209 278 209 281 92 15 92 327 92 327 210 15 210 17 210 327 92 17 92 19 92 23 92 25 92 325 92 325 211 25 211 27 211 325 92 27 92 330 92 330 92 27 92 277 92 330 212 277 212 278 212 258 92 259 92 318 92 318 92 259 92 319 92 318 92 319 92 322 92 322 92 319 92 326 92 322 92 326 92 325 92 325 92 326 92 327 92 325 92 327 92 21 92 21 92 327 92 19 92 34 92 36 92 328 92 40 92 42 92 327 92 327 92 42 92 331 92 327 92 331 92 281 92 281 213 331 213 280 213 328 92 36 92 327 92 327 92 36 92 38 92 327 92 38 92 40 92 42 92 267 92 331 92 331 214 267 214 268 214 331 92 268 92 332 92 332 215 268 215 269 215 332 216 269 216 270 216 270 217 271 217 332 217 332 92 271 92 30 92 332 92 30 92 328 92 328 218 30 218 32 218 328 92 32 92 34 92 203 92 204 92 328 92 328 92 204 92 329 92 328 92 329 92 332 92 332 92 329 92 333 92 309 92 330 92 315 92 315 92 330 92 331 92 315 92 331 92 316 92 316 92 331 92 332 92 316 92 332 92 317 92 317 92 332 92 333 92 317 92 333 92 314 92 302 92 334 92 321 92 321 92 334 92 335 92 321 92 335 92 324 92 324 92 335 92 336 92 324 92 336 92 329 92 329 92 336 92 337 92 329 92 337 92 333 92 333 92 337 92 338 92 333 92 338 92 314 92 314 92 338 92 339 92 340 219 89 219 292 219 292 219 89 219 231 219 305 219 155 219 153 219 117 219 211 219 292 219 292 219 211 219 210 219 292 219 210 219 209 219 250 219 208 219 207 219 95 219 93 219 340 219 340 219 93 219 91 219 340 219 91 219 89 219 127 219 125 219 227 219 209 219 208 219 292 219 292 219 208 219 250 219 292 219 250 219 310 219 310 219 250 219 249 219 95 219 340 219 97 219 97 219 340 219 305 219 97 219 305 219 99 219 117 219 292 219 119 219 119 219 292 219 231 219 119 219 231 219 121 219 121 219 231 219 230 219 121 219 230 219 123 219 123 219 230 219 229 219 123 219 229 219 125 219 125 219 229 219 228 219 125 219 228 219 227 219 69 219 67 219 227 219 227 219 67 219 65 219 227 219 65 219 127 219 127 219 65 219 63 219 127 219 63 219 129 219 129 219 63 219 61 219 129 219 61 219 207 219 207 219 61 219 251 219 207 219 251 219 250 219 249 219 248 219 310 219 310 219 248 219 247 219 310 219 247 219 73 219 153 219 151 219 305 219 305 219 151 219 149 219 305 219 149 219 99 219 99 219 149 219 147 219 99 219 147 219 101 219 101 219 147 219 145 219 101 219 145 219 227 219 227 219 145 219 191 219 227 219 191 219 69 219 69 219 191 219 190 219 69 219 190 219 71 219 71 219 190 219 189 219 71 219 189 219 73 219 73 219 189 219 188 219 73 219 188 219 310 219 310 219 188 219 187 219 310 219 187 219 305 219 305 219 187 219 157 219 305 219 157 219 155 219 341 220 342 220 343 220 341 221 343 221 344 221 344 222 343 222 345 222 344 223 345 223 346 223 346 224 345 224 347 224 346 225 347 225 348 225 348 226 347 226 349 226 348 226 349 226 350 226 350 227 349 227 351 227 350 228 351 228 352 228 352 229 351 229 353 229 352 229 353 229 354 229 354 230 353 230 355 230 354 230 355 230 356 230 356 231 355 231 357 231 356 232 357 232 358 232 358 233 357 233 359 233 358 234 359 234 360 234 360 235 359 235 361 235 360 236 361 236 362 236 362 237 361 237 363 237 362 238 363 238 364 238 364 239 363 239 365 239 364 240 365 240 366 240 366 241 365 241 367 241 366 242 367 242 368 242 368 243 367 243 369 243 368 244 369 244 370 244 370 245 369 245 371 245 370 246 371 246 372 246 372 247 371 247 373 247 372 248 373 248 374 248 374 249 373 249 375 249 374 250 375 250 376 250 376 251 375 251 377 251 376 252 377 252 378 252 378 253 377 253 379 253 378 254 379 254 380 254 380 255 379 255 342 255 380 256 342 256 341 256 373 219 371 219 351 219 349 219 347 219 377 219 357 257 355 257 367 257 349 219 377 219 351 219 351 258 377 258 375 258 351 259 375 259 373 259 371 219 369 219 351 219 351 260 369 260 367 260 351 261 367 261 353 261 353 262 367 262 355 262 347 219 345 219 377 219 377 263 345 263 343 263 377 219 343 219 379 219 379 219 343 219 342 219 367 264 365 264 363 264 363 265 361 265 367 265 367 219 361 219 359 219 367 266 359 266 357 266 370 92 350 92 368 92 368 92 350 92 366 92 350 267 352 267 366 267 366 268 352 268 354 268 366 269 354 269 356 269 370 92 372 92 350 92 350 270 372 270 374 270 350 271 374 271 376 271 376 92 378 92 350 92 350 92 378 92 380 92 350 272 380 272 341 272 341 273 344 273 350 273 350 92 344 92 346 92 350 274 346 274 348 274 356 92 358 92 366 92 366 92 358 92 360 92 366 275 360 275 364 275 364 92 360 92 362 92 381 276 382 276 383 276 381 277 383 277 384 277 384 278 383 278 385 278 384 279 385 280 386 281 386 282 385 282 387 282 386 282 387 282 388 282 388 283 387 283 389 283 388 283 389 283 390 283 390 284 389 284 391 284 390 285 391 285 392 285 392 286 391 286 393 286 392 287 393 287 394 287 394 288 393 288 395 288 394 289 395 289 396 289 396 290 395 290 397 290 396 291 397 291 398 291 398 292 397 292 399 292 398 293 399 293 400 293 400 294 399 294 401 294 400 295 401 295 402 295 402 296 401 296 403 296 402 297 403 297 404 297 404 298 403 298 405 298 404 299 405 299 406 299 406 300 405 300 407 300 406 301 407 301 408 301 408 302 407 302 409 302 408 303 409 303 410 303 410 304 409 304 411 304 410 305 411 305 412 305 412 306 411 306 413 306 412 307 413 307 414 307 414 308 413 308 415 308 414 309 415 309 416 309 416 310 415 310 417 310 416 311 417 311 418 311 418 312 417 313 419 314 418 315 419 315 420 315 420 316 419 316 382 316 420 317 382 317 381 317 401 219 399 219 419 219 397 219 389 219 399 219 399 318 389 318 387 318 399 319 387 319 385 319 385 219 383 219 399 219 399 219 383 219 382 219 399 219 382 219 419 219 397 320 395 320 389 320 389 219 395 219 393 219 389 219 393 219 391 219 401 219 419 219 403 219 403 219 419 219 417 219 403 219 417 219 405 219 405 219 417 219 415 219 405 321 415 321 413 321 413 219 411 219 405 219 405 322 411 322 409 322 405 323 409 323 407 323 398 92 400 92 418 92 418 324 400 324 402 324 418 92 420 92 398 92 398 325 420 325 381 325 398 326 381 326 384 326 392 92 394 92 390 92 390 92 394 92 388 92 384 92 386 92 398 92 398 92 386 92 388 92 398 92 388 92 396 92 396 92 388 92 394 92 402 327 404 327 418 327 418 92 404 92 406 92 418 92 406 92 408 92 408 92 410 92 418 92 418 328 410 328 412 328 418 329 412 329 416 329 416 330 412 330 414 330 421 331 422 331 423 331 421 332 423 332 424 332 424 333 423 333 425 333 424 334 425 334 426 334 426 335 425 335 427 335 426 336 427 336 428 336 428 337 427 337 429 337 428 337 429 337 430 337 430 338 429 338 431 338 430 339 431 339 432 339 432 340 431 341 433 342 432 343 433 343 434 343 434 344 433 344 435 344 434 345 435 345 436 345 436 346 435 346 437 346 436 347 437 347 438 347 438 348 437 348 439 348 438 349 439 350 440 351 440 352 439 352 441 352 440 353 441 353 442 353 442 354 441 354 443 354 442 355 443 355 444 355 444 356 443 356 445 356 444 357 445 357 446 357 446 358 445 358 447 358 446 359 447 359 448 359 448 360 447 360 449 360 448 361 449 361 450 361 450 362 449 362 451 362 450 363 451 363 452 363 452 364 451 364 453 364 452 365 453 365 454 365 454 366 453 366 455 366 454 366 455 366 456 366 456 367 455 367 457 367 456 368 457 368 458 368 458 369 457 369 459 369 458 370 459 370 460 370 460 371 459 371 422 371 460 372 422 373 421 374 423 375 422 375 445 375 441 219 439 219 425 219 422 219 459 219 445 219 445 219 459 219 457 219 445 219 457 219 447 219 447 219 457 219 455 219 423 219 445 219 425 219 425 376 445 376 443 376 425 377 443 377 441 377 439 219 437 219 425 219 425 219 437 219 435 219 425 219 435 219 427 219 427 219 435 219 433 219 427 219 433 219 429 219 429 219 433 219 431 219 455 219 453 219 447 219 447 378 453 378 451 378 447 379 451 379 449 379 421 92 424 92 426 92 452 92 454 92 428 92 434 92 448 92 432 92 432 92 448 92 430 92 454 92 456 92 428 92 428 380 456 380 458 380 428 381 458 381 426 381 426 382 458 382 460 382 426 92 460 92 421 92 434 92 436 92 448 92 448 383 436 383 438 383 448 384 438 384 446 384 446 385 438 385 440 385 446 386 440 386 444 386 444 387 440 387 442 387 430 92 448 92 428 92 428 388 448 388 450 388 428 389 450 389 452 389 461 390 462 390 463 390 461 391 463 391 464 391 464 392 463 392 465 392 464 393 465 393 466 393 466 394 465 394 467 394 466 395 467 395 468 395 468 396 467 396 469 396 468 396 469 396 470 396 470 397 469 397 471 397 470 398 471 398 472 398 472 399 471 399 473 399 472 400 473 400 474 400 474 401 473 401 475 401 474 401 475 401 476 401 476 402 475 402 477 402 476 403 477 403 478 403 478 404 477 404 479 404 478 405 479 405 480 405 480 406 479 406 481 406 480 407 481 407 482 407 482 408 481 408 483 408 482 409 483 409 484 409 484 410 483 410 485 410 484 411 485 411 486 411 486 412 485 412 487 412 486 413 487 413 488 413 488 414 487 414 489 414 488 414 489 414 490 414 490 415 489 415 491 415 490 416 491 416 492 416 492 417 491 417 493 417 492 418 493 418 494 418 494 419 493 419 495 419 494 419 495 419 496 419 496 420 495 420 497 420 496 421 497 421 498 421 498 422 497 422 499 422 498 423 499 423 500 423 500 424 499 424 462 424 500 425 462 425 461 425 491 219 489 219 473 219 491 219 473 219 493 219 493 426 473 426 471 426 493 427 471 427 469 427 489 219 487 219 473 219 473 428 487 428 485 428 473 429 485 429 475 429 469 219 467 219 493 219 493 430 467 430 465 430 493 431 465 431 495 431 485 219 483 219 481 219 465 219 463 219 462 219 481 432 479 432 485 432 485 433 479 433 477 433 485 434 477 434 475 434 462 435 499 435 465 435 465 436 499 436 497 436 465 437 497 437 495 437 472 92 474 92 490 92 472 92 490 92 470 92 470 438 490 438 492 438 470 439 492 439 494 439 474 92 476 92 490 92 490 440 476 440 478 440 490 441 478 441 488 441 494 92 496 92 470 92 470 442 496 442 498 442 470 443 498 443 468 443 478 92 480 92 482 92 498 444 500 444 461 444 482 92 484 92 478 92 478 445 484 445 486 445 478 446 486 446 488 446 461 447 464 447 498 447 498 448 464 448 466 448 498 449 466 449 468 449</p>
        </triangles>
      </mesh>
    </geometry>
  </library_geometries>
  <library_visual_scenes>
    <visual_scene id="Scene" name="Scene">
      <node id="node_001" name="node.001" type="NODE">
        <matrix sid="transform">7.54979e-11 -0.001 0 0.05 0.001 7.54979e-11 0 0.9 0 0 0.001 0.119 0 0 0 1</matrix>
        <instance_geometry url="#shape0_012-mesh" name="node.001"/>
      </node>
    </visual_scene>
  </library_visual_scenes>
  <scene>
    <instance_visual_scene url="#Scene"/>
  </scene>
</COLLADA>