ply
format ascii 1.0
comment Written by HALCON (export v1.0)
element vertex 657
property float x
property float y
property float z
element face 1338
property list uchar int vertex_index
end_header
-2.316152e-002 1.167909e-002 -1.848301e-002
-2.200000e-002 1.101287e-002 -1.824053e-002
-2.200000e-002 1.306499e-002 -1.260237e-002
-2.316152e-002 1.373121e-002 -1.284486e-002
-2.408887e-002 1.261493e-002 -1.882363e-002
-2.408887e-002 1.466705e-002 -1.318547e-002
-2.471335e-002 1.375107e-002 -1.923715e-002
-2.471335e-002 1.580319e-002 -1.359900e-002
-2.498870e-002 1.500335e-002 -1.969295e-002
-2.498870e-002 1.705548e-002 -1.405479e-002
-2.489453e-002 1.627903e-002 -2.015725e-002
-2.489453e-002 1.833115e-002 -1.451910e-002
-2.443782e-002 1.748359e-002 -2.059568e-002
-2.443782e-002 1.953571e-002 -1.495752e-002
-2.365239e-002 1.852783e-002 -2.097575e-002
-2.365239e-002 2.057995e-002 -1.533760e-002
-2.259642e-002 1.933439e-002 -2.126932e-002
-2.259642e-002 2.138652e-002 -1.563116e-002
-2.134813e-002 1.984353e-002 -2.145463e-002
-2.134813e-002 2.189565e-002 -1.581647e-002
-1.999998e-002 2.206966e-002 -1.587981e-002
-1.999998e-002 2.001754e-002 -2.151796e-002
-2.200000e-002 5.766281e-003 -9.945861e-003
-2.200000e-002 5.766281e-003 -1.633093e-002
1.999998e-002 2.001754e-002 -2.151796e-002
1.999998e-002 2.206966e-002 -1.587981e-002
-2.104357e-002 6.170399e-003 -1.647801e-002
-1.350000e-002 1.250000e-002 -1.878180e-002
-1.500000e-003 1.250000e-002 -1.878180e-002
-1.799054e-003 1.236986e-002 -1.873443e-002
-3.011967e-003 1.213170e-002 -1.864775e-002
-1.981163e-002 1.719290e-002 -2.048988e-002
-1.907295e-002 1.706049e-002 -2.044168e-002
-4.195427e-003 1.177491e-002 -1.851789e-002
1.500000e-003 1.250000e-002 -1.878180e-002
1.350000e-002 1.250000e-002 -1.878180e-002
2.307099e-003 1.228525e-002 -1.870364e-002
4.195423e-003 1.177491e-002 -1.851789e-002
-1.700000e-002 1.437938e-002 -1.946584e-002
-1.709425e-002 1.508046e-002 -1.972101e-002
-1.350000e-002 1.531908e-002 -1.980786e-002
-2.056214e-002 1.714853e-002 -2.047373e-002
-1.709425e-002 1.367831e-002 -1.921067e-002
-2.127734e-002 1.693016e-002 -2.039425e-002
1.350000e-002 1.531908e-002 -1.980786e-002
1.808773e-002 1.655152e-002 -2.025643e-002
1.757295e-002 1.603640e-002 -2.006894e-002
-1.737108e-002 1.302128e-002 -1.897153e-002
1.721067e-002 1.541716e-002 -1.984356e-002
1.702366e-002 1.473271e-002 -1.959444e-002
1.702366e-002 1.402606e-002 -1.933724e-002
2.218691e-002 1.630918e-002 -2.016823e-002
2.365239e-002 1.852783e-002 -2.097575e-002
2.443782e-002 1.748359e-002 -2.059568e-002
2.160748e-002 1.675961e-002 -2.033217e-002
-2.191227e-002 1.655152e-002 -2.025643e-002
-1.781309e-002 1.244959e-002 -1.876345e-002
2.259642e-002 1.933439e-002 -2.126932e-002
2.104357e-002 6.170399e-003 -1.647801e-002
2.200000e-002 1.101287e-002 -1.824053e-002
2.200000e-002 5.766281e-003 -1.633093e-002
2.262892e-002 1.573749e-002 -1.996015e-002
2.489453e-002 1.627903e-002 -2.015725e-002
-1.839252e-002 1.199916e-002 -1.859951e-002
2.003500e-002 6.417070e-003 -1.656779e-002
2.092705e-002 1.706049e-002 -2.044168e-002
2.018837e-002 1.156587e-002 -1.844181e-002
2.134813e-002 1.984353e-002 -2.145463e-002
-2.242705e-002 1.603640e-002 -2.006894e-002
2.290575e-002 1.508046e-002 -1.972101e-002
2.498870e-002 1.500335e-002 -1.969295e-002
1.721067e-002 1.334161e-002 -1.908812e-002
1.757295e-002 1.272237e-002 -1.886274e-002
1.808773e-002 1.220725e-002 -1.867525e-002
2.018837e-002 1.719290e-002 -2.048988e-002
1.900001e-002 6.500000e-003 -1.659798e-002
1.872266e-002 1.182861e-002 -1.853743e-002
1.943786e-002 1.161024e-002 -1.845795e-002
2.300000e-002 1.437938e-002 -1.946584e-002
2.471335e-002 1.375107e-002 -1.923715e-002
1.500000e-003 1.531908e-002 -1.980786e-002
1.943786e-002 1.714853e-002 -2.047373e-002
-2.278933e-002 1.541716e-002 -1.984356e-002
2.290575e-002 1.367831e-002 -1.921067e-002
2.408887e-002 1.261493e-002 -1.882363e-002
-1.500000e-003 1.531908e-002 -1.980786e-002
1.872266e-002 1.693016e-002 -2.039425e-002
3.622790e-004 1.249475e-002 -1.877989e-002
2.262892e-002 1.302128e-002 -1.897153e-002
-2.297634e-002 1.473271e-002 -1.959444e-002
-2.297634e-002 1.402606e-002 -1.933724e-002
2.316152e-002 1.167909e-002 -1.848301e-002
2.218691e-002 1.244959e-002 -1.876345e-002
-2.191227e-002 1.220725e-002 -1.867525e-002
-2.127734e-002 1.182861e-002 -1.853743e-002
-2.056214e-002 1.161024e-002 -1.845795e-002
-1.981163e-002 1.156587e-002 -1.844181e-002
-2.278933e-002 1.334161e-002 -1.908812e-002
-2.242705e-002 1.272237e-002 -1.886274e-002
2.160748e-002 1.199916e-002 -1.859951e-002
-1.900001e-002 6.500000e-003 -1.659798e-002
-1.907295e-002 1.169828e-002 -1.849000e-002
-1.781309e-002 1.630918e-002 -2.016823e-002
2.092705e-002 1.169828e-002 -1.849000e-002
-2.003500e-002 6.417070e-003 -1.656779e-002
-1.839252e-002 1.675961e-002 -2.033217e-002
-1.737108e-002 1.573749e-002 -1.996015e-002
-2.127734e-002 1.898228e-002 -1.475609e-002
-2.191227e-002 1.860364e-002 -1.461828e-002
-4.195427e-003 1.177491e-002 -1.213282e-002
-1.737108e-002 1.507341e-002 -1.333338e-002
-1.781309e-002 1.450172e-002 -1.312530e-002
-2.242705e-002 1.808852e-002 -1.443079e-002
2.200000e-002 5.766281e-003 -9.945861e-003
2.200000e-002 1.306499e-002 -1.260237e-002
2.104357e-002 6.170399e-003 -1.009295e-002
2.443782e-002 1.953571e-002 -1.495752e-002
2.365239e-002 2.057995e-002 -1.533760e-002
2.218691e-002 1.836130e-002 -1.453007e-002
-2.278933e-002 1.746928e-002 -1.420540e-002
2.003500e-002 6.417070e-003 -1.018273e-002
2.259642e-002 2.138652e-002 -1.563116e-002
2.160748e-002 1.881173e-002 -1.469402e-002
2.018837e-002 1.361799e-002 -1.280365e-002
2.262892e-002 1.778961e-002 -1.432199e-002
2.489453e-002 1.833115e-002 -1.451910e-002
1.900001e-002 6.500000e-003 -1.021291e-002
1.808773e-002 1.425937e-002 -1.303709e-002
1.757295e-002 1.477449e-002 -1.322458e-002
1.872266e-002 1.388073e-002 -1.289928e-002
2.134813e-002 2.189565e-002 -1.581647e-002
2.092705e-002 1.911261e-002 -1.480353e-002
1.943786e-002 1.366236e-002 -1.281980e-002
4.195423e-003 1.177491e-002 -1.213282e-002
1.702366e-002 1.678483e-002 -1.395629e-002
1.721067e-002 1.746928e-002 -1.420540e-002
2.290575e-002 1.713258e-002 -1.408286e-002
1.702366e-002 1.607818e-002 -1.369909e-002
2.498870e-002 1.705548e-002 -1.405479e-002
1.721067e-002 1.539373e-002 -1.344997e-002
2.018837e-002 1.924502e-002 -1.485172e-002
3.011962e-003 1.213170e-002 -1.226268e-002
-2.297634e-002 1.678483e-002 -1.395629e-002
1.757295e-002 1.808852e-002 -1.443079e-002
2.300000e-002 1.643150e-002 -1.382769e-002
1.799049e-003 1.236986e-002 -1.234937e-002
-2.297634e-002 1.607818e-002 -1.369909e-002
2.471335e-002 1.580319e-002 -1.359900e-002
1.943786e-002 1.920065e-002 -1.483557e-002
-2.127734e-002 1.388073e-002 -1.289928e-002
-2.191227e-002 1.425937e-002 -1.303709e-002
-2.056214e-002 1.366236e-002 -1.281980e-002
-3.622850e-004 1.249475e-002 -1.239482e-002
-1.981163e-002 1.361799e-002 -1.280365e-002
2.290575e-002 1.573043e-002 -1.357251e-002
-2.278933e-002 1.539373e-002 -1.344997e-002
-2.242705e-002 1.477449e-002 -1.322458e-002
2.408887e-002 1.466705e-002 -1.318547e-002
1.872266e-002 1.898228e-002 -1.475609e-002
-1.907295e-002 1.375040e-002 -1.285184e-002
-1.900001e-002 6.500000e-003 -1.021291e-002
-2.307104e-003 1.228525e-002 -1.231857e-002
-1.839252e-002 1.405128e-002 -1.296135e-002
2.262892e-002 1.507341e-002 -1.333338e-002
-2.003500e-002 6.417070e-003 -1.018273e-002
1.808773e-002 1.860364e-002 -1.461828e-002
-1.781309e-002 1.836130e-002 -1.453007e-002
-1.839252e-002 1.881173e-002 -1.469402e-002
-2.104357e-002 6.170399e-003 -1.009295e-002
-1.737108e-002 1.778961e-002 -1.432199e-002
2.316152e-002 1.373121e-002 -1.284486e-002
2.218691e-002 1.450172e-002 -1.312530e-002
-1.907295e-002 1.911261e-002 -1.480353e-002
-1.709425e-002 1.713258e-002 -1.408286e-002
2.160748e-002 1.405128e-002 -1.296135e-002
-1.981163e-002 1.924502e-002 -1.485172e-002
-1.700000e-002 1.643150e-002 -1.382769e-002
-2.056214e-002 1.920065e-002 -1.483557e-002
2.092705e-002 1.375040e-002 -1.285184e-002
-1.709425e-002 1.573043e-002 -1.357251e-002
-1.984843e-002 6.444390e-003 0.000000e+000
-1.900001e-002 6.500000e-003 0.000000e+000
-2.068233e-002 6.278516e-003 0.000000e+000
-2.329518e-002 4.878669e-003 -1.600786e-002
-2.148745e-002 6.005214e-003 0.000000e+000
-2.225000e-002 5.629162e-003 0.000000e+000
-2.295695e-002 5.156795e-003 0.000000e+000
-2.359620e-002 4.596193e-003 0.000000e+000
-2.433973e-002 3.706379e-003 -1.558118e-002
-2.415680e-002 3.956949e-003 0.000000e+000
-2.462916e-002 3.250001e-003 0.000000e+000
-2.508084e-002 2.296399e-003 -1.506799e-002
-2.500522e-002 2.487445e-003 0.000000e+000
-2.527852e-002 1.682328e-003 0.000000e+000
-2.545786e-002 7.389370e-004 -1.450112e-002
-2.544439e-002 8.484260e-004 0.000000e+000
-2.550000e-002 7.000000e-009 0.000000e+000
-2.544169e-002 -8.686970e-004 -1.391599e-002
-2.544439e-002 -8.484120e-004 0.000000e+000
-2.527852e-002 -1.682314e-003 0.000000e+000
-2.508973e-002 -2.272695e-003 -1.340498e-002
-2.500522e-002 -2.487431e-003 0.000000e+000
-2.451397e-002 -3.441820e-003 -1.297945e-002
-2.462917e-002 -3.249988e-003 0.000000e+000
-2.415681e-002 -3.956937e-003 0.000000e+000
-2.371656e-002 -4.472592e-003 -1.260428e-002
-2.359621e-002 -4.596182e-003 0.000000e+000
-2.291212e-002 -5.190884e-003 -1.234285e-002
-2.295696e-002 -5.156785e-003 0.000000e+000
-2.200000e-002 -5.766281e-003 -5.748351e-003
-2.200000e-002 -5.766281e-003 -1.213342e-002
-2.225002e-002 -5.629155e-003 0.000000e+000
-2.148746e-002 -6.005209e-003 0.000000e+000
-2.104357e-002 -6.170397e-003 -5.601265e-003
-2.068235e-002 -6.278512e-003 0.000000e+000
-2.003501e-002 -6.417068e-003 -5.511484e-003
-1.984844e-002 -6.444388e-003 0.000000e+000
-1.900003e-002 -6.500000e-003 -5.481299e-003
-1.900003e-002 -6.500000e-003 0.000000e+000
-2.125794e-002 -1.975269e-003 -1.351323e-002
-2.072475e-002 -2.454638e-003 -1.333876e-002
-2.166216e-002 -1.383069e-003 -1.372878e-002
-2.104357e-002 -6.170397e-003 -1.198633e-002
-2.009303e-002 -2.793795e-003 -1.321531e-002
-2.191432e-002 -7.118660e-004 -1.397307e-002
-2.003501e-002 -6.417068e-003 -1.189655e-002
-1.946999e-002 -2.962956e-003 -1.315374e-002
-1.900003e-002 -6.500000e-003 -1.186637e-002
-1.888979e-002 -2.997975e-003 -1.314100e-002
-2.200000e-002 0.000000e+000 -1.423217e-002
-1.831373e-002 -2.920452e-003 -1.316922e-002
-1.776344e-002 -2.733297e-003 -1.323733e-002
-1.725956e-002 -2.443536e-003 -1.334280e-002
-1.682102e-002 -2.062047e-003 -1.348165e-002
-2.023656e-002 2.733297e-003 -1.522701e-002
-2.074044e-002 2.443536e-003 -1.512155e-002
-2.117898e-002 2.062047e-003 -1.498270e-002
-2.153573e-002 1.603150e-003 -1.481567e-002
-2.179728e-002 1.084072e-003 -1.462674e-002
-2.194889e-002 5.514320e-004 -1.443288e-002
-1.968627e-002 2.920452e-003 -1.529513e-002
-1.911021e-002 2.997975e-003 -1.532335e-002
-1.674206e-002 1.975269e-003 -1.495111e-002
-1.727525e-002 2.454638e-003 -1.512559e-002
-1.790697e-002 2.793795e-003 -1.524903e-002
-1.853001e-002 2.962956e-003 -1.531060e-002
1.500000e-003 -1.240967e-002 -9.715421e-003
-1.500000e-003 -1.240967e-002 -9.715421e-003
1.500000e-003 -1.099232e-002 -1.023130e-002
-1.500000e-003 -1.099232e-002 -1.023130e-002
-6.391850e-003 -1.099232e-002 -1.023130e-002
-4.887577e-003 -5.011147e-003 -1.240826e-002
-3.832000e-003 -5.857967e-003 -1.210005e-002
-5.760484e-003 -3.977037e-003 -1.278465e-002
-2.633204e-003 -6.485849e-003 -1.187152e-002
-1.646427e-002 -1.603150e-003 -1.364867e-002
-6.418096e-003 -2.794289e-003 -1.321513e-002
-1.335994e-003 -6.871326e-003 -1.173121e-002
-1.620272e-002 -1.084072e-003 -1.383760e-002
-6.835835e-003 -1.507105e-003 -1.368363e-002
-1.605112e-002 -5.514320e-004 -1.403147e-002
1.114900e-005 -6.999991e-003 -1.168438e-002
-1.600000e-002 0.000000e+000 -1.423217e-002
-6.998088e-003 -1.635940e-004 -1.417263e-002
1.357875e-003 -6.867035e-003 -1.173278e-002
-1.608568e-002 7.118660e-004 -1.449127e-002
-6.898792e-003 1.186031e-003 -1.466385e-002
-1.633784e-002 1.383069e-003 -1.473557e-002
6.391849e-003 -1.099232e-002 -1.023130e-002
2.653851e-003 -6.477428e-003 -1.187458e-002
-6.541657e-003 2.491329e-003 -1.513894e-002
3.850641e-003 -5.845731e-003 -1.210450e-002
-5.940032e-003 3.703515e-003 -1.558014e-002
4.903515e-003 -4.995553e-003 -1.241394e-002
-5.116401e-003 4.777284e-003 -1.597096e-002
5.773123e-003 -3.958668e-003 -1.279133e-002
-1.655621e-003 6.801391e-003 -1.670768e-002
-2.933401e-003 6.355719e-003 -1.654547e-002
-4.101548e-003 5.672504e-003 -1.629679e-002
-3.159620e-004 6.992866e-003 -1.677737e-002
1.900001e-002 -6.500000e-003 -1.186637e-002
1.035506e-003 6.922986e-003 -1.675193e-002
1.689830e-002 -2.140762e-003 -1.345300e-002
6.426964e-003 -2.773830e-003 -1.322258e-002
1.735057e-002 -2.505871e-003 -1.332011e-002
1.652493e-002 -1.695291e-003 -1.361514e-002
1.786476e-002 -2.776911e-003 -1.322146e-002
6.840600e-003 -1.485323e-003 -1.369156e-002
1.624447e-002 -1.186180e-003 -1.380044e-002
1.842157e-002 -2.943708e-003 -1.316075e-002
2.348272e-003 6.594363e-003 -1.663232e-002
6.960036e-003 -7.469260e-004 -1.396031e-002
1.606744e-002 -6.325410e-004 -1.400195e-002
1.900009e-002 -3.000000e-003 -1.314026e-002
2.003500e-002 -6.417070e-003 -1.189655e-002
1.600051e-002 -5.515600e-005 -1.421210e-002
7.000000e-003 0.000000e+000 -1.423217e-002
1.957860e-002 -2.943675e-003 -1.316076e-002
2.104357e-002 -6.170399e-003 -1.198633e-002
1.604617e-002 5.242990e-004 -1.442300e-002
6.800951e-003 1.657429e-003 -1.483543e-002
5.581834e-003 4.224113e-003 -1.576962e-002
4.664724e-003 5.219229e-003 -1.613182e-002
3.573272e-003 6.019279e-003 -1.642301e-002
2.200000e-002 -5.766281e-003 -1.213342e-002
2.013540e-002 -2.776846e-003 -1.322148e-002
1.620272e-002 1.084072e-003 -1.462674e-002
2.064957e-002 -2.505776e-003 -1.332014e-002
1.646427e-002 1.603150e-003 -1.481567e-002
6.290327e-003 3.071122e-003 -1.534997e-002
2.110182e-002 -2.140642e-003 -1.345304e-002
1.682102e-002 2.062047e-003 -1.498270e-002
2.147517e-002 -1.695149e-003 -1.361519e-002
2.175560e-002 -1.186022e-003 -1.380050e-002
2.193259e-002 -6.323730e-004 -1.400201e-002
2.198310e-002 -3.179780e-004 -1.411644e-002
1.946999e-002 2.962956e-003 -1.531060e-002
1.888979e-002 2.997975e-003 -1.532335e-002
1.831373e-002 2.920452e-003 -1.529513e-002
1.776344e-002 2.733297e-003 -1.522701e-002
1.725956e-002 2.443536e-003 -1.512155e-002
2.009303e-002 2.793795e-003 -1.524903e-002
2.200000e-002 0.000000e+000 -1.423217e-002
2.191432e-002 7.118660e-004 -1.449127e-002
2.166216e-002 1.383069e-003 -1.473557e-002
2.125794e-002 1.975269e-003 -1.495111e-002
2.072475e-002 2.454638e-003 -1.512559e-002
-1.500000e-003 1.386808e-002 -1.502303e-002
-1.500000e-003 1.668716e-002 -1.604909e-002
-1.350000e-002 1.386808e-002 -1.502303e-002
-1.350000e-002 1.668716e-002 -1.604909e-002
1.500000e-003 1.668716e-002 -1.604909e-002
1.500000e-003 1.386808e-002 -1.502303e-002
1.350000e-002 1.668716e-002 -1.604909e-002
1.350000e-002 1.386808e-002 -1.502303e-002
-4.195427e-003 1.177491e-002 0.000000e+000
4.195423e-003 1.177491e-002 0.000000e+000
2.827627e-003 1.217598e-002 0.000000e+000
1.423064e-003 1.241873e-002 0.000000e+000
-3.000000e-009 1.250000e-002 0.000000e+000
-1.423070e-003 1.241873e-002 0.000000e+000
-2.827632e-003 1.217598e-002 0.000000e+000
1.900001e-002 6.500000e-003 0.000000e+000
1.984843e-002 6.444390e-003 0.000000e+000
2.068233e-002 6.278515e-003 0.000000e+000
1.984843e-002 -6.444390e-003 0.000000e+000
1.900001e-002 -6.500000e-003 -5.481299e-003
2.003500e-002 -6.417070e-003 -5.511484e-003
1.900001e-002 -6.500000e-003 0.000000e+000
2.068233e-002 -6.278515e-003 0.000000e+000
2.104357e-002 -6.170399e-003 -5.601264e-003
2.148745e-002 -6.005214e-003 0.000000e+000
2.200000e-002 -5.766281e-003 -5.748351e-003
2.329518e-002 -4.878669e-003 -1.245648e-002
2.225001e-002 -5.629161e-003 0.000000e+000
2.295695e-002 -5.156793e-003 0.000000e+000
2.359620e-002 -4.596190e-003 0.000000e+000
2.433973e-002 -3.706379e-003 -1.288316e-002
2.415680e-002 -3.956945e-003 0.000000e+000
2.462917e-002 -3.249997e-003 0.000000e+000
2.508084e-002 -2.296399e-003 -1.339635e-002
2.500522e-002 -2.487440e-003 0.000000e+000
2.527852e-002 -1.682322e-003 0.000000e+000
2.545786e-002 -7.389370e-004 -1.396322e-002
2.544439e-002 -8.484190e-004 0.000000e+000
2.550000e-002 0.000000e+000 0.000000e+000
2.544169e-002 8.686970e-004 -1.454835e-002
2.544439e-002 8.484190e-004 0.000000e+000
2.527852e-002 1.682322e-003 0.000000e+000
2.508973e-002 2.272695e-003 -1.505937e-002
2.500522e-002 2.487440e-003 0.000000e+000
2.462917e-002 3.249997e-003 0.000000e+000
2.451397e-002 3.441820e-003 -1.548489e-002
2.415680e-002 3.956945e-003 0.000000e+000
2.371656e-002 4.472592e-003 -1.586006e-002
2.359620e-002 4.596190e-003 0.000000e+000
2.291212e-002 5.190884e-003 -1.612150e-002
2.295695e-002 5.156793e-003 0.000000e+000
2.225001e-002 5.629161e-003 0.000000e+000
2.148745e-002 6.005214e-003 0.000000e+000
-2.091227e-002 -2.311540e-003 0.000000e+000
-2.142705e-002 -1.763356e-003 0.000000e+000
-2.178933e-002 -1.104374e-003 0.000000e+000
-2.197634e-002 -3.760000e-004 0.000000e+000
2.118691e-002 -2.053641e-003 0.000000e+000
-2.197634e-002 3.760000e-004 0.000000e+000
-5.760887e-003 3.976453e-003 0.000000e+000
-5.239575e-003 4.641859e-003 0.000000e+000
-6.198192e-003 3.253062e-003 0.000000e+000
-1.681309e-002 2.053641e-003 0.000000e+000
-1.739252e-002 2.532984e-003 0.000000e+000
-1.807295e-002 2.853169e-003 0.000000e+000
-1.881163e-002 2.994080e-003 0.000000e+000
-1.956214e-002 2.946862e-003 0.000000e+000
2.060748e-002 -2.532984e-003 0.000000e+000
2.162892e-002 -1.445261e-003 0.000000e+000
1.992705e-002 -2.853169e-003 0.000000e+000
2.190575e-002 -7.460700e-004 0.000000e+000
-2.178933e-002 1.104374e-003 0.000000e+000
-2.027734e-002 2.714481e-003 0.000000e+000
1.918837e-002 -2.994080e-003 0.000000e+000
2.200000e-002 0.000000e+000 0.000000e+000
-2.142705e-002 1.763356e-003 0.000000e+000
1.843786e-002 -2.946862e-003 0.000000e+000
-2.091227e-002 2.311540e-003 0.000000e+000
2.190575e-002 7.460700e-004 0.000000e+000
1.772266e-002 -2.714481e-003 0.000000e+000
2.162892e-002 1.445261e-003 0.000000e+000
1.708773e-002 -2.311540e-003 0.000000e+000
2.118691e-002 2.053641e-003 0.000000e+000
2.060748e-002 2.532984e-003 0.000000e+000
1.992705e-002 2.853169e-003 0.000000e+000
1.918837e-002 2.994080e-003 0.000000e+000
1.843786e-002 2.946862e-003 0.000000e+000
1.772266e-002 2.714481e-003 0.000000e+000
1.708773e-002 2.311540e-003 0.000000e+000
4.195422e-003 -1.177491e-002 0.000000e+000
5.239575e-003 -4.641859e-003 0.000000e+000
4.641859e-003 -5.239575e-003 0.000000e+000
5.760887e-003 -3.976453e-003 0.000000e+000
3.976453e-003 -5.760887e-003 0.000000e+000
6.198192e-003 -3.253062e-003 0.000000e+000
1.657295e-002 -1.763356e-003 0.000000e+000
3.253062e-003 -6.198192e-003 0.000000e+000
1.621067e-002 -1.104374e-003 0.000000e+000
6.545114e-003 -2.482234e-003 0.000000e+000
2.482234e-003 -6.545114e-003 0.000000e+000
6.796593e-003 -1.675210e-003 0.000000e+000
2.827629e-003 -1.217598e-002 0.000000e+000
1.675210e-003 -6.796593e-003 0.000000e+000
1.602366e-002 -3.760000e-004 0.000000e+000
6.948962e-003 -8.437569e-004 0.000000e+000
8.437569e-004 -6.948962e-003 0.000000e+000
1.423067e-003 -1.241873e-002 0.000000e+000
7.000000e-003 0.000000e+000 0.000000e+000
1.602366e-002 3.760000e-004 0.000000e+000
0.000000e+000 -7.000000e-003 0.000000e+000
-1.423064e-003 -1.241873e-002 0.000000e+000
1.000000e-009 -1.250000e-002 0.000000e+000
6.948962e-003 8.437569e-004 0.000000e+000
1.621067e-002 1.104374e-003 0.000000e+000
-8.437569e-004 -6.948962e-003 0.000000e+000
-2.827626e-003 -1.217598e-002 0.000000e+000
6.796593e-003 1.675210e-003 0.000000e+000
-1.675210e-003 -6.796593e-003 0.000000e+000
-4.195420e-003 -1.177491e-002 0.000000e+000
6.545114e-003 2.482234e-003 0.000000e+000
1.657295e-002 1.763356e-003 0.000000e+000
-2.482234e-003 -6.545114e-003 0.000000e+000
6.198192e-003 3.253062e-003 0.000000e+000
-3.253062e-003 -6.198192e-003 0.000000e+000
5.760887e-003 3.976453e-003 0.000000e+000
-3.976453e-003 -5.760887e-003 0.000000e+000
5.239575e-003 4.641859e-003 0.000000e+000
-4.641859e-003 -5.239575e-003 0.000000e+000
-5.239575e-003 -4.641859e-003 0.000000e+000
4.641859e-003 5.239575e-003 0.000000e+000
3.976453e-003 5.760887e-003 0.000000e+000
3.253062e-003 6.198192e-003 0.000000e+000
2.482234e-003 6.545114e-003 0.000000e+000
1.675210e-003 6.796593e-003 0.000000e+000
8.437569e-004 6.948962e-003 0.000000e+000
0.000000e+000 7.000000e-003 0.000000e+000
-5.760887e-003 -3.976453e-003 0.000000e+000
-6.198192e-003 -3.253062e-003 0.000000e+000
-8.437569e-004 6.948962e-003 0.000000e+000
-6.545114e-003 -2.482234e-003 0.000000e+000
-1.681309e-002 -2.053641e-003 0.000000e+000
-1.739252e-002 -2.532984e-003 0.000000e+000
-6.796593e-003 -1.675210e-003 0.000000e+000
-1.637108e-002 -1.445261e-003 0.000000e+000
-1.675210e-003 6.796593e-003 0.000000e+000
-1.807295e-002 -2.853169e-003 0.000000e+000
-6.948962e-003 -8.437569e-004 0.000000e+000
-1.609425e-002 -7.460700e-004 0.000000e+000
-1.881163e-002 -2.994080e-003 0.000000e+000
-2.482234e-003 6.545114e-003 0.000000e+000
-3.253062e-003 6.198192e-003 0.000000e+000
-3.976453e-003 5.760887e-003 0.000000e+000
-4.641859e-003 5.239575e-003 0.000000e+000
-1.600000e-002 0.000000e+000 0.000000e+000
-7.000000e-003 0.000000e+000 0.000000e+000
-6.948962e-003 8.437569e-004 0.000000e+000
-1.956214e-002 -2.946862e-003 0.000000e+000
-6.796593e-003 1.675210e-003 0.000000e+000
-1.609425e-002 7.460700e-004 0.000000e+000
-2.027734e-002 -2.714481e-003 0.000000e+000
-1.637108e-002 1.445261e-003 0.000000e+000
-6.545114e-003 2.482234e-003 0.000000e+000
-4.195420e-003 -1.177491e-002 -3.561390e-003
-1.799055e-003 -1.236986e-002 -3.344846e-003
-3.011963e-003 -1.213170e-002 -3.431529e-003
-1.737108e-002 -1.781584e-002 -1.362672e-003
2.259644e-002 -2.047304e-002 -3.955290e-004
2.092705e-002 -1.913884e-002 -8.811390e-004
2.134816e-002 -2.098218e-002 -2.102150e-004
-1.709425e-002 -1.715881e-002 -1.601809e-003
2.018837e-002 -1.927125e-002 -8.329440e-004
-2.127734e-002 -1.390696e-002 -2.785387e-003
-2.200000e-002 -1.215152e-002 -3.424313e-003
-2.316152e-002 -1.281774e-002 -3.181829e-003
-2.191227e-002 -1.428560e-002 -2.647573e-003
-1.781309e-002 -1.838753e-002 -1.154593e-003
-2.242705e-002 -1.480072e-002 -2.460083e-003
2.200000e-002 -1.215152e-002 -3.424313e-003
2.000002e-002 -2.115620e-002 -1.468790e-004
1.808773e-002 -1.862987e-002 -1.066387e-003
1.757295e-002 -1.811475e-002 -1.253877e-003
1.872266e-002 -1.900851e-002 -9.285730e-004
1.943786e-002 -1.922688e-002 -8.490940e-004
-2.408887e-002 -1.375358e-002 -2.841211e-003
1.757295e-002 -1.480072e-002 -2.460083e-003
4.195422e-003 -1.177491e-002 -3.561390e-003
-2.278933e-002 -1.541996e-002 -2.234698e-003
1.721067e-002 -1.541996e-002 -2.234698e-003
1.702366e-002 -1.610441e-002 -1.985579e-003
1.702366e-002 -1.681106e-002 -1.728381e-003
1.721067e-002 -1.749551e-002 -1.479262e-003
2.408887e-002 -1.375358e-002 -2.841212e-003
2.316152e-002 -1.281774e-002 -3.181829e-003
2.218691e-002 -1.452794e-002 -2.559367e-003
2.307099e-003 -1.228525e-002 -3.375642e-003
2.160748e-002 -1.407751e-002 -2.723311e-003
3.622790e-004 -1.249475e-002 -3.299389e-003
2.262892e-002 -1.509963e-002 -2.351288e-003
2.471334e-002 -1.488972e-002 -2.427692e-003
-2.471335e-002 -1.488973e-002 -2.427689e-003
-2.297634e-002 -1.610441e-002 -1.985579e-003
2.092705e-002 -1.377663e-002 -2.832821e-003
2.290575e-002 -1.575666e-002 -2.112151e-003
2.498870e-002 -1.614200e-002 -1.971898e-003
2.018837e-002 -1.364422e-002 -2.881016e-003
2.300000e-002 -1.645773e-002 -1.856980e-003
2.489453e-002 -1.741767e-002 -1.507593e-003
1.943786e-002 -1.368859e-002 -2.864866e-003
-1.781309e-002 -1.452794e-002 -2.559367e-003
-2.498870e-002 -1.614201e-002 -1.971894e-003
-2.297634e-002 -1.681106e-002 -1.728381e-003
2.290575e-002 -1.715881e-002 -1.601809e-003
-1.999998e-002 -2.115620e-002 -1.468790e-004
2.443782e-002 -1.862224e-002 -1.069166e-003
-1.839252e-002 -1.407751e-002 -2.723311e-003
1.872266e-002 -1.390696e-002 -2.785387e-003
-1.981163e-002 -1.927125e-002 -8.329440e-004
-2.056214e-002 -1.922688e-002 -8.490940e-004
-1.907295e-002 -1.913884e-002 -8.811390e-004
-1.839252e-002 -1.883796e-002 -9.906490e-004
-1.737108e-002 -1.509963e-002 -2.351288e-003
-2.489453e-002 -1.741768e-002 -1.507587e-003
2.262892e-002 -1.781584e-002 -1.362672e-003
-2.278933e-002 -1.749551e-002 -1.479262e-003
-1.907295e-002 -1.377663e-002 -2.832821e-003
-2.134813e-002 -2.098219e-002 -2.102130e-004
1.808773e-002 -1.428560e-002 -2.647573e-003
-2.127734e-002 -1.900851e-002 -9.285730e-004
-1.709425e-002 -1.575666e-002 -2.112151e-003
2.365240e-002 -1.966648e-002 -6.890950e-004
-2.242705e-002 -1.811475e-002 -1.253877e-003
-2.443782e-002 -1.862225e-002 -1.069161e-003
2.218691e-002 -1.838753e-002 -1.154593e-003
-1.981163e-002 -1.364422e-002 -2.881016e-003
-2.191227e-002 -1.862987e-002 -1.066387e-003
-2.259642e-002 -2.047305e-002 -3.955250e-004
-2.365239e-002 -1.966649e-002 -6.890890e-004
2.160748e-002 -1.883796e-002 -9.906490e-004
-1.700000e-002 -1.645773e-002 -1.856980e-003
-2.056214e-002 -1.368859e-002 -2.864866e-003
-2.200000e-002 -1.420364e-002 -9.062468e-003
-1.700000e-002 -1.850986e-002 -7.495136e-003
-1.709425e-002 -1.780878e-002 -7.750307e-003
-1.350000e-002 -1.663047e-002 -8.179177e-003
-1.350000e-002 -2.038924e-002 -6.811095e-003
2.134816e-002 -2.303431e-002 -5.848371e-003
2.092705e-002 -2.119096e-002 -6.519294e-003
2.259644e-002 -2.252516e-002 -6.033685e-003
-1.907295e-002 -1.582875e-002 -8.470977e-003
2.018837e-002 -2.132337e-002 -6.471100e-003
-1.981163e-002 -1.569634e-002 -8.519172e-003
-2.056214e-002 -1.574071e-002 -8.503023e-003
-1.709425e-002 -1.921093e-002 -7.239965e-003
-2.127734e-002 -1.595908e-002 -8.423543e-003
2.200000e-002 -1.420364e-002 -9.062468e-003
-1.737108e-002 -1.986796e-002 -7.000827e-003
-2.316152e-002 -1.486986e-002 -8.819984e-003
-2.191227e-002 -1.633772e-002 -8.285728e-003
1.350000e-002 -1.663047e-002 -8.179177e-003
1.872266e-002 -1.595908e-002 -8.423543e-003
1.808773e-002 -1.633772e-002 -8.285728e-003
-1.781309e-002 -2.043965e-002 -6.792749e-003
1.757295e-002 -1.685284e-002 -8.098239e-003
1.721067e-002 -1.747208e-002 -7.872854e-003
1.702366e-002 -1.815653e-002 -7.623735e-003
2.218691e-002 -1.658006e-002 -8.197522e-003
2.316152e-002 -1.486986e-002 -8.819985e-003
2.408887e-002 -1.580570e-002 -8.479368e-003
-2.242705e-002 -1.685284e-002 -8.098239e-003
8.500000e-003 -1.099232e-002 -1.023130e-002
2.160748e-002 -1.612963e-002 -8.361467e-003
-1.839252e-002 -2.089008e-002 -6.628804e-003
2.000002e-002 -2.320832e-002 -5.785035e-003
1.808773e-002 -2.068199e-002 -6.704543e-003
1.872266e-002 -2.106063e-002 -6.566729e-003
1.943786e-002 -2.127900e-002 -6.487250e-003
2.262892e-002 -1.715176e-002 -7.989444e-003
2.471334e-002 -1.694184e-002 -8.065848e-003
-2.408887e-002 -1.580570e-002 -8.479366e-003
1.350000e-002 -2.038924e-002 -6.811095e-003
-2.278933e-002 -1.747208e-002 -7.872854e-003
1.702366e-002 -1.886318e-002 -7.366536e-003
1.721067e-002 -1.954763e-002 -7.117418e-003
1.757295e-002 -2.016687e-002 -6.892033e-003
2.092705e-002 -1.582875e-002 -8.470977e-003
2.290575e-002 -1.780878e-002 -7.750307e-003
2.498870e-002 -1.819412e-002 -7.610054e-003
2.018837e-002 -1.569634e-002 -8.519172e-003
-2.471335e-002 -1.694185e-002 -8.065845e-003
2.300000e-002 -1.850986e-002 -7.495136e-003
-2.297634e-002 -1.815653e-002 -7.623735e-003
2.489453e-002 -1.946979e-002 -7.145749e-003
1.500000e-003 -2.038924e-002 -6.811095e-003
1.943786e-002 -1.574071e-002 -8.503023e-003
2.290575e-002 -1.921093e-002 -7.239965e-003
-1.500000e-003 -2.038924e-002 -6.811095e-003
2.443782e-002 -2.067436e-002 -6.707322e-003
-8.500000e-003 -1.099232e-002 -1.023130e-002
2.262892e-002 -1.986796e-002 -7.000827e-003
-2.498870e-002 -1.819413e-002 -7.610050e-003
-2.297634e-002 -1.886318e-002 -7.366536e-003
2.365240e-002 -2.171860e-002 -6.327250e-003
-1.999998e-002 -2.320832e-002 -5.785035e-003
2.218691e-002 -2.043965e-002 -6.792749e-003
-2.056214e-002 -2.127900e-002 -6.487250e-003
-1.981163e-002 -2.132337e-002 -6.471100e-003
-1.907295e-002 -2.119096e-002 -6.519294e-003
-2.489453e-002 -1.946981e-002 -7.145743e-003
2.160748e-002 -2.089008e-002 -6.628804e-003
-2.278933e-002 -1.954763e-002 -7.117418e-003
-2.134813e-002 -2.303431e-002 -5.848369e-003
-1.839252e-002 -1.612963e-002 -8.361467e-003
-1.781309e-002 -1.658006e-002 -8.197522e-003
-2.127734e-002 -2.106063e-002 -6.566729e-003
-1.737108e-002 -1.715176e-002 -7.989444e-003
-2.443782e-002 -2.067437e-002 -6.707316e-003
-2.242705e-002 -2.016687e-002 -6.892033e-003
-2.259642e-002 -2.252517e-002 -6.033680e-003
-2.191227e-002 -2.068199e-002 -6.704543e-003
-2.365239e-002 -2.171861e-002 -6.327245e-003
1.500000e-003 -9.624235e-003 -6.472527e-003
8.500000e-003 -9.624235e-003 -6.472527e-003
1.500000e-003 -1.902116e-002 -3.052325e-003
-1.500000e-003 -1.902116e-002 -3.052325e-003
-1.500000e-003 -9.624235e-003 -6.472527e-003
-8.500000e-003 -9.624235e-003 -6.472527e-003
1.350000e-002 -1.526239e-002 -4.420405e-003
1.350000e-002 -1.902116e-002 -3.052325e-003
-1.350000e-002 -1.902116e-002 -3.052325e-003
-1.350000e-002 -1.526239e-002 -4.420405e-003
3 0 1 2
3 0 2 3
3 4 3 5
3 4 0 3
3 6 5 7
3 6 4 5
3 8 7 9
3 8 6 7
3 10 9 11
3 10 8 9
3 12 11 13
3 12 10 11
3 14 13 15
3 14 12 13
3 16 15 17
3 16 14 15
3 18 17 19
3 18 19 20
3 18 16 17
3 21 18 20
3 22 2 23
3 2 1 23
3 24 21 20
3 24 20 25
3 23 1 26
3 27 28 29
3 27 29 30
3 31 21 32
3 27 30 33
3 34 35 36
3 36 35 37
3 38 39 40
3 38 40 27
3 41 18 21
3 41 21 31
3 42 38 27
3 43 16 18
3 43 18 41
3 44 24 45
3 44 45 46
3 47 42 27
3 44 46 48
3 44 48 49
3 44 49 50
3 51 52 53
3 14 16 43
3 54 52 51
3 55 14 43
3 56 47 27
3 54 57 52
3 58 59 60
3 61 51 53
3 61 53 62
3 63 56 27
3 64 59 58
3 65 57 54
3 64 66 59
3 65 67 57
3 12 14 55
3 12 55 68
3 35 44 50
3 69 61 62
3 69 62 70
3 35 50 71
3 35 71 72
3 35 72 73
3 74 67 65
3 74 24 67
3 75 35 73
3 75 66 64
3 75 73 76
3 75 76 77
3 78 70 79
3 75 77 66
3 78 69 70
3 80 24 44
3 81 24 74
3 10 68 82
3 10 12 68
3 37 35 75
3 83 79 84
3 83 78 79
3 85 24 80
3 86 24 81
3 87 85 80
3 87 34 36
3 87 80 34
3 88 83 84
3 28 85 87
3 8 82 89
3 8 10 82
3 45 24 86
3 29 28 87
3 6 8 89
3 6 89 90
3 91 88 84
3 92 88 91
3 1 93 94
3 1 94 95
3 1 95 96
3 4 90 97
3 4 97 98
3 99 92 91
3 4 6 90
3 21 85 40
3 21 24 85
3 0 98 93
3 0 93 1
3 0 4 98
3 59 99 91
3 100 27 33
3 100 63 27
3 100 96 101
3 100 101 63
3 102 21 40
3 103 99 59
3 104 96 100
3 105 21 102
3 104 1 96
3 106 102 40
3 26 1 104
3 32 21 105
3 66 103 59
3 39 106 40
3 107 15 108
3 109 110 111
3 108 15 13
3 112 108 13
3 113 114 115
3 116 117 118
3 112 13 11
3 119 112 11
3 115 114 120
3 117 121 122
3 114 123 120
3 118 117 122
3 116 118 124
3 125 116 124
3 120 123 126
3 127 128 126
3 129 127 126
3 121 130 131
3 132 129 126
3 123 132 126
3 122 121 131
3 126 128 133
3 134 135 133
3 125 124 136
3 137 134 133
3 138 125 136
3 139 137 133
3 128 139 133
3 130 25 140
3 119 11 9
3 133 135 141
3 142 119 9
3 135 143 141
3 131 130 140
3 142 9 7
3 138 136 144
3 143 25 145
3 146 142 7
3 147 138 144
3 141 143 145
3 140 25 148
3 149 150 2
3 151 149 2
3 145 25 152
3 153 151 2
3 146 7 5
3 147 144 154
3 155 146 5
3 156 155 5
3 157 147 154
3 2 150 3
3 156 5 3
3 148 25 158
3 150 156 3
3 159 153 160
3 161 152 20
3 162 159 160
3 152 25 20
3 111 162 160
3 109 111 160
3 157 154 163
3 160 153 164
3 153 2 164
3 158 25 165
3 161 20 166
3 166 20 167
3 164 2 168
3 109 161 169
3 157 163 170
3 161 166 169
3 170 163 171
3 168 2 22
3 167 20 172
3 165 25 143
3 109 169 173
3 170 171 174
3 172 20 175
3 109 173 176
3 170 174 114
3 20 19 177
3 175 20 177
3 114 174 178
3 109 176 179
3 177 19 107
3 19 17 107
3 109 179 110
3 114 178 123
3 107 17 15
3 180 160 164
3 180 181 160
3 182 164 168
3 182 180 164
3 183 22 23
3 184 168 22
3 184 182 168
3 185 184 22
3 186 22 183
3 186 185 22
3 187 183 188
3 187 186 183
3 189 187 188
3 190 188 191
3 190 189 188
3 192 190 191
3 193 191 194
3 193 192 191
3 195 193 194
3 196 194 197
3 196 195 194
3 198 196 197
3 199 197 200
3 199 198 197
3 201 200 202
3 201 199 200
3 203 201 202
3 204 203 202
3 204 202 205
3 206 204 205
3 206 205 207
3 208 206 207
3 209 208 207
3 209 207 210
3 211 208 209
3 212 211 209
3 212 209 213
3 214 212 213
3 214 213 215
3 216 214 215
3 217 216 215
3 218 216 217
3 24 25 130
3 67 130 121
3 67 24 130
3 57 121 117
3 57 67 121
3 52 57 117
3 53 117 116
3 53 116 125
3 53 52 117
3 62 53 125
3 70 125 138
3 70 62 125
3 79 138 147
3 79 70 138
3 84 147 157
3 84 157 170
3 84 79 147
3 91 84 170
3 59 170 114
3 59 91 170
3 210 219 220
3 219 210 221
3 222 210 223
3 210 220 223
3 221 210 224
3 225 222 226
3 227 225 226
3 222 223 226
3 227 226 228
3 224 210 229
3 227 228 230
3 227 230 231
3 227 231 232
3 227 232 233
3 234 235 23
3 235 236 23
3 236 237 23
3 237 238 23
3 238 239 23
3 239 229 23
3 240 234 26
3 234 23 26
3 241 240 104
3 240 26 104
3 241 104 100
3 242 243 100
3 243 244 100
3 244 245 100
3 245 241 100
3 246 247 248
3 247 249 248
3 250 251 252
3 251 250 253
3 250 227 253
3 227 233 253
3 249 250 254
3 250 252 254
3 233 255 256
3 253 233 256
3 249 254 257
3 255 258 259
3 258 260 259
3 256 255 259
3 248 249 261
3 249 257 261
3 260 262 263
3 259 260 263
3 248 261 264
3 262 265 266
3 265 267 266
3 263 262 266
3 268 248 269
3 248 264 269
3 267 242 270
3 266 267 270
3 268 269 271
3 270 242 272
3 242 100 272
3 268 271 273
3 272 100 274
3 268 273 275
3 274 100 33
3 276 277 33
3 277 278 33
3 278 274 33
3 276 33 30
3 276 30 29
3 279 276 29
3 268 275 280
3 281 279 87
3 279 29 87
3 280 275 282
3 275 283 282
3 280 282 284
3 282 283 285
3 280 284 286
3 283 287 288
3 285 283 288
3 280 286 289
3 290 281 36
3 281 87 36
3 287 291 292
3 288 287 292
3 280 289 293
3 294 280 293
3 292 291 295
3 291 296 295
3 294 293 297
3 298 294 297
3 295 296 299
3 296 300 299
3 301 302 37
3 302 303 37
3 303 290 37
3 290 36 37
3 304 298 305
3 298 297 305
3 299 300 306
3 304 305 307
3 306 300 308
3 300 309 308
3 304 307 310
3 308 309 311
3 304 310 312
3 304 312 313
3 304 313 314
3 304 314 315
3 311 309 75
3 316 317 75
3 317 318 75
3 318 319 75
3 319 320 75
3 320 311 75
3 309 301 75
3 301 37 75
3 316 75 64
3 321 316 58
3 316 64 58
3 322 323 60
3 323 324 60
3 324 325 60
3 325 326 60
3 326 321 60
3 321 58 60
3 315 322 304
3 60 114 113
3 60 59 114
3 96 153 159
3 101 96 159
3 63 101 159
3 63 159 162
3 56 63 162
3 39 38 173
3 106 39 173
3 56 162 111
3 38 176 173
3 56 111 110
3 102 106 169
3 47 56 110
3 106 173 169
3 47 110 179
3 42 47 179
3 102 169 166
3 38 42 176
3 42 179 176
3 105 102 167
3 32 105 167
3 102 166 167
3 32 167 172
3 31 32 175
3 32 172 175
3 41 31 177
3 43 41 177
3 31 175 177
3 43 177 107
3 55 43 108
3 43 107 108
3 68 55 112
3 55 108 112
3 82 68 119
3 68 112 119
3 82 119 142
3 89 82 142
3 89 142 146
3 90 89 146
3 97 90 146
3 97 146 155
3 97 155 156
3 98 97 156
3 98 156 150
3 93 98 150
3 94 93 150
3 94 150 149
3 94 149 151
3 95 94 151
3 96 95 151
3 96 151 153
3 85 28 327
3 85 327 328
3 28 27 329
3 28 329 327
3 40 330 329
3 27 40 329
3 40 85 328
3 40 328 330
3 66 123 178
3 103 66 178
3 99 103 178
3 99 178 174
3 92 99 174
3 69 78 136
3 61 69 136
3 92 174 171
3 78 144 136
3 92 171 163
3 51 61 124
3 88 92 163
3 61 136 124
3 88 163 154
3 83 88 154
3 51 124 118
3 78 83 144
3 83 154 144
3 54 51 122
3 65 54 122
3 51 118 122
3 65 122 131
3 74 65 140
3 65 131 140
3 81 74 148
3 86 81 148
3 74 140 148
3 86 148 158
3 45 86 165
3 86 158 165
3 46 45 143
3 45 165 143
3 48 46 135
3 46 143 135
3 48 135 134
3 49 48 134
3 49 134 137
3 50 49 137
3 71 50 137
3 71 137 139
3 71 139 128
3 72 71 128
3 72 128 127
3 73 72 127
3 76 73 127
3 76 127 129
3 76 129 132
3 77 76 132
3 66 77 132
3 66 132 123
3 80 331 332
3 34 80 332
3 80 44 333
3 80 333 331
3 44 35 334
3 44 334 333
3 35 34 332
3 35 332 334
3 160 335 109
3 181 335 160
3 336 133 141
3 337 141 145
3 337 336 141
3 338 145 152
3 338 337 145
3 339 338 152
3 340 152 161
3 340 339 152
3 341 161 109
3 341 340 161
3 335 341 109
3 336 126 133
3 336 342 126
3 343 120 126
3 343 344 120
3 342 343 126
3 345 346 347
3 345 348 346
3 349 347 350
3 349 345 347
3 351 350 352
3 351 349 350
3 353 352 304
3 354 351 352
3 355 352 353
3 355 354 352
3 356 353 357
3 356 355 353
3 358 356 357
3 359 357 360
3 359 358 357
3 361 359 360
3 362 360 363
3 362 361 360
3 364 362 363
3 365 363 366
3 365 364 363
3 367 365 366
3 368 366 369
3 368 367 366
3 370 368 369
3 371 369 372
3 371 370 369
3 373 371 372
3 373 372 374
3 375 373 374
3 375 374 376
3 113 376 60
3 377 375 376
3 377 376 113
3 378 377 113
3 379 378 113
3 379 113 115
3 344 379 115
3 344 115 120
3 206 380 381
3 206 381 204
3 204 381 203
3 381 382 203
3 203 382 201
3 382 383 199
3 201 382 199
3 199 383 198
3 355 356 384
3 356 358 384
3 383 385 196
3 198 383 196
3 386 387 181
3 388 386 181
3 389 388 181
3 387 335 181
3 390 389 181
3 391 390 181
3 392 391 181
3 393 392 181
3 351 354 394
3 354 355 394
3 355 384 394
3 358 359 395
3 359 361 395
3 196 385 195
3 384 358 395
3 393 181 180
3 345 349 396
3 349 351 396
3 351 394 396
3 361 362 397
3 385 398 193
3 362 364 397
3 195 385 193
3 399 393 182
3 395 361 397
3 393 180 182
3 348 345 400
3 193 398 192
3 345 396 400
3 399 182 184
3 364 365 401
3 365 367 401
3 397 364 401
3 398 402 190
3 192 398 190
3 348 400 403
3 404 399 185
3 399 184 185
3 190 402 189
3 404 185 186
3 367 368 405
3 368 370 405
3 402 404 187
3 401 367 405
3 189 402 187
3 404 186 187
3 348 403 406
3 405 370 407
3 370 371 407
3 371 373 407
3 348 406 408
3 407 373 409
3 409 373 375
3 409 375 377
3 410 409 377
3 410 377 378
3 410 378 379
3 411 410 379
3 411 379 344
3 411 344 343
3 412 411 343
3 412 343 342
3 413 412 342
3 414 413 342
3 415 414 342
3 416 348 417
3 416 417 418
3 417 348 419
3 416 418 420
3 348 408 421
3 419 348 421
3 408 422 421
3 416 420 423
3 422 424 425
3 421 422 425
3 416 423 426
3 425 424 427
3 428 416 429
3 416 426 429
3 424 430 431
3 427 424 431
3 428 429 432
3 433 428 432
3 431 430 434
3 430 435 434
3 433 432 436
3 437 438 436
3 438 433 436
3 434 435 439
3 435 440 439
3 437 436 441
3 442 437 441
3 439 440 443
3 442 441 444
3 445 442 444
3 443 440 446
3 440 447 446
3 445 444 448
3 446 447 449
3 447 415 449
3 415 342 449
3 445 448 450
3 449 342 451
3 445 450 452
3 451 342 453
3 445 452 454
3 445 454 455
3 453 342 336
3 456 453 336
3 457 456 336
3 458 457 336
3 459 458 336
3 460 459 336
3 461 460 337
3 460 336 337
3 462 461 338
3 461 337 338
3 462 338 339
3 463 464 218
3 455 463 218
3 445 455 218
3 465 462 340
3 462 339 340
3 464 466 467
3 218 464 467
3 218 467 468
3 466 469 470
3 467 466 470
3 471 465 341
3 465 340 341
3 218 468 472
3 469 473 474
3 470 469 474
3 218 472 475
3 476 471 335
3 477 476 335
3 478 477 335
3 479 478 335
3 387 479 335
3 471 341 335
3 474 473 480
3 481 482 480
3 473 481 480
3 218 475 483
3 214 216 483
3 216 218 483
3 482 484 485
3 480 482 485
3 214 483 486
3 211 212 486
3 212 214 486
3 485 484 487
3 484 488 487
3 211 486 380
3 208 211 380
3 488 388 389
3 487 488 389
3 208 380 206
3 489 218 217
3 445 218 489
3 490 491 492
3 491 489 492
3 493 494 495
3 489 496 492
3 494 497 495
3 498 499 500
3 498 500 501
3 490 492 502
3 501 500 503
3 352 350 504
3 350 347 504
3 347 346 504
3 495 497 505
3 506 507 505
3 508 506 505
3 509 508 505
3 497 509 505
3 503 500 510
3 511 346 512
3 503 510 513
3 514 511 512
3 515 514 512
3 516 515 512
3 517 516 512
3 518 519 520
3 507 517 521
3 519 504 522
3 517 512 521
3 505 507 523
3 520 519 522
3 518 520 524
3 507 521 523
3 525 518 524
3 513 510 526
3 527 513 526
3 522 504 528
3 525 524 529
3 530 525 529
3 528 504 531
3 530 529 532
3 533 530 532
3 531 504 534
3 489 217 535
3 527 526 536
3 504 346 534
3 537 527 536
3 533 532 538
3 490 502 539
3 523 490 539
3 533 538 540
3 535 217 541
3 534 346 542
3 543 544 539
3 505 523 539
3 545 543 539
3 546 545 539
3 489 535 547
3 502 546 539
3 537 536 548
3 540 538 549
3 550 537 548
3 541 217 551
3 539 544 552
3 542 346 553
3 544 554 552
3 489 547 555
3 540 549 556
3 557 550 558
3 550 548 558
3 556 549 559
3 551 217 560
3 554 561 562
3 552 554 562
3 553 346 511
3 561 557 563
3 557 558 563
3 556 559 564
3 562 561 563
3 489 555 565
3 217 215 499
3 556 564 493
3 215 213 499
3 213 209 499
3 560 217 499
3 560 499 566
3 493 564 494
3 489 565 496
3 566 499 498
3 499 209 567
3 209 210 567
3 194 191 229
3 197 194 229
3 200 197 229
3 202 200 229
3 205 202 229
3 207 205 229
3 210 207 229
3 229 191 188
3 229 188 183
3 229 183 23
3 353 304 322
3 357 353 322
3 357 322 360
3 360 322 363
3 363 322 366
3 366 322 369
3 369 322 372
3 322 60 376
3 322 376 374
3 372 322 374
3 568 569 570
3 568 570 571
3 572 573 574
3 567 227 575
3 572 576 573
3 567 210 222
3 567 222 225
3 567 225 227
3 567 575 577
3 578 567 577
3 579 568 571
3 580 567 578
3 581 280 294
3 582 579 571
3 581 294 298
3 581 298 304
3 583 567 580
3 584 583 580
3 585 280 586
3 585 586 587
3 588 582 571
3 585 587 589
3 585 589 590
3 585 590 591
3 592 593 594
3 595 583 584
3 585 596 280
3 597 593 592
3 597 581 593
3 598 588 571
3 599 600 601
3 599 601 602
3 599 602 576
3 599 576 572
3 603 594 604
3 603 592 594
3 605 583 595
3 268 280 596
3 606 585 591
3 607 605 595
3 606 591 608
3 606 608 609
3 606 609 610
3 606 610 600
3 606 600 599
3 611 581 597
3 612 604 613
3 612 603 604
3 614 581 611
3 615 605 607
3 616 612 613
3 615 607 617
3 616 613 618
3 619 247 246
3 619 606 599
3 620 280 581
3 620 581 614
3 621 616 618
3 622 247 619
3 623 621 618
3 227 250 624
3 586 280 620
3 625 621 623
3 626 615 617
3 626 617 627
3 628 625 623
3 629 571 622
3 570 227 624
3 629 598 571
3 630 625 628
3 629 631 632
3 629 632 633
3 629 633 598
3 634 626 627
3 635 630 628
3 634 627 636
3 637 631 629
3 638 227 570
3 638 570 639
3 574 635 628
3 637 640 631
3 641 639 570
3 642 634 636
3 575 227 638
3 642 636 643
3 573 635 574
3 644 640 637
3 569 641 570
3 644 645 640
3 646 642 643
3 646 645 644
3 646 643 645
3 599 629 622
3 599 622 619
3 647 248 268
3 648 647 268
3 648 268 596
3 246 248 647
3 649 246 647
3 619 246 649
3 247 622 650
3 247 650 651
3 249 247 651
3 652 624 250
3 652 250 651
3 651 250 249
3 284 408 406
3 286 284 406
3 323 322 405
3 324 323 405
3 322 401 405
3 325 324 407
3 324 405 407
3 286 406 403
3 289 286 403
3 293 289 403
3 326 325 409
3 325 407 409
3 321 326 410
3 297 293 400
3 293 403 400
3 326 409 410
3 316 321 411
3 321 410 411
3 305 297 396
3 297 400 396
3 317 316 412
3 316 411 412
3 318 317 413
3 317 412 413
3 307 305 394
3 310 307 394
3 305 396 394
3 319 318 414
3 320 319 414
3 318 413 414
3 320 414 415
3 311 320 415
3 312 310 384
3 310 394 384
3 311 415 447
3 308 311 447
3 308 447 440
3 313 312 395
3 306 308 440
3 299 306 440
3 312 384 395
3 299 440 435
3 295 299 435
3 314 313 397
3 315 314 397
3 313 395 397
3 295 435 430
3 322 315 401
3 292 295 430
3 315 397 401
3 292 430 424
3 288 292 424
3 285 288 424
3 285 424 422
3 282 285 422
3 282 422 408
3 284 282 408
3 263 482 481
3 259 263 473
3 263 481 473
3 271 420 418
3 273 271 418
3 300 296 439
3 259 473 469
3 296 434 439
3 273 418 417
3 275 273 417
3 256 259 466
3 300 439 443
3 259 469 466
3 253 256 464
3 256 466 464
3 275 417 419
3 300 443 446
3 309 300 446
3 309 446 449
3 253 464 463
3 251 253 455
3 275 419 421
3 309 449 451
3 253 463 455
3 301 309 451
3 283 275 421
3 301 451 453
3 252 251 454
3 302 301 453
3 251 455 454
3 283 421 425
3 302 453 456
3 287 283 425
3 302 456 457
3 303 302 457
3 252 454 452
3 287 425 427
3 252 452 450
3 254 252 450
3 287 427 431
3 303 457 458
3 290 303 458
3 291 287 431
3 290 458 459
3 291 431 434
3 296 291 434
3 254 450 448
3 290 459 460
3 254 448 444
3 281 290 460
3 257 254 444
3 281 460 461
3 281 461 462
3 279 281 462
3 257 444 441
3 261 257 441
3 279 462 465
3 276 279 465
3 276 465 471
3 276 471 476
3 277 276 476
3 261 441 436
3 277 476 477
3 278 277 477
3 264 261 432
3 261 436 432
3 278 477 478
3 278 478 479
3 274 278 479
3 264 432 429
3 269 264 429
3 274 479 387
3 274 387 386
3 272 274 386
3 272 386 388
3 270 272 388
3 269 429 426
3 270 388 488
3 269 426 423
3 271 269 423
3 270 488 484
3 266 270 484
3 263 266 482
3 271 423 420
3 266 484 482
3 223 220 486
3 220 380 486
3 265 262 485
3 267 265 485
3 226 223 483
3 262 480 485
3 223 486 483
3 242 267 487
3 267 485 487
3 228 226 475
3 230 228 475
3 243 242 389
3 226 483 475
3 242 487 389
3 244 243 390
3 243 389 390
3 231 230 472
3 230 475 472
3 245 244 391
3 244 390 391
3 241 245 392
3 245 391 392
3 232 231 468
3 231 472 468
3 240 241 393
3 241 392 393
3 234 240 399
3 233 232 467
3 235 234 399
3 255 233 467
3 240 393 399
3 232 468 467
3 236 235 404
3 258 255 470
3 235 399 404
3 255 467 470
3 236 404 402
3 237 236 402
3 260 258 474
3 258 470 474
3 262 260 480
3 260 474 480
3 237 402 398
3 238 237 398
3 239 238 398
3 239 398 385
3 229 239 385
3 229 385 383
3 224 229 383
3 224 383 382
3 221 224 382
3 221 382 381
3 219 221 381
3 219 381 380
3 220 219 380
3 329 328 327
3 329 330 328
3 332 333 334
3 332 331 333
3 581 352 504
3 581 304 352
3 348 512 346
3 348 416 512
3 445 489 491
3 442 491 490
3 442 445 491
3 437 490 523
3 437 442 490
3 438 437 523
3 433 523 521
3 433 438 523
3 428 521 512
3 428 433 521
3 416 428 512
3 637 629 539
3 637 539 552
3 644 552 562
3 644 637 552
3 646 562 563
3 646 644 562
3 642 563 558
3 642 646 563
3 634 558 548
3 634 642 558
3 626 548 536
3 626 634 548
3 615 536 526
3 615 626 536
3 605 526 510
3 605 615 526
3 583 510 500
3 583 605 510
3 567 500 499
3 567 583 500
3 539 629 599
3 505 539 599
3 593 581 504
3 593 504 519
3 593 519 518
3 594 593 518
3 604 518 525
3 604 525 530
3 604 594 518
3 613 604 530
3 618 530 533
3 618 613 530
3 623 533 540
3 623 618 533
3 628 540 556
3 628 623 540
3 574 556 493
3 574 493 495
3 574 628 556
3 572 574 495
3 599 495 505
3 599 572 495
3 632 543 545
3 633 632 545
3 598 633 545
3 598 545 546
3 598 546 502
3 569 568 555
3 588 598 502
3 582 588 502
3 568 565 555
3 582 502 492
3 641 569 547
3 569 555 547
3 582 492 496
3 579 582 496
3 568 579 496
3 639 641 535
3 638 639 535
3 641 547 535
3 568 496 565
3 575 638 541
3 638 535 541
3 575 541 551
3 577 575 560
3 578 577 560
3 575 551 560
3 578 560 566
3 580 578 498
3 584 580 498
3 578 566 498
3 584 498 501
3 595 584 503
3 607 595 503
3 584 501 503
3 617 607 513
3 607 503 513
3 617 513 527
3 627 617 527
3 627 527 537
3 627 537 550
3 636 627 550
3 643 636 550
3 643 550 557
3 645 643 557
3 645 557 561
3 645 561 554
3 640 645 554
3 631 640 554
3 631 554 544
3 631 544 543
3 632 631 543
3 576 497 494
3 573 576 494
3 573 494 564
3 635 573 564
3 630 635 564
3 612 616 529
3 630 564 559
3 616 532 529
3 630 559 549
3 603 612 524
3 625 630 549
3 612 529 524
3 625 549 538
3 621 625 538
3 592 603 520
3 597 592 520
3 603 524 520
3 616 621 532
3 621 538 532
3 597 520 522
3 611 597 528
3 597 522 528
3 614 611 531
3 620 614 531
3 611 528 531
3 620 531 534
3 586 620 542
3 620 534 542
3 587 586 553
3 589 587 553
3 586 542 553
3 589 553 511
3 590 589 514
3 591 590 514
3 589 511 514
3 591 514 515
3 608 591 515
3 608 515 516
3 608 516 517
3 609 608 517
3 610 609 517
3 610 517 507
3 600 610 507
3 600 507 506
3 600 506 508
3 601 600 508
3 601 508 509
3 602 601 509
3 576 602 509
3 576 509 497
3 648 596 585
3 653 648 585
3 653 585 606
3 654 653 606
3 606 619 649
3 606 649 654
3 622 571 655
3 622 655 650
3 571 570 656
3 571 656 655
3 570 624 652
3 570 652 656
3 653 654 649
3 653 649 648
3 648 649 647
3 650 652 651
3 656 652 650
3 655 656 650
