ply
format ascii 1.0
comment Written by HALCON (export v1.0)
element vertex 8
property float x
property float y
property float z
element face 12
property list uchar int vertex_index
end_header
0.000000e+000 8.240000e-002 5.100000e-002
0.000000e+000 8.240000e-002 0.000000e+000
0.000000e+000 0.000000e+000 0.000000e+000
0.000000e+000 0.000000e+000 5.100000e-002
1.040000e-001 0.000000e+000 0.000000e+000
1.040000e-001 8.240000e-002 0.000000e+000
1.040000e-001 8.240000e-002 5.100000e-002
1.040000e-001 0.000000e+000 5.100000e-002
3 0 1 2
3 0 2 3
3 4 5 6
3 7 4 6
3 2 4 7
3 3 2 7
3 6 5 1
3 6 1 0
3 2 1 5
3 4 2 5
3 6 0 3
3 6 3 7
