ply
format ascii 1.0
comment Written by HALCON (export v1.0)
element vertex 509
property float x
property float y
property float z
element face 1034
property list uchar int vertex_index
end_header
-1.274948e-002 -5.937600e-002 0.000000e+000
-1.256247e-002 -6.010437e-002 0.000000e+000
-1.977314e-002 -1.058820e-001 0.000000e+000
-1.274948e-002 -5.862400e-002 0.000000e+000
0.000000e+000 -2.000000e-002 0.000000e+000
-7.144217e-003 -5.755474e-002 0.000000e+000
-7.586231e-003 -5.694636e-002 0.000000e+000
-8.165656e-003 -5.646702e-002 0.000000e+000
-8.846086e-003 -5.614683e-002 0.000000e+000
-9.584766e-003 -5.600592e-002 0.000000e+000
-1.033528e-002 -5.605314e-002 0.000000e+000
3.625052e-002 -9.624001e-003 0.000000e+000
3.625052e-002 -1.037600e-002 0.000000e+000
3.643753e-002 -1.110437e-002 0.000000e+000
3.679981e-002 -1.176336e-002 0.000000e+000
3.731459e-002 -1.231154e-002 0.000000e+000
3.794952e-002 -1.271448e-002 0.000000e+000
-8.165656e-003 -1.253298e-002 0.000000e+000
-7.586231e-003 -1.205364e-002 0.000000e+000
-7.144217e-003 -1.144526e-002 0.000000e+000
-8.846086e-003 -1.285317e-002 0.000000e+000
-6.867387e-003 -1.074607e-002 0.000000e+000
-9.584766e-003 -1.299408e-002 0.000000e+000
-6.773137e-003 -1.000000e-002 0.000000e+000
-1.033528e-002 -1.294686e-002 0.000000e+000
-1.105047e-002 -1.271448e-002 0.000000e+000
-1.105047e-002 -5.628552e-002 0.000000e+000
-1.168541e-002 -5.668846e-002 0.000000e+000
-1.168541e-002 -1.231154e-002 0.000000e+000
-1.220019e-002 -5.723665e-002 0.000000e+000
0.000000e+000 0.000000e+000 0.000000e+000
-6.867387e-003 -9.253930e-003 0.000000e+000
-7.144217e-003 -8.554739e-003 0.000000e+000
-7.586231e-003 -7.946359e-003 0.000000e+000
3.866472e-002 -7.053138e-003 0.000000e+000
3.794952e-002 -7.285519e-003 0.000000e+000
3.731459e-002 -7.688460e-003 0.000000e+000
3.679981e-002 -8.236644e-003 0.000000e+000
3.643753e-002 -8.895626e-003 0.000000e+000
-1.220019e-002 -1.176336e-002 0.000000e+000
-7.813094e-003 -1.100536e-001 0.000000e+000
-2.574371e-003 -1.146978e-001 0.000000e+000
-3.316080e-003 -1.154381e-001 0.000000e+000
-1.914212e-003 -1.138839e-001 0.000000e+000
-8.165656e-003 -7.467016e-003 0.000000e+000
-1.256247e-002 -1.110437e-002 0.000000e+000
-1.256247e-002 -5.789563e-002 0.000000e+000
-8.846086e-003 -7.146831e-003 0.000000e+000
9.018690e-002 -1.205364e-002 0.000000e+000
9.543145e-002 -1.669130e-002 0.000000e+000
9.469131e-002 -1.743145e-002 0.000000e+000
9.609018e-002 -1.587785e-002 0.000000e+000
-9.584766e-003 -7.005920e-003 0.000000e+000
-8.392520e-003 -1.105330e-001 0.000000e+000
-5.010758e-003 -1.166665e-001 0.000000e+000
-5.945116e-003 -1.171410e-001 0.000000e+000
-4.131193e-003 -1.160967e-001 0.000000e+000
8.960748e-002 -1.253298e-002 0.000000e+000
9.300000e-002 -1.866025e-002 0.000000e+000
9.206737e-002 -1.913545e-002 0.000000e+000
9.387785e-002 -1.809017e-002 0.000000e+000
-7.371080e-003 -1.094453e-001 0.000000e+000
-1.342852e-003 -1.130054e-001 0.000000e+000
-8.665670e-004 -1.120719e-001 0.000000e+000
-1.977314e-002 0.000000e+000 0.000000e+000
-1.033528e-002 -7.053138e-003 0.000000e+000
-1.105047e-002 -7.285519e-003 0.000000e+000
9.062892e-002 -1.144526e-002 0.000000e+000
-1.168541e-002 -7.688460e-003 0.000000e+000
-1.220019e-002 -8.236644e-003 0.000000e+000
9.666026e-002 -1.500000e-002 0.000000e+000
9.713545e-002 -1.406737e-002 0.000000e+000
-1.256247e-002 -8.895626e-003 0.000000e+000
-1.274948e-002 -9.624001e-003 0.000000e+000
-1.274948e-002 -1.037600e-002 0.000000e+000
0.000000e+000 -1.080000e-001 0.000000e+000
-6.773137e-003 -5.900000e-002 0.000000e+000
-6.867387e-003 -5.825393e-002 0.000000e+000
-9.072949e-003 -1.108532e-001 0.000000e+000
-6.867387e-003 -5.974607e-002 0.000000e+000
8.800000e-002 -2.000000e-002 0.000000e+000
3.941523e-002 -1.299408e-002 0.000000e+000
4.015392e-002 -1.285317e-002 0.000000e+000
3.866472e-002 -1.294686e-002 0.000000e+000
8.800000e-002 0.000000e+000 0.000000e+000
3.941523e-002 -7.005920e-003 0.000000e+000
4.015392e-002 -7.146831e-003 0.000000e+000
-6.924006e-003 -1.175152e-001 0.000000e+000
-7.936677e-003 -1.177848e-001 0.000000e+000
8.892705e-002 -1.285317e-002 0.000000e+000
9.109017e-002 -1.951057e-002 0.000000e+000
9.007911e-002 -1.978148e-002 0.000000e+000
-7.094251e-003 -1.087461e-001 0.000000e+000
-4.905870e-004 -1.110937e-001 0.000000e+000
-2.190410e-004 -1.100815e-001 0.000000e+000
-5.491100e-005 -1.090465e-001 0.000000e+000
9.090575e-002 -1.074607e-002 0.000000e+000
9.751057e-002 -1.309017e-002 0.000000e+000
9.778148e-002 -1.207912e-002 0.000000e+000
9.794522e-002 -1.104528e-002 0.000000e+000
-9.811629e-003 -1.109941e-001 0.000000e+000
-1.001863e-002 -1.180000e-001 0.000000e+000
-1.106504e-002 -1.179431e-001 0.000000e+000
-8.972007e-003 -1.179470e-001 0.000000e+000
8.818837e-002 -1.299408e-002 0.000000e+000
8.904529e-002 -1.994522e-002 0.000000e+000
-7.000000e-003 -1.080000e-001 0.000000e+000
9.100000e-002 -1.000000e-002 0.000000e+000
9.800000e-002 -1.000000e-002 0.000000e+000
9.794522e-002 -8.954716e-003 0.000000e+000
-1.056214e-002 -1.109469e-001 0.000000e+000
-1.209976e-002 -1.177771e-001 0.000000e+000
-1.311142e-002 -1.175036e-001 0.000000e+000
8.743786e-002 -1.294686e-002 0.000000e+000
-7.094251e-003 -1.072539e-001 0.000000e+000
9.090575e-002 -9.253930e-003 0.000000e+000
9.778148e-002 -7.920884e-003 0.000000e+000
9.751057e-002 -6.909830e-003 0.000000e+000
9.713545e-002 -5.932633e-003 0.000000e+000
-1.127734e-002 -1.107145e-001 0.000000e+000
-1.408891e-002 -1.171258e-001 0.000000e+000
-1.502149e-002 -1.166478e-001 0.000000e+000
8.672266e-002 -1.271448e-002 0.000000e+000
-7.371080e-003 -1.065547e-001 0.000000e+000
9.062892e-002 -8.554739e-003 0.000000e+000
9.666026e-002 -5.000000e-003 0.000000e+000
9.609018e-002 -4.122148e-003 0.000000e+000
-1.191227e-002 -1.103115e-001 0.000000e+000
-1.589893e-002 -1.160748e-001 0.000000e+000
-1.671158e-002 -1.154131e-001 0.000000e+000
8.608773e-002 -1.231154e-002 0.000000e+000
-7.813094e-003 -1.059464e-001 0.000000e+000
9.018690e-002 -7.946359e-003 0.000000e+000
9.543145e-002 -3.308694e-003 0.000000e+000
8.557295e-002 -1.176336e-002 0.000000e+000
9.469131e-002 -2.568552e-003 0.000000e+000
-1.745053e-002 -1.146701e-001 0.000000e+000
-1.242705e-002 -1.097634e-001 0.000000e+000
-8.392520e-003 -1.054670e-001 0.000000e+000
8.960748e-002 -7.467016e-003 0.000000e+000
8.521067e-002 -1.110437e-002 0.000000e+000
9.387785e-002 -1.909830e-003 0.000000e+000
-1.810765e-002 -1.138537e-001 0.000000e+000
9.300000e-002 -1.339746e-003 0.000000e+000
-1.867574e-002 -1.129731e-001 0.000000e+000
-1.278933e-002 -1.091044e-001 0.000000e+000
9.206737e-002 -8.645450e-004 0.000000e+000
8.892705e-002 -7.146831e-003 0.000000e+000
-1.914854e-002 -1.120379e-001 0.000000e+000
9.109017e-002 -4.894350e-004 0.000000e+000
-1.952087e-002 -1.110583e-001 0.000000e+000
9.007911e-002 -2.185240e-004 0.000000e+000
8.818837e-002 -7.005920e-003 0.000000e+000
-1.978865e-002 -1.100451e-001 0.000000e+000
-1.297634e-002 -1.083760e-001 0.000000e+000
8.904529e-002 -5.478100e-005 0.000000e+000
-1.994892e-002 -1.090095e-001 0.000000e+000
8.743786e-002 -7.053138e-003 0.000000e+000
8.672266e-002 -7.285519e-003 0.000000e+000
8.608773e-002 -7.688460e-003 0.000000e+000
8.557295e-002 -8.236644e-003 0.000000e+000
8.521067e-002 -8.895626e-003 0.000000e+000
-1.999993e-002 -1.079627e-001 0.000000e+000
-1.297634e-002 -1.076240e-001 0.000000e+000
-1.994112e-002 -1.069164e-001 0.000000e+000
-1.127734e-002 -1.052855e-001 0.000000e+000
-1.191227e-002 -1.056885e-001 0.000000e+000
-1.242705e-002 -1.062366e-001 0.000000e+000
-1.278933e-002 -1.068956e-001 0.000000e+000
-1.056214e-002 -1.050531e-001 0.000000e+000
-8.165656e-003 -6.153298e-002 0.000000e+000
-7.586231e-003 -6.105364e-002 0.000000e+000
4.083434e-002 -1.253298e-002 0.000000e+000
4.141377e-002 -1.205364e-002 0.000000e+000
-7.144217e-003 -6.044526e-002 0.000000e+000
4.185578e-002 -1.144526e-002 0.000000e+000
-8.846086e-003 -6.185317e-002 0.000000e+000
-9.072949e-003 -1.051468e-001 0.000000e+000
4.213261e-002 -1.074607e-002 0.000000e+000
8.502366e-002 -1.037600e-002 0.000000e+000
-9.584766e-003 -6.199408e-002 0.000000e+000
-9.811629e-003 -1.050059e-001 0.000000e+000
4.222686e-002 -1.000000e-002 0.000000e+000
8.502366e-002 -9.624001e-003 0.000000e+000
-1.033528e-002 -6.194686e-002 0.000000e+000
4.213261e-002 -9.253930e-003 0.000000e+000
-1.105047e-002 -6.171448e-002 0.000000e+000
4.185578e-002 -8.554739e-003 0.000000e+000
-1.168541e-002 -6.131154e-002 0.000000e+000
4.141377e-002 -7.946359e-003 0.000000e+000
-1.220019e-002 -6.076336e-002 0.000000e+000
4.083434e-002 -7.467016e-003 0.000000e+000
-1.062470e-002 -6.080965e-002 1.000000e-003
-1.014790e-002 -6.096457e-002 1.000000e-003
-9.647556e-003 -6.099605e-002 1.000000e-003
-9.155103e-003 -6.090211e-002 1.000000e-003
-7.773137e-003 -5.900000e-002 1.000000e-003
-7.835970e-003 -5.850262e-002 1.000000e-003
-8.701484e-003 -6.068866e-002 1.000000e-003
-8.020523e-003 -5.803649e-002 1.000000e-003
-8.315200e-003 -6.036910e-002 1.000000e-003
-8.315200e-003 -5.763090e-002 1.000000e-003
-8.020523e-003 -5.996351e-002 1.000000e-003
-8.701484e-003 -5.731134e-002 1.000000e-003
-7.835970e-003 -5.949738e-002 1.000000e-003
-9.155103e-003 -5.709789e-002 1.000000e-003
-9.647556e-003 -5.700395e-002 1.000000e-003
-1.014790e-002 -5.703543e-002 1.000000e-003
-1.062470e-002 -5.719035e-002 1.000000e-003
-1.104799e-002 -5.745897e-002 1.000000e-003
-1.139117e-002 -5.782443e-002 1.000000e-003
-1.163269e-002 -5.826375e-002 1.000000e-003
-1.175737e-002 -5.874933e-002 1.000000e-003
-1.175737e-002 -5.925067e-002 1.000000e-003
-1.163269e-002 -5.973625e-002 1.000000e-003
-1.139117e-002 -6.017557e-002 1.000000e-003
-1.104799e-002 -6.054103e-002 1.000000e-003
-1.001863e-002 -1.180000e-001 2.000000e-003
-8.972007e-003 -1.179470e-001 2.000000e-003
-7.936677e-003 -1.177848e-001 2.000000e-003
-6.924006e-003 -1.175152e-001 2.000000e-003
-1.977314e-002 -1.058820e-001 2.000000e-003
-1.994112e-002 -1.069164e-001 2.000000e-003
-5.945116e-003 -1.171410e-001 2.000000e-003
-1.999993e-002 -1.079627e-001 2.000000e-003
-5.010758e-003 -1.166665e-001 2.000000e-003
-1.994892e-002 -1.090095e-001 2.000000e-003
-4.131193e-003 -1.160967e-001 2.000000e-003
-1.978865e-002 -1.100451e-001 2.000000e-003
-1.952087e-002 -1.110583e-001 2.000000e-003
-3.316080e-003 -1.154381e-001 2.000000e-003
-2.574371e-003 -1.146978e-001 2.000000e-003
-1.914854e-002 -1.120379e-001 2.000000e-003
-1.867574e-002 -1.129731e-001 2.000000e-003
-1.914212e-003 -1.138839e-001 2.000000e-003
-1.342852e-003 -1.130054e-001 2.000000e-003
-8.665670e-004 -1.120719e-001 2.000000e-003
-1.810765e-002 -1.138537e-001 2.000000e-003
-1.745053e-002 -1.146701e-001 2.000000e-003
-1.671158e-002 -1.154131e-001 2.000000e-003
-4.905870e-004 -1.110937e-001 2.000000e-003
-2.190410e-004 -1.100815e-001 2.000000e-003
-5.491100e-005 -1.090465e-001 2.000000e-003
0.000000e+000 -1.080000e-001 2.000000e-003
-1.589893e-002 -1.160748e-001 2.000000e-003
-1.502149e-002 -1.166478e-001 2.000000e-003
-1.408891e-002 -1.171258e-001 2.000000e-003
-1.311142e-002 -1.175036e-001 2.000000e-003
-1.209976e-002 -1.177771e-001 2.000000e-003
-1.106504e-002 -1.179431e-001 2.000000e-003
-1.977314e-002 0.000000e+000 2.000000e-003
0.000000e+000 -2.000000e-002 2.000000e-003
0.000000e+000 0.000000e+000 2.000000e-003
8.800000e-002 -2.000000e-002 2.000000e-003
8.800000e-002 0.000000e+000 2.000000e-003
9.713545e-002 -5.932633e-003 2.000000e-003
9.666026e-002 -5.000000e-003 2.000000e-003
8.904529e-002 -1.994522e-002 2.000000e-003
9.609018e-002 -4.122148e-003 2.000000e-003
9.543145e-002 -3.308694e-003 2.000000e-003
9.007911e-002 -1.978148e-002 2.000000e-003
9.469131e-002 -2.568552e-003 2.000000e-003
9.387785e-002 -1.909830e-003 2.000000e-003
9.109017e-002 -1.951057e-002 2.000000e-003
9.206737e-002 -1.913545e-002 2.000000e-003
9.300000e-002 -1.339746e-003 2.000000e-003
9.206737e-002 -8.645450e-004 2.000000e-003
9.300000e-002 -1.866025e-002 2.000000e-003
9.387785e-002 -1.809017e-002 2.000000e-003
9.109017e-002 -4.894350e-004 2.000000e-003
9.469131e-002 -1.743145e-002 2.000000e-003
9.007911e-002 -2.185240e-004 2.000000e-003
9.543145e-002 -1.669130e-002 2.000000e-003
8.904529e-002 -5.478100e-005 2.000000e-003
9.609018e-002 -1.587785e-002 2.000000e-003
9.666026e-002 -1.500000e-002 2.000000e-003
9.713545e-002 -1.406737e-002 2.000000e-003
9.751057e-002 -1.309017e-002 2.000000e-003
9.778148e-002 -1.207912e-002 2.000000e-003
9.794522e-002 -1.104528e-002 2.000000e-003
9.800000e-002 -1.000000e-002 2.000000e-003
9.794522e-002 -8.954716e-003 2.000000e-003
9.778148e-002 -7.920884e-003 2.000000e-003
9.751057e-002 -6.909830e-003 2.000000e-003
-1.085156e-002 -1.098097e-001 1.000000e-003
-1.037476e-002 -1.099646e-001 1.000000e-003
-9.874419e-003 -1.099961e-001 1.000000e-003
-9.381966e-003 -1.099021e-001 1.000000e-003
-8.000000e-003 -1.080000e-001 1.000000e-003
-8.062834e-003 -1.075026e-001 1.000000e-003
-8.928346e-003 -1.096887e-001 1.000000e-003
-8.247387e-003 -1.070365e-001 1.000000e-003
-8.542063e-003 -1.093691e-001 1.000000e-003
-8.542063e-003 -1.066309e-001 1.000000e-003
-8.247387e-003 -1.089635e-001 1.000000e-003
-8.928346e-003 -1.063114e-001 1.000000e-003
-8.062834e-003 -1.084974e-001 1.000000e-003
-9.381966e-003 -1.060979e-001 1.000000e-003
-9.874419e-003 -1.060039e-001 1.000000e-003
-1.037476e-002 -1.060354e-001 1.000000e-003
-1.085156e-002 -1.061903e-001 1.000000e-003
-1.127485e-002 -1.064590e-001 1.000000e-003
-1.161803e-002 -1.068244e-001 1.000000e-003
-1.185955e-002 -1.072638e-001 1.000000e-003
-1.198423e-002 -1.077493e-001 1.000000e-003
-1.198423e-002 -1.082507e-001 1.000000e-003
-1.185955e-002 -1.087363e-001 1.000000e-003
-1.161803e-002 -1.091756e-001 1.000000e-003
-1.127485e-002 -1.095410e-001 1.000000e-003
-1.062470e-002 -1.180965e-002 1.000000e-003
-1.014790e-002 -1.196457e-002 1.000000e-003
-9.647556e-003 -1.199605e-002 1.000000e-003
-9.155103e-003 -1.190211e-002 1.000000e-003
-7.773137e-003 -1.000000e-002 1.000000e-003
-7.835970e-003 -9.502620e-003 1.000000e-003
-8.701484e-003 -1.168866e-002 1.000000e-003
-8.020523e-003 -9.036493e-003 1.000000e-003
-8.315200e-003 -1.136909e-002 1.000000e-003
-8.315200e-003 -8.630906e-003 1.000000e-003
-8.020523e-003 -1.096351e-002 1.000000e-003
-8.701484e-003 -8.311344e-003 1.000000e-003
-7.835970e-003 -1.049738e-002 1.000000e-003
-9.155103e-003 -8.097887e-003 1.000000e-003
-9.647556e-003 -8.003946e-003 1.000000e-003
-1.014790e-002 -8.035425e-003 1.000000e-003
-1.062470e-002 -8.190346e-003 1.000000e-003
-1.104799e-002 -8.458974e-003 1.000000e-003
-1.139117e-002 -8.824430e-003 1.000000e-003
-1.163269e-002 -9.263751e-003 1.000000e-003
-1.175737e-002 -9.749333e-003 1.000000e-003
-1.175737e-002 -1.025067e-002 1.000000e-003
-1.163269e-002 -1.073625e-002 1.000000e-003
-1.139117e-002 -1.117557e-002 1.000000e-003
-1.104799e-002 -1.154103e-002 1.000000e-003
3.935244e-002 -1.199605e-002 1.000000e-003
3.885210e-002 -1.196457e-002 1.000000e-003
4.122686e-002 -1.000000e-002 1.000000e-003
3.984490e-002 -1.190211e-002 1.000000e-003
4.116403e-002 -9.502620e-003 1.000000e-003
4.029851e-002 -1.168866e-002 1.000000e-003
4.097948e-002 -9.036493e-003 1.000000e-003
4.068480e-002 -1.136909e-002 1.000000e-003
4.068480e-002 -8.630906e-003 1.000000e-003
4.097948e-002 -1.096351e-002 1.000000e-003
4.029851e-002 -8.311344e-003 1.000000e-003
4.116403e-002 -1.049738e-002 1.000000e-003
3.984490e-002 -8.097887e-003 1.000000e-003
3.935244e-002 -8.003946e-003 1.000000e-003
3.885210e-002 -8.035425e-003 1.000000e-003
3.837531e-002 -8.190346e-003 1.000000e-003
3.795201e-002 -8.458974e-003 1.000000e-003
3.760883e-002 -8.824430e-003 1.000000e-003
3.736731e-002 -9.263751e-003 1.000000e-003
3.724263e-002 -9.749333e-003 1.000000e-003
3.724263e-002 -1.025067e-002 1.000000e-003
3.736731e-002 -1.073625e-002 1.000000e-003
3.760883e-002 -1.117557e-002 1.000000e-003
3.795201e-002 -1.154103e-002 1.000000e-003
3.837531e-002 -1.180965e-002 1.000000e-003
8.812558e-002 -1.199605e-002 1.000000e-003
8.762524e-002 -1.196457e-002 1.000000e-003
8.861803e-002 -1.190211e-002 1.000000e-003
9.000000e-002 -1.000000e-002 1.000000e-003
8.993717e-002 -9.502620e-003 1.000000e-003
8.907165e-002 -1.168866e-002 1.000000e-003
8.975261e-002 -9.036493e-003 1.000000e-003
8.945794e-002 -1.136909e-002 1.000000e-003
8.945794e-002 -8.630906e-003 1.000000e-003
8.975261e-002 -1.096351e-002 1.000000e-003
8.907165e-002 -8.311344e-003 1.000000e-003
8.993717e-002 -1.049738e-002 1.000000e-003
8.861803e-002 -8.097887e-003 1.000000e-003
8.812558e-002 -8.003946e-003 1.000000e-003
8.762524e-002 -8.035425e-003 1.000000e-003
8.714844e-002 -8.190346e-003 1.000000e-003
8.672515e-002 -8.458974e-003 1.000000e-003
8.638196e-002 -8.824430e-003 1.000000e-003
8.614045e-002 -9.263751e-003 1.000000e-003
8.601577e-002 -9.749333e-003 1.000000e-003
8.601577e-002 -1.025067e-002 1.000000e-003
8.614045e-002 -1.073625e-002 1.000000e-003
8.638196e-002 -1.117557e-002 1.000000e-003
8.672515e-002 -1.154103e-002 1.000000e-003
8.714844e-002 -1.180965e-002 1.000000e-003
-9.155103e-003 -6.090211e-002 2.000000e-003
-9.647556e-003 -6.099605e-002 2.000000e-003
-8.701484e-003 -6.068866e-002 2.000000e-003
-7.835970e-003 -5.850262e-002 2.000000e-003
-7.773137e-003 -5.900000e-002 2.000000e-003
-8.315200e-003 -6.036910e-002 2.000000e-003
-8.020523e-003 -5.803649e-002 2.000000e-003
-8.020523e-003 -5.996351e-002 2.000000e-003
-8.315200e-003 -5.763090e-002 2.000000e-003
-7.835970e-003 -5.949738e-002 2.000000e-003
-8.701484e-003 -5.731134e-002 2.000000e-003
-9.155103e-003 -5.709789e-002 2.000000e-003
-9.647556e-003 -5.700395e-002 2.000000e-003
-1.014790e-002 -5.703543e-002 2.000000e-003
-1.062470e-002 -5.719035e-002 2.000000e-003
-1.104799e-002 -5.745897e-002 2.000000e-003
-1.139117e-002 -5.782443e-002 2.000000e-003
-1.163269e-002 -5.826375e-002 2.000000e-003
-1.175737e-002 -5.874933e-002 2.000000e-003
-1.175737e-002 -5.925067e-002 2.000000e-003
-1.163269e-002 -5.973625e-002 2.000000e-003
-1.139117e-002 -6.017557e-002 2.000000e-003
-1.104799e-002 -6.054103e-002 2.000000e-003
-1.062470e-002 -6.080965e-002 2.000000e-003
-1.014790e-002 -6.096457e-002 2.000000e-003
4.068480e-002 -8.630906e-003 2.000000e-003
4.029851e-002 -8.311344e-003 2.000000e-003
3.984490e-002 -8.097887e-003 2.000000e-003
3.724263e-002 -1.025067e-002 2.000000e-003
3.724263e-002 -9.749333e-003 2.000000e-003
3.736731e-002 -1.073625e-002 2.000000e-003
3.760883e-002 -1.117557e-002 2.000000e-003
3.795201e-002 -1.154103e-002 2.000000e-003
3.837531e-002 -1.180965e-002 2.000000e-003
-8.315200e-003 -1.136909e-002 2.000000e-003
-8.701484e-003 -1.168866e-002 2.000000e-003
-8.020523e-003 -1.096351e-002 2.000000e-003
-9.155103e-003 -1.190211e-002 2.000000e-003
-7.835970e-003 -1.049738e-002 2.000000e-003
-9.647556e-003 -1.199605e-002 2.000000e-003
-7.773137e-003 -1.000000e-002 2.000000e-003
-1.014790e-002 -1.196457e-002 2.000000e-003
-1.062470e-002 -1.180965e-002 2.000000e-003
-1.104799e-002 -1.154103e-002 2.000000e-003
-8.542063e-003 -1.093691e-001 2.000000e-003
3.837531e-002 -8.190346e-003 2.000000e-003
3.885210e-002 -8.035425e-003 2.000000e-003
3.795201e-002 -8.458974e-003 2.000000e-003
3.760883e-002 -8.824430e-003 2.000000e-003
3.736731e-002 -9.263751e-003 2.000000e-003
-7.835970e-003 -9.502620e-003 2.000000e-003
-8.020523e-003 -9.036493e-003 2.000000e-003
-8.315200e-003 -8.630906e-003 2.000000e-003
8.945794e-002 -1.136909e-002 2.000000e-003
-1.139117e-002 -1.117557e-002 2.000000e-003
-8.701484e-003 -8.311344e-003 2.000000e-003
-8.928346e-003 -1.096887e-001 2.000000e-003
-9.155103e-003 -8.097887e-003 2.000000e-003
8.907165e-002 -1.168866e-002 2.000000e-003
-9.647556e-003 -8.003946e-003 2.000000e-003
-8.247387e-003 -1.089635e-001 2.000000e-003
8.975261e-002 -1.096351e-002 2.000000e-003
-9.381966e-003 -1.099021e-001 2.000000e-003
-1.014790e-002 -8.035425e-003 2.000000e-003
-1.062470e-002 -8.190346e-003 2.000000e-003
-1.104799e-002 -8.458974e-003 2.000000e-003
-1.139117e-002 -8.824430e-003 2.000000e-003
-1.163269e-002 -9.263751e-003 2.000000e-003
-1.175737e-002 -9.749333e-003 2.000000e-003
-1.175737e-002 -1.025067e-002 2.000000e-003
-1.163269e-002 -1.073625e-002 2.000000e-003
8.861803e-002 -1.190211e-002 2.000000e-003
3.935244e-002 -1.199605e-002 2.000000e-003
3.984490e-002 -1.190211e-002 2.000000e-003
3.885210e-002 -1.196457e-002 2.000000e-003
-8.062834e-003 -1.084974e-001 2.000000e-003
3.935244e-002 -8.003946e-003 2.000000e-003
8.993717e-002 -1.049738e-002 2.000000e-003
-9.874419e-003 -1.099961e-001 2.000000e-003
8.812558e-002 -1.199605e-002 2.000000e-003
-8.000000e-003 -1.080000e-001 2.000000e-003
9.000000e-002 -1.000000e-002 2.000000e-003
-1.037476e-002 -1.099646e-001 2.000000e-003
8.762524e-002 -1.196457e-002 2.000000e-003
-8.062834e-003 -1.075026e-001 2.000000e-003
8.993717e-002 -9.502620e-003 2.000000e-003
-1.085156e-002 -1.098097e-001 2.000000e-003
8.714844e-002 -1.180965e-002 2.000000e-003
-8.247387e-003 -1.070365e-001 2.000000e-003
8.975261e-002 -9.036493e-003 2.000000e-003
-1.127485e-002 -1.095410e-001 2.000000e-003
8.672515e-002 -1.154103e-002 2.000000e-003
-8.542063e-003 -1.066309e-001 2.000000e-003
8.945794e-002 -8.630906e-003 2.000000e-003
8.638196e-002 -1.117557e-002 2.000000e-003
-8.928346e-003 -1.063114e-001 2.000000e-003
8.907165e-002 -8.311344e-003 2.000000e-003
-1.161803e-002 -1.091756e-001 2.000000e-003
8.614045e-002 -1.073625e-002 2.000000e-003
-9.381966e-003 -1.060979e-001 2.000000e-003
-1.185955e-002 -1.087363e-001 2.000000e-003
8.861803e-002 -8.097887e-003 2.000000e-003
8.812558e-002 -8.003946e-003 2.000000e-003
-1.198423e-002 -1.082507e-001 2.000000e-003
8.762524e-002 -8.035425e-003 2.000000e-003
8.714844e-002 -8.190346e-003 2.000000e-003
8.672515e-002 -8.458974e-003 2.000000e-003
8.638196e-002 -8.824430e-003 2.000000e-003
8.614045e-002 -9.263751e-003 2.000000e-003
-1.198423e-002 -1.077493e-001 2.000000e-003
-1.085156e-002 -1.061903e-001 2.000000e-003
-1.037476e-002 -1.060354e-001 2.000000e-003
-1.127485e-002 -1.064590e-001 2.000000e-003
-1.161803e-002 -1.068244e-001 2.000000e-003
-1.185955e-002 -1.072638e-001 2.000000e-003
4.068480e-002 -1.136909e-002 2.000000e-003
4.029851e-002 -1.168866e-002 2.000000e-003
4.097948e-002 -1.096351e-002 2.000000e-003
4.116403e-002 -1.049738e-002 2.000000e-003
8.601577e-002 -1.025067e-002 2.000000e-003
-9.874419e-003 -1.060039e-001 2.000000e-003
4.122686e-002 -1.000000e-002 2.000000e-003
8.601577e-002 -9.749333e-003 2.000000e-003
4.116403e-002 -9.502620e-003 2.000000e-003
4.097948e-002 -9.036493e-003 2.000000e-003
3 0 1 2
3 3 0 2
3 4 5 6
3 4 6 7
3 4 7 8
3 4 8 9
3 4 9 10
3 4 11 12
3 4 12 13
3 4 13 14
3 4 14 15
3 4 15 16
3 17 18 4
3 19 4 18
3 20 17 4
3 21 4 19
3 22 20 4
3 23 4 21
3 24 4 10
3 24 22 4
3 25 10 26
3 25 26 27
3 25 24 10
3 28 27 29
3 28 25 27
3 30 23 31
3 30 31 32
3 30 32 33
3 30 4 23
3 30 34 35
3 30 35 36
3 30 36 37
3 30 37 38
3 30 38 11
3 30 11 4
3 39 28 29
3 40 41 42
3 40 43 41
3 44 30 33
3 45 29 46
3 45 39 29
3 47 30 44
3 48 49 50
3 48 51 49
3 52 30 47
3 53 40 42
3 53 54 55
3 53 56 54
3 53 42 56
3 57 48 50
3 57 58 59
3 57 60 58
3 57 50 60
3 61 43 40
3 61 62 43
3 61 63 62
3 64 46 3
3 64 52 65
3 64 65 66
3 67 51 48
3 64 66 68
3 64 68 69
3 67 70 51
3 64 30 52
3 67 71 70
3 64 69 72
3 64 72 73
3 64 73 74
3 64 74 45
3 64 45 46
3 2 64 3
3 4 75 76
3 4 76 77
3 4 77 5
3 78 53 55
3 76 75 79
3 80 4 81
3 80 81 82
3 81 4 83
3 83 4 16
3 30 84 85
3 30 85 34
3 85 84 86
3 78 87 88
3 78 55 87
3 89 57 59
3 89 90 91
3 89 59 90
3 92 93 63
3 92 94 93
3 92 95 94
3 92 63 61
3 96 97 71
3 96 98 97
3 96 99 98
3 96 71 67
3 100 78 88
3 100 101 102
3 100 103 101
3 100 88 103
3 104 105 80
3 104 91 105
3 104 89 91
3 106 75 95
3 106 95 92
3 107 99 96
3 107 108 99
3 107 109 108
3 110 100 102
3 110 111 112
3 110 102 111
3 113 104 80
3 114 75 106
3 115 109 107
3 115 116 109
3 115 117 116
3 115 118 117
3 119 110 112
3 119 120 121
3 119 112 120
3 122 113 80
3 123 75 114
3 124 118 115
3 124 125 118
3 124 126 125
3 127 119 121
3 127 128 129
3 127 121 128
3 130 122 80
3 131 75 123
3 132 126 124
3 132 133 126
3 134 130 80
3 135 133 132
3 136 137 127
3 136 127 129
3 138 75 131
3 139 135 132
3 140 134 80
3 141 135 139
3 142 137 136
3 143 141 139
3 144 145 137
3 144 137 142
3 146 139 147
3 146 143 139
3 148 145 144
3 149 146 147
3 150 145 148
3 151 147 152
3 151 149 147
3 153 145 150
3 153 154 145
3 155 151 152
3 156 154 153
3 84 152 157
3 84 157 158
3 84 158 159
3 84 159 160
3 84 160 161
3 84 155 152
3 162 163 154
3 162 154 156
3 164 163 162
3 2 165 166
3 2 166 167
3 2 167 168
3 2 168 163
3 2 163 164
3 2 169 165
3 170 75 138
3 170 171 75
3 172 173 80
3 174 75 171
3 175 80 173
3 175 140 80
3 176 170 138
3 176 138 177
3 82 172 80
3 79 75 174
3 178 140 175
3 178 179 140
3 180 176 177
3 180 177 181
3 182 179 178
3 182 183 179
3 184 180 181
3 184 169 2
3 184 181 169
3 185 183 182
3 185 161 183
3 186 184 2
3 187 84 161
3 187 161 185
3 188 186 2
3 189 84 187
3 190 188 2
3 191 84 189
3 1 190 2
3 86 84 191
3 186 192 193
3 180 184 194
3 176 180 194
3 184 193 194
3 176 194 195
3 76 196 197
3 77 76 197
3 170 176 198
3 176 195 198
3 5 77 199
3 77 197 199
3 171 170 200
3 170 198 200
3 6 5 201
3 7 6 201
3 5 199 201
3 174 171 202
3 171 200 202
3 8 7 203
3 7 201 203
3 79 174 204
3 174 202 204
3 76 79 196
3 79 204 196
3 8 203 205
3 9 8 206
3 8 205 206
3 10 9 207
3 9 206 207
3 26 10 208
3 27 26 208
3 10 207 208
3 27 208 209
3 29 27 210
3 27 209 210
3 29 210 211
3 46 29 211
3 46 211 212
3 3 46 212
3 0 3 212
3 0 212 213
3 1 0 213
3 1 213 214
3 1 214 215
3 190 1 215
3 188 190 216
3 190 215 216
3 186 188 192
3 188 216 192
3 184 186 193
3 217 101 103
3 218 217 103
3 218 103 88
3 219 218 88
3 220 219 88
3 220 88 87
3 221 2 164
3 222 221 164
3 220 87 55
3 223 220 55
3 224 222 162
3 222 164 162
3 225 223 54
3 223 55 54
3 226 224 156
3 224 162 156
3 227 225 56
3 228 226 153
3 225 54 56
3 229 228 153
3 226 156 153
3 230 227 42
3 227 56 42
3 229 153 150
3 231 230 41
3 232 229 148
3 233 232 148
3 230 42 41
3 229 150 148
3 234 231 43
3 235 234 43
3 231 41 43
3 233 148 144
3 235 43 62
3 236 235 62
3 233 144 142
3 237 233 142
3 236 62 63
3 237 142 136
3 238 237 136
3 239 238 136
3 240 236 93
3 236 63 93
3 239 136 129
3 241 240 94
3 240 93 94
3 242 241 95
3 243 242 95
3 239 129 128
3 244 239 128
3 241 94 95
3 243 95 75
3 244 128 121
3 245 244 121
3 246 245 121
3 246 121 120
3 247 246 120
3 247 120 112
3 247 112 111
3 248 247 111
3 249 248 111
3 249 111 102
3 249 102 101
3 217 249 101
3 64 2 221
3 64 221 250
3 75 4 251
3 75 251 243
3 252 30 64
3 250 252 64
3 251 4 80
3 253 251 80
3 84 30 252
3 84 252 254
3 255 117 118
3 256 255 118
3 257 253 80
3 256 118 125
3 258 256 125
3 258 125 126
3 257 80 105
3 259 258 126
3 260 257 91
3 259 126 133
3 261 259 133
3 257 105 91
3 262 261 135
3 263 260 90
3 261 133 135
3 264 263 90
3 260 91 90
3 265 262 141
3 262 135 141
3 264 90 59
3 266 265 143
3 265 141 143
3 267 264 58
3 268 267 58
3 264 59 58
3 269 266 146
3 266 143 146
3 270 268 60
3 268 58 60
3 271 269 149
3 269 146 149
3 272 270 50
3 270 60 50
3 271 149 151
3 273 271 155
3 271 151 155
3 272 50 49
3 273 155 84
3 254 273 84
3 272 49 51
3 274 272 51
3 275 274 51
3 275 51 70
3 276 275 70
3 276 70 71
3 277 276 71
3 277 71 97
3 278 277 97
3 278 97 98
3 279 278 98
3 279 98 99
3 280 279 99
3 280 99 108
3 281 280 108
3 281 108 109
3 282 281 109
3 282 109 116
3 282 116 117
3 283 282 117
3 255 283 117
3 119 284 285
3 100 110 286
3 78 100 286
3 110 285 286
3 78 286 287
3 106 288 289
3 114 106 289
3 53 78 290
3 78 287 290
3 123 114 291
3 114 289 291
3 40 53 292
3 53 290 292
3 131 123 293
3 138 131 293
3 123 291 293
3 61 40 294
3 40 292 294
3 177 138 295
3 138 293 295
3 92 61 296
3 61 294 296
3 106 92 288
3 92 296 288
3 177 295 297
3 181 177 298
3 177 297 298
3 169 181 299
3 181 298 299
3 165 169 300
3 166 165 300
3 169 299 300
3 166 300 301
3 167 166 302
3 166 301 302
3 167 302 303
3 168 167 303
3 168 303 304
3 163 168 304
3 154 163 304
3 154 304 305
3 145 154 305
3 145 305 306
3 145 306 307
3 137 145 307
3 127 137 308
3 137 307 308
3 119 127 284
3 127 308 284
3 110 119 285
3 25 309 310
3 22 24 311
3 20 22 311
3 24 310 311
3 20 311 312
3 23 313 314
3 31 23 314
3 17 20 315
3 20 312 315
3 32 31 316
3 31 314 316
3 18 17 317
3 17 315 317
3 33 32 318
3 44 33 318
3 32 316 318
3 19 18 319
3 18 317 319
3 47 44 320
3 44 318 320
3 21 19 321
3 19 319 321
3 23 21 313
3 21 321 313
3 47 320 322
3 52 47 323
3 47 322 323
3 65 52 324
3 52 323 324
3 66 65 325
3 68 66 325
3 65 324 325
3 68 325 326
3 69 68 327
3 68 326 327
3 69 327 328
3 72 69 328
3 72 328 329
3 73 72 329
3 74 73 329
3 74 329 330
3 45 74 330
3 45 330 331
3 45 331 332
3 39 45 332
3 28 39 333
3 39 332 333
3 25 28 309
3 28 333 309
3 24 25 310
3 81 83 334
3 83 335 334
3 185 182 336
3 82 81 337
3 81 334 337
3 187 185 338
3 185 336 338
3 172 82 339
3 82 337 339
3 189 187 340
3 187 338 340
3 173 172 341
3 172 339 341
3 189 340 342
3 175 173 343
3 178 175 343
3 191 189 344
3 173 341 343
3 189 342 344
3 178 343 345
3 182 178 336
3 86 191 346
3 178 345 336
3 85 86 346
3 191 344 346
3 85 346 347
3 34 85 348
3 85 347 348
3 35 34 349
3 34 348 349
3 36 35 350
3 35 349 350
3 37 36 351
3 36 350 351
3 37 351 352
3 38 37 352
3 38 352 353
3 11 38 353
3 12 11 353
3 12 353 354
3 13 12 354
3 13 354 355
3 13 355 356
3 14 13 356
3 15 14 357
3 14 356 357
3 16 15 357
3 16 357 358
3 16 358 335
3 83 16 335
3 104 113 359
3 89 104 359
3 113 360 359
3 89 359 361
3 107 362 363
3 115 107 363
3 57 89 364
3 89 361 364
3 124 115 365
3 115 363 365
3 48 57 366
3 57 364 366
3 132 124 367
3 139 132 367
3 124 365 367
3 67 48 368
3 48 366 368
3 147 139 369
3 96 67 370
3 139 367 369
3 67 368 370
3 107 96 362
3 96 370 362
3 147 369 371
3 152 147 372
3 147 371 372
3 157 152 373
3 158 157 373
3 152 372 373
3 159 158 374
3 158 373 374
3 160 159 375
3 159 374 375
3 161 160 376
3 160 375 376
3 161 376 377
3 161 377 378
3 183 161 378
3 179 183 378
3 179 378 379
3 140 179 379
3 140 379 380
3 140 380 381
3 134 140 381
3 130 134 382
3 134 381 382
3 122 130 383
3 130 382 383
3 113 122 360
3 122 383 360
3 195 194 384
3 194 385 384
3 198 195 386
3 195 384 386
3 197 196 387
3 196 388 387
3 200 198 389
3 198 386 389
3 199 197 390
3 202 200 391
3 197 387 390
3 200 389 391
3 201 199 392
3 204 202 393
3 203 201 392
3 196 204 393
3 199 390 392
3 202 391 393
3 196 393 388
3 203 392 394
3 205 203 395
3 206 205 395
3 203 394 395
3 206 395 396
3 207 206 397
3 208 207 397
3 206 396 397
3 208 397 398
3 209 208 399
3 210 209 399
3 208 398 399
3 210 399 400
3 211 210 401
3 210 400 401
3 211 401 402
3 212 211 402
3 212 402 403
3 213 212 403
3 214 213 403
3 214 403 404
3 215 214 405
3 214 404 405
3 216 215 406
3 215 405 406
3 192 216 407
3 193 192 407
3 216 406 407
3 193 407 408
3 194 193 385
3 193 408 385
3 409 254 410
3 221 405 404
3 410 254 411
3 221 404 403
3 221 403 402
3 412 413 251
3 414 412 251
3 415 414 251
3 416 415 251
3 417 416 251
3 390 387 251
3 392 390 251
3 394 392 251
3 395 394 251
3 396 395 251
3 397 396 251
3 398 397 251
3 251 418 419
3 418 251 420
3 251 419 421
3 420 251 422
3 251 421 423
3 422 251 424
3 251 423 425
3 398 251 426
3 251 425 426
3 399 398 427
3 400 399 427
3 398 426 427
3 230 231 428
3 231 234 428
3 429 430 252
3 424 251 252
3 431 429 252
3 432 431 252
3 433 432 252
3 413 433 252
3 434 424 252
3 435 434 252
3 436 435 252
3 270 272 437
3 251 413 252
3 272 274 437
3 400 427 438
3 436 252 439
3 223 225 440
3 225 227 440
3 227 230 440
3 230 428 440
3 439 252 441
3 264 267 442
3 267 268 442
3 268 270 442
3 270 437 442
3 441 252 443
3 234 235 444
3 428 234 444
3 235 236 444
3 437 274 445
3 274 275 445
3 275 276 445
3 401 400 250
3 402 401 250
3 400 438 250
3 443 252 250
3 219 220 446
3 447 443 250
3 220 223 446
3 448 447 250
3 449 448 250
3 223 440 446
3 450 449 250
3 451 450 250
3 452 451 250
3 453 452 250
3 454 453 250
3 438 454 250
3 260 263 455
3 221 402 250
3 263 264 455
3 264 442 455
3 388 243 251
3 387 388 251
3 393 243 388
3 456 251 253
3 457 456 253
3 458 251 456
3 236 240 459
3 417 251 458
3 240 241 459
3 460 254 252
3 241 242 459
3 430 460 252
3 411 254 460
3 444 236 459
3 445 276 461
3 276 277 461
3 277 278 461
3 278 279 461
3 249 217 462
3 217 218 462
3 218 219 462
3 219 446 462
3 253 257 463
3 257 260 463
3 260 455 463
3 459 242 464
3 242 243 464
3 461 279 465
3 279 280 465
3 280 281 465
3 247 248 466
3 248 249 466
3 249 462 466
3 253 463 467
3 464 243 468
3 465 281 469
3 281 282 469
3 282 283 469
3 283 255 469
3 245 246 470
3 246 247 470
3 247 466 470
3 253 467 471
3 468 243 472
3 469 255 473
3 255 256 473
3 256 258 473
3 239 244 474
3 244 245 474
3 245 470 474
3 253 471 475
3 472 243 476
3 473 258 477
3 258 259 477
3 253 475 478
3 476 243 479
3 477 259 261
3 480 477 261
3 239 474 238
3 474 481 238
3 253 478 482
3 479 243 483
3 480 261 262
3 238 481 237
3 480 262 265
3 237 481 233
3 481 484 233
3 485 480 266
3 480 265 266
3 233 484 232
3 485 266 269
3 232 484 229
3 486 485 271
3 485 269 271
3 229 484 228
3 484 487 228
3 486 271 273
3 228 487 226
3 486 273 254
3 488 486 254
3 489 488 254
3 490 489 254
3 491 490 254
3 492 491 254
3 487 493 224
3 226 487 224
3 224 493 222
3 494 495 221
3 496 494 221
3 497 496 221
3 498 497 221
3 493 498 221
3 222 493 221
3 243 389 386
3 253 499 500
3 389 243 391
3 499 253 501
3 253 482 501
3 483 243 384
3 243 386 384
3 253 500 457
3 391 243 393
3 501 482 502
3 482 503 502
3 483 384 385
3 504 483 385
3 502 503 505
3 503 506 505
3 504 385 408
3 495 504 408
3 221 495 408
3 505 506 507
3 506 492 507
3 221 408 407
3 492 254 508
3 507 492 508
3 221 407 406
3 508 254 409
3 221 406 405
3 287 286 446
3 286 462 446
3 290 287 440
3 287 446 440
3 289 288 468
3 288 464 468
3 292 290 428
3 290 440 428
3 291 289 472
3 294 292 444
3 289 468 472
3 292 428 444
3 293 291 476
3 296 294 459
3 295 293 476
3 288 296 459
3 291 472 476
3 294 444 459
3 288 459 464
3 295 476 479
3 297 295 483
3 298 297 483
3 295 479 483
3 298 483 504
3 299 298 495
3 300 299 495
3 298 504 495
3 300 495 494
3 301 300 496
3 302 301 496
3 300 494 496
3 302 496 497
3 303 302 498
3 302 497 498
3 303 498 493
3 304 303 493
3 304 493 487
3 305 304 487
3 306 305 487
3 306 487 484
3 307 306 481
3 306 484 481
3 308 307 474
3 307 481 474
3 284 308 470
3 285 284 470
3 308 474 470
3 285 470 466
3 286 285 462
3 285 466 462
3 312 311 421
3 311 423 421
3 315 312 419
3 312 421 419
3 314 313 434
3 313 424 434
3 317 315 418
3 315 419 418
3 316 314 435
3 319 317 420
3 314 434 435
3 317 418 420
3 318 316 436
3 321 319 422
3 320 318 436
3 313 321 422
3 316 435 436
3 319 420 422
3 313 422 424
3 320 436 439
3 322 320 441
3 323 322 441
3 320 439 441
3 323 441 443
3 324 323 447
3 325 324 447
3 323 443 447
3 325 447 448
3 326 325 449
3 327 326 449
3 325 448 449
3 327 449 450
3 328 327 451
3 327 450 451
3 328 451 452
3 329 328 452
3 329 452 453
3 330 329 453
3 331 330 453
3 331 453 454
3 332 331 438
3 331 454 438
3 333 332 427
3 332 438 427
3 309 333 426
3 310 309 426
3 333 427 426
3 310 426 425
3 311 310 423
3 310 425 423
3 337 334 457
3 334 456 457
3 339 337 500
3 337 457 500
3 338 336 507
3 336 505 507
3 341 339 499
3 339 500 499
3 340 338 508
3 343 341 501
3 338 507 508
3 341 499 501
3 342 340 409
3 345 343 502
3 344 342 409
3 336 345 502
3 340 508 409
3 343 501 502
3 336 502 505
3 344 409 410
3 346 344 411
3 347 346 411
3 344 410 411
3 347 411 460
3 348 347 430
3 349 348 430
3 347 460 430
3 349 430 429
3 350 349 431
3 351 350 431
3 349 429 431
3 351 431 432
3 352 351 433
3 351 432 433
3 352 433 413
3 353 352 413
3 353 413 412
3 354 353 412
3 355 354 412
3 355 412 414
3 356 355 415
3 355 414 415
3 357 356 416
3 356 415 416
3 358 357 417
3 335 358 417
3 357 416 417
3 335 417 458
3 334 335 456
3 335 458 456
3 361 359 455
3 359 463 455
3 364 361 442
3 361 455 442
3 363 362 469
3 362 465 469
3 366 364 437
3 364 442 437
3 365 363 473
3 368 366 445
3 363 469 473
3 366 437 445
3 367 365 477
3 370 368 461
3 369 367 477
3 362 370 461
3 365 473 477
3 368 445 461
3 362 461 465
3 369 477 480
3 371 369 485
3 372 371 485
3 369 480 485
3 372 485 486
3 373 372 488
3 374 373 488
3 372 486 488
3 374 488 489
3 375 374 490
3 376 375 490
3 374 489 490
3 376 490 491
3 377 376 492
3 376 491 492
3 377 492 506
3 378 377 506
3 378 506 503
3 379 378 503
3 380 379 503
3 380 503 482
3 381 380 478
3 380 482 478
3 382 381 475
3 381 478 475
3 383 382 471
3 360 383 471
3 382 475 471
3 360 471 467
3 359 360 463
3 360 467 463
