ply
format ascii 1.0
comment Written by HALCON (export v1.0)
element vertex 241
property float x
property float y
property float z
property float nx
property float ny
property float nz
element face 498
property list uchar int vertex_index
end_header
4.800000e-002 6.000000e-002 -5.050000e-002 3.686410e-001 7.583937e-001 5.375339e-001
3.075000e-002 5.503110e-002 -5.050000e-002 -2.542871e-001 -5.475752e-001 7.971821e-001
3.203110e-002 5.375000e-002 -5.050000e-002 -1.090958e-001 -7.694123e-002 9.910490e-001
4.800000e-002 4.740970e-002 -5.050000e-002 1.044295e-001 -6.339312e-001 7.663066e-001
2.900000e-002 5.550000e-002 -5.050000e-002 1.478722e-002 -1.649344e-001 9.861937e-001
1.000000e-002 6.000000e-002 -5.050000e-002 -2.251709e-001 9.193283e-001 3.226972e-001
4.800000e-002 4.560630e-002 -5.561480e-002 7.149543e-001 -6.107240e-001 3.403769e-001
4.800000e-002 6.000000e-002 -6.599970e-002 4.700892e-001 8.575749e-001 -2.087617e-001
2.725000e-002 5.503110e-002 -5.050000e-002 3.467803e-001 -4.938024e-001 7.974350e-001
2.725000e-002 5.503110e-002 -5.700000e-002 3.229010e-001 -6.993483e-001 -6.376888e-001
2.900000e-002 5.550000e-002 -5.700000e-002 -5.561795e-002 -6.232062e-001 -7.800773e-001
2.596890e-002 5.375000e-002 -5.050000e-002 1.220162e-001 -5.587658e-002 9.909540e-001
2.596890e-002 5.375000e-002 -5.700000e-002 6.291702e-001 -4.422549e-001 -6.391835e-001
2.543250e-002 5.859720e-002 -5.700000e-002 4.405330e-001 -8.258019e-001 -3.521106e-001
2.272390e-002 5.610620e-002 -5.700000e-002 7.988107e-001 -5.496689e-001 -2.444703e-001
2.550000e-002 5.200000e-002 -5.700000e-002 7.646860e-001 -6.768408e-002 -6.408386e-001
2.152620e-002 5.262660e-002 -5.700000e-002 9.576980e-001 -1.133602e-001 -2.645071e-001
1.000000e-002 4.740970e-002 -5.050000e-002 -1.446328e-001 -4.338984e-001 8.892770e-001
2.550000e-002 5.200000e-002 -5.050000e-002 5.329926e-001 4.870690e-002 8.447168e-001
2.212780e-002 4.899610e-002 -5.700000e-002 9.305018e-001 3.045534e-001 -2.035034e-001
2.596890e-002 5.025000e-002 -5.700000e-002 6.962350e-001 3.229622e-001 -6.410555e-001
2.158760e-002 5.314280e-002 -7.189530e-002 9.994943e-001 5.063294e-003 -3.139243e-002
2.207890e-002 5.488930e-002 -7.124690e-002 8.382411e-001 1.778087e-001 -5.154958e-001
2.153580e-002 5.126840e-002 -7.197120e-002 9.572372e-001 4.654110e-002 -2.855360e-001
2.074990e-002 5.273980e-002 -7.340340e-002 8.055504e-001 2.706023e-001 -5.271271e-001
2.322470e-002 5.678500e-002 -6.934520e-002 6.167766e-001 2.432580e-001 -7.486068e-001
1.000000e-002 6.000000e-002 -6.619970e-002 -6.343804e-001 7.206689e-001 -2.796387e-001
2.007440e-002 5.030190e-002 -7.584490e-002 2.442611e-001 6.697482e-001 -7.012658e-001
2.000000e-002 2.900000e-002 -7.700000e-002 9.782846e-001 1.971080e-001 -6.409034e-002
2.120580e-002 2.900000e-002 -7.250000e-002 8.522381e-001 1.769919e-001 -4.923051e-001
2.193460e-002 4.948410e-002 -7.142510e-002 9.299451e-001 1.977711e-001 -3.099817e-001
2.272380e-002 4.789390e-002 -7.054950e-002 8.154624e-001 3.001027e-001 -4.949338e-001
2.450000e-002 2.900000e-002 -6.920580e-002 4.943602e-001 1.998478e-001 -8.459721e-001
2.466990e-002 2.900000e-002 -7.450000e-002 8.068923e-001 1.704277e-001 -5.655787e-001
2.650000e-002 2.900000e-002 -7.266990e-002 4.143822e-001 1.718170e-001 -8.937373e-001
2.438390e-002 4.608890e-002 -5.700000e-002 6.230260e-001 7.371681e-001 -2.615758e-001
2.526150e-002 4.549830e-002 -6.881330e-002 6.301079e-001 6.032234e-001 -4.889638e-001
2.725000e-002 4.896890e-002 -5.700000e-002 4.395444e-001 6.267267e-001 -6.434395e-001
2.775130e-002 4.460470e-002 -5.700000e-002 3.314733e-001 -3.838924e-001 8.618307e-001
2.701350e-002 4.476800e-002 -6.822210e-002 3.041688e-001 2.924135e-001 -9.066288e-001
2.891730e-002 4.450050e-002 -6.800040e-002 1.248187e-002 7.641678e-001 -6.448966e-001
2.900000e-002 2.900000e-002 -6.800000e-002 3.437432e-003 1.890588e-001 -9.819598e-001
3.082430e-002 4.472530e-002 -6.818690e-002 -2.905995e-001 2.964407e-001 -9.097664e-001
3.024870e-002 4.460470e-002 -5.700000e-002 -2.903248e-001 9.118240e-001 -2.903248e-001
2.900000e-002 4.450000e-002 -5.712400e-002 -6.883194e-003 -6.181108e-001 7.860608e-001
3.350000e-002 2.900000e-002 -6.920580e-002 -4.908322e-001 1.996351e-001 -8.480740e-001
2.900000e-002 2.900000e-002 -7.200000e-002 -8.497811e-002 2.473243e-001 -9.651991e-001
3.259710e-002 4.541900e-002 -6.875020e-002 -6.185476e-001 6.084351e-001 -4.971977e-001
3.519150e-002 4.776740e-002 -7.046820e-002 -8.102062e-001 3.048144e-001 -5.006537e-001
3.679420e-002 2.900000e-002 -7.250000e-002 -8.695956e-001 1.815964e-001 -4.591583e-001
3.150000e-002 2.900000e-002 -7.266990e-002 -5.655787e-001 1.704277e-001 -8.068923e-001
3.361610e-002 4.608890e-002 -5.700000e-002 -6.196249e-001 7.400635e-001 -2.614785e-001
3.587220e-002 4.899610e-002 -5.700000e-002 -9.002148e-001 3.656664e-001 -2.364349e-001
3.601150e-002 4.933750e-002 -7.135740e-002 -9.244406e-001 2.052740e-001 -3.213599e-001
3.075000e-002 4.896890e-002 -5.700000e-002 -3.222906e-001 6.947872e-001 -6.429616e-001
3.203110e-002 5.025000e-002 -5.700000e-002 -6.258045e-001 4.422352e-001 -6.424926e-001
3.250000e-002 5.200000e-002 -5.700000e-002 -7.646860e-001 6.768408e-002 -6.408386e-001
3.647380e-002 5.262660e-002 -5.700000e-002 -9.694234e-001 -9.178717e-002 -2.275819e-001
3.644670e-002 5.110740e-002 -7.194530e-002 -9.766512e-001 9.260283e-002 -1.938486e-001
3.643520e-002 5.298350e-002 -7.192849e-002 -9.917344e-001 -1.187367e-001 -4.862552e-002
3.728650e-002 5.256820e-002 -7.348800e-002 -6.364383e-001 4.104446e-001 -6.530555e-001
3.203110e-002 5.375000e-002 -5.700000e-002 -6.962350e-001 -3.229622e-001 -6.410555e-001
3.527610e-002 5.610620e-002 -5.700000e-002 -8.037617e-001 -5.425780e-001 -2.440824e-001
3.597960e-002 5.474500e-002 -7.131800e-002 -8.354616e-001 1.881670e-001 -5.163304e-001
3.793690e-002 5.011660e-002 -7.593620e-002 -4.342654e-001 5.939952e-001 -6.771878e-001
3.487330e-002 5.666410e-002 -6.940470e-002 -6.093641e-001 2.611561e-001 -7.486473e-001
3.325480e-002 5.817630e-002 -6.790100e-002 -7.365476e-001 -3.641910e-001 -5.699670e-001
3.256750e-002 5.859720e-002 -5.700000e-002 -4.442273e-001 -8.236385e-001 -3.525362e-001
3.126510e-002 5.914980e-002 -6.693800e-002 -3.609407e-001 -8.306364e-001 -4.239871e-001
3.075000e-002 5.503110e-002 -5.700000e-002 -4.422549e-001 -6.291702e-001 -6.391835e-001
2.900000e-002 5.950000e-002 -5.700000e-002 -3.600481e-003 -9.661290e-001 -2.580345e-001
2.907780e-002 5.949960e-002 -6.659970e-002 -8.353323e-003 -2.422464e-001 -9.701788e-001
2.688370e-002 5.919520e-002 -6.691560e-002 3.465964e-001 -8.501716e-001 -3.963323e-001
3.250000e-002 5.200000e-002 -5.050000e-002 -5.329926e-001 -4.870690e-002 8.447168e-001
3.203110e-002 5.025000e-002 -5.050000e-002 -4.889233e-001 2.269457e-001 8.422884e-001
3.075000e-002 4.896890e-002 -5.050000e-002 -4.039128e-001 5.720724e-001 7.138540e-001
2.900000e-002 4.850000e-002 -5.050000e-002 -4.223312e-002 4.754632e-001 8.787213e-001
2.900000e-002 4.850000e-002 -5.700000e-002 7.287656e-002 8.102158e-001 -5.815835e-001
2.725000e-002 4.896890e-002 -5.050000e-002 2.939635e-001 6.345114e-001 7.148292e-001
1.000000e-002 4.180640e-002 -5.948440e-002 -8.710331e-001 -2.650971e-001 4.135514e-001
1.000000e-002 4.560630e-002 -5.561480e-002 -5.636125e-001 -7.455278e-001 3.557093e-001
4.800000e-002 4.180640e-002 -5.948440e-002 7.718659e-001 -3.052306e-001 5.577251e-001
4.800000e-002 3.672520e-002 -6.138040e-002 4.208351e-001 -5.818621e-002 9.052691e-001
4.800000e-002 3.800000e-002 -8.800000e-002 5.217183e-001 1.141710e-001 -8.454437e-001
1.000000e-002 3.672520e-002 -6.138040e-002 -4.206263e-001 -1.919932e-001 8.866860e-001
2.596890e-002 5.025000e-002 -5.050000e-002 4.406993e-001 3.098910e-001 8.424676e-001
1.000000e-002 3.820000e-002 -8.800000e-002 -7.263021e-001 1.592103e-001 -6.686832e-001
1.000000e-002 3.131930e-002 -6.094580e-002 -3.852057e-001 2.049585e-001 8.997825e-001
1.000000e-002 2.660620e-002 -5.826250e-002 -9.239510e-001 2.356289e-001 3.013194e-001
4.800000e-002 3.131930e-002 -6.094580e-002 3.845180e-001 3.351021e-001 8.601468e-001
4.800000e-002 2.660620e-002 -5.826250e-002 9.230548e-001 2.790631e-001 2.647521e-001
1.000000e-002 2.347320e-002 -5.383560e-002 -5.202185e-001 7.615738e-001 3.864946e-001
1.000000e-002 0.000000e+000 -8.800000e-002 -7.062256e-001 -3.263249e-001 -6.282973e-001
4.800000e-002 2.347320e-002 -5.383560e-002 5.212634e-001 8.092888e-001 2.708065e-001
4.800000e-002 0.000000e+000 -8.800000e-002 8.412310e-001 -3.900680e-001 -3.744026e-001
1.000000e-002 2.251010e-002 -4.849840e-002 -9.601424e-001 2.793807e-001 8.540022e-003
4.800000e-002 2.251010e-002 -4.849840e-002 9.605461e-001 2.763894e-001 -3.098536e-002
1.000000e-002 2.389810e-002 -4.325560e-002 -5.375587e-001 7.750474e-001 -3.321632e-001
1.000000e-002 0.000000e+000 -1.000000e-002 -6.636578e-001 -4.597126e-001 5.901038e-001
4.800000e-002 2.389810e-002 -4.325560e-002 5.383843e-001 7.172936e-001 -4.423034e-001
4.800000e-002 0.000000e+000 -1.000000e-002 7.712786e-001 -5.361916e-001 3.429694e-001
1.000000e-002 2.737600e-002 -3.909420e-002 -9.217646e-001 2.594703e-001 -2.881410e-001
4.800000e-002 2.737600e-002 -3.909420e-002 9.220876e-001 2.123509e-001 -3.235145e-001
1.000000e-002 3.228910e-002 -3.679750e-002 -3.991674e-001 2.636012e-001 -8.781684e-001
1.000000e-002 3.800000e-002 -1.000000e-002 -7.251759e-001 1.559355e-001 6.706742e-001
4.800000e-002 3.228910e-002 -3.679750e-002 4.005453e-001 1.335151e-001 -9.064972e-001
4.800000e-002 3.800000e-002 -1.000000e-002 5.185074e-001 1.112119e-001 8.478101e-001
1.000000e-002 3.771250e-002 -3.679790e-002 -4.165923e-001 -1.313325e-001 -8.995569e-001
4.800000e-002 3.771250e-002 -3.679790e-002 4.163900e-001 -2.619472e-001 -8.706337e-001
1.000000e-002 4.262530e-002 -3.909520e-002 -7.842150e-001 -3.415906e-001 -5.179988e-001
4.800000e-002 4.262530e-002 -3.909520e-002 7.852514e-001 -4.128641e-001 -4.614364e-001
1.000000e-002 4.610260e-002 -4.325710e-002 -5.428068e-001 -7.154427e-001 -4.398893e-001
1.000000e-002 6.000000e-002 -3.200000e-002 -5.987144e-001 7.399660e-001 3.065803e-001
4.800000e-002 6.000000e-002 -3.200000e-002 4.421904e-001 8.678924e-001 2.263415e-001
4.800000e-002 4.610260e-002 -4.325710e-002 5.440165e-001 -7.718937e-001 -3.289776e-001
1.000000e-002 4.749000e-002 -4.850000e-002 -1.111021e-001 -6.740193e-001 -7.303111e-001
1.000000e-002 6.000000e-002 -4.850000e-002 -2.170470e-001 9.263511e-001 -3.078380e-001
4.800000e-002 6.000000e-002 -4.850000e-002 3.641239e-001 7.751794e-001 -5.162468e-001
4.800000e-002 4.749000e-002 -4.850000e-002 1.523303e-001 -4.598924e-001 -8.748111e-001
3.075000e-002 5.503110e-002 -4.850000e-002 -4.630697e-001 -7.674194e-001 -4.434342e-001
2.900000e-002 5.550000e-002 -4.850000e-002 1.330160e-003 -4.908291e-001 -8.712549e-001
3.203110e-002 5.375000e-002 -4.850000e-002 -2.929932e-001 -1.774466e-001 -9.395040e-001
3.034640e-002 5.523070e-002 -2.989870e-002 -3.454159e-001 -9.289074e-001 1.334874e-001
3.147570e-002 5.447400e-002 -2.965280e-002 -7.214622e-001 -6.794644e-001 1.334930e-001
2.725000e-002 5.503110e-002 -4.850000e-002 4.630697e-001 -7.674194e-001 -4.434342e-001
2.765360e-002 5.523070e-002 -2.989870e-002 3.454159e-001 -9.289074e-001 1.334874e-001
2.900000e-002 5.550000e-002 -3.000000e-002 1.097609e-003 -9.911408e-001 1.328107e-001
3.075580e-002 5.782710e-002 -2.982710e-002 -7.447442e-002 5.072692e-001 8.585637e-001
2.900000e-002 5.800000e-002 -3.000000e-002 1.376222e-003 6.454480e-001 7.638030e-001
3.223110e-002 5.334530e-002 -2.940000e-002 -9.433932e-001 -3.274053e-001 5.305778e-002
3.244410e-002 5.731490e-002 -2.931490e-002 -3.613708e-001 3.039143e-001 8.815028e-001
2.724420e-002 5.782710e-002 -2.982710e-002 7.447442e-002 5.072692e-001 8.585637e-001
2.652430e-002 5.447400e-002 -2.965280e-002 7.214622e-001 -6.794644e-001 1.334930e-001
2.555580e-002 5.731490e-002 -2.931490e-002 1.469310e-001 5.476519e-001 8.237042e-001
2.596890e-002 5.375000e-002 -4.850000e-002 2.929932e-001 -1.774466e-001 -9.395040e-001
2.576890e-002 5.334530e-002 -2.940000e-002 9.433932e-001 -3.274053e-001 5.305778e-002
2.263600e-002 5.536400e-002 -2.736400e-002 5.639469e-001 2.209436e-001 7.957059e-001
2.550000e-002 5.200000e-002 -2.929160e-002 7.665139e-001 -4.143319e-003 6.422144e-001
2.550000e-002 5.200000e-002 -4.850000e-002 9.096553e-001 1.293962e-003 -4.153618e-001
2.596890e-002 5.025000e-002 -4.850000e-002 7.427948e-001 4.463356e-001 -4.990395e-001
2.576890e-002 5.065470e-002 -2.940000e-002 9.201238e-001 2.923085e-001 2.606297e-001
2.450000e-002 2.900000e-002 -2.879420e-002 5.143874e-001 1.488628e-001 8.445386e-001
2.652430e-002 4.952600e-002 -2.965280e-002 5.492294e-001 3.548119e-001 7.566080e-001
2.725000e-002 4.896890e-002 -4.850000e-002 4.841646e-001 8.005493e-001 -3.531365e-001
2.900000e-002 4.850000e-002 -4.850000e-002 1.315987e-003 8.882909e-001 -4.592793e-001
2.765360e-002 4.876940e-002 -2.989870e-002 3.503346e-001 8.014503e-001 4.847094e-001
2.900000e-002 2.900000e-002 -3.000000e-002 1.103818e-003 1.401849e-001 9.901247e-001
2.900000e-002 4.850000e-002 -3.000000e-002 1.380622e-003 6.889302e-001 7.248263e-001
3.075000e-002 4.896890e-002 -4.850000e-002 -4.841646e-001 8.005493e-001 -3.531365e-001
3.034640e-002 4.876940e-002 -2.989870e-002 -3.503346e-001 8.014503e-001 4.847094e-001
3.250000e-002 5.200000e-002 -4.850000e-002 -9.096553e-001 1.293962e-003 -4.153618e-001
3.203110e-002 5.025000e-002 -4.850000e-002 -7.427948e-001 4.463356e-001 -4.990395e-001
3.147570e-002 4.952600e-002 -2.965280e-002 -5.492294e-001 3.548119e-001 7.566080e-001
3.223110e-002 5.065470e-002 -2.940000e-002 -9.201238e-001 2.923085e-001 2.606297e-001
3.350000e-002 2.900000e-002 -2.879420e-002 -5.178632e-001 1.423023e-001 8.435448e-001
3.250000e-002 5.200000e-002 -2.929160e-002 -9.758276e-001 1.168656e-003 2.185386e-001
3.536400e-002 5.536400e-002 -2.736400e-002 -5.649458e-001 2.244305e-001 7.940197e-001
3.679420e-002 2.900000e-002 -2.550000e-002 -8.411685e-001 1.522678e-001 5.188931e-001
3.731490e-002 5.244410e-002 -2.444410e-002 -7.791091e-001 2.797207e-001 5.610217e-001
3.800000e-002 4.900000e-002 -2.100000e-002 -3.051966e-001 6.733703e-001 6.733703e-001
3.800000e-002 2.900000e-002 -2.100000e-002 -9.884891e-001 1.490127e-001 2.616254e-002
3.731490e-002 4.555590e-002 -1.755580e-002 -9.001233e-001 4.213641e-001 1.105906e-001
3.333010e-002 2.900000e-002 -2.350000e-002 -8.068923e-001 1.704277e-001 5.655787e-001
3.400000e-002 2.900000e-002 -2.100000e-002 -9.813692e-001 1.706203e-001 8.833533e-002
3.679420e-002 2.900000e-002 -1.650000e-002 -8.271089e-001 2.923807e-001 -4.800046e-001
3.536400e-002 4.263600e-002 -1.463600e-002 -7.876247e-001 5.857481e-001 -1.911711e-001
3.150000e-002 2.900000e-002 -1.666990e-002 -5.655787e-001 1.704277e-001 -8.068923e-001
3.350000e-002 2.900000e-002 -1.320580e-002 -4.851303e-001 2.681391e-001 -8.323161e-001
3.333010e-002 2.900000e-002 -1.850000e-002 -9.037079e-001 9.244035e-002 -4.180512e-001
3.400000e-002 0.000000e+000 -2.100000e-002 -9.485930e-001 -3.048581e-001 -8.504627e-002
3.333010e-002 0.000000e+000 -2.350000e-002 -2.212754e-001 -9.698184e-001 1.024189e-001
3.333010e-002 0.000000e+000 -1.850000e-002 -7.629284e-001 -3.612166e-001 -5.361556e-001
2.900000e-002 2.900000e-002 -1.600000e-002 -8.497811e-002 2.473243e-001 -9.651991e-001
3.150000e-002 0.000000e+000 -1.666990e-002 -4.005013e-001 -3.053631e-001 -8.639166e-001
3.150000e-002 0.000000e+000 -2.533010e-002 -2.686383e-001 -8.839551e-001 3.826970e-001
3.333010e-002 0.000000e+000 -7.450000e-002 -8.556807e-002 -9.945899e-001 -5.889750e-002
2.900000e-002 0.000000e+000 -1.600000e-002 5.548270e-002 -7.924069e-001 -6.074645e-001
2.650000e-002 0.000000e+000 -1.666990e-002 5.469646e-001 -3.045779e-001 -7.797833e-001
2.650000e-002 2.900000e-002 -1.666990e-002 4.143822e-001 1.718170e-001 -8.937373e-001
2.466990e-002 2.900000e-002 -1.850000e-002 8.068923e-001 1.704277e-001 -5.655787e-001
2.466990e-002 0.000000e+000 -1.850000e-002 8.458878e-001 -3.611832e-001 -3.924544e-001
2.450000e-002 2.900000e-002 -1.320580e-002 4.851303e-001 2.681391e-001 -8.323161e-001
2.120580e-002 2.900000e-002 -1.650000e-002 8.390805e-001 2.439009e-001 -4.862678e-001
2.400000e-002 2.900000e-002 -2.100000e-002 9.920019e-001 9.039002e-002 -8.810166e-002
2.000000e-002 2.900000e-002 -2.100000e-002 9.833142e-001 1.799453e-001 2.670156e-002
2.400000e-002 0.000000e+000 -2.100000e-002 9.485930e-001 -3.048581e-001 8.504627e-002
2.466990e-002 2.900000e-002 -2.350000e-002 8.937373e-001 1.718170e-001 4.143822e-001
2.466990e-002 0.000000e+000 -2.350000e-002 1.981347e-001 -9.702210e-001 1.393335e-001
2.466990e-002 0.000000e+000 -7.450000e-002 9.404203e-002 -9.946327e-001 -4.314870e-002
2.650000e-002 0.000000e+000 -2.533010e-002 1.955859e-001 -8.838130e-001 4.249949e-001
2.650000e-002 2.900000e-002 -2.533010e-002 5.655787e-001 1.704277e-001 8.068923e-001
2.120580e-002 2.900000e-002 -2.550000e-002 8.411685e-001 1.522678e-001 5.188931e-001
2.900000e-002 2.900000e-002 -2.600000e-002 8.497811e-002 2.473243e-001 9.651991e-001
2.068510e-002 5.244410e-002 -2.444410e-002 7.791091e-001 2.797207e-001 5.610217e-001
3.150000e-002 2.900000e-002 -2.533010e-002 -4.143822e-001 1.718170e-001 8.937373e-001
2.900000e-002 0.000000e+000 -2.600000e-002 -6.178244e-002 -7.255844e-001 6.853540e-001
2.900000e-002 0.000000e+000 -7.200000e-002 3.867110e-002 -9.054372e-001 -4.227151e-001
3.150000e-002 0.000000e+000 -7.266990e-002 -3.080697e-001 -6.854955e-001 -6.596886e-001
2.650000e-002 0.000000e+000 -7.266990e-002 4.196554e-001 -6.850501e-001 -5.954794e-001
3.333010e-002 2.900000e-002 -7.450000e-002 -9.037079e-001 9.244035e-002 -4.180512e-001
3.400000e-002 2.900000e-002 -7.700000e-002 -9.813692e-001 1.706203e-001 8.833533e-002
3.400000e-002 0.000000e+000 -7.700000e-002 -9.485930e-001 -3.048581e-001 -8.504627e-002
3.800000e-002 2.900000e-002 -7.700000e-002 -9.832048e-001 1.788708e-001 3.624180e-002
3.333010e-002 0.000000e+000 -7.950000e-002 -8.458878e-001 -3.611832e-001 3.924544e-001
3.333010e-002 2.900000e-002 -7.950000e-002 -8.068923e-001 1.704277e-001 5.655787e-001
3.150000e-002 0.000000e+000 -8.133010e-002 -5.469646e-001 -3.045779e-001 7.797833e-001
3.150000e-002 2.900000e-002 -8.133010e-002 -4.143822e-001 1.718170e-001 8.937373e-001
3.679420e-002 2.900000e-002 -8.150000e-002 -8.348894e-001 2.638930e-001 4.830322e-001
2.900000e-002 0.000000e+000 -8.200000e-002 -5.548270e-002 -7.924069e-001 6.074645e-001
2.900000e-002 2.900000e-002 -8.200000e-002 8.497811e-002 2.473243e-001 9.651991e-001
2.650000e-002 0.000000e+000 -8.133010e-002 4.005013e-001 -3.053631e-001 8.639166e-001
3.350000e-002 2.900000e-002 -8.479421e-002 -5.082771e-001 2.657963e-001 8.191500e-001
2.650000e-002 2.900000e-002 -8.133010e-002 5.655787e-001 1.704277e-001 8.068923e-001
2.900000e-002 2.900000e-002 -8.600000e-002 1.183086e-003 2.378002e-001 9.713134e-001
2.450000e-002 2.900000e-002 -8.479421e-002 5.118758e-001 2.660510e-001 8.168231e-001
2.466990e-002 0.000000e+000 -7.950000e-002 7.629284e-001 -3.612166e-001 5.361556e-001
2.466990e-002 2.900000e-002 -7.950000e-002 8.937373e-001 1.718170e-001 4.143822e-001
2.120580e-002 2.900000e-002 -8.150000e-002 8.724741e-001 2.095721e-001 4.414392e-001
2.644790e-002 4.048280e-002 -8.563060e-002 3.567899e-001 4.133733e-001 8.377490e-001
2.222480e-002 4.321130e-002 -8.292420e-002 8.184676e-001 5.225245e-001 2.389124e-001
2.414400e-002 4.154800e-002 -8.457760e-002 5.366595e-001 8.437102e-001 -1.222769e-002
2.084230e-002 4.534120e-002 -8.080160e-002 7.049827e-001 6.372269e-001 -3.113539e-001
2.010610e-002 4.776890e-002 -7.837780e-002 9.404204e-001 3.170714e-001 -1.227809e-001
2.895400e-002 4.010030e-002 -8.599990e-002 6.473367e-003 9.153340e-001 -4.026434e-001
3.146370e-002 4.043080e-002 -8.565620e-002 -3.448200e-001 4.041103e-001 8.472273e-001
3.377830e-002 4.144800e-002 -8.462680e-002 -5.286677e-001 8.488278e-001 -1.345210e-003
3.571430e-002 4.307140e-002 -8.299320e-002 -8.144799e-001 5.270165e-001 2.426439e-001
3.711840e-002 4.517240e-002 -8.088480e-002 -9.180410e-001 3.930654e-001 -5.196458e-002
3.787940e-002 4.758450e-002 -7.846870e-002 -8.078463e-001 4.796090e-001 -3.425778e-001
2.400000e-002 0.000000e+000 -7.700000e-002 9.485930e-001 -3.048581e-001 8.504627e-002
2.400000e-002 2.900000e-002 -7.700000e-002 9.920019e-001 9.039002e-002 -8.810166e-002
2.487430e-002 5.826330e-002 -6.785820e-002 7.335611e-001 -3.856529e-001 -5.596070e-001
2.000000e-002 4.900000e-002 -2.100000e-002 3.051966e-001 6.733703e-001 6.733703e-001
2.068510e-002 4.555590e-002 -1.755580e-002 9.001233e-001 4.213641e-001 1.105906e-001
2.263600e-002 4.263600e-002 -1.463600e-002 7.876247e-001 5.857481e-001 -1.911711e-001
2.900000e-002 4.000000e-002 -1.200000e-002 -1.331499e-003 8.694688e-001 4.939861e-001
2.555580e-002 4.068509e-002 -1.268510e-002 5.094747e-001 8.548329e-001 -9.846990e-002
2.724420e-002 4.017290e-002 -1.217290e-002 2.808542e-001 2.722125e-001 -9.203376e-001
2.900000e-002 2.900000e-002 -1.200000e-002 1.202699e-003 2.682019e-001 -9.633619e-001
3.075580e-002 4.017290e-002 -1.217290e-002 -2.808542e-001 2.722125e-001 -9.203376e-001
3.244410e-002 4.068509e-002 -1.268510e-002 -5.094747e-001 8.548329e-001 -9.846990e-002
3 0 1 2
3 3 0 2
3 4 1 0
3 5 4 0
3 0 6 7
3 3 6 0
3 0 7 5
3 8 4 5
3 8 9 4
3 10 4 9
3 4 10 1
3 8 5 11
3 12 9 8
3 11 12 8
3 13 9 14
3 10 9 13
3 12 14 9
3 12 15 16
3 14 12 16
3 12 11 15
3 17 18 11
3 5 17 11
3 18 15 11
3 16 15 19
3 20 19 15
3 20 15 18
3 19 21 16
3 22 16 21
3 16 22 14
3 23 21 19
3 21 23 24
3 22 21 24
3 22 25 14
3 22 24 26
3 25 22 26
3 24 27 26
3 24 28 27
3 24 29 28
3 24 23 29
3 30 23 19
3 23 30 29
3 31 30 19
3 29 30 31
3 32 29 31
3 33 29 34
3 28 29 33
3 32 34 29
3 31 35 36
3 35 31 19
3 36 32 31
3 19 20 35
3 35 37 38
3 20 37 35
3 38 36 35
3 39 36 38
3 36 39 32
3 40 39 38
3 39 40 41
3 32 39 41
3 42 40 43
3 44 43 40
3 44 40 38
3 41 40 42
3 45 41 42
3 41 45 46
3 32 41 46
3 47 42 43
3 47 45 42
3 45 48 49
3 47 48 45
3 46 45 50
3 49 50 45
3 47 51 48
3 51 47 43
3 52 48 51
3 53 48 52
3 48 53 49
3 43 54 51
3 55 51 54
3 51 55 52
3 52 56 57
3 55 56 52
3 58 53 52
3 57 58 52
3 58 49 53
3 59 58 57
3 58 60 49
3 59 60 58
3 61 57 56
3 57 61 62
3 63 59 57
3 62 63 57
3 59 63 60
3 60 7 64
3 60 63 7
3 64 49 60
3 65 63 62
3 63 65 7
3 66 65 62
3 65 66 7
3 66 67 68
3 67 66 62
3 66 68 7
3 62 69 67
3 10 67 69
3 70 67 10
3 70 68 67
3 71 68 70
3 7 68 71
3 70 10 13
3 72 71 70
3 13 72 70
3 10 69 1
3 1 69 2
3 61 69 62
3 61 2 69
3 73 3 2
3 2 61 73
3 61 56 73
3 73 74 3
3 73 56 74
3 55 74 56
3 74 75 3
3 74 55 75
3 55 54 75
3 75 76 3
3 75 54 76
3 77 54 43
3 77 76 54
3 76 78 17
3 3 76 17
3 76 77 78
3 77 38 37
3 38 77 43
3 77 37 78
3 6 43 44
3 6 38 43
3 79 38 80
3 79 44 38
3 6 80 38
3 81 7 6
3 3 80 6
3 6 44 81
3 81 44 79
3 81 82 83
3 7 81 83
3 81 84 82
3 84 81 79
3 7 26 5
3 83 64 7
3 7 71 26
3 5 26 80
3 17 5 80
3 85 17 78
3 85 18 17
3 3 17 80
3 78 37 85
3 20 85 37
3 85 20 18
3 80 26 79
3 79 86 84
3 26 86 79
3 87 82 84
3 87 84 86
3 87 88 89
3 82 87 89
3 88 87 86
3 82 89 83
3 89 90 83
3 89 88 90
3 91 90 88
3 92 88 86
3 91 88 92
3 90 93 94
3 83 90 94
3 90 91 93
3 91 95 93
3 91 92 95
3 93 96 94
3 93 95 96
3 97 96 95
3 98 97 95
3 92 98 95
3 96 99 100
3 94 96 100
3 96 97 99
3 97 101 99
3 101 97 98
3 99 102 100
3 99 101 102
3 103 102 101
3 104 101 98
3 103 101 104
3 102 105 106
3 100 102 106
3 102 103 105
3 103 107 105
3 107 103 104
3 105 108 106
3 105 107 108
3 109 108 107
3 107 104 109
3 108 110 106
3 108 109 110
3 109 111 110
3 109 112 111
3 104 112 109
3 106 110 113
3 114 113 110
3 110 111 114
3 115 114 111
3 116 111 112
3 115 111 116
3 117 113 114
3 118 117 114
3 118 114 115
3 119 120 117
3 121 119 117
3 118 121 117
3 117 120 116
3 117 116 113
3 122 119 123
3 120 119 122
3 121 123 119
3 120 124 116
3 120 125 124
3 126 125 120
3 126 120 122
3 123 127 122
3 128 122 127
3 126 122 128
3 123 121 129
3 130 127 123
3 129 130 123
3 127 130 113
3 127 113 128
3 128 131 125
3 126 128 125
3 112 131 128
3 113 112 128
3 125 131 132
3 133 132 131
3 133 131 112
3 132 124 125
3 134 124 132
3 135 134 132
3 135 132 133
3 133 136 137
3 135 133 137
3 136 133 112
3 135 138 134
3 135 137 138
3 124 134 116
3 134 138 115
3 116 134 115
3 138 139 115
3 138 137 140
3 139 138 140
3 141 137 136
3 140 137 141
3 142 139 140
3 142 140 141
3 139 143 115
3 139 142 143
3 115 143 144
3 115 144 118
3 145 143 142
3 144 143 145
3 146 142 141
3 145 142 146
3 147 144 145
3 147 145 146
3 144 148 118
3 144 149 148
3 147 149 144
3 150 121 118
3 151 150 118
3 148 151 118
3 152 148 149
3 151 148 152
3 149 147 146
3 149 146 152
3 153 151 152
3 154 153 152
3 146 154 152
3 151 153 150
3 150 155 129
3 121 150 129
3 153 155 150
3 155 153 154
3 130 155 154
3 129 155 130
3 130 154 156
3 130 156 113
3 156 157 158
3 154 157 156
3 156 158 113
3 113 159 106
3 158 159 113
3 116 112 113
3 160 158 157
3 159 158 160
3 159 160 161
3 159 161 106
3 162 163 160
3 160 163 164
3 157 162 160
3 160 164 161
3 161 164 165
3 161 165 106
3 164 166 167
3 168 166 164
3 163 168 164
3 167 165 164
3 169 163 170
3 168 163 169
3 162 170 163
3 168 171 166
3 171 168 169
3 172 167 166
3 173 166 171
3 172 166 173
3 171 100 173
3 171 169 100
3 100 169 170
3 170 162 174
3 175 170 174
3 175 100 170
3 98 100 106
3 100 98 176
3 173 100 176
3 175 94 100
3 176 172 173
3 177 178 176
3 172 176 178
3 176 98 177
3 179 178 177
3 180 179 177
3 180 177 98
3 181 178 182
3 172 178 181
3 179 182 178
3 179 183 184
3 182 179 184
3 179 180 183
3 185 183 180
3 185 180 98
3 183 186 184
3 186 183 185
3 187 186 185
3 187 185 98
3 104 98 106
3 188 98 92
3 188 187 98
3 189 190 187
3 186 187 190
3 189 187 188
3 186 190 191
3 184 186 191
3 191 190 141
3 192 141 190
3 192 190 189
3 191 141 136
3 191 193 184
3 193 191 136
3 146 141 192
3 146 192 154
3 192 194 154
3 192 195 194
3 195 192 189
3 154 194 157
3 162 157 194
3 174 194 195
3 162 194 174
3 195 189 196
3 174 195 196
3 197 174 196
3 175 174 197
3 198 34 196
3 46 196 34
3 196 46 197
3 198 196 189
3 198 189 188
3 33 34 198
3 188 33 198
3 34 32 46
3 46 50 197
3 197 50 175
3 199 175 50
3 199 50 49
3 199 200 201
3 175 199 201
3 199 49 200
3 202 49 64
3 49 202 200
3 201 200 203
3 204 203 200
3 200 202 204
3 201 203 94
3 175 201 94
3 203 204 205
3 203 205 94
3 204 206 205
3 204 207 206
3 202 207 204
3 205 206 208
3 94 205 208
3 83 94 92
3 92 94 208
3 209 208 206
3 208 209 210
3 210 92 208
3 211 206 207
3 206 211 209
3 209 212 210
3 213 214 209
3 211 213 209
3 209 214 212
3 210 212 215
3 210 215 92
3 216 215 212
3 212 217 216
3 214 217 212
3 214 213 218
3 214 219 217
3 220 219 214
3 220 214 218
3 217 221 222
3 28 217 222
3 219 221 217
3 28 216 217
3 219 220 86
3 221 219 86
3 220 218 86
3 218 223 86
3 213 223 218
3 223 224 83
3 86 223 83
3 224 223 213
3 211 224 213
3 224 225 83
3 225 224 211
3 211 207 226
3 225 211 226
3 225 226 83
3 226 227 83
3 226 207 227
3 228 64 83
3 227 228 83
3 86 83 92
3 202 227 207
3 228 227 202
3 228 202 64
3 229 188 92
3 215 229 92
3 229 230 188
3 216 230 229
3 215 216 229
3 33 188 230
3 230 216 28
3 230 28 33
3 27 28 222
3 27 222 86
3 26 27 86
3 222 221 86
3 231 25 26
3 72 231 26
3 71 72 26
3 14 231 13
3 25 231 14
3 72 13 231
3 193 136 112
3 193 232 184
3 232 193 112
3 104 232 112
3 184 232 233
3 233 232 104
3 182 184 233
3 234 182 233
3 234 233 104
3 104 106 235
3 236 234 104
3 237 236 104
3 237 104 235
3 234 236 181
3 182 234 181
3 237 181 236
3 237 238 181
3 237 235 238
3 238 235 239
3 235 106 239
3 240 239 106
3 165 240 106
3 167 238 239
3 240 167 239
3 238 167 172
3 238 172 181
3 240 165 167
