ply
format ascii 1.0
comment Written by HALCON (export v1.0)
element vertex 916
property float x
property float y
property float z
element face 1900
property list uchar int vertex_index
end_header
6.000000e-003 0.000000e+000 3.000000e-003
6.000000e-003 0.000000e+000 0.000000e+000
1.270000e-001 0.000000e+000 0.000000e+000
1.270000e-001 0.000000e+000 3.000000e-003
2.336353e-002 2.437190e-002 0.000000e+000
3.914045e-002 1.473625e-002 0.000000e+000
2.912558e-002 7.996055e-003 0.000000e+000
8.261804e-002 4.990211e-002 0.000000e+000
1.051484e-001 5.130965e-002 0.000000e+000
1.047252e-001 5.104103e-002 0.000000e+000
8.307165e-002 4.968865e-002 0.000000e+000
1.255717e-001 8.811344e-003 0.000000e+000
1.330000e-001 6.000000e-003 0.000000e+000
8.375262e-002 8.963509e-003 0.000000e+000
9.238196e-002 1.282443e-002 0.000000e+000
8.393718e-002 8.497380e-003 0.000000e+000
1.259579e-001 9.130905e-003 0.000000e+000
9.214045e-002 1.326375e-002 0.000000e+000
2.862524e-002 7.964575e-003 0.000000e+000
1.262526e-001 9.536492e-003 0.000000e+000
4.207166e-002 4.368866e-002 0.000000e+000
5.101577e-002 4.825067e-002 0.000000e+000
5.101577e-002 4.774933e-002 0.000000e+000
8.212558e-002 4.999605e-002 0.000000e+000
1.056252e-001 5.146457e-002 0.000000e+000
1.251180e-001 8.597887e-003 0.000000e+000
4.245794e-002 4.336909e-002 0.000000e+000
1.264372e-001 1.000262e-002 0.000000e+000
8.345794e-002 9.369095e-003 0.000000e+000
9.201577e-002 1.374933e-002 0.000000e+000
1.246256e-001 8.503945e-003 0.000000e+000
1.265000e-001 1.050000e-002 0.000000e+000
2.233988e-002 2.352506e-002 0.000000e+000
8.307165e-002 9.688660e-003 0.000000e+000
2.814844e-002 7.809654e-003 0.000000e+000
2.414442e-002 2.544671e-002 0.000000e+000
3.938197e-002 1.517557e-002 0.000000e+000
3.972515e-002 1.554103e-002 0.000000e+000
1.241252e-001 8.535425e-003 0.000000e+000
9.201577e-002 1.425067e-002 0.000000e+000
1.264372e-001 1.099738e-002 0.000000e+000
1.236484e-001 8.690346e-003 0.000000e+000
8.261804e-002 9.902111e-003 0.000000e+000
9.214045e-002 1.473625e-002 0.000000e+000
1.262526e-001 1.146351e-002 0.000000e+000
4.161804e-002 4.390211e-002 0.000000e+000
5.114044e-002 4.873625e-002 0.000000e+000
4.245794e-002 1.263091e-002 0.000000e+000
5.114044e-002 8.736248e-003 0.000000e+000
5.101577e-002 8.250668e-003 0.000000e+000
1.232252e-001 8.958973e-003 0.000000e+000
1.259579e-001 1.186909e-002 0.000000e+000
4.207166e-002 1.231134e-002 0.000000e+000
8.212558e-002 9.996050e-003 0.000000e+000
5.101577e-002 7.749333e-003 0.000000e+000
1.228820e-001 9.324429e-003 0.000000e+000
2.113779e-002 2.295940e-002 0.000000e+000
2.772515e-002 7.541027e-003 0.000000e+000
9.238196e-002 1.517557e-002 0.000000e+000
1.255717e-001 1.218866e-002 0.000000e+000
4.275261e-002 1.303649e-002 0.000000e+000
5.138197e-002 9.175570e-003 0.000000e+000
8.162525e-002 9.964581e-003 0.000000e+000
9.272515e-002 1.554103e-002 0.000000e+000
2.463349e-002 2.668194e-002 0.000000e+000
4.014844e-002 1.580965e-002 0.000000e+000
4.161804e-002 1.209789e-002 0.000000e+000
5.114044e-002 7.263752e-003 0.000000e+000
4.112558e-002 4.399605e-002 0.000000e+000
5.138197e-002 4.917557e-002 0.000000e+000
4.293717e-002 1.350262e-002 0.000000e+000
5.172515e-002 9.541031e-003 0.000000e+000
4.112558e-002 1.200395e-002 0.000000e+000
1.270000e-001 5.600000e-002 0.000000e+000
1.330000e-001 5.000000e-002 0.000000e+000
1.255717e-001 4.718865e-002 0.000000e+000
1.232252e-001 4.704103e-002 0.000000e+000
1.228820e-001 4.667557e-002 0.000000e+000
1.236484e-001 4.730966e-002 0.000000e+000
5.138197e-002 6.824431e-003 0.000000e+000
1.241252e-001 4.746457e-002 0.000000e+000
1.246256e-001 4.749605e-002 0.000000e+000
1.251180e-001 4.740211e-002 0.000000e+000
4.300000e-002 1.400000e-002 0.000000e+000
5.214844e-002 9.809650e-003 0.000000e+000
1.074579e-001 4.813090e-002 0.000000e+000
1.225158e-001 4.524933e-002 0.000000e+000
1.226404e-001 4.476375e-002 0.000000e+000
1.155069e-001 3.320612e-002 0.000000e+000
1.983279e-002 2.271046e-002 0.000000e+000
1.193717e-002 1.049738e-002 0.000000e+000
1.175261e-002 1.096351e-002 0.000000e+000
2.738197e-002 7.175569e-003 0.000000e+000
1.070717e-001 4.811344e-003 0.000000e+000
1.074579e-001 5.130905e-003 0.000000e+000
1.070717e-001 4.781134e-002 0.000000e+000
4.293717e-002 1.449738e-002 0.000000e+000
1.077526e-001 5.536493e-003 0.000000e+000
5.262524e-002 9.964581e-003 0.000000e+000
1.142434e-001 3.279558e-002 0.000000e+000
1.077526e-001 4.853649e-002 0.000000e+000
1.225158e-001 4.575067e-002 0.000000e+000
4.275261e-002 1.496351e-002 0.000000e+000
5.312558e-002 9.996050e-003 0.000000e+000
1.066180e-001 4.597887e-003 0.000000e+000
2.480000e-002 2.800000e-002 0.000000e+000
4.062524e-002 1.596457e-002 0.000000e+000
1.079372e-001 6.002621e-003 0.000000e+000
4.062524e-002 4.003543e-002 0.000000e+000
1.066180e-001 4.759789e-002 0.000000e+000
4.014844e-002 4.019035e-002 0.000000e+000
1.131217e-001 3.208372e-002 0.000000e+000
1.061256e-001 4.503948e-003 0.000000e+000
1.079372e-001 4.900262e-002 0.000000e+000
1.226404e-001 4.623625e-002 0.000000e+000
1.080000e-001 6.500000e-003 0.000000e+000
4.245794e-002 1.536909e-002 0.000000e+000
1.226404e-001 9.763752e-003 0.000000e+000
1.061256e-001 4.750395e-002 0.000000e+000
1.080000e-001 4.950000e-002 0.000000e+000
1.056252e-001 4.535426e-003 0.000000e+000
1.079372e-001 6.997379e-003 0.000000e+000
1.225158e-001 1.024933e-002 0.000000e+000
1.056252e-001 4.753543e-002 0.000000e+000
3.045794e-002 4.630905e-003 0.000000e+000
5.172515e-002 6.458973e-003 0.000000e+000
5.214844e-002 6.190346e-003 0.000000e+000
1.079372e-001 4.999738e-002 0.000000e+000
1.077526e-001 7.463507e-003 0.000000e+000
1.850688e-002 2.279388e-002 0.000000e+000
1.145794e-002 1.136909e-002 0.000000e+000
3.007165e-002 4.311344e-003 0.000000e+000
5.262524e-002 6.035425e-003 0.000000e+000
1.225158e-001 1.075067e-002 0.000000e+000
2.463349e-002 2.931806e-002 0.000000e+000
3.972515e-002 4.045897e-002 0.000000e+000
3.075261e-002 5.036493e-003 0.000000e+000
1.074579e-001 7.869095e-003 0.000000e+000
1.226404e-001 1.123625e-002 0.000000e+000
1.077526e-001 5.046351e-002 0.000000e+000
1.724337e-002 2.320442e-002 0.000000e+000
1.107165e-002 1.168866e-002 0.000000e+000
1.061803e-002 1.190211e-002 0.000000e+000
2.961803e-002 4.097887e-003 0.000000e+000
5.312558e-002 6.003948e-003 0.000000e+000
2.414442e-002 3.055329e-002 0.000000e+000
3.093717e-002 5.502621e-003 0.000000e+000
4.062524e-002 1.203542e-002 0.000000e+000
3.938197e-002 4.082443e-002 0.000000e+000
3.914045e-002 4.126375e-002 0.000000e+000
1.074579e-001 5.086910e-002 0.000000e+000
0.000000e+000 6.000000e-003 0.000000e+000
8.381966e-003 8.824429e-003 0.000000e+000
8.725151e-003 8.458973e-003 0.000000e+000
8.140446e-003 9.263752e-003 0.000000e+000
2.912558e-002 4.003948e-003 0.000000e+000
8.015770e-003 9.749329e-003 0.000000e+000
8.015770e-003 1.025067e-002 0.000000e+000
8.140446e-003 1.073625e-002 0.000000e+000
8.381966e-003 1.117557e-002 0.000000e+000
8.725151e-003 1.154103e-002 0.000000e+000
1.070717e-001 5.118866e-002 0.000000e+000
1.612165e-002 2.391628e-002 0.000000e+000
1.012558e-002 1.199605e-002 0.000000e+000
3.100000e-002 6.000000e-003 0.000000e+000
4.014844e-002 1.219035e-002 0.000000e+000
9.545795e-002 4.063091e-002 0.000000e+000
1.122122e-001 3.111526e-002 0.000000e+000
1.115722e-001 2.995106e-002 0.000000e+000
2.336353e-002 3.162810e-002 0.000000e+000
1.521221e-002 2.488474e-002 0.000000e+000
9.625237e-003 1.196457e-002 0.000000e+000
9.507166e-002 4.031134e-002 0.000000e+000
1.112418e-001 2.866427e-002 0.000000e+000
3.093717e-002 6.497379e-003 0.000000e+000
3.972515e-002 1.245897e-002 0.000000e+000
1.457218e-002 2.604894e-002 0.000000e+000
9.148441e-003 1.180965e-002 0.000000e+000
9.575261e-002 4.103649e-002 0.000000e+000
1.203635e-001 2.437190e-002 0.000000e+000
1.246256e-001 1.249605e-002 0.000000e+000
1.241252e-001 1.246457e-002 0.000000e+000
9.461804e-002 4.009788e-002 0.000000e+000
9.461804e-002 1.590211e-002 0.000000e+000
9.412558e-002 1.599605e-002 0.000000e+000
1.112418e-001 2.733573e-002 0.000000e+000
1.424179e-002 2.733573e-002 0.000000e+000
1.193399e-001 2.352506e-002 0.000000e+000
1.236484e-001 1.230965e-002 0.000000e+000
1.232252e-001 1.204103e-002 0.000000e+000
1.066180e-001 5.140211e-002 0.000000e+000
9.593716e-002 4.150262e-002 0.000000e+000
1.211444e-001 2.544671e-002 0.000000e+000
1.251180e-001 1.240211e-002 0.000000e+000
9.412558e-002 4.000395e-002 0.000000e+000
9.362523e-002 1.596457e-002 0.000000e+000
3.075261e-002 6.963507e-003 0.000000e+000
1.181378e-001 2.295940e-002 0.000000e+000
1.228820e-001 1.167557e-002 0.000000e+000
3.938197e-002 1.282443e-002 0.000000e+000
1.216335e-001 2.668194e-002 0.000000e+000
9.600000e-002 4.200000e-002 0.000000e+000
1.051484e-001 4.769035e-002 0.000000e+000
3.045794e-002 7.369095e-003 0.000000e+000
3.914045e-002 1.326375e-002 0.000000e+000
1.168328e-001 2.271046e-002 0.000000e+000
1.061256e-001 5.149605e-002 0.000000e+000
3.007165e-002 7.688656e-003 0.000000e+000
3.045794e-002 4.863090e-002 0.000000e+000
3.938197e-002 4.317557e-002 0.000000e+000
3.914045e-002 4.273625e-002 0.000000e+000
3.901577e-002 1.374933e-002 0.000000e+000
9.362523e-002 4.003543e-002 0.000000e+000
9.314845e-002 1.580965e-002 0.000000e+000
1.218000e-001 2.800000e-002 0.000000e+000
1.155069e-001 2.279388e-002 0.000000e+000
1.070717e-001 8.188656e-003 0.000000e+000
2.961803e-002 7.902113e-003 0.000000e+000
3.901577e-002 1.425067e-002 0.000000e+000
3.007165e-002 4.831134e-002 0.000000e+000
9.593716e-002 4.249738e-002 0.000000e+000
1.047252e-001 4.795897e-002 0.000000e+000
3.901577e-002 4.225067e-002 0.000000e+000
1.142434e-001 2.320442e-002 0.000000e+000
1.066180e-001 8.402113e-003 0.000000e+000
3.075261e-002 4.903649e-002 0.000000e+000
3.972515e-002 4.354103e-002 0.000000e+000
1.131217e-001 2.391628e-002 0.000000e+000
1.061256e-001 8.496055e-003 0.000000e+000
2.961803e-002 4.809789e-002 0.000000e+000
9.314845e-002 4.019035e-002 0.000000e+000
3.901577e-002 4.174933e-002 0.000000e+000
1.056252e-001 8.464575e-003 0.000000e+000
3.093717e-002 4.950262e-002 0.000000e+000
4.014844e-002 4.380966e-002 0.000000e+000
1.216335e-001 2.931806e-002 0.000000e+000
9.575261e-002 4.296351e-002 0.000000e+000
1.043820e-001 4.832443e-002 0.000000e+000
2.912558e-002 4.800395e-002 0.000000e+000
2.862524e-002 4.035427e-003 0.000000e+000
2.814844e-002 4.190346e-003 0.000000e+000
2.772515e-002 4.458973e-003 0.000000e+000
2.738197e-002 4.824431e-003 0.000000e+000
3.100000e-002 5.000000e-002 0.000000e+000
2.714045e-002 5.263752e-003 0.000000e+000
4.062524e-002 4.396457e-002 0.000000e+000
5.445794e-002 4.663091e-002 0.000000e+000
8.038197e-002 4.682443e-002 0.000000e+000
8.072514e-002 4.645897e-002 0.000000e+000
2.862524e-002 4.803543e-002 0.000000e+000
2.233988e-002 3.247494e-002 0.000000e+000
9.272515e-002 4.045897e-002 0.000000e+000
9.545795e-002 4.336909e-002 0.000000e+000
1.041405e-001 4.876375e-002 0.000000e+000
3.093717e-002 5.049738e-002 0.000000e+000
5.407166e-002 4.631134e-002 0.000000e+000
5.407166e-002 9.688660e-003 0.000000e+000
5.361803e-002 9.902111e-003 0.000000e+000
2.814844e-002 4.819035e-002 0.000000e+000
2.113779e-002 3.304061e-002 0.000000e+000
9.507166e-002 4.368866e-002 0.000000e+000
1.040158e-001 4.924933e-002 0.000000e+000
8.072514e-002 9.541031e-003 0.000000e+000
3.075261e-002 5.096351e-002 0.000000e+000
5.172515e-002 4.954103e-002 0.000000e+000
1.255717e-001 4.381134e-002 0.000000e+000
1.259579e-001 4.413091e-002 0.000000e+000
5.475261e-002 4.703649e-002 0.000000e+000
8.014045e-002 4.726375e-002 0.000000e+000
1.262526e-001 4.453649e-002 0.000000e+000
2.772515e-002 4.845897e-002 0.000000e+000
1.983279e-002 3.328954e-002 0.000000e+000
9.461804e-002 4.390211e-002 0.000000e+000
1.040158e-001 4.975067e-002 0.000000e+000
3.045794e-002 5.136910e-002 0.000000e+000
5.214844e-002 4.980966e-002 0.000000e+000
9.545795e-002 1.263091e-002 0.000000e+000
1.043820e-001 7.675570e-003 0.000000e+000
1.041405e-001 7.236248e-003 0.000000e+000
5.361803e-002 4.609788e-002 0.000000e+000
2.738197e-002 4.882443e-002 0.000000e+000
9.412558e-002 4.399605e-002 0.000000e+000
1.041405e-001 5.023625e-002 0.000000e+000
1.251180e-001 4.359788e-002 0.000000e+000
1.211444e-001 3.055329e-002 0.000000e+000
5.493717e-002 4.750262e-002 0.000000e+000
8.001577e-002 4.774933e-002 0.000000e+000
9.507166e-002 1.231134e-002 0.000000e+000
3.007165e-002 5.168866e-002 0.000000e+000
5.262524e-002 4.996457e-002 0.000000e+000
1.040158e-001 6.750667e-003 0.000000e+000
5.312558e-002 4.600395e-002 0.000000e+000
9.575261e-002 1.303649e-002 0.000000e+000
1.047252e-001 8.041027e-003 0.000000e+000
2.961803e-002 5.190211e-002 0.000000e+000
1.264372e-001 4.500262e-002 0.000000e+000
9.461804e-002 1.209789e-002 0.000000e+000
5.500000e-002 4.800000e-002 0.000000e+000
8.001577e-002 4.825067e-002 0.000000e+000
1.040158e-001 6.249332e-003 0.000000e+000
9.593716e-002 1.350262e-002 0.000000e+000
1.051484e-001 8.309654e-003 0.000000e+000
5.445794e-002 6.630905e-003 0.000000e+000
8.038197e-002 6.824431e-003 0.000000e+000
8.072514e-002 6.458973e-003 0.000000e+000
1.246256e-001 4.350395e-002 0.000000e+000
1.203635e-001 3.162810e-002 0.000000e+000
5.493717e-002 4.849738e-002 0.000000e+000
8.014045e-002 4.873625e-002 0.000000e+000
1.265000e-001 4.550000e-002 0.000000e+000
5.407166e-002 6.311344e-003 0.000000e+000
8.114845e-002 6.190346e-003 0.000000e+000
5.475261e-002 7.036493e-003 0.000000e+000
9.412558e-002 1.200395e-002 0.000000e+000
8.014045e-002 7.263752e-003 0.000000e+000
1.145794e-002 4.463091e-002 0.000000e+000
1.850688e-002 3.320612e-002 0.000000e+000
1.724337e-002 3.279558e-002 0.000000e+000
1.041405e-001 5.763752e-003 0.000000e+000
5.475261e-002 4.896351e-002 0.000000e+000
8.038197e-002 4.917557e-002 0.000000e+000
9.600000e-002 1.400000e-002 0.000000e+000
5.361803e-002 6.097887e-003 0.000000e+000
8.162525e-002 6.035425e-003 0.000000e+000
1.107165e-002 4.431134e-002 0.000000e+000
5.493717e-002 7.502621e-003 0.000000e+000
8.001577e-002 7.749333e-003 0.000000e+000
1.241252e-001 4.353543e-002 0.000000e+000
1.193399e-001 3.247494e-002 0.000000e+000
1.175261e-002 4.503649e-002 0.000000e+000
5.445794e-002 4.936910e-002 0.000000e+000
8.072514e-002 4.954103e-002 0.000000e+000
1.264372e-001 4.599738e-002 0.000000e+000
8.212558e-002 6.003948e-003 0.000000e+000
5.500000e-002 8.000000e-003 0.000000e+000
1.061803e-002 4.409788e-002 0.000000e+000
8.001577e-002 8.250668e-003 0.000000e+000
5.407166e-002 4.968865e-002 0.000000e+000
8.114845e-002 4.980966e-002 0.000000e+000
1.612165e-002 3.208372e-002 0.000000e+000
9.593716e-002 1.449738e-002 0.000000e+000
1.122122e-001 2.488474e-002 0.000000e+000
1.193717e-002 4.550262e-002 0.000000e+000
1.236484e-001 4.369035e-002 0.000000e+000
5.361803e-002 4.990211e-002 0.000000e+000
8.162525e-002 4.996457e-002 0.000000e+000
1.012558e-002 4.400395e-002 0.000000e+000
5.493717e-002 8.497380e-003 0.000000e+000
8.014045e-002 8.736248e-003 0.000000e+000
1.521221e-002 3.111526e-002 0.000000e+000
1.262526e-001 4.646351e-002 0.000000e+000
1.200000e-002 4.600000e-002 0.000000e+000
2.714045e-002 4.926375e-002 0.000000e+000
9.625237e-003 4.403543e-002 0.000000e+000
5.475261e-002 8.963509e-003 0.000000e+000
8.038197e-002 9.175570e-003 0.000000e+000
1.457218e-002 2.995106e-002 0.000000e+000
1.193717e-002 4.649738e-002 0.000000e+000
2.701577e-002 4.974933e-002 0.000000e+000
9.575261e-002 1.496351e-002 0.000000e+000
9.148441e-003 4.419035e-002 0.000000e+000
5.445794e-002 9.369095e-003 0.000000e+000
1.175261e-002 4.696351e-002 0.000000e+000
2.701577e-002 5.025067e-002 0.000000e+000
4.245794e-002 4.063091e-002 0.000000e+000
1.232252e-001 4.395897e-002 0.000000e+000
1.181378e-001 3.304061e-002 0.000000e+000
8.725151e-003 4.445897e-002 0.000000e+000
1.259579e-001 4.686910e-002 0.000000e+000
1.424179e-002 2.866427e-002 0.000000e+000
1.145794e-002 4.736910e-002 0.000000e+000
2.714045e-002 5.073625e-002 0.000000e+000
9.545795e-002 1.536909e-002 0.000000e+000
1.115722e-001 2.604894e-002 0.000000e+000
4.207166e-002 4.031134e-002 0.000000e+000
4.207166e-002 1.568866e-002 0.000000e+000
4.161804e-002 1.590211e-002 0.000000e+000
1.228820e-001 4.432443e-002 0.000000e+000
4.275261e-002 4.103649e-002 0.000000e+000
5.262524e-002 4.603543e-002 0.000000e+000
1.168328e-001 3.328954e-002 0.000000e+000
9.507166e-002 1.568866e-002 0.000000e+000
1.145794e-002 8.630905e-003 0.000000e+000
2.701577e-002 5.749332e-003 0.000000e+000
4.161804e-002 4.009788e-002 0.000000e+000
1.107165e-002 8.311344e-003 0.000000e+000
1.175261e-002 9.036492e-003 0.000000e+000
8.345794e-002 4.663091e-002 0.000000e+000
9.214045e-002 4.273625e-002 0.000000e+000
9.201577e-002 4.225067e-002 0.000000e+000
2.701577e-002 6.250667e-003 0.000000e+000
0.000000e+000 5.000000e-002 0.000000e+000
4.293717e-002 4.150262e-002 0.000000e+000
5.214844e-002 4.619035e-002 0.000000e+000
8.381966e-003 4.482443e-002 0.000000e+000
8.140446e-003 4.526375e-002 0.000000e+000
8.307165e-002 4.631134e-002 0.000000e+000
8.015770e-003 4.574933e-002 0.000000e+000
8.015770e-003 4.625067e-002 0.000000e+000
8.140446e-003 4.673625e-002 0.000000e+000
8.381966e-003 4.717557e-002 0.000000e+000
8.725151e-003 4.754103e-002 0.000000e+000
9.201577e-002 4.174933e-002 0.000000e+000
1.061803e-002 8.097887e-003 0.000000e+000
6.000000e-003 5.600000e-002 0.000000e+000
2.738197e-002 5.117557e-002 0.000000e+000
2.772515e-002 5.154103e-002 0.000000e+000
2.814844e-002 5.180965e-002 0.000000e+000
2.862524e-002 5.196457e-002 0.000000e+000
2.912558e-002 5.199605e-002 0.000000e+000
1.193717e-002 9.502620e-003 0.000000e+000
8.375262e-002 4.703649e-002 0.000000e+000
9.148441e-003 4.780966e-002 0.000000e+000
9.238196e-002 4.317557e-002 0.000000e+000
9.625237e-003 4.796457e-002 0.000000e+000
1.012558e-002 4.799605e-002 0.000000e+000
2.714045e-002 6.736248e-003 0.000000e+000
1.061803e-002 4.790211e-002 0.000000e+000
1.107165e-002 4.768865e-002 0.000000e+000
8.261804e-002 4.609788e-002 0.000000e+000
5.312558e-002 4.999605e-002 0.000000e+000
4.112558e-002 4.000395e-002 0.000000e+000
4.112558e-002 1.599605e-002 0.000000e+000
9.214045e-002 4.126375e-002 0.000000e+000
4.300000e-002 4.200000e-002 0.000000e+000
5.172515e-002 4.645897e-002 0.000000e+000
8.393718e-002 4.750262e-002 0.000000e+000
9.272515e-002 4.354103e-002 0.000000e+000
1.012558e-002 8.003945e-003 0.000000e+000
8.212558e-002 4.600395e-002 0.000000e+000
1.200000e-002 1.000000e-002 0.000000e+000
9.238196e-002 4.082443e-002 0.000000e+000
8.400000e-002 4.800000e-002 0.000000e+000
9.314845e-002 4.380966e-002 0.000000e+000
4.293717e-002 4.249738e-002 0.000000e+000
5.138197e-002 4.682443e-002 0.000000e+000
8.162525e-002 4.603543e-002 0.000000e+000
8.114845e-002 9.809650e-003 0.000000e+000
9.625237e-003 8.035425e-003 0.000000e+000
8.345794e-002 6.630905e-003 0.000000e+000
1.043820e-001 5.324430e-003 0.000000e+000
8.307165e-002 6.311344e-003 0.000000e+000
8.393718e-002 4.849738e-002 0.000000e+000
9.362523e-002 4.396457e-002 0.000000e+000
1.047252e-001 4.958973e-003 0.000000e+000
8.375262e-002 7.036493e-003 0.000000e+000
9.362523e-002 1.203542e-002 0.000000e+000
8.114845e-002 4.619035e-002 0.000000e+000
4.275261e-002 4.296351e-002 0.000000e+000
5.114044e-002 4.726375e-002 0.000000e+000
8.261804e-002 6.097887e-003 0.000000e+000
8.375262e-002 4.896351e-002 0.000000e+000
1.051484e-001 4.690346e-003 0.000000e+000
8.393718e-002 7.502621e-003 0.000000e+000
9.314845e-002 1.219035e-002 0.000000e+000
9.148441e-003 8.190346e-003 0.000000e+000
8.345794e-002 4.936910e-002 0.000000e+000
1.043820e-001 5.067557e-002 0.000000e+000
8.400000e-002 8.000000e-003 0.000000e+000
9.272515e-002 1.245897e-002 0.000000e+000
0.000000e+000 6.000000e-003 3.000000e-003
1.330000e-001 6.000000e-003 3.000000e-003
8.400000e-002 8.000000e-003 3.000000e-003
9.272515e-002 1.245897e-002 3.000000e-003
8.393718e-002 8.497380e-003 3.000000e-003
2.912558e-002 7.996055e-003 3.000000e-003
3.914045e-002 1.473625e-002 3.000000e-003
2.336353e-002 2.437190e-002 3.000000e-003
8.307165e-002 4.968865e-002 3.000000e-003
1.047252e-001 5.104103e-002 3.000000e-003
8.261804e-002 4.990211e-002 3.000000e-003
1.051484e-001 5.130965e-002 3.000000e-003
1.255717e-001 8.811344e-003 3.000000e-003
9.238196e-002 1.282443e-002 3.000000e-003
9.214045e-002 1.326375e-002 3.000000e-003
8.375262e-002 8.963509e-003 3.000000e-003
1.259579e-001 9.130905e-003 3.000000e-003
1.262526e-001 9.536492e-003 3.000000e-003
2.862524e-002 7.964575e-003 3.000000e-003
1.251180e-001 8.597887e-003 3.000000e-003
4.245794e-002 4.336909e-002 3.000000e-003
5.101577e-002 4.774933e-002 3.000000e-003
4.207166e-002 4.368866e-002 3.000000e-003
5.101577e-002 4.825067e-002 3.000000e-003
8.212558e-002 4.999605e-002 3.000000e-003
1.056252e-001 5.146457e-002 3.000000e-003
1.264372e-001 1.000262e-002 3.000000e-003
8.345794e-002 9.369095e-003 3.000000e-003
9.201577e-002 1.374933e-002 3.000000e-003
1.246256e-001 8.503945e-003 3.000000e-003
1.265000e-001 1.050000e-002 3.000000e-003
2.233988e-002 2.352506e-002 3.000000e-003
2.814844e-002 7.809654e-003 3.000000e-003
9.201577e-002 1.425067e-002 3.000000e-003
8.307165e-002 9.688660e-003 3.000000e-003
1.241252e-001 8.535425e-003 3.000000e-003
1.264372e-001 1.099738e-002 3.000000e-003
3.938197e-002 1.517557e-002 3.000000e-003
2.414442e-002 2.544671e-002 3.000000e-003
3.972515e-002 1.554103e-002 3.000000e-003
1.236484e-001 8.690346e-003 3.000000e-003
9.214045e-002 1.473625e-002 3.000000e-003
8.261804e-002 9.902111e-003 3.000000e-003
1.262526e-001 1.146351e-002 3.000000e-003
1.232252e-001 8.958973e-003 3.000000e-003
5.101577e-002 8.250668e-003 3.000000e-003
5.114044e-002 8.736248e-003 3.000000e-003
4.245794e-002 1.263091e-002 3.000000e-003
5.114044e-002 4.873625e-002 3.000000e-003
4.161804e-002 4.390211e-002 3.000000e-003
1.259579e-001 1.186909e-002 3.000000e-003
9.238196e-002 1.517557e-002 3.000000e-003
8.212558e-002 9.996050e-003 3.000000e-003
2.772515e-002 7.541027e-003 3.000000e-003
2.113779e-002 2.295940e-002 3.000000e-003
1.228820e-001 9.324429e-003 3.000000e-003
5.101577e-002 7.749333e-003 3.000000e-003
4.207166e-002 1.231134e-002 3.000000e-003
1.255717e-001 1.218866e-002 3.000000e-003
9.272515e-002 1.554103e-002 3.000000e-003
8.162525e-002 9.964581e-003 3.000000e-003
5.138197e-002 9.175570e-003 3.000000e-003
4.275261e-002 1.303649e-002 3.000000e-003
4.014844e-002 1.580965e-002 3.000000e-003
2.463349e-002 2.668194e-002 3.000000e-003
4.161804e-002 1.209789e-002 3.000000e-003
5.114044e-002 7.263752e-003 3.000000e-003
4.293717e-002 1.350262e-002 3.000000e-003
1.251180e-001 4.740211e-002 3.000000e-003
1.255717e-001 4.718865e-002 3.000000e-003
1.270000e-001 5.600000e-002 3.000000e-003
5.138197e-002 4.917557e-002 3.000000e-003
4.112558e-002 4.399605e-002 3.000000e-003
5.172515e-002 9.541031e-003 3.000000e-003
1.330000e-001 5.000000e-002 3.000000e-003
1.228820e-001 4.667557e-002 3.000000e-003
1.232252e-001 4.704103e-002 3.000000e-003
5.138197e-002 6.824431e-003 3.000000e-003
4.112558e-002 1.200395e-002 3.000000e-003
1.236484e-001 4.730966e-002 3.000000e-003
1.241252e-001 4.746457e-002 3.000000e-003
1.246256e-001 4.749605e-002 3.000000e-003
1.155069e-001 3.320612e-002 3.000000e-003
1.226404e-001 4.476375e-002 3.000000e-003
1.074579e-001 4.813090e-002 3.000000e-003
5.214844e-002 9.809650e-003 3.000000e-003
4.300000e-002 1.400000e-002 3.000000e-003
1.225158e-001 4.524933e-002 3.000000e-003
1.193717e-002 1.049738e-002 3.000000e-003
2.738197e-002 7.175569e-003 3.000000e-003
1.983279e-002 2.271046e-002 3.000000e-003
1.070717e-001 4.781134e-002 3.000000e-003
1.175261e-002 1.096351e-002 3.000000e-003
1.074579e-001 5.130905e-003 3.000000e-003
1.070717e-001 4.811344e-003 3.000000e-003
1.142434e-001 3.279558e-002 3.000000e-003
1.077526e-001 5.536493e-003 3.000000e-003
4.293717e-002 1.449738e-002 3.000000e-003
5.262524e-002 9.964581e-003 3.000000e-003
1.077526e-001 4.853649e-002 3.000000e-003
1.225158e-001 4.575067e-002 3.000000e-003
1.066180e-001 4.597887e-003 3.000000e-003
1.131217e-001 3.208372e-002 3.000000e-003
1.066180e-001 4.759789e-002 3.000000e-003
1.079372e-001 6.002621e-003 3.000000e-003
4.062524e-002 1.596457e-002 3.000000e-003
4.062524e-002 4.003543e-002 3.000000e-003
2.480000e-002 2.800000e-002 3.000000e-003
5.312558e-002 9.996050e-003 3.000000e-003
4.275261e-002 1.496351e-002 3.000000e-003
1.079372e-001 4.900262e-002 3.000000e-003
1.061256e-001 4.503948e-003 3.000000e-003
1.226404e-001 4.623625e-002 3.000000e-003
4.014844e-002 4.019035e-002 3.000000e-003
1.080000e-001 6.500000e-003 3.000000e-003
1.226404e-001 9.763752e-003 3.000000e-003
1.061256e-001 4.750395e-002 3.000000e-003
4.245794e-002 1.536909e-002 3.000000e-003
1.080000e-001 4.950000e-002 3.000000e-003
1.056252e-001 4.535426e-003 3.000000e-003
1.225158e-001 1.024933e-002 3.000000e-003
1.079372e-001 6.997379e-003 3.000000e-003
1.056252e-001 4.753543e-002 3.000000e-003
5.214844e-002 6.190346e-003 3.000000e-003
5.172515e-002 6.458973e-003 3.000000e-003
3.045794e-002 4.630905e-003 3.000000e-003
1.079372e-001 4.999738e-002 3.000000e-003
1.225158e-001 1.075067e-002 3.000000e-003
1.077526e-001 7.463507e-003 3.000000e-003
5.262524e-002 6.035425e-003 3.000000e-003
3.007165e-002 4.311344e-003 3.000000e-003
1.145794e-002 1.136909e-002 3.000000e-003
1.850688e-002 2.279388e-002 3.000000e-003
1.074579e-001 7.869095e-003 3.000000e-003
3.075261e-002 5.036493e-003 3.000000e-003
2.463349e-002 2.931806e-002 3.000000e-003
1.226404e-001 1.123625e-002 3.000000e-003
3.972515e-002 4.045897e-002 3.000000e-003
1.077526e-001 5.046351e-002 3.000000e-003
1.724337e-002 2.320442e-002 3.000000e-003
5.312558e-002 6.003948e-003 3.000000e-003
2.961803e-002 4.097887e-003 3.000000e-003
1.061803e-002 1.190211e-002 3.000000e-003
1.107165e-002 1.168866e-002 3.000000e-003
1.074579e-001 5.086910e-002 3.000000e-003
4.062524e-002 1.203542e-002 3.000000e-003
3.093717e-002 5.502621e-003 3.000000e-003
2.414442e-002 3.055329e-002 3.000000e-003
3.938197e-002 4.082443e-002 3.000000e-003
3.914045e-002 4.126375e-002 3.000000e-003
8.725151e-003 8.458973e-003 3.000000e-003
8.381966e-003 8.824429e-003 3.000000e-003
8.140446e-003 9.263752e-003 3.000000e-003
8.015770e-003 9.749329e-003 3.000000e-003
2.912558e-002 4.003948e-003 3.000000e-003
8.015770e-003 1.025067e-002 3.000000e-003
8.140446e-003 1.073625e-002 3.000000e-003
1.070717e-001 5.118866e-002 3.000000e-003
8.381966e-003 1.117557e-002 3.000000e-003
8.725151e-003 1.154103e-002 3.000000e-003
1.612165e-002 2.391628e-002 3.000000e-003
3.100000e-002 6.000000e-003 3.000000e-003
4.014844e-002 1.219035e-002 3.000000e-003
1.115722e-001 2.995106e-002 3.000000e-003
1.122122e-001 3.111526e-002 3.000000e-003
9.545795e-002 4.063091e-002 3.000000e-003
1.012558e-002 1.199605e-002 3.000000e-003
2.336353e-002 3.162810e-002 3.000000e-003
1.112418e-001 2.866427e-002 3.000000e-003
9.507166e-002 4.031134e-002 3.000000e-003
1.521221e-002 2.488474e-002 3.000000e-003
9.625237e-003 1.196457e-002 3.000000e-003
9.575261e-002 4.103649e-002 3.000000e-003
3.972515e-002 1.245897e-002 3.000000e-003
3.093717e-002 6.497379e-003 3.000000e-003
1.241252e-001 1.246457e-002 3.000000e-003
1.246256e-001 1.249605e-002 3.000000e-003
1.203635e-001 2.437190e-002 3.000000e-003
1.457218e-002 2.604894e-002 3.000000e-003
9.148441e-003 1.180965e-002 3.000000e-003
9.461804e-002 4.009788e-002 3.000000e-003
9.412558e-002 1.599605e-002 3.000000e-003
9.461804e-002 1.590211e-002 3.000000e-003
1.112418e-001 2.733573e-002 3.000000e-003
1.193399e-001 2.352506e-002 3.000000e-003
1.232252e-001 1.204103e-002 3.000000e-003
1.236484e-001 1.230965e-002 3.000000e-003
1.424179e-002 2.733573e-002 3.000000e-003
1.066180e-001 5.140211e-002 3.000000e-003
9.593716e-002 4.150262e-002 3.000000e-003
1.251180e-001 1.240211e-002 3.000000e-003
1.211444e-001 2.544671e-002 3.000000e-003
9.362523e-002 1.596457e-002 3.000000e-003
9.412558e-002 4.000395e-002 3.000000e-003
1.228820e-001 1.167557e-002 3.000000e-003
1.181378e-001 2.295940e-002 3.000000e-003
3.938197e-002 1.282443e-002 3.000000e-003
3.075261e-002 6.963507e-003 3.000000e-003
1.216335e-001 2.668194e-002 3.000000e-003
1.051484e-001 4.769035e-002 3.000000e-003
9.600000e-002 4.200000e-002 3.000000e-003
1.168328e-001 2.271046e-002 3.000000e-003
3.914045e-002 1.326375e-002 3.000000e-003
3.045794e-002 7.369095e-003 3.000000e-003
1.061256e-001 5.149605e-002 3.000000e-003
9.314845e-002 1.580965e-002 3.000000e-003
9.362523e-002 4.003543e-002 3.000000e-003
1.218000e-001 2.800000e-002 3.000000e-003
3.901577e-002 1.374933e-002 3.000000e-003
3.007165e-002 7.688656e-003 3.000000e-003
1.155069e-001 2.279388e-002 3.000000e-003
3.914045e-002 4.273625e-002 3.000000e-003
3.938197e-002 4.317557e-002 3.000000e-003
3.045794e-002 4.863090e-002 3.000000e-003
1.070717e-001 8.188656e-003 3.000000e-003
3.007165e-002 4.831134e-002 3.000000e-003
9.593716e-002 4.249738e-002 3.000000e-003
3.901577e-002 1.425067e-002 3.000000e-003
2.961803e-002 7.902113e-003 3.000000e-003
1.047252e-001 4.795897e-002 3.000000e-003
3.901577e-002 4.225067e-002 3.000000e-003
1.066180e-001 8.402113e-003 3.000000e-003
1.142434e-001 2.320442e-002 3.000000e-003
3.075261e-002 4.903649e-002 3.000000e-003
3.972515e-002 4.354103e-002 3.000000e-003
2.961803e-002 4.809789e-002 3.000000e-003
9.314845e-002 4.019035e-002 3.000000e-003
1.056252e-001 8.464575e-003 3.000000e-003
1.061256e-001 8.496055e-003 3.000000e-003
1.131217e-001 2.391628e-002 3.000000e-003
3.901577e-002 4.174933e-002 3.000000e-003
1.216335e-001 2.931806e-002 3.000000e-003
3.093717e-002 4.950262e-002 3.000000e-003
4.014844e-002 4.380966e-002 3.000000e-003
2.912558e-002 4.800395e-002 3.000000e-003
1.043820e-001 4.832443e-002 3.000000e-003
9.575261e-002 4.296351e-002 3.000000e-003
2.862524e-002 4.035427e-003 3.000000e-003
2.814844e-002 4.190346e-003 3.000000e-003
2.772515e-002 4.458973e-003 3.000000e-003
2.738197e-002 4.824431e-003 3.000000e-003
2.714045e-002 5.263752e-003 3.000000e-003
4.062524e-002 4.396457e-002 3.000000e-003
3.100000e-002 5.000000e-002 3.000000e-003
9.272515e-002 4.045897e-002 3.000000e-003
2.862524e-002 4.803543e-002 3.000000e-003
8.072514e-002 4.645897e-002 3.000000e-003
8.038197e-002 4.682443e-002 3.000000e-003
5.445794e-002 4.663091e-002 3.000000e-003
9.545795e-002 4.336909e-002 3.000000e-003
1.041405e-001 4.876375e-002 3.000000e-003
2.233988e-002 3.247494e-002 3.000000e-003
3.093717e-002 5.049738e-002 3.000000e-003
9.507166e-002 4.368866e-002 3.000000e-003
1.259579e-001 4.413091e-002 3.000000e-003
1.255717e-001 4.381134e-002 3.000000e-003
1.040158e-001 4.924933e-002 3.000000e-003
8.072514e-002 9.541031e-003 3.000000e-003
5.407166e-002 4.631134e-002 3.000000e-003
2.113779e-002 3.304061e-002 3.000000e-003
2.814844e-002 4.819035e-002 3.000000e-003
1.262526e-001 4.453649e-002 3.000000e-003
5.172515e-002 4.954103e-002 3.000000e-003
3.075261e-002 5.096351e-002 3.000000e-003
5.361803e-002 9.902111e-003 3.000000e-003
5.407166e-002 9.688660e-003 3.000000e-003
8.014045e-002 4.726375e-002 3.000000e-003
5.475261e-002 4.703649e-002 3.000000e-003
9.461804e-002 4.390211e-002 3.000000e-003
1.040158e-001 4.975067e-002 3.000000e-003
1.041405e-001 7.236248e-003 3.000000e-003
1.043820e-001 7.675570e-003 3.000000e-003
9.545795e-002 1.263091e-002 3.000000e-003
1.983279e-002 3.328954e-002 3.000000e-003
2.772515e-002 4.845897e-002 3.000000e-003
1.251180e-001 4.359788e-002 3.000000e-003
5.214844e-002 4.980966e-002 3.000000e-003
3.045794e-002 5.136910e-002 3.000000e-003
5.361803e-002 4.609788e-002 3.000000e-003
1.211444e-001 3.055329e-002 3.000000e-003
9.507166e-002 1.231134e-002 3.000000e-003
9.412558e-002 4.399605e-002 3.000000e-003
1.041405e-001 5.023625e-002 3.000000e-003
2.738197e-002 4.882443e-002 3.000000e-003
8.001577e-002 4.774933e-002 3.000000e-003
5.493717e-002 4.750262e-002 3.000000e-003
1.040158e-001 6.750667e-003 3.000000e-003
9.575261e-002 1.303649e-002 3.000000e-003
5.262524e-002 4.996457e-002 3.000000e-003
3.007165e-002 5.168866e-002 3.000000e-003
1.047252e-001 8.041027e-003 3.000000e-003
5.312558e-002 4.600395e-002 3.000000e-003
1.264372e-001 4.500262e-002 3.000000e-003
9.461804e-002 1.209789e-002 3.000000e-003
2.961803e-002 5.190211e-002 3.000000e-003
1.040158e-001 6.249332e-003 3.000000e-003
9.593716e-002 1.350262e-002 3.000000e-003
8.001577e-002 4.825067e-002 3.000000e-003
5.500000e-002 4.800000e-002 3.000000e-003
1.051484e-001 8.309654e-003 3.000000e-003
1.246256e-001 4.350395e-002 3.000000e-003
1.203635e-001 3.162810e-002 3.000000e-003
8.072514e-002 6.458973e-003 3.000000e-003
8.038197e-002 6.824431e-003 3.000000e-003
5.445794e-002 6.630905e-003 3.000000e-003
1.265000e-001 4.550000e-002 3.000000e-003
8.014045e-002 4.873625e-002 3.000000e-003
5.493717e-002 4.849738e-002 3.000000e-003
5.407166e-002 6.311344e-003 3.000000e-003
8.114845e-002 6.190346e-003 3.000000e-003
5.475261e-002 7.036493e-003 3.000000e-003
9.412558e-002 1.200395e-002 3.000000e-003
8.014045e-002 7.263752e-003 3.000000e-003
1.041405e-001 5.763752e-003 3.000000e-003
9.600000e-002 1.400000e-002 3.000000e-003
8.038197e-002 4.917557e-002 3.000000e-003
5.475261e-002 4.896351e-002 3.000000e-003
5.361803e-002 6.097887e-003 3.000000e-003
1.724337e-002 3.279558e-002 3.000000e-003
1.850688e-002 3.320612e-002 3.000000e-003
1.145794e-002 4.463091e-002 3.000000e-003
8.162525e-002 6.035425e-003 3.000000e-003
1.107165e-002 4.431134e-002 3.000000e-003
5.493717e-002 7.502621e-003 3.000000e-003
1.241252e-001 4.353543e-002 3.000000e-003
8.001577e-002 7.749333e-003 3.000000e-003
1.175261e-002 4.503649e-002 3.000000e-003
8.072514e-002 4.954103e-002 3.000000e-003
5.445794e-002 4.936910e-002 3.000000e-003
1.193399e-001 3.247494e-002 3.000000e-003
1.264372e-001 4.599738e-002 3.000000e-003
8.212558e-002 6.003948e-003 3.000000e-003
9.593716e-002 1.449738e-002 3.000000e-003
1.612165e-002 3.208372e-002 3.000000e-003
1.061803e-002 4.409788e-002 3.000000e-003
5.500000e-002 8.000000e-003 3.000000e-003
1.122122e-001 2.488474e-002 3.000000e-003
8.114845e-002 4.980966e-002 3.000000e-003
5.407166e-002 4.968865e-002 3.000000e-003
1.193717e-002 4.550262e-002 3.000000e-003
8.001577e-002 8.250668e-003 3.000000e-003
1.236484e-001 4.369035e-002 3.000000e-003
1.012558e-002 4.400395e-002 3.000000e-003
8.162525e-002 4.996457e-002 3.000000e-003
5.361803e-002 4.990211e-002 3.000000e-003
5.493717e-002 8.497380e-003 3.000000e-003
1.521221e-002 3.111526e-002 3.000000e-003
1.200000e-002 4.600000e-002 3.000000e-003
2.714045e-002 4.926375e-002 3.000000e-003
8.014045e-002 8.736248e-003 3.000000e-003
1.262526e-001 4.646351e-002 3.000000e-003
9.625237e-003 4.403543e-002 3.000000e-003
5.475261e-002 8.963509e-003 3.000000e-003
1.457218e-002 2.995106e-002 3.000000e-003
1.193717e-002 4.649738e-002 3.000000e-003
2.701577e-002 4.974933e-002 3.000000e-003
8.038197e-002 9.175570e-003 3.000000e-003
9.575261e-002 1.496351e-002 3.000000e-003
9.148441e-003 4.419035e-002 3.000000e-003
5.445794e-002 9.369095e-003 3.000000e-003
1.175261e-002 4.696351e-002 3.000000e-003
2.701577e-002 5.025067e-002 3.000000e-003
1.232252e-001 4.395897e-002 3.000000e-003
1.181378e-001 3.304061e-002 3.000000e-003
8.725151e-003 4.445897e-002 3.000000e-003
1.424179e-002 2.866427e-002 3.000000e-003
1.259579e-001 4.686910e-002 3.000000e-003
2.714045e-002 5.073625e-002 3.000000e-003
1.145794e-002 4.736910e-002 3.000000e-003
1.115722e-001 2.604894e-002 3.000000e-003
9.545795e-002 1.536909e-002 3.000000e-003
4.245794e-002 4.063091e-002 3.000000e-003
4.207166e-002 4.031134e-002 3.000000e-003
4.161804e-002 1.590211e-002 3.000000e-003
4.207166e-002 1.568866e-002 3.000000e-003
1.168328e-001 3.328954e-002 3.000000e-003
1.228820e-001 4.432443e-002 3.000000e-003
5.262524e-002 4.603543e-002 3.000000e-003
4.275261e-002 4.103649e-002 3.000000e-003
9.507166e-002 1.568866e-002 3.000000e-003
1.145794e-002 8.630905e-003 3.000000e-003
2.701577e-002 5.749332e-003 3.000000e-003
4.161804e-002 4.009788e-002 3.000000e-003
1.107165e-002 8.311344e-003 3.000000e-003
9.201577e-002 4.225067e-002 3.000000e-003
9.214045e-002 4.273625e-002 3.000000e-003
8.345794e-002 4.663091e-002 3.000000e-003
2.701577e-002 6.250667e-003 3.000000e-003
1.175261e-002 9.036492e-003 3.000000e-003
0.000000e+000 5.000000e-002 3.000000e-003
8.307165e-002 4.631134e-002 3.000000e-003
8.381966e-003 4.482443e-002 3.000000e-003
8.140446e-003 4.526375e-002 3.000000e-003
5.214844e-002 4.619035e-002 3.000000e-003
4.293717e-002 4.150262e-002 3.000000e-003
8.015770e-003 4.574933e-002 3.000000e-003
8.015770e-003 4.625067e-002 3.000000e-003
8.140446e-003 4.673625e-002 3.000000e-003
8.381966e-003 4.717557e-002 3.000000e-003
8.725151e-003 4.754103e-002 3.000000e-003
9.201577e-002 4.174933e-002 3.000000e-003
2.738197e-002 5.117557e-002 3.000000e-003
6.000000e-003 5.600000e-002 3.000000e-003
2.772515e-002 5.154103e-002 3.000000e-003
2.814844e-002 5.180965e-002 3.000000e-003
2.862524e-002 5.196457e-002 3.000000e-003
1.061803e-002 8.097887e-003 3.000000e-003
8.375262e-002 4.703649e-002 3.000000e-003
2.912558e-002 5.199605e-002 3.000000e-003
9.148441e-003 4.780966e-002 3.000000e-003
1.193717e-002 9.502620e-003 3.000000e-003
9.238196e-002 4.317557e-002 3.000000e-003
9.625237e-003 4.796457e-002 3.000000e-003
1.012558e-002 4.799605e-002 3.000000e-003
1.061803e-002 4.790211e-002 3.000000e-003
1.107165e-002 4.768865e-002 3.000000e-003
2.714045e-002 6.736248e-003 3.000000e-003
8.261804e-002 4.609788e-002 3.000000e-003
5.312558e-002 4.999605e-002 3.000000e-003
4.112558e-002 4.000395e-002 3.000000e-003
4.112558e-002 1.599605e-002 3.000000e-003
9.214045e-002 4.126375e-002 3.000000e-003
4.300000e-002 4.200000e-002 3.000000e-003
8.393718e-002 4.750262e-002 3.000000e-003
5.172515e-002 4.645897e-002 3.000000e-003
9.272515e-002 4.354103e-002 3.000000e-003
1.012558e-002 8.003945e-003 3.000000e-003
8.212558e-002 4.600395e-002 3.000000e-003
1.200000e-002 1.000000e-002 3.000000e-003
9.238196e-002 4.082443e-002 3.000000e-003
8.400000e-002 4.800000e-002 3.000000e-003
9.314845e-002 4.380966e-002 3.000000e-003
5.138197e-002 4.682443e-002 3.000000e-003
4.293717e-002 4.249738e-002 3.000000e-003
8.162525e-002 4.603543e-002 3.000000e-003
9.625237e-003 8.035425e-003 3.000000e-003
1.043820e-001 5.324430e-003 3.000000e-003
8.345794e-002 6.630905e-003 3.000000e-003
8.114845e-002 9.809650e-003 3.000000e-003
8.307165e-002 6.311344e-003 3.000000e-003
8.393718e-002 4.849738e-002 3.000000e-003
1.047252e-001 4.958973e-003 3.000000e-003
9.362523e-002 1.203542e-002 3.000000e-003
8.375262e-002 7.036493e-003 3.000000e-003
9.362523e-002 4.396457e-002 3.000000e-003
8.114845e-002 4.619035e-002 3.000000e-003
8.261804e-002 6.097887e-003 3.000000e-003
4.275261e-002 4.296351e-002 3.000000e-003
5.114044e-002 4.726375e-002 3.000000e-003
8.375262e-002 4.896351e-002 3.000000e-003
1.051484e-001 4.690346e-003 3.000000e-003
9.314845e-002 1.219035e-002 3.000000e-003
8.393718e-002 7.502621e-003 3.000000e-003
9.148441e-003 8.190346e-003 3.000000e-003
8.345794e-002 4.936910e-002 3.000000e-003
1.043820e-001 5.067557e-002 3.000000e-003
3 0 1 2
3 3 0 2
3 4 5 6
3 7 8 9
3 7 9 10
3 11 12 2
3 13 14 15
3 11 16 12
3 13 17 14
3 4 6 18
3 19 12 16
3 20 21 22
3 23 24 8
3 25 11 2
3 23 8 7
3 20 22 26
3 27 12 19
3 28 17 13
3 28 29 17
3 30 25 2
3 31 12 27
3 32 4 18
3 33 29 28
3 32 18 34
3 35 36 5
3 35 37 36
3 38 30 2
3 33 39 29
3 40 12 31
3 35 5 4
3 41 38 2
3 42 39 33
3 42 43 39
3 44 12 40
3 45 46 21
3 47 48 49
3 45 21 20
3 50 41 2
3 51 12 44
3 52 47 49
3 53 43 42
3 52 49 54
3 55 50 2
3 56 34 57
3 56 32 34
3 53 58 43
3 59 12 51
3 60 48 47
3 60 61 48
3 62 63 58
3 62 58 53
3 64 65 37
3 64 37 35
3 66 52 54
3 66 54 67
3 68 69 46
3 70 61 60
3 68 46 45
3 70 71 61
3 72 66 67
3 73 74 75
3 73 76 77
3 73 78 76
3 72 67 79
3 73 80 78
3 73 81 80
3 73 82 81
3 73 75 82
3 83 71 70
3 83 84 71
3 85 86 87
3 85 87 88
3 89 90 91
3 89 92 90
3 89 57 92
3 89 56 57
3 93 94 2
3 95 85 88
3 96 84 83
3 97 2 94
3 96 98 84
3 95 88 99
3 100 101 86
3 102 103 98
3 100 86 85
3 104 93 2
3 105 106 65
3 107 2 97
3 105 108 106
3 109 95 99
3 102 98 96
3 105 110 108
3 109 99 111
3 107 55 2
3 112 104 2
3 105 65 64
3 113 101 100
3 113 114 101
3 115 55 107
3 116 103 102
3 115 117 55
3 118 109 111
3 119 77 114
3 119 114 113
3 120 112 2
3 121 117 115
3 121 122 117
3 123 118 111
3 124 125 126
3 127 73 77
3 128 122 121
3 127 77 119
3 129 91 130
3 131 126 132
3 129 89 91
3 131 124 126
3 128 133 122
3 134 110 105
3 134 135 110
3 136 72 79
3 136 79 125
3 136 125 124
3 137 138 133
3 139 73 127
3 137 133 128
3 140 141 142
3 143 132 144
3 140 130 141
3 143 131 132
3 140 129 130
3 145 135 134
3 146 147 72
3 145 148 135
3 145 149 148
3 150 73 139
3 146 72 136
3 151 152 153
3 151 154 152
3 155 143 144
3 151 156 154
3 151 157 156
3 151 158 157
3 151 159 158
3 151 160 159
3 151 153 1
3 161 73 150
3 162 142 163
3 162 140 142
3 164 165 147
3 164 147 146
3 166 167 168
3 169 149 145
3 170 163 171
3 170 162 163
3 172 168 173
3 172 166 168
3 174 165 164
3 174 175 165
3 176 177 160
3 176 171 177
3 178 167 166
3 176 170 171
3 179 180 181
3 182 183 184
3 182 185 183
3 186 176 160
3 182 173 185
3 182 172 173
3 186 160 151
3 187 179 181
3 187 188 189
3 190 73 161
3 187 181 188
3 191 167 178
3 192 180 179
3 191 123 111
3 192 193 180
3 191 111 167
3 194 184 195
3 196 175 174
3 197 189 198
3 196 199 175
3 197 187 189
3 194 182 184
3 200 193 192
3 200 59 193
3 200 12 59
3 201 202 123
3 203 199 196
3 203 204 199
3 205 198 138
3 205 197 198
3 201 123 191
3 206 73 190
3 207 204 203
3 208 209 210
3 207 211 204
3 212 195 213
3 214 12 200
3 215 137 216
3 215 138 137
3 212 194 195
3 215 205 138
3 217 218 211
3 219 208 210
3 220 221 202
3 217 211 207
3 219 210 222
3 220 202 201
3 223 216 224
3 225 226 209
3 6 5 218
3 223 215 216
3 24 73 206
3 6 218 217
3 225 209 208
3 227 224 228
3 229 219 222
3 230 212 213
3 227 223 224
3 229 222 231
3 230 213 63
3 227 228 232
3 233 226 225
3 233 234 226
3 74 214 235
3 74 12 214
3 236 237 221
3 238 149 169
3 1 239 155
3 238 231 149
3 1 240 239
3 236 221 220
3 238 229 231
3 1 241 240
3 1 242 241
3 243 234 233
3 1 244 242
3 1 144 2
3 243 245 234
3 1 155 144
3 246 247 248
3 249 169 250
3 251 230 63
3 252 253 237
3 249 238 169
3 252 237 236
3 254 245 243
3 254 68 245
3 255 256 257
3 258 250 259
3 255 246 248
3 258 249 250
3 260 261 253
3 255 248 262
3 260 253 252
3 263 264 69
3 255 262 256
3 263 68 254
3 265 266 74
3 267 268 247
3 263 69 68
3 265 74 235
3 269 74 266
3 270 259 271
3 272 261 260
3 272 273 261
3 270 258 259
3 267 247 246
3 274 264 263
3 274 275 264
3 276 277 278
3 279 255 257
3 280 270 271
3 281 282 273
3 283 235 284
3 283 265 235
3 285 286 268
3 281 273 272
3 287 276 278
3 288 289 275
3 288 275 274
3 285 268 267
3 287 278 290
3 291 257 103
3 292 277 276
3 292 293 277
3 291 279 257
3 294 289 288
3 295 74 269
3 296 287 290
3 297 298 286
3 296 290 299
3 300 293 292
3 297 286 285
3 300 301 293
3 302 303 304
3 305 284 306
3 305 283 284
3 307 308 298
3 309 74 295
3 307 298 297
3 310 304 311
3 310 302 304
3 312 303 302
3 313 296 299
3 312 314 303
3 315 316 317
3 313 299 318
3 319 320 308
3 321 301 300
3 322 311 323
3 319 308 307
3 322 310 311
3 321 232 301
3 324 315 317
3 325 314 312
3 325 326 314
3 327 306 328
3 327 305 306
3 329 271 316
3 329 316 315
3 330 331 320
3 332 74 309
3 330 320 319
3 144 333 2
3 144 323 333
3 144 322 323
3 334 326 325
3 335 324 317
3 334 336 326
3 337 338 331
3 335 317 339
3 340 227 232
3 340 341 227
3 337 331 330
3 340 232 321
3 342 271 329
3 342 280 271
3 343 327 328
3 344 345 338
3 346 335 339
3 344 338 337
3 347 348 336
3 346 339 349
3 350 74 332
3 351 280 342
3 351 352 280
3 347 336 334
3 353 346 349
3 354 348 347
3 354 355 348
3 353 349 356
3 357 352 351
3 357 358 352
3 359 341 340
3 360 353 356
3 361 355 354
3 361 262 355
3 362 363 358
3 364 291 103
3 365 328 366
3 362 358 357
3 365 343 328
3 256 262 361
3 367 360 356
3 368 74 350
3 367 356 369
3 370 363 362
3 370 371 363
3 364 103 116
3 372 341 359
3 372 373 341
3 374 375 376
3 374 116 375
3 374 364 116
3 377 365 366
3 378 291 364
3 378 379 291
3 377 366 380
3 75 74 368
3 381 373 372
3 382 244 1
3 381 185 373
3 382 383 244
3 87 377 380
3 87 380 88
3 384 374 376
3 385 382 1
3 386 383 382
3 387 388 389
3 386 390 383
3 183 185 381
3 391 367 369
3 392 393 379
3 391 394 367
3 391 395 394
3 396 387 389
3 391 397 395
3 391 398 397
3 391 399 398
3 391 186 151
3 391 400 399
3 391 401 400
3 392 379 378
3 396 389 402
3 391 369 186
3 403 385 1
3 404 405 371
3 404 406 405
3 404 407 406
3 404 408 407
3 404 409 408
3 410 390 386
3 404 371 370
3 411 388 387
3 404 401 391
3 404 412 401
3 411 413 388
3 404 414 412
3 404 415 414
3 410 416 390
3 404 417 415
3 404 418 417
3 404 370 418
3 404 73 409
3 419 396 402
3 409 73 294
3 294 73 420
3 294 420 289
3 420 73 344
3 344 73 345
3 421 422 106
3 345 73 23
3 23 73 24
3 421 376 422
3 419 402 423
3 421 384 376
3 424 393 392
3 424 425 393
3 426 413 411
3 426 427 413
3 428 403 1
3 429 419 423
3 430 416 410
3 430 92 416
3 429 423 431
3 108 421 106
3 432 427 426
3 432 433 427
3 434 435 425
3 436 429 431
3 436 251 63
3 436 62 437
3 436 63 62
3 434 425 424
3 436 431 251
3 438 428 1
3 439 318 440
3 441 439 440
3 442 433 432
3 90 92 430
3 442 443 433
3 441 440 444
3 445 313 318
3 445 446 313
3 447 436 437
3 448 435 434
3 445 318 439
3 448 449 435
3 450 441 444
3 451 443 442
3 450 444 452
3 451 282 281
3 451 281 443
3 453 454 446
3 453 446 445
3 455 438 1
3 248 447 437
3 248 437 262
3 333 450 452
3 333 120 2
3 456 457 282
3 333 452 120
3 456 282 451
3 458 454 453
3 26 22 449
3 458 459 454
3 26 449 448
3 10 9 457
3 153 455 1
3 10 457 456
3 15 14 459
3 15 459 458
3 151 1 0
3 460 151 0
3 3 2 12
3 3 12 461
3 462 463 464
3 465 466 467
3 468 469 470
3 469 471 470
3 3 461 472
3 473 474 475
3 461 476 472
3 476 461 477
3 478 465 467
3 464 473 475
3 3 472 479
3 480 481 482
3 481 483 482
3 470 471 484
3 471 485 484
3 477 461 486
3 475 474 487
3 474 488 487
3 3 479 489
3 486 461 490
3 478 467 491
3 492 478 491
3 488 493 494
3 3 489 495
3 487 488 494
3 490 461 496
3 466 497 498
3 497 499 498
3 467 466 498
3 3 495 500
3 493 501 502
3 494 493 502
3 496 461 503
3 3 500 504
3 505 506 507
3 483 508 509
3 503 461 510
3 482 483 509
3 501 511 512
3 513 492 514
3 3 504 515
3 502 501 512
3 516 505 517
3 492 491 514
3 505 507 517
3 510 461 518
3 511 519 520
3 506 521 522
3 512 511 520
3 507 506 522
3 499 523 524
3 516 517 525
3 498 499 524
3 526 516 525
3 522 521 527
3 528 529 530
3 508 531 532
3 521 533 527
3 509 508 532
3 529 534 530
3 535 536 530
3 537 526 538
3 536 539 530
3 539 540 530
3 526 525 538
3 540 541 530
3 541 528 530
3 542 543 544
3 533 545 546
3 527 533 546
3 543 547 544
3 548 549 550
3 549 513 550
3 542 544 551
3 513 514 550
3 552 548 550
3 3 553 554
3 555 542 551
3 553 3 556
3 546 545 557
3 545 558 557
3 544 547 559
3 547 560 559
3 3 554 561
3 562 555 563
3 556 3 564
3 555 551 563
3 565 566 567
3 558 568 569
3 523 565 567
3 559 560 570
3 3 515 564
3 557 558 569
3 3 561 571
3 524 523 567
3 560 572 570
3 566 573 567
3 564 515 574
3 515 575 574
3 562 563 576
3 569 568 577
3 570 572 578
3 572 535 578
3 3 571 579
3 575 580 581
3 562 576 582
3 574 575 581
3 583 584 585
3 535 530 586
3 578 535 586
3 580 587 588
3 589 583 590
3 581 580 588
3 583 585 590
3 591 552 592
3 552 550 592
3 588 587 593
3 584 537 594
3 567 573 595
3 537 538 594
3 587 596 593
3 573 597 595
3 585 584 594
3 586 530 598
3 591 592 599
3 600 589 601
3 589 590 601
3 602 603 599
3 603 591 599
3 598 530 604
3 538 605 606
3 595 597 607
3 597 608 607
3 608 609 607
3 594 538 606
3 0 610 460
3 610 611 460
3 611 612 460
3 612 613 460
3 600 601 614
3 613 615 460
3 615 616 460
3 604 530 617
3 616 618 460
3 618 619 460
3 602 599 620
3 606 605 621
3 605 622 621
3 623 624 625
3 626 602 620
3 607 609 627
3 628 623 629
3 623 625 629
3 626 620 630
3 631 626 630
3 625 624 632
3 622 633 634
3 635 636 637
3 631 630 638
3 619 639 638
3 628 629 640
3 639 631 638
3 621 622 634
3 641 642 640
3 643 628 640
3 642 643 640
3 635 637 644
3 645 646 644
3 619 638 647
3 646 635 644
3 460 619 647
3 617 530 648
3 562 582 649
3 636 650 651
3 624 562 649
3 637 636 651
3 632 624 649
3 652 641 653
3 654 645 655
3 645 644 655
3 633 656 657
3 641 640 653
3 651 650 658
3 650 518 658
3 634 633 657
3 582 659 660
3 518 461 658
3 596 654 661
3 649 582 660
3 656 662 663
3 648 530 664
3 657 656 663
3 654 655 661
3 665 652 666
3 658 461 667
3 662 668 669
3 652 653 666
3 593 596 670
3 596 661 670
3 663 662 669
3 671 672 673
3 674 593 670
3 671 673 675
3 660 659 676
3 668 677 678
3 659 679 676
3 669 668 678
3 680 671 675
3 664 530 485
3 677 466 465
3 681 674 682
3 674 670 682
3 673 672 683
3 672 684 683
3 678 677 465
3 680 675 685
3 665 666 686
3 519 665 686
3 687 688 689
3 688 681 689
3 681 682 689
3 690 680 685
3 691 667 534
3 683 684 692
3 667 461 534
3 684 693 692
3 627 609 694
3 690 685 694
3 3 600 0
3 679 695 696
3 614 697 0
3 697 698 0
3 698 699 0
3 699 700 0
3 700 701 0
3 609 690 694
3 676 679 696
3 693 702 703
3 519 686 704
3 600 614 0
3 692 693 703
3 627 694 705
3 706 707 708
3 696 695 709
3 695 710 709
3 711 627 705
3 702 532 712
3 703 702 712
3 709 710 713
3 534 714 715
3 710 716 713
3 717 706 718
3 691 534 715
3 719 711 720
3 711 705 720
3 714 534 721
3 706 708 718
3 531 722 723
3 724 725 718
3 725 717 718
3 707 726 727
3 712 532 723
3 532 531 723
3 713 716 728
3 716 729 728
3 730 731 732
3 733 719 734
3 708 707 727
3 719 720 734
3 691 715 735
3 722 736 737
3 723 722 737
3 724 718 738
3 739 691 735
3 730 732 740
3 728 729 741
3 729 742 741
3 733 734 743
3 726 744 745
3 746 730 740
3 732 731 747
3 736 748 749
3 737 736 749
3 731 750 747
3 727 726 745
3 724 738 751
3 721 534 752
3 746 740 753
3 749 748 754
3 755 746 753
3 747 750 756
3 568 724 751
3 744 757 758
3 750 759 756
3 739 735 760
3 745 744 758
3 761 739 760
3 762 763 764
3 752 534 765
3 757 766 767
3 762 764 768
3 758 757 767
3 769 762 768
3 764 763 770
3 755 753 771
3 763 772 770
3 773 755 771
3 756 759 774
3 766 775 776
3 759 687 774
3 769 768 777
3 778 779 780
3 767 766 776
3 781 769 777
3 778 780 782
3 770 772 783
3 761 760 784
3 772 785 783
3 780 779 786
3 775 787 788
3 789 761 784
3 765 534 790
3 3 791 600
3 776 775 788
3 779 733 786
3 781 777 600
3 791 781 600
3 774 687 792
3 793 778 794
3 783 785 795
3 689 796 792
3 787 797 798
3 778 782 794
3 786 733 799
3 785 800 795
3 788 787 798
3 687 689 792
3 789 784 801
3 733 743 799
3 793 794 802
3 797 803 804
3 798 797 804
3 795 800 805
3 806 793 802
3 799 743 807
3 743 808 807
3 800 809 805
3 790 534 810
3 806 802 811
3 805 809 812
3 813 806 811
3 807 808 814
3 808 815 814
3 809 816 812
3 792 796 817
3 813 811 818
3 812 816 819
3 814 815 820
3 815 821 820
3 816 717 819
3 789 801 822
3 823 789 822
3 813 818 824
3 819 717 725
3 825 813 824
3 810 534 826
3 821 827 828
3 820 821 828
3 796 829 830
3 568 751 831
3 577 568 831
3 577 831 832
3 817 796 830
3 833 834 832
3 834 577 832
3 835 823 836
3 823 822 836
3 826 534 529
3 751 837 838
3 829 643 839
3 831 751 838
3 830 829 839
3 0 701 840
3 701 841 840
3 542 835 543
3 835 836 543
3 833 832 842
3 0 840 843
3 839 643 642
3 844 845 846
3 841 847 848
3 825 824 849
3 460 647 849
3 840 841 848
3 844 846 850
3 824 851 849
3 851 852 849
3 837 853 854
3 852 855 849
3 855 856 849
3 856 857 849
3 857 858 849
3 647 825 849
3 858 859 849
3 860 844 850
3 827 861 862
3 838 837 854
3 861 863 862
3 863 864 862
3 864 865 862
3 0 843 866
3 846 845 867
3 865 868 862
3 828 827 862
3 849 859 862
3 859 869 862
3 848 847 870
3 845 871 867
3 869 872 862
3 872 873 862
3 873 874 862
3 874 875 862
3 847 876 870
3 875 828 862
3 868 530 862
3 754 530 868
3 860 850 877
3 878 530 754
3 748 878 754
3 804 530 878
3 803 530 804
3 833 842 879
3 484 530 803
3 485 530 484
3 565 880 879
3 880 833 879
3 881 860 877
3 854 853 882
3 867 871 883
3 853 884 882
3 871 885 883
3 0 866 886
3 881 877 887
3 870 876 888
3 889 881 887
3 876 549 888
3 883 885 890
3 885 891 890
3 565 879 566
3 884 892 893
3 889 887 894
3 520 519 894
3 882 884 893
3 704 889 894
3 0 886 895
3 519 704 894
3 896 773 897
3 898 520 894
3 896 897 899
3 890 891 900
3 888 549 548
3 901 896 899
3 771 902 903
3 891 904 900
3 898 894 905
3 773 771 903
3 897 773 903
3 901 899 906
3 893 892 907
3 892 908 907
3 900 904 909
3 910 901 906
3 741 742 909
3 902 911 912
3 904 741 909
3 0 895 913
3 903 902 912
3 910 906 791
3 3 579 791
3 898 905 706
3 717 898 706
3 909 742 914
3 579 910 791
3 742 915 914
3 911 463 462
3 907 908 480
3 908 481 480
3 912 911 462
3 0 913 610
3 915 469 468
3 463 473 464
3 914 915 468
3 849 391 151
3 460 849 151
3 461 12 74
3 534 461 74
3 862 404 391
3 862 391 849
3 534 74 73
3 534 73 530
3 530 73 404
3 862 530 404
3 880 422 376
3 833 880 376
3 527 546 83
3 833 376 375
3 834 833 375
3 577 834 375
3 577 375 116
3 527 83 70
3 569 577 116
3 522 527 60
3 569 116 102
3 507 522 60
3 527 70 60
3 557 569 96
3 569 102 96
3 517 507 47
3 546 557 96
3 507 60 47
3 546 96 83
3 517 47 52
3 525 517 66
3 517 52 66
3 538 525 72
3 525 66 72
3 605 538 147
3 622 605 147
3 538 72 147
3 622 147 165
3 633 622 175
3 656 633 175
3 622 165 175
3 656 175 199
3 662 656 204
3 656 199 204
3 662 204 211
3 668 662 211
3 677 668 211
3 677 211 218
3 677 218 5
3 466 677 5
3 466 5 36
3 497 466 36
3 499 497 36
3 499 36 37
3 499 37 65
3 523 499 65
3 523 65 106
3 565 523 106
3 880 565 106
3 880 106 422
3 878 420 344
3 804 878 344
3 745 758 297
3 804 344 337
3 798 804 337
3 788 798 337
3 788 337 330
3 745 297 285
3 776 788 330
3 727 745 267
3 776 330 319
3 708 727 267
3 745 285 267
3 767 776 307
3 776 319 307
3 718 708 246
3 758 767 307
3 708 267 246
3 758 307 297
3 718 246 255
3 738 718 279
3 718 255 279
3 751 738 291
3 738 279 291
3 837 751 379
3 853 837 379
3 751 291 379
3 853 379 393
3 884 853 425
3 892 884 425
3 853 393 425
3 892 425 435
3 908 892 449
3 892 435 449
3 908 449 22
3 481 908 22
3 483 481 22
3 483 22 21
3 483 21 46
3 508 483 46
3 508 46 69
3 531 508 69
3 722 531 69
3 722 69 264
3 722 264 275
3 736 722 275
3 736 275 289
3 748 736 289
3 878 748 289
3 878 289 420
3 532 68 45
3 509 532 45
3 854 882 424
3 509 45 20
3 482 509 20
3 480 482 20
3 480 20 26
3 854 424 392
3 907 480 26
3 838 854 378
3 907 26 448
3 831 838 378
3 854 392 378
3 893 907 434
3 907 448 434
3 832 831 364
3 882 893 434
3 831 378 364
3 882 434 424
3 832 364 374
3 842 832 384
3 832 374 384
3 879 842 421
3 842 384 421
3 566 879 108
3 573 566 108
3 879 421 108
3 573 108 110
3 597 573 135
3 608 597 135
3 573 110 135
3 608 135 148
3 609 608 149
3 608 148 149
3 609 149 231
3 690 609 231
3 680 690 231
3 680 231 222
3 680 222 210
3 671 680 210
3 671 210 209
3 672 671 209
3 684 672 209
3 684 209 226
3 684 226 234
3 693 684 234
3 693 234 245
3 702 693 245
3 532 702 245
3 532 245 68
3 733 271 259
3 719 733 259
3 719 259 250
3 711 719 250
3 524 567 64
3 567 105 64
3 711 250 169
3 627 711 169
3 498 524 35
3 467 498 35
3 524 64 35
3 607 627 145
3 627 169 145
3 467 35 4
3 607 145 134
3 595 607 134
3 567 595 134
3 491 467 32
3 467 4 32
3 567 134 105
3 514 491 56
3 491 32 56
3 550 514 89
3 592 550 89
3 514 56 89
3 592 89 129
3 599 592 140
3 592 129 140
3 620 599 162
3 599 140 162
3 630 620 170
3 620 162 170
3 638 630 176
3 630 170 176
3 638 176 186
3 647 638 186
3 647 186 369
3 825 647 369
3 825 369 356
3 813 825 356
3 806 813 356
3 806 356 349
3 806 349 339
3 793 806 339
3 793 339 317
3 778 793 317
3 778 317 316
3 779 778 316
3 779 316 271
3 733 779 271
3 868 409 294
3 754 868 294
3 692 703 243
3 754 294 288
3 749 754 288
3 737 749 288
3 737 288 274
3 692 243 233
3 723 737 274
3 683 692 225
3 723 274 263
3 673 683 225
3 692 233 225
3 712 723 254
3 723 263 254
3 675 673 208
3 703 712 254
3 673 225 208
3 703 254 243
3 675 208 219
3 685 675 229
3 675 219 229
3 694 685 238
3 685 229 238
3 705 694 249
3 720 705 249
3 694 238 249
3 720 249 258
3 734 720 270
3 743 734 270
3 720 258 270
3 743 270 280
3 808 743 352
3 743 280 352
3 808 352 358
3 815 808 358
3 821 815 358
3 821 358 363
3 821 363 371
3 827 821 371
3 827 371 405
3 861 827 405
3 863 861 405
3 863 405 406
3 863 406 407
3 864 863 407
3 864 407 408
3 865 864 408
3 868 865 408
3 868 408 409
3 512 53 42
3 502 512 42
3 912 462 458
3 502 42 33
3 494 502 33
3 487 494 33
3 487 33 28
3 912 458 453
3 475 487 28
3 903 912 445
3 475 28 13
3 897 903 445
3 912 453 445
3 464 475 15
3 475 13 15
3 899 897 439
3 462 464 15
3 897 445 439
3 462 15 458
3 899 439 441
3 906 899 450
3 899 441 450
3 791 906 333
3 906 450 333
3 781 791 323
3 769 781 323
3 791 333 323
3 769 323 311
3 762 769 304
3 763 762 304
3 769 311 304
3 763 304 303
3 772 763 314
3 763 303 314
3 772 314 326
3 785 772 326
3 800 785 326
3 800 326 336
3 800 336 348
3 809 800 348
3 809 348 355
3 816 809 355
3 717 816 355
3 717 355 262
3 717 262 437
3 898 717 437
3 898 437 62
3 520 898 62
3 512 520 62
3 512 62 53
3 465 6 217
3 678 465 217
3 606 621 164
3 678 217 207
3 669 678 207
3 663 669 207
3 663 207 203
3 606 164 146
3 657 663 203
3 594 606 136
3 657 203 196
3 585 594 136
3 606 146 136
3 634 657 174
3 657 196 174
3 590 585 124
3 621 634 174
3 585 136 124
3 621 174 164
3 590 124 131
3 601 590 143
3 590 131 143
3 614 601 155
3 601 143 155
3 697 614 239
3 698 697 239
3 614 155 239
3 698 239 240
3 699 698 241
3 700 699 241
3 698 240 241
3 700 241 242
3 701 700 244
3 700 242 244
3 701 244 383
3 841 701 383
3 847 841 383
3 847 383 390
3 847 390 416
3 876 847 416
3 876 416 92
3 549 876 92
3 513 549 92
3 513 92 57
3 513 57 34
3 492 513 34
3 492 34 18
3 478 492 18
3 465 478 18
3 465 18 6
3 568 103 257
3 724 568 257
3 783 795 334
3 724 257 256
3 725 724 256
3 819 725 256
3 819 256 361
3 783 334 325
3 812 819 361
3 770 783 312
3 812 361 354
3 764 770 312
3 783 325 312
3 805 812 347
3 812 354 347
3 768 764 302
3 795 805 347
3 764 312 302
3 795 347 334
3 768 302 310
3 777 768 322
3 768 310 322
3 600 777 144
3 777 322 144
3 589 600 132
3 583 589 132
3 600 144 132
3 583 132 126
3 584 583 125
3 537 584 125
3 583 126 125
3 537 125 79
3 526 537 67
3 537 79 67
3 526 67 54
3 516 526 54
3 505 516 54
3 505 54 49
3 505 49 48
3 506 505 48
3 506 48 61
3 521 506 61
3 533 521 61
3 533 61 71
3 533 71 84
3 545 533 84
3 545 84 98
3 558 545 98
3 568 558 98
3 568 98 103
3 484 23 7
3 470 484 7
3 883 890 432
3 470 7 10
3 468 470 10
3 914 468 10
3 914 10 456
3 883 432 426
3 909 914 456
3 867 883 411
3 909 456 451
3 846 867 411
3 883 426 411
3 900 909 442
3 909 451 442
3 850 846 387
3 890 900 442
3 846 411 387
3 890 442 432
3 850 387 396
3 877 850 419
3 850 396 419
3 887 877 429
3 877 419 429
3 894 887 436
3 905 894 436
3 887 429 436
3 905 436 447
3 706 905 248
3 707 706 248
3 905 447 248
3 707 248 247
3 726 707 268
3 707 247 268
3 726 268 286
3 744 726 286
3 757 744 286
3 757 286 298
3 757 298 308
3 766 757 308
3 766 308 320
3 775 766 320
3 787 775 320
3 787 320 331
3 787 331 338
3 797 787 338
3 797 338 345
3 803 797 345
3 484 803 345
3 484 345 23
3 641 184 183
3 642 641 183
3 756 774 321
3 642 183 381
3 839 642 381
3 830 839 381
3 830 381 372
3 756 321 300
3 817 830 372
3 747 756 292
3 817 372 359
3 732 747 292
3 756 300 292
3 792 817 340
3 817 359 340
3 740 732 276
3 774 792 340
3 732 292 276
3 774 340 321
3 740 276 287
3 753 740 296
3 740 287 296
3 771 753 313
3 753 296 313
3 902 771 446
3 911 902 446
3 771 313 446
3 911 446 454
3 463 911 459
3 473 463 459
3 911 454 459
3 473 459 14
3 474 473 17
3 473 14 17
3 474 17 29
3 488 474 29
3 493 488 29
3 493 29 39
3 493 39 43
3 501 493 43
3 501 43 58
3 511 501 58
3 519 511 58
3 519 58 63
3 519 63 213
3 665 519 213
3 665 213 195
3 652 665 195
3 641 652 195
3 641 195 184
3 741 281 272
3 728 741 272
3 649 660 201
3 728 272 260
3 713 728 260
3 709 713 260
3 709 260 252
3 649 201 191
3 696 709 252
3 632 649 178
3 696 252 236
3 625 632 178
3 649 191 178
3 676 696 220
3 696 236 220
3 629 625 166
3 660 676 220
3 625 178 166
3 660 220 201
3 629 166 172
3 640 629 182
3 629 172 182
3 653 640 194
3 640 182 194
3 666 653 212
3 686 666 212
3 653 194 212
3 686 212 230
3 704 686 251
3 889 704 251
3 686 230 251
3 889 251 431
3 881 889 423
3 889 431 423
3 881 423 402
3 860 881 402
3 844 860 402
3 844 402 389
3 844 389 388
3 845 844 388
3 845 388 413
3 871 845 413
3 885 871 413
3 885 413 427
3 885 427 433
3 891 885 433
3 891 433 443
3 904 891 443
3 741 904 443
3 741 443 281
3 688 228 224
3 681 688 224
3 564 574 115
3 681 224 216
3 674 681 216
3 593 674 216
3 593 216 137
3 564 115 107
3 588 593 137
3 556 564 97
3 588 137 128
3 553 556 97
3 564 107 97
3 581 588 121
3 588 128 121
3 554 553 94
3 574 581 121
3 553 97 94
3 574 121 115
3 554 94 93
3 561 554 104
3 554 93 104
3 571 561 112
3 561 104 112
3 579 571 120
3 910 579 120
3 571 112 120
3 910 120 452
3 901 910 444
3 896 901 444
3 910 452 444
3 896 444 440
3 773 896 318
3 896 440 318
3 773 318 299
3 755 773 299
3 746 755 299
3 746 299 290
3 746 290 278
3 730 746 278
3 730 278 277
3 731 730 277
3 750 731 277
3 750 277 293
3 750 293 301
3 759 750 301
3 759 301 232
3 687 759 232
3 688 687 232
3 688 232 228
3 664 206 190
3 648 664 190
3 570 578 119
3 648 190 161
3 617 648 161
3 604 617 161
3 604 161 150
3 570 119 113
3 598 604 150
3 559 570 100
3 598 150 139
3 544 559 100
3 570 113 100
3 586 598 127
3 598 139 127
3 551 544 85
3 578 586 127
3 544 100 85
3 578 127 119
3 551 85 95
3 563 551 109
3 551 95 109
3 576 563 118
3 563 109 118
3 582 576 123
3 659 582 123
3 576 118 123
3 659 123 202
3 679 659 221
3 695 679 221
3 659 202 221
3 695 221 237
3 710 695 253
3 695 237 253
3 710 253 261
3 716 710 261
3 729 716 261
3 729 261 273
3 729 273 282
3 742 729 282
3 742 282 457
3 915 742 457
3 469 915 457
3 469 457 9
3 469 9 8
3 471 469 8
3 471 8 24
3 485 471 24
3 664 485 24
3 664 24 206
3 636 180 193
3 650 636 193
3 486 490 31
3 650 193 59
3 518 650 59
3 510 518 59
3 510 59 51
3 486 31 27
3 503 510 51
3 477 486 19
3 503 51 44
3 476 477 19
3 486 27 19
3 496 503 40
3 503 44 40
3 472 476 16
3 490 496 40
3 476 19 16
3 490 40 31
3 472 16 11
3 479 472 25
3 472 11 25
3 489 479 30
3 479 25 30
3 495 489 38
3 500 495 38
3 489 30 38
3 500 38 41
3 504 500 50
3 515 504 50
3 500 41 50
3 515 50 55
3 575 515 117
3 515 55 117
3 575 117 122
3 580 575 122
3 587 580 122
3 587 122 133
3 587 133 138
3 596 587 138
3 596 138 198
3 654 596 198
3 645 654 198
3 645 198 189
3 645 189 188
3 646 645 188
3 646 188 181
3 635 646 181
3 636 635 181
3 636 181 180
3 541 81 82
3 528 541 82
3 752 765 309
3 528 82 75
3 529 528 75
3 826 529 75
3 826 75 368
3 752 309 295
3 810 826 368
3 721 752 269
3 810 368 350
3 714 721 269
3 752 295 269
3 790 810 332
3 810 350 332
3 715 714 266
3 765 790 332
3 714 269 266
3 765 332 309
3 715 266 265
3 735 715 283
3 715 265 283
3 760 735 305
3 735 283 305
3 784 760 327
3 801 784 327
3 760 305 327
3 801 327 343
3 822 801 365
3 836 822 365
3 801 343 365
3 836 365 377
3 543 836 87
3 836 377 87
3 543 87 86
3 547 543 86
3 560 547 86
3 560 86 101
3 560 101 114
3 572 560 114
3 572 114 77
3 535 572 77
3 536 535 77
3 536 77 76
3 536 76 78
3 539 536 78
3 539 78 80
3 540 539 80
3 541 540 80
3 541 80 81
3 835 380 366
3 823 835 366
3 823 366 328
3 789 823 328
3 658 667 200
3 667 214 200
3 789 328 306
3 761 789 306
3 651 658 192
3 637 651 192
3 658 200 192
3 739 761 284
3 761 306 284
3 637 192 179
3 739 284 235
3 691 739 235
3 667 691 235
3 644 637 187
3 637 179 187
3 667 235 214
3 655 644 197
3 644 187 197
3 661 655 205
3 670 661 205
3 655 197 205
3 670 205 215
3 682 670 223
3 670 215 223
3 689 682 227
3 682 223 227
3 796 689 341
3 689 227 341
3 829 796 373
3 796 341 373
3 829 373 185
3 643 829 185
3 643 185 173
3 628 643 173
3 628 173 168
3 623 628 168
3 624 623 168
3 624 168 167
3 624 167 111
3 562 624 111
3 562 111 99
3 555 562 99
3 555 99 88
3 542 555 88
3 542 88 380
3 835 542 380
3 626 163 142
3 602 626 142
3 870 888 430
3 602 142 141
3 603 602 141
3 591 603 141
3 591 141 130
3 870 430 410
3 552 591 130
3 848 870 386
3 552 130 91
3 840 848 386
3 870 410 386
3 548 552 90
3 552 91 90
3 843 840 382
3 888 548 90
3 840 386 382
3 888 90 430
3 843 382 385
3 866 843 403
3 843 385 403
3 886 866 428
3 866 403 428
3 895 886 438
3 913 895 438
3 886 428 438
3 913 438 455
3 610 913 153
3 611 610 153
3 913 455 153
3 611 153 152
3 612 611 154
3 611 152 154
3 612 154 156
3 613 612 156
3 615 613 156
3 615 156 157
3 615 157 158
3 616 615 158
3 616 158 159
3 618 616 159
3 619 618 159
3 619 159 160
3 619 160 177
3 639 619 177
3 639 177 171
3 631 639 171
3 626 631 171
3 626 171 163
3 873 415 417
3 874 873 417
3 799 807 351
3 874 417 418
3 875 874 418
3 828 875 418
3 828 418 370
3 799 351 342
3 820 828 370
3 786 799 329
3 820 370 362
3 780 786 329
3 799 342 329
3 814 820 357
3 820 362 357
3 782 780 315
3 807 814 357
3 780 329 315
3 807 357 351
3 782 315 324
3 794 782 335
3 782 324 335
3 802 794 346
3 794 335 346
3 811 802 353
3 818 811 353
3 802 346 353
3 818 353 360
3 824 818 367
3 851 824 367
3 818 360 367
3 851 367 394
3 852 851 395
3 851 394 395
3 852 395 397
3 855 852 397
3 856 855 397
3 856 397 398
3 856 398 399
3 857 856 399
3 857 399 400
3 858 857 400
3 859 858 400
3 859 400 401
3 859 401 412
3 869 859 412
3 869 412 414
3 872 869 414
3 873 872 414
3 873 414 415
