ply
format ascii 1.0
comment Written by HALCON (export v1.0)
element vertex 1261
property float x
property float y
property float z
element face 2482
property list uchar int vertex_index
end_header
-1.697701e-002 -1.227569e-001 -3.100000e-002
-2.598670e-002 -1.170957e-001 -3.100000e-002
-2.479533e-002 -1.189918e-001 -3.100000e-002
-2.321191e-002 -1.205752e-001 -3.100000e-002
-2.131585e-002 -1.217666e-001 -3.100000e-002
-1.920222e-002 -1.225062e-001 -3.100000e-002
-2.697701e-002 -1.127569e-001 -3.100000e-002
-2.672629e-002 -1.149821e-001 -3.100000e-002
2.730271e-002 -1.227569e-001 -3.100000e-002
3.154672e-002 -1.218117e-001 -3.100000e-002
2.947671e-002 -1.225177e-001 -3.100000e-002
3.341372e-002 -1.206724e-001 -3.100000e-002
3.498839e-002 -1.191546e-001 -3.100000e-002
3.619543e-002 -1.173307e-001 -3.100000e-002
3.697708e-002 -1.152880e-001 -3.100000e-002
3.763929e-002 -1.127569e-001 -3.100000e-002
4.472163e-002 -4.657566e-002 -2.000000e-003
2.941622e-002 -1.050758e-001 -2.000000e-003
3.896290e-002 -1.076978e-001 -1.189950e-002
6.242892e-002 -1.800642e-002 -1.189950e-002
5.596040e-002 -2.821818e-002 -7.691537e-003
4.902104e-002 -3.642899e-002 -2.922479e-003
4.472163e-002 -4.657566e-002 -2.000000e-003
4.945666e-002 -3.660175e-002 -2.472062e-003
5.243151e-002 -3.825519e-002 -2.000000e-003
5.885155e-002 -2.379237e-002 -9.684474e-003
6.242892e-002 -1.800642e-002 -1.189950e-002
5.119963e-002 -3.127024e-002 -3.666224e-003
5.932267e-002 -2.388373e-002 -8.672486e-003
5.111431e-002 -3.111911e-002 -3.109622e-003
5.526054e-002 -2.737992e-002 -5.332853e-003
5.213422e-002 -3.155706e-002 -2.239087e-003
5.502317e-002 -2.713425e-002 -4.745260e-003
5.339040e-002 -3.225545e-002 -2.040817e-003
5.840660e-002 -2.861305e-002 -2.000000e-003
5.478400e-002 -2.688745e-002 -4.157298e-003
5.966277e-002 -2.369206e-002 -6.525776e-003
5.962536e-002 -2.357072e-002 -5.978940e-003
5.446352e-002 -2.649202e-002 -3.013553e-003
5.457657e-002 -2.647967e-002 -2.582279e-003
5.954820e-002 -2.342466e-002 -5.424003e-003
5.543027e-002 -2.540422e-002 -2.830194e-003
5.505941e-002 -2.669722e-002 -2.226377e-003
5.648190e-002 -2.445183e-002 -3.118451e-003
5.561463e-002 -2.543620e-002 -2.413454e-003
5.919666e-002 -2.300991e-002 -4.273926e-003
5.643633e-002 -2.434085e-002 -2.654845e-003
5.895530e-002 -2.277720e-002 -3.770412e-003
5.870379e-002 -2.253818e-002 -3.264830e-003
5.874472e-002 -2.239833e-002 -2.364538e-003
6.242890e-002 -1.800642e-002 -2.000000e-003
5.964287e-002 -2.135052e-002 -2.621513e-003
6.065831e-002 -2.037564e-002 -2.902394e-003
3.896290e-002 -1.076978e-001 -1.189950e-002
-1.707752e-002 -1.050758e-001 -2.000000e-003
-2.697701e-002 -1.076978e-001 -1.189950e-002
2.941622e-002 -1.050758e-001 -2.000000e-003
-2.379048e-002 -5.371589e-002 -2.000000e-003
-2.697701e-002 -5.175691e-002 -2.000000e-003
-2.697701e-002 -5.175691e-002 -1.189950e-002
-2.048622e-002 -5.546901e-002 -2.000000e-003
-1.707752e-002 -5.700923e-002 -2.000000e-003
-1.707752e-002 -5.700923e-002 -2.000000e-003
-2.697701e-002 -1.076978e-001 -1.189950e-002
-2.697701e-002 -5.175691e-002 -1.189950e-002
-1.707752e-002 -1.050758e-001 -2.000000e-003
3.763929e-002 -1.127569e-001 -3.100000e-002
-2.697701e-002 -1.076978e-001 -1.189950e-002
-2.697701e-002 -1.127569e-001 -3.100000e-002
3.896290e-002 -1.076978e-001 -1.189950e-002
3.374056e-002 -1.197569e-001 -6.600000e-002
3.619543e-002 -1.173307e-001 -6.600000e-002
3.564192e-002 -1.182757e-001 -6.600000e-002
3.498839e-002 -1.191546e-001 -6.600000e-002
3.424267e-002 -1.199567e-001 -6.600000e-002
3.341372e-002 -1.206724e-001 -6.600000e-002
3.251145e-002 -1.212932e-001 -6.600000e-002
3.154672e-002 -1.218117e-001 -6.600000e-002
3.664226e-002 -1.163308e-001 -6.600000e-002
3.053107e-002 -1.222215e-001 -6.600000e-002
3.697708e-002 -1.152880e-001 -6.600000e-002
2.947671e-002 -1.225177e-001 -6.600000e-002
2.839627e-002 -1.226969e-001 -6.600000e-002
2.730271e-002 -1.227569e-001 -6.600000e-002
3.818828e-002 -1.027569e-001 -6.600000e-002
4.025560e-002 -1.027569e-001 -6.600000e-002
-2.397701e-002 -1.197569e-001 -6.600000e-002
-1.697701e-002 -1.227569e-001 -6.600000e-002
-1.809666e-002 -1.226940e-001 -6.600000e-002
-1.920222e-002 -1.225062e-001 -6.600000e-002
-2.027980e-002 -1.221958e-001 -6.600000e-002
-2.131585e-002 -1.217666e-001 -6.600000e-002
-2.229733e-002 -1.212242e-001 -6.600000e-002
-2.321191e-002 -1.205752e-001 -6.600000e-002
-2.404808e-002 -1.198280e-001 -6.600000e-002
-2.479533e-002 -1.189918e-001 -6.600000e-002
-2.544425e-002 -1.180772e-001 -6.600000e-002
-2.598670e-002 -1.170957e-001 -6.600000e-002
-2.641585e-002 -1.160597e-001 -6.600000e-002
-2.672629e-002 -1.149821e-001 -6.600000e-002
-2.691413e-002 -1.138766e-001 -6.600000e-002
-2.697701e-002 -1.127569e-001 -6.600000e-002
-2.697701e-002 -1.027569e-001 -6.600000e-002
-2.397701e-002 -1.027569e-001 -6.600000e-002
-1.697701e-002 -1.227569e-001 -3.100000e-002
2.730271e-002 -1.227569e-001 -3.100000e-002
-1.809666e-002 -1.226940e-001 -3.100000e-002
-1.920222e-002 -1.225062e-001 -3.100000e-002
-2.027980e-002 -1.221958e-001 -3.100000e-002
-2.131585e-002 -1.217666e-001 -3.100000e-002
-2.229733e-002 -1.212242e-001 -3.100000e-002
-2.321191e-002 -1.205752e-001 -3.100000e-002
-2.404808e-002 -1.198280e-001 -3.100000e-002
-2.479533e-002 -1.189918e-001 -3.100000e-002
-2.544425e-002 -1.180772e-001 -3.100000e-002
-2.598670e-002 -1.170957e-001 -3.100000e-002
-2.641585e-002 -1.160597e-001 -3.100000e-002
-2.672629e-002 -1.149821e-001 -3.100000e-002
-2.691413e-002 -1.138766e-001 -3.100000e-002
-2.697701e-002 -1.127569e-001 -3.100000e-002
3.697708e-002 -1.152880e-001 -3.100000e-002
3.664226e-002 -1.163308e-001 -3.100000e-002
3.619543e-002 -1.173307e-001 -3.100000e-002
3.564192e-002 -1.182757e-001 -3.100000e-002
3.498839e-002 -1.191546e-001 -3.100000e-002
3.424267e-002 -1.199567e-001 -3.100000e-002
3.341372e-002 -1.206724e-001 -3.100000e-002
3.251145e-002 -1.212932e-001 -3.100000e-002
3.154672e-002 -1.218117e-001 -3.100000e-002
3.053107e-002 -1.222215e-001 -3.100000e-002
2.947671e-002 -1.225177e-001 -3.100000e-002
2.839627e-002 -1.226969e-001 -3.100000e-002
-2.697701e-002 -1.027569e-001 -5.600000e-002
-2.697701e-002 -1.076978e-001 -1.189950e-002
-2.697701e-002 -5.175691e-002 -4.200000e-002
-2.697701e-002 -5.175691e-002 -5.600000e-002
-2.697701e-002 -5.175691e-002 -1.189950e-002
4.025560e-002 -1.027569e-001 -5.600000e-002
3.763929e-002 -1.127569e-001 -3.100000e-002
4.126653e-002 -9.889293e-002 -5.600000e-002
4.126804e-002 -9.888717e-002 -2.449905e-002
4.131122e-002 -9.872213e-002 -2.320507e-002
3.896290e-002 -1.076978e-001 -1.189950e-002
4.143769e-002 -9.823872e-002 -2.199932e-002
4.163884e-002 -9.746990e-002 -2.096396e-002
4.190096e-002 -9.646805e-002 -2.016956e-002
4.220618e-002 -9.530142e-002 -1.967023e-002
4.253372e-002 -9.404952e-002 -1.950000e-002
4.286125e-002 -9.279765e-002 -1.967047e-002
5.359875e-002 -5.175691e-002 -4.200000e-002
4.375604e-002 -8.937760e-002 -2.320598e-002
4.379915e-002 -8.921279e-002 -2.450000e-002
4.362962e-002 -8.986078e-002 -2.200014e-002
4.379915e-002 -8.921279e-002 -5.600000e-002
5.359875e-002 -5.175691e-002 -5.600000e-002
6.242892e-002 -1.800642e-002 -1.189950e-002
6.257880e-002 -1.743356e-002 -4.200000e-002
6.257880e-002 -1.743356e-002 -2.000000e-003
6.242890e-002 -1.800642e-002 -2.000000e-003
4.152116e-002 -9.791973e-002 -5.600000e-002
4.316645e-002 -9.163113e-002 -2.017003e-002
4.342853e-002 -9.062941e-002 -2.096463e-002
-2.397701e-002 -1.027569e-001 -5.600000e-002
3.818828e-002 -1.027569e-001 -5.600000e-002
-2.397701e-002 -1.127569e-001 -3.100000e-002
-2.397701e-002 -1.197569e-001 -3.100000e-002
-2.397701e-002 -5.128633e-002 -8.899495e-003
-2.397701e-002 -1.069032e-001 -8.899495e-003
-2.397701e-002 -5.360876e-002 -4.200000e-002
-2.397701e-002 -5.175691e-002 -4.200000e-002
-2.397701e-002 -5.128633e-002 -4.200000e-002
-2.397701e-002 -5.360876e-002 -5.600000e-002
3.972192e-002 -9.689505e-002 -2.250000e-002
3.703418e-002 -1.071681e-001 -9.899495e-003
3.988282e-002 -9.628008e-002 -2.167157e-002
4.009250e-002 -9.547863e-002 -2.103590e-002
3.962078e-002 -9.728165e-002 -2.346472e-002
3.557198e-002 -1.127569e-001 -3.100000e-002
4.033668e-002 -9.454533e-002 -2.063630e-002
3.958628e-002 -9.741350e-002 -2.450000e-002
4.059872e-002 -9.354375e-002 -2.050000e-002
4.086076e-002 -9.254219e-002 -2.063630e-002
4.110495e-002 -9.160889e-002 -2.103590e-002
3.374056e-002 -1.197569e-001 -3.100000e-002
3.958628e-002 -9.741350e-002 -5.600000e-002
5.153144e-002 -5.175691e-002 -4.200000e-002
4.161117e-002 -8.967401e-002 -2.450000e-002
4.157667e-002 -8.980587e-002 -2.346472e-002
4.147553e-002 -9.019246e-002 -2.250000e-002
4.161117e-002 -8.967401e-002 -5.600000e-002
6.049404e-002 -1.750020e-002 -9.899495e-003
6.049404e-002 -1.750020e-002 -3.000000e-003
6.064390e-002 -1.692742e-002 -3.000000e-003
5.153144e-002 -5.175691e-002 -5.600000e-002
5.678865e-002 -3.166290e-002 -4.200000e-002
6.064390e-002 -1.692742e-002 -4.200000e-002
4.131463e-002 -9.080743e-002 -2.167157e-002
-2.498924e-002 -5.301144e-002 -5.600000e-002
-2.598938e-002 -5.239408e-002 -5.600000e-002
-2.697701e-002 -4.934276e-002 -1.189950e-002
-2.598938e-002 -5.239408e-002 -4.200000e-002
-2.498924e-002 -5.301144e-002 -4.200000e-002
6.439995e-002 -5.934489e-003 -4.200000e-002
6.450000e-002 -2.500000e-003 -4.200000e-002
6.450000e-002 -2.500000e-003 0.000000e+000
6.417679e-002 -8.667179e-003 0.000000e+000
6.410015e-002 -9.357330e-003 -4.200000e-002
6.330288e-002 -1.432483e-002 -4.200000e-002
6.360160e-002 -1.275691e-002 -4.200000e-002
6.296187e-002 -1.588409e-002 -4.200000e-002
6.321071e-002 -1.476679e-002 0.000000e+000
6.252851e-002 -1.762443e-002 -2.000000e-003
6.247760e-002 -1.781513e-002 -2.000000e-003
6.161233e-002 -2.073200e-002 0.000000e+000
6.242604e-002 -1.800567e-002 -2.000000e-003
5.840660e-002 -2.861305e-002 -2.000000e-003
5.939918e-002 -2.649746e-002 0.000000e+000
5.659550e-002 -3.200000e-002 0.000000e+000
5.243151e-002 -3.825519e-002 -2.000000e-003
5.323200e-002 -3.717933e-002 0.000000e+000
4.934554e-002 -4.197871e-002 0.000000e+000
4.472163e-002 -4.657566e-002 -2.000000e-003
4.497871e-002 -4.634554e-002 0.000000e+000
4.017933e-002 -5.023200e-002 0.000000e+000
3.500000e-002 -5.359550e-002 0.000000e+000
3.101527e-002 -5.569747e-002 -2.000000e-003
2.949746e-002 -5.639918e-002 0.000000e+000
2.373200e-002 -5.861234e-002 0.000000e+000
1.776679e-002 -6.021071e-002 0.000000e+000
1.532199e-002 -6.067670e-002 -2.000000e-003
1.166718e-002 -6.117679e-002 0.000000e+000
5.500000e-003 -6.150000e-002 0.000000e+000
-1.136148e-003 -6.112561e-002 -2.000000e-003
-6.671790e-004 -6.117679e-002 0.000000e+000
-6.766790e-003 -6.021071e-002 0.000000e+000
-1.273200e-002 -5.861234e-002 0.000000e+000
-1.707752e-002 -5.700923e-002 -2.000000e-003
-1.849746e-002 -5.639918e-002 0.000000e+000
-2.048622e-002 -5.546901e-002 -2.000000e-003
-3.188020e-002 -4.814779e-002 -4.200000e-002
-3.638535e-002 -4.405259e-002 -4.200000e-002
-2.400000e-002 -5.359550e-002 0.000000e+000
-2.379048e-002 -5.371589e-002 -2.000000e-003
-2.697701e-002 -5.175691e-002 -2.000000e-003
-2.917933e-002 -5.023200e-002 0.000000e+000
-3.397871e-002 -4.634554e-002 0.000000e+000
-4.044449e-002 -3.951491e-002 -4.200000e-002
-3.834554e-002 -4.197871e-002 0.000000e+000
-4.401439e-002 -3.458309e-002 -4.200000e-002
-4.223200e-002 -3.717933e-002 0.000000e+000
-4.705705e-002 -2.930964e-002 -4.200000e-002
-4.559550e-002 -3.200000e-002 0.000000e+000
-4.954005e-002 -2.375070e-002 -4.200000e-002
-4.839918e-002 -2.649746e-002 0.000000e+000
-5.143697e-002 -1.796548e-002 -4.200000e-002
-5.061233e-002 -2.073200e-002 0.000000e+000
-5.272760e-002 -1.201558e-002 -4.200000e-002
-5.221071e-002 -1.476679e-002 0.000000e+000
-5.339820e-002 -5.964351e-003 -4.200000e-002
-5.317679e-002 -8.667179e-003 0.000000e+000
-5.344163e-002 1.237680e-004 -4.200000e-002
-5.350000e-002 -2.500000e-003 0.000000e+000
-5.285743e-002 6.183947e-003 -4.200000e-002
-5.317679e-002 3.667179e-003 0.000000e+000
-5.165181e-002 1.215166e-002 -4.200000e-002
-5.221071e-002 9.766789e-003 0.000000e+000
-4.983761e-002 1.796335e-002 -4.200000e-002
-5.061233e-002 1.573200e-002 0.000000e+000
-4.743416e-002 2.355714e-002 -4.200000e-002
-4.839918e-002 2.149746e-002 0.000000e+000
-4.446704e-002 2.887346e-002 -4.200000e-002
-4.559550e-002 2.700000e-002 0.000000e+000
-4.096786e-002 3.385571e-002 -4.200000e-002
-4.223200e-002 3.217933e-002 0.000000e+000
-3.697387e-002 3.845083e-002 -4.200000e-002
-3.834554e-002 3.697871e-002 0.000000e+000
-3.252760e-002 4.260988e-002 -4.200000e-002
-3.397871e-002 4.134554e-002 0.000000e+000
-2.767640e-002 4.628859e-002 -4.200000e-002
-2.917933e-002 4.523200e-002 0.000000e+000
-2.247192e-002 4.944778e-002 -4.200000e-002
-2.400000e-002 4.859550e-002 0.000000e+000
-1.696958e-002 5.205381e-002 -4.200000e-002
-1.849746e-002 5.139918e-002 0.000000e+000
-1.273200e-002 5.361234e-002 0.000000e+000
-1.122798e-002 5.407892e-002 -4.200000e-002
-6.766790e-003 5.521071e-002 0.000000e+000
-5.308255e-003 5.550157e-002 -4.200000e-002
-6.671790e-004 5.617679e-002 0.000000e+000
7.265621e-004 5.630658e-002 -4.200000e-002
5.500000e-003 5.650000e-002 0.000000e+000
6.812209e-003 5.648540e-002 -4.200000e-002
1.166718e-002 5.617679e-002 0.000000e+000
1.288388e-002 5.603613e-002 -4.200000e-002
1.776679e-002 5.521071e-002 0.000000e+000
1.887693e-002 5.496354e-002 -4.200000e-002
2.373200e-002 5.361234e-002 0.000000e+000
2.472753e-002 5.327905e-002 -4.200000e-002
3.037340e-002 5.100060e-002 -4.200000e-002
2.949746e-002 5.139918e-002 0.000000e+000
3.575439e-002 4.815246e-002 -4.200000e-002
3.500000e-002 4.859550e-002 0.000000e+000
4.081324e-002 4.476495e-002 -4.200000e-002
4.017933e-002 4.523200e-002 0.000000e+000
4.549604e-002 4.087415e-002 -4.200000e-002
4.497871e-002 4.134554e-002 0.000000e+000
4.975296e-002 3.652147e-002 -4.200000e-002
4.934554e-002 3.697871e-002 0.000000e+000
5.353865e-002 3.175329e-002 -4.200000e-002
5.323200e-002 3.217933e-002 0.000000e+000
5.681281e-002 2.662036e-002 -4.200000e-002
5.659550e-002 2.700000e-002 0.000000e+000
5.954057e-002 2.117735e-002 -4.200000e-002
5.939918e-002 2.149746e-002 0.000000e+000
6.169289e-002 1.548220e-002 -4.200000e-002
6.161233e-002 1.573200e-002 0.000000e+000
6.324683e-002 9.595584e-003 -4.200000e-002
6.321071e-002 9.766789e-003 0.000000e+000
6.417679e-002 3.667179e-003 0.000000e+000
6.418587e-002 3.580164e-003 -4.200000e-002
4.416884e-002 -9.965227e-002 -5.600000e-002
4.442346e-002 -9.867906e-002 -5.600000e-002
4.417036e-002 -9.964650e-002 -2.449905e-002
5.285178e-002 -1.550075e-002 -2.000000e-003
5.381921e-002 -1.575386e-002 -3.000000e-003
4.665835e-002 -9.013693e-002 -2.320598e-002
4.670146e-002 -8.997213e-002 -2.450000e-002
4.653193e-002 -9.062011e-002 -2.200014e-002
4.633084e-002 -9.138875e-002 -2.096463e-002
4.606876e-002 -9.239046e-002 -2.017003e-002
4.576356e-002 -9.355699e-002 -1.967047e-002
4.543603e-002 -9.480885e-002 -1.950000e-002
4.510850e-002 -9.606075e-002 -1.967023e-002
4.480327e-002 -9.722738e-002 -2.016956e-002
4.454115e-002 -9.822923e-002 -2.096396e-002
4.434001e-002 -9.899805e-002 -2.199932e-002
4.421354e-002 -9.948146e-002 -2.320507e-002
4.670146e-002 -8.997213e-002 -5.600000e-002
4.354604e-002 -9.018023e-002 -5.600000e-002
5.912961e-002 -2.709399e-002 -4.200000e-002
6.106455e-002 -2.233887e-002 -4.200000e-002
-2.697701e-002 -4.934276e-002 -4.200000e-002
-2.599063e-002 -5.001147e-002 -4.200000e-002
-2.499048e-002 -5.065943e-002 -4.200000e-002
6.245949e-002 -3.514040e-004 -3.000000e-003
6.235538e-002 1.557840e-003 -4.200000e-002
6.247567e-002 -8.346900e-004 -4.200000e-002
6.243923e-002 -5.131444e-003 -3.000000e-003
6.249949e-002 -2.741637e-003 -3.000000e-003
6.249532e-002 -3.230161e-003 -4.200000e-002
-2.697701e-002 -4.934276e-002 -3.000000e-003
-2.891259e-002 -4.793978e-002 -3.000000e-003
6.227881e-002 -7.516623e-003 -3.000000e-003
6.241431e-002 -5.624342e-003 -4.200000e-002
6.201853e-002 -9.892979e-003 -3.000000e-003
6.223277e-002 -8.013004e-003 -4.200000e-002
6.165883e-002 -1.225633e-002 -3.000000e-003
6.195102e-002 -1.039193e-002 -4.200000e-002
6.120035e-002 -1.460252e-002 -3.000000e-003
6.156956e-002 -1.275691e-002 -4.200000e-002
-3.078764e-002 -4.645688e-002 -3.000000e-003
-2.891657e-002 -4.793677e-002 -4.200000e-002
6.129578e-002 -1.415465e-002 -4.200000e-002
6.098716e-002 -1.554511e-002 -4.200000e-002
-3.259886e-002 -4.489665e-002 -3.000000e-003
-3.079533e-002 -4.645053e-002 -4.200000e-002
-3.434308e-002 -4.326186e-002 -3.000000e-003
-3.260998e-002 -4.488666e-002 -4.200000e-002
-3.601720e-002 -4.155537e-002 -3.000000e-003
-3.435733e-002 -4.324792e-002 -4.200000e-002
-3.761830e-002 -3.978018e-002 -3.000000e-003
-3.603427e-002 -4.153721e-002 -4.200000e-002
-3.914356e-002 -3.793942e-002 -3.000000e-003
-3.763786e-002 -3.975755e-002 -4.200000e-002
-4.059029e-002 -3.603633e-002 -3.000000e-003
-3.916524e-002 -3.791209e-002 -4.200000e-002
-4.195595e-002 -3.407424e-002 -3.000000e-003
-4.061374e-002 -3.600407e-002 -4.200000e-002
-4.323814e-002 -3.205662e-002 -3.000000e-003
-4.198079e-002 -3.403688e-002 -4.200000e-002
-4.443460e-002 -2.998701e-002 -3.000000e-003
-4.326397e-002 -3.201398e-002 -4.200000e-002
-4.554323e-002 -2.786905e-002 -3.000000e-003
-4.446102e-002 -2.993895e-002 -4.200000e-002
-4.656208e-002 -2.570646e-002 -3.000000e-003
-4.556983e-002 -2.781546e-002 -4.200000e-002
-4.748935e-002 -2.350306e-002 -3.000000e-003
-4.658843e-002 -2.564726e-002 -4.200000e-002
-4.832342e-002 -2.126272e-002 -3.000000e-003
-4.751503e-002 -2.343816e-002 -4.200000e-002
-4.906281e-002 -1.898937e-002 -3.000000e-003
-4.834799e-002 -2.119209e-002 -4.200000e-002
-4.970624e-002 -1.668702e-002 -3.000000e-003
-4.908583e-002 -1.891300e-002 -4.200000e-002
-5.025255e-002 -1.435971e-002 -3.000000e-003
-4.972727e-002 -1.660492e-002 -4.200000e-002
-5.027115e-002 -1.427193e-002 -4.200000e-002
-5.070081e-002 -1.201155e-002 -3.000000e-003
-5.071653e-002 -1.191815e-002 -4.200000e-002
-5.105020e-002 -9.646651e-003 -3.000000e-003
-5.106262e-002 -9.547724e-003 -4.200000e-002
-5.130013e-002 -7.269185e-003 -3.000000e-003
-5.130880e-002 -7.164856e-003 -4.200000e-002
-5.145015e-002 -4.883329e-003 -3.000000e-003
-5.145463e-002 -4.773748e-003 -4.200000e-002
-5.150000e-002 -2.493282e-003 -3.000000e-003
-5.149987e-002 -2.378623e-003 -4.200000e-002
-5.144959e-002 -1.032460e-004 -3.000000e-003
-5.144443e-002 1.628600e-005 -4.200000e-002
-5.129900e-002 2.282574e-003 -3.000000e-003
-5.128841e-002 2.406752e-003 -4.200000e-002
-5.104851e-002 4.659982e-003 -3.000000e-003
-5.069856e-002 7.024796e-003 -3.000000e-003
-5.103209e-002 4.788550e-003 -4.200000e-002
-5.024976e-002 9.372856e-003 -3.000000e-003
-5.067591e-002 7.157475e-003 -4.200000e-002
-4.970289e-002 1.170003e-002 -3.000000e-003
-5.022051e-002 9.509342e-003 -4.200000e-002
-4.905893e-002 1.400223e-002 -3.000000e-003
-4.966670e-002 1.184000e-002 -4.200000e-002
-4.831900e-002 1.627540e-002 -3.000000e-003
-4.901544e-002 1.414532e-002 -4.200000e-002
-4.748440e-002 1.851555e-002 -3.000000e-003
-4.826789e-002 1.642125e-002 -4.200000e-002
-4.655661e-002 2.071873e-002 -3.000000e-003
-4.742538e-002 1.866375e-002 -4.200000e-002
-4.553725e-002 2.288108e-002 -3.000000e-003
-4.648938e-002 2.086888e-002 -4.200000e-002
-4.442812e-002 2.499877e-002 -3.000000e-003
-4.546155e-002 2.303273e-002 -4.200000e-002
-4.323117e-002 2.706811e-002 -3.000000e-003
-4.434371e-002 2.515148e-002 -4.200000e-002
-4.194850e-002 2.908543e-002 -3.000000e-003
-4.313784e-002 2.722139e-002 -4.200000e-002
-4.058238e-002 3.104719e-002 -3.000000e-003
-4.184605e-002 2.923880e-002 -4.200000e-002
-3.913520e-002 3.294995e-002 -3.000000e-003
-4.047064e-002 3.120016e-002 -4.200000e-002
-3.760951e-002 3.479035e-002 -3.000000e-003
-3.901403e-002 3.310199e-002 -4.200000e-002
-3.600799e-002 3.656516e-002 -3.000000e-003
-3.747879e-002 3.494093e-002 -4.200000e-002
-3.433346e-002 3.827126e-002 -3.000000e-003
-3.586765e-002 3.671375e-002 -4.200000e-002
-3.258887e-002 3.990564e-002 -3.000000e-003
-3.418343e-002 3.841730e-002 -4.200000e-002
-3.077728e-002 4.146543e-002 -3.000000e-003
-3.242912e-002 4.004858e-002 -4.200000e-002
-3.060783e-002 4.160471e-002 -4.200000e-002
-2.890188e-002 4.294789e-002 -3.000000e-003
-2.872275e-002 4.308293e-002 -4.200000e-002
-2.696597e-002 4.435041e-002 -3.000000e-003
-2.677722e-002 4.448064e-002 -4.200000e-002
-2.497295e-002 4.567052e-002 -3.000000e-003
-2.477469e-002 4.579538e-002 -4.200000e-002
-2.292633e-002 4.690591e-002 -3.000000e-003
-2.271868e-002 4.702480e-002 -4.200000e-002
-2.082972e-002 4.805439e-002 -3.000000e-003
-2.061283e-002 4.816676e-002 -4.200000e-002
-1.868679e-002 4.911394e-002 -3.000000e-003
-1.846085e-002 4.921922e-002 -4.200000e-002
-1.650131e-002 5.008272e-002 -3.000000e-003
-1.626656e-002 5.018033e-002 -4.200000e-002
-1.427714e-002 5.095900e-002 -3.000000e-003
-1.403382e-002 5.104839e-002 -4.200000e-002
-1.201818e-002 5.174125e-002 -3.000000e-003
-1.176657e-002 5.182187e-002 -4.200000e-002
-9.728410e-003 5.242809e-002 -3.000000e-003
-9.468829e-003 5.249940e-002 -4.200000e-002
-7.411852e-003 5.301832e-002 -3.000000e-003
-7.144649e-003 5.307979e-002 -4.200000e-002
-5.072582e-003 5.351089e-002 -3.000000e-003
-4.798133e-003 5.356200e-002 -4.200000e-002
-2.714716e-003 5.390495e-002 -3.000000e-003
-2.433429e-003 5.394520e-002 -4.200000e-002
-3.424000e-004 5.419979e-002 -3.000000e-003
-5.471100e-005 5.422870e-002 -4.200000e-002
2.040192e-003 5.439490e-002 -3.000000e-003
2.333817e-003 5.441200e-002 -4.200000e-002
4.428870e-003 5.448993e-002 -3.000000e-003
6.819431e-003 5.448472e-002 -3.000000e-003
4.727938e-003 5.449477e-002 -4.200000e-002
9.207672e-003 5.437929e-002 -3.000000e-003
7.123423e-003 5.447688e-002 -4.200000e-002
1.158939e-002 5.417380e-002 -3.000000e-003
9.516040e-003 5.435834e-002 -4.200000e-002
1.396040e-002 5.386862e-002 -3.000000e-003
1.190156e-002 5.413939e-002 -4.200000e-002
1.631653e-002 5.346430e-002 -3.000000e-003
1.427578e-002 5.382039e-002 -4.200000e-002
1.865363e-002 5.296154e-002 -3.000000e-003
1.663450e-002 5.340191e-002 -4.200000e-002
2.096759e-002 5.236122e-002 -3.000000e-003
1.897355e-002 5.288469e-002 -4.200000e-002
2.325435e-002 5.166440e-002 -3.000000e-003
2.128880e-002 5.226964e-002 -4.200000e-002
2.357616e-002 5.155786e-002 -4.200000e-002
2.550988e-002 5.087232e-002 -3.000000e-003
2.583160e-002 5.075060e-002 -4.200000e-002
2.773021e-002 4.998636e-002 -3.000000e-003
2.805112e-002 4.984928e-002 -4.200000e-002
2.991145e-002 4.900807e-002 -3.000000e-003
3.023081e-002 4.885549e-002 -4.200000e-002
3.204974e-002 4.793919e-002 -3.000000e-003
3.236682e-002 4.777100e-002 -4.200000e-002
3.414133e-002 4.678158e-002 -3.000000e-003
3.445539e-002 4.659772e-002 -4.200000e-002
3.618255e-002 4.553729e-002 -3.000000e-003
3.649279e-002 4.533771e-002 -4.200000e-002
3.816979e-002 4.420851e-002 -3.000000e-003
3.847547e-002 4.399321e-002 -4.200000e-002
4.009958e-002 4.279757e-002 -3.000000e-003
4.039989e-002 4.256659e-002 -4.200000e-002
4.196850e-002 4.130695e-002 -3.000000e-003
4.226268e-002 4.106037e-002 -4.200000e-002
4.377327e-002 3.973928e-002 -3.000000e-003
4.406053e-002 3.947720e-002 -4.200000e-002
4.551073e-002 3.809731e-002 -3.000000e-003
4.579027e-002 3.781990e-002 -4.200000e-002
4.717781e-002 3.638393e-002 -3.000000e-003
4.744884e-002 3.609138e-002 -4.200000e-002
4.877158e-002 3.460216e-002 -3.000000e-003
4.903333e-002 3.429469e-002 -4.200000e-002
5.028924e-002 3.275513e-002 -3.000000e-003
5.054092e-002 3.243301e-002 -4.200000e-002
5.172811e-002 3.084609e-002 -3.000000e-003
5.196895e-002 3.050964e-002 -4.200000e-002
5.308568e-002 2.887839e-002 -3.000000e-003
5.331491e-002 2.852796e-002 -4.200000e-002
5.435954e-002 2.685550e-002 -3.000000e-003
5.457642e-002 2.649147e-002 -4.200000e-002
5.554746e-002 2.478097e-002 -3.000000e-003
5.575123e-002 2.440378e-002 -4.200000e-002
5.664735e-002 2.265846e-002 -3.000000e-003
5.683730e-002 2.226856e-002 -4.200000e-002
5.765728e-002 2.049170e-002 -3.000000e-003
5.783268e-002 2.008960e-002 -4.200000e-002
5.857546e-002 1.828449e-002 -3.000000e-003
5.873564e-002 1.787074e-002 -4.200000e-002
5.940029e-002 1.604073e-002 -3.000000e-003
5.954456e-002 1.561590e-002 -4.200000e-002
6.013031e-002 1.376436e-002 -3.000000e-003
6.025802e-002 1.332906e-002 -4.200000e-002
6.076424e-002 1.145937e-002 -3.000000e-003
6.130096e-002 9.129836e-003 -3.000000e-003
6.087477e-002 1.101426e-002 -4.200000e-002
6.173953e-002 6.779842e-003 -3.000000e-003
6.139370e-002 8.675591e-003 -4.200000e-002
6.207918e-002 4.413527e-003 -3.000000e-003
6.181392e-002 6.317183e-003 -4.200000e-002
6.231930e-002 2.035050e-003 -3.000000e-003
6.213466e-002 3.943202e-003 -4.200000e-002
4.152116e-002 -9.791973e-002 -2.450000e-002
4.354604e-002 -9.018023e-002 -2.450000e-002
4.351155e-002 -9.031209e-002 -2.346472e-002
4.341040e-002 -9.069867e-002 -2.250000e-002
4.324950e-002 -9.131365e-002 -2.167157e-002
4.303982e-002 -9.211510e-002 -2.103590e-002
4.279564e-002 -9.304842e-002 -2.063630e-002
4.253360e-002 -9.404998e-002 -2.050000e-002
4.227156e-002 -9.505154e-002 -2.063630e-002
4.202738e-002 -9.598485e-002 -2.103590e-002
4.181769e-002 -9.678631e-002 -2.167157e-002
4.165680e-002 -9.740128e-002 -2.250000e-002
4.155565e-002 -9.778787e-002 -2.346472e-002
2.721419e-002 2.862931e-002 -3.000000e-003
3.019140e-002 2.992523e-002 -3.000000e-003
2.862931e-002 2.721419e-002 -3.000000e-003
-4.496793e-002 1.176811e-002 -3.000000e-003
-2.862931e-002 -2.721419e-002 -3.000000e-003
-2.721419e-002 -2.862931e-002 -3.000000e-003
-4.460173e-002 1.269302e-002 -3.000000e-003
-4.484325e-002 1.225370e-002 -3.000000e-003
2.948202e-002 3.121559e-002 -3.000000e-003
2.960670e-002 3.073000e-002 -3.000000e-003
-7.951292e-003 3.869143e-002 -3.000000e-003
-9.900775e-003 3.823905e-002 -3.000000e-003
3.292419e-002 3.283535e-002 -3.000000e-003
3.253791e-002 3.315491e-002 -3.000000e-003
-4.383526e-002 1.332710e-002 -3.000000e-003
-4.425855e-002 1.305847e-002 -3.000000e-003
-1.182484e-002 3.768850e-002 -3.000000e-003
2.572921e-002 2.997095e-002 -3.000000e-003
2.960670e-002 3.220250e-002 -3.000000e-003
2.948202e-002 3.171692e-002 -3.000000e-003
-4.285812e-002 1.351350e-002 -3.000000e-003
-4.335846e-002 1.348202e-002 -3.000000e-003
-1.371856e-002 3.704121e-002 -3.000000e-003
-2.997095e-002 -2.572921e-002 -3.000000e-003
3.208429e-002 3.336837e-002 -3.000000e-003
1.258910e-002 -4.467236e-002 -3.000000e-003
1.297538e-002 -4.435280e-002 -3.000000e-003
3.038058e-002 -1.053406e-001 -3.000000e-003
-3.546328e-002 1.739557e-002 -3.000000e-003
-4.236567e-002 1.341956e-002 -3.000000e-003
1.327006e-002 -4.394721e-002 -3.000000e-003
2.417819e-002 3.123564e-002 -3.000000e-003
2.984822e-002 3.264182e-002 -3.000000e-003
1.213548e-002 -4.488581e-002 -3.000000e-003
-3.123564e-002 -2.417819e-002 -3.000000e-003
3.159183e-002 3.346231e-002 -3.000000e-003
1.164303e-002 -4.497975e-002 -3.000000e-003
1.114269e-002 -4.494827e-002 -3.000000e-003
-1.807752e-002 -1.053406e-001 -3.000000e-003
-3.453669e-002 1.916943e-002 -3.000000e-003
2.256509e-002 3.242015e-002 -3.000000e-003
-1.557706e-002 3.629883e-002 -3.000000e-003
3.019140e-002 3.300728e-002 -3.000000e-003
-3.242015e-002 -2.256509e-002 -3.000000e-003
2.089408e-002 3.352145e-002 -3.000000e-003
3.061469e-002 3.327591e-002 -3.000000e-003
-3.352145e-002 2.089408e-002 -3.000000e-003
3.109149e-002 3.343083e-002 -3.000000e-003
-1.739557e-002 3.546328e-002 -3.000000e-003
-3.242015e-002 2.256509e-002 -3.000000e-003
1.066589e-002 -4.479335e-002 -3.000000e-003
-1.916943e-002 3.453669e-002 -3.000000e-003
2.417819e-002 -3.123564e-002 -3.000000e-003
2.572921e-002 -2.997095e-002 -3.000000e-003
-3.352145e-002 -2.089408e-002 -3.000000e-003
3.123564e-002 -2.417819e-002 -3.000000e-003
2.997095e-002 -2.572921e-002 -3.000000e-003
-2.089408e-002 3.352145e-002 -3.000000e-003
2.256509e-002 -3.242015e-002 -3.000000e-003
1.345461e-002 -4.348108e-002 -3.000000e-003
-3.123564e-002 2.417819e-002 -3.000000e-003
3.242015e-002 -2.256509e-002 -3.000000e-003
-2.256509e-002 3.242015e-002 -3.000000e-003
-3.453669e-002 -1.916943e-002 -3.000000e-003
1.916943e-002 3.453669e-002 -3.000000e-003
-2.997095e-002 2.572921e-002 -3.000000e-003
-2.417819e-002 3.123564e-002 -3.000000e-003
2.089408e-002 -3.352145e-002 -3.000000e-003
-2.862931e-002 2.721419e-002 -3.000000e-003
-3.546328e-002 -1.739557e-002 -3.000000e-003
-2.572921e-002 2.997095e-002 -3.000000e-003
1.739557e-002 3.546328e-002 -3.000000e-003
3.352145e-002 -2.089408e-002 -3.000000e-003
-2.721419e-002 2.862931e-002 -3.000000e-003
2.862931e-002 -2.721419e-002 -3.000000e-003
2.721419e-002 -2.862931e-002 -3.000000e-003
1.916943e-002 -3.453669e-002 -3.000000e-003
1.351745e-002 -4.298370e-002 -3.000000e-003
-1.807752e-002 -4.275692e-002 -3.000000e-003
1.024260e-002 -4.452473e-002 -3.000000e-003
-3.629883e-002 -1.557706e-002 -3.000000e-003
3.453669e-002 -1.916943e-002 -3.000000e-003
1.557706e-002 3.629883e-002 -3.000000e-003
1.739557e-002 -3.546328e-002 -3.000000e-003
1.345461e-002 -4.248632e-002 -3.000000e-003
-3.704121e-002 -1.371856e-002 -3.000000e-003
3.546328e-002 -1.739557e-002 -3.000000e-003
1.371856e-002 3.704121e-002 -3.000000e-003
-3.768850e-002 -1.182484e-002 -3.000000e-003
1.557706e-002 -3.629883e-002 -3.000000e-003
1.327006e-002 -4.202019e-002 -3.000000e-003
1.297538e-002 -4.161460e-002 -3.000000e-003
3.629883e-002 -1.557706e-002 -3.000000e-003
-3.823905e-002 -9.900775e-003 -3.000000e-003
1.182484e-002 3.768850e-002 -3.000000e-003
1.371856e-002 -3.704121e-002 -3.000000e-003
1.258910e-002 -4.129504e-002 -3.000000e-003
-3.869143e-002 -7.951292e-003 -3.000000e-003
3.704121e-002 -1.371856e-002 -3.000000e-003
1.182484e-002 -3.768850e-002 -3.000000e-003
1.213548e-002 -4.108158e-002 -3.000000e-003
1.164303e-002 -4.098764e-002 -3.000000e-003
9.900775e-003 3.823905e-002 -3.000000e-003
1.114269e-002 -4.101912e-002 -3.000000e-003
3.768850e-002 -1.182484e-002 -3.000000e-003
-3.904450e-002 -5.981397e-003 -3.000000e-003
9.900775e-003 -3.823905e-002 -3.000000e-003
1.066589e-002 -4.117405e-002 -3.000000e-003
1.024260e-002 -4.144267e-002 -3.000000e-003
7.951292e-003 3.869143e-002 -3.000000e-003
3.823905e-002 -9.900775e-003 -3.000000e-003
7.951292e-003 -3.869143e-002 -3.000000e-003
9.899413e-003 -4.180813e-002 -3.000000e-003
9.657894e-003 -4.224745e-002 -3.000000e-003
-3.929733e-002 -3.996149e-003 -3.000000e-003
3.869143e-002 -7.951292e-003 -3.000000e-003
5.981397e-003 3.904450e-002 -3.000000e-003
5.981397e-003 -3.904450e-002 -3.000000e-003
9.533218e-003 -4.273303e-002 -3.000000e-003
9.533218e-003 -4.323437e-002 -3.000000e-003
3.904450e-002 -5.981397e-003 -3.000000e-003
3.996149e-003 3.929733e-002 -3.000000e-003
3.996149e-003 -3.929733e-002 -3.000000e-003
9.657894e-003 -4.371995e-002 -3.000000e-003
3.929733e-002 -3.996149e-003 -3.000000e-003
-3.944930e-002 -2.000642e-003 -3.000000e-003
2.000642e-003 -3.944930e-002 -3.000000e-003
9.899413e-003 -4.415927e-002 -3.000000e-003
3.944930e-002 -2.000642e-003 -3.000000e-003
2.000642e-003 3.944930e-002 -3.000000e-003
0.000000e+000 -3.950000e-002 -3.000000e-003
3.950000e-002 0.000000e+000 -3.000000e-003
-3.950000e-002 0.000000e+000 -3.000000e-003
-2.000642e-003 -3.944930e-002 -3.000000e-003
-4.152576e-002 1.014835e-002 -3.000000e-003
-3.823905e-002 9.900775e-003 -3.000000e-003
-3.869143e-002 7.951292e-003 -3.000000e-003
3.944930e-002 2.000642e-003 -3.000000e-003
-4.191205e-002 9.828792e-003 -3.000000e-003
-4.123109e-002 1.055394e-002 -3.000000e-003
-3.996149e-003 -3.929733e-002 -3.000000e-003
-4.236567e-002 9.615336e-003 -3.000000e-003
-3.904450e-002 5.981397e-003 -3.000000e-003
3.929733e-002 3.996149e-003 -3.000000e-003
-4.104653e-002 1.102007e-002 -3.000000e-003
3.904450e-002 5.981397e-003 -3.000000e-003
-4.285812e-002 9.521394e-003 -3.000000e-003
-3.929733e-002 3.996149e-003 -3.000000e-003
-4.098370e-002 1.151745e-002 -3.000000e-003
-3.768850e-002 1.182484e-002 -3.000000e-003
3.869143e-002 7.951292e-003 -3.000000e-003
-4.335846e-002 9.552873e-003 -3.000000e-003
3.823905e-002 9.900775e-003 -3.000000e-003
-4.104653e-002 1.201483e-002 -3.000000e-003
3.768850e-002 1.182484e-002 -3.000000e-003
-3.944930e-002 2.000642e-003 -3.000000e-003
-5.981397e-003 -3.904450e-002 -3.000000e-003
-1.182484e-002 -3.768850e-002 -3.000000e-003
-9.900775e-003 -3.823905e-002 -3.000000e-003
-7.951292e-003 -3.869143e-002 -3.000000e-003
-1.371856e-002 -3.704121e-002 -3.000000e-003
-4.123109e-002 1.248096e-002 -3.000000e-003
-3.704121e-002 1.371856e-002 -3.000000e-003
3.704121e-002 1.371856e-002 -3.000000e-003
-4.152576e-002 1.288654e-002 -3.000000e-003
-1.557706e-002 -3.629883e-002 -3.000000e-003
3.629883e-002 1.557706e-002 -3.000000e-003
0.000000e+000 3.950000e-002 -3.000000e-003
-1.739557e-002 -3.546328e-002 -3.000000e-003
3.546328e-002 1.739557e-002 -3.000000e-003
-2.697701e-002 -4.275692e-002 -3.000000e-003
-4.191205e-002 1.320610e-002 -3.000000e-003
-3.629883e-002 1.557706e-002 -3.000000e-003
-1.916943e-002 -3.453669e-002 -3.000000e-003
3.453669e-002 1.916943e-002 -3.000000e-003
3.352145e-002 2.089408e-002 -3.000000e-003
-2.089408e-002 -3.352145e-002 -3.000000e-003
-4.383526e-002 9.707794e-003 -3.000000e-003
-2.256509e-002 -3.242015e-002 -3.000000e-003
-2.417819e-002 -3.123564e-002 -3.000000e-003
-2.000642e-003 3.944930e-002 -3.000000e-003
-2.572921e-002 -2.997095e-002 -3.000000e-003
3.253791e-002 2.977760e-002 -3.000000e-003
3.242015e-002 2.256509e-002 -3.000000e-003
3.123564e-002 2.417819e-002 -3.000000e-003
3.292419e-002 3.009716e-002 -3.000000e-003
3.321886e-002 3.050274e-002 -3.000000e-003
3.208429e-002 2.956414e-002 -3.000000e-003
2.997095e-002 2.572921e-002 -3.000000e-003
3.340342e-002 3.096887e-002 -3.000000e-003
3.159183e-002 2.947020e-002 -3.000000e-003
-4.425855e-002 9.976421e-003 -3.000000e-003
3.346625e-002 3.146625e-002 -3.000000e-003
-3.996149e-003 3.929733e-002 -3.000000e-003
3.109149e-002 2.950168e-002 -3.000000e-003
3.340342e-002 3.196363e-002 -3.000000e-003
-4.484325e-002 1.078120e-002 -3.000000e-003
-4.460173e-002 1.034188e-002 -3.000000e-003
-5.981397e-003 3.904450e-002 -3.000000e-003
3.061469e-002 2.965660e-002 -3.000000e-003
3.321886e-002 3.242976e-002 -3.000000e-003
-4.496793e-002 1.126678e-002 -3.000000e-003
2.984822e-002 3.029068e-002 -3.000000e-003
-2.697701e-002 -4.275692e-002 -2.000000e-003
-1.707752e-002 -4.275692e-002 -2.000000e-003
2.941622e-002 -1.050758e-001 -2.000000e-003
-1.707752e-002 -1.050758e-001 -2.000000e-003
4.950000e-002 0.000000e+000 0.000000e+000
4.944870e-002 2.252973e-003 0.000000e+000
4.929492e-002 4.501276e-003 0.000000e+000
-3.539792e-002 -3.460111e-002 0.000000e+000
-3.378638e-002 -3.617638e-002 0.000000e+000
7.854786e-003 4.887282e-002 0.000000e+000
1.007107e-002 4.846466e-002 0.000000e+000
1.226649e-002 4.795605e-002 0.000000e+000
-3.693609e-002 -3.295413e-002 0.000000e+000
-3.210481e-002 -3.767666e-002 0.000000e+000
-3.839771e-002 -3.123885e-002 0.000000e+000
-3.035671e-002 -3.909886e-002 0.000000e+000
-3.977975e-002 -2.945882e-002 0.000000e+000
-2.854568e-002 -4.044001e-002 0.000000e+000
-4.107932e-002 -2.761774e-002 0.000000e+000
-2.667548e-002 -4.169735e-002 0.000000e+000
4.903895e-002 6.740249e-003 0.000000e+000
4.868136e-002 8.965252e-003 0.000000e+000
-4.229376e-002 -2.571941e-002 0.000000e+000
-2.475000e-002 -4.286826e-002 0.000000e+000
-4.342054e-002 -2.376777e-002 0.000000e+000
1.657654e-002 4.664192e-002 0.000000e+000
1.868225e-002 4.583910e-002 0.000000e+000
1.443647e-002 4.734805e-002 0.000000e+000
4.822285e-002 1.117167e-002 0.000000e+000
4.766441e-002 1.335494e-002 0.000000e+000
-2.277322e-002 -4.395032e-002 0.000000e+000
-4.445732e-002 -2.176687e-002 0.000000e+000
-2.074924e-002 -4.494128e-002 0.000000e+000
2.074924e-002 4.494128e-002 0.000000e+000
2.277322e-002 4.395032e-002 0.000000e+000
4.700717e-002 1.551053e-002 0.000000e+000
4.625250e-002 1.763397e-002 0.000000e+000
-4.540196e-002 -1.972085e-002 0.000000e+000
4.540196e-002 1.972085e-002 0.000000e+000
-1.868225e-002 -4.583910e-002 0.000000e+000
-4.625250e-002 -1.763397e-002 0.000000e+000
-1.657654e-002 -4.664192e-002 0.000000e+000
2.475000e-002 4.286826e-002 0.000000e+000
2.667548e-002 4.169735e-002 0.000000e+000
-4.700717e-002 -1.551053e-002 0.000000e+000
4.445732e-002 2.176687e-002 0.000000e+000
4.342054e-002 2.376777e-002 0.000000e+000
3.035671e-002 3.909886e-002 0.000000e+000
3.210481e-002 3.767666e-002 0.000000e+000
-1.443647e-002 -4.734805e-002 0.000000e+000
2.854568e-002 4.044001e-002 0.000000e+000
4.229376e-002 2.571941e-002 0.000000e+000
4.107932e-002 2.761774e-002 0.000000e+000
-4.766441e-002 -1.335494e-002 0.000000e+000
-1.226649e-002 -4.795605e-002 0.000000e+000
3.378638e-002 3.617638e-002 0.000000e+000
3.539792e-002 3.460111e-002 0.000000e+000
3.977975e-002 2.945882e-002 0.000000e+000
-4.822285e-002 -1.117167e-002 0.000000e+000
3.839771e-002 3.123885e-002 0.000000e+000
3.693609e-002 3.295413e-002 0.000000e+000
-1.007107e-002 -4.846466e-002 0.000000e+000
-4.868136e-002 -8.965252e-003 0.000000e+000
-7.854786e-003 -4.887282e-002 0.000000e+000
-4.903895e-002 -6.740249e-003 0.000000e+000
-5.622219e-003 -4.917968e-002 0.000000e+000
-4.929492e-002 -4.501276e-003 0.000000e+000
-3.378000e-003 -4.938461e-002 0.000000e+000
-4.944870e-002 -2.252973e-003 0.000000e+000
-1.126778e-003 -4.948717e-002 0.000000e+000
-4.950000e-002 0.000000e+000 0.000000e+000
1.126778e-003 -4.948717e-002 0.000000e+000
-4.944870e-002 2.252973e-003 0.000000e+000
3.378000e-003 -4.938461e-002 0.000000e+000
-4.929492e-002 4.501276e-003 0.000000e+000
5.622219e-003 -4.917968e-002 0.000000e+000
-4.903895e-002 6.740249e-003 0.000000e+000
7.854786e-003 -4.887282e-002 0.000000e+000
-4.868136e-002 8.965252e-003 0.000000e+000
1.007107e-002 -4.846466e-002 0.000000e+000
-4.822285e-002 1.117167e-002 0.000000e+000
1.226649e-002 -4.795605e-002 0.000000e+000
-4.766441e-002 1.335494e-002 0.000000e+000
1.443647e-002 -4.734805e-002 0.000000e+000
-4.700717e-002 1.551053e-002 0.000000e+000
1.657654e-002 -4.664192e-002 0.000000e+000
-4.625250e-002 1.763397e-002 0.000000e+000
1.868225e-002 -4.583910e-002 0.000000e+000
-4.540196e-002 1.972085e-002 0.000000e+000
2.074924e-002 -4.494128e-002 0.000000e+000
-4.445732e-002 2.176687e-002 0.000000e+000
2.277322e-002 -4.395032e-002 0.000000e+000
-4.342054e-002 2.376777e-002 0.000000e+000
2.475000e-002 -4.286826e-002 0.000000e+000
-4.229376e-002 2.571941e-002 0.000000e+000
2.667548e-002 -4.169735e-002 0.000000e+000
-4.107932e-002 2.761774e-002 0.000000e+000
2.854568e-002 -4.044001e-002 0.000000e+000
-3.977975e-002 2.945882e-002 0.000000e+000
3.035671e-002 -3.909886e-002 0.000000e+000
-3.839771e-002 3.123885e-002 0.000000e+000
3.210481e-002 -3.767666e-002 0.000000e+000
-3.693609e-002 3.295413e-002 0.000000e+000
3.378638e-002 -3.617638e-002 0.000000e+000
-3.539792e-002 3.460111e-002 0.000000e+000
3.539792e-002 -3.460111e-002 0.000000e+000
-3.378638e-002 3.617638e-002 0.000000e+000
3.693609e-002 -3.295413e-002 0.000000e+000
3.839771e-002 -3.123885e-002 0.000000e+000
-3.210481e-002 3.767666e-002 0.000000e+000
-3.035671e-002 3.909886e-002 0.000000e+000
3.977975e-002 -2.945882e-002 0.000000e+000
-2.854568e-002 4.044001e-002 0.000000e+000
4.107932e-002 -2.761774e-002 0.000000e+000
-2.667548e-002 4.169735e-002 0.000000e+000
4.229376e-002 -2.571941e-002 0.000000e+000
-2.475000e-002 4.286826e-002 0.000000e+000
4.342054e-002 -2.376777e-002 0.000000e+000
4.445732e-002 -2.176687e-002 0.000000e+000
-2.277322e-002 4.395032e-002 0.000000e+000
-2.074924e-002 4.494128e-002 0.000000e+000
-1.868225e-002 4.583910e-002 0.000000e+000
4.540196e-002 -1.972085e-002 0.000000e+000
4.625250e-002 -1.763397e-002 0.000000e+000
-1.657654e-002 4.664192e-002 0.000000e+000
-1.443647e-002 4.734805e-002 0.000000e+000
4.700717e-002 -1.551053e-002 0.000000e+000
4.766441e-002 -1.335494e-002 0.000000e+000
-1.226649e-002 4.795605e-002 0.000000e+000
-1.007107e-002 4.846466e-002 0.000000e+000
-7.854786e-003 4.887282e-002 0.000000e+000
4.822285e-002 -1.117167e-002 0.000000e+000
4.868136e-002 -8.965252e-003 0.000000e+000
-5.622219e-003 4.917968e-002 0.000000e+000
-3.378000e-003 4.938461e-002 0.000000e+000
4.903895e-002 -6.740249e-003 0.000000e+000
4.929492e-002 -4.501276e-003 0.000000e+000
1.126778e-003 4.948717e-002 0.000000e+000
3.378000e-003 4.938461e-002 0.000000e+000
-1.126778e-003 4.948717e-002 0.000000e+000
4.944870e-002 -2.252973e-003 0.000000e+000
5.622219e-003 4.917968e-002 0.000000e+000
4.644836e-002 -9.093957e-002 -5.600000e-002
4.644836e-002 -9.093957e-002 -2.450000e-002
4.641386e-002 -9.107143e-002 -2.346472e-002
4.631271e-002 -9.145802e-002 -2.250000e-002
4.615182e-002 -9.207299e-002 -2.167157e-002
4.594214e-002 -9.287445e-002 -2.103590e-002
4.569795e-002 -9.380775e-002 -2.063630e-002
4.442346e-002 -9.867906e-002 -2.450000e-002
4.543591e-002 -9.480931e-002 -2.050000e-002
4.445796e-002 -9.854721e-002 -2.346472e-002
4.517387e-002 -9.581088e-002 -2.063630e-002
4.455911e-002 -9.816062e-002 -2.250000e-002
4.492969e-002 -9.674419e-002 -2.103590e-002
4.472001e-002 -9.754564e-002 -2.167157e-002
5.981397e-003 -3.904450e-002 3.000000e-003
7.951292e-003 -3.869143e-002 3.000000e-003
3.950000e-002 0.000000e+000 3.000000e-003
9.900775e-003 -3.823905e-002 3.000000e-003
1.182484e-002 -3.768850e-002 3.000000e-003
3.944930e-002 2.000642e-003 3.000000e-003
3.929733e-002 3.996149e-003 3.000000e-003
1.371856e-002 -3.704121e-002 3.000000e-003
1.557706e-002 -3.629883e-002 3.000000e-003
3.904450e-002 5.981397e-003 3.000000e-003
1.739557e-002 -3.546328e-002 3.000000e-003
3.869143e-002 7.951292e-003 3.000000e-003
1.916943e-002 -3.453669e-002 3.000000e-003
3.823905e-002 9.900775e-003 3.000000e-003
2.089408e-002 -3.352145e-002 3.000000e-003
3.768850e-002 1.182484e-002 3.000000e-003
2.256509e-002 -3.242015e-002 3.000000e-003
3.704121e-002 1.371856e-002 3.000000e-003
2.417819e-002 -3.123564e-002 3.000000e-003
3.629883e-002 1.557706e-002 3.000000e-003
2.572921e-002 -2.997095e-002 3.000000e-003
3.546328e-002 1.739557e-002 3.000000e-003
2.721419e-002 -2.862931e-002 3.000000e-003
2.862931e-002 -2.721419e-002 3.000000e-003
3.453669e-002 1.916943e-002 3.000000e-003
3.352145e-002 2.089408e-002 3.000000e-003
2.997095e-002 -2.572921e-002 3.000000e-003
3.123564e-002 -2.417819e-002 3.000000e-003
3.242015e-002 2.256509e-002 3.000000e-003
3.242015e-002 -2.256509e-002 3.000000e-003
3.123564e-002 2.417819e-002 3.000000e-003
3.352145e-002 -2.089408e-002 3.000000e-003
2.997095e-002 2.572921e-002 3.000000e-003
3.453669e-002 -1.916943e-002 3.000000e-003
2.862931e-002 2.721419e-002 3.000000e-003
3.546328e-002 -1.739557e-002 3.000000e-003
2.721419e-002 2.862931e-002 3.000000e-003
3.629883e-002 -1.557706e-002 3.000000e-003
2.572921e-002 2.997095e-002 3.000000e-003
3.704121e-002 -1.371856e-002 3.000000e-003
2.417819e-002 3.123564e-002 3.000000e-003
3.768850e-002 -1.182484e-002 3.000000e-003
2.256509e-002 3.242015e-002 3.000000e-003
3.823905e-002 -9.900775e-003 3.000000e-003
3.869143e-002 -7.951292e-003 3.000000e-003
2.089408e-002 3.352145e-002 3.000000e-003
1.916943e-002 3.453669e-002 3.000000e-003
3.904450e-002 -5.981397e-003 3.000000e-003
3.929733e-002 -3.996149e-003 3.000000e-003
1.739557e-002 3.546328e-002 3.000000e-003
3.944930e-002 -2.000642e-003 3.000000e-003
1.557706e-002 3.629883e-002 3.000000e-003
1.371856e-002 3.704121e-002 3.000000e-003
1.182484e-002 3.768850e-002 3.000000e-003
9.900775e-003 3.823905e-002 3.000000e-003
7.951292e-003 3.869143e-002 3.000000e-003
5.981397e-003 3.904450e-002 3.000000e-003
3.996149e-003 3.929733e-002 3.000000e-003
2.000642e-003 3.944930e-002 3.000000e-003
0.000000e+000 3.950000e-002 3.000000e-003
-2.000642e-003 3.944930e-002 3.000000e-003
-3.996149e-003 3.929733e-002 3.000000e-003
-5.981397e-003 3.904450e-002 3.000000e-003
-7.951292e-003 3.869143e-002 3.000000e-003
-9.900775e-003 3.823905e-002 3.000000e-003
-1.182484e-002 3.768850e-002 3.000000e-003
-1.371856e-002 3.704121e-002 3.000000e-003
-1.557706e-002 3.629883e-002 3.000000e-003
-1.739557e-002 3.546328e-002 3.000000e-003
-1.916943e-002 3.453669e-002 3.000000e-003
-2.089408e-002 3.352145e-002 3.000000e-003
-2.256509e-002 3.242015e-002 3.000000e-003
-2.417819e-002 3.123564e-002 3.000000e-003
-2.572921e-002 2.997095e-002 3.000000e-003
-2.721419e-002 2.862931e-002 3.000000e-003
-2.862931e-002 2.721419e-002 3.000000e-003
-2.997095e-002 2.572921e-002 3.000000e-003
-3.123564e-002 2.417819e-002 3.000000e-003
-3.242015e-002 2.256509e-002 3.000000e-003
-3.352145e-002 2.089408e-002 3.000000e-003
-3.453669e-002 1.916943e-002 3.000000e-003
-3.546328e-002 1.739557e-002 3.000000e-003
-3.629883e-002 1.557706e-002 3.000000e-003
-3.704121e-002 1.371856e-002 3.000000e-003
-3.768850e-002 1.182484e-002 3.000000e-003
-3.823905e-002 9.900775e-003 3.000000e-003
-3.869143e-002 7.951292e-003 3.000000e-003
-3.904450e-002 5.981397e-003 3.000000e-003
-3.929733e-002 3.996149e-003 3.000000e-003
-3.944930e-002 2.000642e-003 3.000000e-003
-3.950000e-002 0.000000e+000 3.000000e-003
-3.944930e-002 -2.000642e-003 3.000000e-003
-3.929733e-002 -3.996149e-003 3.000000e-003
-3.904450e-002 -5.981397e-003 3.000000e-003
-3.869143e-002 -7.951292e-003 3.000000e-003
-3.823905e-002 -9.900775e-003 3.000000e-003
-3.768850e-002 -1.182484e-002 3.000000e-003
-3.704121e-002 -1.371856e-002 3.000000e-003
-3.629883e-002 -1.557706e-002 3.000000e-003
-3.546328e-002 -1.739557e-002 3.000000e-003
-3.453669e-002 -1.916943e-002 3.000000e-003
-3.352145e-002 -2.089408e-002 3.000000e-003
-3.242015e-002 -2.256509e-002 3.000000e-003
-3.123564e-002 -2.417819e-002 3.000000e-003
-2.997095e-002 -2.572921e-002 3.000000e-003
-2.862931e-002 -2.721419e-002 3.000000e-003
-2.721419e-002 -2.862931e-002 3.000000e-003
-2.572921e-002 -2.997095e-002 3.000000e-003
-2.417819e-002 -3.123564e-002 3.000000e-003
-2.256509e-002 -3.242015e-002 3.000000e-003
-2.089408e-002 -3.352145e-002 3.000000e-003
-1.916943e-002 -3.453669e-002 3.000000e-003
-1.739557e-002 -3.546328e-002 3.000000e-003
-1.557706e-002 -3.629883e-002 3.000000e-003
-1.371856e-002 -3.704121e-002 3.000000e-003
-1.182484e-002 -3.768850e-002 3.000000e-003
-9.900775e-003 -3.823905e-002 3.000000e-003
-7.951292e-003 -3.869143e-002 3.000000e-003
-5.981397e-003 -3.904450e-002 3.000000e-003
-3.996149e-003 -3.929733e-002 3.000000e-003
-2.000642e-003 -3.944930e-002 3.000000e-003
0.000000e+000 -3.950000e-002 3.000000e-003
2.000642e-003 -3.944930e-002 3.000000e-003
3.996149e-003 -3.929733e-002 3.000000e-003
3.159183e-002 2.947020e-002 3.000000e-003
3.208429e-002 2.956414e-002 3.000000e-003
3.253791e-002 2.977760e-002 3.000000e-003
3.340342e-002 3.196363e-002 3.000000e-003
3.292419e-002 3.009716e-002 3.000000e-003
3.346625e-002 3.146625e-002 3.000000e-003
3.321886e-002 3.050274e-002 3.000000e-003
3.321886e-002 3.242976e-002 3.000000e-003
3.340342e-002 3.096887e-002 3.000000e-003
3.292419e-002 3.283535e-002 3.000000e-003
3.253791e-002 3.315491e-002 3.000000e-003
3.208429e-002 3.336837e-002 3.000000e-003
3.159183e-002 3.346231e-002 3.000000e-003
3.109149e-002 3.343083e-002 3.000000e-003
3.061469e-002 3.327591e-002 3.000000e-003
3.019140e-002 3.300728e-002 3.000000e-003
2.984822e-002 3.264182e-002 3.000000e-003
2.960670e-002 3.220250e-002 3.000000e-003
2.948202e-002 3.171692e-002 3.000000e-003
2.948202e-002 3.121559e-002 3.000000e-003
2.960670e-002 3.073000e-002 3.000000e-003
2.984822e-002 3.029068e-002 3.000000e-003
3.019140e-002 2.992523e-002 3.000000e-003
3.061469e-002 2.965660e-002 3.000000e-003
3.109149e-002 2.950168e-002 3.000000e-003
-4.285812e-002 9.521394e-003 3.000000e-003
-4.236567e-002 9.615336e-003 3.000000e-003
-4.191205e-002 9.828792e-003 3.000000e-003
-4.104653e-002 1.201483e-002 3.000000e-003
-4.152576e-002 1.014835e-002 3.000000e-003
-4.098370e-002 1.151745e-002 3.000000e-003
-4.123109e-002 1.055394e-002 3.000000e-003
-4.123109e-002 1.248096e-002 3.000000e-003
-4.104653e-002 1.102007e-002 3.000000e-003
-4.152576e-002 1.288654e-002 3.000000e-003
-4.191205e-002 1.320610e-002 3.000000e-003
-4.236567e-002 1.341956e-002 3.000000e-003
-4.285812e-002 1.351350e-002 3.000000e-003
-4.335846e-002 1.348202e-002 3.000000e-003
-4.383526e-002 1.332710e-002 3.000000e-003
-4.425855e-002 1.305847e-002 3.000000e-003
-4.460173e-002 1.269302e-002 3.000000e-003
-4.484325e-002 1.225370e-002 3.000000e-003
-4.496793e-002 1.176811e-002 3.000000e-003
-4.496793e-002 1.126678e-002 3.000000e-003
-4.484325e-002 1.078120e-002 3.000000e-003
-4.460173e-002 1.034188e-002 3.000000e-003
-4.425855e-002 9.976421e-003 3.000000e-003
-4.383526e-002 9.707794e-003 3.000000e-003
-4.335846e-002 9.552873e-003 3.000000e-003
1.164303e-002 -4.497975e-002 3.000000e-003
1.213548e-002 -4.488581e-002 3.000000e-003
1.258910e-002 -4.467236e-002 3.000000e-003
1.345461e-002 -4.248632e-002 3.000000e-003
1.297538e-002 -4.435280e-002 3.000000e-003
1.351745e-002 -4.298370e-002 3.000000e-003
1.327006e-002 -4.394721e-002 3.000000e-003
1.327006e-002 -4.202019e-002 3.000000e-003
1.345461e-002 -4.348108e-002 3.000000e-003
1.297538e-002 -4.161460e-002 3.000000e-003
1.258910e-002 -4.129504e-002 3.000000e-003
1.213548e-002 -4.108158e-002 3.000000e-003
1.164303e-002 -4.098764e-002 3.000000e-003
1.114269e-002 -4.101912e-002 3.000000e-003
1.066589e-002 -4.117405e-002 3.000000e-003
1.024260e-002 -4.144267e-002 3.000000e-003
9.899413e-003 -4.180813e-002 3.000000e-003
9.657894e-003 -4.224745e-002 3.000000e-003
9.533218e-003 -4.273303e-002 3.000000e-003
9.533218e-003 -4.323437e-002 3.000000e-003
9.657894e-003 -4.371995e-002 3.000000e-003
9.899413e-003 -4.415927e-002 3.000000e-003
1.024260e-002 -4.452473e-002 3.000000e-003
1.066589e-002 -4.479335e-002 3.000000e-003
1.114269e-002 -4.494827e-002 3.000000e-003
-2.277322e-002 -4.395032e-002 3.000000e-003
-2.475000e-002 -4.286826e-002 3.000000e-003
-2.074924e-002 -4.494128e-002 3.000000e-003
-1.868225e-002 -4.583910e-002 3.000000e-003
4.944870e-002 2.252973e-003 3.000000e-003
4.950000e-002 0.000000e+000 3.000000e-003
-1.657654e-002 -4.664192e-002 3.000000e-003
4.929492e-002 4.501276e-003 3.000000e-003
-1.443647e-002 -4.734805e-002 3.000000e-003
-1.226649e-002 -4.795605e-002 3.000000e-003
4.903895e-002 6.740249e-003 3.000000e-003
4.868136e-002 8.965252e-003 3.000000e-003
-1.007107e-002 -4.846466e-002 3.000000e-003
4.822285e-002 1.117167e-002 3.000000e-003
-7.854786e-003 -4.887282e-002 3.000000e-003
-5.622219e-003 -4.917968e-002 3.000000e-003
4.766441e-002 1.335494e-002 3.000000e-003
4.700717e-002 1.551053e-002 3.000000e-003
-3.378000e-003 -4.938461e-002 3.000000e-003
4.625250e-002 1.763397e-002 3.000000e-003
-1.126778e-003 -4.948717e-002 3.000000e-003
4.540196e-002 1.972085e-002 3.000000e-003
1.126778e-003 -4.948717e-002 3.000000e-003
3.378000e-003 -4.938461e-002 3.000000e-003
4.445732e-002 2.176687e-002 3.000000e-003
4.342054e-002 2.376777e-002 3.000000e-003
5.622219e-003 -4.917968e-002 3.000000e-003
4.229376e-002 2.571941e-002 3.000000e-003
4.107932e-002 2.761774e-002 3.000000e-003
7.854786e-003 -4.887282e-002 3.000000e-003
1.007107e-002 -4.846466e-002 3.000000e-003
3.977975e-002 2.945882e-002 3.000000e-003
1.226649e-002 -4.795605e-002 3.000000e-003
1.443647e-002 -4.734805e-002 3.000000e-003
3.839771e-002 3.123885e-002 3.000000e-003
3.693609e-002 3.295413e-002 3.000000e-003
1.657654e-002 -4.664192e-002 3.000000e-003
1.868225e-002 -4.583910e-002 3.000000e-003
3.539792e-002 3.460111e-002 3.000000e-003
2.074924e-002 -4.494128e-002 3.000000e-003
3.378638e-002 3.617638e-002 3.000000e-003
3.210481e-002 3.767666e-002 3.000000e-003
2.277322e-002 -4.395032e-002 3.000000e-003
2.475000e-002 -4.286826e-002 3.000000e-003
3.035671e-002 3.909886e-002 3.000000e-003
2.854568e-002 4.044001e-002 3.000000e-003
2.667548e-002 -4.169735e-002 3.000000e-003
2.854568e-002 -4.044001e-002 3.000000e-003
2.667548e-002 4.169735e-002 3.000000e-003
3.035671e-002 -3.909886e-002 3.000000e-003
3.210481e-002 -3.767666e-002 3.000000e-003
2.475000e-002 4.286826e-002 3.000000e-003
2.277322e-002 4.395032e-002 3.000000e-003
3.378638e-002 -3.617638e-002 3.000000e-003
3.539792e-002 -3.460111e-002 3.000000e-003
2.074924e-002 4.494128e-002 3.000000e-003
1.868225e-002 4.583910e-002 3.000000e-003
3.693609e-002 -3.295413e-002 3.000000e-003
3.839771e-002 -3.123885e-002 3.000000e-003
3.977975e-002 -2.945882e-002 3.000000e-003
1.657654e-002 4.664192e-002 3.000000e-003
1.443647e-002 4.734805e-002 3.000000e-003
4.107932e-002 -2.761774e-002 3.000000e-003
4.229376e-002 -2.571941e-002 3.000000e-003
1.226649e-002 4.795605e-002 3.000000e-003
1.007107e-002 4.846466e-002 3.000000e-003
4.342054e-002 -2.376777e-002 3.000000e-003
7.854786e-003 4.887282e-002 3.000000e-003
4.445732e-002 -2.176687e-002 3.000000e-003
4.540196e-002 -1.972085e-002 3.000000e-003
5.622219e-003 4.917968e-002 3.000000e-003
4.625250e-002 -1.763397e-002 3.000000e-003
3.378000e-003 4.938461e-002 3.000000e-003
4.700717e-002 -1.551053e-002 3.000000e-003
4.766441e-002 -1.335494e-002 3.000000e-003
1.126778e-003 4.948717e-002 3.000000e-003
-1.126778e-003 4.948717e-002 3.000000e-003
4.822285e-002 -1.117167e-002 3.000000e-003
-3.378000e-003 4.938461e-002 3.000000e-003
4.868136e-002 -8.965252e-003 3.000000e-003
4.903895e-002 -6.740249e-003 3.000000e-003
-5.622219e-003 4.917968e-002 3.000000e-003
-7.854786e-003 4.887282e-002 3.000000e-003
4.929492e-002 -4.501276e-003 3.000000e-003
-1.007107e-002 4.846466e-002 3.000000e-003
4.944870e-002 -2.252973e-003 3.000000e-003
-1.226649e-002 4.795605e-002 3.000000e-003
-1.443647e-002 4.734805e-002 3.000000e-003
-1.657654e-002 4.664192e-002 3.000000e-003
-1.868225e-002 4.583910e-002 3.000000e-003
-2.074924e-002 4.494128e-002 3.000000e-003
-2.277322e-002 4.395032e-002 3.000000e-003
-2.475000e-002 4.286826e-002 3.000000e-003
-2.667548e-002 4.169735e-002 3.000000e-003
-2.854568e-002 4.044001e-002 3.000000e-003
-3.035671e-002 3.909886e-002 3.000000e-003
-3.210481e-002 3.767666e-002 3.000000e-003
-3.378638e-002 3.617638e-002 3.000000e-003
-3.539792e-002 3.460111e-002 3.000000e-003
-3.693609e-002 3.295413e-002 3.000000e-003
-3.839771e-002 3.123885e-002 3.000000e-003
-3.977975e-002 2.945882e-002 3.000000e-003
-4.107932e-002 2.761774e-002 3.000000e-003
-4.229376e-002 2.571941e-002 3.000000e-003
-4.342054e-002 2.376777e-002 3.000000e-003
-4.445732e-002 2.176687e-002 3.000000e-003
-4.540196e-002 1.972085e-002 3.000000e-003
-4.625250e-002 1.763397e-002 3.000000e-003
-4.700717e-002 1.551053e-002 3.000000e-003
-4.766441e-002 1.335494e-002 3.000000e-003
-4.822285e-002 1.117167e-002 3.000000e-003
-4.868136e-002 8.965252e-003 3.000000e-003
-4.903895e-002 6.740249e-003 3.000000e-003
-4.929492e-002 4.501276e-003 3.000000e-003
-4.944870e-002 2.252973e-003 3.000000e-003
-4.950000e-002 0.000000e+000 3.000000e-003
-4.944870e-002 -2.252973e-003 3.000000e-003
-4.929492e-002 -4.501276e-003 3.000000e-003
-4.903895e-002 -6.740249e-003 3.000000e-003
-4.868136e-002 -8.965252e-003 3.000000e-003
-4.822285e-002 -1.117167e-002 3.000000e-003
-4.766441e-002 -1.335494e-002 3.000000e-003
-4.700717e-002 -1.551053e-002 3.000000e-003
-4.625250e-002 -1.763397e-002 3.000000e-003
-4.540196e-002 -1.972085e-002 3.000000e-003
-4.445732e-002 -2.176687e-002 3.000000e-003
-4.342054e-002 -2.376777e-002 3.000000e-003
-4.229376e-002 -2.571941e-002 3.000000e-003
-4.107932e-002 -2.761774e-002 3.000000e-003
-3.977975e-002 -2.945882e-002 3.000000e-003
-3.839771e-002 -3.123885e-002 3.000000e-003
-3.693609e-002 -3.295413e-002 3.000000e-003
-3.539792e-002 -3.460111e-002 3.000000e-003
-3.378638e-002 -3.617638e-002 3.000000e-003
-3.210481e-002 -3.767666e-002 3.000000e-003
-3.035671e-002 -3.909886e-002 3.000000e-003
-2.854568e-002 -4.044001e-002 3.000000e-003
-2.667548e-002 -4.169735e-002 3.000000e-003
3 0 1 2
3 0 2 3
3 0 3 4
3 0 4 5
3 6 7 1
3 6 1 0
3 8 6 0
3 9 8 10
3 11 8 9
3 12 8 11
3 13 8 12
3 14 8 13
3 15 6 8
3 15 8 14
3 16 17 18
3 19 16 18
3 20 21 22
3 23 24 22
3 23 22 21
3 25 22 26
3 25 20 22
3 27 21 20
3 28 25 26
3 28 20 25
3 29 23 21
3 29 21 27
3 30 27 20
3 31 24 23
3 31 23 29
3 32 27 30
3 33 34 24
3 33 24 31
3 35 29 27
3 35 27 32
3 36 28 26
3 36 20 28
3 36 30 20
3 37 32 30
3 37 36 26
3 37 30 36
3 38 31 29
3 38 29 35
3 39 33 31
3 39 31 38
3 40 35 32
3 40 32 37
3 41 39 38
3 42 34 33
3 42 33 39
3 43 41 38
3 44 34 42
3 44 39 41
3 44 42 39
3 45 35 40
3 45 38 35
3 45 43 38
3 46 34 44
3 46 41 43
3 46 44 41
3 47 43 45
3 47 46 43
3 48 46 47
3 49 50 34
3 49 34 46
3 49 46 48
3 51 50 49
3 51 49 48
3 52 26 50
3 52 37 26
3 52 40 37
3 52 45 40
3 52 47 45
3 52 50 51
3 52 48 47
3 52 51 48
3 53 54 55
3 56 54 53
3 57 58 59
3 60 57 59
3 61 60 59
3 62 63 64
3 62 65 63
3 66 67 68
3 69 67 66
3 70 71 72
3 70 72 73
3 70 73 74
3 70 74 75
3 70 75 76
3 77 70 76
3 78 71 70
3 79 70 77
3 80 78 70
3 81 70 79
3 82 70 81
3 83 70 82
3 84 85 80
3 86 87 88
3 86 88 89
3 86 89 90
3 86 90 91
3 86 91 92
3 86 92 93
3 86 93 94
3 95 86 94
3 96 86 95
3 97 86 96
3 98 86 97
3 99 86 98
3 100 86 99
3 101 86 100
3 102 103 101
3 103 86 101
3 70 84 80
3 86 70 83
3 86 83 87
3 83 104 87
3 105 104 83
3 88 104 106
3 88 106 107
3 88 87 104
3 89 107 108
3 89 88 107
3 90 89 108
3 91 108 109
3 91 90 108
3 92 109 110
3 92 91 109
3 93 110 111
3 93 92 110
3 94 111 112
3 94 93 111
3 95 112 113
3 95 94 112
3 96 113 114
3 96 114 115
3 96 95 113
3 97 96 115
3 98 115 116
3 98 97 115
3 99 116 117
3 99 98 116
3 100 117 118
3 100 99 117
3 101 118 119
3 101 100 118
3 78 120 121
3 78 80 120
3 71 121 122
3 71 78 121
3 72 122 123
3 72 71 122
3 73 123 124
3 73 72 123
3 74 124 125
3 74 73 124
3 75 125 126
3 75 74 125
3 76 126 127
3 76 75 126
3 77 127 128
3 77 76 127
3 79 128 129
3 79 129 130
3 79 77 128
3 81 130 131
3 81 79 130
3 82 131 105
3 82 81 131
3 83 82 105
3 102 101 132
3 132 101 119
3 119 133 134
3 135 132 134
3 132 119 134
3 134 133 136
3 137 80 85
3 120 80 137
3 138 137 139
3 138 120 137
3 140 138 139
3 141 138 140
3 142 141 143
3 142 138 141
3 144 142 143
3 145 142 144
3 146 142 145
3 147 142 146
3 148 142 147
3 149 150 151
3 149 152 150
3 149 151 153
3 149 153 154
3 155 149 156
3 157 158 155
3 137 159 139
3 155 142 148
3 155 148 160
3 155 160 161
3 155 161 152
3 155 152 149
3 156 157 155
3 103 102 162
3 162 102 132
3 85 84 137
3 137 84 163
3 164 165 162
3 165 86 162
3 162 86 103
3 166 167 168
3 167 164 168
3 164 162 168
3 166 168 169
3 166 169 170
3 168 162 171
3 172 173 174
3 175 174 173
3 176 177 173
3 176 173 172
3 178 175 173
3 179 177 176
3 180 178 173
3 181 180 173
3 182 181 173
3 163 183 177
3 163 70 183
3 163 177 179
3 184 163 179
3 84 70 163
3 185 186 187
3 185 187 188
3 185 189 186
3 190 191 192
3 193 189 185
3 194 185 190
3 195 194 190
3 192 195 190
3 173 190 182
3 182 190 196
3 196 190 188
3 188 190 185
3 70 165 183
3 70 86 165
3 138 177 120
3 120 177 121
3 121 177 122
3 122 177 123
3 124 123 183
3 125 124 183
3 123 177 183
3 125 183 126
3 126 183 127
3 127 183 128
3 128 183 129
3 129 183 130
3 130 183 131
3 131 183 105
3 164 119 118
3 164 118 117
3 164 117 116
3 164 116 115
3 164 115 114
3 110 165 111
3 165 164 113
3 164 114 113
3 165 113 112
3 111 165 112
3 110 183 165
3 109 183 110
3 108 183 109
3 107 183 108
3 106 183 107
3 104 183 106
3 105 183 104
3 167 133 164
3 164 133 119
3 162 132 171
3 171 132 197
3 197 132 198
3 198 132 135
3 136 166 199
3 167 166 136
3 133 167 136
3 198 135 134
3 197 198 200
3 198 134 200
3 171 197 201
3 197 200 201
3 171 201 168
3 202 203 204
3 202 204 205
3 206 202 205
3 206 205 157
3 207 208 157
3 209 207 157
3 156 209 157
3 208 206 157
3 205 210 157
3 157 210 211
3 211 210 212
3 212 210 213
3 214 212 213
3 214 213 215
3 213 216 215
3 215 216 217
3 215 217 218
3 218 217 219
3 218 219 220
3 218 220 221
3 221 220 222
3 221 222 223
3 223 224 225
3 221 223 225
3 225 224 226
3 225 226 227
3 227 228 229
3 225 227 229
3 229 228 230
3 229 230 231
3 229 231 232
3 232 231 233
3 232 233 234
3 234 235 236
3 236 235 237
3 236 237 238
3 239 134 136
3 240 239 136
3 238 237 241
3 242 238 241
3 242 241 243
3 243 241 244
3 136 243 244
3 136 244 245
3 246 240 247
3 240 136 247
3 136 245 247
3 248 246 249
3 246 247 249
3 250 248 251
3 248 249 251
3 252 250 253
3 250 251 253
3 254 252 255
3 252 253 255
3 256 254 257
3 254 255 257
3 258 256 259
3 256 257 259
3 260 258 261
3 258 259 261
3 262 260 263
3 260 261 263
3 264 262 265
3 262 263 265
3 266 264 267
3 264 265 267
3 268 266 269
3 266 267 269
3 270 268 271
3 268 269 271
3 272 270 273
3 270 271 273
3 274 272 275
3 272 273 275
3 276 274 277
3 274 275 277
3 278 276 279
3 276 277 279
3 280 278 281
3 278 279 281
3 282 280 283
3 280 281 283
3 282 283 284
3 285 282 284
3 285 284 286
3 287 285 286
3 287 286 288
3 289 287 288
3 289 288 290
3 291 289 290
3 291 290 292
3 293 291 292
3 293 292 294
3 295 293 294
3 295 294 296
3 297 295 296
3 298 297 299
3 297 296 299
3 300 298 301
3 298 299 301
3 302 300 303
3 300 301 303
3 304 302 305
3 302 303 305
3 306 304 307
3 304 305 307
3 308 306 309
3 306 307 309
3 310 308 311
3 308 309 311
3 312 310 313
3 310 311 313
3 314 312 315
3 312 313 315
3 316 314 317
3 314 315 317
3 316 317 318
3 319 316 318
3 203 319 204
3 319 318 204
3 234 236 232
3 137 163 184
3 159 137 184
3 138 142 177
3 142 173 177
3 320 139 159
3 321 320 159
3 173 155 190
3 173 142 155
3 140 139 320
3 140 320 322
3 323 324 191
3 323 191 214
3 214 191 158
3 158 191 190
3 158 190 155
3 325 326 151
3 325 151 150
3 327 325 152
3 328 327 152
3 325 150 152
3 329 328 161
3 328 152 161
3 329 161 160
3 330 329 148
3 331 330 148
3 329 160 148
3 332 331 147
3 331 148 147
3 332 147 146
3 333 332 145
3 334 333 145
3 332 146 145
3 334 145 144
3 335 334 143
3 334 144 143
3 336 335 141
3 335 143 141
3 322 336 140
3 336 141 140
3 214 158 212
3 211 158 157
3 212 158 211
3 337 153 151
3 326 337 151
3 153 338 189
3 154 153 193
3 153 189 193
3 149 185 194
3 149 194 339
3 340 156 149
3 339 340 149
3 154 193 149
3 149 193 185
3 168 201 169
3 201 200 169
3 200 134 169
3 134 341 342
3 169 134 343
3 134 342 343
3 169 343 170
3 344 345 346
3 347 348 349
3 348 346 349
3 350 199 351
3 352 347 353
3 347 349 353
3 199 166 343
3 166 170 343
3 354 352 355
3 352 353 355
3 199 343 342
3 356 354 357
3 354 355 357
3 199 342 341
3 358 356 359
3 356 357 359
3 360 351 361
3 351 199 361
3 199 341 361
3 358 359 362
3 192 358 363
3 358 362 363
3 364 360 365
3 192 363 195
3 360 361 365
3 366 364 367
3 364 365 367
3 368 366 369
3 366 367 369
3 370 368 371
3 368 369 371
3 372 370 373
3 370 371 373
3 374 372 375
3 372 373 375
3 376 374 377
3 374 375 377
3 378 376 379
3 376 377 379
3 380 378 381
3 378 379 381
3 382 380 383
3 380 381 383
3 384 382 385
3 382 383 385
3 386 384 387
3 384 385 387
3 388 386 389
3 386 387 389
3 390 388 391
3 388 389 391
3 392 390 393
3 390 391 393
3 394 392 395
3 392 393 395
3 394 395 396
3 397 394 396
3 397 396 398
3 399 397 398
3 399 398 400
3 401 399 400
3 401 400 402
3 403 401 402
3 403 402 404
3 405 403 404
3 405 404 406
3 407 405 406
3 407 406 408
3 409 407 408
3 409 408 410
3 411 409 410
3 412 411 413
3 411 410 413
3 414 412 415
3 412 413 415
3 416 414 417
3 414 415 417
3 418 416 419
3 416 417 419
3 420 418 421
3 418 419 421
3 422 420 423
3 420 421 423
3 424 422 425
3 422 423 425
3 426 424 427
3 424 425 427
3 428 426 429
3 426 427 429
3 430 428 431
3 428 429 431
3 432 430 433
3 430 431 433
3 434 432 435
3 432 433 435
3 436 434 437
3 434 435 437
3 438 436 439
3 436 437 439
3 440 438 441
3 438 439 441
3 442 440 443
3 440 441 443
3 444 442 445
3 442 443 445
3 446 444 447
3 444 445 447
3 446 447 448
3 449 446 448
3 449 448 450
3 451 449 450
3 451 450 452
3 453 451 452
3 453 452 454
3 455 453 454
3 455 454 456
3 457 455 456
3 457 456 458
3 459 457 458
3 459 458 460
3 461 459 460
3 461 460 462
3 463 461 462
3 463 462 464
3 465 463 464
3 465 464 466
3 467 465 466
3 467 466 468
3 469 467 468
3 469 468 470
3 471 469 470
3 471 470 472
3 473 471 472
3 473 472 474
3 475 473 474
3 475 474 476
3 477 475 476
3 477 476 478
3 479 477 478
3 480 479 481
3 479 478 481
3 482 480 483
3 480 481 483
3 484 482 485
3 482 483 485
3 486 484 487
3 484 485 487
3 488 486 489
3 486 487 489
3 490 488 491
3 488 489 491
3 492 490 493
3 490 491 493
3 494 492 495
3 492 493 495
3 494 495 496
3 497 494 496
3 497 496 498
3 499 497 498
3 499 498 500
3 501 499 500
3 501 500 502
3 503 501 502
3 503 502 504
3 505 503 504
3 505 504 506
3 507 505 506
3 507 506 508
3 509 507 508
3 509 508 510
3 511 509 510
3 511 510 512
3 513 511 512
3 513 512 514
3 515 513 514
3 515 514 516
3 517 515 516
3 517 516 518
3 519 517 518
3 519 518 520
3 521 519 520
3 521 520 522
3 523 521 522
3 523 522 524
3 525 523 524
3 525 524 526
3 527 525 526
3 527 526 528
3 529 527 528
3 529 528 530
3 531 529 530
3 531 530 532
3 533 531 532
3 533 532 534
3 535 533 534
3 535 534 536
3 537 535 536
3 537 536 538
3 539 537 538
3 539 538 540
3 541 539 540
3 541 540 542
3 543 541 542
3 544 543 545
3 543 542 545
3 546 544 547
3 544 545 547
3 548 546 549
3 546 547 549
3 550 548 551
3 548 549 551
3 344 550 345
3 550 551 345
3 348 344 346
3 552 159 184
3 552 184 179
3 187 186 553
3 188 187 554
3 187 553 554
3 196 188 555
3 188 554 555
3 182 196 556
3 196 555 556
3 181 182 557
3 182 556 557
3 180 181 558
3 181 557 558
3 178 180 559
3 180 558 559
3 175 178 560
3 178 559 560
3 174 175 561
3 175 560 561
3 172 174 562
3 174 561 562
3 176 172 563
3 172 562 563
3 179 176 564
3 176 563 564
3 179 564 552
3 189 338 186
3 186 338 553
3 340 339 195
3 340 195 156
3 156 195 363
3 156 363 209
3 209 363 362
3 362 359 207
3 209 362 207
3 207 359 208
3 339 194 195
3 565 566 567
3 418 568 416
3 569 570 372
3 418 571 572
3 573 574 565
3 418 572 568
3 465 467 575
3 465 575 576
3 511 577 578
3 420 579 580
3 420 580 571
3 420 571 418
3 511 513 577
3 463 576 581
3 324 352 354
3 324 192 191
3 324 354 356
3 324 356 358
3 324 358 192
3 347 352 324
3 463 465 576
3 582 573 565
3 422 579 420
3 582 583 584
3 582 584 573
3 422 585 586
3 422 586 579
3 461 581 587
3 374 569 372
3 374 588 569
3 509 511 578
3 509 578 589
3 590 591 592
3 461 463 581
3 424 593 594
3 595 592 591
3 596 583 582
3 596 597 583
3 598 590 592
3 424 594 585
3 424 585 422
3 376 588 374
3 376 599 588
3 507 509 589
3 507 589 600
3 459 461 587
3 601 598 592
3 426 593 424
3 602 592 603
3 426 604 593
3 605 597 596
3 602 601 592
3 457 587 606
3 605 607 597
3 378 599 376
3 378 608 599
3 457 459 587
3 609 610 607
3 609 607 605
3 428 611 604
3 505 507 600
3 428 604 426
3 505 600 612
3 455 606 613
3 380 608 378
3 455 457 606
3 430 614 611
3 430 611 428
3 615 602 603
3 453 613 616
3 503 505 612
3 503 612 610
3 617 592 595
3 453 455 613
3 617 618 592
3 382 608 380
3 432 614 430
3 382 619 608
3 620 324 621
3 451 616 622
3 623 595 624
3 451 453 616
3 501 610 609
3 434 614 432
3 501 503 610
3 623 617 595
3 434 625 614
3 449 451 622
3 626 324 620
3 449 622 627
3 384 619 382
3 436 625 434
3 384 628 619
3 499 609 629
3 499 501 609
3 436 630 625
3 446 627 631
3 446 449 627
3 632 623 624
3 438 630 436
3 438 633 630
3 386 628 384
3 444 446 631
3 386 634 628
3 444 631 635
3 497 629 636
3 637 324 626
3 497 499 629
3 440 633 438
3 440 638 633
3 442 444 635
3 442 638 440
3 442 635 638
3 324 592 621
3 621 592 639
3 639 592 640
3 640 592 618
3 641 624 642
3 603 643 644
3 603 644 615
3 641 632 624
3 388 645 634
3 388 634 386
3 646 324 637
3 494 636 647
3 494 497 636
3 648 641 642
3 648 642 649
3 390 650 645
3 390 645 388
3 651 324 646
3 492 647 652
3 492 494 647
3 392 653 650
3 392 650 390
3 654 648 649
3 490 492 652
3 654 649 655
3 654 655 656
3 657 324 651
3 394 653 392
3 394 658 653
3 488 652 659
3 488 490 652
3 660 654 656
3 660 656 661
3 397 658 394
3 397 662 658
3 663 324 657
3 664 660 661
3 486 488 659
3 664 661 665
3 664 665 666
3 486 659 667
3 664 666 668
3 399 662 397
3 669 324 663
3 399 670 662
3 671 664 668
3 671 668 672
3 671 672 673
3 484 486 667
3 484 667 674
3 675 324 669
3 676 671 673
3 401 670 399
3 676 673 677
3 676 677 678
3 401 679 670
3 680 324 675
3 482 484 674
3 482 674 681
3 403 679 401
3 682 678 683
3 682 683 684
3 682 676 678
3 685 324 680
3 480 681 686
3 480 482 681
3 687 682 684
3 687 684 688
3 689 347 324
3 405 679 403
3 689 324 685
3 405 690 679
3 691 687 688
3 691 688 692
3 693 344 348
3 693 348 347
3 693 347 689
3 479 686 694
3 479 480 686
3 695 691 692
3 695 692 644
3 696 550 344
3 696 344 693
3 407 690 405
3 407 697 690
3 698 695 644
3 699 700 701
3 702 550 696
3 703 699 701
3 704 700 699
3 702 548 550
3 705 698 644
3 706 701 707
3 708 548 702
3 706 703 701
3 708 544 546
3 708 546 548
3 709 700 704
3 710 544 708
3 477 479 694
3 710 543 544
3 711 707 712
3 711 706 707
3 713 700 709
3 713 714 700
3 715 543 710
3 715 541 543
3 716 711 712
3 717 541 715
3 718 714 713
3 717 537 539
3 717 539 541
3 719 537 717
3 719 535 537
3 409 720 697
3 409 697 407
3 643 721 705
3 643 705 644
3 643 722 723
3 643 723 724
3 643 724 721
3 725 722 643
3 726 714 718
3 726 727 714
3 728 533 535
3 728 535 719
3 729 727 726
3 730 725 643
3 731 533 728
3 475 694 732
3 731 529 531
3 731 531 533
3 475 477 694
3 733 730 643
3 734 529 731
3 734 527 529
3 735 350 351
3 736 727 729
3 360 735 351
3 736 737 727
3 738 643 735
3 738 733 643
3 739 527 734
3 739 525 527
3 740 525 739
3 740 523 525
3 741 738 735
3 411 716 712
3 364 735 360
3 411 712 720
3 411 742 716
3 411 720 409
3 743 741 735
3 594 737 736
3 594 593 737
3 366 735 364
3 744 743 735
3 368 735 366
3 473 732 745
3 746 744 735
3 746 735 368
3 473 475 732
3 747 748 749
3 747 750 748
3 751 740 748
3 751 523 740
3 751 748 750
3 752 749 753
3 752 747 749
3 754 523 751
3 754 519 521
3 754 521 523
3 370 746 368
3 412 742 411
3 755 752 753
3 412 756 742
3 471 473 745
3 757 519 754
3 471 745 758
3 757 517 519
3 759 755 753
3 760 517 757
3 760 515 517
3 570 746 370
3 414 756 412
3 567 759 753
3 414 761 762
3 414 762 756
3 469 758 763
3 764 759 567
3 765 515 760
3 513 515 765
3 469 471 758
3 566 764 567
3 577 513 765
3 416 568 766
3 416 766 761
3 416 761 414
3 467 763 575
3 372 570 370
3 467 469 763
3 565 574 767
3 565 767 566
3 350 735 768
3 350 136 199
3 243 350 768
3 243 136 350
3 369 240 371
3 239 240 367
3 240 369 367
3 240 246 373
3 371 240 373
3 239 367 365
3 373 246 375
3 134 239 361
3 239 365 361
3 246 248 377
3 375 246 377
3 134 361 341
3 377 248 379
3 248 250 381
3 379 248 381
3 381 250 383
3 383 250 385
3 250 252 387
3 385 250 387
3 387 252 389
3 389 252 391
3 391 252 254
3 391 254 393
3 393 254 395
3 395 254 396
3 254 256 396
3 396 256 398
3 398 256 400
3 400 256 258
3 400 258 402
3 402 258 404
3 404 258 406
3 406 258 260
3 406 260 408
3 408 260 410
3 410 260 262
3 410 262 413
3 413 262 415
3 415 262 417
3 417 262 264
3 417 264 419
3 419 264 421
3 421 264 266
3 421 266 423
3 423 266 425
3 425 266 427
3 427 266 268
3 427 268 429
3 429 268 431
3 433 431 270
3 431 268 270
3 433 270 435
3 435 270 437
3 437 270 272
3 437 272 439
3 439 272 441
3 443 441 274
3 441 272 274
3 443 274 445
3 447 445 276
3 445 274 276
3 447 276 448
3 448 276 450
3 452 450 278
3 450 276 278
3 452 278 454
3 456 454 280
3 454 278 280
3 456 280 458
3 458 280 460
3 462 460 282
3 460 280 282
3 462 282 464
3 466 464 285
3 464 282 285
3 466 285 468
3 468 285 470
3 470 285 287
3 472 470 287
3 472 287 474
3 208 359 357
3 357 355 206
3 208 357 206
3 474 287 289
3 476 474 289
3 478 476 289
3 355 353 202
3 206 355 202
3 478 289 481
3 202 353 349
3 349 346 203
3 202 349 203
3 481 289 291
3 483 481 291
3 483 291 485
3 203 346 345
3 203 345 319
3 345 551 319
3 319 551 549
3 485 291 293
3 487 485 293
3 489 487 293
3 489 293 491
3 319 549 316
3 547 545 316
3 549 547 316
3 491 293 295
3 493 491 295
3 495 493 295
3 316 545 314
3 540 538 314
3 542 540 314
3 545 542 314
3 496 495 297
3 498 496 297
3 495 295 297
3 314 538 312
3 536 534 312
3 538 536 312
3 500 498 298
3 502 500 298
3 504 502 298
3 498 297 298
3 312 534 310
3 530 528 310
3 532 530 310
3 534 532 310
3 504 298 300
3 506 504 300
3 508 506 300
3 526 524 308
3 528 526 308
3 310 528 308
3 508 300 302
3 510 508 302
3 512 510 302
3 514 512 302
3 308 524 306
3 520 518 306
3 522 520 306
3 524 522 306
3 306 518 304
3 514 302 304
3 516 514 304
3 518 516 304
3 769 243 768
3 242 243 769
3 238 242 769
3 236 238 769
3 770 221 225
3 770 225 229
3 771 770 232
3 770 229 232
3 771 232 236
3 215 323 214
3 218 323 215
3 221 323 218
3 318 772 204
3 318 773 772
3 318 774 773
3 775 249 247
3 776 775 247
3 292 290 777
3 292 778 779
3 292 777 778
3 780 249 775
3 781 776 247
3 782 249 780
3 782 251 249
3 783 781 247
3 783 247 245
3 784 251 782
3 785 783 245
3 786 251 784
3 317 774 318
3 787 245 244
3 317 788 774
3 787 785 245
3 317 789 788
3 790 251 786
3 790 253 251
3 791 787 244
3 294 292 779
3 792 253 790
3 294 793 794
3 294 795 793
3 294 779 795
3 315 789 317
3 315 796 789
3 315 797 796
3 798 791 244
3 798 244 241
3 799 255 253
3 799 253 792
3 800 798 241
3 296 801 802
3 296 794 801
3 296 294 794
3 313 803 797
3 313 804 803
3 805 255 799
3 313 806 804
3 807 800 241
3 313 797 315
3 299 296 802
3 808 255 805
3 809 241 237
3 809 807 241
3 299 810 811
3 299 802 810
3 812 257 255
3 812 255 808
3 311 806 313
3 311 813 806
3 311 814 813
3 301 299 811
3 301 815 816
3 817 809 237
3 301 818 815
3 301 811 818
3 309 819 814
3 309 820 819
3 821 257 812
3 309 814 311
3 303 301 816
3 822 237 235
3 303 823 824
3 303 816 823
3 822 817 237
3 307 820 309
3 307 825 820
3 826 259 257
3 307 827 825
3 826 257 821
3 305 303 824
3 305 828 827
3 305 824 828
3 829 822 235
3 305 827 307
3 830 259 826
3 831 235 234
3 831 829 235
3 832 259 830
3 833 831 234
3 834 261 259
3 834 259 832
3 835 234 233
3 835 833 234
3 836 261 834
3 837 835 233
3 838 263 261
3 838 261 836
3 839 837 233
3 840 263 838
3 841 839 233
3 841 233 231
3 842 263 840
3 843 841 231
3 844 263 842
3 844 265 263
3 845 843 231
3 845 231 230
3 846 265 844
3 847 845 230
3 848 265 846
3 849 230 228
3 849 847 230
3 267 265 848
3 850 267 848
3 851 849 228
3 852 267 850
3 853 851 228
3 853 228 227
3 854 267 852
3 855 853 227
3 269 267 854
3 856 269 854
3 857 227 226
3 857 855 227
3 858 269 856
3 859 857 226
3 271 858 860
3 271 269 858
3 861 226 224
3 861 859 226
3 862 271 860
3 863 861 224
3 864 271 862
3 865 863 224
3 223 865 224
3 273 864 866
3 273 271 864
3 867 865 223
3 868 273 866
3 869 867 223
3 870 273 868
3 222 871 869
3 222 869 223
3 275 273 870
3 872 275 870
3 873 871 222
3 874 275 872
3 875 873 222
3 220 876 875
3 220 875 222
3 277 874 877
3 277 275 874
3 878 277 877
3 879 876 220
3 880 277 878
3 219 879 220
3 219 881 879
3 279 880 882
3 279 277 880
3 883 881 219
3 884 279 882
3 217 883 219
3 217 885 883
3 217 886 885
3 281 887 888
3 281 884 887
3 281 279 884
3 889 281 888
3 216 886 217
3 216 890 886
3 216 891 890
3 283 889 892
3 283 281 889
3 893 283 892
3 213 891 216
3 213 894 891
3 213 895 894
3 284 893 896
3 284 283 893
3 284 896 897
3 898 284 897
3 210 895 213
3 210 899 895
3 210 900 899
3 286 284 898
3 286 901 902
3 286 898 901
3 205 900 210
3 205 903 900
3 205 904 903
3 288 286 902
3 288 905 906
3 288 907 905
3 288 902 907
3 204 904 205
3 204 908 904
3 204 772 908
3 290 288 906
3 290 909 777
3 290 906 909
3 910 337 911
3 337 326 911
3 911 326 325
3 911 325 912
3 912 325 327
3 912 327 913
3 913 327 328
3 913 328 914
3 915 914 329
3 914 328 329
3 916 915 330
3 915 329 330
3 320 321 917
3 918 916 331
3 916 330 331
3 917 919 322
3 320 917 322
3 920 918 332
3 918 331 332
3 919 921 336
3 322 919 336
3 922 920 333
3 920 332 333
3 921 923 335
3 336 921 335
3 923 922 334
3 922 333 334
3 335 923 334
3 321 159 552
3 917 321 552
3 221 324 323
3 770 592 221
3 592 324 221
3 910 338 153
3 337 910 153
3 553 911 912
3 554 553 912
3 555 912 913
3 555 913 914
3 555 554 912
3 556 555 914
3 557 914 915
3 557 556 914
3 558 915 916
3 558 916 918
3 558 557 915
3 559 558 918
3 560 918 920
3 560 559 918
3 561 920 922
3 561 922 923
3 561 560 920
3 562 561 923
3 563 923 921
3 563 562 923
3 564 921 919
3 564 563 921
3 552 919 917
3 552 564 919
3 553 338 910
3 553 910 911
3 592 770 771
3 592 771 603
3 643 768 735
3 643 769 768
3 236 769 643
3 603 771 236
3 643 603 236
3 676 682 924
3 676 924 925
3 671 676 925
3 702 696 926
3 671 925 927
3 660 664 928
3 702 926 929
3 671 927 928
3 664 671 928
3 708 702 930
3 660 928 931
3 702 929 930
3 654 660 932
3 710 708 933
3 660 931 932
3 708 930 933
3 648 654 934
3 641 648 934
3 715 710 935
3 654 932 934
3 717 715 935
3 710 933 935
3 632 641 936
3 641 934 936
3 719 717 937
3 717 935 937
3 623 632 938
3 632 936 938
3 728 719 939
3 719 937 939
3 623 938 940
3 731 728 941
3 728 939 941
3 617 623 942
3 618 617 942
3 623 940 942
3 731 941 943
3 640 618 944
3 618 942 944
3 734 731 945
3 739 734 945
3 639 640 946
3 731 943 945
3 640 944 946
3 621 639 947
3 740 739 948
3 739 945 948
3 639 946 947
3 748 740 949
3 621 947 950
3 740 948 949
3 620 621 951
3 626 620 951
3 748 949 952
3 621 950 951
3 749 748 952
3 637 626 953
3 626 951 953
3 749 952 954
3 753 749 954
3 637 953 955
3 646 637 955
3 753 954 956
3 567 753 956
3 646 955 957
3 567 956 958
3 565 567 958
3 646 957 959
3 651 646 959
3 657 651 959
3 565 958 960
3 657 959 961
3 582 565 962
3 596 582 962
3 663 657 963
3 565 960 962
3 657 961 963
3 605 596 964
3 669 663 965
3 596 962 964
3 675 669 965
3 663 963 965
3 609 605 966
3 675 965 967
3 680 675 967
3 605 964 966
3 685 680 968
3 609 966 969
3 680 967 968
3 629 609 970
3 689 685 971
3 636 629 970
3 685 968 971
3 609 969 970
3 693 689 972
3 689 971 972
3 636 970 973
3 696 693 974
3 693 972 974
3 696 974 926
3 647 636 975
3 652 647 975
3 636 973 975
3 659 652 976
3 652 975 976
3 659 976 977
3 667 659 978
3 674 667 978
3 659 977 978
3 674 978 979
3 681 674 980
3 686 681 980
3 674 979 980
3 686 980 981
3 694 686 982
3 686 981 982
3 732 694 983
3 694 982 983
3 745 732 984
3 758 745 984
3 732 983 984
3 758 984 985
3 763 758 986
3 758 985 986
3 575 763 987
3 576 575 987
3 763 986 987
3 576 987 988
3 576 988 989
3 581 576 989
3 587 581 990
3 606 587 990
3 581 989 990
3 606 990 991
3 606 991 992
3 613 606 992
3 613 992 993
3 616 613 993
3 616 993 994
3 622 616 994
3 627 622 994
3 627 994 995
3 627 995 996
3 631 627 996
3 631 996 997
3 635 631 997
3 638 635 997
3 638 997 998
3 638 998 999
3 633 638 999
3 633 999 1000
3 630 633 1000
3 630 1000 1001
3 625 630 1001
3 614 625 1001
3 614 1001 1002
3 611 614 1003
3 614 1002 1003
3 611 1003 1004
3 604 611 1004
3 593 604 1005
3 737 593 1005
3 604 1004 1005
3 727 737 1006
3 737 1005 1006
3 727 1006 1007
3 714 727 1008
3 727 1007 1008
3 700 714 1009
3 714 1008 1009
3 701 700 1010
3 707 701 1010
3 700 1009 1010
3 707 1010 1011
3 712 707 1012
3 720 712 1012
3 707 1011 1012
3 697 720 1013
3 720 1012 1013
3 697 1013 1014
3 697 1014 1015
3 690 697 1015
3 679 690 1015
3 679 1015 1016
3 679 1016 1017
3 670 679 1017
3 662 670 1017
3 662 1017 1018
3 658 662 1018
3 658 1018 1019
3 658 1019 1020
3 653 658 1020
3 650 653 1020
3 650 1020 1021
3 645 650 1021
3 645 1021 1022
3 634 645 1022
3 634 1022 1023
3 634 1023 1024
3 628 634 1024
3 628 1024 1025
3 619 628 1025
3 608 619 1025
3 608 1025 1026
3 599 608 1026
3 599 1026 1027
3 588 599 1027
3 588 1027 1028
3 588 1028 1029
3 569 588 1029
3 570 569 1029
3 570 1029 1030
3 746 570 1030
3 746 1030 1031
3 746 1031 1032
3 744 746 1032
3 743 744 1032
3 743 1032 1033
3 741 743 1033
3 741 1033 1034
3 738 741 1035
3 741 1034 1035
3 733 738 1035
3 733 1035 1036
3 733 1036 1037
3 730 733 1037
3 725 730 1038
3 722 725 1038
3 730 1037 1038
3 723 722 1039
3 722 1038 1039
3 723 1039 1040
3 724 723 1040
3 724 1040 1041
3 724 1041 1042
3 721 724 1042
3 705 721 1042
3 705 1042 1043
3 698 705 1043
3 698 1043 1044
3 695 698 1044
3 695 1044 1045
3 691 695 1045
3 691 1045 1046
3 691 1046 1047
3 687 691 1047
3 682 687 1047
3 682 1047 924
3 755 1048 1049
3 752 755 1049
3 747 752 1049
3 747 1049 1050
3 750 747 1050
3 760 757 1051
3 750 1050 1052
3 757 1053 1051
3 750 1052 1054
3 765 760 1055
3 751 750 1054
3 577 765 1055
3 760 1051 1055
3 751 1054 1056
3 754 751 1056
3 757 754 1056
3 577 1055 1057
3 757 1056 1053
3 578 577 1058
3 577 1057 1058
3 589 578 1059
3 578 1058 1059
3 600 589 1060
3 589 1059 1060
3 612 600 1061
3 610 612 1061
3 600 1060 1061
3 607 610 1062
3 610 1061 1062
3 607 1062 1063
3 597 607 1064
3 583 597 1064
3 607 1063 1064
3 583 1064 1065
3 583 1065 1066
3 584 583 1066
3 573 584 1066
3 573 1066 1067
3 573 1067 1068
3 574 573 1068
3 574 1068 1069
3 767 574 1069
3 566 767 1069
3 566 1069 1070
3 566 1070 1071
3 764 566 1071
3 759 764 1071
3 759 1071 1072
3 759 1072 1048
3 755 759 1048
3 711 1073 1074
3 706 711 1074
3 703 706 1074
3 703 1074 1075
3 699 703 1075
3 718 713 1076
3 699 1075 1077
3 713 1078 1076
3 699 1077 1079
3 726 718 1080
3 704 699 1079
3 729 726 1080
3 718 1076 1080
3 704 1079 1081
3 709 704 1081
3 713 709 1081
3 729 1080 1082
3 713 1081 1078
3 736 729 1083
3 729 1082 1083
3 594 736 1084
3 736 1083 1084
3 585 594 1085
3 594 1084 1085
3 586 585 1086
3 579 586 1086
3 585 1085 1086
3 580 579 1087
3 579 1086 1087
3 580 1087 1088
3 571 580 1089
3 572 571 1089
3 580 1088 1089
3 572 1089 1090
3 572 1090 1091
3 568 572 1091
3 766 568 1091
3 766 1091 1092
3 766 1092 1093
3 761 766 1093
3 761 1093 1094
3 762 761 1094
3 756 762 1094
3 756 1094 1095
3 756 1095 1096
3 742 756 1096
3 716 742 1096
3 716 1096 1097
3 716 1097 1073
3 711 716 1073
3 601 1098 1099
3 598 601 1099
3 590 598 1099
3 590 1099 1100
3 591 590 1100
3 649 642 1101
3 591 1100 1102
3 642 1103 1101
3 591 1102 1104
3 655 649 1105
3 595 591 1104
3 656 655 1105
3 649 1101 1105
3 595 1104 1106
3 624 595 1106
3 642 624 1106
3 656 1105 1107
3 642 1106 1103
3 661 656 1108
3 656 1107 1108
3 665 661 1109
3 661 1108 1109
3 666 665 1110
3 665 1109 1110
3 668 666 1111
3 672 668 1111
3 666 1110 1111
3 673 672 1112
3 672 1111 1112
3 673 1112 1113
3 677 673 1114
3 678 677 1114
3 673 1113 1114
3 678 1114 1115
3 678 1115 1116
3 683 678 1116
3 684 683 1116
3 684 1116 1117
3 684 1117 1118
3 688 684 1118
3 688 1118 1119
3 692 688 1119
3 644 692 1119
3 644 1119 1120
3 644 1120 1121
3 615 644 1121
3 602 615 1121
3 602 1121 1122
3 602 1122 1098
3 601 602 1098
3 1123 1124 798
3 1125 1123 798
3 1124 791 798
3 1125 798 800
3 1126 1125 807
3 1127 1128 773
3 1125 800 807
3 1128 772 773
3 1129 1126 809
3 1130 1127 774
3 1126 807 809
3 1127 773 774
3 1131 1129 817
3 1132 1131 817
3 1133 1130 788
3 1129 809 817
3 1130 774 788
3 1132 817 822
3 1134 1133 789
3 1133 788 789
3 1135 1132 829
3 1132 822 829
3 1134 789 796
3 1136 1134 796
3 1137 1135 831
3 1138 1137 831
3 1135 829 831
3 1136 796 797
3 1139 1136 797
3 1138 831 833
3 1139 797 803
3 1140 1139 803
3 1141 1138 835
3 1138 833 835
3 1140 803 804
3 1142 1140 804
3 1143 1141 837
3 1141 835 837
3 1142 804 806
3 1144 1142 806
3 1145 1143 839
3 1146 1145 839
3 1143 837 839
3 1144 806 813
3 1147 1144 813
3 1146 839 841
3 1147 813 814
3 1148 1147 814
3 1149 1146 843
3 1146 841 843
3 1148 814 819
3 1149 843 845
3 1150 1148 819
3 1151 1150 819
3 1152 1149 845
3 1153 1152 845
3 1153 845 847
3 1151 819 820
3 1154 1151 820
3 1153 847 849
3 1154 820 825
3 1155 1153 849
3 1155 849 851
3 1154 825 827
3 1156 1155 851
3 1157 1154 827
3 1158 1157 827
3 1156 851 853
3 1159 1156 853
3 1158 827 828
3 1160 1159 853
3 1160 853 855
3 1158 828 824
3 1161 1158 824
3 1160 855 857
3 1162 1160 857
3 1161 824 823
3 1163 1161 823
3 1164 1163 823
3 1162 857 859
3 1165 1162 859
3 1166 1165 859
3 1164 823 816
3 1166 859 861
3 1167 1164 815
3 1168 1167 815
3 1164 816 815
3 1166 861 863
3 1169 1166 863
3 1168 815 818
3 1169 863 865
3 1170 1169 865
3 1171 1168 811
3 1170 865 867
3 1168 818 811
3 1172 1170 867
3 1173 1172 867
3 1174 1171 810
3 1175 1174 810
3 1171 811 810
3 1173 867 869
3 1173 869 871
3 1175 810 802
3 1176 1173 871
3 1177 1176 871
3 1178 1175 801
3 1177 871 873
3 1179 1178 801
3 1175 802 801
3 1180 1177 875
3 1179 801 794
3 1177 873 875
3 1181 1180 876
3 1182 1181 876
3 1183 1179 793
3 1184 1183 793
3 1180 875 876
3 1179 794 793
3 1182 876 879
3 1184 793 795
3 1185 1182 881
3 1186 1185 881
3 1182 879 881
3 1187 1184 779
3 1184 795 779
3 1186 881 883
3 1188 1187 778
3 1189 1186 885
3 1187 779 778
3 1186 883 885
3 1190 1188 777
3 1191 1189 886
3 1188 778 777
3 1192 1191 886
3 1189 885 886
3 1190 777 909
3 1193 1190 909
3 1192 886 890
3 1194 1192 891
3 1193 909 906
3 1195 1193 906
3 1192 890 891
3 1196 1194 894
3 1195 906 905
3 1197 1196 894
3 1198 1195 905
3 1199 1198 905
3 1194 891 894
3 1197 894 895
3 1199 905 907
3 1200 1197 899
3 1199 907 902
3 1201 1199 902
3 1197 895 899
3 1200 899 900
3 1202 1200 900
3 1203 1202 900
3 1201 902 901
3 1204 1201 901
3 1203 900 903
3 1204 901 898
3 1205 1204 898
3 1203 903 904
3 1206 1203 904
3 1205 898 897
3 1206 904 908
3 1207 1205 897
3 1208 1206 908
3 1209 1207 897
3 1128 1208 908
3 1128 908 772
3 1209 897 896
3 1209 896 893
3 1210 1209 893
3 1210 893 892
3 1211 1210 892
3 1211 892 889
3 1212 1211 889
3 1212 889 888
3 1213 1212 888
3 1213 888 887
3 1214 1213 887
3 1215 1214 887
3 1215 887 884
3 1215 884 882
3 1216 1215 882
3 1216 882 880
3 1217 1216 880
3 1217 880 878
3 1218 1217 878
3 1218 878 877
3 1219 1218 877
3 1219 877 874
3 1220 1219 874
3 1220 874 872
3 1221 1220 872
3 1221 872 870
3 1222 1221 870
3 1223 1222 868
3 1222 870 868
3 1224 1223 868
3 1224 868 866
3 1224 866 864
3 1225 1224 864
3 1225 864 862
3 1226 1225 862
3 1226 862 860
3 1227 1226 860
3 1228 1227 860
3 1228 860 858
3 1228 858 856
3 1229 1228 856
3 1229 856 854
3 1230 1229 854
3 1230 854 852
3 1231 1230 852
3 1232 1231 850
3 1231 852 850
3 1233 1232 848
3 1232 850 848
3 1234 1233 846
3 1233 848 846
3 1235 1234 844
3 1236 1235 844
3 1234 846 844
3 1237 1236 842
3 1236 844 842
3 1237 842 840
3 1238 1237 838
3 1239 1238 838
3 1237 840 838
3 1239 838 836
3 1240 1239 834
3 1239 836 834
3 1241 1240 832
3 1240 834 832
3 1242 1241 830
3 1241 832 830
3 1243 1242 826
3 1242 830 826
3 1244 1243 821
3 1243 826 821
3 1245 1244 812
3 1244 821 812
3 1246 1245 808
3 1245 812 808
3 1247 1246 805
3 1248 1247 805
3 1246 808 805
3 1248 805 799
3 1249 1248 792
3 1248 799 792
3 1249 792 790
3 1250 1249 790
3 1250 790 786
3 1251 1250 786
3 1251 786 784
3 1252 1251 784
3 1252 784 782
3 1253 1252 782
3 1253 782 780
3 1254 1253 780
3 1255 1254 775
3 1254 780 775
3 1256 1255 775
3 1256 775 776
3 1257 1256 781
3 1256 776 781
3 1258 1257 783
3 1257 781 783
3 1259 1258 785
3 1260 1259 785
3 1258 783 785
3 1260 785 787
3 1124 1260 791
3 1260 787 791
3 1132 1041 1040
3 985 1201 1204
3 1131 1132 1040
3 986 985 1204
3 1136 1139 937
3 935 1136 937
3 1131 1040 1039
3 1129 1131 1039
3 1139 1140 939
3 1082 1007 1083
3 937 1139 939
3 1007 1006 1083
3 1129 1039 1038
3 1126 1129 1038
3 1140 1142 941
3 939 1140 941
3 1126 1038 1037
3 1125 1126 1037
3 1096 1095 1235
3 1142 1144 943
3 1097 1096 1235
3 1236 1097 1235
3 941 1142 943
3 1083 1006 1084
3 1125 1037 1036
3 1123 1125 1036
3 1144 1147 945
3 1147 1148 945
3 943 1144 945
3 1148 1150 948
3 945 1148 948
3 1124 1123 1035
3 1123 1036 1035
3 986 1204 1205
3 1124 1035 1034
3 987 986 1205
3 1260 1124 1034
3 948 1150 949
3 1150 1151 949
3 1151 1154 952
3 949 1151 952
3 1260 1034 1033
3 1259 1260 1033
3 1235 1095 1234
3 1259 1033 1032
3 1094 1093 1234
3 1258 1259 1032
3 1095 1094 1234
3 1258 1032 1257
3 1257 1032 1031
3 1156 1102 1100
3 1156 1159 1104
3 987 1205 1207
3 952 1154 1052
3 952 1052 1050
3 1092 1091 1233
3 1093 1092 1233
3 954 952 1050
3 1234 1093 1233
3 1154 1157 1054
3 1052 1154 1054
3 1102 1156 1104
3 954 1050 1049
3 987 1207 1209
3 956 954 1049
3 1155 1156 1099
3 988 987 1209
3 1156 1100 1099
3 1157 1158 1056
3 1054 1157 1056
3 1257 1031 1256
3 956 1049 1048
3 1233 1091 1232
3 1090 1089 1232
3 1091 1090 1232
3 1056 1158 1053
3 956 1048 1072
3 1104 1159 1106
3 1053 1158 1051
3 988 1209 1210
3 989 988 1210
3 956 1072 958
3 1256 1031 1030
3 1155 1099 1098
3 958 1072 1071
3 1106 1159 1103
3 1051 1158 1161
3 1159 1160 1103
3 1088 1087 1231
3 1089 1088 1231
3 1232 1089 1231
3 1051 1161 1055
3 958 1071 1070
3 989 1210 1211
3 1055 1161 1057
3 990 989 1211
3 1153 1155 1122
3 1057 1161 1058
3 1086 1085 1230
3 1087 1086 1230
3 1256 1030 1255
3 1155 1098 1122
3 1231 1087 1230
3 991 990 1212
3 1160 1162 1101
3 1070 1069 960
3 990 1211 1212
3 958 1070 960
3 1230 1085 1229
3 1069 1068 960
3 1255 1030 1029
3 1006 1005 1229
3 1084 1006 1229
3 1085 1084 1229
3 960 1068 1067
3 1103 1160 1101
3 992 991 1213
3 1176 1177 946
3 991 1212 1213
3 1229 1005 1228
3 1177 1180 947
3 1058 1161 1163
3 1059 1058 1163
3 1060 1059 1163
3 993 992 1214
3 992 1213 1214
3 946 1177 947
3 1005 1004 1227
3 1228 1005 1227
3 994 993 1215
3 1173 1176 944
3 1176 946 944
3 947 1180 950
3 1255 1029 1254
3 993 1214 1215
3 1180 1181 950
3 960 1067 962
3 1004 1003 1226
3 1227 1004 1226
3 1066 1065 962
3 1067 1066 962
3 1254 1029 1028
3 995 994 1216
3 1153 1122 1121
3 1061 1060 1164
3 994 1215 1216
3 1062 1061 1164
3 1060 1163 1164
3 1003 1002 1225
3 1170 1172 942
3 1226 1003 1225
3 1172 1173 942
3 962 1065 964
3 1173 944 942
3 996 995 1217
3 1181 1182 951
3 995 1216 1217
3 1065 1064 964
3 1028 1027 1253
3 1002 1001 1224
3 1254 1028 1253
3 1225 1002 1224
3 1063 1062 1167
3 950 1181 951
3 1062 1164 1167
3 996 1217 1218
3 1001 1000 1223
3 964 1064 966
3 1224 1001 1223
3 1169 1170 940
3 997 996 1219
3 1027 1026 1252
3 1253 1027 1252
3 996 1218 1219
3 1063 1167 1168
3 1170 942 940
3 966 1064 1168
3 1182 1185 953
3 1000 999 1222
3 1064 1063 1168
3 1223 1000 1222
3 998 997 1220
3 997 1219 1220
3 1252 1026 1251
3 998 1220 1221
3 951 1182 953
3 999 998 1221
3 1026 1025 1251
3 1222 999 1221
3 966 1168 1171
3 969 966 1171
3 1152 1153 1120
3 1153 1121 1120
3 1025 1024 1250
3 1251 1025 1250
3 1166 1169 938
3 1169 940 938
3 1185 1186 955
3 969 1171 1174
3 970 969 1174
3 1024 1023 1249
3 1250 1024 1249
3 953 1185 955
3 1152 1120 1119
3 970 1174 1175
3 973 970 1175
3 1249 1023 1248
3 1165 1166 936
3 1166 938 936
3 973 1175 1178
3 955 1186 957
3 1186 1189 957
3 975 973 1178
3 1023 1022 1247
3 1248 1023 1247
3 1149 1152 1118
3 1152 1119 1118
3 975 1178 1179
3 976 975 1179
3 1165 936 934
3 1162 1165 934
3 1022 1021 1246
3 1247 1022 1246
3 957 1189 959
3 1189 1191 959
3 1191 1192 959
3 976 1179 1183
3 977 976 1183
3 1021 1020 1245
3 1149 1118 1117
3 1246 1021 1245
3 977 1183 1184
3 978 977 1184
3 1020 1019 1244
3 1245 1020 1244
3 1101 1162 932
3 1105 1101 932
3 1107 1105 932
3 1162 934 932
3 959 1192 961
3 1192 1194 961
3 979 978 1187
3 978 1184 1187
3 1019 1018 1243
3 1244 1019 1243
3 979 1187 1188
3 1108 1107 931
3 1107 932 931
3 1018 1017 1242
3 1194 1196 963
3 1243 1018 1242
3 980 979 1190
3 961 1194 963
3 979 1188 1190
3 1109 1108 928
3 1242 1017 1241
3 1110 1109 928
3 1111 1110 928
3 1017 1016 1241
3 1108 931 928
3 1196 1197 965
3 980 1190 1193
3 981 980 1193
3 963 1196 965
3 1241 1016 1240
3 1016 1015 1240
3 1112 1111 927
3 1113 1112 927
3 1111 928 927
3 981 1193 1195
3 1197 1200 967
3 982 981 1195
3 965 1197 967
3 1114 1113 925
3 1115 1114 925
3 1113 927 925
3 1015 1014 1239
3 1240 1015 1239
3 1200 1202 968
3 967 1200 968
3 982 1195 1198
3 983 982 1198
3 1115 925 924
3 1116 1115 924
3 1117 1116 924
3 1239 1014 1238
3 1202 1203 971
3 968 1202 971
3 983 1198 1199
3 984 983 1199
3 1146 1149 1047
3 1149 1117 1047
3 1117 924 1047
3 1203 1206 972
3 971 1203 972
3 1010 1009 1077
3 1146 1047 1046
3 1014 1013 1237
3 1145 1146 1046
3 1238 1014 1237
3 1010 1077 1075
3 972 1206 974
3 1077 1009 1079
3 1206 1208 974
3 1011 1010 1074
3 1143 1145 1045
3 1010 1075 1074
3 1145 1046 1045
3 1128 1127 926
3 1079 1009 1081
3 1012 1011 1073
3 974 1208 926
3 1011 1074 1073
3 1208 1128 926
3 1009 1008 1078
3 1081 1009 1078
3 1141 1143 1044
3 984 1199 1201
3 1143 1045 1044
3 985 984 1201
3 1127 1130 929
3 926 1127 929
3 1138 1141 1043
3 1012 1073 1097
3 1141 1044 1043
3 1078 1008 1076
3 1130 1133 930
3 929 1130 930
3 1137 1138 1042
3 1138 1043 1042
3 1008 1007 1080
3 1133 1134 933
3 1076 1008 1080
3 1013 1012 1236
3 1237 1013 1236
3 1012 1097 1236
3 930 1133 933
3 1137 1042 1041
3 1080 1007 1082
3 1132 1135 1041
3 1135 1137 1041
3 1134 1136 935
3 933 1134 935
