ply
format ascii 1.0
comment Written by HALCON (export v1.0)
element vertex 499
property float x
property float y
property float z
element face 994
property list uchar int vertex_index
end_header
9.600000e-002 3.500000e-002 -5.150000e-002
9.600000e-002 4.100000e-002 -5.250000e-002
9.640000e-002 3.500000e-002 -5.150000e-002
9.600000e-002 2.300000e-002 -5.150000e-002
9.640000e-002 2.300000e-002 -5.150000e-002
9.600000e-002 3.500000e-002 -5.149300e-002
9.600000e-002 4.100000e-002 -5.249320e-002
9.640000e-002 4.100000e-002 -5.250000e-002
9.640000e-002 4.820000e-002 -5.450000e-002
9.640000e-002 4.100000e-002 -4.049820e-002
9.551690e-002 4.100000e-002 -4.048340e-002
9.531590e-002 4.100000e-002 -5.248170e-002
9.550010e-002 3.500000e-002 -4.148330e-002
9.533270e-002 3.500000e-002 -5.148190e-002
9.533270e-002 2.300000e-002 -5.148190e-002
9.600000e-002 2.300000e-002 -5.149300e-002
9.548310e-002 2.450000e-002 -4.250000e-002
9.534910e-002 2.450000e-002 -5.050000e-002
7.800000e-002 2.300000e-002 -5.150000e-002
9.640000e-002 9.000000e-003 -5.150000e-002
9.640000e-002 6.000000e-003 -5.450000e-002
7.800000e-002 9.000000e-003 -5.150000e-002
9.640000e-002 9.000000e-003 -4.150000e-002
9.640000e-002 6.000000e-003 -4.675000e-002
7.800000e-002 9.000000e-003 -4.150000e-002
7.800000e-002 1.000000e-002 -5.100000e-002
7.800000e-002 2.300000e-002 -4.150000e-002
9.549990e-002 2.100000e-002 -4.150000e-002
7.800000e-002 1.000000e-002 -4.180000e-002
7.800000e-002 2.250000e-002 -5.100000e-002
7.790000e-002 1.000000e-002 -5.100000e-002
7.800000e-002 2.250000e-002 -4.180000e-002
7.790000e-002 1.000000e-002 -4.180000e-002
7.790000e-002 2.250000e-002 -4.180000e-002
7.790000e-002 2.250000e-002 -5.100000e-002
7.800000e-002 2.300000e-002 -5.050000e-002
7.800000e-002 2.300000e-002 -4.250000e-002
9.548310e-002 2.300000e-002 -4.250000e-002
7.800000e-002 2.450000e-002 -4.250000e-002
7.800000e-002 2.450000e-002 -5.050000e-002
9.549990e-002 2.300000e-002 -4.150000e-002
9.534910e-002 2.300000e-002 -5.050000e-002
9.550010e-002 2.100000e-002 -4.148330e-002
9.640000e-002 3.500000e-002 -4.149830e-002
9.640000e-002 2.100000e-002 -4.149830e-002
9.640000e-002 2.100000e-002 -4.150000e-002
9.640000e-002 9.000000e-003 -3.725000e-002
9.640000e-002 2.300000e-002 -3.725000e-002
9.640000e-002 3.500000e-002 -3.725000e-002
9.640000e-002 4.100000e-002 -3.825000e-002
9.600000e-002 3.500000e-002 -3.725000e-002
9.600000e-002 4.100000e-002 -3.825000e-002
9.640000e-002 4.820000e-002 -1.000000e-002
9.640000e-002 4.100000e-002 -2.624820e-002
9.600000e-002 4.100000e-002 -3.824320e-002
9.600000e-002 2.300000e-002 -3.725000e-002
9.600000e-002 3.500000e-002 -3.724300e-002
9.551690e-002 4.100000e-002 -2.623340e-002
9.531590e-002 4.100000e-002 -3.823170e-002
9.600000e-002 2.300000e-002 -3.724300e-002
9.533270e-002 3.500000e-002 -3.723190e-002
7.800000e-002 2.300000e-002 -3.725000e-002
9.533270e-002 2.300000e-002 -3.723190e-002
7.800000e-002 2.300000e-002 -3.625000e-002
9.534910e-002 2.300000e-002 -3.625000e-002
9.534910e-002 2.450000e-002 -3.625000e-002
7.800000e-002 2.450000e-002 -3.625000e-002
7.800000e-002 2.250000e-002 -3.680000e-002
7.800000e-002 2.300000e-002 -2.825000e-002
9.548310e-002 2.450000e-002 -2.825000e-002
7.800000e-002 2.450000e-002 -2.825000e-002
7.800000e-002 2.300000e-002 -2.725000e-002
9.548310e-002 2.300000e-002 -2.825000e-002
7.800000e-002 2.250000e-002 -2.760000e-002
9.549990e-002 2.300000e-002 -2.725000e-002
9.550010e-002 3.500000e-002 -2.723330e-002
9.550010e-002 2.100000e-002 -2.723330e-002
9.549990e-002 2.100000e-002 -2.725000e-002
9.640000e-002 3.500000e-002 -2.724830e-002
9.640000e-002 3.500000e-002 -2.300000e-002
9.640000e-002 4.100000e-002 -2.400000e-002
9.640000e-002 2.300000e-002 -2.300000e-002
9.600000e-002 3.500000e-002 -2.300000e-002
9.600000e-002 4.100000e-002 -2.400000e-002
9.640000e-002 4.100000e-002 -1.199820e-002
9.600000e-002 4.100000e-002 -2.399320e-002
9.600000e-002 2.300000e-002 -2.300000e-002
9.600000e-002 3.500000e-002 -2.299300e-002
9.551690e-002 4.100000e-002 -1.198340e-002
9.531590e-002 4.100000e-002 -2.398170e-002
9.600000e-002 2.300000e-002 -2.299300e-002
9.533270e-002 3.500000e-002 -2.298190e-002
7.800000e-002 2.300000e-002 -2.300000e-002
9.533270e-002 2.300000e-002 -2.298190e-002
7.800000e-002 2.300000e-002 -2.200000e-002
9.534910e-002 2.300000e-002 -2.200000e-002
9.534910e-002 2.450000e-002 -2.200000e-002
9.548310e-002 2.450000e-002 -1.400000e-002
7.800000e-002 2.450000e-002 -2.200000e-002
7.800000e-002 2.450000e-002 -1.400000e-002
9.549990e-002 2.300000e-002 -1.300000e-002
9.550010e-002 3.500000e-002 -1.298330e-002
9.548310e-002 2.300000e-002 -1.400000e-002
7.800000e-002 2.300000e-002 -1.400000e-002
7.800000e-002 2.300000e-002 -1.300000e-002
7.800000e-002 2.250000e-002 -1.350000e-002
9.550010e-002 2.100000e-002 -1.298330e-002
9.549990e-002 2.100000e-002 -1.300000e-002
7.800000e-002 9.000000e-003 -1.300000e-002
7.800000e-002 1.000000e-002 -1.350000e-002
7.800000e-002 2.250000e-002 -2.270000e-002
7.790000e-002 2.250000e-002 -1.350000e-002
7.800000e-002 1.000000e-002 -2.270000e-002
7.790000e-002 2.250000e-002 -2.270000e-002
7.790000e-002 1.000000e-002 -2.270000e-002
7.790000e-002 1.000000e-002 -1.350000e-002
7.800000e-002 9.000000e-003 -2.300000e-002
9.640000e-002 9.000000e-003 -1.300000e-002
9.640000e-002 9.000000e-003 -2.300000e-002
9.640000e-002 9.000000e-003 -2.725000e-002
9.640000e-002 2.100000e-002 -2.724830e-002
9.640000e-002 6.000000e-003 -1.775000e-002
9.640000e-002 2.100000e-002 -2.725000e-002
7.800000e-002 9.000000e-003 -2.725000e-002
7.800000e-002 1.000000e-002 -2.760000e-002
7.800000e-002 9.000000e-003 -3.725000e-002
7.800000e-002 1.000000e-002 -3.680000e-002
7.790000e-002 1.000000e-002 -2.760000e-002
7.790000e-002 1.000000e-002 -3.680000e-002
7.790000e-002 2.250000e-002 -2.760000e-002
7.790000e-002 2.250000e-002 -3.680000e-002
6.800000e-002 6.000000e-003 -4.675000e-002
7.990000e-002 0.000000e+000 -4.675000e-002
7.990000e-002 0.000000e+000 -5.250000e-002
6.800000e-002 0.000000e+000 -4.675000e-002
7.550000e-002 0.000000e+000 -5.250000e-002
7.990000e-002 3.000000e-003 -5.250000e-002
7.990000e-002 0.000000e+000 -5.450000e-002
7.550000e-002 3.000000e-003 -5.250000e-002
7.550000e-002 3.000000e-003 -5.450000e-002
7.550000e-002 0.000000e+000 -5.450000e-002
7.150000e-002 0.000000e+000 -5.250000e-002
6.800000e-002 0.000000e+000 -5.250000e-002
7.150000e-002 0.000000e+000 -5.450000e-002
7.150000e-002 6.000000e-003 -5.250000e-002
6.800000e-002 6.000000e-003 -5.250000e-002
7.150000e-002 6.000000e-003 -5.450000e-002
3.540000e-002 6.000000e-003 -4.910000e-002
3.540000e-002 6.000000e-003 -5.450000e-002
3.390000e-002 6.000000e-003 -3.542000e-002
3.390000e-002 6.000000e-003 -4.910000e-002
3.390000e-002 0.000000e+000 -4.910000e-002
3.390000e-002 0.000000e+000 -3.542000e-002
1.500000e-002 0.000000e+000 -4.005000e-002
1.908000e-002 0.000000e+000 -5.240000e-002
3.390000e-002 0.000000e+000 -5.450000e-002
1.500000e-002 0.000000e+000 -3.542000e-002
1.000000e-002 0.000000e+000 -4.005000e-002
1.500000e-002 6.000000e-003 -3.855000e-002
1.408000e-002 0.000000e+000 -5.240000e-002
1.500000e-002 6.000000e-003 -3.542000e-002
1.000000e-002 6.000000e-003 -3.855000e-002
1.000000e-002 6.000000e-003 -2.015000e-002
1.500000e-002 6.000000e-003 -2.305000e-002
1.000000e-002 9.000000e-003 -3.725000e-002
1.000000e-002 9.000000e-003 -4.150000e-002
1.000000e-002 9.000000e-003 -2.725000e-002
1.000000e-002 2.100000e-002 -4.148490e-002
1.000000e-002 2.300000e-002 -3.725000e-002
2.849990e-002 9.000000e-003 -3.725000e-002
2.849990e-002 9.000000e-003 -2.725000e-002
2.849990e-002 2.300000e-002 -3.725000e-002
2.849990e-002 1.000000e-002 -3.680000e-002
1.090000e-002 2.100000e-002 -2.725000e-002
2.849990e-002 2.300000e-002 -2.725000e-002
2.849990e-002 1.000000e-002 -2.760000e-002
2.849990e-002 2.250000e-002 -3.680000e-002
2.849990e-002 2.250000e-002 -2.760000e-002
1.090000e-002 2.300000e-002 -2.725000e-002
2.849990e-002 2.300000e-002 -2.825000e-002
2.849990e-002 2.300000e-002 -3.625000e-002
1.088330e-002 2.300000e-002 -2.825000e-002
2.849990e-002 2.450000e-002 -2.825000e-002
1.088330e-002 2.450000e-002 -2.825000e-002
1.090000e-002 3.500000e-002 -2.725000e-002
1.073260e-002 3.500000e-002 -3.724860e-002
1.074930e-002 2.450000e-002 -3.625000e-002
2.849990e-002 2.450000e-002 -3.625000e-002
1.074930e-002 2.300000e-002 -3.625000e-002
1.073260e-002 2.300000e-002 -3.724860e-002
1.000000e-002 3.500000e-002 -3.723630e-002
1.000000e-002 2.300000e-002 -3.723630e-002
1.000000e-002 3.500000e-002 -4.148490e-002
1.000000e-002 4.100000e-002 -3.823650e-002
1.000000e-002 4.100000e-002 -4.048480e-002
1.090000e-002 3.500000e-002 -4.150000e-002
1.091670e-002 4.100000e-002 -4.050010e-002
1.000000e-002 2.100000e-002 -4.150000e-002
1.090000e-002 2.100000e-002 -4.150000e-002
1.000000e-002 9.000000e-003 -5.150000e-002
2.849990e-002 9.000000e-003 -4.150000e-002
1.090000e-002 2.300000e-002 -4.150000e-002
2.849990e-002 2.300000e-002 -4.150000e-002
2.849990e-002 9.000000e-003 -5.150000e-002
2.849990e-002 1.000000e-002 -4.180000e-002
2.849990e-002 1.000000e-002 -5.100000e-002
2.849990e-002 2.300000e-002 -4.250000e-002
2.849990e-002 2.250000e-002 -4.180000e-002
2.849990e-002 2.300000e-002 -5.150000e-002
2.849990e-002 2.250000e-002 -5.100000e-002
1.000000e-002 2.300000e-002 -5.150000e-002
1.073260e-002 2.300000e-002 -5.149860e-002
1.074930e-002 2.300000e-002 -5.050000e-002
2.849990e-002 2.300000e-002 -5.050000e-002
2.849990e-002 2.450000e-002 -5.050000e-002
2.849990e-002 2.450000e-002 -4.250000e-002
1.074930e-002 2.450000e-002 -5.050000e-002
1.088330e-002 2.450000e-002 -4.250000e-002
1.073260e-002 3.500000e-002 -5.149860e-002
1.088330e-002 2.300000e-002 -4.250000e-002
1.071580e-002 4.100000e-002 -5.249850e-002
1.000000e-002 4.100000e-002 -5.248650e-002
1.000000e-002 3.500000e-002 -5.148630e-002
1.000000e-002 4.820000e-002 -5.450000e-002
1.000000e-002 2.300000e-002 -5.148630e-002
1.000000e-002 0.000000e+000 -5.450000e-002
1.408000e-002 0.000000e+000 -5.450000e-002
1.408000e-002 3.000000e-003 -5.450000e-002
1.408000e-002 3.000000e-003 -5.240000e-002
1.908000e-002 3.000000e-003 -5.450000e-002
1.908000e-002 3.000000e-003 -5.240000e-002
1.908000e-002 0.000000e+000 -5.450000e-002
3.110000e-002 4.950000e-002 -5.450000e-002
2.395000e-002 4.950000e-002 -5.450000e-002
7.990000e-002 3.000000e-003 -5.450000e-002
7.630000e-002 4.950000e-002 -5.450000e-002
8.345000e-002 4.950000e-002 -5.450000e-002
9.000000e-002 4.884250e-002 -4.675000e-002
8.957140e-002 4.888550e-002 -4.849090e-002
9.000000e-002 4.884250e-002 -3.250000e-002
8.838370e-002 4.900470e-002 -4.983380e-002
8.949760e-002 3.000000e-002 -4.862500e-002
9.000000e-002 3.000000e-002 -4.675000e-002
8.812500e-002 3.000000e-002 -4.999760e-002
8.670820e-002 4.917290e-002 -5.047190e-002
8.437500e-002 3.000000e-002 -4.999760e-002
8.300240e-002 3.000000e-002 -4.862500e-002
8.625000e-002 3.000000e-002 -5.050000e-002
8.492800e-002 4.935160e-002 -5.025930e-002
8.260980e-002 4.950000e-002 -4.765080e-002
8.345000e-002 4.950000e-002 -4.924450e-002
8.250000e-002 3.000000e-002 -4.675000e-002
8.260980e-002 4.950000e-002 -4.584920e-002
8.300240e-002 3.000000e-002 -4.487500e-002
8.949760e-002 3.000000e-002 -4.487500e-002
8.345000e-002 4.950000e-002 -4.425550e-002
8.260980e-002 4.950000e-002 -3.340080e-002
8.437500e-002 3.000000e-002 -4.350240e-002
8.812500e-002 3.000000e-002 -4.350240e-002
8.957140e-002 4.888550e-002 -4.500910e-002
8.838370e-002 4.900470e-002 -4.366620e-002
8.957140e-002 4.888550e-002 -3.424090e-002
8.670820e-002 4.917290e-002 -4.302810e-002
8.838370e-002 4.900470e-002 -3.558380e-002
8.625000e-002 3.000000e-002 -4.300000e-002
8.492800e-002 4.935160e-002 -4.324070e-002
8.670820e-002 4.917290e-002 -3.622190e-002
8.492800e-002 4.935160e-002 -3.600930e-002
8.949760e-002 3.000000e-002 -3.437500e-002
8.812500e-002 3.000000e-002 -3.574760e-002
8.625000e-002 3.000000e-002 -3.625000e-002
8.437500e-002 3.000000e-002 -3.574760e-002
8.345000e-002 4.950000e-002 -3.499450e-002
9.000000e-002 3.000000e-002 -3.250000e-002
8.300240e-002 3.000000e-002 -3.437500e-002
8.250000e-002 3.000000e-002 -3.250000e-002
8.260980e-002 4.950000e-002 -3.159920e-002
8.300240e-002 3.000000e-002 -3.062500e-002
8.949760e-002 3.000000e-002 -3.062500e-002
8.345000e-002 4.950000e-002 -3.000550e-002
8.437500e-002 3.000000e-002 -2.925240e-002
8.812500e-002 3.000000e-002 -2.925240e-002
8.957140e-002 4.888550e-002 -3.075910e-002
8.838370e-002 4.900470e-002 -2.941620e-002
8.625000e-002 3.000000e-002 -2.875000e-002
8.670820e-002 4.917290e-002 -2.877810e-002
8.492800e-002 4.935160e-002 -2.899070e-002
8.838370e-002 4.900470e-002 -2.133380e-002
8.670820e-002 4.917290e-002 -2.197190e-002
8.492800e-002 4.935160e-002 -2.175930e-002
8.957140e-002 4.888550e-002 -1.999090e-002
8.949760e-002 3.000000e-002 -2.012500e-002
8.812500e-002 3.000000e-002 -2.149760e-002
8.625000e-002 3.000000e-002 -2.200000e-002
8.437500e-002 3.000000e-002 -2.149760e-002
8.345000e-002 4.950000e-002 -2.074450e-002
8.300240e-002 3.000000e-002 -2.012500e-002
8.260980e-002 4.950000e-002 -1.915080e-002
8.250000e-002 3.000000e-002 -1.825000e-002
9.000000e-002 3.000000e-002 -1.825000e-002
8.260980e-002 4.950000e-002 -1.734920e-002
7.630000e-002 4.950000e-002 -1.000000e-002
7.630000e-002 6.440000e-002 -5.450000e-002
6.559750e-002 6.600000e-002 -5.450000e-002
6.559750e-002 6.600000e-002 -4.350000e-002
7.630000e-002 6.440000e-002 -1.000000e-002
6.559750e-002 6.600000e-002 -4.650000e-002
3.110000e-002 6.600000e-002 -5.450000e-002
4.110260e-002 6.600000e-002 -4.650000e-002
6.254630e-002 6.997210e-002 -4.650000e-002
4.415370e-002 6.997210e-002 -4.650000e-002
4.110260e-002 6.600000e-002 -4.350000e-002
3.110000e-002 6.600000e-002 -1.000000e-002
4.110260e-002 6.600000e-002 -2.100000e-002
4.110260e-002 6.600000e-002 -1.800000e-002
6.559750e-002 6.600000e-002 -1.000000e-002
3.110000e-002 4.950000e-002 -1.000000e-002
6.559750e-002 6.600000e-002 -1.800000e-002
4.415370e-002 6.997210e-002 -1.800000e-002
4.415370e-002 6.997210e-002 -2.100000e-002
6.559750e-002 6.600000e-002 -2.100000e-002
6.254630e-002 6.997210e-002 -2.100000e-002
6.254630e-002 6.997210e-002 -4.350000e-002
4.415370e-002 6.997210e-002 -4.350000e-002
4.842510e-002 7.258780e-002 -4.350000e-002
5.827490e-002 7.258780e-002 -4.350000e-002
5.827490e-002 7.258780e-002 -4.650000e-002
4.842510e-002 7.258780e-002 -4.650000e-002
5.335000e-002 7.350000e-002 -4.350000e-002
5.335000e-002 7.350000e-002 -4.650000e-002
6.254630e-002 6.997210e-002 -1.800000e-002
5.827490e-002 7.258780e-002 -1.800000e-002
5.827490e-002 7.258780e-002 -2.100000e-002
4.842510e-002 7.258780e-002 -1.800000e-002
4.842510e-002 7.258780e-002 -2.100000e-002
5.335000e-002 7.350000e-002 -1.800000e-002
5.335000e-002 7.350000e-002 -2.100000e-002
8.345000e-002 4.950000e-002 -1.000000e-002
7.150000e-002 6.000000e-003 -1.000000e-002
8.300240e-002 3.000000e-002 -1.637500e-002
8.345000e-002 4.950000e-002 -1.575550e-002
8.437500e-002 3.000000e-002 -1.500240e-002
8.949760e-002 3.000000e-002 -1.637500e-002
8.812500e-002 3.000000e-002 -1.500240e-002
8.492800e-002 4.935160e-002 -1.474070e-002
8.625000e-002 3.000000e-002 -1.450000e-002
8.670820e-002 4.917290e-002 -1.452810e-002
8.838370e-002 4.900470e-002 -1.516620e-002
8.957140e-002 4.888550e-002 -1.650910e-002
9.640000e-002 6.000000e-003 -1.000000e-002
9.000000e-002 4.884250e-002 -1.825000e-002
9.640000e-002 3.500000e-002 -1.299830e-002
9.640000e-002 2.100000e-002 -1.299830e-002
9.640000e-002 2.100000e-002 -1.300000e-002
7.990000e-002 0.000000e+000 -1.000000e-002
3.540000e-002 6.000000e-003 -1.000000e-002
6.800000e-002 6.000000e-003 -1.200000e-002
7.150000e-002 6.000000e-003 -1.200000e-002
7.150000e-002 0.000000e+000 -1.200000e-002
7.150000e-002 0.000000e+000 -1.000000e-002
6.800000e-002 0.000000e+000 -1.200000e-002
7.990000e-002 0.000000e+000 -1.775000e-002
6.800000e-002 0.000000e+000 -1.775000e-002
6.800000e-002 6.000000e-003 -1.775000e-002
3.390000e-002 6.000000e-003 -2.305000e-002
3.540000e-002 6.000000e-003 -1.540000e-002
1.500000e-002 6.000000e-003 -2.015000e-002
3.390000e-002 0.000000e+000 -2.305000e-002
1.500000e-002 0.000000e+000 -2.305000e-002
1.500000e-002 0.000000e+000 -1.865000e-002
3.390000e-002 0.000000e+000 -1.540000e-002
1.000000e-002 0.000000e+000 -1.865000e-002
1.000000e-002 0.000000e+000 -1.000000e-002
3.390000e-002 0.000000e+000 -1.000000e-002
3.390000e-002 6.000000e-003 -1.540000e-002
1.000000e-002 4.820000e-002 -1.000000e-002
2.395000e-002 4.950000e-002 -1.000000e-002
2.399440e-002 4.950000e-002 -1.804570e-002
2.399440e-002 4.950000e-002 -1.845420e-002
2.399440e-002 4.950000e-002 -3.229570e-002
2.400000e-002 3.000000e-002 -1.825000e-002
2.395000e-002 4.950000e-002 -1.763970e-002
2.395000e-002 4.950000e-002 -1.886030e-002
2.395000e-002 4.950000e-002 -3.188970e-002
2.399440e-002 4.950000e-002 -3.270420e-002
2.400000e-002 3.000000e-002 -3.250000e-002
2.349760e-002 3.000000e-002 -3.062500e-002
2.321290e-002 4.943130e-002 -3.020130e-002
2.349760e-002 3.000000e-002 -2.012500e-002
2.321290e-002 4.943130e-002 -2.054870e-002
2.212500e-002 3.000000e-002 -2.925240e-002
2.176060e-002 4.929600e-002 -2.906770e-002
1.700240e-002 3.000000e-002 -3.062500e-002
1.650000e-002 3.000000e-002 -3.250000e-002
2.025000e-002 3.000000e-002 -2.875000e-002
1.837500e-002 3.000000e-002 -2.925240e-002
1.994380e-002 4.912670e-002 -2.876250e-002
2.176060e-002 4.929600e-002 -2.168230e-002
1.820090e-002 4.896420e-002 -2.935930e-002
1.695250e-002 4.884790e-002 -3.071420e-002
1.695250e-002 4.884790e-002 -2.003580e-002
1.820090e-002 4.896420e-002 -2.139070e-002
1.994380e-002 4.912670e-002 -2.198750e-002
2.212500e-002 3.000000e-002 -2.149760e-002
2.025000e-002 3.000000e-002 -2.200000e-002
1.837500e-002 3.000000e-002 -2.149760e-002
1.700240e-002 3.000000e-002 -2.012500e-002
1.650000e-002 3.000000e-002 -1.825000e-002
2.349760e-002 3.000000e-002 -1.637500e-002
1.650000e-002 4.880570e-002 -1.825000e-002
1.695250e-002 4.884790e-002 -1.646420e-002
1.700240e-002 3.000000e-002 -1.637500e-002
2.212500e-002 3.000000e-002 -1.500240e-002
2.321290e-002 4.943130e-002 -1.595130e-002
2.176060e-002 4.929600e-002 -1.481770e-002
2.025000e-002 3.000000e-002 -1.450000e-002
1.837500e-002 3.000000e-002 -1.500240e-002
1.820090e-002 4.896420e-002 -1.510930e-002
1.994380e-002 4.912670e-002 -1.451250e-002
1.650000e-002 4.880570e-002 -3.250000e-002
1.695250e-002 4.884790e-002 -3.428580e-002
1.650000e-002 4.880570e-002 -4.675000e-002
1.700240e-002 3.000000e-002 -3.437500e-002
1.837500e-002 3.000000e-002 -3.574760e-002
1.820090e-002 4.896420e-002 -3.564060e-002
2.349760e-002 3.000000e-002 -3.437500e-002
2.395000e-002 4.950000e-002 -3.311030e-002
2.321290e-002 4.943130e-002 -3.479870e-002
2.212500e-002 3.000000e-002 -3.574760e-002
2.395000e-002 4.950000e-002 -4.613970e-002
2.321290e-002 4.943130e-002 -4.445130e-002
2.399440e-002 4.950000e-002 -4.654580e-002
2.400000e-002 3.000000e-002 -4.675000e-002
2.349760e-002 3.000000e-002 -4.487500e-002
2.212500e-002 3.000000e-002 -4.350240e-002
2.176060e-002 4.929600e-002 -4.331770e-002
1.700240e-002 3.000000e-002 -4.487500e-002
1.650000e-002 3.000000e-002 -4.675000e-002
2.025000e-002 3.000000e-002 -4.300000e-002
1.837500e-002 3.000000e-002 -4.350240e-002
1.994380e-002 4.912670e-002 -4.301250e-002
2.176060e-002 4.929600e-002 -3.593230e-002
1.820090e-002 4.896420e-002 -4.360940e-002
1.695250e-002 4.884790e-002 -4.496420e-002
1.994380e-002 4.912670e-002 -3.623750e-002
2.025000e-002 3.000000e-002 -3.625000e-002
1.695250e-002 4.884790e-002 -4.853580e-002
1.700240e-002 3.000000e-002 -4.862500e-002
1.820090e-002 4.896420e-002 -4.989060e-002
1.837500e-002 3.000000e-002 -4.999760e-002
1.994380e-002 4.912670e-002 -5.048750e-002
2.025000e-002 3.000000e-002 -5.050000e-002
2.212500e-002 3.000000e-002 -4.999760e-002
2.349760e-002 3.000000e-002 -4.862500e-002
2.176060e-002 4.929600e-002 -5.018230e-002
2.321290e-002 4.943130e-002 -4.904870e-002
2.395000e-002 4.950000e-002 -4.736030e-002
2.399440e-002 4.950000e-002 -4.695430e-002
1.000000e-002 2.100000e-002 -1.298490e-002
1.000000e-002 4.100000e-002 -1.198480e-002
1.000000e-002 4.100000e-002 -2.400000e-002
1.000000e-002 4.100000e-002 -2.623480e-002
1.090840e-002 4.100000e-002 -1.200000e-002
1.000000e-002 3.500000e-002 -1.298490e-002
1.100000e-002 4.100000e-002 -1.200000e-002
1.100000e-002 3.500000e-002 -1.300000e-002
1.090000e-002 3.500000e-002 -1.300000e-002
1.100000e-002 4.100000e-002 -2.400000e-002
1.090000e-002 2.100000e-002 -1.300000e-002
1.100000e-002 2.100000e-002 -1.300000e-002
1.000000e-002 2.100000e-002 -1.300000e-002
1.000000e-002 9.000000e-003 -1.300000e-002
1.100000e-002 2.300000e-002 -1.300000e-002
2.849990e-002 9.000000e-003 -1.300000e-002
2.849990e-002 2.300000e-002 -1.300000e-002
1.000000e-002 9.000000e-003 -2.300000e-002
2.849990e-002 9.000000e-003 -2.300000e-002
2.849990e-002 1.000000e-002 -1.350000e-002
2.849990e-002 2.300000e-002 -1.400000e-002
2.849990e-002 2.250000e-002 -1.350000e-002
2.849990e-002 1.000000e-002 -2.270000e-002
2.849990e-002 2.300000e-002 -2.300000e-002
2.849990e-002 2.250000e-002 -2.270000e-002
2.849990e-002 2.300000e-002 -2.200000e-002
1.000000e-002 2.300000e-002 -2.300000e-002
1.100000e-002 2.300000e-002 -2.300000e-002
1.100000e-002 2.300000e-002 -2.200000e-002
2.849990e-002 2.450000e-002 -2.200000e-002
2.849990e-002 2.450000e-002 -1.400000e-002
1.100000e-002 2.450000e-002 -2.200000e-002
1.100000e-002 3.500000e-002 -2.300000e-002
1.100000e-002 2.450000e-002 -1.400000e-002
1.100000e-002 2.300000e-002 -1.400000e-002
1.000000e-002 3.500000e-002 -2.300000e-002
1.000000e-002 3.500000e-002 -2.723490e-002
1.000000e-002 2.100000e-002 -2.723490e-002
1.091670e-002 4.100000e-002 -2.625010e-002
1.071580e-002 4.100000e-002 -3.824850e-002
1.000000e-002 2.100000e-002 -2.725000e-002
3 0 1 2
3 3 0 4
3 0 2 4
3 0 5 6
3 0 3 5
3 6 1 0
3 1 7 2
3 7 1 6
3 4 2 7
3 7 8 4
3 8 7 9
3 9 7 6
3 9 6 10
3 6 11 10
3 11 6 5
3 10 12 9
3 12 10 13
3 10 11 13
3 13 11 5
3 14 13 15
3 13 5 15
3 12 13 16
3 13 14 17
3 13 17 16
3 3 15 5
3 14 15 3
3 3 4 18
3 18 14 3
3 19 4 20
3 4 8 20
3 18 4 21
3 4 19 21
3 22 19 23
3 19 20 23
3 21 19 22
3 24 21 22
3 18 21 25
3 21 24 25
3 26 24 27
3 24 22 27
3 28 24 26
3 24 28 25
3 18 25 29
3 30 25 28
3 29 25 30
3 26 31 28
3 32 30 28
3 32 28 33
3 28 31 33
3 34 29 30
3 34 30 32
3 33 34 32
3 34 33 29
3 33 31 29
3 35 29 36
3 35 18 29
3 36 29 31
3 26 36 31
3 36 26 37
3 36 37 38
3 38 39 36
3 36 39 35
3 16 37 40
3 26 40 37
3 37 16 38
3 39 38 17
3 38 16 17
3 39 17 35
3 14 41 17
3 17 41 35
3 18 35 14
3 35 41 14
3 40 12 16
3 40 42 12
3 40 27 42
3 40 26 27
3 12 42 43
3 12 43 9
3 42 44 43
3 44 42 45
3 42 27 45
3 22 45 27
3 44 45 22
3 46 44 22
3 46 47 44
3 47 43 44
3 48 9 43
3 43 47 48
3 8 9 49
3 9 48 49
3 50 51 48
3 51 49 48
3 50 48 47
3 49 52 8
3 52 49 53
3 53 49 54
3 49 51 54
3 54 51 50
3 55 50 47
3 50 56 54
3 50 55 56
3 53 54 57
3 54 58 57
3 58 54 56
3 55 59 56
3 60 56 59
3 60 58 56
3 55 47 61
3 61 62 55
3 62 59 55
3 62 60 59
3 61 63 62
3 63 64 62
3 60 62 65
3 62 64 65
3 65 64 63
3 66 65 63
3 63 67 68
3 63 61 67
3 68 66 63
3 60 65 69
3 66 70 65
3 70 69 65
3 70 66 68
3 68 71 72
3 68 72 70
3 71 68 73
3 68 67 73
3 72 69 70
3 74 75 69
3 75 60 69
3 69 72 74
3 71 74 72
3 74 76 75
3 74 77 76
3 74 71 77
3 75 76 78
3 57 75 53
3 75 78 53
3 75 57 60
3 57 58 60
3 79 53 78
3 79 80 53
3 80 52 53
3 78 81 79
3 82 83 79
3 83 80 79
3 82 79 81
3 52 80 84
3 84 80 85
3 80 83 85
3 85 83 82
3 86 82 81
3 82 87 85
3 82 86 87
3 84 85 88
3 85 89 88
3 89 85 87
3 86 90 87
3 91 87 90
3 91 89 87
3 86 81 92
3 92 93 86
3 93 90 86
3 93 91 90
3 92 94 93
3 94 95 93
3 91 93 96
3 93 95 96
3 96 95 94
3 91 96 97
3 98 99 96
3 99 97 96
3 98 96 94
3 100 101 97
3 101 91 97
3 97 102 100
3 102 97 99
3 103 102 99
3 103 99 98
3 103 98 94
3 103 104 102
3 103 105 104
3 94 105 103
3 104 100 102
3 100 106 101
3 100 107 106
3 107 100 104
3 104 108 107
3 108 104 109
3 104 105 109
3 94 110 105
3 111 105 110
3 109 105 111
3 110 94 92
3 92 112 110
3 113 110 114
3 110 112 114
3 113 111 110
3 115 109 111
3 111 113 115
3 113 114 115
3 115 114 109
3 114 112 109
3 92 116 112
3 116 109 112
3 116 108 109
3 108 116 117
3 116 118 117
3 92 81 116
3 81 118 116
3 119 118 120
3 121 118 119
3 121 117 118
3 118 81 120
3 81 78 120
3 120 122 119
3 76 120 78
3 120 76 122
3 76 77 122
3 119 122 77
3 71 123 77
3 123 119 77
3 71 73 124
3 124 123 71
3 123 125 119
3 125 123 126
3 123 124 126
3 127 128 124
3 128 126 124
3 127 124 129
3 124 73 129
3 129 73 67
3 130 129 67
3 129 130 127
3 130 128 127
3 130 67 128
3 67 126 128
3 61 125 126
3 61 126 67
3 61 47 125
3 47 46 125
3 125 46 119
3 23 46 22
3 23 119 46
3 119 23 121
3 121 23 131
3 132 23 133
3 23 20 133
3 131 23 132
3 134 132 135
3 132 133 135
3 134 131 132
3 136 133 137
3 136 138 133
3 138 135 133
3 20 137 133
3 138 139 135
3 139 140 135
3 134 135 141
3 135 140 141
3 141 142 134
3 131 134 142
3 140 143 141
3 144 141 143
3 144 145 141
3 145 142 141
3 143 140 139
3 146 143 139
3 146 144 143
3 144 146 145
3 131 145 147
3 146 148 145
3 145 148 147
3 145 131 142
3 131 147 149
3 147 150 149
3 151 147 148
3 147 151 150
3 151 152 150
3 152 149 150
3 153 152 151
3 151 154 153
3 151 155 154
3 155 151 148
3 153 156 152
3 152 156 149
3 153 157 158
3 154 159 153
3 159 157 153
3 156 153 158
3 160 156 158
3 156 160 149
3 157 161 158
3 160 158 161
3 160 161 162
3 162 163 160
3 163 149 160
3 164 161 165
3 164 166 161
3 166 162 161
3 165 161 157
3 165 167 164
3 167 168 164
3 169 170 164
3 170 166 164
3 169 164 171
3 164 168 171
3 170 169 172
3 169 171 172
3 166 170 173
3 170 174 173
3 174 170 175
3 170 172 175
3 171 176 172
3 176 177 172
3 177 175 172
3 174 175 177
3 174 178 173
3 174 179 178
3 177 179 174
3 179 177 176
3 180 176 171
3 179 176 180
3 179 181 178
3 180 182 179
3 182 183 179
3 183 181 179
3 178 183 184
3 184 173 178
3 178 181 183
3 183 185 184
3 183 186 185
3 182 187 183
3 187 186 183
3 180 187 182
3 188 180 171
3 180 188 187
3 188 186 187
3 186 189 185
3 186 188 189
3 189 188 171
3 171 168 189
3 185 189 190
3 189 191 190
3 168 191 189
3 168 167 192
3 168 190 191
3 192 190 168
3 185 190 193
3 193 190 194
3 190 192 194
3 195 196 192
3 196 194 192
3 195 192 167
3 165 197 167
3 198 195 167
3 167 197 198
3 199 165 157
3 165 200 198
3 198 197 165
3 200 165 199
3 195 198 201
3 200 202 198
3 202 201 198
3 203 200 199
3 202 200 204
3 200 203 205
3 200 205 204
3 202 206 201
3 202 204 207
3 207 206 202
3 207 204 205
3 203 208 205
3 208 209 205
3 209 207 205
3 203 199 208
3 199 210 208
3 211 212 208
3 212 213 208
3 208 210 211
3 213 209 208
3 206 209 213
3 206 207 209
3 213 212 214
3 213 215 206
3 213 214 215
3 216 212 211
3 212 216 214
3 215 214 217
3 214 216 217
3 215 217 206
3 201 217 195
3 217 218 195
3 217 216 218
3 201 219 217
3 217 219 206
3 216 211 218
3 220 218 221
3 218 222 221
3 218 211 222
3 218 220 195
3 220 196 195
3 220 221 196
3 194 221 223
3 221 210 223
3 221 222 210
3 221 194 196
3 222 224 210
3 211 224 222
3 210 224 211
3 225 210 199
3 210 225 223
3 199 157 225
3 226 225 159
3 225 157 159
3 223 225 227
3 225 226 227
3 226 159 227
3 159 228 227
3 159 154 228
3 223 227 229
3 227 228 229
3 228 230 229
3 154 230 228
3 155 231 154
3 154 231 230
3 231 229 230
3 229 148 223
3 231 155 229
3 229 155 148
3 232 148 146
3 233 148 232
3 223 148 233
3 234 146 139
3 146 235 232
3 146 20 236
3 234 20 146
3 146 236 235
3 234 139 138
3 234 137 20
3 136 234 138
3 234 136 137
3 20 8 236
3 237 238 8
3 8 239 237
3 52 239 8
3 238 240 8
3 240 236 8
3 241 240 238
3 238 242 241
3 238 237 242
3 241 243 240
3 243 244 240
3 240 244 236
3 245 243 241
3 241 246 245
3 246 241 242
3 244 243 247
3 245 247 243
3 247 248 244
3 244 248 236
3 235 236 249
3 236 250 249
3 248 250 236
3 247 245 248
3 245 250 248
3 250 245 246
3 246 249 250
3 246 251 249
3 251 246 242
3 251 252 249
3 235 249 252
3 252 251 253
3 254 253 251
3 251 242 254
3 253 255 252
3 252 256 235
3 252 255 256
3 253 257 255
3 254 258 253
3 258 257 253
3 254 259 260
3 254 242 259
3 260 258 254
3 242 237 259
3 260 259 261
3 261 259 237
3 258 260 262
3 263 262 260
3 260 261 263
3 264 258 262
3 264 257 258
3 264 262 265
3 263 266 262
3 266 267 262
3 267 265 262
3 268 263 261
3 268 269 263
3 269 266 263
3 270 267 266
3 266 269 270
3 270 271 267
3 271 272 267
3 267 272 265
3 271 270 269
3 271 269 268
3 261 273 268
3 268 274 271
3 274 268 273
3 272 271 274
3 274 256 272
3 255 272 256
3 272 255 265
3 274 275 256
3 275 274 273
3 275 276 256
3 256 276 235
3 276 275 277
3 278 277 275
3 275 273 278
3 277 279 276
3 277 280 279
3 278 281 277
3 281 280 277
3 278 282 283
3 278 273 282
3 283 281 278
3 284 281 285
3 281 283 285
3 284 280 281
3 286 280 284
3 280 286 279
3 284 285 286
3 287 285 283
3 287 288 285
3 288 289 285
3 289 286 285
3 283 290 287
3 283 282 290
3 291 287 290
3 291 292 287
3 292 288 287
3 293 289 288
3 288 292 293
3 293 294 289
3 294 295 289
3 289 295 286
3 295 279 286
3 296 297 295
3 295 294 296
3 276 295 297
3 276 279 295
3 294 292 291
3 294 293 292
3 291 296 294
3 296 298 297
3 298 296 299
3 296 291 299
3 298 300 297
3 297 301 276
3 297 300 301
3 276 301 235
3 235 301 302
3 232 235 303
3 235 302 303
3 304 302 305
3 304 306 302
3 306 303 302
3 301 305 302
3 307 303 308
3 303 306 308
3 307 232 303
3 309 306 304
3 306 309 310
3 310 308 306
3 307 308 311
3 311 308 310
3 312 307 311
3 232 307 312
3 313 312 311
3 313 314 312
3 314 315 312
3 316 312 315
3 316 232 312
3 317 315 314
3 317 314 318
3 318 314 319
3 314 313 319
3 305 315 317
3 316 315 301
3 315 305 301
3 305 317 320
3 320 304 305
3 311 320 313
3 311 304 320
3 313 320 321
3 321 320 317
3 322 304 311
3 309 304 322
3 311 323 322
3 310 323 311
3 323 324 322
3 324 325 322
3 322 326 309
3 326 322 325
3 309 326 310
3 310 327 323
3 326 327 310
3 327 324 323
3 328 325 324
3 328 324 327
3 329 325 328
3 329 326 325
3 329 327 326
3 328 327 329
3 330 317 318
3 321 317 330
3 330 318 331
3 330 332 321
3 330 331 332
3 318 333 331
3 333 318 334
3 318 319 334
3 333 335 331
3 336 331 335
3 331 336 332
3 321 332 334
3 332 336 334
3 319 321 334
3 319 313 321
3 335 334 336
3 335 333 334
3 300 337 301
3 301 338 316
3 301 337 338
3 339 340 300
3 300 298 339
3 340 337 300
3 339 341 340
3 342 339 298
3 342 343 339
3 343 341 339
3 341 344 340
3 340 344 337
3 344 341 345
3 345 341 343
3 345 343 346
3 347 343 342
3 343 347 346
3 342 348 347
3 342 299 348
3 298 299 342
3 52 347 348
3 52 337 347
3 337 346 347
3 345 346 344
3 344 346 337
3 337 349 338
3 337 52 349
3 349 52 84
3 348 350 52
3 350 239 52
3 299 350 348
3 290 299 291
3 290 350 299
3 350 290 239
3 261 239 273
3 273 239 282
3 290 282 239
3 239 261 237
3 349 84 351
3 88 101 84
3 101 351 84
3 351 352 349
3 101 106 351
3 106 352 351
3 101 88 91
3 88 89 91
3 352 117 349
3 352 353 117
3 352 106 353
3 349 117 121
3 349 121 354
3 349 354 338
3 108 117 107
3 117 353 107
3 106 107 353
3 355 338 356
3 338 357 356
3 357 338 358
3 338 359 358
3 354 359 338
3 338 355 316
3 356 357 360
3 357 358 360
3 358 354 361
3 358 359 354
3 358 362 360
3 361 362 358
3 360 362 356
3 362 361 363
3 362 363 356
3 121 361 354
3 361 121 363
3 363 121 131
3 364 365 363
3 363 149 364
3 363 131 149
3 365 356 363
3 149 163 364
3 162 366 163
3 364 163 367
3 163 368 367
3 368 163 366
3 366 162 369
3 369 368 366
3 367 368 369
3 370 367 369
3 364 367 370
3 162 371 369
3 370 369 372
3 369 371 372
3 372 373 370
3 374 364 370
3 370 365 374
3 370 373 365
3 373 355 365
3 373 372 355
3 364 374 365
3 365 355 356
3 372 375 355
3 375 376 355
3 355 376 316
3 316 377 378
3 316 376 377
3 316 379 232
3 378 379 316
3 378 377 380
3 377 381 380
3 376 381 377
3 378 380 382
3 382 383 378
3 378 383 379
3 384 379 385
3 379 383 385
3 232 379 384
3 383 386 385
3 386 383 387
3 387 383 382
3 380 388 382
3 388 389 382
3 387 382 389
3 390 387 391
3 390 386 387
3 389 391 387
3 386 392 393
3 386 390 392
3 393 385 386
3 391 394 390
3 394 395 390
3 390 395 392
3 394 391 396
3 396 391 397
3 391 389 397
3 395 394 396
3 395 396 398
3 398 392 395
3 393 392 399
3 392 398 399
3 399 398 400
3 401 398 396
3 398 401 400
3 402 396 397
3 402 401 396
3 403 397 389
3 403 404 397
3 404 402 397
3 405 401 402
3 402 404 405
3 405 406 401
3 406 400 401
3 405 403 388
3 405 404 403
3 388 406 405
3 389 388 403
3 406 388 380
3 400 406 407
3 407 406 380
3 381 408 380
3 407 380 408
3 409 407 410
3 407 411 410
3 409 400 407
3 408 411 407
3 412 408 413
3 408 381 413
3 408 412 411
3 413 381 376
3 412 413 414
3 414 413 376
3 414 415 412
3 415 416 412
3 412 416 411
3 417 411 416
3 411 417 410
3 416 418 417
3 416 415 418
3 415 414 418
3 418 414 376
3 417 418 376
3 417 376 375
3 410 417 375
3 409 410 375
3 419 400 409
3 409 375 419
3 419 399 400
3 419 393 399
3 419 420 393
3 419 375 223
3 419 421 420
3 223 421 419
3 420 422 393
3 393 422 385
3 423 422 424
3 422 420 424
3 425 422 423
3 422 425 385
3 384 385 426
3 385 425 426
3 427 425 428
3 425 427 426
3 423 428 425
3 426 429 384
3 430 426 427
3 430 429 426
3 384 431 232
3 384 429 431
3 431 429 432
3 429 433 432
3 433 429 430
3 434 430 435
3 434 433 430
3 427 435 430
3 433 436 437
3 433 434 436
3 437 432 433
3 435 438 434
3 438 439 434
3 434 439 436
3 438 435 440
3 427 441 435
3 441 440 435
3 439 438 440
3 439 440 442
3 442 436 439
3 437 436 443
3 436 442 443
3 443 442 420
3 442 424 420
3 424 442 440
3 441 444 440
3 444 424 440
3 428 441 427
3 428 445 441
3 445 444 441
3 423 424 444
3 444 445 423
3 423 445 428
3 420 421 443
3 421 437 443
3 421 446 437
3 223 446 421
3 446 447 437
3 437 447 432
3 447 446 448
3 448 446 223
3 193 194 223
3 193 223 375
3 448 223 233
3 449 448 450
3 449 447 448
3 450 448 233
3 450 451 449
3 449 452 453
3 449 451 452
3 453 447 449
3 451 450 454
3 454 450 233
3 452 451 454
3 452 454 455
3 455 453 452
3 432 453 456
3 453 455 456
3 447 453 432
3 233 455 454
3 233 456 455
3 457 432 456
3 457 456 233
3 457 431 432
3 232 431 457
3 457 233 232
3 458 459 375
3 375 372 458
3 460 461 375
3 461 193 375
3 375 459 460
3 460 459 462
3 459 463 462
3 458 463 459
3 464 462 465
3 462 466 465
3 464 467 462
3 467 460 462
3 463 466 462
3 466 463 458
3 468 469 466
3 469 465 466
3 468 466 458
3 468 458 470
3 372 471 458
3 471 470 458
3 470 469 468
3 469 470 471
3 465 469 472
3 471 473 469
3 473 474 469
3 474 472 469
3 372 371 471
3 371 162 471
3 162 475 471
3 473 471 475
3 476 473 475
3 474 473 477
3 473 476 477
3 474 478 472
3 478 474 479
3 474 477 479
3 476 480 477
3 479 477 480
3 476 475 481
3 480 476 481
3 481 482 480
3 482 479 480
3 478 479 483
3 483 479 482
3 481 483 482
3 475 484 481
3 483 481 485
3 481 484 485
3 486 483 485
3 483 486 487
3 487 488 483
3 483 488 478
3 486 485 489
3 489 485 490
3 485 484 490
3 486 489 487
3 488 487 491
3 487 489 491
3 488 491 478
3 490 465 491
3 465 472 491
3 472 492 491
3 491 489 490
3 491 492 478
3 478 492 472
3 493 460 490
3 460 467 490
3 490 467 465
3 484 493 490
3 467 464 465
3 494 493 484
3 494 461 493
3 461 460 493
3 484 495 494
3 495 484 475
3 184 496 494
3 496 461 494
3 184 494 495
3 193 461 496
3 497 193 496
3 497 496 184
3 173 184 495
3 185 497 184
3 497 185 193
3 495 498 173
3 166 495 475
3 166 498 495
3 475 162 166
3 173 498 166
3 265 257 264
3 257 265 255
3 206 219 201
