ply
format ascii 1.0
comment Written by HALCON (export v1.0)
element vertex 66
property float x
property float y
property float z
element face 128
property list uchar int vertex_index
end_header
4.500000e-003 7.950000e-003 0.000000e+000
4.500000e-003 7.950000e-003 1.200000e-001
3.897538e-003 6.708644e-003 1.200000e-001
3.897538e-003 6.708644e-003 0.000000e+000
3.398974e-003 5.422037e-003 1.200000e-001
3.398974e-003 5.422037e-003 0.000000e+000
3.007670e-003 4.098856e-003 1.200000e-001
3.007670e-003 4.098856e-003 0.000000e+000
2.726267e-003 2.748028e-003 0.000000e+000
2.726267e-003 2.748028e-003 1.200000e-001
2.556662e-003 1.378664e-003 0.000000e+000
2.556662e-003 1.378664e-003 1.200000e-001
2.500000e-003 0.000000e+000 1.200000e-001
2.500000e-003 0.000000e+000 0.000000e+000
2.556662e-003 -1.378664e-003 0.000000e+000
2.556662e-003 -1.378664e-003 1.200000e-001
2.726267e-003 -2.748028e-003 0.000000e+000
2.726267e-003 -2.748028e-003 1.200000e-001
3.007670e-003 -4.098856e-003 1.200000e-001
3.007670e-003 -4.098856e-003 0.000000e+000
3.398974e-003 -5.422037e-003 0.000000e+000
3.398974e-003 -5.422037e-003 1.200000e-001
3.897538e-003 -6.708644e-003 0.000000e+000
3.897538e-003 -6.708644e-003 1.200000e-001
4.500000e-003 -7.950000e-003 0.000000e+000
4.500000e-003 -7.950000e-003 1.200000e-001
-4.500000e-003 -7.950000e-003 1.200000e-001
-4.500000e-003 -7.950000e-003 0.000000e+000
-3.897538e-003 -6.708644e-003 1.200000e-001
-3.897538e-003 -6.708644e-003 0.000000e+000
-3.398974e-003 -5.422037e-003 1.200000e-001
-3.398974e-003 -5.422037e-003 0.000000e+000
-3.007670e-003 -4.098856e-003 1.200000e-001
-3.007670e-003 -4.098856e-003 0.000000e+000
-2.726267e-003 -2.748028e-003 0.000000e+000
-2.726267e-003 -2.748028e-003 1.200000e-001
-2.556662e-003 -1.378664e-003 0.000000e+000
-2.556662e-003 -1.378664e-003 1.200000e-001
-2.500000e-003 0.000000e+000 1.200000e-001
-2.500000e-003 0.000000e+000 0.000000e+000
-2.556662e-003 1.378664e-003 0.000000e+000
-2.556662e-003 1.378664e-003 1.200000e-001
-2.726267e-003 2.748028e-003 0.000000e+000
-2.726267e-003 2.748028e-003 1.200000e-001
-3.007670e-003 4.098856e-003 1.200000e-001
-3.007670e-003 4.098856e-003 0.000000e+000
-3.398974e-003 5.422037e-003 0.000000e+000
-3.398974e-003 5.422037e-003 1.200000e-001
-3.897538e-003 6.708644e-003 0.000000e+000
-3.897538e-003 6.708644e-003 1.200000e-001
-4.500000e-003 7.950000e-003 1.200000e-001
-4.500000e-003 7.950000e-003 0.000000e+000
3.432757e-003 8.426026e-003 0.000000e+000
3.432757e-003 8.426026e-003 1.200000e-001
2.316247e-003 8.771011e-003 1.200000e-001
2.316247e-003 8.771011e-003 0.000000e+000
1.166494e-003 8.980001e-003 1.200000e-001
1.166494e-003 8.980001e-003 0.000000e+000
0.000000e+000 9.050000e-003 1.200000e-001
0.000000e+000 9.050000e-003 0.000000e+000
-1.166494e-003 8.980001e-003 1.200000e-001
-1.166494e-003 8.980001e-003 0.000000e+000
-2.316247e-003 8.771011e-003 1.200000e-001
-2.316247e-003 8.771011e-003 0.000000e+000
-3.432757e-003 8.426026e-003 1.200000e-001
-3.432757e-003 8.426026e-003 0.000000e+000
3 0 1 2
3 3 2 4
3 3 0 2
3 5 4 6
3 5 3 4
3 7 5 6
3 8 6 9
3 8 7 6
3 10 9 11
3 10 11 12
3 10 8 9
3 13 10 12
3 14 12 15
3 14 13 12
3 16 15 17
3 16 17 18
3 16 14 15
3 19 16 18
3 20 18 21
3 20 19 18
3 22 21 23
3 22 20 21
3 24 23 25
3 24 22 23
3 26 27 24
3 25 26 24
3 27 26 28
3 29 28 30
3 29 27 28
3 31 30 32
3 31 29 30
3 33 31 32
3 34 32 35
3 34 33 32
3 36 35 37
3 36 37 38
3 36 34 35
3 39 36 38
3 40 38 41
3 40 39 38
3 42 41 43
3 42 43 44
3 42 40 41
3 45 42 44
3 46 44 47
3 46 45 44
3 48 47 49
3 48 49 50
3 48 46 47
3 51 48 50
3 1 0 52
3 53 1 52
3 54 53 55
3 53 52 55
3 56 54 57
3 54 55 57
3 58 56 59
3 56 57 59
3 60 58 61
3 58 59 61
3 62 60 63
3 60 61 63
3 64 62 65
3 62 63 65
3 50 64 51
3 64 65 51
3 63 46 48
3 63 61 46
3 65 63 48
3 51 65 48
3 27 22 24
3 29 20 22
3 29 22 27
3 31 19 20
3 31 20 29
3 33 16 19
3 33 19 31
3 34 14 16
3 34 16 33
3 36 13 14
3 36 14 34
3 39 10 13
3 39 13 36
3 40 8 10
3 40 10 39
3 52 0 3
3 42 7 8
3 42 8 40
3 55 3 5
3 55 52 3
3 45 7 42
3 57 55 5
3 59 5 7
3 59 45 46
3 59 7 45
3 59 57 5
3 61 59 46
3 49 47 62
3 47 60 62
3 49 62 64
3 49 64 50
3 25 23 26
3 23 21 28
3 26 23 28
3 21 18 30
3 28 21 30
3 18 17 32
3 30 18 32
3 17 15 35
3 32 17 35
3 15 12 37
3 35 15 37
3 12 11 38
3 37 12 38
3 11 9 41
3 38 11 41
3 2 1 53
3 9 6 43
3 41 9 43
3 4 2 54
3 2 53 54
3 43 6 44
3 4 54 56
3 6 4 58
3 47 44 58
3 44 6 58
3 4 56 58
3 47 58 60
