ply
format ascii 1.0
comment Written by HALCON (export v1.0)
element vertex 1158
property float x
property float y
property float z
element face 2380
property list uchar int vertex_index
end_header
3.800000e-002 1.010000e-001 -3.680000e-002
4.000000e-002 1.010000e-001 -3.680000e-002
4.000000e-002 0.000000e+000 -3.680000e-002
3.800000e-002 0.000000e+000 -3.680000e-002
4.000000e-002 1.380000e-001 0.000000e+000
3.800000e-002 1.380000e-001 0.000000e+000
4.000000e-002 0.000000e+000 0.000000e+000
3.800000e-002 0.000000e+000 0.000000e+000
4.000000e-002 9.750205e-002 -2.748929e-002
4.000000e-002 9.268824e-002 -2.437738e-002
4.000000e-002 9.709881e-002 -2.791871e-002
4.000000e-002 9.318192e-002 -2.313049e-002
4.000000e-002 1.709881e-002 -3.068130e-002
4.000000e-002 0.000000e+000 -3.680000e-002
4.000000e-002 1.750205e-002 -3.111071e-002
4.000000e-002 5.681502e-002 -2.843491e-002
4.000000e-002 4.105932e-002 -2.816788e-002
4.000000e-002 4.127617e-002 -2.871558e-002
4.000000e-002 1.799942e-002 -3.142634e-002
4.000000e-002 5.666853e-002 -2.900547e-002
4.000000e-002 1.681503e-002 -3.016509e-002
4.000000e-002 1.010593e-001 -3.043212e-002
4.000000e-002 1.007131e-001 -3.090869e-002
4.000000e-002 1.010000e-001 -3.680000e-002
4.000000e-002 1.855965e-002 -3.160838e-002
4.000000e-002 9.799942e-002 -2.717366e-002
4.000000e-002 5.709881e-002 -2.791871e-002
4.000000e-002 4.071308e-002 -2.769131e-002
4.000000e-002 1.666853e-002 -2.959453e-002
4.000000e-002 1.012762e-001 -2.988442e-002
4.000000e-002 1.914756e-002 -3.164536e-002
4.000000e-002 1.666853e-002 -2.900547e-002
4.000000e-002 9.855966e-002 -2.699162e-002
4.000000e-002 9.335000e-002 -2.180000e-002
4.000000e-002 1.681503e-002 -2.843491e-002
4.000000e-002 9.914756e-002 -2.695464e-002
4.000000e-002 9.318192e-002 -2.046951e-002
4.000000e-002 9.972619e-002 -2.706502e-002
4.000000e-002 4.730206e-002 -1.101071e-002
4.000000e-002 3.368824e-002 -1.922262e-002
4.000000e-002 3.418192e-002 -2.046951e-002
4.000000e-002 8.730206e-002 -1.101071e-002
4.000000e-002 8.572208e-002 -1.695918e-002
4.000000e-002 8.699752e-002 -1.654476e-002
4.000000e-002 8.689881e-002 -1.058130e-002
4.000000e-002 8.458978e-002 -1.767775e-002
4.000000e-002 4.689881e-002 -1.058130e-002
4.000000e-002 6.898810e-003 -1.058130e-002
4.000000e-002 7.302053e-003 -1.101071e-002
4.000000e-002 4.779942e-002 -1.132634e-002
4.000000e-002 3.972619e-002 -2.706502e-002
4.000000e-002 8.779941e-002 -1.132634e-002
4.000000e-002 8.661503e-002 -1.006509e-002
4.000000e-002 7.107617e-002 -9.784421e-003
4.000000e-002 4.025919e-002 -2.731583e-002
4.000000e-002 7.799418e-003 -1.132634e-002
4.000000e-002 6.615025e-003 -1.006509e-002
4.000000e-002 8.835965e-002 -1.150838e-002
4.000000e-002 4.661502e-002 -1.006509e-002
4.000000e-002 3.289998e-002 -1.813767e-002
4.000000e-002 8.359654e-003 -1.150838e-002
4.000000e-002 8.833593e-002 -1.646056e-002
4.000000e-002 3.107617e-002 -9.784421e-003
4.000000e-002 1.709881e-002 -2.791871e-002
4.000000e-002 4.835965e-002 -1.150838e-002
4.000000e-002 8.646853e-002 -9.494534e-003
4.000000e-002 7.115000e-002 -9.200000e-003
4.000000e-002 8.894756e-002 -1.154536e-002
4.000000e-002 8.965325e-002 -1.671185e-002
4.000000e-002 8.947558e-003 -1.154536e-002
4.000000e-002 1.750205e-002 -2.748929e-002
4.000000e-002 4.646853e-002 -9.494534e-003
4.000000e-002 3.115000e-002 -9.200000e-003
4.000000e-002 8.646853e-002 -8.905467e-003
4.000000e-002 7.107617e-002 -8.615579e-003
4.000000e-002 4.894756e-002 -1.154536e-002
4.000000e-002 9.526189e-003 -1.143498e-002
4.000000e-002 8.952619e-002 -1.143498e-002
4.000000e-002 1.799942e-002 -2.717366e-002
4.000000e-002 5.750205e-002 -2.748929e-002
4.000000e-002 4.646853e-002 -8.905467e-003
4.000000e-002 3.107617e-002 -8.615579e-003
4.000000e-002 8.661503e-002 -8.334908e-003
4.000000e-002 7.085932e-002 -8.067879e-003
4.000000e-002 4.952619e-002 -1.143498e-002
4.000000e-002 1.005919e-002 -1.118417e-002
4.000000e-002 5.799942e-002 -2.717366e-002
4.000000e-002 4.661502e-002 -8.334908e-003
4.000000e-002 3.085932e-002 -8.067879e-003
4.000000e-002 9.005920e-002 -1.118417e-002
4.000000e-002 9.086668e-002 -1.728285e-002
4.000000e-002 8.689881e-002 -7.818705e-003
4.000000e-002 7.051308e-002 -7.591314e-003
4.000000e-002 5.005919e-002 -1.118417e-002
4.000000e-002 2.558978e-002 -2.592224e-002
4.000000e-002 2.127617e-002 -2.871558e-002
4.000000e-002 2.135000e-002 -2.930000e-002
4.000000e-002 2.105932e-002 -2.816788e-002
4.000000e-002 9.051308e-002 -1.080868e-002
4.000000e-002 5.855965e-002 -2.699162e-002
4.000000e-002 4.689881e-002 -7.818705e-003
4.000000e-002 3.051308e-002 -7.591314e-003
4.000000e-002 9.189998e-002 -1.813767e-002
4.000000e-002 2.467176e-002 -2.494465e-002
4.000000e-002 2.071308e-002 -2.769131e-002
4.000000e-002 8.730206e-002 -7.389294e-003
4.000000e-002 7.005920e-002 -7.215829e-003
4.000000e-002 5.051308e-002 -1.080868e-002
4.000000e-002 5.914756e-002 -2.695464e-002
4.000000e-002 4.730206e-002 -7.389294e-003
4.000000e-002 3.005919e-002 -7.215829e-003
4.000000e-002 0.000000e+000 0.000000e+000
4.000000e-002 6.898810e-003 -7.818705e-003
4.000000e-002 7.302053e-003 -7.389294e-003
4.000000e-002 9.085932e-002 -1.033212e-002
4.000000e-002 6.615025e-003 -8.334908e-003
4.000000e-002 6.468531e-003 -8.905467e-003
4.000000e-002 6.468531e-003 -9.494534e-003
4.000000e-002 8.779941e-002 -7.073657e-003
4.000000e-002 6.952619e-002 -6.965017e-003
4.000000e-002 2.672208e-002 -2.664082e-002
4.000000e-002 2.127617e-002 -2.988442e-002
4.000000e-002 4.779942e-002 -7.073657e-003
4.000000e-002 2.952619e-002 -6.965017e-003
4.000000e-002 2.402570e-002 -2.376947e-002
4.000000e-002 2.025919e-002 -2.731583e-002
4.000000e-002 1.972619e-002 -2.706502e-002
4.000000e-002 8.835965e-002 -6.891625e-003
4.000000e-002 6.894755e-002 -6.854637e-003
4.000000e-002 4.835965e-002 -6.891625e-003
4.000000e-002 2.894756e-002 -6.854637e-003
4.000000e-002 7.799418e-003 -7.073657e-003
4.000000e-002 2.799751e-002 -2.705524e-002
4.000000e-002 2.105932e-002 -3.043212e-002
4.000000e-002 2.071308e-002 -3.090869e-002
4.000000e-002 2.369219e-002 -2.247053e-002
4.000000e-002 1.914756e-002 -2.695464e-002
4.000000e-002 8.359654e-003 -6.891625e-003
4.000000e-002 8.947558e-003 -6.854637e-003
4.000000e-002 1.073021e-001 -1.101071e-002
4.000000e-002 9.268824e-002 -1.922262e-002
4.000000e-002 2.933593e-002 -2.713944e-002
4.000000e-002 7.750205e-002 -3.111071e-002
4.000000e-002 6.071308e-002 -3.090869e-002
4.000000e-002 6.025919e-002 -3.128417e-002
4.000000e-002 7.709881e-002 -3.068130e-002
4.000000e-002 6.105932e-002 -3.043212e-002
4.000000e-002 1.068988e-001 -1.058130e-002
4.000000e-002 9.526189e-003 -6.965017e-003
4.000000e-002 1.077994e-001 -1.132634e-002
4.000000e-002 1.002592e-001 -2.731583e-002
4.000000e-002 7.799942e-002 -3.142634e-002
4.000000e-002 2.369219e-002 -2.112947e-002
4.000000e-002 5.972619e-002 -3.153498e-002
4.000000e-002 1.855965e-002 -2.699162e-002
4.000000e-002 1.066150e-001 -1.006509e-002
4.000000e-002 9.107617e-002 -9.784421e-003
4.000000e-002 7.681502e-002 -3.016509e-002
4.000000e-002 6.127617e-002 -2.988442e-002
4.000000e-002 1.083597e-001 -1.150838e-002
4.000000e-002 1.007131e-001 -2.769131e-002
4.000000e-002 7.855965e-002 -3.160838e-002
4.000000e-002 5.914756e-002 -3.164536e-002
4.000000e-002 7.666853e-002 -2.959453e-002
4.000000e-002 6.135000e-002 -2.930000e-002
4.000000e-002 1.064685e-001 -9.494534e-003
4.000000e-002 9.115000e-002 -9.200000e-003
4.000000e-002 2.402570e-002 -1.983053e-002
4.000000e-002 1.051308e-002 -1.080868e-002
4.000000e-002 1.089476e-001 -1.154536e-002
4.000000e-002 1.010593e-001 -2.816788e-002
4.000000e-002 7.666853e-002 -2.900547e-002
4.000000e-002 6.127617e-002 -2.871558e-002
4.000000e-002 2.467176e-002 -1.865535e-002
4.000000e-002 1.085932e-002 -1.033212e-002
4.000000e-002 1.064685e-001 -8.905467e-003
4.000000e-002 1.107617e-002 -9.784421e-003
4.000000e-002 9.107617e-002 -8.615579e-003
4.000000e-002 1.095262e-001 -1.143498e-002
4.000000e-002 1.012762e-001 -2.871558e-002
4.000000e-002 7.681502e-002 -2.843491e-002
4.000000e-002 6.105932e-002 -2.816788e-002
4.000000e-002 1.066150e-001 -8.334908e-003
4.000000e-002 3.750205e-002 -3.111071e-002
4.000000e-002 2.025919e-002 -3.128417e-002
4.000000e-002 9.085932e-002 -8.067879e-003
4.000000e-002 3.709881e-002 -3.068130e-002
4.000000e-002 1.100592e-001 -1.118417e-002
4.000000e-002 1.013500e-001 -2.930000e-002
4.000000e-002 7.709881e-002 -2.791871e-002
4.000000e-002 3.799942e-002 -3.142634e-002
4.000000e-002 6.071308e-002 -2.769131e-002
4.000000e-002 1.068988e-001 -7.818705e-003
4.000000e-002 1.972619e-002 -3.153498e-002
4.000000e-002 9.051308e-002 -7.591314e-003
4.000000e-002 3.681502e-002 -3.016509e-002
4.000000e-002 3.065324e-002 -2.688815e-002
4.000000e-002 1.105131e-001 -1.080868e-002
4.000000e-002 3.855965e-002 -3.160838e-002
4.000000e-002 1.073021e-001 -7.389294e-003
4.000000e-002 3.666853e-002 -2.959453e-002
4.000000e-002 3.186667e-002 -2.631715e-002
4.000000e-002 9.005920e-002 -7.215829e-003
4.000000e-002 1.077994e-001 -7.073657e-003
4.000000e-002 8.952619e-002 -6.965017e-003
4.000000e-002 3.914756e-002 -3.164536e-002
4.000000e-002 3.666853e-002 -2.900547e-002
4.000000e-002 1.083597e-001 -6.891625e-003
4.000000e-002 8.894756e-002 -6.854637e-003
4.000000e-002 3.681502e-002 -2.843491e-002
4.000000e-002 3.289998e-002 -2.546233e-002
4.000000e-002 3.709881e-002 -2.791871e-002
4.000000e-002 3.368824e-002 -2.437738e-002
4.000000e-002 1.380000e-001 0.000000e+000
4.000000e-002 1.110762e-001 -8.615579e-003
4.000000e-002 1.111500e-001 -9.200000e-003
4.000000e-002 1.108593e-001 -8.067879e-003
4.000000e-002 1.105131e-001 -7.591314e-003
4.000000e-002 1.100592e-001 -7.215829e-003
4.000000e-002 1.095262e-001 -6.965017e-003
4.000000e-002 1.089476e-001 -6.854637e-003
4.000000e-002 1.108593e-001 -1.033212e-002
4.000000e-002 1.110762e-001 -9.784421e-003
4.000000e-002 6.730206e-002 -1.101071e-002
4.000000e-002 5.972619e-002 -2.706502e-002
4.000000e-002 6.689881e-002 -1.058130e-002
4.000000e-002 4.894756e-002 -6.854637e-003
4.000000e-002 6.835966e-002 -6.891625e-003
4.000000e-002 3.750205e-002 -2.748929e-002
4.000000e-002 5.085932e-002 -1.033212e-002
4.000000e-002 3.799942e-002 -2.717366e-002
4.000000e-002 3.418192e-002 -2.313049e-002
4.000000e-002 6.779942e-002 -1.132634e-002
4.000000e-002 6.025919e-002 -2.731583e-002
4.000000e-002 6.661503e-002 -1.006509e-002
4.000000e-002 5.107617e-002 -9.784421e-003
4.000000e-002 3.855965e-002 -2.699162e-002
4.000000e-002 6.835966e-002 -1.150838e-002
4.000000e-002 3.435000e-002 -2.180000e-002
4.000000e-002 6.646853e-002 -9.494534e-003
4.000000e-002 3.914756e-002 -2.695464e-002
4.000000e-002 5.115000e-002 -9.200000e-003
4.000000e-002 6.894755e-002 -1.154536e-002
4.000000e-002 7.750205e-002 -2.748929e-002
4.000000e-002 6.646853e-002 -8.905467e-003
4.000000e-002 5.107617e-002 -8.615579e-003
4.000000e-002 6.952619e-002 -1.143498e-002
4.000000e-002 7.799942e-002 -2.717366e-002
4.000000e-002 6.661503e-002 -8.334908e-003
4.000000e-002 5.085932e-002 -8.067879e-003
4.000000e-002 8.458978e-002 -2.592224e-002
4.000000e-002 8.105932e-002 -2.816788e-002
4.000000e-002 8.127617e-002 -2.871558e-002
4.000000e-002 8.367176e-002 -2.494465e-002
4.000000e-002 8.071307e-002 -2.769131e-002
4.000000e-002 8.025920e-002 -2.731583e-002
4.000000e-002 7.005920e-002 -1.118417e-002
4.000000e-002 6.689881e-002 -7.818705e-003
4.000000e-002 5.051308e-002 -7.591314e-003
4.000000e-002 2.689881e-002 -1.058130e-002
4.000000e-002 2.558978e-002 -1.767775e-002
4.000000e-002 2.672208e-002 -1.695918e-002
4.000000e-002 2.730205e-002 -1.101071e-002
4.000000e-002 8.572208e-002 -2.664082e-002
4.000000e-002 8.135000e-002 -2.930000e-002
4.000000e-002 8.127617e-002 -2.988442e-002
4.000000e-002 8.302569e-002 -2.376947e-002
4.000000e-002 7.972619e-002 -2.706502e-002
4.000000e-002 7.914756e-002 -2.695464e-002
4.000000e-002 2.779942e-002 -1.132634e-002
4.000000e-002 2.799751e-002 -1.654476e-002
4.000000e-002 2.661503e-002 -1.006509e-002
4.000000e-002 6.730206e-002 -7.389294e-003
4.000000e-002 5.005919e-002 -7.215829e-003
4.000000e-002 2.835965e-002 -1.150838e-002
4.000000e-002 8.699752e-002 -2.705524e-002
4.000000e-002 8.105932e-002 -3.043212e-002
4.000000e-002 2.646853e-002 -9.494534e-003
4.000000e-002 1.115000e-002 -9.200000e-003
4.000000e-002 8.269218e-002 -2.247053e-002
4.000000e-002 7.855965e-002 -2.699162e-002
4.000000e-002 2.894756e-002 -1.154536e-002
4.000000e-002 2.933593e-002 -1.646056e-002
4.000000e-002 6.779942e-002 -7.073657e-003
4.000000e-002 2.646853e-002 -8.905467e-003
4.000000e-002 4.952619e-002 -6.965017e-003
4.000000e-002 8.833593e-002 -2.713944e-002
4.000000e-002 1.107617e-002 -8.615579e-003
4.000000e-002 8.071307e-002 -3.090869e-002
4.000000e-002 2.952619e-002 -1.143498e-002
4.000000e-002 3.065324e-002 -1.671185e-002
4.000000e-002 2.661503e-002 -8.334908e-003
4.000000e-002 8.269218e-002 -2.112947e-002
4.000000e-002 1.085932e-002 -8.067879e-003
4.000000e-002 3.005919e-002 -1.118417e-002
4.000000e-002 2.689881e-002 -7.818705e-003
4.000000e-002 1.051308e-002 -7.591314e-003
4.000000e-002 3.051308e-002 -1.080868e-002
4.000000e-002 3.186667e-002 -1.728285e-002
4.000000e-002 2.730205e-002 -7.389294e-003
4.000000e-002 1.005919e-002 -7.215829e-003
4.000000e-002 3.085932e-002 -1.033212e-002
4.000000e-002 2.779942e-002 -7.073657e-003
4.000000e-002 8.302569e-002 -1.983053e-002
4.000000e-002 7.051308e-002 -1.080868e-002
4.000000e-002 7.914756e-002 -3.164536e-002
4.000000e-002 7.972619e-002 -3.153498e-002
4.000000e-002 8.025920e-002 -3.128417e-002
4.000000e-002 2.835965e-002 -6.891625e-003
4.000000e-002 8.367176e-002 -1.865535e-002
4.000000e-002 7.085932e-002 -1.033212e-002
4.000000e-002 9.750205e-002 -3.111071e-002
4.000000e-002 9.709881e-002 -3.068130e-002
4.000000e-002 8.965325e-002 -2.688815e-002
4.000000e-002 9.799942e-002 -3.142634e-002
4.000000e-002 9.681503e-002 -3.016509e-002
4.000000e-002 5.750205e-002 -3.111071e-002
4.000000e-002 4.071308e-002 -3.090869e-002
4.000000e-002 4.025919e-002 -3.128417e-002
4.000000e-002 9.855966e-002 -3.160838e-002
4.000000e-002 5.709881e-002 -3.068130e-002
4.000000e-002 4.105932e-002 -3.043212e-002
4.000000e-002 9.666853e-002 -2.959453e-002
4.000000e-002 9.086668e-002 -2.631715e-002
4.000000e-002 5.799942e-002 -3.142634e-002
4.000000e-002 3.972619e-002 -3.153498e-002
4.000000e-002 9.914756e-002 -3.164536e-002
4.000000e-002 9.666853e-002 -2.900547e-002
4.000000e-002 9.189998e-002 -2.546233e-002
4.000000e-002 5.681502e-002 -3.016509e-002
4.000000e-002 4.127617e-002 -2.988442e-002
4.000000e-002 9.972619e-002 -3.153498e-002
4.000000e-002 5.855965e-002 -3.160838e-002
4.000000e-002 9.681503e-002 -2.843491e-002
4.000000e-002 5.666853e-002 -2.959453e-002
4.000000e-002 4.135000e-002 -2.930000e-002
4.000000e-002 1.002592e-001 -3.128417e-002
3.800000e-002 4.127617e-002 -2.871558e-002
3.800000e-002 4.105932e-002 -2.816788e-002
3.800000e-002 5.681502e-002 -2.843491e-002
3.800000e-002 5.666853e-002 -2.900547e-002
3.800000e-002 1.750205e-002 -3.111071e-002
3.800000e-002 0.000000e+000 -3.680000e-002
3.800000e-002 1.709881e-002 -3.068130e-002
3.800000e-002 5.709881e-002 -2.791871e-002
3.800000e-002 1.010000e-001 -3.680000e-002
3.800000e-002 1.007131e-001 -3.090869e-002
3.800000e-002 1.010593e-001 -3.043212e-002
3.800000e-002 1.799942e-002 -3.142634e-002
3.800000e-002 1.681503e-002 -3.016509e-002
3.800000e-002 9.750205e-002 -2.748929e-002
3.800000e-002 9.318192e-002 -2.313049e-002
3.800000e-002 9.799942e-002 -2.717366e-002
3.800000e-002 4.071308e-002 -2.769131e-002
3.800000e-002 1.855965e-002 -3.160838e-002
3.800000e-002 1.012762e-001 -2.988442e-002
3.800000e-002 1.666853e-002 -2.959453e-002
3.800000e-002 9.335000e-002 -2.180000e-002
3.800000e-002 9.855966e-002 -2.699162e-002
3.800000e-002 1.914756e-002 -3.164536e-002
3.800000e-002 1.666853e-002 -2.900547e-002
3.800000e-002 1.681503e-002 -2.843491e-002
3.800000e-002 9.914756e-002 -2.695464e-002
3.800000e-002 9.972619e-002 -2.706502e-002
3.800000e-002 9.318192e-002 -2.046951e-002
3.800000e-002 3.418192e-002 -2.046951e-002
3.800000e-002 3.368824e-002 -1.922262e-002
3.800000e-002 4.730206e-002 -1.101071e-002
3.800000e-002 8.699752e-002 -1.654476e-002
3.800000e-002 8.572208e-002 -1.695918e-002
3.800000e-002 8.730206e-002 -1.101071e-002
3.800000e-002 4.689881e-002 -1.058130e-002
3.800000e-002 3.972619e-002 -2.706502e-002
3.800000e-002 4.779942e-002 -1.132634e-002
3.800000e-002 8.689881e-002 -1.058130e-002
3.800000e-002 8.458978e-002 -1.767775e-002
3.800000e-002 8.779941e-002 -1.132634e-002
3.800000e-002 7.302053e-003 -1.101071e-002
3.800000e-002 6.898810e-003 -1.058130e-002
3.800000e-002 4.025919e-002 -2.731583e-002
3.800000e-002 7.107617e-002 -9.784421e-003
3.800000e-002 8.661503e-002 -1.006509e-002
3.800000e-002 4.661502e-002 -1.006509e-002
3.800000e-002 7.799418e-003 -1.132634e-002
3.800000e-002 3.289998e-002 -1.813767e-002
3.800000e-002 3.107617e-002 -9.784421e-003
3.800000e-002 6.615025e-003 -1.006509e-002
3.800000e-002 8.835965e-002 -1.150838e-002
3.800000e-002 8.359654e-003 -1.150838e-002
3.800000e-002 8.833593e-002 -1.646056e-002
3.800000e-002 4.835965e-002 -1.150838e-002
3.800000e-002 7.115000e-002 -9.200000e-003
3.800000e-002 8.646853e-002 -9.494534e-003
3.800000e-002 1.709881e-002 -2.791871e-002
3.800000e-002 3.115000e-002 -9.200000e-003
3.800000e-002 4.646853e-002 -9.494534e-003
3.800000e-002 4.894756e-002 -1.154536e-002
3.800000e-002 8.965325e-002 -1.671185e-002
3.800000e-002 8.894756e-002 -1.154536e-002
3.800000e-002 5.750205e-002 -2.748929e-002
3.800000e-002 8.646853e-002 -8.905467e-003
3.800000e-002 1.750205e-002 -2.748929e-002
3.800000e-002 8.947558e-003 -1.154536e-002
3.800000e-002 7.107617e-002 -8.615579e-003
3.800000e-002 3.107617e-002 -8.615579e-003
3.800000e-002 4.646853e-002 -8.905467e-003
3.800000e-002 9.526189e-003 -1.143498e-002
3.800000e-002 5.799942e-002 -2.717366e-002
3.800000e-002 4.952619e-002 -1.143498e-002
3.800000e-002 8.952619e-002 -1.143498e-002
3.800000e-002 1.799942e-002 -2.717366e-002
3.800000e-002 7.085932e-002 -8.067879e-003
3.800000e-002 8.661503e-002 -8.334908e-003
3.800000e-002 3.085932e-002 -8.067879e-003
3.800000e-002 4.661502e-002 -8.334908e-003
3.800000e-002 9.086668e-002 -1.728285e-002
3.800000e-002 9.005920e-002 -1.118417e-002
3.800000e-002 5.855965e-002 -2.699162e-002
3.800000e-002 5.005919e-002 -1.118417e-002
3.800000e-002 1.005919e-002 -1.118417e-002
3.800000e-002 7.051308e-002 -7.591314e-003
3.800000e-002 8.689881e-002 -7.818705e-003
3.800000e-002 3.051308e-002 -7.591314e-003
3.800000e-002 4.689881e-002 -7.818705e-003
3.800000e-002 2.135000e-002 -2.930000e-002
3.800000e-002 2.127617e-002 -2.871558e-002
3.800000e-002 2.558978e-002 -2.592224e-002
3.800000e-002 2.105932e-002 -2.816788e-002
3.800000e-002 9.189998e-002 -1.813767e-002
3.800000e-002 9.051308e-002 -1.080868e-002
3.800000e-002 5.914756e-002 -2.695464e-002
3.800000e-002 5.051308e-002 -1.080868e-002
3.800000e-002 8.730206e-002 -7.389294e-003
3.800000e-002 7.005920e-002 -7.215829e-003
3.800000e-002 3.005919e-002 -7.215829e-003
3.800000e-002 4.730206e-002 -7.389294e-003
3.800000e-002 2.071308e-002 -2.769131e-002
3.800000e-002 2.467176e-002 -2.494465e-002
3.800000e-002 9.085932e-002 -1.033212e-002
3.800000e-002 6.952619e-002 -6.965017e-003
3.800000e-002 8.779941e-002 -7.073657e-003
3.800000e-002 7.302053e-003 -7.389294e-003
3.800000e-002 6.898810e-003 -7.818705e-003
3.800000e-002 0.000000e+000 0.000000e+000
3.800000e-002 2.952619e-002 -6.965017e-003
3.800000e-002 4.779942e-002 -7.073657e-003
3.800000e-002 6.615025e-003 -8.334908e-003
3.800000e-002 6.468531e-003 -8.905467e-003
3.800000e-002 6.468531e-003 -9.494534e-003
3.800000e-002 2.127617e-002 -2.988442e-002
3.800000e-002 2.672208e-002 -2.664082e-002
3.800000e-002 8.835965e-002 -6.891625e-003
3.800000e-002 2.894756e-002 -6.854637e-003
3.800000e-002 4.835965e-002 -6.891625e-003
3.800000e-002 6.894755e-002 -6.854637e-003
3.800000e-002 2.402570e-002 -2.376947e-002
3.800000e-002 2.025919e-002 -2.731583e-002
3.800000e-002 1.972619e-002 -2.706502e-002
3.800000e-002 7.799418e-003 -7.073657e-003
3.800000e-002 2.799751e-002 -2.705524e-002
3.800000e-002 2.071308e-002 -3.090869e-002
3.800000e-002 2.105932e-002 -3.043212e-002
3.800000e-002 2.369219e-002 -2.247053e-002
3.800000e-002 1.914756e-002 -2.695464e-002
3.800000e-002 8.359654e-003 -6.891625e-003
3.800000e-002 6.025919e-002 -3.128417e-002
3.800000e-002 6.071308e-002 -3.090869e-002
3.800000e-002 7.750205e-002 -3.111071e-002
3.800000e-002 8.947558e-003 -6.854637e-003
3.800000e-002 7.709881e-002 -3.068130e-002
3.800000e-002 2.933593e-002 -2.713944e-002
3.800000e-002 1.073021e-001 -1.101071e-002
3.800000e-002 6.105932e-002 -3.043212e-002
3.800000e-002 9.268824e-002 -1.922262e-002
3.800000e-002 1.068988e-001 -1.058130e-002
3.800000e-002 7.799942e-002 -3.142634e-002
3.800000e-002 5.972619e-002 -3.153498e-002
3.800000e-002 9.526189e-003 -6.965017e-003
3.800000e-002 2.369219e-002 -2.112947e-002
3.800000e-002 1.077994e-001 -1.132634e-002
3.800000e-002 6.127617e-002 -2.988442e-002
3.800000e-002 7.681502e-002 -3.016509e-002
3.800000e-002 1.002592e-001 -2.731583e-002
3.800000e-002 1.855965e-002 -2.699162e-002
3.800000e-002 5.914756e-002 -3.164536e-002
3.800000e-002 7.855965e-002 -3.160838e-002
3.800000e-002 1.066150e-001 -1.006509e-002
3.800000e-002 9.107617e-002 -9.784421e-003
3.800000e-002 1.083597e-001 -1.150838e-002
3.800000e-002 7.666853e-002 -2.959453e-002
3.800000e-002 6.135000e-002 -2.930000e-002
3.800000e-002 1.007131e-001 -2.769131e-002
3.800000e-002 1.064685e-001 -9.494534e-003
3.800000e-002 6.127617e-002 -2.871558e-002
3.800000e-002 7.666853e-002 -2.900547e-002
3.800000e-002 2.402570e-002 -1.983053e-002
3.800000e-002 1.051308e-002 -1.080868e-002
3.800000e-002 9.115000e-002 -9.200000e-003
3.800000e-002 1.089476e-001 -1.154536e-002
3.800000e-002 1.010593e-001 -2.816788e-002
3.800000e-002 6.105932e-002 -2.816788e-002
3.800000e-002 7.681502e-002 -2.843491e-002
3.800000e-002 2.467176e-002 -1.865535e-002
3.800000e-002 9.107617e-002 -8.615579e-003
3.800000e-002 1.064685e-001 -8.905467e-003
3.800000e-002 1.085932e-002 -1.033212e-002
3.800000e-002 1.107617e-002 -9.784421e-003
3.800000e-002 1.095262e-001 -1.143498e-002
3.800000e-002 1.012762e-001 -2.871558e-002
3.800000e-002 6.071308e-002 -2.769131e-002
3.800000e-002 7.709881e-002 -2.791871e-002
3.800000e-002 2.025919e-002 -3.128417e-002
3.800000e-002 3.750205e-002 -3.111071e-002
3.800000e-002 1.066150e-001 -8.334908e-003
3.800000e-002 9.085932e-002 -8.067879e-003
3.800000e-002 3.709881e-002 -3.068130e-002
3.800000e-002 1.100592e-001 -1.118417e-002
3.800000e-002 3.799942e-002 -3.142634e-002
3.800000e-002 1.013500e-001 -2.930000e-002
3.800000e-002 1.972619e-002 -3.153498e-002
3.800000e-002 1.068988e-001 -7.818705e-003
3.800000e-002 9.051308e-002 -7.591314e-003
3.800000e-002 3.681502e-002 -3.016509e-002
3.800000e-002 3.065324e-002 -2.688815e-002
3.800000e-002 3.855965e-002 -3.160838e-002
3.800000e-002 1.105131e-001 -1.080868e-002
3.800000e-002 1.073021e-001 -7.389294e-003
3.800000e-002 9.005920e-002 -7.215829e-003
3.800000e-002 3.666853e-002 -2.959453e-002
3.800000e-002 3.186667e-002 -2.631715e-002
3.800000e-002 8.952619e-002 -6.965017e-003
3.800000e-002 1.077994e-001 -7.073657e-003
3.800000e-002 3.914756e-002 -3.164536e-002
3.800000e-002 3.666853e-002 -2.900547e-002
3.800000e-002 8.894756e-002 -6.854637e-003
3.800000e-002 1.083597e-001 -6.891625e-003
3.800000e-002 3.289998e-002 -2.546233e-002
3.800000e-002 3.681502e-002 -2.843491e-002
3.800000e-002 5.972619e-002 -2.706502e-002
3.800000e-002 6.730206e-002 -1.101071e-002
3.800000e-002 3.709881e-002 -2.791871e-002
3.800000e-002 3.368824e-002 -2.437738e-002
3.800000e-002 1.111500e-001 -9.200000e-003
3.800000e-002 1.110762e-001 -8.615579e-003
3.800000e-002 1.380000e-001 0.000000e+000
3.800000e-002 1.108593e-001 -8.067879e-003
3.800000e-002 1.105131e-001 -7.591314e-003
3.800000e-002 1.100592e-001 -7.215829e-003
3.800000e-002 1.095262e-001 -6.965017e-003
3.800000e-002 1.089476e-001 -6.854637e-003
3.800000e-002 1.108593e-001 -1.033212e-002
3.800000e-002 1.110762e-001 -9.784421e-003
3.800000e-002 6.689881e-002 -1.058130e-002
3.800000e-002 5.085932e-002 -1.033212e-002
3.800000e-002 3.750205e-002 -2.748929e-002
3.800000e-002 4.894756e-002 -6.854637e-003
3.800000e-002 6.835966e-002 -6.891625e-003
3.800000e-002 6.025919e-002 -2.731583e-002
3.800000e-002 6.779942e-002 -1.132634e-002
3.800000e-002 3.799942e-002 -2.717366e-002
3.800000e-002 3.418192e-002 -2.313049e-002
3.800000e-002 5.107617e-002 -9.784421e-003
3.800000e-002 6.661503e-002 -1.006509e-002
3.800000e-002 6.835966e-002 -1.150838e-002
3.800000e-002 3.855965e-002 -2.699162e-002
3.800000e-002 6.646853e-002 -9.494534e-003
3.800000e-002 5.115000e-002 -9.200000e-003
3.800000e-002 3.914756e-002 -2.695464e-002
3.800000e-002 3.435000e-002 -2.180000e-002
3.800000e-002 6.894755e-002 -1.154536e-002
3.800000e-002 7.750205e-002 -2.748929e-002
3.800000e-002 6.646853e-002 -8.905467e-003
3.800000e-002 5.107617e-002 -8.615579e-003
3.800000e-002 7.799942e-002 -2.717366e-002
3.800000e-002 6.952619e-002 -1.143498e-002
3.800000e-002 5.085932e-002 -8.067879e-003
3.800000e-002 6.661503e-002 -8.334908e-003
3.800000e-002 8.127617e-002 -2.871558e-002
3.800000e-002 8.105932e-002 -2.816788e-002
3.800000e-002 8.458978e-002 -2.592224e-002
3.800000e-002 8.071307e-002 -2.769131e-002
3.800000e-002 8.367176e-002 -2.494465e-002
3.800000e-002 8.025920e-002 -2.731583e-002
3.800000e-002 7.005920e-002 -1.118417e-002
3.800000e-002 5.051308e-002 -7.591314e-003
3.800000e-002 6.689881e-002 -7.818705e-003
3.800000e-002 8.572208e-002 -2.664082e-002
3.800000e-002 8.135000e-002 -2.930000e-002
3.800000e-002 2.730205e-002 -1.101071e-002
3.800000e-002 2.672208e-002 -1.695918e-002
3.800000e-002 2.689881e-002 -1.058130e-002
3.800000e-002 8.127617e-002 -2.988442e-002
3.800000e-002 2.558978e-002 -1.767775e-002
3.800000e-002 8.302569e-002 -2.376947e-002
3.800000e-002 7.972619e-002 -2.706502e-002
3.800000e-002 2.779942e-002 -1.132634e-002
3.800000e-002 7.914756e-002 -2.695464e-002
3.800000e-002 2.799751e-002 -1.654476e-002
3.800000e-002 5.005919e-002 -7.215829e-003
3.800000e-002 6.730206e-002 -7.389294e-003
3.800000e-002 2.661503e-002 -1.006509e-002
3.800000e-002 2.835965e-002 -1.150838e-002
3.800000e-002 8.105932e-002 -3.043212e-002
3.800000e-002 8.699752e-002 -2.705524e-002
3.800000e-002 8.269218e-002 -2.247053e-002
3.800000e-002 7.855965e-002 -2.699162e-002
3.800000e-002 2.646853e-002 -9.494534e-003
3.800000e-002 1.115000e-002 -9.200000e-003
3.800000e-002 2.894756e-002 -1.154536e-002
3.800000e-002 4.952619e-002 -6.965017e-003
3.800000e-002 6.779942e-002 -7.073657e-003
3.800000e-002 2.933593e-002 -1.646056e-002
3.800000e-002 2.646853e-002 -8.905467e-003
3.800000e-002 1.107617e-002 -8.615579e-003
3.800000e-002 8.071307e-002 -3.090869e-002
3.800000e-002 8.833593e-002 -2.713944e-002
3.800000e-002 2.952619e-002 -1.143498e-002
3.800000e-002 3.065324e-002 -1.671185e-002
3.800000e-002 8.269218e-002 -2.112947e-002
3.800000e-002 1.085932e-002 -8.067879e-003
3.800000e-002 2.661503e-002 -8.334908e-003
3.800000e-002 3.005919e-002 -1.118417e-002
3.800000e-002 1.051308e-002 -7.591314e-003
3.800000e-002 2.689881e-002 -7.818705e-003
3.800000e-002 3.051308e-002 -1.080868e-002
3.800000e-002 3.186667e-002 -1.728285e-002
3.800000e-002 1.005919e-002 -7.215829e-003
3.800000e-002 2.730205e-002 -7.389294e-003
3.800000e-002 3.085932e-002 -1.033212e-002
3.800000e-002 8.302569e-002 -1.983053e-002
3.800000e-002 2.779942e-002 -7.073657e-003
3.800000e-002 7.051308e-002 -1.080868e-002
3.800000e-002 7.914756e-002 -3.164536e-002
3.800000e-002 7.972619e-002 -3.153498e-002
3.800000e-002 8.025920e-002 -3.128417e-002
3.800000e-002 2.835965e-002 -6.891625e-003
3.800000e-002 8.367176e-002 -1.865535e-002
3.800000e-002 7.085932e-002 -1.033212e-002
3.800000e-002 9.750205e-002 -3.111071e-002
3.800000e-002 9.709881e-002 -3.068130e-002
3.800000e-002 8.965325e-002 -2.688815e-002
3.800000e-002 9.799942e-002 -3.142634e-002
3.800000e-002 9.681503e-002 -3.016509e-002
3.800000e-002 4.025919e-002 -3.128417e-002
3.800000e-002 4.071308e-002 -3.090869e-002
3.800000e-002 5.750205e-002 -3.111071e-002
3.800000e-002 9.855966e-002 -3.160838e-002
3.800000e-002 4.105932e-002 -3.043212e-002
3.800000e-002 5.709881e-002 -3.068130e-002
3.800000e-002 9.666853e-002 -2.959453e-002
3.800000e-002 9.086668e-002 -2.631715e-002
3.800000e-002 5.799942e-002 -3.142634e-002
3.800000e-002 9.914756e-002 -3.164536e-002
3.800000e-002 3.972619e-002 -3.153498e-002
3.800000e-002 9.666853e-002 -2.900547e-002
3.800000e-002 9.189998e-002 -2.546233e-002
3.800000e-002 4.127617e-002 -2.988442e-002
3.800000e-002 5.681502e-002 -3.016509e-002
3.800000e-002 9.972619e-002 -3.153498e-002
3.800000e-002 5.855965e-002 -3.160838e-002
3.800000e-002 9.681503e-002 -2.843491e-002
3.800000e-002 4.135000e-002 -2.930000e-002
3.800000e-002 5.666853e-002 -2.959453e-002
3.800000e-002 1.002592e-001 -3.128417e-002
3.800000e-002 9.268824e-002 -2.437738e-002
3.800000e-002 9.709881e-002 -2.791871e-002
4.000000e-002 0.000000e+000 1.000000e-003
4.000000e-002 0.000000e+000 0.000000e+000
4.000000e-002 1.380000e-001 1.000000e-003
4.000000e-002 1.380000e-001 2.000000e-003
4.000000e-002 1.400000e-001 2.000000e-003
4.000000e-002 1.400000e-001 1.000000e-003
4.000000e-002 1.399659e-001 7.411810e-004
4.000000e-002 1.390000e-001 0.000000e+000
4.000000e-002 1.392588e-001 3.407400e-005
4.000000e-002 1.395000e-001 1.339750e-004
4.000000e-002 1.398660e-001 5.000000e-004
4.000000e-002 1.397071e-001 2.928930e-004
0.000000e+000 0.000000e+000 2.000000e-003
0.000000e+000 0.000000e+000 0.000000e+000
3.900000e-002 0.000000e+000 2.000000e-003
3.925882e-002 0.000000e+000 1.965926e-003
3.950000e-002 0.000000e+000 1.866025e-003
3.986602e-002 0.000000e+000 1.500000e-003
3.970711e-002 0.000000e+000 1.707107e-003
3.996593e-002 0.000000e+000 1.258819e-003
3.996593e-002 1.380000e-001 1.258819e-003
3.986602e-002 1.380000e-001 1.500000e-003
3.970711e-002 1.380000e-001 1.707107e-003
3.950000e-002 1.380000e-001 1.866025e-003
3.925882e-002 1.380000e-001 1.965926e-003
3.900000e-002 1.380000e-001 2.000000e-003
8.759193e-003 7.015830e-003 0.000000e+000
9.213077e-003 7.391315e-003 0.000000e+000
9.559320e-003 7.867879e-003 0.000000e+000
9.776170e-003 8.415579e-003 0.000000e+000
9.850000e-003 9.000000e-003 0.000000e+000
9.776170e-003 9.584421e-003 0.000000e+000
7.059654e-003 6.691625e-003 0.000000e+000
7.647558e-003 6.654637e-003 0.000000e+000
8.226190e-003 6.765017e-003 0.000000e+000
6.499419e-003 6.873656e-003 0.000000e+000
9.559320e-003 1.013212e-002 0.000000e+000
6.002054e-003 7.189294e-003 0.000000e+000
5.598810e-003 7.618705e-003 0.000000e+000
5.315025e-003 8.134908e-003 0.000000e+000
5.168530e-003 8.705467e-003 0.000000e+000
5.168530e-003 9.294533e-003 0.000000e+000
5.315025e-003 9.865092e-003 0.000000e+000
8.759193e-003 2.701583e-002 0.000000e+000
9.213077e-003 1.060868e-002 0.000000e+000
8.759193e-003 1.098417e-002 0.000000e+000
9.213077e-003 2.739131e-002 0.000000e+000
9.559320e-003 2.786788e-002 0.000000e+000
8.226190e-003 2.676502e-002 0.000000e+000
8.226190e-003 1.123498e-002 0.000000e+000
9.776170e-003 2.841558e-002 0.000000e+000
7.647558e-003 2.665464e-002 0.000000e+000
7.647558e-003 1.134536e-002 0.000000e+000
9.850000e-003 2.900000e-002 0.000000e+000
7.059654e-003 2.669162e-002 0.000000e+000
7.059654e-003 1.130838e-002 0.000000e+000
9.776170e-003 2.958442e-002 0.000000e+000
6.499419e-003 2.687366e-002 0.000000e+000
6.499419e-003 1.112634e-002 0.000000e+000
6.002054e-003 2.718930e-002 0.000000e+000
6.002054e-003 1.081071e-002 0.000000e+000
5.598810e-003 2.761870e-002 0.000000e+000
5.598810e-003 1.038130e-002 0.000000e+000
5.315025e-003 2.813491e-002 0.000000e+000
5.168530e-003 2.870547e-002 0.000000e+000
5.168530e-003 2.929453e-002 0.000000e+000
8.759193e-003 4.701583e-002 0.000000e+000
9.213077e-003 3.060869e-002 0.000000e+000
8.759193e-003 3.098417e-002 0.000000e+000
9.213077e-003 4.739131e-002 0.000000e+000
9.559320e-003 4.786788e-002 0.000000e+000
9.559320e-003 3.013212e-002 0.000000e+000
8.226190e-003 4.676502e-002 0.000000e+000
8.226190e-003 3.123498e-002 0.000000e+000
9.776170e-003 4.841558e-002 0.000000e+000
7.647558e-003 4.665464e-002 0.000000e+000
7.647558e-003 3.134536e-002 0.000000e+000
9.850000e-003 4.900000e-002 0.000000e+000
7.059654e-003 4.669162e-002 0.000000e+000
7.059654e-003 3.130838e-002 0.000000e+000
6.499419e-003 3.112634e-002 0.000000e+000
9.776170e-003 4.958442e-002 0.000000e+000
6.499419e-003 4.687366e-002 0.000000e+000
6.002054e-003 4.718929e-002 0.000000e+000
6.002054e-003 3.081070e-002 0.000000e+000
5.598810e-003 4.761871e-002 0.000000e+000
5.598810e-003 3.038130e-002 0.000000e+000
5.315025e-003 4.813491e-002 0.000000e+000
5.315025e-003 2.986509e-002 0.000000e+000
5.168530e-003 4.870547e-002 0.000000e+000
8.759193e-003 6.701583e-002 0.000000e+000
9.213077e-003 5.060868e-002 0.000000e+000
8.759193e-003 5.098417e-002 0.000000e+000
9.213077e-003 6.739131e-002 0.000000e+000
9.559320e-003 6.786788e-002 0.000000e+000
9.559320e-003 5.013212e-002 0.000000e+000
8.226190e-003 6.676502e-002 0.000000e+000
8.226190e-003 5.123498e-002 0.000000e+000
9.776170e-003 6.841558e-002 0.000000e+000
7.647558e-003 6.665464e-002 0.000000e+000
7.647558e-003 5.134536e-002 0.000000e+000
9.850000e-003 6.900000e-002 0.000000e+000
7.059654e-003 6.669163e-002 0.000000e+000
7.059654e-003 5.130837e-002 0.000000e+000
6.499419e-003 6.687365e-002 0.000000e+000
6.499419e-003 5.112634e-002 0.000000e+000
6.002054e-003 6.718929e-002 0.000000e+000
6.002054e-003 5.081071e-002 0.000000e+000
5.598810e-003 6.761871e-002 0.000000e+000
5.598810e-003 5.038130e-002 0.000000e+000
5.315025e-003 6.813491e-002 0.000000e+000
5.315025e-003 4.986509e-002 0.000000e+000
5.168530e-003 6.870547e-002 0.000000e+000
5.168530e-003 4.929453e-002 0.000000e+000
8.759193e-003 8.701583e-002 0.000000e+000
9.213077e-003 8.739131e-002 0.000000e+000
9.213077e-003 7.060869e-002 0.000000e+000
8.759193e-003 7.098417e-002 0.000000e+000
9.559320e-003 8.786788e-002 0.000000e+000
9.559320e-003 7.013212e-002 0.000000e+000
8.226190e-003 8.676501e-002 0.000000e+000
8.226190e-003 7.123499e-002 0.000000e+000
9.776170e-003 8.841558e-002 0.000000e+000
9.776170e-003 6.958442e-002 0.000000e+000
7.647558e-003 8.665464e-002 0.000000e+000
7.647558e-003 7.134536e-002 0.000000e+000
7.059654e-003 8.669163e-002 0.000000e+000
7.059654e-003 7.130837e-002 0.000000e+000
6.499419e-003 8.687366e-002 0.000000e+000
6.499419e-003 7.112634e-002 0.000000e+000
6.002054e-003 8.718929e-002 0.000000e+000
6.002054e-003 7.081071e-002 0.000000e+000
5.598810e-003 8.761871e-002 0.000000e+000
5.598810e-003 7.038129e-002 0.000000e+000
5.315025e-003 8.813491e-002 0.000000e+000
5.315025e-003 6.986509e-002 0.000000e+000
5.168530e-003 8.870547e-002 0.000000e+000
5.168530e-003 6.929453e-002 0.000000e+000
9.850000e-003 8.900000e-002 0.000000e+000
9.776170e-003 8.958442e-002 0.000000e+000
9.559320e-003 9.013212e-002 0.000000e+000
9.213077e-003 9.060869e-002 0.000000e+000
8.759193e-003 9.098417e-002 0.000000e+000
0.000000e+000 1.010000e-001 0.000000e+000
8.226190e-003 9.123498e-002 0.000000e+000
7.647558e-003 9.134536e-002 0.000000e+000
7.059654e-003 9.130837e-002 0.000000e+000
6.499419e-003 9.112635e-002 0.000000e+000
6.002054e-003 9.081071e-002 0.000000e+000
5.598810e-003 9.038129e-002 0.000000e+000
5.315025e-003 8.986509e-002 0.000000e+000
5.168530e-003 8.929453e-002 0.000000e+000
-3.600000e-002 1.390000e-001 0.000000e+000
-3.600000e-002 1.380000e-001 0.000000e+000
3.300919e-002 1.380000e-001 1.773417e-002
3.346308e-002 1.380000e-001 1.735869e-002
4.000000e-002 1.380000e-001 2.600000e-002
3.380932e-002 1.380000e-001 1.688212e-002
3.247619e-002 1.380000e-001 1.798498e-002
3.402617e-002 1.380000e-001 1.633442e-002
3.189756e-002 1.380000e-001 1.809536e-002
3.410000e-002 1.380000e-001 1.575000e-002
3.130965e-002 1.380000e-001 1.805837e-002
3.074942e-002 1.380000e-001 1.787634e-002
3.380932e-002 1.380000e-001 1.461788e-002
3.346308e-002 1.380000e-001 1.414132e-002
3.402617e-002 1.380000e-001 1.516558e-002
3.130965e-002 1.380000e-001 1.344163e-002
3.074942e-002 1.380000e-001 1.362366e-002
3.189756e-002 1.380000e-001 1.340464e-002
3.247619e-002 1.380000e-001 1.351502e-002
3.300919e-002 1.380000e-001 1.376583e-002
1.346308e-002 1.380000e-001 1.735869e-002
2.984881e-002 1.380000e-001 1.713130e-002
3.025205e-002 1.380000e-001 1.756071e-002
1.300919e-002 1.380000e-001 1.773417e-002
1.380932e-002 1.380000e-001 1.688212e-002
2.956503e-002 1.380000e-001 1.661509e-002
1.247619e-002 1.380000e-001 1.798498e-002
1.402617e-002 1.380000e-001 1.633442e-002
2.941853e-002 1.380000e-001 1.604453e-002
1.189756e-002 1.380000e-001 1.809536e-002
1.410000e-002 1.380000e-001 1.575000e-002
2.941853e-002 1.380000e-001 1.545547e-002
1.130965e-002 1.380000e-001 1.805837e-002
1.402617e-002 1.380000e-001 1.516558e-002
2.956503e-002 1.380000e-001 1.488491e-002
1.380932e-002 1.380000e-001 1.461788e-002
2.984881e-002 1.380000e-001 1.436870e-002
1.346308e-002 1.380000e-001 1.414132e-002
3.025205e-002 1.380000e-001 1.393929e-002
1.300919e-002 1.380000e-001 1.376583e-002
1.247619e-002 1.380000e-001 1.351502e-002
1.189756e-002 1.380000e-001 1.340464e-002
-6.536924e-003 1.380000e-001 1.735869e-002
9.848810e-003 1.380000e-001 1.713130e-002
1.025205e-002 1.380000e-001 1.756071e-002
-6.990807e-003 1.380000e-001 1.773417e-002
1.074942e-002 1.380000e-001 1.787634e-002
-6.190679e-003 1.380000e-001 1.688212e-002
9.565026e-003 1.380000e-001 1.661509e-002
-7.523810e-003 1.380000e-001 1.798498e-002
-5.973830e-003 1.380000e-001 1.633442e-002
9.418530e-003 1.380000e-001 1.604453e-002
-8.102443e-003 1.380000e-001 1.809536e-002
-5.900000e-003 1.380000e-001 1.575000e-002
9.418530e-003 1.380000e-001 1.545547e-002
-5.973830e-003 1.380000e-001 1.516558e-002
9.565026e-003 1.380000e-001 1.488491e-002
-6.190679e-003 1.380000e-001 1.461788e-002
9.848810e-003 1.380000e-001 1.436870e-002
-6.536924e-003 1.380000e-001 1.414132e-002
1.025205e-002 1.380000e-001 1.393929e-002
-6.990807e-003 1.380000e-001 1.376583e-002
1.074942e-002 1.380000e-001 1.362366e-002
-7.523810e-003 1.380000e-001 1.351502e-002
1.130965e-002 1.380000e-001 1.344163e-002
-2.653692e-002 1.380000e-001 1.735869e-002
-1.015119e-002 1.380000e-001 1.713130e-002
-9.747947e-003 1.380000e-001 1.756071e-002
-2.699081e-002 1.380000e-001 1.773417e-002
-9.250582e-003 1.380000e-001 1.787634e-002
-2.619068e-002 1.380000e-001 1.688212e-002
-1.043497e-002 1.380000e-001 1.661509e-002
-2.597383e-002 1.380000e-001 1.633442e-002
-1.058147e-002 1.380000e-001 1.604453e-002
-3.600000e-002 1.380000e-001 2.600000e-002
-2.752381e-002 1.380000e-001 1.798498e-002
-8.690346e-003 1.380000e-001 1.805837e-002
-2.810244e-002 1.380000e-001 1.809536e-002
-2.590000e-002 1.380000e-001 1.575000e-002
-1.058147e-002 1.380000e-001 1.545547e-002
-2.869035e-002 1.380000e-001 1.805837e-002
-2.597383e-002 1.380000e-001 1.516558e-002
-1.043497e-002 1.380000e-001 1.488491e-002
-2.925058e-002 1.380000e-001 1.787634e-002
-2.619068e-002 1.380000e-001 1.461788e-002
-1.015119e-002 1.380000e-001 1.436870e-002
-2.974795e-002 1.380000e-001 1.756071e-002
-2.653692e-002 1.380000e-001 1.414132e-002
-9.747947e-003 1.380000e-001 1.393929e-002
-3.015119e-002 1.380000e-001 1.713130e-002
-2.699081e-002 1.380000e-001 1.376583e-002
-9.250582e-003 1.380000e-001 1.362366e-002
-3.043498e-002 1.380000e-001 1.661509e-002
-3.058147e-002 1.380000e-001 1.604453e-002
-3.058147e-002 1.380000e-001 1.545547e-002
-3.600000e-002 1.380000e-001 2.000000e-003
-3.043498e-002 1.380000e-001 1.488491e-002
-3.015119e-002 1.380000e-001 1.436870e-002
-2.974795e-002 1.380000e-001 1.393929e-002
-2.925058e-002 1.380000e-001 1.362366e-002
-2.869035e-002 1.380000e-001 1.344163e-002
-2.810244e-002 1.380000e-001 1.340464e-002
-2.752381e-002 1.380000e-001 1.351502e-002
-8.690346e-003 1.380000e-001 1.344163e-002
-8.102443e-003 1.380000e-001 1.340464e-002
-3.600000e-002 1.392588e-001 3.407400e-005
-3.600000e-002 1.395000e-001 1.339750e-004
-3.600000e-002 1.397071e-001 2.928930e-004
-3.600000e-002 1.398660e-001 5.000000e-004
-3.600000e-002 1.399659e-001 7.411810e-004
-3.600000e-002 1.400000e-001 1.000000e-003
4.000000e-002 1.400000e-001 2.600000e-002
-3.600000e-002 1.400000e-001 2.000000e-003
9.213077e-003 7.391315e-003 2.000000e-003
8.759193e-003 7.015830e-003 2.000000e-003
9.559320e-003 7.867879e-003 2.000000e-003
9.776170e-003 8.415579e-003 2.000000e-003
9.850000e-003 9.000000e-003 2.000000e-003
9.776170e-003 9.584421e-003 2.000000e-003
7.647558e-003 6.654637e-003 2.000000e-003
7.059654e-003 6.691625e-003 2.000000e-003
8.226190e-003 6.765017e-003 2.000000e-003
6.499419e-003 6.873656e-003 2.000000e-003
9.559320e-003 1.013212e-002 2.000000e-003
6.002054e-003 7.189294e-003 2.000000e-003
5.598810e-003 7.618705e-003 2.000000e-003
5.315025e-003 8.134908e-003 2.000000e-003
5.168530e-003 8.705467e-003 2.000000e-003
5.168530e-003 9.294533e-003 2.000000e-003
5.315025e-003 9.865092e-003 2.000000e-003
8.759193e-003 1.098417e-002 2.000000e-003
9.213077e-003 1.060868e-002 2.000000e-003
8.759193e-003 2.701583e-002 2.000000e-003
8.226190e-003 1.123498e-002 2.000000e-003
9.213077e-003 2.739131e-002 2.000000e-003
9.559320e-003 2.786788e-002 2.000000e-003
7.647558e-003 1.134536e-002 2.000000e-003
8.226190e-003 2.676502e-002 2.000000e-003
9.776170e-003 2.841558e-002 2.000000e-003
7.059654e-003 1.130838e-002 2.000000e-003
7.647558e-003 2.665464e-002 2.000000e-003
9.850000e-003 2.900000e-002 2.000000e-003
6.499419e-003 1.112634e-002 2.000000e-003
7.059654e-003 2.669162e-002 2.000000e-003
9.776170e-003 2.958442e-002 2.000000e-003
6.002054e-003 1.081071e-002 2.000000e-003
6.499419e-003 2.687366e-002 2.000000e-003
5.598810e-003 1.038130e-002 2.000000e-003
6.002054e-003 2.718930e-002 2.000000e-003
5.598810e-003 2.761870e-002 2.000000e-003
5.315025e-003 2.813491e-002 2.000000e-003
5.168530e-003 2.870547e-002 2.000000e-003
5.168530e-003 2.929453e-002 2.000000e-003
9.213077e-003 3.060869e-002 2.000000e-003
9.559320e-003 3.013212e-002 2.000000e-003
9.213077e-003 4.739131e-002 2.000000e-003
8.759193e-003 3.098417e-002 2.000000e-003
8.226190e-003 3.123498e-002 2.000000e-003
8.759193e-003 4.701583e-002 2.000000e-003
9.559320e-003 4.786788e-002 2.000000e-003
8.226190e-003 4.676502e-002 2.000000e-003
9.776170e-003 4.841558e-002 2.000000e-003
7.647558e-003 3.134536e-002 2.000000e-003
7.647558e-003 4.665464e-002 2.000000e-003
7.059654e-003 3.130838e-002 2.000000e-003
9.850000e-003 4.900000e-002 2.000000e-003
7.059654e-003 4.669162e-002 2.000000e-003
9.776170e-003 4.958442e-002 2.000000e-003
6.499419e-003 3.112634e-002 2.000000e-003
6.499419e-003 4.687366e-002 2.000000e-003
6.002054e-003 3.081070e-002 2.000000e-003
6.002054e-003 4.718929e-002 2.000000e-003
5.598810e-003 3.038130e-002 2.000000e-003
5.315025e-003 2.986509e-002 2.000000e-003
5.598810e-003 4.761871e-002 2.000000e-003
5.315025e-003 4.813491e-002 2.000000e-003
5.168530e-003 4.870547e-002 2.000000e-003
9.213077e-003 5.060868e-002 2.000000e-003
9.559320e-003 5.013212e-002 2.000000e-003
9.213077e-003 6.739131e-002 2.000000e-003
8.759193e-003 5.098417e-002 2.000000e-003
8.759193e-003 6.701583e-002 2.000000e-003
8.226190e-003 5.123498e-002 2.000000e-003
9.559320e-003 6.786788e-002 2.000000e-003
8.226190e-003 6.676502e-002 2.000000e-003
9.776170e-003 6.841558e-002 2.000000e-003
7.647558e-003 5.134536e-002 2.000000e-003
7.647558e-003 6.665464e-002 2.000000e-003
9.850000e-003 6.900000e-002 2.000000e-003
7.059654e-003 5.130837e-002 2.000000e-003
7.059654e-003 6.669163e-002 2.000000e-003
6.499419e-003 5.112634e-002 2.000000e-003
6.499419e-003 6.687365e-002 2.000000e-003
6.002054e-003 5.081071e-002 2.000000e-003
6.002054e-003 6.718929e-002 2.000000e-003
5.598810e-003 6.761871e-002 2.000000e-003
5.598810e-003 5.038130e-002 2.000000e-003
5.315025e-003 4.986509e-002 2.000000e-003
5.168530e-003 4.929453e-002 2.000000e-003
5.315025e-003 6.813491e-002 2.000000e-003
5.168530e-003 6.870547e-002 2.000000e-003
9.213077e-003 7.060869e-002 2.000000e-003
9.559320e-003 7.013212e-002 2.000000e-003
9.213077e-003 8.739131e-002 2.000000e-003
8.759193e-003 7.098417e-002 2.000000e-003
8.759193e-003 8.701583e-002 2.000000e-003
8.226190e-003 7.123499e-002 2.000000e-003
9.559320e-003 8.786788e-002 2.000000e-003
7.647558e-003 7.134536e-002 2.000000e-003
8.226190e-003 8.676501e-002 2.000000e-003
9.776170e-003 8.841558e-002 2.000000e-003
9.776170e-003 6.958442e-002 2.000000e-003
7.647558e-003 8.665464e-002 2.000000e-003
7.059654e-003 7.130837e-002 2.000000e-003
7.059654e-003 8.669163e-002 2.000000e-003
6.499419e-003 7.112634e-002 2.000000e-003
6.499419e-003 8.687366e-002 2.000000e-003
6.002054e-003 7.081071e-002 2.000000e-003
6.002054e-003 8.718929e-002 2.000000e-003
5.598810e-003 7.038129e-002 2.000000e-003
5.598810e-003 8.761871e-002 2.000000e-003
5.315025e-003 8.813491e-002 2.000000e-003
5.315025e-003 6.986509e-002 2.000000e-003
5.168530e-003 8.870547e-002 2.000000e-003
5.168530e-003 6.929453e-002 2.000000e-003
9.776170e-003 8.958442e-002 2.000000e-003
9.850000e-003 8.900000e-002 2.000000e-003
9.559320e-003 9.013212e-002 2.000000e-003
9.213077e-003 9.060869e-002 2.000000e-003
8.759193e-003 9.098417e-002 2.000000e-003
0.000000e+000 1.010000e-001 2.000000e-003
8.226190e-003 9.123498e-002 2.000000e-003
7.647558e-003 9.134536e-002 2.000000e-003
7.059654e-003 9.130837e-002 2.000000e-003
6.499419e-003 9.112635e-002 2.000000e-003
6.002054e-003 9.081071e-002 2.000000e-003
5.598810e-003 9.038129e-002 2.000000e-003
5.315025e-003 8.986509e-002 2.000000e-003
5.168530e-003 8.929453e-002 2.000000e-003
-3.600000e-002 1.400000e-001 2.600000e-002
-2.752381e-002 1.400000e-001 1.351502e-002
-2.810244e-002 1.400000e-001 1.340464e-002
-2.699081e-002 1.400000e-001 1.376583e-002
-2.597383e-002 1.400000e-001 1.633442e-002
-2.590000e-002 1.400000e-001 1.575000e-002
-2.653692e-002 1.400000e-001 1.414132e-002
-2.619068e-002 1.400000e-001 1.688212e-002
-2.619068e-002 1.400000e-001 1.461788e-002
-2.653692e-002 1.400000e-001 1.735869e-002
-2.597383e-002 1.400000e-001 1.516558e-002
-2.699081e-002 1.400000e-001 1.773417e-002
-2.752381e-002 1.400000e-001 1.798498e-002
-2.810244e-002 1.400000e-001 1.809536e-002
-2.869035e-002 1.400000e-001 1.805837e-002
-2.925058e-002 1.400000e-001 1.787634e-002
-2.974795e-002 1.400000e-001 1.756071e-002
-3.015119e-002 1.400000e-001 1.713130e-002
-3.043498e-002 1.400000e-001 1.661509e-002
-3.058147e-002 1.400000e-001 1.604453e-002
-3.058147e-002 1.400000e-001 1.545547e-002
-3.043498e-002 1.400000e-001 1.488491e-002
-3.015119e-002 1.400000e-001 1.436870e-002
-2.974795e-002 1.400000e-001 1.393929e-002
-2.925058e-002 1.400000e-001 1.362366e-002
-2.869035e-002 1.400000e-001 1.344163e-002
-7.523810e-003 1.400000e-001 1.351502e-002
-8.102443e-003 1.400000e-001 1.340464e-002
-6.990807e-003 1.400000e-001 1.376583e-002
-5.973830e-003 1.400000e-001 1.633442e-002
-5.900000e-003 1.400000e-001 1.575000e-002
-6.536924e-003 1.400000e-001 1.414132e-002
-6.190679e-003 1.400000e-001 1.688212e-002
-6.190679e-003 1.400000e-001 1.461788e-002
-6.536924e-003 1.400000e-001 1.735869e-002
-5.973830e-003 1.400000e-001 1.516558e-002
-6.990807e-003 1.400000e-001 1.773417e-002
-7.523810e-003 1.400000e-001 1.798498e-002
-8.102443e-003 1.400000e-001 1.809536e-002
-8.690346e-003 1.400000e-001 1.805837e-002
-9.250582e-003 1.400000e-001 1.787634e-002
-9.747947e-003 1.400000e-001 1.756071e-002
-1.015119e-002 1.400000e-001 1.713130e-002
-1.043497e-002 1.400000e-001 1.661509e-002
-1.058147e-002 1.400000e-001 1.604453e-002
-1.058147e-002 1.400000e-001 1.545547e-002
-1.043497e-002 1.400000e-001 1.488491e-002
-1.015119e-002 1.400000e-001 1.436870e-002
-9.747947e-003 1.400000e-001 1.393929e-002
-9.250582e-003 1.400000e-001 1.362366e-002
-8.690346e-003 1.400000e-001 1.344163e-002
3.247619e-002 1.400000e-001 1.351502e-002
3.189756e-002 1.400000e-001 1.340464e-002
3.300919e-002 1.400000e-001 1.376583e-002
3.402617e-002 1.400000e-001 1.633442e-002
3.410000e-002 1.400000e-001 1.575000e-002
3.346308e-002 1.400000e-001 1.414132e-002
3.380932e-002 1.400000e-001 1.688212e-002
3.380932e-002 1.400000e-001 1.461788e-002
3.346308e-002 1.400000e-001 1.735869e-002
3.402617e-002 1.400000e-001 1.516558e-002
3.300919e-002 1.400000e-001 1.773417e-002
3.247619e-002 1.400000e-001 1.798498e-002
3.189756e-002 1.400000e-001 1.809536e-002
3.130965e-002 1.400000e-001 1.805837e-002
3.074942e-002 1.400000e-001 1.787634e-002
3.025205e-002 1.400000e-001 1.756071e-002
2.984881e-002 1.400000e-001 1.713130e-002
2.956503e-002 1.400000e-001 1.661509e-002
2.941853e-002 1.400000e-001 1.604453e-002
2.941853e-002 1.400000e-001 1.545547e-002
2.956503e-002 1.400000e-001 1.488491e-002
2.984881e-002 1.400000e-001 1.436870e-002
3.025205e-002 1.400000e-001 1.393929e-002
3.074942e-002 1.400000e-001 1.362366e-002
3.130965e-002 1.400000e-001 1.344163e-002
1.247619e-002 1.400000e-001 1.351502e-002
1.189756e-002 1.400000e-001 1.340464e-002
1.300919e-002 1.400000e-001 1.376583e-002
1.402617e-002 1.400000e-001 1.633442e-002
1.410000e-002 1.400000e-001 1.575000e-002
1.346308e-002 1.400000e-001 1.414132e-002
1.380932e-002 1.400000e-001 1.688212e-002
1.380932e-002 1.400000e-001 1.461788e-002
1.346308e-002 1.400000e-001 1.735869e-002
1.402617e-002 1.400000e-001 1.516558e-002
1.300919e-002 1.400000e-001 1.773417e-002
1.247619e-002 1.400000e-001 1.798498e-002
1.189756e-002 1.400000e-001 1.809536e-002
1.130965e-002 1.400000e-001 1.805837e-002
1.074942e-002 1.400000e-001 1.787634e-002
1.025205e-002 1.400000e-001 1.756071e-002
9.848810e-003 1.400000e-001 1.713130e-002
9.565026e-003 1.400000e-001 1.661509e-002
9.418530e-003 1.400000e-001 1.604453e-002
9.418530e-003 1.400000e-001 1.545547e-002
9.565026e-003 1.400000e-001 1.488491e-002
9.848810e-003 1.400000e-001 1.436870e-002
1.025205e-002 1.400000e-001 1.393929e-002
1.074942e-002 1.400000e-001 1.362366e-002
1.130965e-002 1.400000e-001 1.344163e-002
3 0 1 2
3 3 0 2
3 4 1 0
3 4 0 5
3 3 2 6
3 7 3 6
3 8 9 10
3 11 9 8
3 12 13 14
3 15 16 17
3 18 14 13
3 15 17 19
3 20 13 12
3 21 22 23
3 24 18 13
3 25 11 8
3 26 27 16
3 28 13 20
3 29 21 23
3 26 16 15
3 30 24 13
3 31 13 28
3 32 11 25
3 32 33 11
3 34 13 31
3 35 33 32
3 36 35 37
3 36 33 35
3 38 39 40
3 41 42 43
3 44 45 42
3 44 42 41
3 46 39 38
3 47 13 48
3 49 38 40
3 49 40 50
3 51 41 43
3 52 53 45
3 49 50 54
3 55 48 13
3 52 45 44
3 56 13 47
3 57 51 43
3 58 59 39
3 60 55 13
3 60 13 34
3 57 43 61
3 58 62 59
3 58 39 46
3 60 34 63
3 64 54 27
3 64 49 54
3 65 66 53
3 65 53 52
3 67 61 68
3 69 63 70
3 67 57 61
3 71 72 62
3 69 60 63
3 71 62 58
3 73 74 66
3 75 27 26
3 75 64 27
3 76 69 70
3 73 66 65
3 77 67 68
3 76 70 78
3 75 26 79
3 80 81 72
3 80 72 71
3 82 83 74
3 84 75 79
3 82 74 73
3 85 76 78
3 84 79 86
3 87 88 81
3 87 81 80
3 89 68 90
3 89 77 68
3 91 92 83
3 93 84 86
3 94 95 96
3 94 97 95
3 91 83 82
3 98 89 90
3 93 86 99
3 100 101 88
3 98 90 102
3 100 88 87
3 103 104 97
3 105 106 92
3 107 93 99
3 105 92 91
3 103 97 94
3 107 99 108
3 109 110 101
3 111 112 113
3 109 101 100
3 111 13 56
3 114 98 102
3 111 115 112
3 111 116 115
3 111 117 116
3 118 119 106
3 111 56 117
3 120 94 96
3 118 106 105
3 120 96 121
3 122 123 110
3 122 110 109
3 124 125 104
3 124 126 125
3 127 119 118
3 127 128 119
3 124 104 103
3 129 130 123
3 131 111 113
3 129 123 122
3 132 120 121
3 132 133 134
3 132 121 133
3 135 126 124
3 135 136 126
3 137 111 131
3 138 111 137
3 139 140 36
3 139 36 37
3 141 132 134
3 142 143 144
3 145 146 143
3 145 143 142
3 147 140 139
3 148 111 138
3 149 139 37
3 149 37 150
3 151 142 144
3 152 136 135
3 151 144 153
3 152 154 136
3 155 156 114
3 157 158 146
3 152 78 154
3 155 114 102
3 157 146 145
3 152 85 78
3 155 140 147
3 155 102 140
3 159 150 160
3 161 151 153
3 159 149 150
3 161 153 162
3 163 164 158
3 165 166 156
3 163 158 157
3 167 168 85
3 165 156 155
3 167 85 152
3 169 159 160
3 169 160 170
3 171 164 163
3 171 172 164
3 173 174 168
3 175 166 165
3 173 176 174
3 175 177 166
3 173 168 167
3 178 170 179
3 178 169 170
3 180 181 172
3 182 177 175
3 180 172 171
3 183 134 184
3 182 185 177
3 186 141 134
3 187 178 179
3 187 179 188
3 186 134 183
3 189 181 180
3 190 183 184
3 189 191 181
3 192 185 182
3 190 184 193
3 192 194 185
3 195 196 141
3 195 141 186
3 197 29 23
3 198 30 13
3 197 187 188
3 197 188 29
3 198 190 193
3 199 194 192
3 198 193 30
3 200 201 196
3 199 202 194
3 200 196 195
3 203 202 199
3 203 204 202
3 205 198 13
3 206 201 200
3 207 204 203
3 207 208 204
3 209 210 201
3 209 201 206
3 211 210 209
3 212 210 211
3 213 214 215
3 213 216 214
3 213 217 216
3 213 218 217
3 213 219 218
3 213 220 219
3 213 221 197
3 213 222 221
3 213 215 222
3 223 108 224
3 213 197 23
3 213 111 130
3 225 107 108
3 213 130 226
3 213 226 227
3 213 227 128
3 225 108 223
3 228 212 211
3 213 128 127
3 213 127 208
3 225 229 107
3 213 208 207
3 213 207 220
3 226 130 129
3 230 212 228
3 231 212 230
3 232 223 224
3 232 224 233
3 234 229 225
3 234 235 229
3 236 231 230
3 237 232 233
3 237 233 191
3 238 231 236
3 239 235 234
3 238 236 240
3 239 241 235
3 242 191 189
3 50 238 240
3 242 189 243
3 242 237 191
3 244 241 239
3 244 245 241
3 246 243 247
3 246 242 243
3 40 238 50
3 248 249 245
3 248 245 244
3 250 251 252
3 253 254 251
3 253 255 254
3 253 251 250
3 256 246 247
3 257 249 248
3 257 258 249
3 259 260 261
3 259 261 262
3 263 252 264
3 263 250 252
3 263 264 265
3 266 267 255
3 266 268 267
3 269 261 270
3 266 255 253
3 269 262 261
3 271 173 260
3 271 260 259
3 271 176 173
3 272 273 258
3 274 269 270
3 272 258 257
3 275 265 276
3 277 278 176
3 275 263 265
3 277 176 271
3 279 280 268
3 279 268 266
3 281 270 282
3 281 274 270
3 283 273 272
3 284 278 277
3 283 285 273
3 286 275 276
3 284 287 278
3 286 276 288
3 289 282 290
3 289 281 282
3 227 226 285
3 227 285 283
3 291 287 284
3 292 247 280
3 291 293 287
3 292 256 247
3 292 280 279
3 294 289 290
3 295 293 291
3 295 296 293
3 297 290 298
3 297 294 290
3 299 296 295
3 299 300 296
3 301 298 59
3 301 297 298
3 302 111 148
3 303 304 256
3 302 300 299
3 302 148 300
3 303 256 292
3 23 305 161
3 23 306 305
3 23 307 306
3 23 288 307
3 62 301 59
3 308 111 302
3 23 161 162
3 23 162 13
3 309 304 303
3 130 111 308
3 309 310 304
3 309 53 310
3 311 288 23
3 312 286 288
3 312 313 286
3 312 288 311
3 314 311 23
3 315 313 312
3 316 317 318
3 45 53 309
3 319 314 23
3 320 317 316
3 320 321 317
3 322 313 315
3 322 323 313
3 324 318 325
3 326 319 23
3 324 316 318
3 327 323 322
3 327 328 323
3 329 330 321
3 331 326 23
3 329 321 320
3 332 325 205
3 332 324 325
3 333 328 327
3 334 335 330
3 336 331 23
3 334 330 329
3 162 205 13
3 162 332 205
3 10 328 333
3 10 9 328
3 19 335 334
3 22 336 23
3 19 17 335
3 337 338 339
3 340 337 339
3 341 342 343
3 339 338 344
3 345 346 347
3 342 341 348
3 343 342 349
3 350 351 352
3 338 353 344
3 342 348 354
3 345 347 355
3 349 342 356
3 351 357 358
3 342 354 359
3 352 351 358
3 356 342 360
3 360 342 361
3 358 357 362
3 363 362 364
3 362 357 364
3 365 366 367
3 368 369 370
3 367 366 371
3 372 365 373
3 370 369 374
3 369 375 374
3 365 367 373
3 368 370 376
3 377 342 378
3 379 372 373
3 375 380 381
3 374 375 381
3 371 366 382
3 342 377 383
3 384 385 382
3 366 384 382
3 378 342 386
3 368 376 387
3 361 342 388
3 389 368 387
3 353 379 390
3 380 391 392
3 379 373 390
3 393 361 388
3 342 383 388
3 381 380 392
3 385 394 395
3 382 385 395
3 344 353 396
3 397 389 398
3 389 387 398
3 399 344 396
3 392 391 400
3 401 393 402
3 391 403 400
3 353 390 396
3 393 388 402
3 394 404 405
3 395 394 405
3 401 402 406
3 407 399 408
3 397 398 409
3 410 401 406
3 399 396 408
3 403 411 412
3 404 413 414
3 400 403 412
3 405 404 414
3 415 397 416
3 417 407 418
3 397 409 416
3 410 406 419
3 407 408 418
3 411 420 421
3 413 422 423
3 412 411 421
3 414 413 423
3 424 425 426
3 425 427 426
3 428 415 429
3 430 417 431
3 415 416 429
3 421 420 432
3 417 418 431
3 420 433 432
3 422 434 435
3 423 422 435
3 427 436 437
3 428 429 438
3 426 427 437
3 433 439 440
3 441 442 443
3 434 444 445
3 442 446 443
3 446 447 443
3 447 448 443
3 432 433 440
3 435 434 445
3 448 386 443
3 386 342 443
3 449 424 450
3 440 439 451
3 444 452 453
3 424 426 450
3 439 454 451
3 445 444 453
3 437 436 455
3 436 456 455
3 456 457 455
3 441 443 458
3 449 450 459
3 460 461 459
3 461 449 459
3 455 457 462
3 457 463 462
3 458 443 464
3 465 466 467
3 464 443 468
3 467 466 469
3 460 459 470
3 363 364 471
3 466 472 469
3 364 473 471
3 471 473 474
3 465 467 475
3 476 465 475
3 468 443 477
3 410 419 478
3 363 471 479
3 472 480 481
3 482 363 479
3 463 483 478
3 483 410 478
3 462 463 478
3 469 472 481
3 484 476 485
3 476 475 485
3 474 473 486
3 438 487 486
3 473 428 486
3 428 438 486
3 482 479 488
3 481 480 489
3 480 490 489
3 491 482 488
3 486 487 492
3 490 493 494
3 478 419 495
3 419 496 495
3 487 497 492
3 489 490 494
3 491 488 498
3 499 491 498
3 493 500 501
3 495 496 502
3 497 503 504
3 496 505 502
3 505 506 502
3 492 497 504
3 494 493 501
3 499 498 507
3 508 499 507
3 500 509 510
3 511 460 512
3 504 503 513
3 503 514 513
3 512 460 515
3 460 470 515
3 501 500 510
3 508 507 516
3 511 512 517
3 518 508 516
3 519 511 517
3 513 514 520
3 514 521 520
3 515 470 522
3 470 523 522
3 342 359 524
3 518 516 525
3 345 355 525
3 355 518 525
3 519 517 524
3 359 519 524
3 520 521 526
3 521 527 526
3 522 523 528
3 523 529 528
3 527 530 531
3 342 524 532
3 526 527 531
3 528 529 533
3 530 534 535
3 531 530 535
3 529 536 537
3 533 529 537
3 538 430 539
3 537 536 540
3 540 536 541
3 542 543 544
3 543 545 544
3 545 546 544
3 546 547 544
3 547 548 544
3 548 549 544
3 525 550 544
3 550 551 544
3 539 430 552
3 551 542 544
3 430 431 552
3 345 525 544
3 431 553 552
3 540 541 554
3 452 443 544
3 555 452 544
3 556 555 544
3 454 556 544
3 451 454 544
3 557 538 558
3 534 451 544
3 538 539 558
3 535 534 544
3 549 535 544
3 453 452 555
3 554 541 559
3 559 541 560
3 553 561 562
3 552 553 562
3 509 557 563
3 559 560 564
3 557 558 563
3 562 561 565
3 561 566 565
3 567 564 568
3 564 560 568
3 510 509 569
3 509 563 569
3 567 568 372
3 570 510 569
3 565 566 571
3 566 572 571
3 573 570 574
3 570 569 574
3 572 575 576
3 372 568 365
3 571 572 576
3 577 578 579
3 578 580 581
3 580 582 581
3 579 578 581
3 573 574 583
3 575 584 585
3 576 575 585
3 577 579 586
3 587 577 586
3 588 589 590
3 591 587 586
3 589 592 590
3 581 582 593
3 582 594 593
3 589 588 595
3 594 596 593
3 597 589 595
3 584 598 599
3 590 592 600
3 585 584 599
3 502 506 600
3 592 502 600
3 597 595 601
3 602 591 603
3 591 586 603
3 593 596 604
3 596 605 604
3 600 506 606
3 506 607 606
3 597 601 608
3 598 609 610
3 599 598 610
3 611 597 608
3 606 607 612
3 607 613 612
3 614 602 615
3 602 603 615
3 611 608 616
3 609 555 556
3 610 609 556
3 617 611 616
3 605 573 618
3 573 583 618
3 604 605 618
3 613 619 620
3 612 613 620
3 617 616 621
3 619 622 623
3 620 619 623
3 617 621 624
3 625 617 624
3 622 626 627
3 623 622 627
3 625 624 628
3 384 625 628
3 618 583 629
3 626 477 630
3 477 443 630
3 627 626 630
3 583 631 629
3 384 628 385
3 485 632 345
3 632 633 345
3 633 634 345
3 634 614 345
3 342 484 345
3 630 443 635
3 484 485 345
3 629 631 636
3 637 380 636
3 635 443 452
3 631 637 636
3 345 614 638
3 614 615 639
3 638 614 639
3 615 640 639
3 345 638 641
3 639 640 642
3 643 644 645
3 636 380 375
3 345 641 646
3 644 647 648
3 642 640 649
3 645 644 648
3 640 650 649
3 643 645 651
3 345 646 652
3 653 643 651
3 649 650 654
3 650 655 654
3 647 656 657
3 345 652 658
3 648 647 657
3 532 653 659
3 653 651 659
3 654 655 660
3 656 661 662
3 345 658 663
3 657 656 662
3 342 532 484
3 532 659 484
3 655 664 665
3 661 337 340
3 660 655 665
3 345 663 346
3 662 661 340
3 665 664 350
3 350 664 351
3 7 6 5
3 5 6 4
3 608 281 289
3 616 608 289
3 404 394 72
3 616 289 294
3 621 616 294
3 413 404 81
3 404 72 81
3 621 294 297
3 624 621 297
3 422 413 88
3 413 81 88
3 628 624 301
3 624 297 301
3 628 301 62
3 422 88 101
3 385 628 62
3 394 385 62
3 434 422 110
3 394 62 72
3 422 101 110
3 444 434 123
3 434 110 123
3 452 444 130
3 444 123 130
3 635 452 308
3 452 130 308
3 630 635 302
3 627 630 302
3 635 308 302
3 627 302 299
3 623 627 295
3 620 623 295
3 627 299 295
3 620 295 291
3 620 291 284
3 612 620 284
3 606 612 284
3 606 284 277
3 606 277 271
3 600 606 271
3 590 600 271
3 590 271 259
3 590 259 262
3 588 590 262
3 588 262 269
3 595 588 269
3 595 269 274
3 601 595 274
3 601 274 281
3 608 601 281
3 569 563 242
3 569 242 246
3 574 569 246
3 574 246 256
3 583 574 256
3 403 391 74
3 391 66 74
3 583 256 304
3 631 583 304
3 411 403 83
3 420 411 83
3 403 74 83
3 637 631 310
3 631 304 310
3 420 83 92
3 637 310 53
3 380 637 53
3 391 380 66
3 380 53 66
3 433 420 106
3 420 92 106
3 439 433 119
3 433 106 119
3 454 439 128
3 439 119 128
3 556 454 227
3 454 128 227
3 610 556 283
3 599 610 283
3 556 227 283
3 599 283 272
3 585 599 257
3 576 585 257
3 599 272 257
3 576 257 248
3 576 248 244
3 571 576 244
3 565 571 244
3 565 244 239
3 565 239 234
3 562 565 234
3 552 562 234
3 552 234 225
3 552 225 223
3 539 552 223
3 539 223 232
3 558 539 232
3 558 232 237
3 563 558 237
3 563 237 242
3 408 75 84
3 572 566 241
3 408 84 93
3 418 408 93
3 431 418 93
3 575 572 245
3 431 93 107
3 572 241 245
3 431 107 229
3 584 575 249
3 575 245 249
3 553 431 229
3 561 553 229
3 584 249 258
3 561 229 235
3 566 561 241
3 561 235 241
3 598 584 273
3 584 258 273
3 609 598 285
3 598 273 285
3 555 609 226
3 609 285 226
3 453 555 129
3 555 226 129
3 445 453 122
3 453 129 122
3 435 445 109
3 423 435 109
3 445 122 109
3 423 109 100
3 414 423 87
3 405 414 87
3 423 100 87
3 405 87 80
3 405 80 71
3 395 405 71
3 382 395 71
3 382 71 58
3 382 58 46
3 371 382 46
3 371 46 38
3 367 371 38
3 367 38 49
3 373 367 49
3 390 373 49
3 390 49 64
3 390 64 75
3 396 390 75
3 408 396 75
3 402 69 76
3 406 402 76
3 406 76 85
3 419 406 85
3 613 607 287
3 607 278 287
3 419 85 168
3 496 419 168
3 619 613 293
3 622 619 293
3 613 287 293
3 505 496 174
3 496 168 174
3 622 293 296
3 505 174 176
3 506 505 176
3 607 506 176
3 626 622 300
3 607 176 278
3 622 296 300
3 477 626 148
3 626 300 148
3 468 477 138
3 477 148 138
3 464 468 137
3 468 138 137
3 458 464 131
3 441 458 131
3 464 137 131
3 441 131 113
3 442 441 112
3 446 442 112
3 441 113 112
3 446 112 115
3 446 115 116
3 447 446 116
3 448 447 116
3 448 116 117
3 448 117 56
3 386 448 56
3 378 386 56
3 378 56 47
3 378 47 48
3 377 378 48
3 377 48 55
3 383 377 55
3 383 55 60
3 388 383 60
3 388 60 69
3 402 388 69
3 523 141 196
3 529 523 196
3 529 196 201
3 536 529 201
3 536 201 210
3 541 536 210
3 365 568 40
3 366 365 40
3 568 238 40
3 541 210 212
3 560 541 212
3 366 40 39
3 560 212 231
3 568 560 238
3 384 366 59
3 625 384 59
3 560 231 238
3 366 39 59
3 625 59 298
3 617 625 290
3 625 298 290
3 611 617 282
3 617 290 282
3 597 611 270
3 589 597 270
3 611 282 270
3 589 270 261
3 592 589 260
3 589 261 260
3 502 592 173
3 495 502 173
3 592 260 173
3 495 173 167
3 478 495 152
3 462 478 152
3 495 167 152
3 462 152 135
3 455 462 135
3 455 135 124
3 455 124 103
3 437 455 103
3 426 437 103
3 426 103 94
3 450 426 94
3 450 94 120
3 459 450 120
3 459 120 132
3 470 459 132
3 470 132 141
3 523 470 141
3 653 532 325
3 653 325 318
3 643 653 318
3 337 661 335
3 643 318 317
3 644 643 317
3 338 337 17
3 337 335 17
3 647 644 321
3 644 317 321
3 353 338 16
3 338 17 16
3 647 321 330
3 656 647 330
3 661 656 330
3 379 353 27
3 353 16 27
3 661 330 335
3 372 379 54
3 379 27 54
3 567 372 50
3 372 54 50
3 564 567 240
3 567 50 240
3 559 564 236
3 564 240 236
3 554 559 230
3 559 236 230
3 554 230 228
3 540 554 211
3 537 540 211
3 554 228 211
3 537 211 209
3 537 209 206
3 533 537 206
3 528 533 206
3 528 206 200
3 528 200 195
3 522 528 195
3 515 522 195
3 515 195 186
3 515 186 183
3 512 515 183
3 512 183 190
3 517 512 190
3 517 190 198
3 524 517 198
3 524 198 205
3 532 524 205
3 532 205 325
3 511 519 193
3 511 193 184
3 425 424 96
3 511 184 134
3 460 511 134
3 461 460 134
3 427 425 95
3 425 96 95
3 461 134 133
3 436 427 97
3 427 95 97
3 461 133 121
3 449 461 121
3 424 449 121
3 456 436 104
3 436 97 104
3 424 121 96
3 457 456 125
3 456 104 125
3 463 457 126
3 457 125 126
3 483 463 136
3 463 126 136
3 410 483 154
3 483 136 154
3 410 154 78
3 401 410 70
3 393 401 70
3 410 78 70
3 393 70 63
3 361 393 34
3 360 361 34
3 393 63 34
3 360 34 31
3 360 31 28
3 356 360 28
3 349 356 28
3 349 28 20
3 349 20 12
3 343 349 12
3 343 12 14
3 341 343 14
3 348 341 14
3 348 14 18
3 348 18 24
3 354 348 24
3 359 354 24
3 359 24 30
3 359 30 193
3 519 359 193
3 476 153 144
3 465 476 144
3 466 465 144
3 493 490 164
3 466 144 143
3 500 493 172
3 493 164 172
3 466 143 146
3 472 466 146
3 480 472 146
3 509 500 181
3 500 172 181
3 490 480 158
3 480 146 158
3 557 509 191
3 490 158 164
3 509 181 191
3 538 557 233
3 557 191 233
3 430 538 224
3 538 233 224
3 417 430 108
3 430 224 108
3 407 417 99
3 417 108 99
3 407 99 86
3 399 407 79
3 344 399 79
3 407 86 79
3 344 79 26
3 339 344 15
3 340 339 15
3 344 26 15
3 340 15 19
3 340 19 334
3 662 340 334
3 657 662 334
3 657 334 329
3 657 329 320
3 648 657 320
3 648 320 316
3 645 648 316
3 645 316 324
3 651 645 324
3 659 651 324
3 659 324 332
3 659 332 162
3 484 659 162
3 476 484 162
3 476 162 153
3 633 632 306
3 634 633 306
3 634 306 307
3 634 307 288
3 614 634 288
3 602 614 288
3 577 587 252
3 578 577 252
3 587 264 252
3 602 288 276
3 580 578 251
3 578 252 251
3 602 276 265
3 591 602 265
3 587 591 265
3 582 580 254
3 580 251 254
3 587 265 264
3 594 582 255
3 582 254 255
3 596 594 267
3 594 255 267
3 605 596 268
3 596 267 268
3 573 605 280
3 605 268 280
3 573 280 247
3 570 573 243
3 510 570 243
3 573 247 243
3 510 243 189
3 501 510 180
3 494 501 180
3 510 189 180
3 494 180 171
3 494 171 163
3 489 494 163
3 481 489 163
3 481 163 157
3 481 157 145
3 469 481 145
3 469 145 142
3 467 469 142
3 475 467 142
3 475 142 151
3 475 151 161
3 485 475 161
3 632 485 161
3 632 161 305
3 632 305 306
3 663 331 336
3 346 663 336
3 346 336 22
3 347 346 22
3 508 518 188
3 347 22 21
3 355 347 21
3 499 508 179
3 508 188 179
3 518 355 29
3 355 21 29
3 491 499 170
3 499 179 170
3 518 29 188
3 482 491 160
3 491 170 160
3 363 482 150
3 482 160 150
3 362 363 37
3 363 150 37
3 358 362 35
3 362 37 35
3 352 358 32
3 358 35 32
3 350 352 25
3 352 32 25
3 665 350 8
3 350 25 8
3 660 665 10
3 665 8 10
3 654 660 333
3 660 10 333
3 654 333 327
3 649 654 327
3 649 327 322
3 642 649 322
3 642 322 315
3 639 642 315
3 639 315 312
3 638 639 312
3 638 312 311
3 641 638 311
3 641 311 314
3 646 641 314
3 646 314 319
3 652 646 319
3 652 319 326
3 658 652 326
3 658 326 331
3 663 658 331
3 615 286 313
3 640 615 313
3 640 313 323
3 364 357 33
3 650 640 323
3 650 323 328
3 473 364 36
3 364 33 36
3 655 650 328
3 664 655 9
3 428 473 140
3 655 328 9
3 473 36 140
3 664 9 11
3 415 428 102
3 351 664 11
3 428 140 102
3 357 351 33
3 351 11 33
3 397 415 90
3 415 102 90
3 389 397 68
3 397 90 68
3 389 68 61
3 368 389 43
3 389 61 43
3 369 368 42
3 375 369 42
3 368 43 42
3 375 42 45
3 636 375 309
3 375 45 309
3 629 636 303
3 618 629 303
3 636 309 303
3 618 303 292
3 618 292 279
3 604 618 279
3 604 279 266
3 593 604 266
3 581 593 266
3 581 266 253
3 581 253 250
3 579 581 250
3 579 250 263
3 586 579 263
3 586 263 275
3 603 586 275
3 603 275 286
3 615 603 286
3 398 67 77
3 409 398 77
3 416 409 77
3 503 497 166
3 416 77 89
3 416 89 98
3 514 503 177
3 503 166 177
3 429 416 98
3 438 429 98
3 438 98 114
3 521 514 185
3 514 177 185
3 438 114 156
3 487 438 156
3 521 185 194
3 497 487 166
3 487 156 166
3 527 521 202
3 521 194 202
3 530 527 204
3 527 202 204
3 534 530 208
3 530 204 208
3 451 534 127
3 534 208 127
3 440 451 118
3 451 127 118
3 432 440 105
3 421 432 105
3 440 118 105
3 421 105 91
3 412 421 82
3 400 412 82
3 421 91 82
3 400 82 73
3 400 73 65
3 392 400 65
3 381 392 65
3 381 65 52
3 381 52 44
3 374 381 44
3 374 44 41
3 370 374 41
3 376 370 41
3 376 41 51
3 376 51 57
3 387 376 57
3 398 387 57
3 398 57 67
3 507 178 187
3 516 507 187
3 543 542 215
3 516 187 197
3 525 516 197
3 545 543 214
3 543 215 214
3 550 525 221
3 525 197 221
3 551 550 221
3 546 545 216
3 545 214 216
3 542 551 222
3 551 221 222
3 547 546 217
3 542 222 215
3 546 216 217
3 548 547 218
3 547 217 218
3 549 548 219
3 548 218 219
3 535 549 220
3 549 219 220
3 531 535 207
3 535 220 207
3 526 531 203
3 531 207 203
3 520 526 199
3 526 203 199
3 513 520 192
3 520 199 192
3 504 513 182
3 513 192 182
3 504 182 175
3 492 504 175
3 492 175 165
3 486 492 165
3 486 165 155
3 474 486 155
3 474 155 147
3 471 474 147
3 471 147 139
3 471 139 149
3 479 471 149
3 479 149 159
3 488 479 159
3 488 159 169
3 498 488 169
3 498 169 178
3 507 498 178
3 666 667 668
3 669 668 670
3 670 668 671
3 671 668 672
3 668 673 674
3 672 668 675
3 668 674 675
3 672 675 676
3 676 675 677
3 668 667 673
3 678 679 680
3 681 680 682
3 683 684 685
3 684 682 685
3 682 680 685
3 685 680 666
3 680 679 667
3 666 680 667
3 685 666 686
3 666 668 686
3 683 685 687
3 685 686 687
3 684 683 688
3 683 687 688
3 682 684 689
3 684 688 689
3 681 682 690
3 682 689 690
3 680 681 691
3 681 690 691
3 692 693 667
3 694 667 693
3 695 667 694
3 696 667 695
3 697 667 696
3 679 698 699
3 679 699 700
3 679 700 692
3 679 692 667
3 701 698 679
3 702 667 697
3 703 701 679
3 704 703 679
3 705 704 679
3 706 705 679
3 707 706 679
3 708 707 679
3 709 710 711
3 709 712 710
3 713 702 710
3 713 667 702
3 713 710 712
3 714 711 715
3 714 709 711
3 716 667 713
3 717 715 718
3 717 714 715
3 719 667 716
3 720 718 721
3 720 717 718
3 722 667 719
3 723 721 724
3 723 720 721
3 725 724 726
3 725 723 724
3 727 726 728
3 727 728 708
3 727 725 726
3 729 708 679
3 729 727 708
3 730 729 679
3 731 730 679
3 732 733 734
3 732 735 733
3 736 737 733
3 736 733 735
3 738 732 734
3 738 734 739
3 740 667 722
3 740 722 737
3 740 737 736
3 741 738 739
3 741 739 742
3 743 667 740
3 744 742 745
3 744 745 746
3 744 741 742
3 747 667 743
3 748 744 746
3 749 746 750
3 749 748 746
3 751 750 752
3 751 749 750
3 753 752 754
3 753 754 731
3 753 751 752
3 755 753 731
3 756 757 758
3 756 759 757
3 760 761 757
3 760 757 759
3 762 756 758
3 762 758 763
3 764 667 747
3 764 747 761
3 764 761 760
3 765 762 763
3 765 763 766
3 767 667 764
3 768 765 766
3 768 766 769
3 770 768 769
3 770 769 771
3 772 770 771
3 772 771 773
3 774 772 773
3 774 773 775
3 776 774 775
3 776 775 777
3 778 776 777
3 778 777 779
3 780 781 782
3 780 782 783
3 784 782 781
3 784 785 782
3 786 783 787
3 786 780 783
3 788 785 784
3 788 789 785
3 790 786 787
3 790 787 791
3 792 791 793
3 792 790 791
3 794 792 793
3 794 793 795
3 796 794 795
3 796 795 797
3 798 796 797
3 798 797 799
3 800 798 799
3 800 799 801
3 802 801 803
3 802 800 801
3 673 804 805
3 673 805 806
3 673 806 807
3 673 807 808
3 673 788 804
3 673 789 788
3 673 767 789
3 673 667 767
3 809 808 810
3 809 810 811
3 809 811 812
3 809 812 813
3 809 813 814
3 809 814 815
3 809 815 816
3 809 816 817
3 809 817 802
3 809 802 803
3 809 673 808
3 818 809 819
3 818 673 809
3 679 809 803
3 679 803 778
3 679 778 779
3 679 779 755
3 679 755 731
3 820 821 822
3 823 822 821
3 824 820 822
3 825 822 823
3 826 824 822
3 827 822 825
3 828 826 822
3 829 828 822
3 669 822 827
3 669 830 831
3 669 832 830
3 669 827 832
3 687 669 688
3 689 688 669
3 690 689 669
3 686 669 687
3 691 669 831
3 691 690 669
3 691 833 834
3 691 835 833
3 691 836 835
3 691 837 836
3 691 831 837
3 668 669 686
3 838 839 840
3 841 838 840
3 841 840 829
3 842 839 838
3 842 843 839
3 844 829 822
3 844 841 829
3 845 846 843
3 845 843 842
3 847 844 822
3 848 849 846
3 848 846 845
3 850 847 822
3 851 849 848
3 851 852 849
3 853 852 851
3 853 854 852
3 855 856 854
3 855 854 853
3 857 691 834
3 857 834 856
3 857 856 855
3 858 691 857
3 859 691 858
3 860 861 862
3 863 860 862
3 863 862 864
3 865 861 860
3 865 866 861
3 867 863 864
3 867 864 850
3 868 866 865
3 868 869 866
3 870 867 850
3 871 869 868
3 871 872 869
3 873 872 871
3 873 874 872
3 875 876 874
3 875 874 873
3 877 878 876
3 877 876 875
3 879 880 878
3 879 878 877
3 881 882 880
3 881 880 879
3 883 884 885
3 886 885 887
3 886 883 885
3 888 889 884
3 888 884 883
3 890 891 889
3 890 889 888
3 892 893 886
3 892 894 870
3 892 870 850
3 892 887 894
3 892 886 887
3 892 850 822
3 895 893 892
3 896 897 891
3 896 891 890
3 898 895 892
3 899 900 897
3 899 897 896
3 901 898 892
3 902 903 900
3 902 900 899
3 904 901 892
3 905 903 902
3 905 906 903
3 907 904 892
3 908 909 906
3 908 906 905
3 910 907 892
3 911 910 892
3 912 911 892
3 913 912 892
3 913 914 912
3 913 915 914
3 913 916 915
3 913 917 916
3 913 918 917
3 913 919 918
3 913 920 919
3 913 908 920
3 913 909 908
3 913 921 909
3 913 922 921
3 913 691 859
3 913 859 882
3 913 882 881
3 913 881 922
3 673 818 923
3 674 923 924
3 674 673 923
3 675 924 925
3 675 674 924
3 677 925 926
3 677 675 925
3 676 926 927
3 676 677 926
3 672 927 928
3 672 676 927
3 671 672 928
3 669 670 929
3 669 929 822
3 671 928 930
3 671 930 670
3 680 931 932
3 931 680 933
3 933 680 934
3 934 680 935
3 935 680 936
3 937 938 678
3 939 937 678
3 932 939 678
3 680 932 678
3 678 938 940
3 936 680 941
3 678 940 942
3 678 942 943
3 678 943 944
3 678 944 945
3 678 945 946
3 678 946 947
3 948 949 950
3 951 948 950
3 949 952 950
3 949 941 953
3 941 680 953
3 952 949 953
3 954 951 955
3 951 950 955
3 953 680 956
3 957 954 958
3 954 955 958
3 956 680 959
3 960 957 961
3 957 958 961
3 959 680 962
3 963 960 964
3 960 961 964
3 965 963 966
3 963 964 966
3 947 965 967
3 965 966 967
3 678 947 968
3 947 967 968
3 678 968 969
3 678 969 970
3 971 972 973
3 974 971 973
3 975 974 976
3 974 973 976
3 973 972 977
3 975 976 978
3 972 962 979
3 977 972 979
3 962 680 979
3 980 975 981
3 982 980 981
3 975 978 981
3 979 680 983
3 982 981 984
3 983 680 985
3 986 982 987
3 988 986 987
3 982 984 987
3 988 987 989
3 990 988 989
3 991 990 992
3 990 989 992
3 970 991 993
3 991 992 993
3 970 993 994
3 995 996 997
3 998 995 999
3 1000 998 999
3 995 997 999
3 997 996 1001
3 1000 999 1002
3 996 985 1003
3 985 680 1003
3 1001 996 1003
3 1004 1000 1005
3 1000 1002 1005
3 1003 680 1006
3 1007 1004 1008
3 1004 1005 1008
3 1009 1007 1010
3 1011 1009 1010
3 1007 1008 1010
3 1011 1010 1012
3 1011 1012 1013
3 1014 1011 1013
3 1015 1014 1013
3 1016 1015 1017
3 1015 1013 1017
3 1016 1017 1018
3 1019 1020 1021
3 1022 1019 1021
3 1022 1021 1023
3 1024 1022 1023
3 1021 1020 1025
3 1026 1024 1027
3 1024 1023 1027
3 1025 1020 1028
3 1020 1029 1028
3 1026 1027 1030
3 1031 1026 1030
3 1031 1030 1032
3 1033 1031 1032
3 1033 1032 1034
3 1035 1033 1034
3 1035 1034 1036
3 1037 1035 1036
3 1037 1036 1038
3 1037 1038 1039
3 1040 1037 1039
3 1040 1039 1041
3 1042 1040 1041
3 1028 1029 691
3 1043 1044 691
3 1045 1043 691
3 1046 1045 691
3 1047 1046 691
3 1044 1028 691
3 1029 1006 691
3 1006 680 691
3 1042 1041 1048
3 1047 691 1048
3 1049 1047 1048
3 1050 1049 1048
3 1051 1050 1048
3 1052 1051 1048
3 1053 1052 1048
3 1054 1053 1048
3 1055 1054 1048
3 1056 1055 1048
3 1041 1056 1048
3 1048 691 913
3 1042 1048 678
3 1018 1042 678
3 1016 1018 678
3 994 1016 678
3 970 994 678
3 809 679 678
3 809 678 1048
3 818 819 913
3 928 913 930
3 928 818 913
3 927 818 928
3 924 923 818
3 925 927 926
3 925 818 927
3 925 924 818
3 913 809 1048
3 819 809 913
3 699 937 939
3 700 699 939
3 700 939 932
3 692 700 932
3 697 696 936
3 696 935 936
3 692 932 931
3 693 692 931
3 702 697 941
3 710 702 941
3 697 936 941
3 694 693 933
3 693 931 933
3 695 694 933
3 710 941 949
3 695 933 934
3 696 695 935
3 711 710 948
3 695 934 935
3 715 711 948
3 710 949 948
3 715 948 951
3 718 715 954
3 715 951 954
3 721 718 957
3 724 721 957
3 718 954 957
3 724 957 960
3 726 724 963
3 724 960 963
3 728 726 965
3 708 728 965
3 726 963 965
3 708 965 947
3 708 947 946
3 707 708 946
3 707 946 945
3 706 707 945
3 705 706 945
3 705 945 944
3 705 944 943
3 704 705 943
3 704 943 942
3 703 704 942
3 703 942 940
3 701 703 940
3 701 940 938
3 698 701 938
3 698 938 937
3 699 698 937
3 717 958 955
3 714 717 955
3 714 955 950
3 709 714 950
3 722 719 962
3 719 959 962
3 709 950 952
3 712 709 952
3 737 722 972
3 733 737 972
3 722 962 972
3 713 712 953
3 712 952 953
3 716 713 953
3 733 972 971
3 716 953 956
3 719 716 959
3 734 733 974
3 716 956 959
3 739 734 974
3 733 971 974
3 739 974 975
3 742 739 980
3 739 975 980
3 745 742 982
3 746 745 982
3 742 980 982
3 746 982 986
3 750 746 988
3 746 986 988
3 752 750 990
3 754 752 990
3 750 988 990
3 754 990 991
3 754 991 970
3 731 754 970
3 731 970 969
3 730 731 969
3 729 730 969
3 729 969 968
3 729 968 967
3 727 729 967
3 727 967 966
3 725 727 966
3 725 966 964
3 723 725 964
3 723 964 961
3 720 723 961
3 720 961 958
3 717 720 958
3 765 1005 1002
3 762 765 1002
3 762 1002 999
3 756 762 999
3 789 767 1029
3 767 1006 1029
3 756 999 997
3 759 756 997
3 785 789 1020
3 782 785 1020
3 789 1029 1020
3 760 759 1001
3 759 997 1001
3 764 760 1001
3 782 1020 1019
3 764 1001 1003
3 767 764 1006
3 783 782 1022
3 764 1003 1006
3 787 783 1022
3 782 1019 1022
3 787 1022 1024
3 791 787 1026
3 787 1024 1026
3 793 791 1031
3 795 793 1031
3 791 1026 1031
3 795 1031 1033
3 797 795 1035
3 795 1033 1035
3 799 797 1037
3 801 799 1037
3 797 1035 1037
3 801 1037 1040
3 801 1040 1042
3 803 801 1042
3 803 1042 1018
3 778 803 1018
3 776 778 1018
3 776 1018 1017
3 776 1017 1013
3 774 776 1013
3 774 1013 1012
3 772 774 1012
3 772 1012 1010
3 770 772 1010
3 770 1010 1008
3 768 770 1008
3 768 1008 1005
3 765 768 1005
3 741 981 978
3 738 741 978
3 738 978 976
3 732 738 976
3 747 743 985
3 743 983 985
3 732 976 973
3 735 732 973
3 761 747 996
3 757 761 996
3 747 985 996
3 736 735 977
3 735 973 977
3 740 736 977
3 757 996 995
3 740 977 979
3 743 740 983
3 758 757 998
3 740 979 983
3 763 758 998
3 757 995 998
3 763 998 1000
3 766 763 1004
3 763 1000 1004
3 769 766 1007
3 771 769 1007
3 766 1004 1007
3 771 1007 1009
3 773 771 1011
3 771 1009 1011
3 775 773 1014
3 777 775 1014
3 773 1011 1014
3 777 1014 1015
3 777 1015 1016
3 779 777 1016
3 779 1016 994
3 755 779 994
3 753 755 994
3 753 994 993
3 753 993 992
3 751 753 992
3 751 992 989
3 749 751 989
3 749 989 987
3 748 749 987
3 748 987 984
3 744 748 984
3 744 984 981
3 741 744 981
3 790 1030 1027
3 786 790 1027
3 786 1027 1023
3 780 786 1023
3 805 804 1043
3 804 1044 1043
3 780 1023 1021
3 781 780 1021
3 806 805 1045
3 807 806 1045
3 805 1043 1045
3 784 781 1025
3 781 1021 1025
3 788 784 1025
3 807 1045 1046
3 788 1025 1028
3 804 788 1044
3 808 807 1047
3 788 1028 1044
3 810 808 1047
3 807 1046 1047
3 810 1047 1049
3 811 810 1050
3 810 1049 1050
3 812 811 1051
3 813 812 1051
3 811 1050 1051
3 813 1051 1052
3 814 813 1053
3 813 1052 1053
3 815 814 1054
3 816 815 1054
3 814 1053 1054
3 816 1054 1055
3 816 1055 1056
3 817 816 1056
3 817 1056 1041
3 802 817 1041
3 800 802 1041
3 800 1041 1039
3 800 1039 1038
3 798 800 1038
3 798 1038 1036
3 796 798 1036
3 796 1036 1034
3 794 796 1034
3 794 1034 1032
3 792 794 1032
3 792 1032 1030
3 790 792 1030
3 930 913 892
3 930 892 1057
3 822 1057 892
3 929 1057 822
3 1058 1059 920
3 1058 920 908
3 1060 1058 908
3 1061 1062 896
3 1060 908 905
3 1063 1060 905
3 1064 1061 890
3 1061 896 890
3 1065 1063 902
3 1063 905 902
3 1066 1064 888
3 1064 890 888
3 1065 902 899
3 1067 1065 899
3 1062 1067 899
3 1068 1066 883
3 1066 888 883
3 1062 899 896
3 1069 1068 886
3 1068 883 886
3 1070 1069 893
3 1069 886 893
3 1071 1070 895
3 1070 893 895
3 1072 1071 898
3 1071 895 898
3 1073 1072 901
3 1072 898 901
3 1073 901 904
3 1074 1073 907
3 1075 1074 907
3 1073 904 907
3 1075 907 910
3 1075 910 911
3 1076 1075 911
3 1077 1076 911
3 1077 911 912
3 1077 912 914
3 1078 1077 914
3 1079 1078 914
3 1079 914 915
3 1079 915 916
3 1080 1079 916
3 1080 916 917
3 1081 1080 917
3 1081 917 918
3 1082 1081 918
3 1082 918 919
3 1059 1082 919
3 1059 919 920
3 1083 1084 881
3 1083 881 879
3 1085 1083 879
3 1086 1087 871
3 1085 879 877
3 1088 1085 877
3 1089 1086 868
3 1086 871 868
3 1090 1088 875
3 1088 877 875
3 1091 1089 865
3 1089 868 865
3 1090 875 873
3 1092 1090 873
3 1087 1092 873
3 1093 1091 860
3 1091 865 860
3 1087 873 871
3 1094 1093 863
3 1093 860 863
3 1095 1094 867
3 1094 863 867
3 1096 1095 870
3 1095 867 870
3 1097 1096 894
3 1096 870 894
3 1098 1097 887
3 1097 894 887
3 1098 887 885
3 1099 1098 884
3 1100 1099 884
3 1098 885 884
3 1100 884 889
3 1100 889 891
3 1101 1100 891
3 1102 1101 891
3 1102 891 897
3 1102 897 900
3 1103 1102 900
3 1104 1103 900
3 1104 900 903
3 1104 903 906
3 1105 1104 906
3 1105 906 909
3 1106 1105 909
3 1106 909 921
3 1107 1106 921
3 1107 921 922
3 1084 1107 922
3 1084 922 881
3 1108 1109 836
3 1108 836 837
3 1110 1108 837
3 1111 1112 827
3 1110 837 831
3 1113 1110 831
3 1114 1111 825
3 1111 827 825
3 1115 1113 830
3 1113 831 830
3 1116 1114 823
3 1114 825 823
3 1115 830 832
3 1117 1115 832
3 1112 1117 832
3 1118 1116 821
3 1116 823 821
3 1112 832 827
3 1119 1118 820
3 1118 821 820
3 1120 1119 824
3 1119 820 824
3 1121 1120 826
3 1120 824 826
3 1122 1121 828
3 1121 826 828
3 1123 1122 829
3 1122 828 829
3 1123 829 840
3 1124 1123 839
3 1125 1124 839
3 1123 840 839
3 1125 839 843
3 1125 843 846
3 1126 1125 846
3 1127 1126 846
3 1127 846 849
3 1127 849 852
3 1128 1127 852
3 1129 1128 852
3 1129 852 854
3 1129 854 856
3 1130 1129 856
3 1130 856 834
3 1131 1130 834
3 1131 834 833
3 1132 1131 833
3 1132 833 835
3 1109 1132 835
3 1109 835 836
3 1133 1134 858
3 1133 858 857
3 1135 1133 857
3 1136 1137 848
3 1135 857 855
3 1138 1135 855
3 1139 1136 845
3 1136 848 845
3 1140 1138 853
3 1138 855 853
3 1141 1139 842
3 1139 845 842
3 1140 853 851
3 1142 1140 851
3 1137 1142 851
3 1143 1141 838
3 1141 842 838
3 1137 851 848
3 1144 1143 841
3 1143 838 841
3 1145 1144 844
3 1144 841 844
3 1146 1145 847
3 1145 844 847
3 1147 1146 850
3 1146 847 850
3 1148 1147 864
3 1147 850 864
3 1148 864 862
3 1149 1148 861
3 1150 1149 861
3 1148 862 861
3 1150 861 866
3 1150 866 869
3 1151 1150 869
3 1152 1151 869
3 1152 869 872
3 1152 872 874
3 1153 1152 874
3 1154 1153 874
3 1154 874 876
3 1154 876 878
3 1155 1154 878
3 1155 878 880
3 1156 1155 880
3 1156 880 882
3 1157 1156 882
3 1157 882 859
3 1134 1157 859
3 1134 859 858
3 1074 1057 1073
3 1072 1073 1057
3 1075 1057 1074
3 1071 1072 1057
3 1076 1057 1075
3 1070 1071 1057
3 1077 1057 1076
3 1069 1070 1057
3 1068 1069 1057
3 930 1057 1077
3 930 1077 1078
3 930 1078 1079
3 930 1079 1080
3 930 1080 1081
3 930 1081 1082
3 930 1082 1059
3 930 1059 1058
3 930 1058 1060
3 1098 1066 1068
3 1099 1064 1066
3 1099 1066 1098
3 1097 1068 1057
3 1097 1098 1068
3 1100 1061 1064
3 1100 1064 1099
3 1096 1097 1057
3 1101 1062 1061
3 1101 1061 1100
3 1095 1096 1057
3 1102 1067 1062
3 1102 1062 1101
3 1103 1065 1067
3 1103 1067 1102
3 1104 1063 1065
3 1104 1065 1103
3 1105 1060 1063
3 1105 1063 1104
3 1106 930 1060
3 1106 1060 1105
3 1107 930 1106
3 1084 930 1107
3 1148 1091 1093
3 1149 1089 1091
3 1149 1091 1148
3 1147 1093 1094
3 1147 1148 1093
3 1150 1089 1149
3 1150 1086 1089
3 1146 1147 1094
3 1146 1094 1095
3 1146 1095 1057
3 1151 1086 1150
3 1151 1087 1086
3 1152 1087 1151
3 1152 1092 1087
3 1153 1092 1152
3 1153 1090 1092
3 1154 1090 1153
3 1154 1088 1090
3 1155 1088 1154
3 1155 1085 1088
3 1156 1085 1155
3 1156 1083 1085
3 1157 1083 1156
3 1123 1141 1143
3 1124 1141 1123
3 1124 1139 1141
3 1122 1123 1143
3 1122 1143 1144
3 1125 1139 1124
3 1125 1136 1139
3 1126 1136 1125
3 1126 1137 1136
3 1127 1142 1137
3 1127 1137 1126
3 929 1146 1057
3 929 1120 1121
3 929 1121 1122
3 929 1122 1144
3 929 1144 1145
3 929 1145 1146
3 1119 1120 929
3 1128 1140 1142
3 1128 1142 1127
3 1118 1119 929
3 1129 1138 1140
3 1129 1140 1128
3 1116 1118 929
3 1130 1135 1138
3 1130 1138 1129
3 1114 1116 929
3 1131 1135 1130
3 1111 1114 929
3 1112 1111 929
3 670 1112 929
3 670 1131 1132
3 670 1132 1109
3 670 1109 1108
3 670 1108 1110
3 670 1110 1113
3 670 1113 1115
3 670 1115 1117
3 670 1117 1112
3 670 1135 1131
3 670 1134 1133
3 670 1133 1135
3 670 930 1084
3 670 1084 1083
3 670 1083 1157
3 670 1157 1134
