ply
format ascii 1.0
comment Written by HALCON (export v1.0)
element vertex 288
property float x
property float y
property float z
element face 572
property list uchar int vertex_index
end_header
5.289640e-003 8.486442e-003 0.000000e+000
4.403942e-003 8.978046e-003 0.000000e+000
-9.189578e-003 -3.943558e-003 0.000000e+000
-8.207634e-003 -5.712682e-003 0.000000e+000
-6.889669e-003 -7.247928e-003 0.000000e+000
-8.743467e-003 -4.853020e-003 0.000000e+000
6.889669e-003 -7.247928e-003 0.000000e+000
7.587581e-003 -6.513725e-003 0.000000e+000
6.121060e-003 -7.907757e-003 0.000000e+000
-9.541392e-003 -2.993631e-003 0.000000e+000
3.473053e-003 9.377522e-003 0.000000e+000
2.506525e-003 9.680771e-003 0.000000e+000
5.289640e-003 -8.486442e-003 0.000000e+000
-9.795300e-003 -2.012985e-003 0.000000e+000
8.207634e-003 -5.712682e-003 0.000000e+000
8.743467e-003 -4.853020e-003 0.000000e+000
1.514278e-003 9.884683e-003 0.000000e+000
5.064920e-004 9.987165e-003 0.000000e+000
4.403942e-003 -8.978046e-003 0.000000e+000
3.473053e-003 -9.377522e-003 0.000000e+000
-9.948693e-003 -1.011683e-003 0.000000e+000
-1.000000e-002 0.000000e+000 0.000000e+000
9.189578e-003 -3.943558e-003 0.000000e+000
9.541392e-003 -2.993631e-003 0.000000e+000
-9.948693e-003 1.011683e-003 0.000000e+000
-5.064920e-004 9.987165e-003 0.000000e+000
-2.506525e-003 9.680771e-003 0.000000e+000
-1.514278e-003 9.884683e-003 0.000000e+000
-9.795300e-003 2.012985e-003 0.000000e+000
-9.541392e-003 2.993631e-003 0.000000e+000
9.795300e-003 -2.012985e-003 0.000000e+000
9.948693e-003 -1.011683e-003 0.000000e+000
1.000000e-002 0.000000e+000 0.000000e+000
5.064920e-004 -9.987165e-003 0.000000e+000
1.514278e-003 -9.884683e-003 0.000000e+000
-5.064920e-004 -9.987165e-003 0.000000e+000
2.506525e-003 -9.680771e-003 0.000000e+000
-3.473053e-003 9.377522e-003 0.000000e+000
-4.403942e-003 8.978046e-003 0.000000e+000
-9.189578e-003 3.943558e-003 0.000000e+000
-8.743467e-003 4.853020e-003 0.000000e+000
9.948693e-003 1.011683e-003 0.000000e+000
9.795300e-003 2.012985e-003 0.000000e+000
-5.289640e-003 8.486442e-003 0.000000e+000
-6.121060e-003 7.907757e-003 0.000000e+000
-8.207634e-003 5.712682e-003 0.000000e+000
-7.587581e-003 6.513725e-003 0.000000e+000
-6.889669e-003 7.247928e-003 0.000000e+000
-2.506525e-003 -9.680771e-003 0.000000e+000
-1.514278e-003 -9.884683e-003 0.000000e+000
-3.473053e-003 -9.377522e-003 0.000000e+000
9.541392e-003 2.993631e-003 0.000000e+000
8.743467e-003 4.853020e-003 0.000000e+000
9.189578e-003 3.943558e-003 0.000000e+000
-4.403942e-003 -8.978046e-003 0.000000e+000
-5.289640e-003 -8.486442e-003 0.000000e+000
-6.121060e-003 -7.907757e-003 0.000000e+000
6.889669e-003 7.247928e-003 0.000000e+000
8.207634e-003 5.712682e-003 0.000000e+000
7.587581e-003 6.513725e-003 0.000000e+000
-7.587581e-003 -6.513725e-003 0.000000e+000
6.121060e-003 7.907757e-003 0.000000e+000
1.000000e-002 0.000000e+000 -4.000000e-002
9.948693e-003 1.011683e-003 -4.000000e-002
9.795300e-003 2.012985e-003 -4.000000e-002
9.541392e-003 2.993631e-003 -4.000000e-002
9.189578e-003 3.943558e-003 -4.000000e-002
8.743467e-003 4.853020e-003 -4.000000e-002
8.207634e-003 5.712682e-003 -4.000000e-002
7.587581e-003 6.513725e-003 -4.000000e-002
6.889669e-003 7.247928e-003 -4.000000e-002
6.121060e-003 7.907757e-003 -4.000000e-002
5.289640e-003 8.486442e-003 -4.000000e-002
4.403942e-003 8.978046e-003 -4.000000e-002
3.473053e-003 9.377522e-003 -4.000000e-002
2.506525e-003 9.680771e-003 -4.000000e-002
1.514278e-003 9.884683e-003 -4.000000e-002
5.064920e-004 9.987165e-003 -4.000000e-002
-5.064920e-004 9.987165e-003 -4.000000e-002
-1.514278e-003 9.884683e-003 -4.000000e-002
-2.506525e-003 9.680771e-003 -4.000000e-002
-3.473053e-003 9.377522e-003 -4.000000e-002
-4.403942e-003 8.978046e-003 -4.000000e-002
-5.289640e-003 8.486442e-003 -4.000000e-002
-6.121060e-003 7.907757e-003 -4.000000e-002
-6.889669e-003 7.247928e-003 -4.000000e-002
-7.587581e-003 6.513725e-003 -4.000000e-002
-8.207634e-003 5.712682e-003 -4.000000e-002
-8.743467e-003 4.853020e-003 -4.000000e-002
-9.189578e-003 3.943558e-003 -4.000000e-002
-9.541392e-003 2.993631e-003 -4.000000e-002
-9.795300e-003 2.012985e-003 -4.000000e-002
-9.948693e-003 1.011683e-003 -4.000000e-002
-1.000000e-002 0.000000e+000 -4.000000e-002
-9.948693e-003 -1.011683e-003 -4.000000e-002
-9.795300e-003 -2.012985e-003 -4.000000e-002
-9.541392e-003 -2.993631e-003 -4.000000e-002
-9.189578e-003 -3.943558e-003 -4.000000e-002
-8.743467e-003 -4.853020e-003 -4.000000e-002
-8.207634e-003 -5.712682e-003 -4.000000e-002
-7.587581e-003 -6.513725e-003 -4.000000e-002
-6.889669e-003 -7.247928e-003 -4.000000e-002
-6.121060e-003 -7.907757e-003 -4.000000e-002
-5.289640e-003 -8.486442e-003 -4.000000e-002
-4.403942e-003 -8.978046e-003 -4.000000e-002
-3.473053e-003 -9.377522e-003 -4.000000e-002
-2.506525e-003 -9.680771e-003 -4.000000e-002
-1.514278e-003 -9.884683e-003 -4.000000e-002
-5.064920e-004 -9.987165e-003 -4.000000e-002
5.064920e-004 -9.987165e-003 -4.000000e-002
1.514278e-003 -9.884683e-003 -4.000000e-002
2.506525e-003 -9.680771e-003 -4.000000e-002
3.473053e-003 -9.377522e-003 -4.000000e-002
4.403942e-003 -8.978046e-003 -4.000000e-002
5.289640e-003 -8.486442e-003 -4.000000e-002
6.121060e-003 -7.907757e-003 -4.000000e-002
6.889669e-003 -7.247928e-003 -4.000000e-002
7.587581e-003 -6.513725e-003 -4.000000e-002
8.207634e-003 -5.712682e-003 -4.000000e-002
8.743467e-003 -4.853020e-003 -4.000000e-002
9.189578e-003 -3.943558e-003 -4.000000e-002
9.541392e-003 -2.993631e-003 -4.000000e-002
9.795300e-003 -2.012985e-003 -4.000000e-002
9.948693e-003 -1.011683e-003 -4.000000e-002
-1.103586e-002 -1.015922e-002 -4.000000e-002
-1.015922e-002 -1.103586e-002 -4.000000e-002
-1.183711e-002 -9.213191e-003 -4.000000e-002
-9.213191e-003 -1.183711e-002 -4.000000e-002
-8.204223e-003 -1.255750e-002 -4.000000e-002
-1.255750e-002 -8.204223e-003 -4.000000e-002
-7.139211e-003 -1.319211e-002 -4.000000e-002
-1.319211e-002 -7.139211e-003 -4.000000e-002
-6.025431e-003 -1.373660e-002 -4.000000e-002
-1.373660e-002 -6.025431e-003 -4.000000e-002
-1.418726e-002 -4.870492e-003 -4.000000e-002
-4.870492e-003 -1.418726e-002 -4.000000e-002
-1.454100e-002 -3.682282e-003 -4.000000e-002
-3.682282e-003 -1.454100e-002 -4.000000e-002
-2.468919e-003 -1.479542e-002 -4.000000e-002
-1.479542e-002 -2.468919e-003 -4.000000e-002
-1.238690e-003 -1.494877e-002 -4.000000e-002
-1.494877e-002 -1.238690e-003 -4.000000e-002
0.000000e+000 -1.500000e-002 -4.000000e-002
-1.500000e-002 0.000000e+000 -4.000000e-002
-1.494877e-002 1.238690e-003 -4.000000e-002
1.238690e-003 -1.494877e-002 -4.000000e-002
-1.479542e-002 2.468919e-003 -4.000000e-002
2.468919e-003 -1.479542e-002 -4.000000e-002
-1.454100e-002 3.682282e-003 -4.000000e-002
3.682282e-003 -1.454100e-002 -4.000000e-002
4.870492e-003 -1.418726e-002 -4.000000e-002
-1.418726e-002 4.870492e-003 -4.000000e-002
6.025431e-003 -1.373660e-002 -4.000000e-002
-1.373660e-002 6.025431e-003 -4.000000e-002
-1.319211e-002 7.139211e-003 -4.000000e-002
7.139211e-003 -1.319211e-002 -4.000000e-002
-1.255750e-002 8.204223e-003 -4.000000e-002
8.204223e-003 -1.255750e-002 -4.000000e-002
-1.183711e-002 9.213191e-003 -4.000000e-002
9.213191e-003 -1.183711e-002 -4.000000e-002
1.015922e-002 -1.103586e-002 -4.000000e-002
-1.103586e-002 1.015922e-002 -4.000000e-002
1.103586e-002 -1.015922e-002 -4.000000e-002
-1.015922e-002 1.103586e-002 -4.000000e-002
1.183711e-002 -9.213191e-003 -4.000000e-002
-9.213191e-003 1.183711e-002 -4.000000e-002
1.255750e-002 -8.204223e-003 -4.000000e-002
-8.204223e-003 1.255750e-002 -4.000000e-002
1.319211e-002 -7.139211e-003 -4.000000e-002
-7.139211e-003 1.319211e-002 -4.000000e-002
1.373660e-002 -6.025431e-003 -4.000000e-002
-6.025431e-003 1.373660e-002 -4.000000e-002
1.418726e-002 -4.870492e-003 -4.000000e-002
-4.870492e-003 1.418726e-002 -4.000000e-002
1.454100e-002 -3.682282e-003 -4.000000e-002
-3.682282e-003 1.454100e-002 -4.000000e-002
1.479542e-002 -2.468919e-003 -4.000000e-002
-2.468919e-003 1.479542e-002 -4.000000e-002
1.494877e-002 -1.238690e-003 -4.000000e-002
-1.238690e-003 1.494877e-002 -4.000000e-002
1.500000e-002 0.000000e+000 -4.000000e-002
0.000000e+000 1.500000e-002 -4.000000e-002
1.494877e-002 1.238690e-003 -4.000000e-002
1.238690e-003 1.494877e-002 -4.000000e-002
1.479542e-002 2.468919e-003 -4.000000e-002
2.468919e-003 1.479542e-002 -4.000000e-002
1.454100e-002 3.682282e-003 -4.000000e-002
3.682282e-003 1.454100e-002 -4.000000e-002
1.418726e-002 4.870492e-003 -4.000000e-002
4.870492e-003 1.418726e-002 -4.000000e-002
1.373660e-002 6.025431e-003 -4.000000e-002
6.025431e-003 1.373660e-002 -4.000000e-002
1.319211e-002 7.139211e-003 -4.000000e-002
7.139211e-003 1.319211e-002 -4.000000e-002
1.255750e-002 8.204223e-003 -4.000000e-002
8.204223e-003 1.255750e-002 -4.000000e-002
1.183711e-002 9.213191e-003 -4.000000e-002
9.213191e-003 1.183711e-002 -4.000000e-002
1.103586e-002 1.015922e-002 -4.000000e-002
1.015922e-002 1.103586e-002 -4.000000e-002
1.500000e-002 0.000000e+000 -6.000000e-002
1.494877e-002 -1.238690e-003 -6.000000e-002
1.479542e-002 -2.468919e-003 -6.000000e-002
1.454100e-002 -3.682282e-003 -6.000000e-002
1.418726e-002 -4.870492e-003 -6.000000e-002
1.373660e-002 -6.025431e-003 -6.000000e-002
1.319211e-002 -7.139211e-003 -6.000000e-002
1.255750e-002 -8.204223e-003 -6.000000e-002
1.183711e-002 -9.213191e-003 -6.000000e-002
1.103586e-002 -1.015922e-002 -6.000000e-002
1.015922e-002 -1.103586e-002 -6.000000e-002
9.213191e-003 -1.183711e-002 -6.000000e-002
8.204223e-003 -1.255750e-002 -6.000000e-002
7.139211e-003 -1.319211e-002 -6.000000e-002
6.025431e-003 -1.373660e-002 -6.000000e-002
4.870492e-003 -1.418726e-002 -6.000000e-002
3.682282e-003 -1.454100e-002 -6.000000e-002
2.468919e-003 -1.479542e-002 -6.000000e-002
1.238690e-003 -1.494877e-002 -6.000000e-002
0.000000e+000 -1.500000e-002 -6.000000e-002
-1.238690e-003 -1.494877e-002 -6.000000e-002
-2.468919e-003 -1.479542e-002 -6.000000e-002
-3.682282e-003 -1.454100e-002 -6.000000e-002
-4.870492e-003 -1.418726e-002 -6.000000e-002
-6.025431e-003 -1.373660e-002 -6.000000e-002
-7.139211e-003 -1.319211e-002 -6.000000e-002
-8.204223e-003 -1.255750e-002 -6.000000e-002
-9.213191e-003 -1.183711e-002 -6.000000e-002
-1.015922e-002 -1.103586e-002 -6.000000e-002
-1.103586e-002 -1.015922e-002 -6.000000e-002
-1.183711e-002 -9.213191e-003 -6.000000e-002
-1.255750e-002 -8.204223e-003 -6.000000e-002
-1.319211e-002 -7.139211e-003 -6.000000e-002
-1.373660e-002 -6.025431e-003 -6.000000e-002
-1.418726e-002 -4.870492e-003 -6.000000e-002
-1.454100e-002 -3.682282e-003 -6.000000e-002
-1.479542e-002 -2.468919e-003 -6.000000e-002
-1.494877e-002 -1.238690e-003 -6.000000e-002
-1.500000e-002 0.000000e+000 -6.000000e-002
-1.494877e-002 1.238690e-003 -6.000000e-002
-1.479542e-002 2.468919e-003 -6.000000e-002
-1.454100e-002 3.682282e-003 -6.000000e-002
-1.418726e-002 4.870492e-003 -6.000000e-002
-1.373660e-002 6.025431e-003 -6.000000e-002
-1.319211e-002 7.139211e-003 -6.000000e-002
-1.255750e-002 8.204223e-003 -6.000000e-002
-1.183711e-002 9.213191e-003 -6.000000e-002
-1.103586e-002 1.015922e-002 -6.000000e-002
-1.015922e-002 1.103586e-002 -6.000000e-002
-9.213191e-003 1.183711e-002 -6.000000e-002
-8.204223e-003 1.255750e-002 -6.000000e-002
-7.139211e-003 1.319211e-002 -6.000000e-002
-6.025431e-003 1.373660e-002 -6.000000e-002
-4.870492e-003 1.418726e-002 -6.000000e-002
-3.682282e-003 1.454100e-002 -6.000000e-002
-2.468919e-003 1.479542e-002 -6.000000e-002
-1.238690e-003 1.494877e-002 -6.000000e-002
0.000000e+000 1.500000e-002 -6.000000e-002
1.238690e-003 1.494877e-002 -6.000000e-002
2.468919e-003 1.479542e-002 -6.000000e-002
3.682282e-003 1.454100e-002 -6.000000e-002
4.870492e-003 1.418726e-002 -6.000000e-002
6.025431e-003 1.373660e-002 -6.000000e-002
7.139211e-003 1.319211e-002 -6.000000e-002
8.204223e-003 1.255750e-002 -6.000000e-002
9.213191e-003 1.183711e-002 -6.000000e-002
1.015922e-002 1.103586e-002 -6.000000e-002
1.103586e-002 1.015922e-002 -6.000000e-002
1.183711e-002 9.213191e-003 -6.000000e-002
1.255750e-002 8.204223e-003 -6.000000e-002
1.319211e-002 7.139211e-003 -6.000000e-002
1.373660e-002 6.025431e-003 -6.000000e-002
1.418726e-002 4.870492e-003 -6.000000e-002
1.454100e-002 3.682282e-003 -6.000000e-002
1.479542e-002 2.468919e-003 -6.000000e-002
1.494877e-002 1.238690e-003 -6.000000e-002
9.745412e-003 -2.242086e-003 -6.000000e-002
2.931002e-003 -9.560818e-003 -6.000000e-002
6.814410e-003 7.318731e-003 -6.000000e-002
-9.745412e-003 2.242086e-003 -6.000000e-002
-2.931002e-003 9.560818e-003 -6.000000e-002
-6.814410e-003 -7.318731e-003 -6.000000e-002
-6.814410e-003 -7.318731e-003 -4.500000e-002
-9.745412e-003 2.242086e-003 -4.500000e-002
2.931002e-003 -9.560818e-003 -4.500000e-002
9.745412e-003 -2.242086e-003 -4.500000e-002
6.814410e-003 7.318731e-003 -4.500000e-002
-2.931002e-003 9.560818e-003 -4.500000e-002
3 0 1 2
3 3 4 2
3 4 0 2
3 5 3 2
3 6 7 8
3 2 1 9
3 1 10 11
3 8 7 12
3 9 1 13
3 7 14 15
3 11 16 17
3 1 11 17
3 18 12 19
3 13 1 17
3 20 13 21
3 12 7 19
3 15 22 23
3 21 13 24
3 17 25 26
3 25 27 26
3 13 17 26
3 28 24 29
3 30 31 32
3 33 34 35
3 34 36 35
3 26 37 38
3 36 19 35
3 7 15 35
3 39 29 40
3 15 23 35
3 24 13 40
3 19 7 35
3 29 24 40
3 32 41 42
3 38 43 44
3 26 38 44
3 30 32 42
3 45 40 46
3 13 26 46
3 40 13 46
3 26 44 47
3 46 26 47
3 48 49 50
3 49 35 50
3 42 51 52
3 51 53 52
3 54 50 55
3 30 42 4
3 50 35 4
3 55 50 4
3 56 55 4
3 23 30 4
3 35 23 4
3 42 52 57
3 52 58 57
3 58 59 57
3 4 42 57
3 60 4 3
3 57 61 0
3 4 57 0
3 41 32 62
3 41 62 63
3 42 41 63
3 42 63 64
3 51 42 64
3 51 64 65
3 51 65 66
3 53 51 66
3 53 66 67
3 52 53 67
3 52 67 68
3 58 52 68
3 59 58 68
3 59 68 69
3 59 69 70
3 57 59 70
3 57 70 71
3 61 57 71
3 61 71 72
3 0 61 72
3 1 0 72
3 1 72 73
3 1 73 74
3 10 74 75
3 10 1 74
3 11 10 75
3 16 75 76
3 16 76 77
3 16 11 75
3 17 16 77
3 25 77 78
3 25 78 79
3 25 17 77
3 27 79 80
3 27 25 79
3 26 27 80
3 37 26 80
3 37 80 81
3 38 37 81
3 38 81 82
3 38 82 83
3 43 38 83
3 44 43 83
3 44 83 84
3 47 44 84
3 47 84 85
3 47 85 86
3 46 47 86
3 45 46 86
3 45 86 87
3 45 87 88
3 40 45 88
3 39 40 88
3 39 88 89
3 29 39 89
3 29 89 90
3 29 90 91
3 28 29 91
3 24 28 91
3 24 91 92
3 24 92 93
3 21 24 93
3 20 21 93
3 20 93 94
3 13 20 94
3 13 94 95
3 13 95 96
3 9 13 96
3 2 9 96
3 2 96 97
3 5 2 97
3 5 97 98
3 5 98 99
3 3 99 100
3 3 5 99
3 60 100 101
3 60 3 100
3 4 60 101
3 56 101 102
3 56 102 103
3 56 4 101
3 55 103 104
3 55 56 103
3 54 55 104
3 50 54 104
3 50 104 105
3 50 105 106
3 48 106 107
3 48 50 106
3 49 48 107
3 35 107 108
3 35 108 109
3 35 49 107
3 33 109 110
3 33 35 109
3 34 110 111
3 34 33 110
3 36 34 111
3 19 111 112
3 19 112 113
3 19 36 111
3 18 19 113
3 18 113 114
3 12 114 115
3 12 18 114
3 8 12 115
3 6 115 116
3 6 8 115
3 7 116 117
3 7 117 118
3 7 6 116
3 14 118 119
3 14 7 118
3 15 119 120
3 15 14 119
3 22 15 120
3 23 120 121
3 23 121 122
3 23 22 120
3 30 23 122
3 31 122 123
3 31 123 62
3 31 30 122
3 32 31 62
3 101 124 125
3 100 126 124
3 100 124 101
3 102 127 128
3 102 125 127
3 102 101 125
3 99 129 126
3 99 126 100
3 103 128 130
3 103 102 128
3 98 131 129
3 98 129 99
3 104 130 132
3 104 103 130
3 97 133 131
3 97 134 133
3 97 131 98
3 105 132 135
3 105 104 132
3 96 136 134
3 96 134 97
3 106 105 135
3 106 137 138
3 106 135 137
3 95 139 136
3 95 136 96
3 107 106 138
3 107 138 140
3 94 141 139
3 94 139 95
3 108 107 140
3 108 140 142
3 93 141 94
3 93 143 141
3 93 144 143
3 109 142 145
3 109 108 142
3 92 144 93
3 92 146 144
3 110 145 147
3 110 109 145
3 91 146 92
3 91 148 146
3 111 149 150
3 111 147 149
3 111 110 147
3 90 148 91
3 90 151 148
3 112 150 152
3 112 111 150
3 89 153 151
3 89 154 153
3 89 151 90
3 113 152 155
3 113 112 152
3 88 154 89
3 88 156 154
3 114 155 157
3 114 113 155
3 87 158 156
3 87 156 88
3 115 157 159
3 115 114 157
3 86 158 87
3 160 115 159
3 161 158 86
3 116 115 160
3 85 161 86
3 162 116 160
3 163 161 85
3 117 116 162
3 84 163 85
3 164 118 117
3 164 117 162
3 165 163 84
3 166 119 118
3 166 118 164
3 167 165 84
3 167 84 83
3 168 120 119
3 168 119 166
3 169 167 83
3 169 83 82
3 170 120 168
3 171 169 82
3 171 82 81
3 172 120 170
3 172 121 120
3 173 171 81
3 173 81 80
3 174 121 172
3 174 122 121
3 175 173 80
3 176 123 122
3 176 122 174
3 177 175 80
3 177 80 79
3 178 123 176
3 178 62 123
3 179 177 79
3 179 79 78
3 180 62 178
3 181 179 78
3 181 78 77
3 182 62 180
3 182 63 62
3 183 181 77
3 183 77 76
3 184 63 182
3 184 64 63
3 185 183 76
3 185 76 75
3 186 64 184
3 186 65 64
3 187 185 75
3 188 65 186
3 188 66 65
3 189 187 75
3 189 75 74
3 190 66 188
3 191 74 73
3 191 189 74
3 192 67 66
3 192 66 190
3 193 73 72
3 193 191 73
3 194 68 67
3 194 67 192
3 195 193 72
3 195 72 71
3 196 69 68
3 196 68 194
3 197 195 71
3 198 69 196
3 198 70 69
3 199 197 71
3 199 70 198
3 199 71 70
3 200 180 178
3 201 200 178
3 201 178 176
3 202 201 176
3 202 176 174
3 203 202 174
3 203 174 172
3 204 203 172
3 204 172 170
3 205 204 170
3 206 205 170
3 206 170 168
3 206 168 166
3 207 206 166
3 208 207 164
3 207 166 164
3 209 208 162
3 208 164 162
3 210 209 160
3 211 210 160
3 209 162 160
3 211 160 159
3 211 159 157
3 212 211 157
3 213 212 157
3 213 157 155
3 213 155 152
3 214 213 152
3 214 152 150
3 215 214 150
3 215 150 149
3 216 215 149
3 216 149 147
3 217 216 147
3 217 147 145
3 218 217 145
3 218 145 142
3 219 218 142
3 219 142 140
3 220 219 140
3 220 140 138
3 221 220 138
3 221 138 137
3 222 221 137
3 223 222 135
3 222 137 135
3 224 223 132
3 225 224 132
3 223 135 132
3 225 132 130
3 226 225 128
3 225 130 128
3 227 226 127
3 226 128 127
3 228 227 125
3 229 228 125
3 227 127 125
3 230 229 124
3 229 125 124
3 230 124 126
3 231 230 129
3 230 126 129
3 232 231 131
3 233 232 131
3 231 129 131
3 233 131 133
3 234 233 134
3 235 234 134
3 233 133 134
3 235 134 136
3 235 136 139
3 236 235 139
3 236 139 141
3 237 236 141
3 237 141 143
3 238 237 143
3 238 143 144
3 239 238 144
3 239 144 146
3 240 239 146
3 241 240 148
3 240 146 148
3 241 148 151
3 242 241 151
3 243 242 153
3 242 151 153
3 244 243 154
3 243 153 154
3 245 244 156
3 244 154 156
3 246 245 158
3 245 156 158
3 247 246 161
3 246 158 161
3 248 247 163
3 247 161 163
3 249 248 165
3 250 249 165
3 248 163 165
3 250 165 167
3 251 250 169
3 250 167 169
3 252 251 171
3 251 169 171
3 253 252 173
3 252 171 173
3 254 253 175
3 255 254 175
3 253 173 175
3 255 175 177
3 256 255 179
3 255 177 179
3 257 256 181
3 256 179 181
3 258 257 183
3 257 181 183
3 259 258 185
3 260 259 185
3 258 183 185
3 260 185 187
3 260 187 189
3 261 260 189
3 261 189 191
3 262 261 191
3 262 191 193
3 263 262 193
3 264 263 193
3 264 193 195
3 264 195 197
3 265 264 197
3 265 197 199
3 266 265 199
3 266 199 198
3 267 266 198
3 267 198 196
3 268 267 196
3 269 268 196
3 269 196 194
3 269 194 192
3 270 269 192
3 270 192 190
3 271 270 190
3 271 190 188
3 272 271 188
3 272 188 186
3 273 272 186
3 273 186 184
3 274 273 184
3 275 274 184
3 275 184 182
3 200 275 180
3 275 182 180
3 273 276 272
3 220 221 277
3 221 222 277
3 276 278 272
3 214 277 213
3 278 260 261
3 279 243 244
3 272 278 271
3 213 277 212
3 278 261 262
3 279 244 245
3 271 278 270
3 212 277 211
3 278 262 263
3 270 278 269
3 279 245 246
3 278 263 264
3 211 277 210
3 269 278 268
3 279 246 247
3 278 264 265
3 210 277 209
3 268 278 267
3 278 265 266
3 267 278 266
3 247 248 280
3 248 249 280
3 249 250 280
3 250 251 280
3 279 247 280
3 206 207 276
3 207 208 276
3 208 209 276
3 209 277 276
3 206 276 205
3 280 251 252
3 205 276 204
3 280 252 253
3 222 223 281
3 223 224 281
3 224 225 281
3 225 226 281
3 204 276 203
3 226 227 281
3 227 228 281
3 228 229 281
3 280 253 254
3 229 230 281
3 230 231 281
3 231 232 281
3 232 233 281
3 233 234 281
3 203 276 202
3 280 254 255
3 202 276 201
3 280 255 256
3 201 276 200
3 280 256 257
3 200 276 275
3 280 257 258
3 275 276 274
3 234 235 279
3 235 236 279
3 236 237 279
3 237 238 279
3 238 239 279
3 239 240 279
3 280 258 259
3 240 241 279
3 241 242 279
3 242 243 279
3 274 276 273
3 281 234 279
3 222 281 277
3 214 215 277
3 215 216 277
3 216 217 277
3 280 259 260
3 217 218 277
3 218 219 277
3 278 280 260
3 219 220 277
3 282 281 279
3 283 282 279
3 284 277 281
3 282 284 281
3 284 285 276
3 284 276 277
3 286 278 276
3 285 286 276
3 287 280 278
3 286 287 278
3 283 279 280
3 287 283 280
3 284 282 285
3 282 283 285
3 283 287 286
3 285 283 286
