<?xml version="1.0" encoding="utf-8"?>
<COLLADA xmlns="http://www.collada.org/2005/11/COLLADASchema" version="1.4.1" xmlns:xsi="http://www.w3.org/2001/XMLSchema-instance">
  <asset>
    <contributor>
      <author>Blender User</author>
      <authoring_tool>Blender 4.3.2 commit date:2024-12-16, commit time:21:10, hash:32f5fdce0a0a</authoring_tool>
    </contributor>
    <created>2024-12-20T16:13:44</created>
    <modified>2024-12-20T16:13:44</modified>
    <unit name="meter" meter="1"/>
    <up_axis>Z_UP</up_axis>
  </asset>
  <library_effects>
    <effect id="Material_001-effect">
      <profile_COMMON>
        <technique sid="common">
          <lambert>
            <emission>
              <color sid="emission">0 0 0 1</color>
            </emission>
            <diffuse>
              <color sid="diffuse">0.8000001 0.003808663 0 1</color>
            </diffuse>
            <reflectivity>
              <float sid="specular">0.5</float>
            </reflectivity>
            <index_of_refraction>
              <float sid="ior">1.45</float>
            </index_of_refraction>
          </lambert>
        </technique>
      </profile_COMMON>
    </effect>
    <effect id="Material_002-effect">
      <profile_COMMON>
        <technique sid="common">
          <lambert>
            <emission>
              <color sid="emission">0 0 0 1</color>
            </emission>
            <diffuse>
              <color sid="diffuse">0.8000001 0.003808663 0 1</color>
            </diffuse>
            <reflectivity>
              <float sid="specular">0.5</float>
            </reflectivity>
            <index_of_refraction>
              <float sid="ior">1.45</float>
            </index_of_refraction>
          </lambert>
        </technique>
      </profile_COMMON>
    </effect>
    <effect id="Material_003-effect">
      <profile_COMMON>
        <technique sid="common">
          <lambert>
            <emission>
              <color sid="emission">0 0 0 1</color>
            </emission>
            <diffuse>
              <color sid="diffuse">0.8000001 0.003808663 0 1</color>
            </diffuse>
            <reflectivity>
              <float sid="specular">0.5</float>
            </reflectivity>
            <index_of_refraction>
              <float sid="ior">1.45</float>
            </index_of_refraction>
          </lambert>
        </technique>
      </profile_COMMON>
    </effect>
    <effect id="Material_005-effect">
      <profile_COMMON>
        <technique sid="common">
          <lambert>
            <emission>
              <color sid="emission">0 0 0 1</color>
            </emission>
            <diffuse>
              <color sid="diffuse">0.8000001 0.003808663 0 1</color>
            </diffuse>
            <reflectivity>
              <float sid="specular">0.5</float>
            </reflectivity>
            <index_of_refraction>
              <float sid="ior">1.45</float>
            </index_of_refraction>
          </lambert>
        </technique>
      </profile_COMMON>
    </effect>
  </library_effects>
  <library_images/>
  <library_materials>
    <material id="Material_001-material" name="Material.001">
      <instance_effect url="#Material_001-effect"/>
    </material>
    <material id="Material_002-material" name="Material.002">
      <instance_effect url="#Material_002-effect"/>
    </material>
    <material id="Material_003-material" name="Material.003">
      <instance_effect url="#Material_003-effect"/>
    </material>
    <material id="Material_005-material" name="Material.005">
      <instance_effect url="#Material_005-effect"/>
    </material>
  </library_materials>
  <library_geometries>
    <geometry id="shape0_002-mesh" name="shape0.002">
      <mesh>
        <source id="shape0_002-mesh-positions">
          <float_array id="shape0_002-mesh-positions-array" count="240">43 34.70376 36.11922 50 34.70376 36.11922 43 61.32406 6.427021 50 68.32407 -1.380779 -50 68.32407 -1.380779 -43 61.32406 6.427021 -50 34.70376 36.11922 -43 34.70376 36.11922 -50 68.32407 -38.88078 50 68.32407 -38.88078 50 -85.67594 -38.88078 50 -85.67594 36.11922 -43 -78.67594 36.11922 -43 -78.67594 -35.88078 -43 61.32406 -35.88078 43 -78.67594 -35.88078 43 61.32406 -35.88078 43 -78.67594 36.11922 -50 -85.67594 -38.88078 -50 -85.67594 36.11922 -56.99998 34.70376 36.11922 -49.99998 34.70376 36.11922 -56.99998 61.32406 6.427021 -49.99998 68.32407 -1.380779 -150 68.32407 -1.380779 -143 61.32406 6.427021 -150 34.70376 36.11922 -143 34.70376 36.11922 -150 68.32407 -38.88078 -49.99998 68.32407 -38.88078 -49.99998 -85.67594 -38.88078 -49.99998 -85.67594 36.11922 -143 -78.67594 36.11922 -143 -78.67594 -35.88078 -143 61.32406 -35.88078 -56.99998 -78.67594 -35.88078 -56.99998 61.32406 -35.88078 -56.99998 -78.67594 36.11922 -150 -85.67594 -38.88078 -150 -85.67594 36.11922 243 34.70376 36.11922 250 34.70376 36.11922 243 61.32406 6.427021 250 68.32407 -1.380779 150 68.32407 -1.380779 157 61.32406 6.427021 150 34.70376 36.11922 157 34.70376 36.11922 150 68.32407 -38.88078 250 68.32407 -38.88078 250 -85.67594 -38.88078 250 -85.67594 36.11922 157 -78.67594 36.11922 157 -78.67594 -35.88078 157 61.32406 -35.88078 243 -78.67594 -35.88078 243 61.32406 -35.88078 243 -78.67594 36.11922 150 -85.67594 -38.88078 150 -85.67594 36.11922 143 34.70376 36.11922 150 34.70376 36.11922 143 61.32406 6.427021 150 68.32407 -1.380779 49.99998 68.32407 -1.380779 56.99998 61.32406 6.427021 49.99998 34.70376 36.11922 56.99998 34.70376 36.11922 49.99998 68.32407 -38.88078 150 68.32407 -38.88078 150 -85.67594 -38.88078 150 -85.67594 36.11922 56.99998 -78.67594 36.11922 56.99998 -78.67594 -35.88078 56.99998 61.32406 -35.88078 143 -78.67594 -35.88078 143 61.32406 -35.88078 143 -78.67594 36.11922 49.99998 -85.67594 -38.88078 49.99998 -85.67594 36.11922</float_array>
          <technique_common>
            <accessor source="#shape0_002-mesh-positions-array" count="80" stride="3">
              <param name="X" type="float"/>
              <param name="Y" type="float"/>
              <param name="Z" type="float"/>
            </accessor>
          </technique_common>
        </source>
        <source id="shape0_002-mesh-normals">
          <float_array id="shape0_002-mesh-normals-array" count="66">0 0.7445728 0.6675413 1.03875e-6 0.7445731 0.667541 0 0.7445741 0.6675399 0 0.7445734 0.6675406 -1.03875e-6 0.7445731 0.667541 0 1 0 1 0 0 0 0 1 0 -1 0 -1 0 0 0 0 -1 0 0.7445732 0.6675409 0 0.7445741 0.6675398 0 0.7445735 0.6675405 0 0.7445736 0.6675404 -1 0 0 1.03875e-6 0.7445707 0.6675437 0 0.7445735 0.6675406 0 0.7445721 0.6675422 -1 1.93762e-7 0 0 0.7445741 0.6675398 0 0.7445735 0.6675405</float_array>
          <technique_common>
            <accessor source="#shape0_002-mesh-normals-array" count="22" stride="3">
              <param name="X" type="float"/>
              <param name="Y" type="float"/>
              <param name="Z" type="float"/>
            </accessor>
          </technique_common>
        </source>
        <vertices id="shape0_002-mesh-vertices">
          <input semantic="POSITION" source="#shape0_002-mesh-positions"/>
        </vertices>
        <triangles material="Material_001-material" count="36">
          <input semantic="VERTEX" source="#shape0_002-mesh-vertices" offset="0"/>
          <input semantic="NORMAL" source="#shape0_002-mesh-normals" offset="1"/>
          <p>0 0 1 0 2 0 2 1 1 1 3 1 2 2 3 2 4 2 2 3 4 3 5 3 5 4 4 4 6 4 5 0 6 0 7 0 4 5 3 5 8 5 8 5 3 5 9 5 9 6 3 6 10 6 10 6 3 6 1 6 10 6 1 6 11 6 7 6 12 6 5 6 5 6 12 6 13 6 5 6 13 6 14 6 13 7 15 7 14 7 14 7 15 7 16 7 2 8 5 8 16 8 16 8 5 8 14 8 0 9 2 9 17 9 17 9 2 9 15 9 15 9 2 9 16 9 15 5 13 5 17 5 17 5 13 5 12 5 18 8 10 8 19 8 19 8 10 8 11 8 19 9 6 9 18 9 18 9 6 9 4 9 18 9 4 9 8 9 7 7 6 7 12 7 12 7 6 7 19 7 12 7 19 7 11 7 12 7 11 7 17 7 17 7 11 7 1 7 17 7 1 7 0 7 10 10 18 10 9 10 9 10 18 10 8 10</p>
        </triangles>
        <triangles material="Material_002-material" count="36">
          <input semantic="VERTEX" source="#shape0_002-mesh-vertices" offset="0"/>
          <input semantic="NORMAL" source="#shape0_002-mesh-normals" offset="1"/>
          <p>20 11 21 11 22 11 22 1 21 1 23 1 22 12 23 12 24 12 22 13 24 13 25 13 25 4 24 4 26 4 25 14 26 14 27 14 24 5 23 5 28 5 28 5 23 5 29 5 29 6 23 6 30 6 30 6 23 6 21 6 30 6 21 6 31 6 27 6 32 6 25 6 25 6 32 6 33 6 25 6 33 6 34 6 33 7 35 7 34 7 34 7 35 7 36 7 22 8 25 8 36 8 36 8 25 8 34 8 20 9 22 9 37 9 37 15 22 15 35 15 35 9 22 9 36 9 35 5 33 5 37 5 37 5 33 5 32 5 38 8 30 8 39 8 39 8 30 8 31 8 39 9 26 9 38 9 38 9 26 9 24 9 38 9 24 9 28 9 27 7 26 7 32 7 32 7 26 7 39 7 32 7 39 7 31 7 32 7 31 7 37 7 37 7 31 7 21 7 37 7 21 7 20 7 30 10 38 10 29 10 29 10 38 10 28 10</p>
        </triangles>
        <triangles material="Material_003-material" count="36">
          <input semantic="VERTEX" source="#shape0_002-mesh-vertices" offset="0"/>
          <input semantic="NORMAL" source="#shape0_002-mesh-normals" offset="1"/>
          <p>40 14 41 14 42 14 42 16 41 16 43 16 42 2 43 2 44 2 42 17 44 17 45 17 45 4 44 4 46 4 45 18 46 18 47 18 44 5 43 5 48 5 48 5 43 5 49 5 49 6 43 6 50 6 50 6 43 6 41 6 50 6 41 6 51 6 47 6 52 6 45 6 45 6 52 6 53 6 45 6 53 6 54 6 53 7 55 7 54 7 54 7 55 7 56 7 42 8 45 8 56 8 56 8 45 8 54 8 40 9 42 9 57 9 57 19 42 19 55 19 55 9 42 9 56 9 55 5 53 5 57 5 57 5 53 5 52 5 58 8 50 8 59 8 59 8 50 8 51 8 59 9 46 9 58 9 58 9 46 9 44 9 58 9 44 9 48 9 47 7 46 7 52 7 52 7 46 7 59 7 52 7 59 7 51 7 52 7 51 7 57 7 57 7 51 7 41 7 57 7 41 7 40 7 50 10 58 10 49 10 49 10 58 10 48 10</p>
        </triangles>
        <triangles material="Material_005-material" count="36">
          <input semantic="VERTEX" source="#shape0_002-mesh-vertices" offset="0"/>
          <input semantic="NORMAL" source="#shape0_002-mesh-normals" offset="1"/>
          <p>60 14 61 14 62 14 62 1 61 1 63 1 62 20 63 20 64 20 62 21 64 21 65 21 65 4 64 4 66 4 65 11 66 11 67 11 64 5 63 5 68 5 68 5 63 5 69 5 69 6 63 6 70 6 70 6 63 6 61 6 70 6 61 6 71 6 67 6 72 6 65 6 65 6 72 6 73 6 65 6 73 6 74 6 73 7 75 7 74 7 74 7 75 7 76 7 62 8 65 8 76 8 76 8 65 8 74 8 60 9 62 9 77 9 77 9 62 9 75 9 75 9 62 9 76 9 75 5 73 5 77 5 77 5 73 5 72 5 78 8 70 8 79 8 79 8 70 8 71 8 79 9 66 9 78 9 78 9 66 9 64 9 78 9 64 9 68 9 67 7 66 7 72 7 72 7 66 7 79 7 72 7 79 7 71 7 72 7 71 7 77 7 77 7 71 7 61 7 77 7 61 7 60 7 70 10 78 10 69 10 69 10 78 10 68 10</p>
        </triangles>
      </mesh>
    </geometry>
  </library_geometries>
  <library_visual_scenes>
    <visual_scene id="Scene" name="Scene">
      <node id="node_001" name="node.001" type="NODE">
        <matrix sid="transform">0.001 0 0 -0.45 0 0.001 0 0.255 0 0 0.001 0.8993807 0 0 0 1</matrix>
        <instance_geometry url="#shape0_002-mesh" name="node.001">
          <bind_material>
            <technique_common>
              <instance_material symbol="Material_001-material" target="#Material_001-material"/>
              <instance_material symbol="Material_002-material" target="#Material_002-material"/>
              <instance_material symbol="Material_003-material" target="#Material_003-material"/>
              <instance_material symbol="Material_005-material" target="#Material_005-material"/>
            </technique_common>
          </bind_material>
        </instance_geometry>
      </node>
    </visual_scene>
  </library_visual_scenes>
  <scene>
    <instance_visual_scene url="#Scene"/>
  </scene>
</COLLADA>